
<svg xmlns="http://www.w3.org/2000/svg" version="1.1" xmlns:xlink="http://www.w3.org/1999/xlink" preserveAspectRatio="none" x="0px" y="0px" width="130px" height="115px" viewBox="0 0 130 115">
<defs>
<filter id="Filter_1" x="-20%" y="-24.88884813241778%" width="140%" height="149.77769626483555%" color-interpolation-filters="sRGB">
<feFlood flood-color="#000000" flood-opacity="1" in="SourceGraphic" result="result1"/>

<feGaussianBlur in="SourceGraphic" stdDeviation="1.6666666666666667,1.6666666666666667" result="result2"/>

<feComposite in2="result2" in="result1" operator="in" result="result3"/>

<feComposite in2="result3" in="SourceGraphic" operator="over" result="result4"/>
</filter>

<g id="icon_r_box_02_1_Layer3_0_FILL">
<path fill="#FFFFFF" fill-opacity="0" stroke="none" d="
M 65 -55
L -65 -55 -65 25 65 25 65 -55 Z"/>
</g>

<g id="icon_r_box_02_1_Layer3_1_FILL">
<path fill="#FFFFFF" fill-opacity="0" stroke="none" d="
M 65.05 49.95
L 65.05 24.95 -64.95 24.95 -64.95 49.95 65.05 49.95 Z"/>
</g>

<g id="icon_r_box_02_1_Layer3_2_FILL">
<path fill="#FFFFFF" fill-opacity="0" stroke="none" d="
M 65 -52.85
L 65 -57.85 -65 -57.85 -65 -52.85 65 -52.85 Z"/>
</g>

<g id="icon_r_box_02_1_Layer3_3_FILL">
<path fill="#FFFFFF" fill-opacity="0" stroke="none" d="
M 65 54.95
L 65 49.95 -65 49.95 -65 54.95 65 54.95 Z"/>
</g>

<g id="Duplicate_Items_Folder_cnsdf_0_Layer1_0_FILL">
<path fill="#FFFFFF" stroke="none" d="
M 120.95 39.05
Q 117.85 36.95 104.75 34.8
L 92.25 33
Q 88.95 25.15 85.25 17.15 77.8 1.2 75.6 0.75 72.6 0.15 52.55 0 31.9 -0.15 29.7 0.75 27.75 1.6 22.55 18.9 19.95 27.55 17.75 36.05 14.6 36.55 11.05 37.2 3.8 38.65 1.65 39.85 0.848046875 40.3421875 0.4 42.15 -0.291796875 45.0572265625 -0.1 51.25 -0.0814453125 51.930078125 -0.05 52.65 0.5 63.9 1.45 63.9
L 4.35 63.9
Q 4.816796875 69.32265625 8.75 73.3 13.25 77.75 19.6 77.75 25.9 77.75 30.4 73.3 34.37734375 69.32265625 34.85 63.9
L 86 63.9
Q 86.466796875 69.32265625 90.4 73.3 94.9 77.75 101.25 77.75 107.55 77.75 112.05 73.3 116.02734375 69.32265625 116.5 63.9
L 120.75 63.9
Q 121.684765625 56.5693359375 122 51.2 122.3056640625 45.6544921875 121.95 42.2 121.7 39.55 120.95 39.05 Z"/>
</g>

<g id="Duplicate_Items_Folder_cnsdf_0_Layer0_0_FILL">
<path fill="#FFCA00" stroke="none" d="
M 2.9 42.2
Q 1.6091796875 42.1630859375 0.4 42.15 -0.291796875 45.0572265625 -0.1 51.25 0.9162109375 51.3 4.5 51.3 5.3 51.3 6.45 47.15 7.55 43 6.9 42.6 6.35 42.25 2.9 42.2
M 114.6 42.6
Q 113.95 43 115.05 47.15 116.2 51.3 117 51.3 121.9 51.3 122 51.2 122.3056640625 45.6544921875 121.95 42.2 120.35 42.15 118.6 42.2 115.15 42.25 114.6 42.6 Z"/>

<path fill="#0094FF" stroke="none" d="
M 115.05 47.15
Q 113.95 43 114.6 42.6 115.15 42.25 118.6 42.2 120.35 42.15 121.95 42.2 121.7 39.55 120.95 39.05 117.85 36.95 104.75 34.8
L 92.25 33
Q 88.95 25.15 85.25 17.15 77.8 1.2 75.6 0.75 72.6 0.15 52.55 0 31.9 -0.15 29.7 0.75 27.75 1.6 22.55 18.9 19.95 27.55 17.75 36.05 14.6 36.55 11.05 37.2 3.8 38.65 1.65 39.85 0.848046875 40.3421875 0.4 42.15 1.6091796875 42.1630859375 2.9 42.2 6.35 42.25 6.9 42.6 7.55 43 6.45 47.15 5.3 51.3 4.5 51.3 0.9162109375 51.3 -0.1 51.25 -0.0814453125 51.930078125 -0.05 52.65 0.5 63.9 1.45 63.9
L 120.75 63.9
Q 121.684765625 56.5693359375 122 51.2 121.9 51.3 117 51.3 116.2 51.3 115.05 47.15 Z"/>
</g>

<g id="Duplicate_Items_Folder_cnsdf_0_Layer0_2_FILL">
<path fill="#005A9B" stroke="none" d="
M 74 21.35
Q 73.55 20.25 73.05 19.15 70.8 14.15 69.6 11.7
L 32.85 34.9 38.6 34.9 52.45 34.9 74 21.35 Z"/>

<path fill="#004A80" stroke="none" d="
M 69.6 11.7
Q 68.35 9.25 68 9.2 66.15 8.85 51 8.7 35.25 8.55 33.9 9.1 32.65 9.7 29.7 22.35 28.25 28.65 27.05 34.9
L 32.85 34.9 69.6 11.7
M 52.45 34.9
L 78.95 34.9
Q 77.7 30 74 21.35
L 52.45 34.9 Z"/>
</g>

<g id="Duplicate_Items_Folder_cnsdf_0_Layer0_3_FILL">
<path fill="#43B0FF" stroke="none" d="
M 72.5 35.5
Q 72.5 33.85 71.3 32.65 70.15 31.5 68.5 31.5
L 66.5 31.5
Q 63.5 31.5 63.5 34.5
L 63.5 42.5
Q 63.5 45.5 66.5 45.5
L 71.5 45.5
Q 72.5 45.5 72.5 44.5
L 72.5 35.5 Z"/>
</g>

<g id="Duplicate_Items_Folder_cnsdf_0_Layer0_4_FILL">
<path fill="#61BDFF" stroke="none" d="
M 44.5 41.35
Q 44.933984375 41.7947265625 45.55 41.8
L 51.7 41.8
Q 52.316015625 41.7947265625 52.75 41.35 53.1947265625 40.916015625 53.2 40.3 53.1947265625 39.683984375 52.75 39.25 52.316015625 38.8052734375 51.7 38.8
L 45.55 38.8
Q 44.933984375 38.8052734375 44.5 39.25 44.0552734375 39.683984375 44.05 40.3 44.0552734375 40.916015625 44.5 41.35 Z"/>
</g>

<g id="Duplicate_Items_Folder_cnsdf_0_Layer0_5_FILL">
<path fill="#79C7FF" stroke="none" d="
M 96.25 15.3
Q 96.25 14.65 95.8 14.2 95.35 13.75 94.7 13.75 94.05 13.75 93.6 14.2 93.15 14.65 93.15 15.3 93.15 15.95 93.6 16.4 94.05 16.85 94.7 16.85 95.35 16.85 95.8 16.4 96.25 15.95 96.25 15.3 Z"/>
</g>

<g id="Duplicate_Items_Folder_cnsdf_0_Layer0_7_FILL">
<path fill="#FFE772" stroke="none" d="
M 131.75 47.35
Q 131.75 47.1 131.55 46.9 131.4 46.75 131.15 46.75 130.9 46.75 130.7 46.9 130.55 47.1 130.55 47.35 130.55 47.6 130.7 47.75 130.9 47.95 131.15 47.95 131.4 47.95 131.55 47.75 131.75 47.6 131.75 47.35 Z"/>
</g>

<g id="Duplicate_Items_Folder_cnsdf_0_Layer0_9_FILL">
<path fill="#FFE772" stroke="none" d="
M 131.75 47.35
Q 131.75 47.1 131.55 46.9 131.4 46.75 131.15 46.75 130.9 46.75 130.7 46.9 130.55 47.1 130.55 47.35 130.55 47.6 130.7 47.75 130.9 47.95 131.15 47.95 131.4 47.95 131.55 47.75 131.75 47.6 131.75 47.35 Z"/>
</g>

<g id="Duplicate_Items_Folder_cnsdf_0_Layer0_13_MEMBER_0_FILL">
<path fill="#233A59" stroke="none" d="
M 116.55 62.45
Q 116.55 56.15 112.05 51.65 107.55 47.15 101.25 47.15 94.9 47.15 90.4 51.65 85.95 56.15 85.95 62.45 85.95 68.8 90.4 73.3 94.9 77.75 101.25 77.75 107.55 77.75 112.05 73.3 116.55 68.8 116.55 62.45
M 107.35 62.45
Q 107.35 65 105.55 66.8 103.75 68.55 101.25 68.55 98.7 68.55 96.9 66.8 95.1 65 95.1 62.45 95.1 59.95 96.9 58.15 98.7 56.35 101.25 56.35 103.75 56.35 105.55 58.15 107.35 59.95 107.35 62.45 Z"/>

<path fill="#AFAFAF" stroke="none" d="
M 105.55 66.8
Q 107.35 65 107.35 62.45 107.35 59.95 105.55 58.15 103.75 56.35 101.25 56.35 98.7 56.35 96.9 58.15 95.1 59.95 95.1 62.45 95.1 65 96.9 66.8 98.7 68.55 101.25 68.55 103.75 68.55 105.55 66.8 Z"/>
</g>

<g id="Duplicate_Items_Folder_cnsdf_0_Layer0_13_MEMBER_1_FILL">
<path fill="#1C304A" stroke="none" d="
M 94.85 71.7
Q 94.3533203125 71.845703125 94.1 72.3
L 92.5 75.05
Q 93.56328125 75.805078125 94.65 76.3
L 94.7 76.3 96.3 73.5
Q 96.5466796875 73.0453125 96.4 72.55 96.2546875 72.0525390625 95.8 71.8 95.3458984375 71.55234375 94.85 71.7
M 87.35 69
Q 87.89609375 70.137109375 88.6 71.15
L 91.45 69.5
Q 91.918359375 69.269140625 92.05 68.75 92.1845703125 68.27578125 91.9 67.8 91.66953125 67.3806640625 91.15 67.25 90.6767578125 67.1158203125 90.2 67.35
L 87.35 69
M 90 61.55
Q 89.66328125 61.2044921875 89.15 61.2
L 86 61.2
Q 85.95 61.816015625 85.95 62.45 85.95 63.084375 86 63.7
L 89.15 63.7
Q 89.66328125 63.6955078125 90 63.3 90.3955078125 62.96328125 90.4 62.45 90.3955078125 61.93671875 90 61.55
M 91.1 57.7
Q 91.618359375 57.5705078125 91.85 57.1 92.134375 56.6759765625 92 56.15 91.8697265625 55.6822265625 91.4 55.4
L 88.6 53.75
Q 87.8830078125 54.8119140625 87.35 55.9
L 90.15 57.55
Q 90.624609375 57.83359375 91.1 57.7
M 96.45 52.3
Q 96.58359375 51.824609375 96.3 51.35
L 94.7 48.55
Q 93.5857421875 49.1029296875 92.55 49.8
L 94.15 52.6
Q 94.4322265625 53.0697265625 94.9 53.2 95.4259765625 53.334375 95.85 53.05 96.3205078125 52.818359375 96.45 52.3
M 106 72.5
Q 105.8662109375 73.0251953125 106.1 73.45
L 107.8 76.3
Q 108.919140625 75.7916015625 109.95 75.05
L 108.25 72.2
Q 108.017578125 71.780078125 107.5 71.65 107.0240234375 71.515625 106.55 71.75 106.1294921875 72.031640625 106 72.5
M 102.1 73.6
Q 101.76328125 73.2544921875 101.25 73.25 100.73671875 73.2544921875 100.35 73.6 100.0044921875 73.98671875 100 74.5
L 100 77.7
Q 100.6158203125 77.75 101.25 77.75 101.8841796875 77.75 102.5 77.7
L 102.5 74.5
Q 102.4955078125 73.98671875 102.1 73.6
M 110.4 68.75
Q 110.530078125 69.267578125 110.95 69.5
L 113.85 71.15
Q 114.5875 70.1412109375 115.1 69
L 112.2 67.35
Q 111.7751953125 67.1162109375 111.25 67.25 110.781640625 67.3794921875 110.5 67.8 110.265625 68.2740234375 110.4 68.75
M 108.3 52.6
L 109.9 49.85
Q 108.8927734375 49.1166015625 107.75 48.55
L 106.15 51.35
Q 105.9158203125 51.8267578125 106.05 52.3 106.1806640625 52.81953125 106.6 53.05 107.07578125 53.3345703125 107.55 53.2 108.069140625 53.068359375 108.3 52.6
M 115.1 55.85
Q 114.5533203125 54.7533203125 113.8 53.7
L 111.1 55.25
Q 110.681640625 55.530859375 110.55 56 110.4154296875 56.52421875 110.65 56.95 110.93046875 57.4193359375 111.4 57.55 111.9232421875 57.6841796875 112.35 57.4
L 115.1 55.85
M 113.2 61.25
Q 112.68671875 61.2544921875 112.3 61.6 111.9544921875 61.98671875 111.95 62.5 111.9544921875 63.01328125 112.3 63.35 112.68671875 63.7455078125 113.2 63.75
L 116.5 63.7
Q 116.55 63.091796875 116.55 62.45 116.55 61.8232421875 116.5 61.2
L 116.5 61.2 113.2 61.25
M 101.25 47.15
Q 100.6158203125 47.15 100 47.2
L 100 50.4
Q 100.0044921875 50.91328125 100.35 51.25 100.73671875 51.6455078125 101.25 51.65 101.76328125 51.6455078125 102.1 51.25 102.4955078125 50.91328125 102.5 50.4
L 102.5 47.2
Q 101.8841796875 47.15 101.25 47.15 Z"/>
</g>

<g id="Duplicate_Items_Folder_cnsdf_0_Layer0_13_MEMBER_2_FILL">
<path fill="#CACACA" stroke="none" d="
M 107.35 62.45
Q 107.35 59.95 105.55 58.15 103.75 56.35 101.25 56.35 98.7 56.35 96.9 58.15 95.1 59.95 95.1 62.45 95.1 65 96.9 66.8 98.7 68.55 101.25 68.55 103.75 68.55 105.55 66.8 107.35 65 107.35 62.45 Z"/>
</g>

<g id="Duplicate_Items_Folder_cnsdf_0_Layer0_14_MEMBER_0_FILL">
<path fill="#233A59" stroke="none" d="
M 112.05 73.3
Q 116.55 68.8 116.55 62.45 116.55 56.15 112.05 51.65 107.55 47.15 101.25 47.15 94.9 47.15 90.4 51.65 85.95 56.15 85.95 62.45 85.95 68.8 90.4 73.3 94.9 77.75 101.25 77.75 107.55 77.75 112.05 73.3
M 105.55 58.15
Q 107.35 59.95 107.35 62.45 107.35 65 105.55 66.8 103.75 68.55 101.25 68.55 98.7 68.55 96.9 66.8 95.1 65 95.1 62.45 95.1 59.95 96.9 58.15 98.7 56.35 101.25 56.35 103.75 56.35 105.55 58.15 Z"/>

<path fill="#AFAFAF" stroke="none" d="
M 107.35 62.45
Q 107.35 59.95 105.55 58.15 103.75 56.35 101.25 56.35 98.7 56.35 96.9 58.15 95.1 59.95 95.1 62.45 95.1 65 96.9 66.8 98.7 68.55 101.25 68.55 103.75 68.55 105.55 66.8 107.35 65 107.35 62.45 Z"/>
</g>

<g id="Duplicate_Items_Folder_cnsdf_0_Layer0_14_MEMBER_1_FILL">
<path fill="#1C304A" stroke="none" d="
M 16.4 67.3
Q 16.25 66.85 15.85 66.65 15.45 66.4 15 66.55 14.55 66.7 14.3 67.1
L 12.9 69.6
Q 13.8 70.25 14.85 70.75
L 16.3 68.15
Q 16.5 67.75 16.4 67.3
M 8.25 64.15
Q 8.7 65.15 9.4 66.1
L 11.95 64.6
Q 12.35 64.35 12.45 63.95 12.6 63.5 12.35 63.05 12.1 62.65 11.7 62.55 11.25 62.4 10.85 62.65
L 8.25 64.15
M 12.4 52.55
Q 12.3 52.1 11.9 51.9
L 9.35 50.4
Q 8.7 51.3 8.2 52.35
L 10.8 53.85
Q 11.15 54.05 11.65 53.9 12.05 53.8 12.35 53.4 12.55 53 12.4 52.55
M 10.95 58.2
Q 10.95 57.75 10.65 57.45 10.3 57.05 9.85 57.05
L 7 57.05
Q 6.95 57.6 6.95 58.2 6.95 58.8 7 59.35
L 9.85 59.35
Q 10.3 59.35 10.65 59 10.95 58.65 10.95 58.2
M 21.9 69.05
Q 21.9 68.6 21.55 68.3 21.2 67.95 20.75 67.95 20.3 67.95 20 68.3 19.65 68.6 19.65 69.05
L 19.65 71.95
Q 20.2 72 20.75 72 21.35 72 21.9 71.95
L 21.9 69.05
M 27.1 67.05
Q 26.85 66.65 26.45 66.5 25.95 66.35 25.6 66.65 25.2 66.85 25.05 67.3 24.9 67.75 25.2 68.15
L 26.65 70.75
Q 27.65 70.25 28.6 69.55
L 27.1 67.05
M 29.85 62.55
Q 29.4 62.65 29.15 63.05 28.9 63.45 29 63.95 29.15 64.35 29.55 64.6
L 32.15 66.1
Q 32.8 65.15 33.3 64.15
L 30.7 62.65
Q 30.3 62.4 29.85 62.55
M 34.5 57.1
L 34.5 57.05 31.55 57.1
Q 31.1 57.1 30.8 57.5 30.4 57.8 30.4 58.25 30.4 58.7 30.8 59.05 31.1 59.35 31.55 59.35
L 34.5 59.35
Q 34.55 58.8 34.55 58.2 34.55 57.6 34.5 57.1
M 30.8 53.7
L 33.25 52.25
Q 32.75 51.25 32.15 50.35
L 29.7 51.75
Q 29.3 52 29.15 52.45 29 52.85 29.3 53.3 29.5 53.65 29.95 53.8 30.35 53.9 30.8 53.7
M 25.25 48.25
Q 24.95 48.65 25.1 49.1 25.25 49.5 25.65 49.75 26.05 50 26.5 49.85 26.9 49.7 27.15 49.35
L 28.6 46.85
Q 27.65 46.15 26.65 45.7
L 25.25 48.25
M 19.65 44.45
L 19.65 47.35
Q 19.65 47.8 20 48.15 20.3 48.45 20.75 48.45 21.2 48.45 21.55 48.15 21.9 47.8 21.9 47.35
L 21.9 44.45
Q 21.35 44.4 20.75 44.4 20.2 44.4 19.65 44.45
M 16.35 48.25
L 14.85 45.7
Q 13.85 46.15 12.9 46.85
L 14.4 49.35
Q 14.65 49.7 15.1 49.85 15.55 50 15.95 49.75 16.3 49.5 16.45 49.1 16.55 48.6 16.35 48.25 Z"/>
</g>

<g id="Duplicate_Items_Folder_cnsdf_0_Layer0_14_MEMBER_2_FILL">
<path fill="#CACACA" stroke="none" d="
M 107.35 62.45
Q 107.35 59.95 105.55 58.15 103.75 56.35 101.25 56.35 98.7 56.35 96.9 58.15 95.1 59.95 95.1 62.45 95.1 65 96.9 66.8 98.7 68.55 101.25 68.55 103.75 68.55 105.55 66.8 107.35 65 107.35 62.45 Z"/>
</g>

<path id="Duplicate_Items_Folder_cnsdf_0_Layer1_0_1_STROKES" stroke="#FFFFFF" stroke-width="8" stroke-linejoin="round" stroke-linecap="round" fill="none" d="
M 19.018768310546875 34.38389282226562
Q 21.004193115234376 26.712933349609376 23.350604248046874 18.90660400390625 28.043426513671875 3.2939453125 29.80323486328125 2.526849365234375 31.788659667968748 1.714630126953125 50.42457885742187 1.85 68.51901855468749 1.9853698730468752 71.22641601562499 2.526849365234375 73.2118408203125 2.9329589843750004 79.93521118164062 17.327288818359374 83.27433471679687 24.547015380859374 86.25247192382812 31.6313720703125
L 97.53329467773438 33.255810546875
Q 109.35559692382812 35.19611206054688 112.15324096679687 37.09129028320312 112.83009033203125 37.54252319335937 113.05570678710937 39.934057617187506 113.37668144702911 43.05161874294281 113.100830078125 48.056250000000006 112.81634182929993 52.901892161369325 111.97274780273438 59.51756591796875
L 108.13726806640625 59.51756591796875
Q 107.71071195602417 64.41132783889769 104.12129516601563 68.00074462890625 100.06019897460938 72.01671752929687 94.37466430664062 72.01671752929687 88.64400634765626 72.01671752929687 84.58291015625001 68.00074462890625 81.03332877159119 64.41132783889769 80.612060546875 59.51756591796875
L 34.45093383789063 59.51756591796875
Q 34.02437772750855 64.41132783889769 30.434960937499998 68.00074462890625 26.373864746093748 72.01671752929687 20.688330078125002 72.01671752929687 14.957672119140625 72.01671752929687 10.896575927734375 68.00074462890625 7.346994543075561 64.41132783889769 6.9257263183593745 59.51756591796875
L 4.308575439453125 59.51756591796875
Q 3.45123291015625 59.51756591796875 2.954876708984375 49.36482543945313 2.9264983892440797 48.71512055397034 2.90975341796875 48.101373291015626 2.736663293838501 42.51260693073273 3.360986328125 39.911495971679685 3.765333318710327 38.257445335388184 4.489068603515625 37.813262939453125 6.429370117187499 36.73030395507813 12.972247314453126 35.421728515625006 16.1760009765625 34.83512573242187 19.018768310546875 34.38389282226562 Z"/>

<path id="Duplicate_Items_Folder_cnsdf_0_Layer0_1_1_STROKES" stroke="#0375E5" stroke-width="1" stroke-linejoin="round" stroke-linecap="round" fill="none" d="
M 78.39249877929689 34.8802490234375
Q 78.7986083984375 50.98926391601563 77.896142578125 52.34296264648438 77.26441650390626 53.2905517578125 63.18594970703125 53.33567504882812 49.33309936523438 53.38079833984375 47.75378417968751 52.79419555664063 46.62570190429688 52.3880859375 42.24874267578125 43.543920898437506
L 38.05227661132813 34.8802490234375"/>

<path id="Duplicate_Items_Folder_cnsdf_0_Layer0_6_1_STROKES" stroke="#FFAF0B" stroke-width="1" stroke-linejoin="round" stroke-linecap="round" fill="none" d="
M 109.76170654296875 46.34156494140625
L 112.1983642578125 46.296441650390626
M 108.85924072265625 44.2658935546875
L 112.1983642578125 44.22077026367188
M 108.13726806640625 42.235345458984376
L 112.1983642578125 42.14509887695313"/>

<path id="Duplicate_Items_Folder_cnsdf_0_Layer0_8_1_STROKES" stroke="#FFAF0B" stroke-width="1" stroke-linejoin="round" stroke-linecap="round" fill="none" d="
M 7.474212646484375 42.58534545898438
L 4.04510498046875 42.49509887695313
M 6.864593505859375 44.6158935546875
L 4.04510498046875 44.57077026367188
M 6.102569580078125 46.69156494140625
L 4.04510498046875 46.64644165039063"/>

<path id="Duplicate_Items_Folder_cnsdf_0_Layer0_10_1_STROKES" stroke="#3BACFF" stroke-width="1.5" stroke-linejoin="round" stroke-linecap="round" fill="none" d="
M 87.96715698242188 34.699755859375
Q 96.85891299247741 35.84793210029602 104.21154174804688 38.53523559570313"/>

<path id="Duplicate_Items_Folder_cnsdf_0_Layer0_11_1_STROKES" stroke="#3BACFF" stroke-width="1.5" stroke-linejoin="round" stroke-linecap="round" fill="none" d="
M 10.941699218750001 39.527947998046876
Q 14.402444124221802 38.19945485591889 19.379754638671873 37.31690673828125"/>

<path id="Duplicate_Items_Folder_cnsdf_0_Layer0_12_1_STROKES" stroke="#3BACFF" stroke-width="1.5" stroke-linejoin="round" stroke-linecap="round" fill="none" d="
M 31.92402954101562 4.783013916015625
Q 50.58251037597656 3.6572230577468874 69.24099121093751 4.783013916015625"/>
</defs>

<g transform="matrix( 1, 0, 0, 0.999603271484375, 65,60) ">
<g transform="matrix( 1, 0, 0, 1, 0,0) ">
<use xlink:href="#icon_r_box_02_1_Layer3_0_FILL"/>
</g>

<g transform="matrix( 1, 0, 0, 1, -0.05,0.05) ">
<use xlink:href="#icon_r_box_02_1_Layer3_1_FILL"/>
</g>

<g transform="matrix( 1, 0, 0, 1, 0,-2.15) ">
<use xlink:href="#icon_r_box_02_1_Layer3_2_FILL"/>
</g>

<g transform="matrix( 1, 0, 0, 1, 0,0.05) ">
<use xlink:href="#icon_r_box_02_1_Layer3_3_FILL"/>
</g>

<g filter="url(#Filter_1)" transform="matrix( 0.9999847412109375, 0, 0, 1.000396728515625, -65,-60) ">
<g transform="matrix( 0.75, 0, 0, 0.74969482421875, 20.5,13.3) ">
<g transform="matrix( 0.9024658203125, 0, 0, 0.9024658203125, 3,1.85) ">
<use xlink:href="#Duplicate_Items_Folder_cnsdf_0_Layer1_0_FILL"/>

<use xlink:href="#Duplicate_Items_Folder_cnsdf_0_Layer1_0_1_STROKES" transform="matrix( 1.108062744140625, 0, 0, 1.108062744140625, -3.3,-2) "/>
</g>

<g transform="matrix( 0.9024658203125, 0, 0, 0.9024658203125, 3,1.85) ">
<use xlink:href="#Duplicate_Items_Folder_cnsdf_0_Layer0_0_FILL"/>
</g>

<g transform="matrix( 0.9024658203125, 0, 0, 0.9024658203125, 2.45,1.85) ">
<use xlink:href="#Duplicate_Items_Folder_cnsdf_0_Layer0_1_1_STROKES" transform="matrix( 1.108062744140625, 0, 0, 1.108062744140625, -2.7,-2) "/>
</g>

<g transform="matrix( 1, 0, 0, 1, 0,0) ">
<use xlink:href="#Duplicate_Items_Folder_cnsdf_0_Layer0_2_FILL"/>
</g>

<g transform="matrix( 0.8573455810546875, 0, 0, 0.8573455810546875, 16.95,-3.7) ">
<use xlink:href="#Duplicate_Items_Folder_cnsdf_0_Layer0_3_FILL"/>
</g>

<g transform="matrix( 0.9024658203125, 0, 0, 0.9024658203125, 3,1.85) ">
<use xlink:href="#Duplicate_Items_Folder_cnsdf_0_Layer0_4_FILL"/>
</g>

<g transform="matrix( 0.812225341796875, 0, 0, 0.812225341796875, -3.25,13.05) ">
<use xlink:href="#Duplicate_Items_Folder_cnsdf_0_Layer0_5_FILL"/>
</g>

<g transform="matrix( 0.9024658203125, 0, 0, 0.9024658203125, 3,1.85) ">
<use xlink:href="#Duplicate_Items_Folder_cnsdf_0_Layer0_6_1_STROKES" transform="matrix( 1.108062744140625, 0, 0, 1.108062744140625, -3.3,-2) "/>
</g>

<g transform="matrix( 0.9024658203125, 0, 0, 0.9024658203125, -11.05,-1.6) ">
<use xlink:href="#Duplicate_Items_Folder_cnsdf_0_Layer0_7_FILL"/>
</g>

<g transform="matrix( -0.76202392578125, 0, 0, 0.9024658203125, 96.25,2.2) ">
<use xlink:href="#Duplicate_Items_Folder_cnsdf_0_Layer0_8_1_STROKES" transform="matrix( -1.312286376953125, 0, 0, 1.108062744140625, 126.3,-2.4) "/>
</g>

<g transform="matrix( 0.9024658203125, 0, 0, 0.9024658203125, -114.15,-1.75) ">
<use xlink:href="#Duplicate_Items_Folder_cnsdf_0_Layer0_9_FILL"/>
</g>

<g transform="matrix( 0.9024658203125, 0, 0, 0.9024658203125, 3,1.85) ">
<use xlink:href="#Duplicate_Items_Folder_cnsdf_0_Layer0_10_1_STROKES" transform="matrix( 1.108062744140625, 0, 0, 1.108062744140625, -3.3,-2) "/>
</g>

<g transform="matrix( 0.9024658203125, 0, 0, 0.9024658203125, 3,1.85) ">
<use xlink:href="#Duplicate_Items_Folder_cnsdf_0_Layer0_11_1_STROKES" transform="matrix( 1.108062744140625, 0, 0, 1.108062744140625, -3.3,-2) "/>
</g>

<g transform="matrix( 0.9024658203125, 0, 0, 0.9024658203125, 3,1.85) ">
<use xlink:href="#Duplicate_Items_Folder_cnsdf_0_Layer0_12_1_STROKES" transform="matrix( 1.108062744140625, 0, 0, 1.108062744140625, -3.3,-2) "/>
</g>

<g transform="matrix( 0.902191162109375, 0, 0, 0.902191162109375, 3,1.85) ">
<use xlink:href="#Duplicate_Items_Folder_cnsdf_0_Layer0_13_MEMBER_0_FILL"/>
</g>

<g transform="matrix( 0.902191162109375, 0, 0, 0.902191162109375, 3,1.85) ">
<use xlink:href="#Duplicate_Items_Folder_cnsdf_0_Layer0_13_MEMBER_1_FILL"/>
</g>

<g transform="matrix( 0.541229248046875, 0, 0, 0.541229248046875, 39.5,24.35) ">
<use xlink:href="#Duplicate_Items_Folder_cnsdf_0_Layer0_13_MEMBER_2_FILL"/>
</g>

<g transform="matrix( 0.90234375, 0, 0, 0.90234375, -70.6,1.85) ">
<use xlink:href="#Duplicate_Items_Folder_cnsdf_0_Layer0_14_MEMBER_0_FILL"/>
</g>

<g transform="matrix( 1, 0, 0, 1, 0,0) ">
<use xlink:href="#Duplicate_Items_Folder_cnsdf_0_Layer0_14_MEMBER_1_FILL"/>
</g>

<g transform="matrix( 0.54132080078125, 0, 0, 0.54132080078125, -34.05,24.35) ">
<use xlink:href="#Duplicate_Items_Folder_cnsdf_0_Layer0_14_MEMBER_2_FILL"/>
</g>
</g>
</g>
</g>
</svg>
