
<svg xmlns="http://www.w3.org/2000/svg" version="1.1" xmlns:xlink="http://www.w3.org/1999/xlink" preserveAspectRatio="none" x="0px" y="0px" width="130px" height="115px" viewBox="0 0 130 115">
<defs>
<filter id="Filter_1" x="-23.892505988901846%" y="-24.502840958614357%" width="147.7850119778037%" height="149.0056819172287%" color-interpolation-filters="sRGB">
<feFlood flood-color="#000000" flood-opacity="1" in="SourceGraphic" result="result1"/>

<feGaussianBlur in="SourceGraphic" stdDeviation="1.6666666666666667,1.6666666666666667" result="result2"/>

<feComposite in2="result2" in="result1" operator="in" result="result3"/>

<feComposite in2="result3" in="SourceGraphic" operator="over" result="result4"/>
</filter>

<g id="icon_r_box_02_27_Layer3_0_FILL">
<path fill="#FFFFFF" fill-opacity="0" stroke="none" d="
M 65 -55
L -65 -55 -65 25 65 25 65 -55 Z"/>
</g>

<g id="icon_r_box_02_27_Layer3_1_FILL">
<path fill="#FFFFFF" fill-opacity="0" stroke="none" d="
M 65.05 49.95
L 65.05 24.95 -64.95 24.95 -64.95 49.95 65.05 49.95 Z"/>
</g>

<g id="icon_r_box_02_27_Layer3_2_FILL">
<path fill="#FFFFFF" fill-opacity="0" stroke="none" d="
M 65 -52.85
L 65 -57.85 -65 -57.85 -65 -52.85 65 -52.85 Z"/>
</g>

<g id="icon_r_box_02_27_Layer3_3_FILL">
<path fill="#FFFFFF" fill-opacity="0" stroke="none" d="
M 65 54.95
L 65 49.95 -65 49.95 -65 54.95 65 54.95 Z"/>
</g>

<g id="Duplicate_Items_Folder_____0_Layer1_0_FILL">
<path fill="#FFFFFF" stroke="none" d="
M -91.95 -25.95
Q -91.95 -35.95 -101.95 -35.95
L -157.1 -35.95
Q -167.1 -35.95 -167.1 -25.95
L -167.1 26
Q -167.1 36 -157.1 36
L -101.95 36
Q -91.95 36 -91.95 26
L -91.95 -25.95 Z"/>
</g>

<g id="Duplicate_Items_Folder_____0_Layer1_1_FILL">
<path fill="#00A35A" stroke="none" d="
M 110.2 39.6
Q 110.2 29.6 100.2 29.6
L 48.25 29.6
Q 38.25 29.6 38.25 39.6
L 38.25 91.55
Q 38.25 101.55 48.25 101.55
L 100.2 101.55
Q 110.2 101.55 110.2 91.55
L 110.2 39.6 Z"/>
</g>

<g id="Duplicate_Items_Folder_____0_Layer1_2_FILL">
<path fill="#01C066" stroke="none" d="
M 33.4 -25.95
Q 33.4 -35.95 23.4 -35.95
L -28.55 -35.95
Q -38.55 -35.95 -38.55 -25.95
L -38.55 26
Q -38.55 36 -28.55 36
L 23.4 36
Q 33.4 36 33.4 26
L 33.4 -25.95 Z"/>
</g>

<g id="Duplicate_Items_Folder_____0_Layer1_3_MEMBER_0_MEMBER_1_FILL">
<path fill="#FFFFFF" stroke="none" d="
M 8.85 -35.05
Q 7.4 -35.55 7.4 -33.05
L 7.4 32.65
Q 7.4 35.1 8.85 34.6
L 25.5 28.75
Q 26.5 28.4 26.5 26.4
L 26.5 -26.85
Q 26.5 -28.85 25.5 -29.2
L 8.85 -35.05 Z"/>
</g>

<g id="Duplicate_Items_Folder_____0_Layer1_3_MEMBER_0_MEMBER_2_FILL">
<path fill="#FFFFFF" stroke="none" d="
M -93.3 -78.35
Q -93.3 -83.2 -96.7 -86.6 -100.1 -90 -104.95 -90 -109.8 -90 -113.2 -86.6 -116.6 -83.2 -116.6 -78.35 -116.6 -73.5 -113.2 -70.1 -109.8 -66.7 -104.95 -66.7 -100.1 -66.7 -96.7 -70.1 -93.3 -73.5 -93.3 -78.35 Z"/>
</g>

<g id="Duplicate_Items_Folder_____0_Layer1_3_MEMBER_0_MEMBER_3_FILL">
<path fill="#FFFFFF" stroke="none" d="
M 4.35 -5.6
Q 5.15 -5.6 5.75 -6.2 6.35 -6.8 6.35 -7.6 6.35 -8.4 5.75 -8.95 5.15 -9.55 4.35 -9.55
L 0.75 -9.55 -1.55 -13.25
Q -1.6 -13.3 -1.6 -13.35 -1.65 -13.45 -1.7 -13.5 -3.55 -13.65 -5.4 -14.45 -6.7 -15 -7.75 -15.7
L -14.05 -15
Q -14.55 -14.95 -14.95 -14.6 -15.4 -14.3 -15.6 -13.85
L -17.4 -9.7
Q -17.75 -8.95 -17.45 -8.2 -17.15 -7.45 -16.4 -7.1 -15.65 -6.8 -14.9 -7.05 -14.15 -7.35 -13.8 -8.1
L -12.45 -11.2 -10.45 -11.45 -15.05 -1.45 -19.3 -1.45
Q -20.1 -1.45 -20.7 -0.85 -21.25 -0.25 -21.25 0.55 -21.25 1.35 -20.7 1.9 -20.1 2.5 -19.3 2.5
L -13.75 2.5
Q -13.2 2.5 -12.7 2.2 -12.2 1.85 -12 1.35
L -9.9 -3.25 -9.6 -3.1 -5 7.7
Q -4.7 8.45 -3.95 8.75 -3.2 9.05 -2.45 8.75 -1.7 8.45 -1.4 7.7 -1.1 6.95 -1.4 6.2
L -5.65 -3.85 -3.5 -8.95 -2 -6.55
Q -1.7 -6.1 -1.25 -5.85 -0.8 -5.6 -0.35 -5.6
L 4.35 -5.6 Z"/>
</g>

<g id="Duplicate_Items_Folder_____0_Layer1_4_FILL">
<path fill="#FFFFFF" stroke="none" d="
M -118.7 21.45
Q -118.3 21.45 -118.1 21.2 -117.95 20.9 -117.95 20.55 -117.95 20.15 -118.1 19.9 -118.3 19.65 -118.7 19.65
L -124.5 19.65
Q -125.3 19.65 -125.6 19.95 -125.95 20.25 -125.9 21.05
L -125.9 30.3
Q -125.95 31.1 -125.6 31.45 -125.3 31.75 -124.5 31.75
L -118.55 31.75
Q -118.2 31.75 -118 31.45 -117.8 31.2 -117.8 30.85 -117.8 30.45 -118 30.2 -118.2 29.95 -118.55 29.95
L -123.75 29.95 -123.75 26.45 -119 26.45
Q -118.65 26.4 -118.45 26.15 -118.3 25.9 -118.3 25.55 -118.3 25.2 -118.45 24.95 -118.65 24.65 -119 24.65
L -123.75 24.65 -123.75 21.45 -118.7 21.45
M -114.75 20.35
Q -114.9 20.75 -114.6 21.2
L -111.6 25.55 -114.9 30.3
Q -115.15 30.7 -115.05 31.05 -114.95 31.45 -114.55 31.7 -114.2 31.9 -113.8 31.8 -113.4 31.7 -113.15 31.35
L -110.3 27.05 -107.5 31.4
Q -107.25 31.75 -106.8 31.8 -106.4 31.9 -106 31.65 -105.6 31.4 -105.5 31 -105.45 30.6 -105.7 30.2
L -108.9 25.55 -105.8 21.1
Q -105.5 20.7 -105.65 20.3 -105.75 19.95 -106.15 19.7 -106.55 19.5 -106.95 19.55 -107.3 19.65 -107.55 20.05
L -110.15 24.1 -112.65 20.05
Q -112.9 19.65 -113.35 19.55 -113.75 19.5 -114.15 19.7 -114.6 19.95 -114.75 20.35
M -96.8 19.65
Q -97.2 19.65 -97.4 19.9 -97.6 20.2 -97.6 20.55 -97.6 20.95 -97.4 21.2 -97.2 21.45 -96.8 21.5
L -93.85 21.5 -93.85 30.9
Q -93.85 31.4 -93.55 31.6 -93.25 31.85 -92.8 31.85 -92.35 31.85 -92.05 31.6 -91.7 31.4 -91.7 30.9
L -91.7 21.5 -88.8 21.5
Q -88.4 21.45 -88.2 21.2 -88 20.95 -88 20.55 -88 20.2 -88.2 19.9 -88.4 19.65 -88.8 19.65
L -96.8 19.65
M -100.05 20.5
Q -100.05 20 -100.35 19.75 -100.7 19.55 -101.15 19.55 -101.6 19.55 -101.9 19.75 -102.2 20 -102.2 20.5
L -102.2 30.9
Q -102.2 31.4 -101.9 31.6 -101.6 31.85 -101.15 31.85 -100.7 31.85 -100.35 31.6 -100.05 31.4 -100.05 30.9
L -100.05 20.5 Z"/>
</g>

<g id="Duplicate_Items_Folder_____0_Layer1_5_FILL">
<path fill="#6CECB1" stroke="none" d="
M -25.05 -25.6
Q -25.05 -27.6 -26.45 -29 -27.85 -30.4 -29.85 -30.4 -31.85 -30.4 -33.25 -29 -34.65 -27.6 -34.65 -25.6 -34.65 -23.6 -33.25 -22.2 -31.85 -20.8 -29.85 -20.8 -27.85 -20.8 -26.45 -22.2 -25.05 -23.6 -25.05 -25.6 Z"/>
</g>

<path id="Duplicate_Items_Folder_____0_Layer1_0_1_STROKES" stroke="#FFFFFF" stroke-width="8" stroke-linejoin="round" stroke-linecap="round" fill="none" d="
M -157.1 -35.95
L -101.95 -35.95
Q -91.95 -35.95 -91.95 -25.95
L -91.95 26
Q -91.95 36 -101.95 36
L -157.1 36
Q -167.1 36 -167.1 26
L -167.1 -25.95
Q -167.1 -35.95 -157.1 -35.95 Z"/>

<path id="Duplicate_Items_Folder_____0_Layer1_3_MEMBER_0_MEMBER_0_1_STROKES" stroke="#FFFFFF" stroke-width="3" stroke-linejoin="round" stroke-linecap="round" fill="none" d="
M -11.55 -18.85
L -11.55 -26.55
Q -11.55 -27.9 -10.2 -27.9
L 12.9 -27.9
Q 14.3 -27.9 14.3 -26.55
L 14.3 10
Q 14.3 11.35 12.9 11.35
L -10.2 11.35
Q -11.55 11.35 -11.55 10
L -11.55 5.25"/>

<path id="Duplicate_Items_Folder_____0_Layer1_4_1_STROKES" stroke="#FFFFFF" stroke-width="1" stroke-linejoin="round" stroke-linecap="round" fill="none" d="
M -101.15 19.55
Q -101.6 19.55 -101.9 19.75 -102.2 20 -102.2 20.5
L -102.2 30.9
Q -102.2 31.4 -101.9 31.6 -101.6 31.85 -101.15 31.85 -100.7 31.85 -100.35 31.6 -100.05 31.4 -100.05 30.9
L -100.05 20.5
Q -100.05 20 -100.35 19.75 -100.7 19.55 -101.15 19.55 Z
M -96.8 19.65
Q -97.2 19.65 -97.4 19.9 -97.6 20.2 -97.6 20.55 -97.6 20.95 -97.4 21.2 -97.2 21.45 -96.8 21.5
L -93.85 21.5 -93.85 30.9
Q -93.85 31.4 -93.55 31.6 -93.25 31.85 -92.8 31.85 -92.35 31.85 -92.05 31.6 -91.7 31.4 -91.7 30.9
L -91.7 21.5 -88.8 21.5
Q -88.4 21.45 -88.2 21.2 -88 20.95 -88 20.55 -88 20.2 -88.2 19.9 -88.4 19.65 -88.8 19.65
L -96.8 19.65 Z
M -106.15 19.7
Q -106.55 19.5 -106.95 19.55 -107.3 19.65 -107.55 20.05
L -110.15 24.1 -112.65 20.05
Q -112.9 19.65 -113.35 19.55 -113.75 19.5 -114.15 19.7 -114.6 19.95 -114.75 20.35 -114.9 20.75 -114.6 21.2
L -111.6 25.55 -114.9 30.3
Q -115.15 30.7 -115.05 31.05 -114.95 31.45 -114.55 31.7 -114.2 31.9 -113.8 31.8 -113.4 31.7 -113.15 31.35
L -110.3 27.05 -107.5 31.4
Q -107.25 31.75 -106.8 31.8 -106.4 31.9 -106 31.65 -105.6 31.4 -105.5 31 -105.45 30.6 -105.7 30.2
L -108.9 25.55 -105.8 21.1
Q -105.5 20.7 -105.65 20.3 -105.75 19.95 -106.15 19.7 Z
M -124.5 19.65
Q -125.3 19.65 -125.6 19.95 -125.95 20.25 -125.9 21.05
L -125.9 30.3
Q -125.95 31.1 -125.6 31.45 -125.3 31.75 -124.5 31.75
L -118.55 31.75
Q -118.2 31.75 -118 31.45 -117.8 31.2 -117.8 30.85 -117.8 30.45 -118 30.2 -118.2 29.95 -118.55 29.95
L -123.75 29.95 -123.75 26.45 -119 26.45
Q -118.65 26.4 -118.45 26.15 -118.3 25.9 -118.3 25.55 -118.3 25.2 -118.45 24.95 -118.65 24.65 -119 24.65
L -123.75 24.65 -123.75 21.45 -118.7 21.45
Q -118.3 21.45 -118.1 21.2 -117.95 20.9 -117.95 20.55 -117.95 20.15 -118.1 19.9 -118.3 19.65 -118.7 19.65
L -124.5 19.65 Z"/>
</defs>

<g transform="matrix( 1, 0, 0, 0.999603271484375, 65,60) ">
<g transform="matrix( 1, 0, 0, 1, 0,0) ">
<use xlink:href="#icon_r_box_02_27_Layer3_0_FILL"/>
</g>

<g transform="matrix( 1, 0, 0, 1, -0.05,0.05) ">
<use xlink:href="#icon_r_box_02_27_Layer3_1_FILL"/>
</g>

<g transform="matrix( 1, 0, 0, 1, 0,-2.15) ">
<use xlink:href="#icon_r_box_02_27_Layer3_2_FILL"/>
</g>

<g transform="matrix( 1, 0, 0, 1, 0,0.05) ">
<use xlink:href="#icon_r_box_02_27_Layer3_3_FILL"/>
</g>

<g filter="url(#Filter_1)" transform="matrix( 0.9999847412109375, 0, 0, 1.000396728515625, -65,-60) ">
<g transform="matrix( 0.75, 0, 0, 0.74969482421875, 64.75,40.95) ">
<g transform="matrix( 1, 0, 0, 1, 128.55,0.05) ">
<use xlink:href="#Duplicate_Items_Folder_____0_Layer1_0_FILL"/>

<use xlink:href="#Duplicate_Items_Folder_____0_Layer1_0_1_STROKES"/>
</g>

<g transform="matrix( 1, 0, 0, 1, -73.6,-65.55) ">
<use xlink:href="#Duplicate_Items_Folder_____0_Layer1_1_FILL"/>
</g>

<g transform="matrix( 1, 0, 0, 1, 0,0) ">
<use xlink:href="#Duplicate_Items_Folder_____0_Layer1_2_FILL"/>
</g>

<g transform="matrix( 1, 0, 0, 1, 0,0) ">
<use xlink:href="#Duplicate_Items_Folder_____0_Layer1_3_MEMBER_0_MEMBER_0_1_STROKES"/>
</g>

<g transform="matrix( 0.4093017578125, 0, 0, 0.71331787109375, 5.05,-8.1) ">
<use xlink:href="#Duplicate_Items_Folder_____0_Layer1_3_MEMBER_0_MEMBER_1_FILL"/>
</g>

<g transform="matrix( 0.391143798828125, 0, 0, 0.391143798828125, 37.9,10.95) ">
<use xlink:href="#Duplicate_Items_Folder_____0_Layer1_3_MEMBER_0_MEMBER_2_FILL"/>
</g>

<g transform="matrix( 1, 0, 0, 1, 0,0) ">
<use xlink:href="#Duplicate_Items_Folder_____0_Layer1_3_MEMBER_0_MEMBER_3_FILL"/>
</g>

<g transform="matrix( 1, 0, 0, 1, 104.4,-0.6) ">
<use xlink:href="#Duplicate_Items_Folder_____0_Layer1_4_FILL"/>

<use xlink:href="#Duplicate_Items_Folder_____0_Layer1_4_1_STROKES"/>
</g>

<g transform="matrix( 0.899993896484375, 0, 0, 0.899993896484375, -3,-4.45) ">
<use xlink:href="#Duplicate_Items_Folder_____0_Layer1_5_FILL"/>
</g>
</g>
</g>
</g>
</svg>
