
<svg xmlns="http://www.w3.org/2000/svg" version="1.1" xmlns:xlink="http://www.w3.org/1999/xlink" preserveAspectRatio="none" x="0px" y="0px" width="130px" height="115px" viewBox="0 0 130 115">
<defs>
<g id="icon_r_box_02_29_Layer3_0_FILL">
<path fill="#FFFFFF" fill-opacity="0" stroke="none" d="
M 65 -55
L -65 -55 -65 25 65 25 65 -55 Z"/>
</g>

<g id="icon_r_box_02_29_Layer3_1_FILL">
<path fill="#FFFFFF" fill-opacity="0" stroke="none" d="
M 65.05 49.95
L 65.05 24.95 -64.95 24.95 -64.95 49.95 65.05 49.95 Z"/>
</g>

<g id="icon_r_box_02_29_Layer3_2_FILL">
<path fill="#FFFFFF" fill-opacity="0" stroke="none" d="
M 65 -52.85
L 65 -57.85 -65 -57.85 -65 -52.85 65 -52.85 Z"/>
</g>

<g id="icon_r_box_02_29_Layer3_3_FILL">
<path fill="#FFFFFF" fill-opacity="0" stroke="none" d="
M 65 54.95
L 65 49.95 -65 49.95 -65 54.95 65 54.95 Z"/>
</g>

<g id="icon_r_box_02_29_Layer2_0_MEMBER_0_MEMBER_0_FILL">
<path fill="#FFFFFF" stroke="none" d="
M 65.05 48.15
L 65.05 18.85 4.55 18.85 4.55 48.15 65.05 48.15 Z"/>
</g>

<g id="icon_r_box_02_29_Layer2_0_MEMBER_0_MEMBER_1_FILL">
<path fill="#BED0DF" stroke="none" d="
M 65.05 22.95
L 65.05 18.85 4.55 18.85 4.55 22.95 65.05 22.95 Z"/>
</g>

<g id="icon_r_box_02_29_Layer2_0_MEMBER_0_MEMBER_3_MEMBER_0_MEMBER_0_FILL">
<path fill="#FFFFFF" stroke="none" d="
M 47.2 48.15
L 47.2 0.5 22.35 0.5 22.35 48.15 47.2 48.15 Z"/>
</g>

<g id="icon_r_box_02_29_Layer2_0_MEMBER_0_MEMBER_3_MEMBER_0_MEMBER_1_FILL">
<path fill="#6D65AE" stroke="none" d="
M 39.75 48.15
L 39.75 37.65 29.85 37.65 29.85 48.15 39.75 48.15 Z"/>
</g>

<g id="icon_r_box_02_29_Layer2_0_MEMBER_0_MEMBER_3_MEMBER_0_MEMBER_2_MEMBER_0_MEMBER_0_FILL">
<path fill="#01C178" stroke="none" d="
M 42.1 15.65
L 42.1 11.5 36.9 11.5 36.9 6.25 32.7 6.25 32.7 11.5 27.45 11.5 27.45 15.65 32.7 15.65 32.7 20.9 36.9 20.9 36.9 15.65 42.1 15.65 Z"/>
</g>

<g id="icon_r_box_02_29_Layer2_0_MEMBER_0_MEMBER_3_MEMBER_0_MEMBER_2_MEMBER_0_MEMBER_1_FILL">
<path fill="#000000" stroke="none" d="
M 42.8 10.8
Q 42.5 10.5 42.1 10.5
L 37.9 10.5 37.9 6.25
Q 37.9 5.85 37.6 5.55 37.3 5.25 36.9 5.25
L 32.7 5.25
Q 32.3 5.25 32 5.55 31.7 5.85 31.7 6.25
L 31.7 10.5 27.45 10.5
Q 27.05 10.5 26.75 10.8 26.45 11.1 26.45 11.5
L 26.45 15.65
Q 26.45 16.05 26.75 16.35 27.05 16.65 27.45 16.65
L 31.7 16.65 31.7 20.9
Q 31.7 21.3 32 21.6 32.3 21.9 32.7 21.9
L 36.9 21.9
Q 37.3 21.9 37.6 21.6 37.9 21.3 37.9 20.9
L 37.9 16.65 42.1 16.65
Q 42.5 16.65 42.8 16.35 43.1 16.05 43.1 15.65
L 43.1 11.5
Q 43.1 11.1 42.8 10.8
M 42.1 11.5
L 42.1 15.65 36.9 15.65 36.9 20.9 32.7 20.9 32.7 15.65 27.45 15.65 27.45 11.5 32.7 11.5 32.7 6.25 36.9 6.25 36.9 11.5 42.1 11.5 Z"/>
</g>

<g id="icon_r_box_02_29_Layer2_0_MEMBER_0_MEMBER_3_MEMBER_0_MEMBER_3_FILL">
<path fill="#6D65AE" stroke="none" d="
M 39.75 48.15
L 39.75 37.65 34.8 37.65 34.8 48.15 39.75 48.15 Z"/>
</g>

<path id="icon_r_box_02_29_Layer2_0_MEMBER_0_MEMBER_0_1_STROKES" stroke="#000000" stroke-width="1" stroke-linejoin="round" stroke-linecap="round" fill="none" d="
M 65.05 48.15
L 4.55 48.15 4.55 18.85 65.05 18.85 65.05 48.15 Z"/>

<path id="icon_r_box_02_29_Layer2_0_MEMBER_0_MEMBER_1_1_STROKES" stroke="#000000" stroke-width="1" stroke-linejoin="round" stroke-linecap="round" fill="none" d="
M 65.05 22.95
L 4.55 22.95 4.55 18.85 65.05 18.85 65.05 22.95 Z"/>

<path id="icon_r_box_02_29_Layer2_0_MEMBER_0_MEMBER_2_MEMBER_0_1_STROKES" stroke="#000000" stroke-width="1" stroke-linejoin="round" stroke-linecap="round" fill="none" d="
M 0.5 48.15
L 69.1 48.15"/>

<path id="icon_r_box_02_29_Layer2_0_MEMBER_0_MEMBER_3_MEMBER_0_MEMBER_0_1_STROKES" stroke="#000000" stroke-width="1" stroke-linejoin="round" stroke-linecap="round" fill="none" d="
M 47.2 48.15
L 22.35 48.15 22.35 0.5 47.2 0.5 47.2 48.15 Z"/>

<path id="icon_r_box_02_29_Layer2_0_MEMBER_0_MEMBER_3_MEMBER_0_MEMBER_1_1_STROKES" stroke="#000000" stroke-width="1" stroke-linejoin="round" stroke-linecap="round" fill="none" d="
M 39.75 48.15
L 29.85 48.15 29.85 37.65 39.75 37.65 39.75 48.15 Z"/>

<path id="icon_r_box_02_29_Layer2_0_MEMBER_0_MEMBER_3_MEMBER_0_MEMBER_3_1_STROKES" stroke="#000000" stroke-width="1" stroke-linejoin="round" stroke-linecap="round" fill="none" d="
M 39.75 48.15
L 34.8 48.15 34.8 37.65 39.75 37.65 39.75 48.15 Z"/>

<path id="icon_r_box_02_29_Layer2_0_MEMBER_0_MEMBER_4_MEMBER_0_MEMBER_0_MEMBER_0_MEMBER_0_1_STROKES" stroke="#000000" stroke-width="1" stroke-linejoin="round" stroke-linecap="round" fill="none" d="
M 9.45 27.3
L 9.45 28.65"/>

<path id="icon_r_box_02_29_Layer2_0_MEMBER_0_MEMBER_4_MEMBER_0_MEMBER_0_MEMBER_1_MEMBER_0_1_STROKES" stroke="#000000" stroke-width="1" stroke-linejoin="round" stroke-linecap="round" fill="none" d="
M 13.35 27.3
L 13.35 28.65"/>

<path id="icon_r_box_02_29_Layer2_0_MEMBER_0_MEMBER_4_MEMBER_0_MEMBER_0_MEMBER_2_MEMBER_0_1_STROKES" stroke="#000000" stroke-width="1" stroke-linejoin="round" stroke-linecap="round" fill="none" d="
M 17.3 27.3
L 17.3 28.65"/>

<path id="icon_r_box_02_29_Layer2_0_MEMBER_0_MEMBER_4_MEMBER_0_MEMBER_1_MEMBER_0_MEMBER_0_1_STROKES" stroke="#000000" stroke-width="1" stroke-linejoin="round" stroke-linecap="round" fill="none" d="
M 9.45 32.9
L 9.45 34.25"/>

<path id="icon_r_box_02_29_Layer2_0_MEMBER_0_MEMBER_4_MEMBER_0_MEMBER_1_MEMBER_1_MEMBER_0_1_STROKES" stroke="#000000" stroke-width="1" stroke-linejoin="round" stroke-linecap="round" fill="none" d="
M 13.35 32.9
L 13.35 34.25"/>

<path id="icon_r_box_02_29_Layer2_0_MEMBER_0_MEMBER_4_MEMBER_0_MEMBER_1_MEMBER_2_MEMBER_0_1_STROKES" stroke="#000000" stroke-width="1" stroke-linejoin="round" stroke-linecap="round" fill="none" d="
M 17.3 32.9
L 17.3 34.25"/>

<path id="icon_r_box_02_29_Layer2_0_MEMBER_0_MEMBER_4_MEMBER_0_MEMBER_2_MEMBER_0_MEMBER_0_1_STROKES" stroke="#000000" stroke-width="1" stroke-linejoin="round" stroke-linecap="round" fill="none" d="
M 9.45 38.5
L 9.45 39.85"/>

<path id="icon_r_box_02_29_Layer2_0_MEMBER_0_MEMBER_4_MEMBER_0_MEMBER_2_MEMBER_1_MEMBER_0_1_STROKES" stroke="#000000" stroke-width="1" stroke-linejoin="round" stroke-linecap="round" fill="none" d="
M 13.35 38.5
L 13.35 39.85"/>

<path id="icon_r_box_02_29_Layer2_0_MEMBER_0_MEMBER_4_MEMBER_0_MEMBER_2_MEMBER_2_MEMBER_0_1_STROKES" stroke="#000000" stroke-width="1" stroke-linejoin="round" stroke-linecap="round" fill="none" d="
M 17.3 38.5
L 17.3 39.85"/>

<path id="icon_r_box_02_29_Layer2_0_MEMBER_0_MEMBER_4_MEMBER_1_MEMBER_0_MEMBER_0_MEMBER_0_1_STROKES" stroke="#000000" stroke-width="1" stroke-linejoin="round" stroke-linecap="round" fill="none" d="
M 52.3 27.3
L 52.3 28.65"/>

<path id="icon_r_box_02_29_Layer2_0_MEMBER_0_MEMBER_4_MEMBER_1_MEMBER_0_MEMBER_1_MEMBER_0_1_STROKES" stroke="#000000" stroke-width="1" stroke-linejoin="round" stroke-linecap="round" fill="none" d="
M 56.2 27.3
L 56.2 28.65"/>

<path id="icon_r_box_02_29_Layer2_0_MEMBER_0_MEMBER_4_MEMBER_1_MEMBER_0_MEMBER_2_MEMBER_0_1_STROKES" stroke="#000000" stroke-width="1" stroke-linejoin="round" stroke-linecap="round" fill="none" d="
M 60.15 27.3
L 60.15 28.65"/>

<path id="icon_r_box_02_29_Layer2_0_MEMBER_0_MEMBER_4_MEMBER_1_MEMBER_1_MEMBER_0_MEMBER_0_1_STROKES" stroke="#000000" stroke-width="1" stroke-linejoin="round" stroke-linecap="round" fill="none" d="
M 52.3 32.9
L 52.3 34.25"/>

<path id="icon_r_box_02_29_Layer2_0_MEMBER_0_MEMBER_4_MEMBER_1_MEMBER_1_MEMBER_1_MEMBER_0_1_STROKES" stroke="#000000" stroke-width="1" stroke-linejoin="round" stroke-linecap="round" fill="none" d="
M 56.2 32.9
L 56.2 34.25"/>

<path id="icon_r_box_02_29_Layer2_0_MEMBER_0_MEMBER_4_MEMBER_1_MEMBER_1_MEMBER_2_MEMBER_0_1_STROKES" stroke="#000000" stroke-width="1" stroke-linejoin="round" stroke-linecap="round" fill="none" d="
M 60.15 32.9
L 60.15 34.25"/>

<path id="icon_r_box_02_29_Layer2_0_MEMBER_0_MEMBER_4_MEMBER_1_MEMBER_2_MEMBER_0_MEMBER_0_1_STROKES" stroke="#000000" stroke-width="1" stroke-linejoin="round" stroke-linecap="round" fill="none" d="
M 52.3 38.5
L 52.3 39.85"/>

<path id="icon_r_box_02_29_Layer2_0_MEMBER_0_MEMBER_4_MEMBER_1_MEMBER_2_MEMBER_1_MEMBER_0_1_STROKES" stroke="#000000" stroke-width="1" stroke-linejoin="round" stroke-linecap="round" fill="none" d="
M 56.2 38.5
L 56.2 39.85"/>

<path id="icon_r_box_02_29_Layer2_0_MEMBER_0_MEMBER_4_MEMBER_1_MEMBER_2_MEMBER_2_MEMBER_0_1_STROKES" stroke="#000000" stroke-width="1" stroke-linejoin="round" stroke-linecap="round" fill="none" d="
M 60.15 38.5
L 60.15 39.85"/>
</defs>

<g transform="matrix( 1, 0, 0, 0.999603271484375, 65,60) ">
<g transform="matrix( 1, 0, 0, 1, 0,0) ">
<use xlink:href="#icon_r_box_02_29_Layer3_0_FILL"/>
</g>

<g transform="matrix( 1, 0, 0, 1, -0.05,0.05) ">
<use xlink:href="#icon_r_box_02_29_Layer3_1_FILL"/>
</g>

<g transform="matrix( 1, 0, 0, 1, 0,-2.15) ">
<use xlink:href="#icon_r_box_02_29_Layer3_2_FILL"/>
</g>

<g transform="matrix( 1, 0, 0, 1, 0,0.05) ">
<use xlink:href="#icon_r_box_02_29_Layer3_3_FILL"/>
</g>

<g transform="matrix( 1, 0, 0, 1, -34.8,-38.05) ">
<use xlink:href="#icon_r_box_02_29_Layer2_0_MEMBER_0_MEMBER_0_FILL"/>

<use xlink:href="#icon_r_box_02_29_Layer2_0_MEMBER_0_MEMBER_0_1_STROKES"/>
</g>

<g transform="matrix( 1, 0, 0, 1, -34.8,-38.05) ">
<use xlink:href="#icon_r_box_02_29_Layer2_0_MEMBER_0_MEMBER_1_FILL"/>

<use xlink:href="#icon_r_box_02_29_Layer2_0_MEMBER_0_MEMBER_1_1_STROKES"/>
</g>

<g transform="matrix( 1, 0, 0, 1, -34.8,-38.05) ">
<use xlink:href="#icon_r_box_02_29_Layer2_0_MEMBER_0_MEMBER_2_MEMBER_0_1_STROKES"/>
</g>

<g transform="matrix( 1, 0, 0, 1, -34.8,-38.05) ">
<use xlink:href="#icon_r_box_02_29_Layer2_0_MEMBER_0_MEMBER_3_MEMBER_0_MEMBER_0_FILL"/>

<use xlink:href="#icon_r_box_02_29_Layer2_0_MEMBER_0_MEMBER_3_MEMBER_0_MEMBER_0_1_STROKES"/>
</g>

<g transform="matrix( 1, 0, 0, 1, -34.8,-38.05) ">
<use xlink:href="#icon_r_box_02_29_Layer2_0_MEMBER_0_MEMBER_3_MEMBER_0_MEMBER_1_FILL"/>

<use xlink:href="#icon_r_box_02_29_Layer2_0_MEMBER_0_MEMBER_3_MEMBER_0_MEMBER_1_1_STROKES"/>
</g>

<g transform="matrix( 1, 0, 0, 1, -34.8,-38.05) ">
<use xlink:href="#icon_r_box_02_29_Layer2_0_MEMBER_0_MEMBER_3_MEMBER_0_MEMBER_2_MEMBER_0_MEMBER_0_FILL"/>
</g>

<g transform="matrix( 1, 0, 0, 1, -34.8,-38.05) ">
<use xlink:href="#icon_r_box_02_29_Layer2_0_MEMBER_0_MEMBER_3_MEMBER_0_MEMBER_2_MEMBER_0_MEMBER_1_FILL"/>
</g>

<g transform="matrix( 1, 0, 0, 1, -34.8,-38.05) ">
<use xlink:href="#icon_r_box_02_29_Layer2_0_MEMBER_0_MEMBER_3_MEMBER_0_MEMBER_3_FILL"/>

<use xlink:href="#icon_r_box_02_29_Layer2_0_MEMBER_0_MEMBER_3_MEMBER_0_MEMBER_3_1_STROKES"/>
</g>

<g transform="matrix( 1, 0, 0, 1, -34.8,-38.05) ">
<use xlink:href="#icon_r_box_02_29_Layer2_0_MEMBER_0_MEMBER_4_MEMBER_0_MEMBER_0_MEMBER_0_MEMBER_0_1_STROKES"/>
</g>

<g transform="matrix( 1, 0, 0, 1, -34.8,-38.05) ">
<use xlink:href="#icon_r_box_02_29_Layer2_0_MEMBER_0_MEMBER_4_MEMBER_0_MEMBER_0_MEMBER_1_MEMBER_0_1_STROKES"/>
</g>

<g transform="matrix( 1, 0, 0, 1, -34.8,-38.05) ">
<use xlink:href="#icon_r_box_02_29_Layer2_0_MEMBER_0_MEMBER_4_MEMBER_0_MEMBER_0_MEMBER_2_MEMBER_0_1_STROKES"/>
</g>

<g transform="matrix( 1, 0, 0, 1, -34.8,-38.05) ">
<use xlink:href="#icon_r_box_02_29_Layer2_0_MEMBER_0_MEMBER_4_MEMBER_0_MEMBER_1_MEMBER_0_MEMBER_0_1_STROKES"/>
</g>

<g transform="matrix( 1, 0, 0, 1, -34.8,-38.05) ">
<use xlink:href="#icon_r_box_02_29_Layer2_0_MEMBER_0_MEMBER_4_MEMBER_0_MEMBER_1_MEMBER_1_MEMBER_0_1_STROKES"/>
</g>

<g transform="matrix( 1, 0, 0, 1, -34.8,-38.05) ">
<use xlink:href="#icon_r_box_02_29_Layer2_0_MEMBER_0_MEMBER_4_MEMBER_0_MEMBER_1_MEMBER_2_MEMBER_0_1_STROKES"/>
</g>

<g transform="matrix( 1, 0, 0, 1, -34.8,-38.05) ">
<use xlink:href="#icon_r_box_02_29_Layer2_0_MEMBER_0_MEMBER_4_MEMBER_0_MEMBER_2_MEMBER_0_MEMBER_0_1_STROKES"/>
</g>

<g transform="matrix( 1, 0, 0, 1, -34.8,-38.05) ">
<use xlink:href="#icon_r_box_02_29_Layer2_0_MEMBER_0_MEMBER_4_MEMBER_0_MEMBER_2_MEMBER_1_MEMBER_0_1_STROKES"/>
</g>

<g transform="matrix( 1, 0, 0, 1, -34.8,-38.05) ">
<use xlink:href="#icon_r_box_02_29_Layer2_0_MEMBER_0_MEMBER_4_MEMBER_0_MEMBER_2_MEMBER_2_MEMBER_0_1_STROKES"/>
</g>

<g transform="matrix( 1, 0, 0, 1, -34.8,-38.05) ">
<use xlink:href="#icon_r_box_02_29_Layer2_0_MEMBER_0_MEMBER_4_MEMBER_1_MEMBER_0_MEMBER_0_MEMBER_0_1_STROKES"/>
</g>

<g transform="matrix( 1, 0, 0, 1, -34.8,-38.05) ">
<use xlink:href="#icon_r_box_02_29_Layer2_0_MEMBER_0_MEMBER_4_MEMBER_1_MEMBER_0_MEMBER_1_MEMBER_0_1_STROKES"/>
</g>

<g transform="matrix( 1, 0, 0, 1, -34.8,-38.05) ">
<use xlink:href="#icon_r_box_02_29_Layer2_0_MEMBER_0_MEMBER_4_MEMBER_1_MEMBER_0_MEMBER_2_MEMBER_0_1_STROKES"/>
</g>

<g transform="matrix( 1, 0, 0, 1, -34.8,-38.05) ">
<use xlink:href="#icon_r_box_02_29_Layer2_0_MEMBER_0_MEMBER_4_MEMBER_1_MEMBER_1_MEMBER_0_MEMBER_0_1_STROKES"/>
</g>

<g transform="matrix( 1, 0, 0, 1, -34.8,-38.05) ">
<use xlink:href="#icon_r_box_02_29_Layer2_0_MEMBER_0_MEMBER_4_MEMBER_1_MEMBER_1_MEMBER_1_MEMBER_0_1_STROKES"/>
</g>

<g transform="matrix( 1, 0, 0, 1, -34.8,-38.05) ">
<use xlink:href="#icon_r_box_02_29_Layer2_0_MEMBER_0_MEMBER_4_MEMBER_1_MEMBER_1_MEMBER_2_MEMBER_0_1_STROKES"/>
</g>

<g transform="matrix( 1, 0, 0, 1, -34.8,-38.05) ">
<use xlink:href="#icon_r_box_02_29_Layer2_0_MEMBER_0_MEMBER_4_MEMBER_1_MEMBER_2_MEMBER_0_MEMBER_0_1_STROKES"/>
</g>

<g transform="matrix( 1, 0, 0, 1, -34.8,-38.05) ">
<use xlink:href="#icon_r_box_02_29_Layer2_0_MEMBER_0_MEMBER_4_MEMBER_1_MEMBER_2_MEMBER_1_MEMBER_0_1_STROKES"/>
</g>

<g transform="matrix( 1, 0, 0, 1, -34.8,-38.05) ">
<use xlink:href="#icon_r_box_02_29_Layer2_0_MEMBER_0_MEMBER_4_MEMBER_1_MEMBER_2_MEMBER_2_MEMBER_0_1_STROKES"/>
</g>
</g>
</svg>
