
<svg xmlns="http://www.w3.org/2000/svg" version="1.1" xmlns:xlink="http://www.w3.org/1999/xlink" preserveAspectRatio="none" x="0px" y="0px" width="130px" height="115px" viewBox="0 0 130 115">
<defs>
<g id="icon_r_box_02_18_Layer3_0_FILL">
<path fill="#FFFFFF" fill-opacity="0" stroke="none" d="
M 65 -55
L -65 -55 -65 25 65 25 65 -55 Z"/>
</g>

<g id="icon_r_box_02_18_Layer3_1_FILL">
<path fill="#FFFFFF" fill-opacity="0" stroke="none" d="
M 65.05 49.95
L 65.05 24.95 -64.95 24.95 -64.95 49.95 65.05 49.95 Z"/>
</g>

<g id="icon_r_box_02_18_Layer3_2_FILL">
<path fill="#FFFFFF" fill-opacity="0" stroke="none" d="
M 65 -52.85
L 65 -57.85 -65 -57.85 -65 -52.85 65 -52.85 Z"/>
</g>

<g id="icon_r_box_02_18_Layer3_3_FILL">
<path fill="#FFFFFF" fill-opacity="0" stroke="none" d="
M 65 54.95
L 65 49.95 -65 49.95 -65 54.95 65 54.95 Z"/>
</g>

<g id="icon_r_box_02_18_Layer2_0_MEMBER_0_MEMBER_0_FILL">
<path fill="#D4D3D5" stroke="none" d="
M 64.5 43.65
L 64.5 38.8 6.45 38.8 6.45 43.65 64.5 43.65 Z"/>
</g>

<g id="icon_r_box_02_18_Layer2_0_MEMBER_0_MEMBER_1_FILL">
<path fill="#184558" stroke="none" d="
M 57.55 20.05
Q 64.35 18.2 67.55 15.1
L 35.5 8.95 3.4 15.1
Q 6.6 18.2 13.4 20.05 22.1 22.45 35.5 22.45 48.9 22.45 57.55 20.05 Z"/>
</g>

<g id="icon_r_box_02_18_Layer2_0_MEMBER_0_MEMBER_2_FILL">
<path fill="#F4CDA4" stroke="none" d="
M 59.35 38.8
L 59.35 15.1 11.6 15.1 11.6 38.8 59.35 38.8 Z"/>
</g>

<g id="icon_r_box_02_18_Layer2_0_MEMBER_0_MEMBER_3_MEMBER_0_FILL">
<path fill="#D5856D" stroke="none" d="
M 58.05 38.8
L 58.05 27.6 48.55 27.6 48.55 38.8 58.05 38.8 Z"/>
</g>

<g id="icon_r_box_02_18_Layer2_0_MEMBER_0_MEMBER_4_FILL">
<path fill="#F4CDA4" stroke="none" d="
M 51.35 29.15
L 51.35 32.9 55.25 32.9 55.25 29.15 51.35 29.15 Z"/>
</g>

<g id="icon_r_box_02_18_Layer2_0_MEMBER_0_MEMBER_5_FILL">
<path fill="#3E4144" stroke="none" d="
M 43.15 21.25
L 43.15 16.5 27.8 16.5 27.8 21.25 43.15 21.25 Z"/>
</g>

<g id="icon_r_box_02_18_Layer2_0_MEMBER_0_MEMBER_6_MEMBER_0_FILL">
<path fill="#D5856D" stroke="none" d="
M 12.9 27.6
L 12.9 38.8 22.4 38.8 22.4 27.6 12.9 27.6 Z"/>
</g>

<g id="icon_r_box_02_18_Layer2_0_MEMBER_0_MEMBER_6_MEMBER_1_MEMBER_0_FILL">
<path fill="#F4CDA4" stroke="none" d="
M 19.6 32.9
L 19.6 29.15 15.7 29.15 15.7 32.9 19.6 32.9 Z"/>
</g>

<g id="icon_r_box_02_18_Layer2_0_MEMBER_0_MEMBER_6_MEMBER_2_MEMBER_0_FILL">
<path fill="#F4CDA4" stroke="none" d="
M 19.6 31.35
L 18.1 31.35 18.1 32.9 19.6 32.9 19.6 31.35 Z"/>
</g>

<g id="icon_r_box_02_18_Layer2_0_MEMBER_0_MEMBER_7_FILL">
<path fill="#976D55" stroke="none" d="
M 13.85 38.8
L 13.85 15.05 11.6 15.05 11.6 38.8 13.85 38.8 Z"/>
</g>

<g id="icon_r_box_02_18_Layer2_0_MEMBER_0_MEMBER_8_FILL">
<path fill="#976D55" stroke="none" d="
M 59.35 38.8
L 59.35 15.05 57.1 15.05 57.1 38.8 59.35 38.8 Z"/>
</g>

<g id="icon_r_box_02_18_Layer2_0_MEMBER_0_MEMBER_9_MEMBER_0_FILL">
<path fill="#336290" stroke="none" d="
M 20.55 4.3
L 20.55 1.7
Q 20.55 1.2 20.2 0.85 19.85 0.5 19.35 0.5 18.85 0.5 18.45 0.85 18.1 1.2 18.1 1.7
L 18.1 4.3 20.55 4.3 Z"/>
</g>

<g id="icon_r_box_02_18_Layer2_0_MEMBER_0_MEMBER_9_MEMBER_1_FILL">
<path fill="#336290" stroke="none" d="
M 52.85 4.3
L 52.85 1.7
Q 52.85 1.2 52.5 0.85 52.1 0.5 51.6 0.5 51.1 0.5 50.75 0.85 50.4 1.2 50.4 1.7
L 50.4 4.3 52.85 4.3 Z"/>
</g>

<g id="icon_r_box_02_18_Layer2_0_MEMBER_0_MEMBER_10_MEMBER_0_FILL">
<path fill="#976D55" stroke="none" d="
M 23.6 38.8
L 23.6 15.05 21.35 15.05 21.35 38.8 23.6 38.8 Z"/>
</g>

<g id="icon_r_box_02_18_Layer2_0_MEMBER_0_MEMBER_10_MEMBER_1_FILL">
<path fill="#976D55" stroke="none" d="
M 49.6 38.8
L 49.6 15.05 47.35 15.05 47.35 38.8 49.6 38.8 Z"/>
</g>

<g id="icon_r_box_02_18_Layer2_0_MEMBER_0_MEMBER_11_MEMBER_0_FILL">
<path fill="#336290" stroke="none" d="
M 67.55 15.05
L 56.65 10.45 52.9 2.55 18.05 2.55 14.3 10.45 3.4 15.05
Q 12.3 17.65 35.5 17.65 58.65 17.65 67.55 15.05 Z"/>
</g>

<g id="icon_r_box_02_18_Layer2_0_MEMBER_0_MEMBER_12_FILL">
<path fill="#976D55" stroke="none" d="
M 59.35 25.35
L 59.35 23.45 11.6 23.45 11.6 25.35 59.35 25.35 Z"/>
</g>

<g id="icon_r_box_02_18_Layer2_0_MEMBER_0_MEMBER_13_FILL">
<path fill="#D5856D" stroke="none" d="
M 45.1 38.8
L 45.1 27.6 25.85 27.6 25.85 38.8 45.1 38.8 Z"/>
</g>

<g id="icon_r_box_02_18_Layer2_0_MEMBER_0_MEMBER_15_MEMBER_0_MEMBER_0_FILL">
<path fill="#F4CDA4" stroke="none" d="
M 34 32.9
L 34 29.15 27.65 29.15 27.65 32.9 34 32.9 Z"/>
</g>

<g id="icon_r_box_02_18_Layer2_0_MEMBER_0_MEMBER_15_MEMBER_0_MEMBER_1_FILL">
<path fill="#F4CDA4" stroke="none" d="
M 31.6 30.7
L 31.6 29.15 30.05 29.15 30.05 30.7 31.6 30.7 Z"/>
</g>

<g id="icon_r_box_02_18_Layer2_0_MEMBER_0_MEMBER_16_FILL">
<path fill="#C36E58" stroke="none" d="
M 19.6 37.2
L 19.6 34.25 15.7 34.25 15.7 37.2 19.6 37.2 Z"/>
</g>

<g id="icon_r_box_02_18_Layer2_0_MEMBER_0_MEMBER_17_FILL">
<path fill="#C36E58" stroke="none" d="
M 34 37.2
L 34 34 27.65 34 27.65 37.2 34 37.2 Z"/>
</g>

<g id="icon_r_box_02_18_Layer2_0_MEMBER_0_MEMBER_18_FILL">
<path fill="#C36E58" stroke="none" d="
M 43.3 37.2
L 43.3 34 36.95 34 36.95 37.2 43.3 37.2 Z"/>
</g>

<g id="icon_r_box_02_18_Layer2_0_MEMBER_0_MEMBER_19_FILL">
<path fill="#C36E58" stroke="none" d="
M 55.3 37.2
L 55.3 34.25 51.4 34.25 51.4 37.2 55.3 37.2 Z"/>
</g>

<g id="icon_r_box_02_18_Layer2_0_MEMBER_0_MEMBER_20_MEMBER_0_FILL">
<path fill="#D4D3D5" stroke="none" d="
M 23.65 43.65
L 23.65 36.2 19 36.2 19 43.65 23.65 43.65 Z"/>
</g>

<g id="icon_r_box_02_18_Layer2_0_MEMBER_0_MEMBER_20_MEMBER_1_FILL">
<path fill="#D4D3D5" stroke="none" d="
M 23.15 36.2
L 22.55 31.65 20.15 31.65 19.55 36.2 23.15 36.2 Z"/>
</g>

<g id="icon_r_box_02_18_Layer2_0_MEMBER_0_MEMBER_21_MEMBER_0_FILL">
<path fill="#D4D3D5" stroke="none" d="
M 51.95 43.65
L 51.95 36.2 47.3 36.2 47.3 43.65 51.95 43.65 Z"/>
</g>

<g id="icon_r_box_02_18_Layer2_0_MEMBER_0_MEMBER_21_MEMBER_1_FILL">
<path fill="#D4D3D5" stroke="none" d="
M 51.4 36.2
L 50.8 31.65 48.4 31.65 47.8 36.2 51.4 36.2 Z"/>
</g>

<g id="icon_r_box_02_18_Layer2_0_MEMBER_0_MEMBER_22_FILL">
<path fill="#B0B0B0" stroke="none" d="
M 47.3 43.65
L 47.3 38.8 23.65 38.8 23.65 43.65 47.3 43.65 Z"/>
</g>

<g id="icon_r_box_02_18_Layer2_0_MEMBER_0_MEMBER_23_FILL">
<path fill="#B0B0B0" stroke="none" d="
M 47.3 43.65
L 47.3 41.25 23.65 41.25 23.65 43.65 47.3 43.65 Z"/>
</g>

<g id="icon_r_box_02_18_Layer2_0_MEMBER_1_MEMBER_0_MEMBER_0_FILL">
<path fill="#336290" stroke="none" d="
M 67.55 15.05
L 56.65 10.45 52.9 2.55 18.05 2.55 14.3 10.45 3.4 15.05
Q 12.3 17.65 35.5 17.65 58.65 17.65 67.55 15.05 Z"/>
</g>

<g id="icon_r_box_02_18_Layer2_0_MEMBER_1_MEMBER_1_MEMBER_0_FILL">
<path fill="#22567E" stroke="none" d="
M 32.75 2.55
L 30.1 2.55 28.25 17.55 31.85 17.6 32.75 2.55 Z"/>
</g>

<g id="icon_r_box_02_18_Layer2_0_MEMBER_1_MEMBER_1_MEMBER_1_FILL">
<path fill="#22567E" stroke="none" d="
M 27.45 2.55
L 24.8 2.55 21.15 17.35 24.7 17.5 27.45 2.55 Z"/>
</g>

<g id="icon_r_box_02_18_Layer2_0_MEMBER_1_MEMBER_1_MEMBER_2_FILL">
<path fill="#22567E" stroke="none" d="
M 13.2 10.95
L 9.15 12.65 7.5 16 10.8 16.5 13.2 10.95 Z"/>
</g>

<g id="icon_r_box_02_18_Layer2_0_MEMBER_1_MEMBER_1_MEMBER_3_FILL">
<path fill="#22567E" stroke="none" d="
M 22.1 2.55
L 19.45 2.55 14.15 16.85 17.6 17.15 22.1 2.55 Z"/>
</g>

<g id="icon_r_box_02_18_Layer2_0_MEMBER_1_MEMBER_1_MEMBER_4_FILL">
<path fill="#22567E" stroke="none" d="
M 66.5 15.35
L 67.55 15.05 65.95 14.4 66.5 15.35 Z"/>
</g>

<g id="icon_r_box_02_18_Layer2_0_MEMBER_1_MEMBER_1_MEMBER_5_FILL">
<path fill="#22567E" stroke="none" d="
M 57.65 10.9
L 56.65 10.45 52.9 2.55 51.4 2.55 56.7 16.9 60.1 16.5 57.65 10.9 Z"/>
</g>

<g id="icon_r_box_02_18_Layer2_0_MEMBER_1_MEMBER_1_MEMBER_6_FILL">
<path fill="#22567E" stroke="none" d="
M 38.1 2.55
L 35.45 2.55 35.45 17.65 39 17.6 38.1 2.55 Z"/>
</g>

<g id="icon_r_box_02_18_Layer2_0_MEMBER_1_MEMBER_1_MEMBER_7_FILL">
<path fill="#22567E" stroke="none" d="
M 63.35 16
L 66.5 15.35 65.95 14.4 61.65 12.6 63.35 16 Z"/>
</g>

<g id="icon_r_box_02_18_Layer2_0_MEMBER_1_MEMBER_1_MEMBER_8_FILL">
<path fill="#22567E" stroke="none" d="
M 43.4 2.55
L 40.75 2.55 42.6 17.6 46.2 17.5 43.4 2.55 Z"/>
</g>

<g id="icon_r_box_02_18_Layer2_0_MEMBER_1_MEMBER_1_MEMBER_9_FILL">
<path fill="#22567E" stroke="none" d="
M 48.75 2.55
L 46.1 2.55 49.7 17.35
Q 52 17.25 53.25 17.15
L 48.75 2.55 Z"/>
</g>

<g id="icon_r_box_02_18_Layer2_0_MEMBER_2_FILL">
<path fill="#F4CDA4" stroke="none" d="
M 43.3 32.9
L 43.3 29.15 36.95 29.15 36.95 32.9 43.3 32.9 Z"/>
</g>

<g id="icon_r_box_02_18_Layer2_0_MEMBER_3_MEMBER_0_FILL">
<path fill="#D4D3D5" stroke="none" d="
M 78.7 22.35
L 76.35 19.7 72.5 19.7 70.15 22.35 78.7 22.35 Z"/>
</g>

<g id="icon_r_box_02_18_Layer2_0_MEMBER_3_MEMBER_1_FILL">
<path fill="#D4D3D5" stroke="none" d="
M 76.35 22.35
L 75.2 19.7 73.65 19.7 72.5 22.35 76.35 22.35 Z"/>
</g>

<g id="icon_r_box_02_18_Layer2_0_MEMBER_3_MEMBER_2_FILL">
<path fill="#D4D3D5" stroke="none" d="
M 78.5 43.65
L 78.5 41.45 70.35 41.45 70.35 43.65 78.5 43.65 Z"/>
</g>

<g id="icon_r_box_02_18_Layer2_0_MEMBER_3_MEMBER_3_FILL">
<path fill="#D4D3D5" stroke="none" d="
M 77.1 39.7
Q 76.65 39.3 76.05 39.3
L 72.8 39.3
Q 72.2 39.3 71.8 39.7 71.35 40.1 71.35 40.7
L 71.35 41.45 77.5 41.45 77.5 40.7
Q 77.5 40.1 77.1 39.7 Z"/>
</g>

<g id="icon_r_box_02_18_Layer2_0_MEMBER_3_MEMBER_4_FILL">
<path fill="#D4D3D5" stroke="none" d="
M 75.85 39.3
L 75.85 31.7 73 31.7 73 39.3 75.85 39.3 Z"/>
</g>

<g id="icon_r_box_02_18_Layer2_0_MEMBER_3_MEMBER_5_FILL">
<path fill="#D4D3D5" stroke="none" d="
M 75.85 31.7
Q 76.65 31.7 77.2 31.15 77.8 30.55 77.8 29.75
L 77.8 29.5 71.1 29.5 71.1 29.75
Q 71.1 30.55 71.65 31.15 72.2 31.7 73 31.7
L 75.85 31.7 Z"/>
</g>

<g id="icon_r_box_02_18_Layer2_0_MEMBER_3_MEMBER_6_FILL">
<path fill="#D4D3D5" stroke="none" d="
M 77.25 29.35
L 77.25 22.35 71.6 22.35 71.6 29.35 77.25 29.35 Z"/>
</g>

<g id="icon_r_box_02_18_Layer2_0_MEMBER_3_MEMBER_7_FILL">
<path fill="#3E4144" stroke="none" d="
M 75.2 27.9
L 75.2 23.85 73.7 23.85 73.7 27.9 75.2 27.9 Z"/>
</g>

<g id="icon_r_box_02_18_Layer2_0_MEMBER_3_MEMBER_8_FILL">
<path fill="#D4D3D5" stroke="none" d="
M 72.55 19.7
L 76.3 19.7
Q 76.3 18.9 75.75 18.35 75.2 17.8 74.45 17.8 73.65 17.8 73.1 18.35 72.55 18.9 72.55 19.7 Z"/>
</g>

<path id="icon_r_box_02_18_Layer2_0_MEMBER_0_MEMBER_0_1_STROKES" stroke="#000000" stroke-width="1" stroke-linejoin="round" stroke-linecap="round" fill="none" d="
M 64.5 43.65
L 6.45 43.65 6.45 38.8 64.5 38.8 64.5 43.65 Z"/>

<path id="icon_r_box_02_18_Layer2_0_MEMBER_0_MEMBER_1_1_STROKES" stroke="#000000" stroke-width="1" stroke-linejoin="round" stroke-linecap="butt" fill="none" d="
M 67.55 15.1
Q 64.35 18.2 57.55 20.05 48.9 22.45 35.5 22.45 22.1 22.45 13.4 20.05 6.6 18.2 3.4 15.1
L 35.5 8.95 67.55 15.1 Z"/>

<path id="icon_r_box_02_18_Layer2_0_MEMBER_0_MEMBER_2_1_STROKES" stroke="#000000" stroke-width="1" stroke-linejoin="round" stroke-linecap="round" fill="none" d="
M 59.35 38.8
L 11.6 38.8 11.6 15.1 59.35 15.1 59.35 38.8 Z"/>

<path id="icon_r_box_02_18_Layer2_0_MEMBER_0_MEMBER_3_MEMBER_0_1_STROKES" stroke="#000000" stroke-width="1" stroke-linejoin="round" stroke-linecap="round" fill="none" d="
M 58.05 38.8
L 48.55 38.8 48.55 27.6 58.05 27.6 58.05 38.8 Z"/>

<path id="icon_r_box_02_18_Layer2_0_MEMBER_0_MEMBER_5_1_STROKES" stroke="#000000" stroke-width="1" stroke-linejoin="round" stroke-linecap="round" fill="none" d="
M 43.15 21.25
L 27.8 21.25 27.8 16.5 43.15 16.5 43.15 21.25 Z"/>

<path id="icon_r_box_02_18_Layer2_0_MEMBER_0_MEMBER_6_MEMBER_0_1_STROKES" stroke="#000000" stroke-width="1" stroke-linejoin="round" stroke-linecap="round" fill="none" d="
M 12.9 38.8
L 22.4 38.8 22.4 27.6 12.9 27.6 12.9 38.8 Z"/>

<path id="icon_r_box_02_18_Layer2_0_MEMBER_0_MEMBER_7_1_STROKES" stroke="#000000" stroke-width="1" stroke-linejoin="round" stroke-linecap="round" fill="none" d="
M 13.85 15.05
L 11.6 15.05 11.6 38.8 13.85 38.8 13.85 15.05 Z"/>

<path id="icon_r_box_02_18_Layer2_0_MEMBER_0_MEMBER_8_1_STROKES" stroke="#000000" stroke-width="1" stroke-linejoin="round" stroke-linecap="round" fill="none" d="
M 59.35 15.05
L 57.1 15.05 57.1 38.8 59.35 38.8 59.35 15.05 Z"/>

<path id="icon_r_box_02_18_Layer2_0_MEMBER_0_MEMBER_9_MEMBER_0_1_STROKES" stroke="#000000" stroke-width="1" stroke-linejoin="round" stroke-linecap="butt" fill="none" d="
M 20.55 4.3
L 18.1 4.3 18.1 1.7
Q 18.1 1.2 18.45 0.85 18.85 0.5 19.35 0.5 19.85 0.5 20.2 0.85 20.55 1.2 20.55 1.7
L 20.55 4.3 Z"/>

<path id="icon_r_box_02_18_Layer2_0_MEMBER_0_MEMBER_9_MEMBER_1_1_STROKES" stroke="#000000" stroke-width="1" stroke-linejoin="round" stroke-linecap="butt" fill="none" d="
M 52.85 4.3
L 50.4 4.3 50.4 1.7
Q 50.4 1.2 50.75 0.85 51.1 0.5 51.6 0.5 52.1 0.5 52.5 0.85 52.85 1.2 52.85 1.7
L 52.85 4.3 Z"/>

<path id="icon_r_box_02_18_Layer2_0_MEMBER_0_MEMBER_10_MEMBER_0_1_STROKES" stroke="#000000" stroke-width="1" stroke-linejoin="round" stroke-linecap="round" fill="none" d="
M 23.6 15.05
L 21.35 15.05 21.35 38.8 23.6 38.8 23.6 15.05 Z"/>

<path id="icon_r_box_02_18_Layer2_0_MEMBER_0_MEMBER_10_MEMBER_1_1_STROKES" stroke="#000000" stroke-width="1" stroke-linejoin="round" stroke-linecap="round" fill="none" d="
M 49.6 15.05
L 47.35 15.05 47.35 38.8 49.6 38.8 49.6 15.05 Z"/>

<path id="icon_r_box_02_18_Layer2_0_MEMBER_0_MEMBER_11_MEMBER_0_1_STROKES" stroke="#000000" stroke-width="1" stroke-linejoin="round" stroke-linecap="butt" fill="none" d="
M 67.55 15.05
Q 58.65 17.65 35.5 17.65 12.3 17.65 3.4 15.05
L 14.3 10.45 18.05 2.55 52.9 2.55 56.65 10.45 67.55 15.05 Z"/>

<path id="icon_r_box_02_18_Layer2_0_MEMBER_0_MEMBER_12_1_STROKES" stroke="#000000" stroke-width="1" stroke-linejoin="round" stroke-linecap="round" fill="none" d="
M 59.35 25.35
L 11.6 25.35 11.6 23.45 59.35 23.45 59.35 25.35 Z"/>

<path id="icon_r_box_02_18_Layer2_0_MEMBER_0_MEMBER_13_1_STROKES" stroke="#000000" stroke-width="1" stroke-linejoin="round" stroke-linecap="round" fill="none" d="
M 45.1 38.8
L 25.85 38.8 25.85 27.6 45.1 27.6 45.1 38.8 Z"/>

<path id="icon_r_box_02_18_Layer2_0_MEMBER_0_MEMBER_14_1_STROKES" stroke="#000000" stroke-width="1" stroke-linejoin="round" stroke-linecap="round" fill="none" d="
M 35.45 27.6
L 35.45 38.8"/>

<path id="icon_r_box_02_18_Layer2_0_MEMBER_0_MEMBER_20_MEMBER_0_1_STROKES" stroke="#000000" stroke-width="1" stroke-linejoin="round" stroke-linecap="round" fill="none" d="
M 23.65 43.65
L 19 43.65 19 36.2 23.65 36.2 23.65 43.65 Z"/>

<path id="icon_r_box_02_18_Layer2_0_MEMBER_0_MEMBER_20_MEMBER_1_1_STROKES" stroke="#000000" stroke-width="1" stroke-linejoin="round" stroke-linecap="round" fill="none" d="
M 22.55 31.65
L 20.15 31.65 19.55 36.2 23.15 36.2 22.55 31.65 Z"/>

<path id="icon_r_box_02_18_Layer2_0_MEMBER_0_MEMBER_21_MEMBER_0_1_STROKES" stroke="#000000" stroke-width="1" stroke-linejoin="round" stroke-linecap="round" fill="none" d="
M 51.95 43.65
L 47.3 43.65 47.3 36.2 51.95 36.2 51.95 43.65 Z"/>

<path id="icon_r_box_02_18_Layer2_0_MEMBER_0_MEMBER_21_MEMBER_1_1_STROKES" stroke="#000000" stroke-width="1" stroke-linejoin="round" stroke-linecap="round" fill="none" d="
M 50.8 31.65
L 48.4 31.65 47.8 36.2 51.4 36.2 50.8 31.65 Z"/>

<path id="icon_r_box_02_18_Layer2_0_MEMBER_0_MEMBER_22_1_STROKES" stroke="#000000" stroke-width="1" stroke-linejoin="round" stroke-linecap="round" fill="none" d="
M 47.3 43.65
L 23.65 43.65 23.65 38.8 47.3 38.8 47.3 43.65 Z"/>

<path id="icon_r_box_02_18_Layer2_0_MEMBER_0_MEMBER_23_1_STROKES" stroke="#000000" stroke-width="1" stroke-linejoin="round" stroke-linecap="round" fill="none" d="
M 47.3 43.65
L 23.65 43.65 23.65 41.25 47.3 41.25 47.3 43.65 Z"/>

<path id="icon_r_box_02_18_Layer2_0_MEMBER_0_MEMBER_24_MEMBER_0_1_STROKES" stroke="#000000" stroke-width="1" stroke-linejoin="round" stroke-linecap="round" fill="none" d="
M 0.5 43.65
L 83.5 43.65"/>

<path id="icon_r_box_02_18_Layer2_0_MEMBER_1_MEMBER_0_MEMBER_0_1_STROKES" stroke="#000000" stroke-width="1" stroke-linejoin="round" stroke-linecap="butt" fill="none" d="
M 67.55 15.05
Q 58.65 17.65 35.5 17.65 12.3 17.65 3.4 15.05
L 14.3 10.45 18.05 2.55 52.9 2.55 56.65 10.45 67.55 15.05 Z"/>

<path id="icon_r_box_02_18_Layer2_0_MEMBER_1_MEMBER_2_MEMBER_0_1_STROKES" stroke="#000000" stroke-width="1" stroke-linejoin="round" stroke-linecap="butt" fill="none" d="
M 67.55 15.05
Q 58.65 17.65 35.5 17.65 12.3 17.65 3.4 15.05
L 14.3 10.45 18.05 2.55 52.9 2.55 56.65 10.45 67.55 15.05 Z"/>

<path id="icon_r_box_02_18_Layer2_0_MEMBER_3_MEMBER_0_1_STROKES" stroke="#000000" stroke-width="1" stroke-linejoin="round" stroke-linecap="round" fill="none" d="
M 78.7 22.35
L 70.15 22.35 72.5 19.7 76.35 19.7 78.7 22.35 Z"/>

<path id="icon_r_box_02_18_Layer2_0_MEMBER_3_MEMBER_1_1_STROKES" stroke="#000000" stroke-width="1" stroke-linejoin="round" stroke-linecap="round" fill="none" d="
M 76.35 22.35
L 72.5 22.35 73.65 19.7 75.2 19.7 76.35 22.35 Z"/>

<path id="icon_r_box_02_18_Layer2_0_MEMBER_3_MEMBER_2_1_STROKES" stroke="#000000" stroke-width="1" stroke-linejoin="round" stroke-linecap="round" fill="none" d="
M 78.5 43.65
L 70.35 43.65 70.35 41.45 78.5 41.45 78.5 43.65 Z"/>

<path id="icon_r_box_02_18_Layer2_0_MEMBER_3_MEMBER_3_1_STROKES" stroke="#000000" stroke-width="1" stroke-linejoin="round" stroke-linecap="round" fill="none" d="
M 76.05 39.3
L 72.8 39.3
Q 72.2 39.3 71.8 39.7 71.35 40.1 71.35 40.7
L 71.35 41.45 77.5 41.45 77.5 40.7
Q 77.5 40.1 77.1 39.7 76.65 39.3 76.05 39.3 Z"/>

<path id="icon_r_box_02_18_Layer2_0_MEMBER_3_MEMBER_4_1_STROKES" stroke="#000000" stroke-width="1" stroke-linejoin="round" stroke-linecap="round" fill="none" d="
M 75.85 31.7
L 73 31.7 73 39.3 75.85 39.3 75.85 31.7 Z"/>

<path id="icon_r_box_02_18_Layer2_0_MEMBER_3_MEMBER_5_1_STROKES" stroke="#000000" stroke-width="1" stroke-linejoin="round" stroke-linecap="round" fill="none" d="
M 75.85 31.7
L 73 31.7
Q 72.2 31.7 71.65 31.15 71.1 30.55 71.1 29.75
L 71.1 29.5 77.8 29.5 77.8 29.75
Q 77.8 30.55 77.2 31.15 76.65 31.7 75.85 31.7 Z"/>

<path id="icon_r_box_02_18_Layer2_0_MEMBER_3_MEMBER_6_1_STROKES" stroke="#000000" stroke-width="1" stroke-linejoin="round" stroke-linecap="round" fill="none" d="
M 77.25 29.35
L 71.6 29.35 71.6 22.35 77.25 22.35 77.25 29.35 Z"/>

<path id="icon_r_box_02_18_Layer2_0_MEMBER_3_MEMBER_7_1_STROKES" stroke="#000000" stroke-width="1" stroke-linejoin="round" stroke-linecap="round" fill="none" d="
M 75.2 27.9
L 73.7 27.9 73.7 23.85 75.2 23.85 75.2 27.9 Z"/>

<path id="icon_r_box_02_18_Layer2_0_MEMBER_3_MEMBER_8_1_STROKES" stroke="#000000" stroke-width="1" stroke-linejoin="round" stroke-linecap="round" fill="none" d="
M 72.55 19.7
Q 72.55 18.9 73.1 18.35 73.65 17.8 74.45 17.8 75.2 17.8 75.75 18.35 76.3 18.9 76.3 19.7
L 72.55 19.7 Z"/>
</defs>

<g transform="matrix( 1, 0, 0, 0.999603271484375, 65,60) ">
<g transform="matrix( 1, 0, 0, 1, 0,0) ">
<use xlink:href="#icon_r_box_02_18_Layer3_0_FILL"/>
</g>

<g transform="matrix( 1, 0, 0, 1, -0.05,0.05) ">
<use xlink:href="#icon_r_box_02_18_Layer3_1_FILL"/>
</g>

<g transform="matrix( 1, 0, 0, 1, 0,-2.15) ">
<use xlink:href="#icon_r_box_02_18_Layer3_2_FILL"/>
</g>

<g transform="matrix( 1, 0, 0, 1, 0,0.05) ">
<use xlink:href="#icon_r_box_02_18_Layer3_3_FILL"/>
</g>

<g transform="matrix( 1, 0, 0, 1, -40.5,-32.8) ">
<use xlink:href="#icon_r_box_02_18_Layer2_0_MEMBER_0_MEMBER_0_FILL"/>

<use xlink:href="#icon_r_box_02_18_Layer2_0_MEMBER_0_MEMBER_0_1_STROKES"/>
</g>

<g transform="matrix( 1, 0, 0, 1, -40.5,-32.8) ">
<use xlink:href="#icon_r_box_02_18_Layer2_0_MEMBER_0_MEMBER_1_FILL"/>

<use xlink:href="#icon_r_box_02_18_Layer2_0_MEMBER_0_MEMBER_1_1_STROKES"/>
</g>

<g transform="matrix( 1, 0, 0, 1, -40.5,-32.8) ">
<use xlink:href="#icon_r_box_02_18_Layer2_0_MEMBER_0_MEMBER_2_FILL"/>

<use xlink:href="#icon_r_box_02_18_Layer2_0_MEMBER_0_MEMBER_2_1_STROKES"/>
</g>

<g transform="matrix( 1, 0, 0, 1, -40.5,-32.8) ">
<use xlink:href="#icon_r_box_02_18_Layer2_0_MEMBER_0_MEMBER_3_MEMBER_0_FILL"/>

<use xlink:href="#icon_r_box_02_18_Layer2_0_MEMBER_0_MEMBER_3_MEMBER_0_1_STROKES"/>
</g>

<g transform="matrix( 1, 0, 0, 1, -40.5,-32.8) ">
<use xlink:href="#icon_r_box_02_18_Layer2_0_MEMBER_0_MEMBER_4_FILL"/>
</g>

<g transform="matrix( 1, 0, 0, 1, -40.5,-32.8) ">
<use xlink:href="#icon_r_box_02_18_Layer2_0_MEMBER_0_MEMBER_5_FILL"/>

<use xlink:href="#icon_r_box_02_18_Layer2_0_MEMBER_0_MEMBER_5_1_STROKES"/>
</g>

<g transform="matrix( 1, 0, 0, 1, -40.5,-32.8) ">
<use xlink:href="#icon_r_box_02_18_Layer2_0_MEMBER_0_MEMBER_6_MEMBER_0_FILL"/>

<use xlink:href="#icon_r_box_02_18_Layer2_0_MEMBER_0_MEMBER_6_MEMBER_0_1_STROKES"/>
</g>

<g transform="matrix( 1, 0, 0, 1, -40.5,-32.8) ">
<use xlink:href="#icon_r_box_02_18_Layer2_0_MEMBER_0_MEMBER_6_MEMBER_1_MEMBER_0_FILL"/>
</g>

<g transform="matrix( 1, 0, 0, 1, -40.5,-32.8) ">
<use xlink:href="#icon_r_box_02_18_Layer2_0_MEMBER_0_MEMBER_6_MEMBER_2_MEMBER_0_FILL"/>
</g>

<g transform="matrix( 1, 0, 0, 1, -40.5,-32.8) ">
<use xlink:href="#icon_r_box_02_18_Layer2_0_MEMBER_0_MEMBER_7_FILL"/>

<use xlink:href="#icon_r_box_02_18_Layer2_0_MEMBER_0_MEMBER_7_1_STROKES"/>
</g>

<g transform="matrix( 1, 0, 0, 1, -40.5,-32.8) ">
<use xlink:href="#icon_r_box_02_18_Layer2_0_MEMBER_0_MEMBER_8_FILL"/>

<use xlink:href="#icon_r_box_02_18_Layer2_0_MEMBER_0_MEMBER_8_1_STROKES"/>
</g>

<g transform="matrix( 1, 0, 0, 1, -40.5,-32.8) ">
<use xlink:href="#icon_r_box_02_18_Layer2_0_MEMBER_0_MEMBER_9_MEMBER_0_FILL"/>

<use xlink:href="#icon_r_box_02_18_Layer2_0_MEMBER_0_MEMBER_9_MEMBER_0_1_STROKES"/>
</g>

<g transform="matrix( 1, 0, 0, 1, -40.5,-32.8) ">
<use xlink:href="#icon_r_box_02_18_Layer2_0_MEMBER_0_MEMBER_9_MEMBER_1_FILL"/>

<use xlink:href="#icon_r_box_02_18_Layer2_0_MEMBER_0_MEMBER_9_MEMBER_1_1_STROKES"/>
</g>

<g transform="matrix( 1, 0, 0, 1, -40.5,-32.8) ">
<use xlink:href="#icon_r_box_02_18_Layer2_0_MEMBER_0_MEMBER_10_MEMBER_0_FILL"/>

<use xlink:href="#icon_r_box_02_18_Layer2_0_MEMBER_0_MEMBER_10_MEMBER_0_1_STROKES"/>
</g>

<g transform="matrix( 1, 0, 0, 1, -40.5,-32.8) ">
<use xlink:href="#icon_r_box_02_18_Layer2_0_MEMBER_0_MEMBER_10_MEMBER_1_FILL"/>

<use xlink:href="#icon_r_box_02_18_Layer2_0_MEMBER_0_MEMBER_10_MEMBER_1_1_STROKES"/>
</g>

<g transform="matrix( 1, 0, 0, 1, -40.5,-32.8) ">
<use xlink:href="#icon_r_box_02_18_Layer2_0_MEMBER_0_MEMBER_11_MEMBER_0_FILL"/>

<use xlink:href="#icon_r_box_02_18_Layer2_0_MEMBER_0_MEMBER_11_MEMBER_0_1_STROKES"/>
</g>

<g transform="matrix( 1, 0, 0, 1, -40.5,-32.8) ">
<use xlink:href="#icon_r_box_02_18_Layer2_0_MEMBER_0_MEMBER_12_FILL"/>

<use xlink:href="#icon_r_box_02_18_Layer2_0_MEMBER_0_MEMBER_12_1_STROKES"/>
</g>

<g transform="matrix( 1, 0, 0, 1, -40.5,-32.8) ">
<use xlink:href="#icon_r_box_02_18_Layer2_0_MEMBER_0_MEMBER_13_FILL"/>

<use xlink:href="#icon_r_box_02_18_Layer2_0_MEMBER_0_MEMBER_13_1_STROKES"/>
</g>

<g transform="matrix( 1, 0, 0, 1, -40.5,-32.8) ">
<use xlink:href="#icon_r_box_02_18_Layer2_0_MEMBER_0_MEMBER_14_1_STROKES"/>
</g>

<g transform="matrix( 1, 0, 0, 1, -40.5,-32.8) ">
<use xlink:href="#icon_r_box_02_18_Layer2_0_MEMBER_0_MEMBER_15_MEMBER_0_MEMBER_0_FILL"/>
</g>

<g transform="matrix( 1, 0, 0, 1, -40.5,-32.8) ">
<use xlink:href="#icon_r_box_02_18_Layer2_0_MEMBER_0_MEMBER_15_MEMBER_0_MEMBER_1_FILL"/>
</g>

<g transform="matrix( 1, 0, 0, 1, -40.5,-32.8) ">
<use xlink:href="#icon_r_box_02_18_Layer2_0_MEMBER_0_MEMBER_16_FILL"/>
</g>

<g transform="matrix( 1, 0, 0, 1, -40.5,-32.8) ">
<use xlink:href="#icon_r_box_02_18_Layer2_0_MEMBER_0_MEMBER_17_FILL"/>
</g>

<g transform="matrix( 1, 0, 0, 1, -40.5,-32.8) ">
<use xlink:href="#icon_r_box_02_18_Layer2_0_MEMBER_0_MEMBER_18_FILL"/>
</g>

<g transform="matrix( 1, 0, 0, 1, -40.5,-32.8) ">
<use xlink:href="#icon_r_box_02_18_Layer2_0_MEMBER_0_MEMBER_19_FILL"/>
</g>

<g transform="matrix( 1, 0, 0, 1, -40.5,-32.8) ">
<use xlink:href="#icon_r_box_02_18_Layer2_0_MEMBER_0_MEMBER_20_MEMBER_0_FILL"/>

<use xlink:href="#icon_r_box_02_18_Layer2_0_MEMBER_0_MEMBER_20_MEMBER_0_1_STROKES"/>
</g>

<g transform="matrix( 1, 0, 0, 1, -40.5,-32.8) ">
<use xlink:href="#icon_r_box_02_18_Layer2_0_MEMBER_0_MEMBER_20_MEMBER_1_FILL"/>

<use xlink:href="#icon_r_box_02_18_Layer2_0_MEMBER_0_MEMBER_20_MEMBER_1_1_STROKES"/>
</g>

<g transform="matrix( 1, 0, 0, 1, -40.5,-32.8) ">
<use xlink:href="#icon_r_box_02_18_Layer2_0_MEMBER_0_MEMBER_21_MEMBER_0_FILL"/>

<use xlink:href="#icon_r_box_02_18_Layer2_0_MEMBER_0_MEMBER_21_MEMBER_0_1_STROKES"/>
</g>

<g transform="matrix( 1, 0, 0, 1, -40.5,-32.8) ">
<use xlink:href="#icon_r_box_02_18_Layer2_0_MEMBER_0_MEMBER_21_MEMBER_1_FILL"/>

<use xlink:href="#icon_r_box_02_18_Layer2_0_MEMBER_0_MEMBER_21_MEMBER_1_1_STROKES"/>
</g>

<g transform="matrix( 1, 0, 0, 1, -40.5,-32.8) ">
<use xlink:href="#icon_r_box_02_18_Layer2_0_MEMBER_0_MEMBER_22_FILL"/>

<use xlink:href="#icon_r_box_02_18_Layer2_0_MEMBER_0_MEMBER_22_1_STROKES"/>
</g>

<g transform="matrix( 1, 0, 0, 1, -40.5,-32.8) ">
<use xlink:href="#icon_r_box_02_18_Layer2_0_MEMBER_0_MEMBER_23_FILL"/>

<use xlink:href="#icon_r_box_02_18_Layer2_0_MEMBER_0_MEMBER_23_1_STROKES"/>
</g>

<g transform="matrix( 1, 0, 0, 1, -40.5,-32.8) ">
<use xlink:href="#icon_r_box_02_18_Layer2_0_MEMBER_0_MEMBER_24_MEMBER_0_1_STROKES"/>
</g>

<g transform="matrix( 1, 0, 0, 1, -40.5,-32.8) ">
<use xlink:href="#icon_r_box_02_18_Layer2_0_MEMBER_1_MEMBER_0_MEMBER_0_FILL"/>

<use xlink:href="#icon_r_box_02_18_Layer2_0_MEMBER_1_MEMBER_0_MEMBER_0_1_STROKES"/>
</g>

<g transform="matrix( 1, 0, 0, 1, -40.5,-32.8) ">
<use xlink:href="#icon_r_box_02_18_Layer2_0_MEMBER_1_MEMBER_1_MEMBER_0_FILL"/>
</g>

<g transform="matrix( 1, 0, 0, 1, -40.5,-32.8) ">
<use xlink:href="#icon_r_box_02_18_Layer2_0_MEMBER_1_MEMBER_1_MEMBER_1_FILL"/>
</g>

<g transform="matrix( 1, 0, 0, 1, -40.5,-32.8) ">
<use xlink:href="#icon_r_box_02_18_Layer2_0_MEMBER_1_MEMBER_1_MEMBER_2_FILL"/>
</g>

<g transform="matrix( 1, 0, 0, 1, -40.5,-32.8) ">
<use xlink:href="#icon_r_box_02_18_Layer2_0_MEMBER_1_MEMBER_1_MEMBER_3_FILL"/>
</g>

<g transform="matrix( 1, 0, 0, 1, -40.5,-32.8) ">
<use xlink:href="#icon_r_box_02_18_Layer2_0_MEMBER_1_MEMBER_1_MEMBER_4_FILL"/>
</g>

<g transform="matrix( 1, 0, 0, 1, -40.5,-32.8) ">
<use xlink:href="#icon_r_box_02_18_Layer2_0_MEMBER_1_MEMBER_1_MEMBER_5_FILL"/>
</g>

<g transform="matrix( 1, 0, 0, 1, -40.5,-32.8) ">
<use xlink:href="#icon_r_box_02_18_Layer2_0_MEMBER_1_MEMBER_1_MEMBER_6_FILL"/>
</g>

<g transform="matrix( 1, 0, 0, 1, -40.5,-32.8) ">
<use xlink:href="#icon_r_box_02_18_Layer2_0_MEMBER_1_MEMBER_1_MEMBER_7_FILL"/>
</g>

<g transform="matrix( 1, 0, 0, 1, -40.5,-32.8) ">
<use xlink:href="#icon_r_box_02_18_Layer2_0_MEMBER_1_MEMBER_1_MEMBER_8_FILL"/>
</g>

<g transform="matrix( 1, 0, 0, 1, -40.5,-32.8) ">
<use xlink:href="#icon_r_box_02_18_Layer2_0_MEMBER_1_MEMBER_1_MEMBER_9_FILL"/>
</g>

<g transform="matrix( 1, 0, 0, 1, -40.5,-32.8) ">
<use xlink:href="#icon_r_box_02_18_Layer2_0_MEMBER_1_MEMBER_2_MEMBER_0_1_STROKES"/>
</g>

<g transform="matrix( 1, 0, 0, 1, -40.5,-32.8) ">
<use xlink:href="#icon_r_box_02_18_Layer2_0_MEMBER_2_FILL"/>
</g>

<g transform="matrix( 1, 0, 0, 1, -40.5,-32.8) ">
<use xlink:href="#icon_r_box_02_18_Layer2_0_MEMBER_3_MEMBER_0_FILL"/>

<use xlink:href="#icon_r_box_02_18_Layer2_0_MEMBER_3_MEMBER_0_1_STROKES"/>
</g>

<g transform="matrix( 1, 0, 0, 1, -40.5,-32.8) ">
<use xlink:href="#icon_r_box_02_18_Layer2_0_MEMBER_3_MEMBER_1_FILL"/>

<use xlink:href="#icon_r_box_02_18_Layer2_0_MEMBER_3_MEMBER_1_1_STROKES"/>
</g>

<g transform="matrix( 1, 0, 0, 1, -40.5,-32.8) ">
<use xlink:href="#icon_r_box_02_18_Layer2_0_MEMBER_3_MEMBER_2_FILL"/>

<use xlink:href="#icon_r_box_02_18_Layer2_0_MEMBER_3_MEMBER_2_1_STROKES"/>
</g>

<g transform="matrix( 1, 0, 0, 1, -40.5,-32.8) ">
<use xlink:href="#icon_r_box_02_18_Layer2_0_MEMBER_3_MEMBER_3_FILL"/>

<use xlink:href="#icon_r_box_02_18_Layer2_0_MEMBER_3_MEMBER_3_1_STROKES"/>
</g>

<g transform="matrix( 1, 0, 0, 1, -40.5,-32.8) ">
<use xlink:href="#icon_r_box_02_18_Layer2_0_MEMBER_3_MEMBER_4_FILL"/>

<use xlink:href="#icon_r_box_02_18_Layer2_0_MEMBER_3_MEMBER_4_1_STROKES"/>
</g>

<g transform="matrix( 1, 0, 0, 1, -40.5,-32.8) ">
<use xlink:href="#icon_r_box_02_18_Layer2_0_MEMBER_3_MEMBER_5_FILL"/>

<use xlink:href="#icon_r_box_02_18_Layer2_0_MEMBER_3_MEMBER_5_1_STROKES"/>
</g>

<g transform="matrix( 1, 0, 0, 1, -40.5,-32.8) ">
<use xlink:href="#icon_r_box_02_18_Layer2_0_MEMBER_3_MEMBER_6_FILL"/>

<use xlink:href="#icon_r_box_02_18_Layer2_0_MEMBER_3_MEMBER_6_1_STROKES"/>
</g>

<g transform="matrix( 1, 0, 0, 1, -40.5,-32.8) ">
<use xlink:href="#icon_r_box_02_18_Layer2_0_MEMBER_3_MEMBER_7_FILL"/>

<use xlink:href="#icon_r_box_02_18_Layer2_0_MEMBER_3_MEMBER_7_1_STROKES"/>
</g>

<g transform="matrix( 1, 0, 0, 1, -40.5,-32.8) ">
<use xlink:href="#icon_r_box_02_18_Layer2_0_MEMBER_3_MEMBER_8_FILL"/>

<use xlink:href="#icon_r_box_02_18_Layer2_0_MEMBER_3_MEMBER_8_1_STROKES"/>
</g>
</g>
</svg>
