
<svg xmlns="http://www.w3.org/2000/svg" version="1.1" xmlns:xlink="http://www.w3.org/1999/xlink" preserveAspectRatio="none" x="0px" y="0px" width="130px" height="115px" viewBox="0 0 130 115">
<defs>
<filter id="Filter_1" x="-22.875702507806235%" y="-20.576008261514858%" width="145.75140501561248%" height="141.15201652302972%" color-interpolation-filters="sRGB">
<feFlood flood-color="#000000" flood-opacity="1" in="SourceGraphic" result="result1"/>

<feGaussianBlur in="SourceGraphic" stdDeviation="1.6666666666666667,1.6666666666666667" result="result2"/>

<feComposite in2="result2" in="result1" operator="in" result="result3"/>

<feComposite in2="result3" in="SourceGraphic" operator="over" result="result4"/>
</filter>

<filter id="Filter_2" x="-20%" y="-20%" width="140%" height="140%" color-interpolation-filters="sRGB">
<feColorMatrix in="SourceGraphic" type="matrix" values="0.45 0 0 0 0.0784313725490196 0 0.45 0 0 0.12941176470588237 0 0 0.45 0 0.21568627450980393 0 0 0 1 0" result="result1"/>
</filter>

<g id="icon_r_box_02_18_Layer3_0_FILL">
<path fill="#FFFFFF" fill-opacity="0" stroke="none" d="
M 65 -55
L -65 -55 -65 25 65 25 65 -55 Z"/>
</g>

<g id="icon_r_box_02_18_Layer3_1_FILL">
<path fill="#FFFFFF" fill-opacity="0" stroke="none" d="
M 65.05 49.95
L 65.05 24.95 -64.95 24.95 -64.95 49.95 65.05 49.95 Z"/>
</g>

<g id="icon_r_box_02_18_Layer3_2_FILL">
<path fill="#FFFFFF" fill-opacity="0" stroke="none" d="
M 65 -52.85
L 65 -57.85 -65 -57.85 -65 -52.85 65 -52.85 Z"/>
</g>

<g id="icon_r_box_02_18_Layer3_3_FILL">
<path fill="#FFFFFF" fill-opacity="0" stroke="none" d="
M 65 54.95
L 65 49.95 -65 49.95 -65 54.95 65 54.95 Z"/>
</g>

<g id="Duplicate_Items_Folder___1_0_Layer1_0_FILL">
<path fill="#FFFFFF" stroke="none" d="
M -11.45 -46.85
Q -12.678125 -46.4705078125 -13.8 -46.1 -13.99609375 -46.103515625 -14.2 -46.15 -16.3009765625 -46.52265625 -17.45 -48.3 -17.485546875 -48.3419921875 -17.55 -48.4 -17.6228515625 -48.409765625 -17.7 -48.4 -17.7724609375 -48.382421875 -17.85 -48.35 -18.3552734375 -47.7970703125 -18.75 -46.95 -19.3611328125 -45.476171875 -18.95 -43.9 -18.9423828125 -43.8712890625 -18.95 -43.85 -18.9947265625 -43.809375 -19.05 -43.8
L -19.5 -43.75
Q -20.6517578125 -43.7986328125 -21.9 -44.4 -21.98515625 -44.4185546875 -22.1 -44.4 -22.155078125 -44.375390625 -22.2 -44.3 -22.255078125 -44.2203125 -22.25 -44.15 -22.1912109375 -43.524609375 -21.8 -42.95
L -21.85 -42.95
Q -21.615234375 -42.5669921875 -21.3 -42.25 -23.498828125 -40.4568359375 -23.85 -38.35 -24.15 -36.4 -22.6 -33.6
L -20.95 -31.15 -22 -24.9
Q -22.85 -19.7 -20.35 -17.15 -18.55 -15.35 -16.45 -14.6 -15.4 -14.2 -14.25 -14 -13.35 -13.85 -12.3 -13.75 -11.75 -13.7 -11.2 -13.65 -9.5197265625 -13.65 -7.75 -13.95 -7.83203125 -13.89765625 -7.9 -13.85 -9.949609375 -13.41328125 -12.15 -12.55
L -12.3 -12.5
Q -12.7169921875 -12.3345703125 -13.15 -12.15 -13.156640625 -12.105078125 -13.2 -12.05 -15.617578125 -10.784375 -19.55 -8.55
L -22.25 -11.7 -25.15 -15.05 -25.9 -14.45
Q -25.9802734375 -14.94140625 -26.25 -15.4 -26.7 -16.35 -26.7 -16.6 -26.6 -17.3 -26.25 -18.2 -25.9 -18.85 -26.05 -19.1 -26.35 -19.45 -27.05 -19.25 -27.85 -18.9 -28.1 -17.55 -28.1548828125 -17.3490234375 -28.2 -17.2 -28.9408203125 -17.621875 -29.25 -17.9 -30.05 -18.5 -30.7 -19.6 -31.3 -20.35 -31.95 -20.7 -32.25 -20.85 -32.5 -20.6 -32.7 -20.4 -32.8 -20.25
L -33.25 -20.5
Q -33.7 -20.6 -34.05 -20.15 -34.2384765625 -19.9615234375 -34.35 -19.75
L -34.4 -19.7
Q -34.7091796875 -19.7455078125 -35.1 -19.55 -35.4796875 -19.296875 -35.65 -18.65
L -35.7 -18.65
Q -35.8037109375 -18.6486328125 -35.9 -18.6 -35.949609375 -18.501171875 -35.95 -18.4
L -35.95 -18.4
Q -36.159375 -18.262890625 -36.35 -17.85 -36.6 -17.4 -36.25 -16.45 -35.95 -15.5 -35.1 -14.45 -32.624609375 -11.3556640625 -30.5 -10.45
L -31.2 -9.8 -27.9 -6.05 -23.65 -1.05 -23.55 -0.95
Q -22.65 0.1 -21.3 0.35 -19.95 0.6 -18.7 0.05
L -14.55 -2.15
Q -14.9103515625 1.0126953125 -15.25 3.9 -15.3453125 3.9013671875 -15.5 3.9
L -24.45 3.85
Q -24.6150390625 3.2896484375 -25.1 2.8 -25.8109375 2.0962890625 -26.85 2.1
L -28.35 2.1 -28.35 0.45
Q -28.350390625 0.399609375 -28.35 0.35 -28.0736328125 0.2294921875 -27.85 -0.05 -27.4 -0.45 -27.4 -1.05 -27.4 -1.65 -27.85 -2.1 -28.25 -2.5 -28.85 -2.5 -29.45 -2.5 -29.95 -2.1 -30.35 -1.65 -30.35 -1.05 -30.35 -0.45 -29.95 -0.05 -29.6623046875 0.2376953125 -29.35 0.35 -29.349609375 0.4033203125 -29.35 0.45
L -29.35 2.1 -31.2 2.1
Q -32.2392578125 2.0962890625 -33 2.8 -33.425390625 3.2798828125 -33.6 3.85 -34.7880859375 3.87265625 -35.65 4.7 -36.5388671875 5.593359375 -36.55 6.8 -36.5537109375 8.063671875 -35.7 8.95 -34.8078125 9.837890625 -33.6 9.85
L -15.8 9.9
Q -15.85390625 10.5185546875 -15.9 11.1
L -20.25 11.2
Q -20.28046875 10.710546875 -20.65 10.35 -21.083984375 9.9052734375 -21.7 9.9
L -27.35 9.9
Q -27.8296875 9.899609375 -28.25 10.15 -28.6150390625 10.4521484375 -28.8 10.9
L -38.55 38.2
Q -38.611328125 38.451953125 -38.6 38.7
L -38.7 38.7
Q -39.95 38.7 -40.8 39.6 -41.7 40.45 -41.7 41.7 -41.7 41.8 -41.7 41.85 -41.6693359375 42.556640625 -41.35 43.15
L -42.9 43.15
Q -43.023828125 43.15 -43.15 43.15 -45.2 43.15 -46.7 44.85 -48.2 46.55 -48.2 48.95 -48.2 51.35 -46.7 53 -45.2 54.7 -43.15 54.7 -43.0240234375 54.7 -42.9 54.7
L -40.95 54.7
Q -38.9462890625 54.6390625 -37.5 53 -36.05 51.35 -36.05 48.95 -36.05 46.55 -37.5 44.85 -37.567578125 44.7732421875 -37.65 44.7
L -31.05 44.7
Q -29.9646484375 47.3642578125 -28 49.6 -23.55 54.7 -17.3 54.7 -14.3146484375 54.7 -11.75 53.55 -10.53125 54.6138671875 -9 54.7
L -7.05 54.7 -7.05 54.65
Q -6.876953125 54.7 -6.7 54.7 -4.6 54.7 -3.1 53 -1.65 51.35 -1.65 48.95 -1.65 46.55 -3.1 44.85 -3.2728515625 44.65390625 -3.45 44.45 -2.42890625 41.8029296875 -2.3 38.7
L 7 38.7
Q 7.341015625 45.0880859375 11.35 49.65 15.8 54.7 22.05 54.7 28.35 54.7 32.8 49.65 37.1 44.7 37.1 37.6 37.1 30.65 32.8 25.7 29.8552734375 22.3251953125 26.1 21.15
L 26.1 -9.9
Q 26.1 -12.7982421875 23.3 -12.9 23.2017578125 -12.9 23.1 -12.9
L 17.2 -12.9 17.2 -15.85 20.75 -15.85
Q 20.85 -15.85 20.9 -15.85 23.15 -15.95 23.15 -18.25
L 23.15 -27.65
Q 23.15 -30 20.9 -30.05 20.8 -30.05 20.75 -30.05
L 15.75 -30.05
Q 15.751171875 -30.132421875 15.7 -30.2 15.6533203125 -30.2720703125 15.55 -30.3 14.8630859375 -30.5271484375 14.3 -31.45
L 14.3 -31.4
Q 14.275 -31.5 14.2 -31.6 14.1353515625 -31.8107421875 14.05 -32 15.71875 -31.9078125 16.3 -33.25
L 16.3 -33.25
Q 16.708203125 -33.9474609375 16.65 -34.75 16.642578125 -34.8140625 16.55 -34.9 16.51328125 -34.94296875 16.4 -34.95 14.7478515625 -35.0439453125 13.8 -36
L 13.75 -36.05
Q 13.639453125 -36.208984375 13.5 -36.35
L 13.45 -36.4
Q 13.4544921875 -36.4 13.4 -36.45
L 13.25 -37.15
Q 12.1 -40.8 10.3 -42.35 9.25 -43.2 7.85 -43.6
L 6.85 -43.8 6.9 -44.5
Q 6.9041015625 -44.5126953125 6.9 -44.55 6.65234375 -46.0810546875 4.55 -47.6 4.4705078125 -47.6544921875 4.35 -47.65 4.28828125 -47.6404296875 4.2 -47.6 4.1603515625 -47.5138671875 4.15 -47.45 4.1451171875 -47.343359375 4.2 -47.3 4.22421875 -47.2361328125 4.25 -47.2 4.664453125 -46.5037109375 4.7 -45.95 2.851953125 -47.3044921875 -0.3 -47.85 -5.5 -48.7 -11.45 -46.85
M 14.05 -15.85
L 14.05 -12.9 8.65 -12.9 8.65 -15.85 14.05 -15.85
M 3.6 -13.9
Q 1.96484375 -14.9625 1.5 -14.7
L 1.55 -14.2 1.3 -15.9
Q 1.6185546875 -15.85 2 -15.85
L 5.5 -15.85 5.5 -13.45
Q 4.5451171875 -13.6796875 3.6 -13.9
L 3.6 -13.9
M -26.3 12.9
L -23.85 12.9
Q -24.6935546875 14.4212890625 -26.8 19.65 -28.25 23.1 -29.55 26.5
L -28.9 26.7
Q -32.0041015625 30.921875 -32.35 36.35 -32.45625 36.9095703125 -32.5 37.55 -32.4552734375 37.615234375 -32.35 37.7 -32.348046875 38.20546875 -32.35 38.7
L -35.5 38.7 -26.3 12.9 Z"/>
</g>

<g id="Duplicate_Items_Folder___1_0_Layer0_0_FILL">
<path fill="#B14E4E" stroke="none" d="
M 16.35 47.1
Q 16.45 47 16.5 46.95
L 16.5 46.9
Q 16.45 46.85 16.35 46.8
L 16.35 47.1 Z"/>
</g>

<g id="Duplicate_Items_Folder___1_0_Layer0_0_MEMBER_1_MEMBER_0_FILL">
<path fill="#16224D" stroke="none" d="
M -9 54.7
L -7.05 54.7 -7.05 52.8 -9 52.8 -9 54.7
M -7.05 43.15
L -9 43.15 -9 50.85 -7.05 50.85 -7.05 43.15 Z"/>
</g>

<g id="Duplicate_Items_Folder___1_0_Layer0_0_MEMBER_1_MEMBER_1_FILL">
<path fill="#16224D" stroke="none" d="
M -37.55 48.95
Q -37.55 46.55 -39 44.85 -40.5 43.15 -42.6 43.15 -44.65 43.15 -46.15 44.85 -47.65 46.55 -47.65 48.95 -47.65 51.35 -46.15 53 -44.65 54.7 -42.6 54.7 -40.5 54.7 -39 53 -37.55 51.35 -37.55 48.95 Z"/>
</g>

<g id="Duplicate_Items_Folder___1_0_Layer0_0_MEMBER_1_MEMBER_2_FILL">
<path fill="#1C2B61" stroke="none" d="
M 110.75 52.2
Q 103.85 52.2 98.95 57.75 94.1 63.35 94.1 71.25 94.1 79.15 98.95 84.7 103.85 90.3 110.75 90.3 117.65 90.3 122.5 84.7 127.4 79.15 127.4 71.25 127.4 63.35 122.5 57.75 117.65 52.2 110.75 52.2 Z"/>
</g>

<g id="Duplicate_Items_Folder___1_0_Layer0_0_MEMBER_1_MEMBER_3_FILL">
<path fill="#55638F" stroke="none" d="
M -38.1 48.95
Q -38.1 47.6 -38.95 46.6 -39.8 45.65 -40.95 45.65 -42.15 45.65 -43 46.6 -43.85 47.6 -43.85 48.95 -43.85 50.3 -43 51.25 -42.15 52.2 -40.95 52.2 -39.8 52.2 -38.95 51.25 -38.1 50.3 -38.1 48.95 Z"/>
</g>

<g id="Duplicate_Items_Folder_Symbol_8_0_Layer0_0_MEMBER_0_FILL">
<path fill="#263C8F" stroke="none" d="
M 5.2 32.6
Q 5.2 40.05 9.8 45.3 14.5 50.65 21.1 50.65 27.75 50.65 32.45 45.3 37 40.05 37 32.6 37 25.25 32.45 20 27.75 14.6 21.1 14.6 14.5 14.6 9.8 19.95
L 9.8 20
Q 5.2 25.25 5.2 32.6 Z"/>
</g>

<g id="Duplicate_Items_Folder_Symbol_8_0_Layer0_0_MEMBER_1_FILL">
<path fill="#CAD4F6" stroke="none" d="
M 9.8 -8.3
Q 6.7 -11.9 2.3 -11.9 -2.05 -11.9 -5.15 -8.35
L -5.15 -8.3
Q -8.2 -4.85 -8.2 0 -8.2 4.95 -5.15 8.4 -2.05 11.95 2.3 11.95 6.7 11.95 9.8 8.4 12.85 4.95 12.85 0 12.85 -4.85 9.8 -8.3 Z"/>
</g>

<g id="Duplicate_Items_Folder_Symbol_8_0_Layer0_0_MEMBER_2_FILL">
<path fill="#9EACD8" stroke="none" d="
M 5.2 32.6
Q 5.2 40.05 9.8 45.3 14.5 50.65 21.1 50.65 27.75 50.65 32.45 45.3 37 40.05 37 32.6 37 25.25 32.45 20 27.75 14.6 21.1 14.6 14.5 14.6 9.8 19.95
L 9.8 20
Q 5.2 25.25 5.2 32.6 Z"/>
</g>

<g id="Duplicate_Items_Folder___1_0_Layer0_0_MEMBER_3_FILL">
<path fill="#5B46C2" stroke="none" d="
M 19.6 40.85
Q 20.85 40.85 21.75 37.9 22.6 34.95 22.6 30.85
L 22.6 30.75
Q 22.6 26.65 21.75 23.7 20.85 20.75 19.6 20.75
L -15.05 20.75 -15.05 40.85 19.6 40.85 Z"/>
</g>

<g id="Duplicate_Items_Folder___1_0_Layer0_0_MEMBER_5_FILL">
<path fill="#6651CF" stroke="none" d="
M -42.3 2
Q -42.3 1.55 -42.65 1.2 -42.95 0.9 -43.4 0.9 -43.85 0.9 -44.2 1.2 -44.5 1.55 -44.5 2 -44.5 2.45 -44.2 2.75 -43.85 3.1 -43.4 3.1 -42.95 3.1 -42.65 2.75 -42.3 2.45 -42.3 2 Z"/>
</g>

<g id="Duplicate_Items_Folder___1_0_Layer0_0_MEMBER_7_FILL">
<path fill="#7A86A7" stroke="none" d="
M 32.8 -29.25
Q 32.2 -29.25 31.7 -28.1 31.25 -26.9 31.25 -25.25
L 31.25 -17.4
Q 31.25 -15.75 31.7 -14.6 32.2 -13.4 32.8 -13.4
L 32.85 -13.4
Q 33.5 -13.4 33.95 -14.6 34.4 -15.75 34.4 -17.4
L 34.4 -25.25
Q 34.4 -26.9 33.95 -28.1 33.5 -29.25 32.85 -29.25
L 32.8 -29.25
M 25.85 -25.25
Q 25.85 -26.9 25.4 -28.1 24.95 -29.25 24.3 -29.25
L 24.25 -29.25
Q 23.65 -29.25 23.15 -28.1 22.7 -26.9 22.7 -25.25
L 22.7 -17.4
Q 22.7 -15.75 23.15 -14.6 23.65 -13.4 24.25 -13.4
L 24.3 -13.4
Q 24.95 -13.4 25.4 -14.6 25.85 -15.75 25.85 -17.4
L 25.85 -25.25 Z"/>
</g>

<g id="Duplicate_Items_Folder___1_0_Layer0_0_MEMBER_8_FILL">
<path fill="#8471E0" stroke="none" d="
M 26.1 -16.2
Q 26.1 -19.2 23.1 -19.2
L -0.35 -19.2
Q -3.35 -19.2 -3.35 -16.2
L -3.35 17.85
Q -3.35 20.85 -0.35 20.85
L 23.1 20.85
Q 26.1 20.85 26.1 17.85
L 26.1 -16.2 Z"/>
</g>

<g id="Duplicate_Items_Folder___1_0_Layer0_0_MEMBER_9_FILL">
<path fill="#8471E0" stroke="none" d="
M 2 -22.15
L 20.75 -22.15
Q 20.85 -22.15 20.9 -22.15 23.15 -22.25 23.15 -24.55
L 23.15 -33.95
Q 23.15 -36.3 20.9 -36.35 20.823828125 -36.3482421875 20.75 -36.35
L 2 -36.35
Q -0.4 -36.35 -0.4 -33.95
L -0.4 -24.55
Q -0.4 -22.15 2 -22.15 Z"/>
</g>

<g id="Duplicate_Items_Folder___1_0_Layer0_0_MEMBER_10_FILL">
<path fill="#6651CF" stroke="none" d="
M 23.15 -33.95
Q 23.15 -36.3 20.9 -36.35 20.823828125 -36.3482421875 20.75 -36.35 18.65 -36.2205078125 18.65 -33.95
L 18.65 -24.55
Q 18.65 -22.25 20.9 -22.15 23.15 -22.25 23.15 -24.55
L 23.15 -33.95 Z"/>
</g>

<g id="Duplicate_Items_Folder___1_0_Layer0_0_MEMBER_11_FILL">
<path fill="#6651CF" stroke="none" d="
M 26.1 -16.2
Q 26.1 -19.1 23.3 -19.2 20.5 -19.1 20.5 -16.2
L 20.5 17.85
Q 20.5 20.75 23.3 20.85 26.1 20.75 26.1 17.85
L 26.1 -16.2 Z"/>
</g>

<g id="Duplicate_Items_Folder___1_0_Layer0_0_MEMBER_12_FILL">
<path fill="#6651CF" stroke="none" d="
M 25.3 19.7
Q 24.25 18.65 22.8 18.65
L -18 18.65
Q -19.45 18.65 -20.5 19.7 -21.55 20.75 -21.55 22.2
L -21.55 22.25
Q -21.55 23.7 -20.5 24.75 -19.45 25.8 -18 25.8
L 22.8 25.8
Q 24.25 25.8 25.3 24.75 26.35 23.7 26.35 22.25
L 26.35 22.2
Q 26.35 20.75 25.3 19.7 Z"/>
</g>

<g id="Duplicate_Items_Folder___1_0_Layer0_0_MEMBER_14_MEMBER_0_FILL">
<path fill="#D68649" stroke="none" d="
M 30.8 36.2
L 35.95 36.2
Q 35.3 35.15 34.15 34.6 33 34 32.85 33.75 32.35 32.95 32.1 31.8 31.95 30.9 31.65 30.75 31.05 30.55 30.5 31.35 29.95 32.3 30.65 33.8 31.2 35.15 31.1 35.8 31 36.15 30.8 36.2 Z"/>
</g>

<g id="Duplicate_Items_Folder___1_0_Layer0_0_MEMBER_14_MEMBER_1_FILL">
<path fill="#D68649" stroke="none" d="
M 36.25 36.55
Q 34.45 34.25 32.35 34.1 30.15 34.35 29.3 34.3 28 34.25 26.55 33.7 25.4 33.3 24.45 33.45 24.1 33.5 24 34 23.95 34.25 23.95 34.5
L 23.35 34.6
Q 22.8 34.8 22.75 35.55 22.7 35.9 22.75 36.25 22.4 36.45 22.15 36.9 21.9 37.55 22.4 38.5 21.95 38.65 22.1 39.5 22.15 40.2 23.25 40.9 24.25 41.6 25.85 42.05 30.85 43.5 33.8 42.7
L 35.2 38.7 36.25 36.55 Z"/>
</g>

<g id="Duplicate_Items_Folder___1_0_Layer0_0_MEMBER_15_FILL">
<path fill="#2DE5CB" stroke="none" d="
M -20.95 -7.95
L -23.65 -11.15 -26.55 -14.45 -32.6 -9.2 -29.35 -5.45 -25.05 -0.5 -24.95 -0.35
Q -24.05 0.7 -22.7 0.95 -21.35 1.2 -20.1 0.65
L -9.4 -4.9 -10.05 -9.05
Q -11.45 -13.15 -14 -11.75 -16.55 -10.45 -20.95 -7.95 Z"/>
</g>

<g id="Duplicate_Items_Folder___1_0_Layer0_0_MEMBER_16_FILL">
<path fill="#84F9E9" stroke="none" d="
M -1.55 -14.4
Q -4.8 -14.45 -7.35 -13.95 -10.1 -13.45 -13.15 -12.15 -15.35 2.9 -16.1 13.55
L 12.45 16.05 10.9 -11.5
Q 4.6 -14.35 -1.55 -14.4 Z"/>
</g>

<g id="Duplicate_Items_Folder___1_0_Layer0_0_MEMBER_17_FILL">
<path fill="#C56F2D" stroke="none" d="
M 1.85 -12.15
L 0.85 -18.95 -7.9 -17.75 -6.9 -10.4
Q -2.9462890625 -10.497265625 1.85 -12.15 Z"/>
</g>

<g id="Duplicate_Items_Folder___1_0_Layer0_0_MEMBER_18_FILL">
<path fill="#FF793C" stroke="none" d="
M 12.7 13.95
Q 12.15 11.15 10.7 9.3
L -5.75 11.55
Q -6.1 12.669140625 -6.1 13.95 -6.1 16.8 -4.35 18.8 -2.5 20.85 0 20.85
L 6.6 20.85
Q 9.1 20.85 10.9 18.8 12.029296875 17.5453125 12.45 15.95 12.8 14.45 12.7 13.95 Z"/>
</g>

<g id="Duplicate_Items_Folder___1_0_Layer0_0_MEMBER_19_FILL">
<path fill="#2DE5CB" stroke="none" d="
M 6.8 -0.1
Q 1.5125 -0.967578125 0.7 -1.45
L -1.15 6.85
Q 0.6109375 8.136328125 11.65 7.25 13.305078125 7.2482421875 14.45 6.05 15.6482421875 4.905078125 15.65 3.25 15.65 2.5 14.85 1.75 14.151171875 1.098828125 6.8 -0.1 Z"/>
</g>

<g id="Duplicate_Items_Folder___1_0_Layer0_0_MEMBER_20_FILL">
<path fill="#2DE5CB" stroke="none" d="
M 2.65 -12.55
Q 3.4408203125 -13.047265625 3.6 -13.9 1.96484375 -14.9625 1.5 -14.7
L 1.6 -13.75
Q -1.25 -11.05 -6.6 -10.8
L -7.4 -14.05
Q -8.2201171875 -13.9236328125 -8.65 -12.75 -9.0697265625 -11.537890625 -8.25 -10.25 -7.3943359375 -8.952734375 -5.65 -9.05 -0.45 -9.25 2.65 -12.55 Z"/>
</g>

<g id="Duplicate_Items_Folder___1_0_Layer0_0_MEMBER_21_FILL">
<path fill="#2AD8BF" stroke="none" d="
M 5.25 -2.6
L 5.25 -6.7
Q 0.8546875 -7.5384765625 -2.05 -6.7
L -2.05 -2.6
Q -2.05 -1.1 -0.95 0 0.1 1.05 1.6 1.05 3.1 1.05 4.2 0 5.25 -1.1 5.25 -2.6 Z"/>
</g>

<g id="Duplicate_Items_Folder___1_0_Layer0_0_MEMBER_22_FILL">
<path fill="#2DE5CB" stroke="none" d="
M 10.95 -0.65
L 10.65 -0.6 0.7 0.2 1.6 7.25 10.65 7.25 10.95 7.25 12.25 7.25
Q 13.9 7.25 15.1 6.1 16.25 4.9 16.25 3.25 16.25 1.6 15.1 0.45 13.9 -0.75 12.25 -0.75
L 10.95 -0.65 Z"/>
</g>

<g id="Duplicate_Items_Folder___1_0_Layer0_0_MEMBER_23_MEMBER_0_FILL">
<path fill="#D68649" stroke="none" d="
M 8.25 -28.2
Q 6.7 -28.9 4.95 -28.25
L 4.65 -27.6
Q 4.3 -26.9 4 -26.6 2.85 -25.3 2.75 -25.95 2.6 -27.75 2.3 -28.7 -2 -31.65 -4.45 -36.85 -5.65 -39.45 -6 -41.45 -8.55 -41.5 -11.6 -40.8 -17.75 -39.45 -20.4 -35.8
L -20.95 -32.45 -22 -26.2
Q -22.85 -21 -20.35 -18.45 -18.55 -16.65 -16.45 -15.9 -15.4 -15.5 -14.25 -15.3 -13.35 -15.15 -12.3 -15.05 -11.75 -15 -11.2 -14.95 -8.75 -14.95 -6.15 -15.55 -4.2 -16.05 -2.75 -16.55
L -1.9 -16.95
Q -0.3 -17.7 0.85 -18.7 1.3 -19.05 2.35 -20.2
L 3.5 -19.9
Q 4.95 -19.65 6.3 -20 8.15 -20.45 9.15 -21.65 10.3 -23.05 10.15 -25.1 10.15 -25.2 10.15 -25.25 9.95 -27.4 8.25 -28.2 Z"/>

<path fill="#362521" stroke="none" d="
M 13.25 -38.45
Q 12.1 -42.1 10.3 -43.65 9.25 -44.5 7.85 -44.9
L 6.65 -45.1
Q 4.9 -48.25 -0.3 -49.15 -5.5 -50 -11.45 -48.15 -17.6 -46.25 -20.65 -44.05 -23.45 -42.05 -23.85 -39.65 -24.15 -37.7 -22.6 -34.9
L -20.95 -32.45 -20.4 -35.8
Q -17.75 -39.45 -11.6 -40.8 -8.55 -41.5 -6 -41.45 -5.65 -39.45 -4.45 -36.85 -2 -31.65 2.3 -28.7 2.6 -27.75 2.75 -25.95 2.85 -25.3 4 -26.6 4.3 -26.9 4.65 -27.6
L 4.95 -28.25
Q 6.7 -28.9 8.25 -28.2 9.95 -27.4 10.15 -25.25 10.15 -25.2 10.15 -25.1 10.85 -25.55 11.6 -26.45 13.2 -28.35 13.75 -31 14.3 -33.65 13.8 -36.3
L 13.25 -38.45 Z"/>
</g>

<g id="Duplicate_Items_Folder___1_0_Layer0_0_MEMBER_23_MEMBER_1_FILL">
<path fill="#C37335" stroke="none" d="
M 31.45 24.15
Q 30.9662109375 26.591015625 29.9 28.45 33.2 29 34.05 27.25 34.75 25.9 34.05 24.8 33.35 23.65 31.45 24.15 Z"/>
</g>

<g id="Duplicate_Items_Folder___1_0_Layer0_0_MEMBER_23_MEMBER_2_MEMBER_0_STROKES_1_FILL">
<path fill="#5B403A" stroke="none" d="
M -10.45 -34.95
Q -11 -34.85 -10.8 -34.3 -10.7 -34.05 -10.5 -34
L -10.4 -33.95 -10.4 -33.9 -10.35 -33.9 -10.3 -33.85 -10.25 -33.85 -10.2 -33.8 -10.1 -33.75 -10.05 -33.75 -10 -33.7 -9.9 -33.7 -9.75 -33.6 -9.7 -33.6 -9.6 -33.55 -9.4 -33.5 -9.3 -33.45 -9.25 -33.4 -8.9 -33.3 -8.8 -33.25 -8.65 -33.2 -8.55 -33.15
Q -8.05 -33 -7.9 -33.5 -7.8 -33.8 -8 -34
L -8.15 -34.15 -8.2 -34.25 -8.4 -34.45 -8.6 -34.55 -8.8 -34.7 -9.05 -34.8 -9.15 -34.9 -9.3 -34.9 -9.55 -35 -9.75 -35.05 -10.2 -35.05 -10.25 -35 -10.35 -35 -10.45 -34.95 Z"/>
</g>

<g id="Duplicate_Items_Folder___1_0_Layer0_0_MEMBER_23_MEMBER_2_MEMBER_2_FILL">
<path fill="#CC6F28" stroke="none" d="
M 26.95 26.65
Q 26.95 25.95 26 25.45 25.1 25 23.75 25 22.4 25 21.45 25.45 20.55 25.95 20.55 26.65 20.55 27.35 21.45 27.8 22.4 28.3 23.75 28.3 25.1 28.3 26 27.8 26.95 27.35 26.95 26.65 Z"/>
</g>

<g id="Duplicate_Items_Folder___1_0_Layer0_0_MEMBER_23_MEMBER_2_MEMBER_3_FILL">
<path fill="#000000" stroke="none" d="
M 18.9 22.25
Q 18.9 21.3 18.55 20.6 18.2 19.9 17.7 19.9 17.2 19.9 16.85 20.6 16.5 21.3 16.5 22.25 16.5 23.2 16.85 23.9 17.2 24.6 17.7 24.6 18.2 24.6 18.55 23.9 18.9 23.2 18.9 22.25 Z"/>
</g>

<g id="Duplicate_Items_Folder___1_0_Layer0_0_MEMBER_23_MEMBER_2_MEMBER_4_FILL">
<path fill="#CC6F28" stroke="none" d="
M 41.8 24.1
Q 41.2951171875 24 40.65 24 39.6 24 38.95 24.35 38.25 24.7 38.25 25.25 38.25 25.75 38.95 26.1 39.6 26.5 40.65 26.5 41.4 26.5 42 26.3 42 25.25 41.8 24.15
L 41.8 24.1 Z"/>
</g>

<g id="Duplicate_Items_Folder___1_0_Layer0_0_MEMBER_23_MEMBER_2_MEMBER_5_FILL">
<path fill="#000000" stroke="none" d="
M 10.05 22.9
Q 10.05 21.9 9.6 21.15 9.15 20.4 8.55 20.4 7.9 20.4 7.45 21.15 7.05 21.9 7.05 22.9 7.05 23.95 7.45 24.65 7.9 25.4 8.55 25.4 9.15 25.4 9.6 24.65 10.05 23.95 10.05 22.9 Z"/>
</g>

<g id="Duplicate_Items_Folder___1_0_Layer0_0_MEMBER_23_MEMBER_2_MEMBER_7_STROKES_1_FILL">
<path fill="#5B403A" stroke="none" d="
M -10.45 -34.95
Q -11 -34.85 -10.8 -34.3 -10.7 -34.05 -10.5 -34
L -10.4 -33.95 -10.4 -33.9 -10.35 -33.9 -10.3 -33.85 -10.25 -33.85 -10.2 -33.8 -10.1 -33.75 -10.05 -33.75 -10 -33.7 -9.9 -33.7 -9.75 -33.6 -9.7 -33.6 -9.6 -33.55 -9.4 -33.5 -9.3 -33.45 -9.25 -33.4 -8.9 -33.3 -8.8 -33.25 -8.65 -33.2 -8.55 -33.15
Q -8.05 -33 -7.9 -33.5 -7.8 -33.8 -8 -34
L -8.15 -34.15 -8.2 -34.25 -8.4 -34.45 -8.6 -34.55 -8.8 -34.7 -9.05 -34.8 -9.15 -34.9 -9.3 -34.9 -9.55 -35 -9.75 -35.05 -10.2 -35.05 -10.25 -35 -10.35 -35 -10.45 -34.95 Z"/>
</g>

<g id="Duplicate_Items_Folder___1_0_Layer0_0_MEMBER_23_MEMBER_3_FILL">
<path fill="#362521" stroke="none" d="
M -16.2 -35.65
L -14.1 -36.65
Q -11.85 -37.9 -11.15 -39 -10.45 -36.75 -8.65 -35.2
L -8.6 -36.2
Q -8.5 -37.4 -8.15 -38.1 -7.3 -36.6 -5.75 -35 -2.6 -31.85 1.2 -31.5
L -4.7 -43.5 -16.25 -43.05
Q -19 -38.75 -21.75 -35.55 -21.35 -35.25 -20.4 -35.4 -18.5 -35.7 -15.65 -38 -15.55 -36.75 -16.2 -35.65
M -19.4 -42.95
Q -18.05 -42.75 -14.25 -45.1 -12.35 -46.25 -10.7 -47.45
L -13.3 -47.1
Q -16.2 -47.2 -17.65 -49.45 -18.15 -48.95 -18.5 -48.15 -19.2 -46.55 -18.55 -44.85
L -19.45 -44.8
Q -20.65 -44.85 -22 -45.45 -21.95 -44.9 -21.6 -44.35 -20.85 -43.15 -19.4 -42.95
M 4.5 -45.95
L 6.55 -44.6 6.65 -45.8
Q 6.4 -47.25 4.4 -48.7 5.55 -46.85 4.5 -45.95
M 13.3 -37.5
Q 12.75 -38.15 12.6 -38.85 12.35 -37.05 12.25 -35.2 12.05 -31.4 13 -30.95 14.5 -30.2 15.5 -31.35 14.7 -31.6 14.1 -32.6 13.85 -33.15 13.7 -33.6 15.5 -33.3 16.1 -34.65 16.45 -35.3 16.4 -36 14.35 -36.1 13.3 -37.5 Z"/>
</g>

<g id="Duplicate_Items_Folder___1_0_Layer0_0_MEMBER_24_MEMBER_0_FILL">
<path fill="#D68649" stroke="none" d="
M -26.3 14.6
L -29.8 31.2 -23.8 32.95 -18.6 16.85 -26.3 14.6 Z"/>
</g>

<g id="Duplicate_Items_Folder___1_0_Layer0_0_MEMBER_24_MEMBER_1_FILL">
<path fill="#D68649" stroke="none" d="
M -18.85 14.85
L -22.1 31.45 -16.5 33.2 -11.6 17.1 -18.85 14.85 Z"/>
</g>

<g id="Duplicate_Items_Folder___1_0_Layer0_0_MEMBER_24_MEMBER_2_FILL">
<path fill="#FFF9C2" stroke="none" d="
M -23.7 32.8
L -22.75 29.5 -29.1 27.65 -29.85 31.5 -23.7 32.8 Z"/>
</g>

<g id="Duplicate_Items_Folder___1_0_Layer0_0_MEMBER_24_MEMBER_3_FILL">
<path fill="#FFF9C2" stroke="none" d="
M -23.7 32.8
L -22.75 29.5 -28.7 27.75 -29.85 31.5 -23.7 32.8 Z"/>
</g>

<g id="Duplicate_Items_Folder___1_0_Layer0_0_MEMBER_24_MEMBER_4_FILL">
<path fill="#F96A33" stroke="none" d="
M -37.45 35.45
Q -37.4 34.25 -37.55 32.3
L -37.75 30.6
Q -40.65 31.05 -43.9 30.6 -48.8 31.15 -48 35.45 -47.2 36.1 -37.45 35.45 Z"/>
</g>

<g id="Duplicate_Items_Folder___1_0_Layer0_0_MEMBER_24_MEMBER_5_FILL">
<path fill="#F96A33" stroke="none" d="
M -13.65 31.8
Q -16.6 31.5 -19.6 30.2 -24.5 29.45 -24.8 33.85 -24.25 34.65 -14.6 36.55 -14.3 35.4 -13.9 33.5
L -13.65 31.8 Z"/>
</g>

<g id="Duplicate_Items_Folder___1_0_Layer0_0_MEMBER_24_MEMBER_6_FILL">
<path fill="#FF793C" stroke="none" d="
M 3.45 20.7
L 3.3 10.75 -22.8 11.2
Q -24.5 11.25 -25.85 12.3 -26.4 12.7 -29.2 19.65 -30.65 23.1 -31.95 26.5
L -21.05 30.2 -18.8 21.2 3.45 20.7 Z"/>
</g>

<g id="Duplicate_Items_Folder___1_0_Layer0_0_MEMBER_24_MEMBER_7_FILL">
<path fill="#FF793C" stroke="none" d="
M 5.5 21
L 5.5 10.95 -7.5 11.05
Q -8.45 11.1 -9.6 11.45 -10.9 11.8 -11.55 12.3 -12.1 12.7 -14.75 18.7 -15.5 20.45 -16.2 22.15 -16.9 23.65 -18.65 28.35
L -7.75 32.05 -4.75 22.15 -4.5 21.2 5.5 21 Z"/>
</g>

<g id="Duplicate_Items_Folder___1_0_Layer0_0_MEMBER_25_FILL">
<path fill="#84F9E9" stroke="none" d="
M 12.9 13.65
Q 12.05 11 12 7.8
L -11.3 9.25
Q -11.3154296875 9.8970703125 -11.5 10.7 -5.925 10.390625 -0.85 12.75 1.25 13.75 5.35 16 7.25 16.7 9.9 17 12.65 17.3 13.7 16.75 13.7 16.1 12.9 13.65 Z"/>
</g>

<g id="Duplicate_Items_Folder___1_0_Layer0_0_MEMBER_26_MEMBER_0_FILL">
<path fill="#FFD34D" stroke="none" d="
M -4.55 39.6
Q -5.40546875 38.7482421875 -6.65 38.75
L -38.55 38.75
Q -39.79453125 38.7482421875 -40.7 39.6 -41.5517578125 40.50546875 -41.55 41.75 -41.5501953125 41.82578125 -41.55 41.9 -41.4984375 43.0482421875 -40.7 43.85 -39.79453125 44.7517578125 -38.55 44.75
L -6.65 44.75
Q -5.40546875 44.7517578125 -4.55 43.85 -3.7015625 43.0482421875 -3.65 41.9 -3.6498046875 41.82578125 -3.65 41.75 -3.6482421875 40.50546875 -4.55 39.6 Z"/>
</g>

<g id="Duplicate_Items_Folder___1_0_Layer0_0_MEMBER_26_MEMBER_1_FILL">
<path fill="#FFC720" stroke="none" d="
M -4.55 43.85
Q -3.7015625 43.0482421875 -3.65 41.9
L -41.55 41.9
Q -41.4984375 43.0482421875 -40.7 43.85 -39.79453125 44.7517578125 -38.55 44.75
L -6.65 44.75
Q -5.40546875 44.7517578125 -4.55 43.85 Z"/>
</g>

<g id="Duplicate_Items_Folder___1_0_Layer0_0_MEMBER_27_MEMBER_2_MEMBER_0_FILL">
<path fill="#212E59" stroke="none" d="
M 6.7 37
Q 6.7 43.75 10.85 48.5 15.1 53.3 21.05 53.3 27.05 53.3 31.3 48.5 35.4 43.75 35.4 37 35.4 30.4 31.3 25.65 27.05 20.8 21.05 20.8 15.1 20.8 10.85 25.6
L 10.85 25.65
Q 6.7 30.4 6.7 37 Z"/>
</g>

<g id="Duplicate_Items_Folder___1_0_Layer0_0_MEMBER_27_MEMBER_2_MEMBER_1_FILL">
<path fill="#CAD4F6" stroke="none" d="
M 5.2 32.6
Q 5.2 40.05 9.8 45.3 14.5 50.65 21.1 50.65 27.75 50.65 32.45 45.3 37 40.05 37 32.6 37 25.25 32.45 20 27.75 14.6 21.1 14.6 14.5 14.6 9.8 19.95
L 9.8 20
Q 5.2 25.25 5.2 32.6 Z"/>
</g>

<g id="Duplicate_Items_Folder___1_0_Layer0_0_MEMBER_27_MEMBER_2_MEMBER_2_FILL">
<path fill="#9FAEE0" stroke="none" d="
M 5.2 32.6
Q 5.2 40.05 9.8 45.3 14.5 50.65 21.1 50.65 27.75 50.65 32.45 45.3 37 40.05 37 32.6 37 25.25 32.45 20 27.75 14.6 21.1 14.6 14.5 14.6 9.8 19.95
L 9.8 20
Q 5.2 25.25 5.2 32.6 Z"/>
</g>

<g id="Duplicate_Items_Folder___1_0_Layer0_0_MEMBER_27_MEMBER_2_MEMBER_3_FILL">
<path fill="#7584B8" stroke="none" d="
M 5.2 32.6
Q 5.2 40.05 9.8 45.3 14.5 50.65 21.1 50.65 27.75 50.65 32.45 45.3 37 40.05 37 32.6 37 25.25 32.45 20 27.75 14.6 21.1 14.6 14.5 14.6 9.8 19.95
L 9.8 20
Q 5.2 25.25 5.2 32.6 Z"/>
</g>

<g id="Duplicate_Items_Folder___1_0_Layer0_0_MEMBER_27_MEMBER_2_MEMBER_4_FILL">
<path fill="#132254" stroke="none" d="
M 59.65 20.95
Q 58.11640625 20.6 56.45 20.6 50.2 20.6 45.75 25.65
L 45.75 25.7
Q 41.4 30.65 41.4 37.6 41.4 44.7 45.75 49.65 50.2 54.7 56.45 54.7 57.571875 54.7 58.6 54.55 52.7474609375 54.3248046875 48.5 49.6 44.15 44.7 44.15 37.7 44.15 30.9 48.5 25.95
L 48.5 25.9
Q 52.95 20.95 59.2 20.95 59.427734375 20.95 59.65 20.95 Z"/>
</g>

<g id="Duplicate_Items_Folder___1_0_Layer0_0_MEMBER_27_MEMBER_3_MEMBER_0_FILL">
<path fill="#16224D" stroke="none" d="
M -3.7 48.95
Q -3.7 46.55 -5.15 44.85 -6.65 43.15 -8.75 43.15 -10.8 43.15 -12.3 44.85 -13.8 46.55 -13.8 48.95 -13.8 51.35 -12.3 53 -10.8 54.7 -8.75 54.7 -6.65 54.7 -5.15 53 -3.7 51.35 -3.7 48.95 Z"/>
</g>

<g id="Duplicate_Items_Folder___1_0_Layer0_0_MEMBER_27_MEMBER_3_MEMBER_1_FILL">
<path fill="#16224D" stroke="none" d="
M -9 54.7
L -7.05 54.7 -7.05 52.8 -9 52.8 -9 54.7
M -7.05 43.15
L -9 43.15 -9 50.85 -7.05 50.85 -7.05 43.15 Z"/>
</g>

<g id="Duplicate_Items_Folder___1_0_Layer0_0_MEMBER_27_MEMBER_3_MEMBER_2_FILL">
<path fill="#1C2B61" stroke="none" d="
M 110.75 52.2
Q 103.85 52.2 98.95 57.75 94.1 63.35 94.1 71.25 94.1 79.15 98.95 84.7 103.85 90.3 110.75 90.3 117.65 90.3 122.5 84.7 127.4 79.15 127.4 71.25 127.4 63.35 122.5 57.75 117.65 52.2 110.75 52.2 Z"/>
</g>

<g id="Duplicate_Items_Folder___1_0_Layer0_0_MEMBER_27_MEMBER_3_MEMBER_3_FILL">
<path fill="#7584B8" stroke="none" d="
M 110.75 52.2
Q 103.85 52.2 98.95 57.75 94.1 63.35 94.1 71.25 94.1 79.15 98.95 84.7 103.85 90.3 110.75 90.3 117.65 90.3 122.5 84.7 127.4 79.15 127.4 71.25 127.4 63.35 122.5 57.75 117.65 52.2 110.75 52.2 Z"/>
</g>

<g id="Duplicate_Items_Folder___1_0_Layer0_0_MEMBER_28_MEMBER_0_FILL">
<path fill="#D68649" stroke="none" d="
M 47.95 52.5
Q 47.55 51.9 46.95 51.7 46.25 51.45 45.3 51.55 44.2 51.65 43.45 52.25 42.9 52.75 42.65 53.7 42.3 54.85 42.4 56.4 42.5 57.7 42.75 58.2 43 58.7 43.9 58.85 44.4 58.95 44.9 58.95 45.3 58.9 45.7 58.75 46.5 58.5 47.45 56.35 48.25 54.45 48.3 53.65 48.35 53.1 47.95 52.5 Z"/>
</g>

<path id="Duplicate_Items_Folder___1_0_Layer1_0_1_STROKES" stroke="#FFFFFF" stroke-width="8" stroke-linejoin="round" stroke-linecap="butt" fill="none" d="
M -26.89991455078125 47.2698486328125
Q -22.672428131103516 52.11483306884766 -16.734947204589844 52.11483306884766 -13.8988723307848 52.11483306884766 -11.462464141845704 51.022336578369135 -10.304655361175538 52.03300715982914 -8.849972534179688 52.11483306884766
L -6.997478485107422 52.11483306884766 -6.997478485107422 52.091083145141596
Q -6.833084481954574 52.11483306884766 -6.664979553222656 52.11483306884766 -4.669985961914062 52.11483306884766 -3.244990539550781 50.499838256835936 -1.8674949645996093 48.932343292236325 -1.8674949645996093 46.65235061645508 -1.8674949645996093 44.37235794067382 -3.244990539550781 42.75736312866211 -3.4091989964246747 42.57107466459274 -3.577489471435547 42.401114273071286 -2.6074535250663753 39.862655630707735 -2.4612430572509765 36.91488189697266
L 6.373728561401368 36.91488189697266
Q 6.673942440748215 42.983544042706484 10.482465362548828 47.31734848022461 14.709951782226563 52.11483306884766 20.647432708740233 52.11483306884766 26.632413482666017 52.11483306884766 30.859899902343745 47.31734848022461 34.94488677978516 42.614863586425784 34.94488677978516 35.86988525390625 34.94488677978516 29.267406463623043 30.859899902343745 24.564921569824218 28.062418654561043 21.358867415785788 24.494920349121095 20.266185379028318
L 24.494920349121095 -9.254969787597656
Q 24.494920349121095 -12.008291020989418 21.834928894042967 -12.104960632324218 21.74159911572933 -12.104960632324218 21.644929504394533 -12.104960632324218
L 16.039947509765625 -12.104960632324218 16.039947509765625 -14.907451629638672 19.41243667602539 -14.907451629638672
Q 19.50743637084961 -14.907451629638672 19.554936218261716 -14.907451629638672 21.692429351806638 -15.00245132446289 21.692429351806638 -17.187444305419923
L 21.692429351806638 -26.117415618896484
Q 21.692429351806638 -28.349908447265626 19.554936218261716 -28.397408294677735 19.4599365234375 -28.397408294677735 19.41243667602539 -28.397408294677735
L 14.662451934814452 -28.397408294677735
Q 14.663565212488175 -28.475708824396133 14.614952087402342 -28.539907836914065 14.570606526732444 -28.608374413847923 14.496202468872069 -28.634907531738282 13.81988628208637 -28.850697854161265 13.308706283569334 -29.703654098510743
L 13.308706283569334 -29.679904174804687
Q 13.261206436157225 -29.774903869628908 13.213706588745117 -29.86990356445313 13.128540846705436 -30.07010799944401 13.071207046508787 -30.24990234375 14.632764530181884 -30.162324500083923 15.20870018005371 -31.437398529052736
L 15.20870018005371 -31.413648605346683
Q 15.57274197936058 -32.09998429119587 15.517449188232419 -32.83864402770996 15.510398429632186 -32.923253130912784 15.446199417114256 -32.98114356994629 15.387566792964932 -33.04571367502213 15.30369987487793 -33.05239334106446 13.710413977503775 -33.14164110124111 12.809957885742188 -34.04989013671875
L 12.786207962036132 -34.07364006042481
Q 12.657438844442366 -34.24842465519905 12.52495880126953 -34.382389068603516
L 12.501208877563476 -34.40613899230957
Q 12.481726518273353 -34.42988891601563 12.453709030151368 -34.45363883972168
L 12.287459564208984 -35.14238662719727
Q 11.194963073730468 -38.60987548828125 9.484968566894532 -40.08237075805664 8.487471771240234 -40.889868164062506 7.1574760437011715 -41.269866943359375
L 6.207479095458984 -41.43611640930176 6.2549789428710945 -42.10111427307129
Q 6.258875414729118 -42.136924704909326 6.2549789428710945 -42.17236404418945 6.01970626115799 -43.62686132490635 4.0224861145019535 -45.069854736328125 3.9469687789678574 -45.12162214815616 3.8562366485595705 -45.11735458374024 3.7738541007041935 -45.108262816071516 3.713737106323242 -45.046104812622076 3.6523212879896163 -44.988028827309606 3.642487335205079 -44.90360527038574 3.63784867823124 -44.82604692578316 3.689987182617188 -44.76110572814942 3.7129949212074287 -44.72418201863766 3.737487030029297 -44.689855957031256 4.131216233968734 -44.02838347256184 4.188735580444336 -43.47860984802246 2.40934676527977 -44.789123216271406 -0.5849990844726562 -45.30735397338867 -5.524983215332031 -46.11485137939454 -11.177465057373047 -44.357357025146484 -12.344180059432984 -43.99684060513974 -13.386207962036133 -43.621109390258795 -13.596246349811555 -43.64819914698601 -13.789956665039062 -43.692359161376956 -15.785877987742426 -44.04638146162033 -16.877446746826173 -45.711102676391604 -16.91121616959572 -45.77474505007267 -16.97244644165039 -45.80610237121582 -17.041655203700067 -45.839129608869555 -17.11494598388672 -45.82985229492188 -17.183783653378487 -45.81315312981606 -17.233695602416994 -45.75860252380372 -17.737453749775888 -45.257070931792256 -18.088692855834964 -44.45235671997071 -18.693017086386682 -43.0522244989872 -18.302442169189455 -41.554866027832034 -18.295205864310265 -41.527590724825856 -18.2786922454834 -41.50736618041992 -18.344932267069815 -41.46877255439759 -18.397441864013672 -41.43611640930176
L -18.824940490722657 -41.412366485595705
Q -19.919106897711757 -41.45856750905514 -21.104933166503905 -42.00611457824707 -21.185831344127656 -42.047491398453715 -21.27118263244629 -42.02986450195313 -21.347256606817247 -42.00648567080498 -21.389932250976564 -41.9348648071289 -21.442256301641464 -41.85916192531586 -21.437432098388673 -41.768615341186525 -21.381582668423654 -41.1982460796833 -21.009933471679688 -40.628619003295896
L -21.033683395385744 -40.628619003295896
Q -20.834406691789628 -40.28851267397404 -20.534934997558594 -39.98737106323242 -22.623815006017686 -38.283870676159864 -22.957427215576175 -36.28238296508789 -23.242426300048827 -34.42988891601563 -21.76993103027344 -31.769897460937504
L -20.20243606567383 -29.44240493774414 -21.199932861328126 -23.504924011230468
Q -22.007430267333987 -18.564939880371096 -19.63243789672852 -16.142447662353515 -17.922443389892578 -14.432453155517578 -15.927449798583984 -13.719955444335938 -14.929953002929688 -13.339956665039061 -13.837456512451173 -13.149957275390625 -12.982459259033204 -13.007457733154297 -11.984962463378908 -12.912458038330078 -11.462464141845704 -12.864958190917967 -10.9399658203125 -12.817458343505859 -9.343711182475092 -12.817458343505859 -7.662476348876953 -13.078707504272462 -7.740405786037445 -13.052731025218964 -7.804975891113282 -13.007457733154297 -9.75209854245186 -12.592576253414155 -11.842462921142578 -11.772461700439454
L -11.984962463378908 -11.724961853027343
Q -12.381103768944742 -11.567804154753684 -12.792459869384766 -11.392462921142577 -12.798768442869187 -11.34978727698326 -12.816209793090822 -11.29746322631836 -15.136651557683946 -10.095123338699342 -18.872440338134766 -7.972473907470704
L -21.437432098388673 -10.964964294433592 -24.192423248291014 -14.147454071044923 -24.881171035766602 -13.553705978393555
Q -24.981180480122568 -14.044290339946746 -25.237419891357423 -14.479953002929687 -25.664918518066408 -15.382450103759767 -25.664918518066408 -15.619949340820314 -25.56991882324219 -16.284947204589844 -25.237419891357423 -17.139944458007815 -24.904920959472655 -17.757442474365238 -25.047420501708984 -17.994941711425785 -25.332419586181643 -18.32744064331055 -25.997417449951172 -18.13744125366211 -26.757415008544925 -17.804942321777343 -26.99491424560547 -16.52244644165039 -27.047052749991416 -16.33151932060719 -27.08991394042969 -16.16619758605957 -27.793690976500514 -16.5907274723053 -28.087410736083985 -16.854945373535156 -28.847408294677734 -17.42494354248047 -29.464906311035158 -18.46994018554688 -30.03490447998047 -19.18243789672852 -30.652402496337892 -19.514936828613283 -30.937401580810548 -19.657436370849613 -31.174900817871094 -19.419937133789066 -31.364900207519536 -19.229937744140624 -31.459899902343746 -19.0874382019043
L -31.887398529052735 -19.324937438964845
Q -32.31489715576172 -19.419937133789066 -32.64739608764648 -18.992438507080077 -32.826448246836655 -18.8133863478899 -32.932395172119136 -18.588689804077152
L -32.95614509582519 -18.564939880371096
Q -33.273614779114716 -18.608172163367275 -33.64489288330078 -18.422440338134766 -34.00559484958648 -18.181972360610963 -34.16739120483398 -17.567443084716796
L -34.214891052246095 -17.567443084716796
Q -34.31341612637043 -17.566144260764123 -34.381140518188474 -17.496193313598635 -34.45201919674873 -17.42605682015419 -34.45239028930664 -17.32994384765625
L -34.45239028930664 -17.306193923950197
Q -34.65129590034484 -17.199690359830857 -34.83238906860351 -16.80744552612305 -35.06988830566406 -16.379946899414062 -34.737389373779294 -15.477449798583983 -34.45239028930664 -14.574952697753906 -33.64489288330078 -13.577455902099608 -31.29327934384346 -10.637846204638482 -29.251156997680667 -9.753718185424805
L -29.93990478515625 -9.159970092773438 -26.80491485595703 -5.597481536865234 -22.767427825927733 -0.8474967956542969 -22.672428131103516 -0.752497100830078
Q -21.817430877685545 0.24499969482421874 -20.534934997558594 0.48249893188476556 -19.252439117431642 0.7199981689453125 -18.064942932128908 0.19749984741210938
L -14.098705673217774 -1.8687435150146485
Q -14.464788481593134 1.1120574563741683 -14.763703536987306 3.8787380218505856 -14.878000044822693 3.856286922097206 -15.001202774047853 3.8549880981445312
L -23.527425384521486 3.8312381744384765
Q -23.684211990237237 3.2751559764146805 -24.121173477172853 2.83374137878418 -24.82031185626984 2.1414682120084763 -25.807418060302737 2.144993591308594
L -27.23241348266602 2.144993591308594 -27.23241348266602 0.5774986267089843
Q -27.232784575223924 0.5296276867389679 -27.23241348266602 0.48249893188476556 -26.969865497946742 0.3680168777704239 -26.757415008544925 0.10250015258789061 -26.329916381835936 -0.2774986267089844 -26.329916381835936 -0.8474967956542969 -26.329916381835936 -1.4174949645996093 -26.757415008544925 -1.844993591308594 -27.137413787841798 -2.224992370605469 -27.707411956787112 -2.224992370605469 -28.277410125732423 -2.224992370605469 -28.752408599853517 -1.844993591308594 -29.132407379150393 -1.4174949645996093 -29.132407379150393 -0.8474967956542969 -29.132407379150393 -0.2774986267089844 -28.752408599853517 0.10250015258789061 -28.479098930954933 0.3758098214864731 -28.182410430908206 0.48249893188476556 -28.182039338350297 0.5331530660390854 -28.182410430908206 0.5774986267089843
L -28.182410430908206 2.144993591308594 -29.93990478515625 2.144993591308594
Q -30.927196535468102 2.1414682120084763 -31.626149368286136 2.83374137878418 -32.05401908755302 3.265878662467003 -32.2198974609375 3.8074882507324217 -33.348575475811955 3.829011619091034 -34.16739120483398 4.638735580444336 -35.0118123203516 5.46367433667183 -35.022388458251946 6.63372917175293 -35.02591383755207 7.8104636728763595 -34.19114112854003 8.652472686767577 -33.36731564998626 9.495966070890427 -32.19614753723145 9.507469940185548
L -15.309951782226564 9.554969787597656
Q -15.361162555217744 10.142594853043557 -15.404951477050782 10.718716049194336
L -19.513688278198245 10.7899658203125
Q -19.56638342142105 10.324986845254898 -19.91743698120117 9.982468414306641 -20.329720813035966 9.559979537129403 -20.91493377685547 9.554969787597656
L -26.28241653442383 9.554969787597656
Q -26.73811819553375 9.55459869503975 -27.113663864135745 9.81621894836426 -27.484199783205987 10.079509118199349 -27.636162185668944 10.504966735839844
L -36.89863243103027 36.439883422851565
Q -36.98064388632774 36.67923812270165 -36.96988220214843 36.91488189697266
L -37.06488189697266 36.91488189697266
Q -38.25237808227539 36.91488189697266 -39.05987548828124 37.76987915039062 -39.91487274169922 38.57737655639649 -39.91487274169922 39.76487274169922 -39.91487274169922 39.85987243652343 -39.91487274169922 39.907372283935544 -39.88574197590351 40.5786787211895 -39.5586238861084 41.14236831665039
L -41.05486907958984 41.14236831665039
Q -41.17250542044639 41.14236831665039 -41.29236831665039 41.14236831665039 -43.239862060546876 41.14236831665039 -44.66485748291016 42.75736312866211 -46.08985290527344 44.37235794067382 -46.08985290527344 46.65235061645508 -46.08985290527344 48.932343292236325 -44.66485748291016 50.499838256835936 -43.239862060546876 52.11483306884766 -41.29236831665039 52.11483306884766 -41.17269096672535 52.11483306884766 -41.05486907958984 52.11483306884766
L -39.20237503051758 52.11483306884766
Q -37.29885575473308 52.056942629814145 -35.92488555908203 50.499838256835936 -34.54738998413085 48.932343292236325 -34.54738998413085 46.65235061645508 -34.54738998413085 44.37235794067382 -35.92488555908203 42.75736312866211 -35.98908457159995 42.684443441033366 -36.0436351776123 42.614863586425784
L -29.797405242919922 42.614863586425784
Q -28.766324570775033 45.145900377631186 -26.89991455078125 47.2698486328125 Z
M 13.047457122802735 -12.104960632324218
L 13.047457122802735 -14.907451629638672 7.917473602294922 -14.907451629638672 7.917473602294922 -12.104960632324218 13.047457122802735 -12.104960632324218 Z
M 1.599993896484375 -14.907451629638672
Q 1.2376220136880876 -14.907451629638672 0.9349960327148437 -14.95495147705078
L 1.1724952697753905 -13.339956665039061 1.1249954223632812 -13.814955139160155
Q 1.5665955662727356 -14.06432933807373 3.119989013671875 -13.054957580566406
L 3.119989013671875 -13.031207656860351
Q 4.017847457528115 -12.845661377906799 4.924983215332031 -12.603709030151368
L 4.924983215332031 -14.907451629638672 1.599993896484375 -14.907451629638672 Z
M -31.174900817871094 35.822385406494135
Q -31.133338451385494 35.21397915780544 -31.008651351928716 34.70613899230957 -30.70379881560802 29.52568688392639 -27.731161880493165 25.53866844177246
L -28.37240982055664 25.324919128417967
Q -27.137413787841798 22.094929504394532 -25.759918212890625 18.81744003295898 -23.758801594376564 13.850180599093438 -22.957427215576175 12.404960632324219
L -25.261169815063475 12.404960632324219 -34.02489166259765 36.91488189697266 -31.008651351928716 36.91488189697266
Q -31.030545812845233 36.44507871866226 -31.03240127563477 35.96488494873047 -31.132410719990727 35.884357863664626 -31.174900817871094 35.822385406494135 Z"/>

<path id="Duplicate_Items_Folder___1_0_Layer0_0_MEMBER_0_1_STROKES" stroke="#BFC7EA" stroke-width="3" stroke-linejoin="round" stroke-linecap="round" fill="none" d="
M -38.504214477539065 45.56371917724609
L -26.06025390625 10.749127197265626 -10.8615234375 10.749127197265626"/>

<path id="Duplicate_Items_Folder___1_0_Layer0_0_MEMBER_4_1_STROKES" stroke="#B4BEDE" stroke-width="1" stroke-linejoin="round" stroke-linecap="round" fill="none" d="
M -27.467889404296876 0.799920654296875
L -27.467889404296876 4.979571533203125"/>

<path id="Duplicate_Items_Folder___1_0_Layer0_0_MEMBER_6_1_STROKES" stroke="#5C71B1" stroke-width="5" stroke-linejoin="round" stroke-linecap="round" fill="none" d="
M -25.70819091796875 4.729571533203125
L -29.840345764160155 4.729571533203125"/>

<path id="Duplicate_Items_Folder___1_0_Layer0_0_MEMBER_13_1_STROKES" stroke="#FFD34D" stroke-width="6" stroke-linejoin="round" stroke-linecap="round" fill="none" d="
M -10.325154113769528 6.929412841796876
L -31.93584899902344 6.881916809082031"/>

<path id="Duplicate_Items_Folder___1_0_Layer0_0_MEMBER_14_MEMBER_2_1_STROKES" stroke="#BE6B2A" stroke-width="0.5" stroke-linejoin="round" stroke-linecap="round" fill="none" d="
M -33.47863998413086 -16.797590637207033
L -32.163980865478514 -15.375418090820318
Q -31.30144952535629 -14.382165169715876 -30.611766052246093 -13.827945709228516"/>

<path id="Duplicate_Items_Folder___1_0_Layer0_0_MEMBER_14_MEMBER_3_1_STROKES" stroke="#BE6B2A" stroke-width="0.5" stroke-linejoin="round" stroke-linecap="round" fill="none" d="
M -32.20030136108399 -17.932476806640626
Q -31.316714787483214 -16.267546552419663 -29.098164367675786 -14.5108039855957"/>

<path id="Duplicate_Items_Folder___1_0_Layer0_0_MEMBER_14_MEMBER_4_1_STROKES" stroke="#BE6B2A" stroke-width="0.5" stroke-linejoin="round" stroke-linecap="round" fill="none" d="
M -30.977488708496097 -18.34402084350586
Q -29.775088065862654 -16.701776698231697 -28.286666870117188 -15.455089569091797"/>

<path id="Duplicate_Items_Folder___1_0_Layer0_0_MEMBER_14_MEMBER_5_1_STROKES" stroke="#BE6B2A" stroke-width="0.5" stroke-linejoin="round" stroke-linecap="round" fill="none" d="
M -26.596514892578128 -15.259617614746091
Q -27.852184796333315 -13.824116116762156 -27.18049468994141 -12.351937866210932"/>

<path id="Duplicate_Items_Folder___1_0_Layer0_0_MEMBER_23_MEMBER_2_MEMBER_1_1_STROKES" stroke="#F40B0B" stroke-width="1" stroke-linejoin="round" stroke-linecap="round" fill="none" d="
M -13.977842712402342 -17.33982925415039
Q -12.838139343261718 -16.959928131103513 -11.555973052978514 -17.292341613769533 -10.27380676269531 -17.672242736816404 -9.466516876220702 -18.669483184814453"/>

<path id="Duplicate_Items_Folder___1_0_Layer0_0_MEMBER_23_MEMBER_2_MEMBER_6_1_STROKES" stroke="#BE6B2A" stroke-width="1" stroke-linejoin="round" stroke-linecap="round" fill="none" d="
M -13.123065185546873 -23.608197784423826
Q -14.120305633544922 -23.893123626708984 -14.832620239257812 -23.32327194213867 -15.449959564208983 -22.848395538330077 -15.449959564208983 -22.04110565185547 -15.449959564208983 -21.233815765380857 -14.92759552001953 -20.711451721191406 -14.405231475830076 -20.189087677001954 -13.550453948974608 -20.28406295776367"/>

<path id="Duplicate_Items_Folder___1_0_Layer0_0_MEMBER_23_MEMBER_3_1_STROKES" stroke="#362521" stroke-width="0.5" stroke-linejoin="round" stroke-linecap="butt" fill="none" d="
M 11.668038940429687 -35.851453399658205
Q 11.810515594482421 -35.186562347412114 12.332929992675782 -34.5691635131836 13.330266571044922 -33.23938140869141 15.277447509765622 -33.14439697265625 15.324939727783201 -32.479505920410155 14.992494201660158 -31.86210708618164 14.422587585449218 -30.579817199707026 12.712867736816404 -30.8647705078125 12.85534439086914 -30.437340545654294 13.092805480957031 -29.91492614746094 13.662712097167967 -28.965081787109376 14.422587585449218 -28.727620697021486 13.472743225097656 -27.635299682617188 12.047976684570312 -28.34768295288086 11.145624542236328 -28.77511291503906 11.33559341430664 -32.38452148437501 11.430577850341797 -34.14173355102539 11.668038940429687 -35.851453399658205 Z
M 5.921480560302735 -41.31305847167969
L 6.016464996337891 -42.45287170410156
Q 5.779003906250001 -43.83014602661133 3.8793151855468757 -45.2074203491211 4.971636199951172 -43.450208282470705 3.9742996215820314 -42.595348358154304
L 5.921480560302735 -41.31305847167969 Z
M -10.463334655761718 -44.02011489868165
L -12.932929992675783 -43.687669372558595
Q -15.687478637695312 -43.78265380859376 -17.064752960205077 -45.91980361938477 -17.539675140380858 -45.44488143920899 -17.872120666503907 -44.68500595092774 -18.53701171875 -43.16525497436523 -17.919612884521484 -41.55051956176758
L -18.774472808837892 -41.50302734375
Q -19.914286041259764 -41.55051956176758 -21.196575927734376 -42.12042617797852 -21.1490837097168 -41.59801177978516 -20.816638183593753 -41.0755973815918 -20.10425491333008 -39.935784149169926 -18.72698059082031 -39.74581527709962 -17.444690704345703 -39.5558464050293 -13.835282135009766 -41.78798065185547 -12.030577850341798 -42.88030166625977 -10.463334655761718 -44.02011489868165 Z
M -15.734970855712891 -39.840799713134764
Q -18.347042846679688 -35.75646896362305 -20.959114837646485 -32.716967010498045 -20.579177093505862 -32.43201370239258 -19.676824951171874 -32.57449035644532 -17.872120666503907 -32.85944366455079 -15.165064239501953 -35.04408569335938 -15.070079803466799 -33.856780242919925 -15.687478637695312 -32.81195144653321
L -13.692805480957032 -33.76179580688477
Q -11.555655670166017 -34.94910125732422 -10.890764617919922 -35.99393005371094 -10.225873565673828 -33.856780242919925 -8.516153717041016 -32.38452148437501
L -8.468661499023439 -33.33436584472657
Q -8.373677062988282 -34.47417907714844 -8.041231536865235 -35.13907012939453 -7.233863830566406 -33.71430358886719 -5.761605072021484 -32.19455261230469 -2.7695953369140622 -29.202542877197267 0.839813232421875 -28.870097351074218
L -4.764268493652343 -40.26822967529297 -15.734970855712891 -39.840799713134764 Z"/>

<path id="Duplicate_Items_Folder___1_0_Layer0_0_MEMBER_24_MEMBER_8_1_STROKES" stroke="#FD631C" stroke-width="1" stroke-linejoin="round" stroke-linecap="round" fill="none" d="
M -10.688412475585936 11.191940689086914
Q -11.505056005716325 11.475038832426073 -11.970702362060548 11.83308563232422 -12.493116760253907 12.213023376464843 -15.010204315185547 17.912089538574218 -15.722587585449219 19.574317169189452 -16.38747863769531 21.189052581787106 -17.052369689941404 22.61381912231445 -18.71459732055664 27.078087615966798
L -17.954721832275393 27.339294815063475"/>

<path id="Duplicate_Items_Folder___1_0_Layer0_0_MEMBER_27_MEMBER_0_1_STROKES" stroke="#FFD34D" stroke-width="6" stroke-linejoin="round" stroke-linecap="round" fill="none" d="
M 18.65019073486328 6.886371612548828
L -0.5366653442382816 6.981356048583984"/>

<path id="Duplicate_Items_Folder___1_0_Layer0_0_MEMBER_27_MEMBER_1_1_STROKES" stroke="#BFC7EA" stroke-width="3" stroke-linejoin="round" stroke-linecap="round" fill="none" d="
M -6.681200408935546 43.27293395996094
L 4.289501953125001 10.598287963867188 18.679644012451174 10.598287963867188 18.679644012451174 26.318212127685545"/>

<path id="Duplicate_Items_Folder___1_0_Layer0_0_MEMBER_28_MEMBER_1_1_STROKES" stroke="#BE6B2A" stroke-width="0.5" stroke-linejoin="round" stroke-linecap="round" fill="none" d="
M 1.2436527252197265 5.366620635986329
Q 1.4879779249429703 4.178016570210457 2.1697509765625003 3.086994171142578
M -0.6085437774658203 5.366620635986329
Q -0.45771888196468347 3.772477552294731 0.4125389099121094 2.612071990966797
M -2.3895019531250004 5.3191284179687495
Q -2.1342312812805178 3.1526670038700106 -1.297180938720703 1.9471809387207029"/>
</defs>

<g transform="matrix( 1, 0, 0, 0.999603271484375, 65,60) ">
<g transform="matrix( 1, 0, 0, 1, 0,0) ">
<use xlink:href="#icon_r_box_02_18_Layer3_0_FILL"/>
</g>

<g transform="matrix( 1, 0, 0, 1, -0.05,0.05) ">
<use xlink:href="#icon_r_box_02_18_Layer3_1_FILL"/>
</g>

<g transform="matrix( 1, 0, 0, 1, 0,-2.15) ">
<use xlink:href="#icon_r_box_02_18_Layer3_2_FILL"/>
</g>

<g transform="matrix( 1, 0, 0, 1, 0,0.05) ">
<use xlink:href="#icon_r_box_02_18_Layer3_3_FILL"/>
</g>

<g filter="url(#Filter_1)" transform="matrix( 0.9999847412109375, 0, 0, 1.000396728515625, -65,-60) ">
<g transform="matrix( 0.75, 0, 0, 0.74969482421875, 68.15,38.65) ">
<g transform="matrix( 0.9499969482421875, 0, 0, 0.9499969482421875, -0.3,0.15) ">
<use xlink:href="#Duplicate_Items_Folder___1_0_Layer1_0_FILL"/>

<use xlink:href="#Duplicate_Items_Folder___1_0_Layer1_0_1_STROKES" transform="matrix( 1.0526275634765625, 0, 0, 1.0526275634765625, 0.3,-0.15) "/>
</g>

<g transform="matrix( 0.9499969482421875, 0, 0, 0.9499969482421875, -0.3,0.15) ">
<use xlink:href="#Duplicate_Items_Folder___1_0_Layer0_0_FILL"/>
</g>

<g transform="matrix( 0.949920654296875, 0, 0, 0.949920654296875, -29.1,0.3) ">
<use xlink:href="#Duplicate_Items_Folder___1_0_Layer0_0_MEMBER_0_1_STROKES" transform="matrix( 1.0527191162109375, 0, 0, 1.0527191162109375, 30.6,-0.3) "/>
</g>

<g transform="matrix( 0.9498443603515625, 0, 0, 0.9498443603515625, -32.5,0.15) ">
<use xlink:href="#Duplicate_Items_Folder___1_0_Layer0_0_MEMBER_1_MEMBER_0_FILL"/>
</g>

<g transform="matrix( 0.9498443603515625, 0, 0, 0.9498443603515625, -0.4,0.15) ">
<use xlink:href="#Duplicate_Items_Folder___1_0_Layer0_0_MEMBER_1_MEMBER_1_FILL"/>
</g>

<g transform="matrix( 0.2877655029296875, 0, 0, 0.2877655029296875, -70.8,25.75) ">
<use xlink:href="#Duplicate_Items_Folder___1_0_Layer0_0_MEMBER_1_MEMBER_2_FILL"/>
</g>

<g transform="matrix( 0.9498443603515625, 0, 0, 0.9498443603515625, -0.3,0.15) ">
<use xlink:href="#Duplicate_Items_Folder___1_0_Layer0_0_MEMBER_1_MEMBER_3_FILL"/>
</g>

<g transform="matrix( 0.997406005859375, 0, 0, 0.997406005859375, -16.5,35.7) ">
<g transform="matrix( 0.9024658203125, 0, 0, 0.9024658203125, -19.05,-29.45) ">
<use filter="url(#Filter_2)" xlink:href="#Duplicate_Items_Folder_Symbol_8_0_Layer0_0_MEMBER_0_FILL"/>
</g>

<g transform="matrix( 1, 0, 0, 1, 0,0) ">
<use filter="url(#Filter_2)" xlink:href="#Duplicate_Items_Folder_Symbol_8_0_Layer0_0_MEMBER_1_FILL"/>
</g>

<g transform="matrix( 0.535797119140625, 0, 0, 0.535797119140625, -8.45,-17.45) ">
<use filter="url(#Filter_2)" xlink:href="#Duplicate_Items_Folder_Symbol_8_0_Layer0_0_MEMBER_2_FILL"/>
</g>
</g>

<g transform="matrix( 0.949920654296875, 0, 0, 0.949920654296875, -4.55,-1.6) ">
<use xlink:href="#Duplicate_Items_Folder___1_0_Layer0_0_MEMBER_3_FILL"/>
</g>

<g transform="matrix( 0.949920654296875, 0, 0, 0.949920654296875, -2.2,-0.15) ">
<use xlink:href="#Duplicate_Items_Folder___1_0_Layer0_0_MEMBER_4_1_STROKES" transform="matrix( 1.0527191162109375, 0, 0, 1.0527191162109375, 2.3,0.15) "/>
</g>

<g transform="matrix( 1.2642364501953125, 0, 0, 1.2642364501953125, 26.95,-3.15) ">
<use xlink:href="#Duplicate_Items_Folder___1_0_Layer0_0_MEMBER_5_FILL"/>
</g>

<g transform="matrix( 0.949920654296875, 0, 0, 0.949920654296875, -4.05,-0.4) ">
<use xlink:href="#Duplicate_Items_Folder___1_0_Layer0_0_MEMBER_6_1_STROKES" transform="matrix( 1.0527191162109375, 0, 0, 1.0527191162109375, 4.25,0.4) "/>
</g>

<g transform="matrix( 0.949920654296875, 0, 0, 0.949920654296875, -16.4,5.9) ">
<use xlink:href="#Duplicate_Items_Folder___1_0_Layer0_0_MEMBER_7_FILL"/>
</g>

<g transform="matrix( 0.949920654296875, 0, 0, 0.949920654296875, -0.3,5.9) ">
<use xlink:href="#Duplicate_Items_Folder___1_0_Layer0_0_MEMBER_8_FILL"/>
</g>

<g transform="matrix( 0.949920654296875, 0, 0, 0.949920654296875, -0.3,5.9) ">
<use xlink:href="#Duplicate_Items_Folder___1_0_Layer0_0_MEMBER_9_FILL"/>
</g>

<g transform="matrix( 0.949920654296875, 0, 0, 0.949920654296875, -0.3,5.9) ">
<use xlink:href="#Duplicate_Items_Folder___1_0_Layer0_0_MEMBER_10_FILL"/>
</g>

<g transform="matrix( 0.949920654296875, 0, 0, 0.949920654296875, -0.3,5.9) ">
<use xlink:href="#Duplicate_Items_Folder___1_0_Layer0_0_MEMBER_11_FILL"/>
</g>

<g transform="matrix( 0.949920654296875, 0, 0, 0.949920654296875, -0.3,2) ">
<use xlink:href="#Duplicate_Items_Folder___1_0_Layer0_0_MEMBER_12_FILL"/>
</g>

<g transform="matrix( 0.949920654296875, 0, 0, 0.949920654296875, -42.1,-0.1) ">
<use xlink:href="#Duplicate_Items_Folder___1_0_Layer0_0_MEMBER_13_1_STROKES" transform="matrix( 1.0527191162109375, 0, 0, 1.0527191162109375, 44.3,0.1) "/>
</g>

<g transform="matrix( 0.6150360107421875, 0.44586181640625, -0.44586181640625, 0.6150360107421875, -30.5,-50.6) ">
<use xlink:href="#Duplicate_Items_Folder___1_0_Layer0_0_MEMBER_14_MEMBER_0_FILL"/>
</g>

<g transform="matrix( 0.6150360107421875, 0.44586181640625, -0.44586181640625, 0.6150360107421875, -30.5,-50.6) ">
<use xlink:href="#Duplicate_Items_Folder___1_0_Layer0_0_MEMBER_14_MEMBER_1_FILL"/>
</g>

<g transform="matrix( 0.6150360107421875, 0.44586181640625, -0.44586181640625, 0.6150360107421875, -26.95,-48) ">
<use xlink:href="#Duplicate_Items_Folder___1_0_Layer0_0_MEMBER_14_MEMBER_2_1_STROKES" transform="matrix( 1.0657958984375, -0.7726287841796875, 0.7726287841796875, 1.0657958984375, 65.8,30.3) "/>
</g>

<g transform="matrix( 0.6150360107421875, 0.44586181640625, -0.44586181640625, 0.6150360107421875, -27.1,-48.2) ">
<use xlink:href="#Duplicate_Items_Folder___1_0_Layer0_0_MEMBER_14_MEMBER_3_1_STROKES" transform="matrix( 1.0657958984375, -0.7726287841796875, 0.7726287841796875, 1.0657958984375, 66.1,30.4) "/>
</g>

<g transform="matrix( 0.6150360107421875, 0.44586181640625, -0.44586181640625, 0.6150360107421875, -27.6,-48.5) ">
<use xlink:href="#Duplicate_Items_Folder___1_0_Layer0_0_MEMBER_14_MEMBER_4_1_STROKES" transform="matrix( 1.0657958984375, -0.7726287841796875, 0.7726287841796875, 1.0657958984375, 66.85,30.35) "/>
</g>

<g transform="matrix( 0.70941162109375, 0.271453857421875, -0.271453857421875, 0.70941162109375, -36.35,-47.05) ">
<use xlink:href="#Duplicate_Items_Folder___1_0_Layer0_0_MEMBER_14_MEMBER_5_1_STROKES" transform="matrix( 1.229583740234375, -0.470489501953125, 0.470489501953125, 1.229583740234375, 66.8,40.7) "/>
</g>

<g transform="matrix( 0.949920654296875, 0, 0, 0.949920654296875, 0.65,-0.2) ">
<use xlink:href="#Duplicate_Items_Folder___1_0_Layer0_0_MEMBER_15_FILL"/>
</g>

<g transform="matrix( 0.949920654296875, 0, 0, 0.949920654296875, -0.3,0.15) ">
<use xlink:href="#Duplicate_Items_Folder___1_0_Layer0_0_MEMBER_16_FILL"/>
</g>

<g transform="matrix( 0.949920654296875, 0, 0, 0.949920654296875, -0.3,0.15) ">
<use xlink:href="#Duplicate_Items_Folder___1_0_Layer0_0_MEMBER_17_FILL"/>
</g>

<g transform="matrix( 0.949920654296875, 0, 0, 0.949920654296875, -1.5,0.2) ">
<use xlink:href="#Duplicate_Items_Folder___1_0_Layer0_0_MEMBER_18_FILL"/>
</g>

<g transform="matrix( -0.245758056640625, -0.917510986328125, 0.917510986328125, -0.245758056640625, 7.95,3.9) ">
<use xlink:href="#Duplicate_Items_Folder___1_0_Layer0_0_MEMBER_19_FILL"/>
</g>

<g transform="matrix( 0.949920654296875, 0, 0, 0.949920654296875, -0.3,0.15) ">
<use xlink:href="#Duplicate_Items_Folder___1_0_Layer0_0_MEMBER_20_FILL"/>
</g>

<g transform="matrix( 0.949920654296875, 0, 0, 0.949920654296875, -0.3,1.05) ">
<use xlink:href="#Duplicate_Items_Folder___1_0_Layer0_0_MEMBER_21_FILL"/>
</g>

<g transform="matrix( 0.949920654296875, 0, 0, 0.949920654296875, -0.35,0) ">
<use xlink:href="#Duplicate_Items_Folder___1_0_Layer0_0_MEMBER_22_FILL"/>
</g>

<g transform="matrix( 0.9498443603515625, 0, 0, 0.9498443603515625, -0.3,1.05) ">
<use xlink:href="#Duplicate_Items_Folder___1_0_Layer0_0_MEMBER_23_MEMBER_0_FILL"/>
</g>

<g transform="matrix( 0.9498443603515625, 0, 0, 0.9498443603515625, -24.95,-46.1) ">
<use xlink:href="#Duplicate_Items_Folder___1_0_Layer0_0_MEMBER_23_MEMBER_1_FILL"/>
</g>

<g transform="matrix( 0.9497528076171875, 0, 0, 0.9497528076171875, 0,1.05) ">
<use xlink:href="#Duplicate_Items_Folder___1_0_Layer0_0_MEMBER_23_MEMBER_2_MEMBER_0_STROKES_1_FILL"/>
</g>

<g transform="matrix( 0.9497528076171875, 0, 0, 0.9497528076171875, -24.9,-45.5) ">
<use xlink:href="#Duplicate_Items_Folder___1_0_Layer0_0_MEMBER_23_MEMBER_2_MEMBER_1_1_STROKES" transform="matrix( 1.0529022216796875, 0, 0, 1.0529022216796875, 26.2,47.9) "/>
</g>

<g transform="matrix( 0.71221923828125, 0, 0, 0.71221923828125, -22.1,-41.1) ">
<use xlink:href="#Duplicate_Items_Folder___1_0_Layer0_0_MEMBER_23_MEMBER_2_MEMBER_2_FILL"/>
</g>

<g transform="matrix( 1.187164306640625, 0, 0, 1.0102081298828125, -29.65,-46.7) ">
<use xlink:href="#Duplicate_Items_Folder___1_0_Layer0_0_MEMBER_23_MEMBER_2_MEMBER_3_FILL"/>
</g>

<g transform="matrix( -0.9497528076171875, 0, 0, 0.9497528076171875, 17.95,-46.1) ">
<use xlink:href="#Duplicate_Items_Folder___1_0_Layer0_0_MEMBER_23_MEMBER_2_MEMBER_4_FILL"/>
</g>

<g transform="matrix( 0.9474334716796875, 0.0655059814453125, -0.0655059814453125, 0.9474334716796875, -23.1,-46.4) ">
<use xlink:href="#Duplicate_Items_Folder___1_0_Layer0_0_MEMBER_23_MEMBER_2_MEMBER_5_FILL"/>
</g>

<g transform="matrix( 0.9497528076171875, 0, 0, 0.9497528076171875, -24.9,-45.5) ">
<use xlink:href="#Duplicate_Items_Folder___1_0_Layer0_0_MEMBER_23_MEMBER_2_MEMBER_6_1_STROKES" transform="matrix( 1.0529022216796875, 0, 0, 1.0529022216796875, 26.2,47.9) "/>
</g>

<g transform="matrix( -0.9497528076171875, 0, 0, 0.9497528076171875, -25.85,1.05) ">
<use xlink:href="#Duplicate_Items_Folder___1_0_Layer0_0_MEMBER_23_MEMBER_2_MEMBER_7_STROKES_1_FILL"/>
</g>

<g transform="matrix( 0.9498443603515625, 0, 0, 0.9498443603515625, -0.3,1.05) ">
<use xlink:href="#Duplicate_Items_Folder___1_0_Layer0_0_MEMBER_23_MEMBER_3_FILL"/>

<use xlink:href="#Duplicate_Items_Folder___1_0_Layer0_0_MEMBER_23_MEMBER_3_1_STROKES" transform="matrix( 1.05279541015625, 0, 0, 1.05279541015625, 0.3,-1.1) "/>
</g>

<g transform="matrix( 0.9498443603515625, 0, 0, 0.9498443603515625, 1.3,3.25) ">
<use xlink:href="#Duplicate_Items_Folder___1_0_Layer0_0_MEMBER_24_MEMBER_0_FILL"/>
</g>

<g transform="matrix( 0.9498443603515625, 0, 0, 0.9498443603515625, 3.5,3.25) ">
<use xlink:href="#Duplicate_Items_Folder___1_0_Layer0_0_MEMBER_24_MEMBER_1_FILL"/>
</g>

<g transform="matrix( 0.9498443603515625, 0, 0, 0.9498443603515625, 1.3,3.25) ">
<use xlink:href="#Duplicate_Items_Folder___1_0_Layer0_0_MEMBER_24_MEMBER_2_FILL"/>
</g>

<g transform="matrix( 0.9498443603515625, 0, 0, 0.9498443603515625, 10.65,3.4) ">
<use xlink:href="#Duplicate_Items_Folder___1_0_Layer0_0_MEMBER_24_MEMBER_3_FILL"/>
</g>

<g transform="matrix( 0.9174041748046875, 0.24566650390625, -0.24566650390625, 0.9174041748046875, 21.1,14.65) ">
<use xlink:href="#Duplicate_Items_Folder___1_0_Layer0_0_MEMBER_24_MEMBER_4_FILL"/>
</g>

<g transform="matrix( 0.9498443603515625, 0, 0, 0.9498443603515625, 1.3,3.25) ">
<use xlink:href="#Duplicate_Items_Folder___1_0_Layer0_0_MEMBER_24_MEMBER_5_FILL"/>
</g>

<g transform="matrix( 0.9498443603515625, 0, 0, 0.9498443603515625, 1.4,0.15) ">
<use xlink:href="#Duplicate_Items_Folder___1_0_Layer0_0_MEMBER_24_MEMBER_6_FILL"/>
</g>

<g transform="matrix( 0.9498443603515625, 0, 0, 0.9498443603515625, -1,0.15) ">
<use xlink:href="#Duplicate_Items_Folder___1_0_Layer0_0_MEMBER_24_MEMBER_7_FILL"/>
</g>

<g transform="matrix( 0.9498443603515625, 0, 0, 0.9498443603515625, -1,0.15) ">
<use xlink:href="#Duplicate_Items_Folder___1_0_Layer0_0_MEMBER_24_MEMBER_8_1_STROKES" transform="matrix( 1.05279541015625, 0, 0, 1.05279541015625, 1.05,-0.15) "/>
</g>

<g transform="matrix( 0.8405914306640625, 0, 0, 0.7660369873046875, 0,2.2) ">
<use xlink:href="#Duplicate_Items_Folder___1_0_Layer0_0_MEMBER_25_FILL"/>
</g>

<g transform="matrix( 0.9498443603515625, 0, 0, 0.9498443603515625, -0.3,0.1) ">
<use xlink:href="#Duplicate_Items_Folder___1_0_Layer0_0_MEMBER_26_MEMBER_0_FILL"/>
</g>

<g transform="matrix( 0.9498443603515625, 0, 0, 0.9498443603515625, -0.3,0.1) ">
<use xlink:href="#Duplicate_Items_Folder___1_0_Layer0_0_MEMBER_26_MEMBER_1_FILL"/>
</g>

<g transform="matrix( 0.9498443603515625, 0, 0, 0.9498443603515625, -10.7,0) ">
<use xlink:href="#Duplicate_Items_Folder___1_0_Layer0_0_MEMBER_27_MEMBER_0_1_STROKES" transform="matrix( 1.05279541015625, 0, 0, 1.05279541015625, 11.25,0) "/>
</g>

<g transform="matrix( 0.9498443603515625, 0, 0, 0.9498443603515625, 1.25,0.15) ">
<use xlink:href="#Duplicate_Items_Folder___1_0_Layer0_0_MEMBER_27_MEMBER_1_1_STROKES" transform="matrix( 1.05279541015625, 0, 0, 1.05279541015625, -1.3,-0.15) "/>
</g>

<g transform="matrix( 0.9972381591796875, 0, 0, 0.9972381591796875, -0.3,-0.3) ">
<use xlink:href="#Duplicate_Items_Folder___1_0_Layer0_0_MEMBER_27_MEMBER_2_MEMBER_0_FILL"/>
</g>

<g transform="matrix( 0.65960693359375, 0, 0, 0.65960693359375, 8.3,14.35) ">
<use xlink:href="#Duplicate_Items_Folder___1_0_Layer0_0_MEMBER_27_MEMBER_2_MEMBER_1_FILL"/>
</g>

<g transform="matrix( 0.5341796875, 0, 0, 0.5341796875, 11.5,18.15) ">
<use xlink:href="#Duplicate_Items_Folder___1_0_Layer0_0_MEMBER_27_MEMBER_2_MEMBER_2_FILL"/>
</g>

<g transform="matrix( 0.2135162353515625, 0, 0, 0.2135162353515625, 18.2,28.55) ">
<use xlink:href="#Duplicate_Items_Folder___1_0_Layer0_0_MEMBER_27_MEMBER_2_MEMBER_3_FILL"/>
</g>

<g transform="matrix( 0.9497528076171875, 0, 0, 0.9497528076171875, -32.5,0.15) ">
<use xlink:href="#Duplicate_Items_Folder___1_0_Layer0_0_MEMBER_27_MEMBER_2_MEMBER_4_FILL"/>
</g>

<g transform="matrix( 0.9497528076171875, 0, 0, 0.9497528076171875, -0.3,0.15) ">
<use xlink:href="#Duplicate_Items_Folder___1_0_Layer0_0_MEMBER_27_MEMBER_3_MEMBER_0_FILL"/>
</g>

<g transform="matrix( 0.9497528076171875, 0, 0, 0.9497528076171875, -0.3,0.15) ">
<use xlink:href="#Duplicate_Items_Folder___1_0_Layer0_0_MEMBER_27_MEMBER_3_MEMBER_1_FILL"/>
</g>

<g transform="matrix( 0.2877349853515625, 0, 0, 0.2877349853515625, -38.2,25.7) ">
<use xlink:href="#Duplicate_Items_Folder___1_0_Layer0_0_MEMBER_27_MEMBER_3_MEMBER_2_FILL"/>
</g>

<g transform="matrix( 0.1629791259765625, 0, 0, 0.1629791259765625, -24,34.4) ">
<use xlink:href="#Duplicate_Items_Folder___1_0_Layer0_0_MEMBER_27_MEMBER_3_MEMBER_3_FILL"/>
</g>

<g transform="matrix( -0.28131103515625, 1.0501861572265625, 1.0501861572265625, 0.28131103515625, -43.8,-59.6) ">
<use xlink:href="#Duplicate_Items_Folder___1_0_Layer0_0_MEMBER_28_MEMBER_0_FILL"/>
</g>

<g transform="matrix( 0.9498443603515625, 0, 0, 0.9498443603515625, 0.65,0) ">
<use xlink:href="#Duplicate_Items_Folder___1_0_Layer0_0_MEMBER_28_MEMBER_1_1_STROKES" transform="matrix( 1.05279541015625, 0, 0, 1.05279541015625, -0.65,0) "/>
</g>
</g>
</g>
</g>
</svg>
