
<svg xmlns="http://www.w3.org/2000/svg" version="1.1" xmlns:xlink="http://www.w3.org/1999/xlink" preserveAspectRatio="none" x="0px" y="0px" width="130px" height="115px" viewBox="0 0 130 115">
<defs>
<g id="icon_r_box_02_26_Layer3_0_FILL">
<path fill="#FFFFFF" fill-opacity="0" stroke="none" d="
M 65 -55
L -65 -55 -65 25 65 25 65 -55 Z"/>
</g>

<g id="icon_r_box_02_26_Layer3_1_FILL">
<path fill="#FFFFFF" fill-opacity="0" stroke="none" d="
M 65.05 49.95
L 65.05 24.95 -64.95 24.95 -64.95 49.95 65.05 49.95 Z"/>
</g>

<g id="icon_r_box_02_26_Layer3_2_FILL">
<path fill="#FFFFFF" fill-opacity="0" stroke="none" d="
M 65 -52.85
L 65 -57.85 -65 -57.85 -65 -52.85 65 -52.85 Z"/>
</g>

<g id="icon_r_box_02_26_Layer3_3_FILL">
<path fill="#FFFFFF" fill-opacity="0" stroke="none" d="
M 65 54.95
L 65 49.95 -65 49.95 -65 54.95 65 54.95 Z"/>
</g>

<g id="icon_r_box_02_26_Layer2_0_MEMBER_0_MEMBER_0_FILL">
<path fill="#FFFFFF" stroke="none" d="
M 43.4 28.05
Q 44.1 27.9 43.9 27.15
L 43.75 26.45
Q 43.55 25.7 42.85 25.9
L 37.95 27.15
Q 37.2 27.35 37.4 28.05
L 37.6 28.8
Q 37.75 29.5 38.5 29.3
L 43.4 28.05 Z"/>
</g>

<g id="icon_r_box_02_26_Layer2_0_MEMBER_0_MEMBER_1_FILL">
<path fill="#FFFFFF" stroke="none" d="
M 38.05 7
Q 38.75 6.8 38.55 6.1
L 38.35 5.35
Q 38.2 4.65 37.5 4.85
L 32.55 6.1
Q 31.85 6.25 32.05 7
L 32.2 7.7
Q 32.4 8.45 33.1 8.25
L 38.05 7 Z"/>
</g>

<g id="icon_r_box_02_26_Layer2_0_MEMBER_0_MEMBER_2_FILL">
<path fill="#FFFFFF" stroke="none" d="
M 32.2 3.8
Q 32.95 3.6 32.75 2.9
L 32.55 2.15
Q 32.35 1.4 31.65 1.6
L 26.75 2.85
Q 26 3.05 26.2 3.75
L 26.4 4.5
Q 26.6 5.25 27.3 5.05
L 32.2 3.8 Z"/>
</g>

<g id="icon_r_box_02_26_Layer2_0_MEMBER_0_MEMBER_3_FILL">
<path fill="#FFFFFF" stroke="none" d="
M 40.7 32.4
L 40.55 31.7
Q 40.35 30.95 39.65 31.15
L 34.7 32.4
Q 34 32.6 34.2 33.3
L 34.4 34.05
Q 34.55 34.75 35.25 34.55
L 40.2 33.3
Q 40.9 33.15 40.7 32.4 Z"/>
</g>

<g id="icon_r_box_02_26_Layer2_0_MEMBER_0_MEMBER_4_MEMBER_0_MEMBER_0_FILL">
<path fill="#E7E4E5" stroke="none" d="
M 25.5 0.5
L 17.45 2.1 33.85 17.15 47.9 12.3 25.5 0.5 Z"/>
</g>

<g id="icon_r_box_02_26_Layer2_0_MEMBER_0_MEMBER_4_MEMBER_2_MEMBER_0_FILL">
<path fill="#FFFFFF" stroke="none" d="
M 58.35 19.15
Q 62.95 17.8 64.75 16 66.35 14.35 65.8 12.25 65.35 10.55 63.2 9.95
L 61.2 9.7
Q 60.35 8.35 58.75 7.2 55.5 4.95 51.7 6.05
L 2.35 20.55 4.35 27.45 17.5 29.25
Q 49.35 21.75 58.35 19.15 Z"/>
</g>

<g id="icon_r_box_02_26_Layer2_0_MEMBER_0_MEMBER_4_MEMBER_2_MEMBER_1_FILL">
<path fill="#FF9B00" stroke="none" d="
M 64.75 16
Q 66.35 14.35 65.8 12.25 51.3 17.15 16.85 25.05
L 3.45 24.45 4.35 27.45 17.5 29.25
Q 49.35 21.75 58.35 19.15 62.95 17.8 64.75 16 Z"/>
</g>

<g id="icon_r_box_02_26_Layer2_0_MEMBER_0_MEMBER_4_MEMBER_2_MEMBER_2_FILL">
<path fill="#FFFFFF" stroke="none" d="
M 11 18
L 4.85 13.1 0.5 14.35 2.35 20.55 11 18 Z"/>
</g>

<g id="icon_r_box_02_26_Layer2_0_MEMBER_0_MEMBER_4_MEMBER_2_MEMBER_3_FILL">
<path fill="#58595E" stroke="none" d="
M 7.2 15
L 4.85 13.1 0.5 14.35 1.2 16.75 7.2 15 Z"/>
</g>

<g id="icon_r_box_02_26_Layer2_0_MEMBER_0_MEMBER_7_MEMBER_0_FILL">
<path fill="#FFFFFF" stroke="none" d="
M 27.5 40
L 34.95 37.6 47.45 15.6 33 19.15 27.5 40 Z"/>
</g>

<g id="icon_r_box_02_26_Layer2_0_MEMBER_0_MEMBER_8_FILL">
<path fill="#FFFFFF" stroke="none" d="
M 9.85 30.7
L 11 22.1 5.25 23.9 6.85 31.45 9.85 30.7 Z"/>
</g>

<path id="icon_r_box_02_26_Layer2_0_MEMBER_0_MEMBER_0_1_STROKES" stroke="#000000" stroke-width="1" stroke-linejoin="round" stroke-linecap="round" fill="none" d="
M 43.4 28.05
L 38.5 29.3
Q 37.75 29.5 37.6 28.8
L 37.4 28.05
Q 37.2 27.35 37.95 27.15
L 42.85 25.9
Q 43.55 25.7 43.75 26.45
L 43.9 27.15
Q 44.1 27.9 43.4 28.05 Z"/>

<path id="icon_r_box_02_26_Layer2_0_MEMBER_0_MEMBER_1_1_STROKES" stroke="#000000" stroke-width="1" stroke-linejoin="round" stroke-linecap="round" fill="none" d="
M 38.05 7
L 33.1 8.25
Q 32.4 8.45 32.2 7.7
L 32.05 7
Q 31.85 6.25 32.55 6.1
L 37.5 4.85
Q 38.2 4.65 38.35 5.35
L 38.55 6.1
Q 38.75 6.8 38.05 7 Z"/>

<path id="icon_r_box_02_26_Layer2_0_MEMBER_0_MEMBER_2_1_STROKES" stroke="#000000" stroke-width="1" stroke-linejoin="round" stroke-linecap="round" fill="none" d="
M 32.2 3.8
L 27.3 5.05
Q 26.6 5.25 26.4 4.5
L 26.2 3.75
Q 26 3.05 26.75 2.85
L 31.65 1.6
Q 32.35 1.4 32.55 2.15
L 32.75 2.9
Q 32.95 3.6 32.2 3.8 Z"/>

<path id="icon_r_box_02_26_Layer2_0_MEMBER_0_MEMBER_3_1_STROKES" stroke="#000000" stroke-width="1" stroke-linejoin="round" stroke-linecap="round" fill="none" d="
M 40.2 33.3
L 35.25 34.55
Q 34.55 34.75 34.4 34.05
L 34.2 33.3
Q 34 32.6 34.7 32.4
L 39.65 31.15
Q 40.35 30.95 40.55 31.7
L 40.7 32.4
Q 40.9 33.15 40.2 33.3 Z"/>

<path id="icon_r_box_02_26_Layer2_0_MEMBER_0_MEMBER_4_MEMBER_0_MEMBER_1_1_STROKES" stroke="#000000" stroke-width="1" stroke-linejoin="round" stroke-linecap="round" fill="none" d="
M 33.85 17.15
L 17.45 2.1 25.5 0.5 47.9 12.3"/>

<path id="icon_r_box_02_26_Layer2_0_MEMBER_0_MEMBER_4_MEMBER_1_1_STROKES" stroke="#D5D1D2" stroke-width="1" stroke-linejoin="round" stroke-linecap="round" fill="none" d="
M 22.4 3.65
L 33.5 12.75"/>

<path id="icon_r_box_02_26_Layer2_0_MEMBER_0_MEMBER_4_MEMBER_2_MEMBER_0_1_STROKES" stroke="#000000" stroke-width="1" stroke-linejoin="round" stroke-linecap="round" fill="none" d="
M 2.35 20.55
L 51.7 6.05
Q 55.5 4.95 58.75 7.2 60.35 8.35 61.2 9.7
L 63.2 9.95
Q 65.35 10.55 65.8 12.25 66.35 14.35 64.75 16 62.95 17.8 58.35 19.15 49.35 21.75 17.5 29.25
L 4.35 27.45 2.35 20.55 Z"/>

<path id="icon_r_box_02_26_Layer2_0_MEMBER_0_MEMBER_4_MEMBER_2_MEMBER_2_1_STROKES" stroke="#000000" stroke-width="1" stroke-linejoin="round" stroke-linecap="round" fill="none" d="
M 11 18
L 2.35 20.55 0.5 14.35 4.85 13.1 11 18 Z"/>

<path id="icon_r_box_02_26_Layer2_0_MEMBER_0_MEMBER_4_MEMBER_2_MEMBER_3_1_STROKES" stroke="#000000" stroke-width="1" stroke-linejoin="round" stroke-linecap="round" fill="none" d="
M 7.2 15
L 1.2 16.75 0.5 14.35 4.85 13.1 7.2 15 Z"/>

<path id="icon_r_box_02_26_Layer2_0_MEMBER_0_MEMBER_4_MEMBER_2_MEMBER_4_MEMBER_0_1_STROKES" stroke="#000000" stroke-width="1" stroke-linejoin="round" stroke-linecap="round" fill="none" d="
M 59.8 8.05
L 54.15 9.7"/>

<path id="icon_r_box_02_26_Layer2_0_MEMBER_0_MEMBER_4_MEMBER_2_MEMBER_5_MEMBER_0_1_STROKES" stroke="#000000" stroke-width="1" stroke-linejoin="round" stroke-linecap="round" fill="none" d="
M 50.05 10.95
L 50.75 10.7"/>

<path id="icon_r_box_02_26_Layer2_0_MEMBER_0_MEMBER_4_MEMBER_2_MEMBER_6_MEMBER_0_1_STROKES" stroke="#000000" stroke-width="1" stroke-linejoin="round" stroke-linecap="round" fill="none" d="
M 46.05 12.1
L 46.75 11.9"/>

<path id="icon_r_box_02_26_Layer2_0_MEMBER_0_MEMBER_5_MEMBER_0_MEMBER_0_1_STROKES" stroke="#000000" stroke-width="1" stroke-linejoin="round" stroke-linecap="round" fill="none" d="
M 15.4 40.35
L 21.5 38.6"/>

<path id="icon_r_box_02_26_Layer2_0_MEMBER_0_MEMBER_5_MEMBER_0_MEMBER_1_1_STROKES" stroke="#000000" stroke-width="1" stroke-linejoin="round" stroke-linecap="round" fill="none" d="
M 12.85 41.1
L 10.3 41.85"/>

<path id="icon_r_box_02_26_Layer2_0_MEMBER_0_MEMBER_5_MEMBER_1_1_STROKES" stroke="#000000" stroke-width="1" stroke-linejoin="round" stroke-linecap="round" fill="none" d="
M 18.45 35.9
L 22.4 34.75"/>

<path id="icon_r_box_02_26_Layer2_0_MEMBER_0_MEMBER_6_1_STROKES" stroke="#000000" stroke-width="1" stroke-linejoin="round" stroke-linecap="round" fill="none" d="
M 2.35 20.55
L 51.7 6.05
Q 55.5 4.95 58.75 7.2 60.35 8.35 61.2 9.7
L 63.2 9.95
Q 65.35 10.55 65.8 12.25 66.35 14.35 64.75 16 62.95 17.8 58.35 19.15 49.35 21.75 17.5 29.25
L 4.35 27.45 2.35 20.55 Z"/>

<path id="icon_r_box_02_26_Layer2_0_MEMBER_0_MEMBER_7_MEMBER_1_1_STROKES" stroke="#000000" stroke-width="1" stroke-linejoin="round" stroke-linecap="round" fill="none" d="
M 33 19.15
L 27.5 40 34.95 37.6 47.45 15.6"/>

<path id="icon_r_box_02_26_Layer2_0_MEMBER_0_MEMBER_8_1_STROKES" stroke="#000000" stroke-width="1" stroke-linejoin="round" stroke-linecap="round" fill="none" d="
M 9.85 30.7
L 6.85 31.45 5.25 23.9 11 22.1 9.85 30.7 Z"/>

<path id="icon_r_box_02_26_Layer2_0_MEMBER_0_MEMBER_9_1_STROKES" stroke="#E7E4E5" stroke-width="1" stroke-linejoin="round" stroke-linecap="round" fill="none" d="
M 35.3 20.55
L 31.05 35.9"/>

<path id="icon_r_box_02_26_Layer2_0_MEMBER_0_MEMBER_10_1_STROKES" stroke="#E7E4E5" stroke-width="1" stroke-linejoin="round" stroke-linecap="round" fill="none" d="
M 32 32.5
L 36.35 30.95"/>

<path id="icon_r_box_02_26_Layer2_0_MEMBER_0_MEMBER_11_1_STROKES" stroke="#E7E4E5" stroke-width="1" stroke-linejoin="round" stroke-linecap="round" fill="none" d="
M 14.85 22.1
L 28.65 18.2"/>
</defs>

<g transform="matrix( 1, 0, 0, 0.999603271484375, 65,60) ">
<g transform="matrix( 1, 0, 0, 1, 0,0) ">
<use xlink:href="#icon_r_box_02_26_Layer3_0_FILL"/>
</g>

<g transform="matrix( 1, 0, 0, 1, -0.05,0.05) ">
<use xlink:href="#icon_r_box_02_26_Layer3_1_FILL"/>
</g>

<g transform="matrix( 1, 0, 0, 1, 0,-2.15) ">
<use xlink:href="#icon_r_box_02_26_Layer3_2_FILL"/>
</g>

<g transform="matrix( 1, 0, 0, 1, 0,0.05) ">
<use xlink:href="#icon_r_box_02_26_Layer3_3_FILL"/>
</g>

<g transform="matrix( 1, 0, 0, 1, -33.2,-31.4) ">
<use xlink:href="#icon_r_box_02_26_Layer2_0_MEMBER_0_MEMBER_0_FILL"/>

<use xlink:href="#icon_r_box_02_26_Layer2_0_MEMBER_0_MEMBER_0_1_STROKES"/>
</g>

<g transform="matrix( 1, 0, 0, 1, -33.2,-31.4) ">
<use xlink:href="#icon_r_box_02_26_Layer2_0_MEMBER_0_MEMBER_1_FILL"/>

<use xlink:href="#icon_r_box_02_26_Layer2_0_MEMBER_0_MEMBER_1_1_STROKES"/>
</g>

<g transform="matrix( 1, 0, 0, 1, -33.2,-31.4) ">
<use xlink:href="#icon_r_box_02_26_Layer2_0_MEMBER_0_MEMBER_2_FILL"/>

<use xlink:href="#icon_r_box_02_26_Layer2_0_MEMBER_0_MEMBER_2_1_STROKES"/>
</g>

<g transform="matrix( 1, 0, 0, 1, -33.2,-31.4) ">
<use xlink:href="#icon_r_box_02_26_Layer2_0_MEMBER_0_MEMBER_3_FILL"/>

<use xlink:href="#icon_r_box_02_26_Layer2_0_MEMBER_0_MEMBER_3_1_STROKES"/>
</g>

<g transform="matrix( 1, 0, 0, 1, -33.2,-31.4) ">
<use xlink:href="#icon_r_box_02_26_Layer2_0_MEMBER_0_MEMBER_4_MEMBER_0_MEMBER_0_FILL"/>
</g>

<g transform="matrix( 1, 0, 0, 1, -33.2,-31.4) ">
<use xlink:href="#icon_r_box_02_26_Layer2_0_MEMBER_0_MEMBER_4_MEMBER_0_MEMBER_1_1_STROKES"/>
</g>

<g transform="matrix( 1, 0, 0, 1, -33.2,-31.4) ">
<use xlink:href="#icon_r_box_02_26_Layer2_0_MEMBER_0_MEMBER_4_MEMBER_1_1_STROKES"/>
</g>

<g transform="matrix( 1, 0, 0, 1, -33.2,-31.4) ">
<use xlink:href="#icon_r_box_02_26_Layer2_0_MEMBER_0_MEMBER_4_MEMBER_2_MEMBER_0_FILL"/>

<use xlink:href="#icon_r_box_02_26_Layer2_0_MEMBER_0_MEMBER_4_MEMBER_2_MEMBER_0_1_STROKES"/>
</g>

<g transform="matrix( 1, 0, 0, 1, -33.2,-31.4) ">
<use xlink:href="#icon_r_box_02_26_Layer2_0_MEMBER_0_MEMBER_4_MEMBER_2_MEMBER_1_FILL"/>
</g>

<g transform="matrix( 1, 0, 0, 1, -33.2,-31.4) ">
<use xlink:href="#icon_r_box_02_26_Layer2_0_MEMBER_0_MEMBER_4_MEMBER_2_MEMBER_2_FILL"/>

<use xlink:href="#icon_r_box_02_26_Layer2_0_MEMBER_0_MEMBER_4_MEMBER_2_MEMBER_2_1_STROKES"/>
</g>

<g transform="matrix( 1, 0, 0, 1, -33.2,-31.4) ">
<use xlink:href="#icon_r_box_02_26_Layer2_0_MEMBER_0_MEMBER_4_MEMBER_2_MEMBER_3_FILL"/>

<use xlink:href="#icon_r_box_02_26_Layer2_0_MEMBER_0_MEMBER_4_MEMBER_2_MEMBER_3_1_STROKES"/>
</g>

<g transform="matrix( 1, 0, 0, 1, -33.2,-31.4) ">
<use xlink:href="#icon_r_box_02_26_Layer2_0_MEMBER_0_MEMBER_4_MEMBER_2_MEMBER_4_MEMBER_0_1_STROKES"/>
</g>

<g transform="matrix( 1, 0, 0, 1, -33.2,-31.4) ">
<use xlink:href="#icon_r_box_02_26_Layer2_0_MEMBER_0_MEMBER_4_MEMBER_2_MEMBER_5_MEMBER_0_1_STROKES"/>
</g>

<g transform="matrix( 1, 0, 0, 1, -33.2,-31.4) ">
<use xlink:href="#icon_r_box_02_26_Layer2_0_MEMBER_0_MEMBER_4_MEMBER_2_MEMBER_6_MEMBER_0_1_STROKES"/>
</g>

<g transform="matrix( 1, 0, 0, 1, -33.2,-31.4) ">
<use xlink:href="#icon_r_box_02_26_Layer2_0_MEMBER_0_MEMBER_5_MEMBER_0_MEMBER_0_1_STROKES"/>
</g>

<g transform="matrix( 1, 0, 0, 1, -33.2,-31.4) ">
<use xlink:href="#icon_r_box_02_26_Layer2_0_MEMBER_0_MEMBER_5_MEMBER_0_MEMBER_1_1_STROKES"/>
</g>

<g transform="matrix( 1, 0, 0, 1, -33.2,-31.4) ">
<use xlink:href="#icon_r_box_02_26_Layer2_0_MEMBER_0_MEMBER_5_MEMBER_1_1_STROKES"/>
</g>

<g transform="matrix( 1, 0, 0, 1, -33.2,-31.4) ">
<use xlink:href="#icon_r_box_02_26_Layer2_0_MEMBER_0_MEMBER_6_1_STROKES"/>
</g>

<g transform="matrix( 1, 0, 0, 1, -33.2,-31.4) ">
<use xlink:href="#icon_r_box_02_26_Layer2_0_MEMBER_0_MEMBER_7_MEMBER_0_FILL"/>
</g>

<g transform="matrix( 1, 0, 0, 1, -33.2,-31.4) ">
<use xlink:href="#icon_r_box_02_26_Layer2_0_MEMBER_0_MEMBER_7_MEMBER_1_1_STROKES"/>
</g>

<g transform="matrix( 1, 0, 0, 1, -33.2,-31.4) ">
<use xlink:href="#icon_r_box_02_26_Layer2_0_MEMBER_0_MEMBER_8_FILL"/>

<use xlink:href="#icon_r_box_02_26_Layer2_0_MEMBER_0_MEMBER_8_1_STROKES"/>
</g>

<g transform="matrix( 1, 0, 0, 1, -33.2,-31.4) ">
<use xlink:href="#icon_r_box_02_26_Layer2_0_MEMBER_0_MEMBER_9_1_STROKES"/>
</g>

<g transform="matrix( 1, 0, 0, 1, -33.2,-31.4) ">
<use xlink:href="#icon_r_box_02_26_Layer2_0_MEMBER_0_MEMBER_10_1_STROKES"/>
</g>

<g transform="matrix( 1, 0, 0, 1, -33.2,-31.4) ">
<use xlink:href="#icon_r_box_02_26_Layer2_0_MEMBER_0_MEMBER_11_1_STROKES"/>
</g>
</g>
</svg>
