
<svg xmlns="http://www.w3.org/2000/svg" version="1.1" xmlns:xlink="http://www.w3.org/1999/xlink" preserveAspectRatio="none" x="0px" y="0px" width="130px" height="115px" viewBox="0 0 130 115">
<defs>
<g id="icon_r_box_02_23_Layer3_0_FILL">
<path fill="#FFFFFF" fill-opacity="0" stroke="none" d="
M 65 -55
L -65 -55 -65 25 65 25 65 -55 Z"/>
</g>

<g id="icon_r_box_02_23_Layer3_1_FILL">
<path fill="#FFFFFF" fill-opacity="0" stroke="none" d="
M 65.05 49.95
L 65.05 24.95 -64.95 24.95 -64.95 49.95 65.05 49.95 Z"/>
</g>

<g id="icon_r_box_02_23_Layer3_2_FILL">
<path fill="#FFFFFF" fill-opacity="0" stroke="none" d="
M 65 -52.85
L 65 -57.85 -65 -57.85 -65 -52.85 65 -52.85 Z"/>
</g>

<g id="icon_r_box_02_23_Layer3_3_FILL">
<path fill="#FFFFFF" fill-opacity="0" stroke="none" d="
M 65 54.95
L 65 49.95 -65 49.95 -65 54.95 65 54.95 Z"/>
</g>

<g id="icon_r_box_02_23_Layer2_0_MEMBER_0_MEMBER_0_MEMBER_0_FILL">
<path fill="#FFFFFF" stroke="none" d="
M 88.9 1.15
Q 88.25 0.5 87.25 0.5
L 42.75 0.5
Q 33.85 0.5 24.85 4.45 15.1 8.75 8.9 16.3 8.4 16.85 8.45 17.65 8.5 18.5 9.05 19 14.7 24.1 27.15 24.1
L 87.25 24.1
Q 88.2 24.1 88.9 23.45 89.55 22.8 89.55 21.85
L 89.55 2.8
Q 89.55 1.85 88.9 1.15 Z"/>
</g>

<g id="icon_r_box_02_23_Layer2_0_MEMBER_0_MEMBER_0_MEMBER_1_FILL">
<path fill="#FFFFFF" stroke="none" d="
M 40.4 15.5
L 40.4 7.25 36.3 7.25 36.3 15.5 40.4 15.5 Z"/>
</g>

<g id="icon_r_box_02_23_Layer2_0_MEMBER_0_MEMBER_0_MEMBER_2_FILL">
<path fill="#0176D0" stroke="none" d="
M 44.25 0.5
L 42.75 0.5
Q 35.55 0.5 28.05 3.2 20.05 6.05 13.9 11.25 15.4 12.6 18.5 12.3 19.35 12.25 23.15 10.35 26.8 8.6 30.95 8.4 36.55 8.1 42.05 8.4
L 44.25 0.5 Z"/>
</g>

<g id="icon_r_box_02_23_Layer2_0_MEMBER_0_MEMBER_0_MEMBER_3_FILL">
<path fill="#BECDD6" stroke="none" d="
M 89.55 21.85
L 89.55 19.25 26.5 19.25
Q 20.95 19.25 16.1 17.6 12.75 16.5 10.2 14.8 9.1 16 8.9 16.3 8.4 16.85 8.45 17.65 8.5 18.5 9.05 19 14.7 24.1 27.15 24.1
L 87.25 24.1
Q 88.2 24.1 88.9 23.45 89.55 22.8 89.55 21.85 Z"/>
</g>

<g id="icon_r_box_02_23_Layer2_0_MEMBER_0_MEMBER_0_MEMBER_4_FILL">
<path fill="#3E4144" stroke="none" d="
M 85.1 4.7
L 85.1 0.5 42.9 0.5 42.9 4.7 85.1 4.7 Z"/>
</g>

<g id="icon_r_box_02_23_Layer2_0_MEMBER_0_MEMBER_0_MEMBER_5_FILL">
<path fill="#BECDD6" stroke="none" d="
M 89.55 15.5
L 89.55 8.7 44.25 8.7 44.25 15.5 89.55 15.5 Z"/>
</g>

<g id="icon_r_box_02_23_Layer2_0_MEMBER_0_MEMBER_0_MEMBER_6_FILL">
<path fill="#BAE6FF" stroke="none" d="
M 16 12.2
Q 17.05 12.4 18.5 12.3 19.35 12.25 23.15 10.35 26.8 8.6 30.95 8.4
L 31.25 8.35 31.25 5.25
Q 26.65 5.25 21.8 7.95 18.7 9.7 16 12.2 Z"/>
</g>

<g id="icon_r_box_02_23_Layer2_0_MEMBER_0_MEMBER_0_MEMBER_8_FILL">
<path fill="#0176D0" stroke="none" d="
M 88.9 1.15
Q 88.25 0.5 87.25 0.5
L 75.25 0.5 75.25 4.7 80.15 15.5 89.55 15.5 89.55 2.8
Q 89.55 1.85 88.9 1.15 Z"/>
</g>

<g id="icon_r_box_02_23_Layer2_0_MEMBER_0_MEMBER_0_MEMBER_9_FILL">
<path fill="#3E4144" stroke="none" d="
M 45.45 24.1
L 43.35 19.25 31.2 19.25 29.1 24.1 45.45 24.1 Z"/>
</g>

<g id="icon_r_box_02_23_Layer2_0_MEMBER_0_MEMBER_0_MEMBER_10_FILL">
<path fill="#252628" stroke="none" d="
M 45.45 24.1
L 43.35 19.25 31.2 19.25 29.1 24.1 45.45 24.1 Z"/>
</g>

<g id="icon_r_box_02_23_Layer2_0_MEMBER_0_MEMBER_0_MEMBER_11_FILL">
<path fill="#3E4144" stroke="none" d="
M 41 22.3
Q 41.95 22.3 42.6 21.65 43.25 21 43.25 20.1
L 43.25 19.25 31.2 19.25 31.2 20.1
Q 31.2 21 31.85 21.65 32.5 22.3 33.4 22.3
L 41 22.3 Z"/>
</g>

<g id="icon_r_box_02_23_Layer2_0_MEMBER_0_MEMBER_0_MEMBER_12_MEMBER_0_FILL">
<path fill="#3E4144" stroke="none" d="
M 34.9 22.3
Q 34.9 21.55 34.35 21.05 33.8 20.5 33.05 20.5 32.35 20.5 31.8 21.05 31.25 21.55 31.25 22.3 31.25 23.05 31.8 23.6 32.35 24.1 33.05 24.1 33.8 24.1 34.35 23.6 34.9 23.05 34.9 22.3 Z"/>
</g>

<g id="icon_r_box_02_23_Layer2_0_MEMBER_0_MEMBER_0_MEMBER_12_MEMBER_1_FILL">
<path fill="#3E4144" stroke="none" d="
M 43.25 22.3
Q 43.25 21.55 42.75 21.05 42.2 20.5 41.45 20.5 40.7 20.5 40.2 21.05 39.65 21.55 39.65 22.3 39.65 23.05 40.2 23.6 40.7 24.1 41.45 24.1 42.2 24.1 42.75 23.6 43.25 23.05 43.25 22.3 Z"/>
</g>

<g id="icon_r_box_02_23_Layer2_0_MEMBER_0_MEMBER_0_MEMBER_13_MEMBER_0_FILL">
<path fill="#252628" stroke="none" d="
M 83.85 24.1
L 81.75 19.25 69.6 19.25 67.5 24.1 83.85 24.1 Z"/>
</g>

<g id="icon_r_box_02_23_Layer2_0_MEMBER_0_MEMBER_0_MEMBER_13_MEMBER_1_FILL">
<path fill="#3E4144" stroke="none" d="
M 81 21.65
Q 81.65 21 81.65 20.1
L 81.65 19.25 69.6 19.25 69.6 20.1
Q 69.6 21 70.25 21.65 70.9 22.3 71.85 22.3
L 79.45 22.3
Q 80.35 22.3 81 21.65 Z"/>
</g>

<g id="icon_r_box_02_23_Layer2_0_MEMBER_0_MEMBER_0_MEMBER_13_MEMBER_2_MEMBER_0_FILL">
<path fill="#3E4144" stroke="none" d="
M 73.3 22.3
Q 73.3 21.55 72.8 21.05 72.25 20.5 71.5 20.5 70.75 20.5 70.25 21.05 69.7 21.55 69.7 22.3 69.7 23.05 70.25 23.6 70.75 24.1 71.5 24.1 72.25 24.1 72.8 23.6 73.3 23.05 73.3 22.3 Z"/>
</g>

<g id="icon_r_box_02_23_Layer2_0_MEMBER_0_MEMBER_0_MEMBER_13_MEMBER_2_MEMBER_1_FILL">
<path fill="#3E4144" stroke="none" d="
M 81.65 22.3
Q 81.65 21.55 81.15 21.05 80.6 20.5 79.85 20.5 79.1 20.5 78.6 21.05 78.05 21.55 78.05 22.3 78.05 23.05 78.6 23.6 79.1 24.1 79.85 24.1 80.6 24.1 81.15 23.6 81.65 23.05 81.65 22.3 Z"/>
</g>

<g id="icon_r_box_02_23_Layer2_0_MEMBER_0_MEMBER_1_MEMBER_0_FILL">
<path fill="#184D8E" stroke="none" d="
M 31.5 11.3
L 31.6 11.35 31.75 11.7 32.05 11.45 32.1 11.45 32.15 11.35
Q 32.25 11.3 32.15 11.2
L 32.05 11 31.95 10.9 29.8 10.9
Q 29.6 10.9 29.35 11.05
L 28.8 11.45 28.95 11
Q 29.05 10.9 28.9 10.9
L 28.4 10.9 28.3 11 27.75 12.7 28.4 12.7 28.45 12.65 28.55 12.35 28.6 12.1 28.7 12 28.75 12.05 28.95 12.65 29 12.7 29.65 12.7 29.6 12.65 29.25 11.7 29.3 11.6 29.75 11.35 29.8 11.3 30.25 11.3 30.25 11.4 29.9 12.65
Q 29.85 12.7 29.95 12.7
L 30.45 12.7 30.55 12.65 30.95 11.4 31 11.3 31.5 11.3 Z"/>
</g>

<g id="icon_r_box_02_23_Layer2_0_MEMBER_0_MEMBER_1_MEMBER_1_FILL">
<path fill="#E0294C" stroke="none" d="
M 31.95 12.2
L 32.35 11.75
Q 32.7 11.4 32.9 11.3 33.4 10.85 34.25 10.6
L 34.2 10.55 34.15 10.55
Q 33.25 10.7 32.5 11.15
L 31.75 11.7
Q 31.1 12.35 30.85 12.7
L 31.55 12.7 31.6 12.65 31.95 12.2 Z"/>
</g>

<g id="icon_r_box_02_23_Layer2_0_MEMBER_0_MEMBER_1_MEMBER_2_FILL">
<path fill="#184D8E" stroke="none" d="
M 31.95 12.2
L 32.15 12.65 32.2 12.7 32.85 12.7 32.35 11.75 32.05 12.05 31.95 12.2 Z"/>
</g>

<path id="icon_r_box_02_23_Layer2_0_MEMBER_0_MEMBER_0_MEMBER_0_1_STROKES" stroke="#000000" stroke-width="1" stroke-linejoin="round" stroke-linecap="round" fill="none" d="
M 42.75 0.5
Q 33.85 0.5 24.85 4.45 15.1 8.75 8.9 16.3 8.4 16.85 8.45 17.65 8.5 18.5 9.05 19 14.7 24.1 27.15 24.1
L 87.25 24.1
Q 88.2 24.1 88.9 23.45 89.55 22.8 89.55 21.85
L 89.55 2.8
Q 89.55 1.85 88.9 1.15 88.25 0.5 87.25 0.5
L 42.75 0.5 Z"/>

<path id="icon_r_box_02_23_Layer2_0_MEMBER_0_MEMBER_0_MEMBER_1_1_STROKES" stroke="#000000" stroke-width="1" stroke-linejoin="round" stroke-linecap="round" fill="none" d="
M 40.4 15.5
L 36.3 15.5 36.3 7.25 40.4 7.25 40.4 15.5 Z"/>

<path id="icon_r_box_02_23_Layer2_0_MEMBER_0_MEMBER_0_MEMBER_2_1_STROKES" stroke="#000000" stroke-width="1" stroke-linejoin="round" stroke-linecap="round" fill="none" d="
M 42.75 0.5
Q 35.55 0.5 28.05 3.2 20.05 6.05 13.9 11.25 15.4 12.6 18.5 12.3 19.35 12.25 23.15 10.35 26.8 8.6 30.95 8.4 36.55 8.1 42.05 8.4
L 44.25 0.5 42.75 0.5 Z"/>

<path id="icon_r_box_02_23_Layer2_0_MEMBER_0_MEMBER_0_MEMBER_3_1_STROKES" stroke="#000000" stroke-width="1" stroke-linejoin="round" stroke-linecap="butt" fill="none" d="
M 89.55 19.25
L 26.5 19.25
Q 20.95 19.25 16.1 17.6 12.75 16.5 10.2 14.8 9.1 16 8.9 16.3 8.4 16.85 8.45 17.65 8.5 18.5 9.05 19 14.7 24.1 27.15 24.1
L 87.25 24.1
Q 88.2 24.1 88.9 23.45 89.55 22.8 89.55 21.85
L 89.55 19.25 Z"/>

<path id="icon_r_box_02_23_Layer2_0_MEMBER_0_MEMBER_0_MEMBER_4_1_STROKES" stroke="#000000" stroke-width="1" stroke-linejoin="round" stroke-linecap="round" fill="none" d="
M 42.9 4.7
L 85.1 4.7 85.1 0.5 42.9 0.5 42.9 4.7 Z"/>

<path id="icon_r_box_02_23_Layer2_0_MEMBER_0_MEMBER_0_MEMBER_6_1_STROKES" stroke="#000000" stroke-width="1" stroke-linejoin="round" stroke-linecap="round" fill="none" d="
M 18.5 12.3
Q 19.35 12.25 23.15 10.35 26.8 8.6 30.95 8.4
L 31.25 8.35 31.25 5.25
Q 26.65 5.25 21.8 7.95 18.7 9.7 16 12.2 17.05 12.4 18.5 12.3 Z"/>

<path id="icon_r_box_02_23_Layer2_0_MEMBER_0_MEMBER_0_MEMBER_7_1_STROKES" stroke="#000000" stroke-width="1" stroke-linejoin="round" stroke-linecap="round" fill="none" d="
M 26.15 6.1
L 26.15 9.2"/>

<path id="icon_r_box_02_23_Layer2_0_MEMBER_0_MEMBER_0_MEMBER_8_1_STROKES" stroke="#000000" stroke-width="1" stroke-linejoin="round" stroke-linecap="round" fill="none" d="
M 75.25 0.5
L 75.25 4.7 80.15 15.5 89.55 15.5 89.55 2.8
Q 89.55 1.85 88.9 1.15 88.25 0.5 87.25 0.5
L 75.25 0.5 Z"/>

<path id="icon_r_box_02_23_Layer2_0_MEMBER_0_MEMBER_0_MEMBER_9_1_STROKES" stroke="#000000" stroke-width="1" stroke-linejoin="round" stroke-linecap="round" fill="none" d="
M 45.45 24.1
L 29.1 24.1 31.2 19.25 43.35 19.25 45.45 24.1 Z"/>

<path id="icon_r_box_02_23_Layer2_0_MEMBER_0_MEMBER_0_MEMBER_10_1_STROKES" stroke="#000000" stroke-width="1" stroke-linejoin="round" stroke-linecap="round" fill="none" d="
M 45.45 24.1
L 29.1 24.1 31.2 19.25 43.35 19.25 45.45 24.1 Z"/>

<path id="icon_r_box_02_23_Layer2_0_MEMBER_0_MEMBER_0_MEMBER_11_1_STROKES" stroke="#000000" stroke-width="1" stroke-linejoin="round" stroke-linecap="round" fill="none" d="
M 41 22.3
L 33.4 22.3
Q 32.5 22.3 31.85 21.65 31.2 21 31.2 20.1
L 31.2 19.25 43.25 19.25 43.25 20.1
Q 43.25 21 42.6 21.65 41.95 22.3 41 22.3 Z"/>

<path id="icon_r_box_02_23_Layer2_0_MEMBER_0_MEMBER_0_MEMBER_12_MEMBER_0_1_STROKES" stroke="#000000" stroke-width="1" stroke-linejoin="round" stroke-linecap="round" fill="none" d="
M 34.9 22.3
Q 34.9 23.05 34.35 23.6 33.8 24.1 33.05 24.1 32.35 24.1 31.8 23.6 31.25 23.05 31.25 22.3 31.25 21.55 31.8 21.05 32.35 20.5 33.05 20.5 33.8 20.5 34.35 21.05 34.9 21.55 34.9 22.3 Z"/>

<path id="icon_r_box_02_23_Layer2_0_MEMBER_0_MEMBER_0_MEMBER_12_MEMBER_1_1_STROKES" stroke="#000000" stroke-width="1" stroke-linejoin="round" stroke-linecap="round" fill="none" d="
M 43.25 22.3
Q 43.25 23.05 42.75 23.6 42.2 24.1 41.45 24.1 40.7 24.1 40.2 23.6 39.65 23.05 39.65 22.3 39.65 21.55 40.2 21.05 40.7 20.5 41.45 20.5 42.2 20.5 42.75 21.05 43.25 21.55 43.25 22.3 Z"/>

<path id="icon_r_box_02_23_Layer2_0_MEMBER_0_MEMBER_0_MEMBER_13_MEMBER_0_1_STROKES" stroke="#000000" stroke-width="1" stroke-linejoin="round" stroke-linecap="round" fill="none" d="
M 83.85 24.1
L 67.5 24.1 69.6 19.25 81.75 19.25 83.85 24.1 Z"/>

<path id="icon_r_box_02_23_Layer2_0_MEMBER_0_MEMBER_0_MEMBER_13_MEMBER_1_1_STROKES" stroke="#000000" stroke-width="1" stroke-linejoin="round" stroke-linecap="round" fill="none" d="
M 79.45 22.3
L 71.85 22.3
Q 70.9 22.3 70.25 21.65 69.6 21 69.6 20.1
L 69.6 19.25 81.65 19.25 81.65 20.1
Q 81.65 21 81 21.65 80.35 22.3 79.45 22.3 Z"/>

<path id="icon_r_box_02_23_Layer2_0_MEMBER_0_MEMBER_0_MEMBER_13_MEMBER_2_MEMBER_0_1_STROKES" stroke="#000000" stroke-width="1" stroke-linejoin="round" stroke-linecap="round" fill="none" d="
M 73.3 22.3
Q 73.3 23.05 72.8 23.6 72.25 24.1 71.5 24.1 70.75 24.1 70.25 23.6 69.7 23.05 69.7 22.3 69.7 21.55 70.25 21.05 70.75 20.5 71.5 20.5 72.25 20.5 72.8 21.05 73.3 21.55 73.3 22.3 Z"/>

<path id="icon_r_box_02_23_Layer2_0_MEMBER_0_MEMBER_0_MEMBER_13_MEMBER_2_MEMBER_1_1_STROKES" stroke="#000000" stroke-width="1" stroke-linejoin="round" stroke-linecap="round" fill="none" d="
M 81.65 22.3
Q 81.65 23.05 81.15 23.6 80.6 24.1 79.85 24.1 79.1 24.1 78.6 23.6 78.05 23.05 78.05 22.3 78.05 21.55 78.6 21.05 79.1 20.5 79.85 20.5 80.6 20.5 81.15 21.05 81.65 21.55 81.65 22.3 Z"/>

<path id="icon_r_box_02_23_Layer2_0_MEMBER_1_1_STROKES" stroke="#000000" stroke-width="1" stroke-linejoin="round" stroke-linecap="round" fill="none" d="
M 0.5 24.1
L 97.55 24.1"/>
</defs>

<g transform="matrix( 1, 0, 0, 0.999603271484375, 65,60) ">
<g transform="matrix( 1, 0, 0, 1, 0,0) ">
<use xlink:href="#icon_r_box_02_23_Layer3_0_FILL"/>
</g>

<g transform="matrix( 1, 0, 0, 1, -0.05,0.05) ">
<use xlink:href="#icon_r_box_02_23_Layer3_1_FILL"/>
</g>

<g transform="matrix( 1, 0, 0, 1, 0,-2.15) ">
<use xlink:href="#icon_r_box_02_23_Layer3_2_FILL"/>
</g>

<g transform="matrix( 1, 0, 0, 1, 0,0.05) ">
<use xlink:href="#icon_r_box_02_23_Layer3_3_FILL"/>
</g>

<g transform="matrix( 1, 0, 0, 1, -49,-20.05) ">
<use xlink:href="#icon_r_box_02_23_Layer2_0_MEMBER_0_MEMBER_0_MEMBER_0_FILL"/>

<use xlink:href="#icon_r_box_02_23_Layer2_0_MEMBER_0_MEMBER_0_MEMBER_0_1_STROKES"/>
</g>

<g transform="matrix( 1, 0, 0, 1, -49,-20.05) ">
<use xlink:href="#icon_r_box_02_23_Layer2_0_MEMBER_0_MEMBER_0_MEMBER_1_FILL"/>

<use xlink:href="#icon_r_box_02_23_Layer2_0_MEMBER_0_MEMBER_0_MEMBER_1_1_STROKES"/>
</g>

<g transform="matrix( 1, 0, 0, 1, -49,-20.05) ">
<use xlink:href="#icon_r_box_02_23_Layer2_0_MEMBER_0_MEMBER_0_MEMBER_2_FILL"/>

<use xlink:href="#icon_r_box_02_23_Layer2_0_MEMBER_0_MEMBER_0_MEMBER_2_1_STROKES"/>
</g>

<g transform="matrix( 1, 0, 0, 1, -49,-20.05) ">
<use xlink:href="#icon_r_box_02_23_Layer2_0_MEMBER_0_MEMBER_0_MEMBER_3_FILL"/>

<use xlink:href="#icon_r_box_02_23_Layer2_0_MEMBER_0_MEMBER_0_MEMBER_3_1_STROKES"/>
</g>

<g transform="matrix( 1, 0, 0, 1, -49,-20.05) ">
<use xlink:href="#icon_r_box_02_23_Layer2_0_MEMBER_0_MEMBER_0_MEMBER_4_FILL"/>

<use xlink:href="#icon_r_box_02_23_Layer2_0_MEMBER_0_MEMBER_0_MEMBER_4_1_STROKES"/>
</g>

<g transform="matrix( 1, 0, 0, 1, -49,-20.05) ">
<use xlink:href="#icon_r_box_02_23_Layer2_0_MEMBER_0_MEMBER_0_MEMBER_5_FILL"/>
</g>

<g transform="matrix( 1, 0, 0, 1, -49,-20.05) ">
<use xlink:href="#icon_r_box_02_23_Layer2_0_MEMBER_0_MEMBER_0_MEMBER_6_FILL"/>

<use xlink:href="#icon_r_box_02_23_Layer2_0_MEMBER_0_MEMBER_0_MEMBER_6_1_STROKES"/>
</g>

<g transform="matrix( 1, 0, 0, 1, -49,-20.05) ">
<use xlink:href="#icon_r_box_02_23_Layer2_0_MEMBER_0_MEMBER_0_MEMBER_7_1_STROKES"/>
</g>

<g transform="matrix( 1, 0, 0, 1, -49,-20.05) ">
<use xlink:href="#icon_r_box_02_23_Layer2_0_MEMBER_0_MEMBER_0_MEMBER_8_FILL"/>

<use xlink:href="#icon_r_box_02_23_Layer2_0_MEMBER_0_MEMBER_0_MEMBER_8_1_STROKES"/>
</g>

<g transform="matrix( 1, 0, 0, 1, -49,-20.05) ">
<use xlink:href="#icon_r_box_02_23_Layer2_0_MEMBER_0_MEMBER_0_MEMBER_9_FILL"/>

<use xlink:href="#icon_r_box_02_23_Layer2_0_MEMBER_0_MEMBER_0_MEMBER_9_1_STROKES"/>
</g>

<g transform="matrix( 1, 0, 0, 1, -49,-20.05) ">
<use xlink:href="#icon_r_box_02_23_Layer2_0_MEMBER_0_MEMBER_0_MEMBER_10_FILL"/>

<use xlink:href="#icon_r_box_02_23_Layer2_0_MEMBER_0_MEMBER_0_MEMBER_10_1_STROKES"/>
</g>

<g transform="matrix( 1, 0, 0, 1, -49,-20.05) ">
<use xlink:href="#icon_r_box_02_23_Layer2_0_MEMBER_0_MEMBER_0_MEMBER_11_FILL"/>

<use xlink:href="#icon_r_box_02_23_Layer2_0_MEMBER_0_MEMBER_0_MEMBER_11_1_STROKES"/>
</g>

<g transform="matrix( 1, 0, 0, 1, -49,-20.05) ">
<use xlink:href="#icon_r_box_02_23_Layer2_0_MEMBER_0_MEMBER_0_MEMBER_12_MEMBER_0_FILL"/>

<use xlink:href="#icon_r_box_02_23_Layer2_0_MEMBER_0_MEMBER_0_MEMBER_12_MEMBER_0_1_STROKES"/>
</g>

<g transform="matrix( 1, 0, 0, 1, -49,-20.05) ">
<use xlink:href="#icon_r_box_02_23_Layer2_0_MEMBER_0_MEMBER_0_MEMBER_12_MEMBER_1_FILL"/>

<use xlink:href="#icon_r_box_02_23_Layer2_0_MEMBER_0_MEMBER_0_MEMBER_12_MEMBER_1_1_STROKES"/>
</g>

<g transform="matrix( 1, 0, 0, 1, -49,-20.05) ">
<use xlink:href="#icon_r_box_02_23_Layer2_0_MEMBER_0_MEMBER_0_MEMBER_13_MEMBER_0_FILL"/>

<use xlink:href="#icon_r_box_02_23_Layer2_0_MEMBER_0_MEMBER_0_MEMBER_13_MEMBER_0_1_STROKES"/>
</g>

<g transform="matrix( 1, 0, 0, 1, -49,-20.05) ">
<use xlink:href="#icon_r_box_02_23_Layer2_0_MEMBER_0_MEMBER_0_MEMBER_13_MEMBER_1_FILL"/>

<use xlink:href="#icon_r_box_02_23_Layer2_0_MEMBER_0_MEMBER_0_MEMBER_13_MEMBER_1_1_STROKES"/>
</g>

<g transform="matrix( 1, 0, 0, 1, -49,-20.05) ">
<use xlink:href="#icon_r_box_02_23_Layer2_0_MEMBER_0_MEMBER_0_MEMBER_13_MEMBER_2_MEMBER_0_FILL"/>

<use xlink:href="#icon_r_box_02_23_Layer2_0_MEMBER_0_MEMBER_0_MEMBER_13_MEMBER_2_MEMBER_0_1_STROKES"/>
</g>

<g transform="matrix( 1, 0, 0, 1, -49,-20.05) ">
<use xlink:href="#icon_r_box_02_23_Layer2_0_MEMBER_0_MEMBER_0_MEMBER_13_MEMBER_2_MEMBER_1_FILL"/>

<use xlink:href="#icon_r_box_02_23_Layer2_0_MEMBER_0_MEMBER_0_MEMBER_13_MEMBER_2_MEMBER_1_1_STROKES"/>
</g>

<g transform="matrix( 1, 0, 0, 1, -49,-20.05) ">
<use xlink:href="#icon_r_box_02_23_Layer2_0_MEMBER_0_MEMBER_1_MEMBER_0_FILL"/>
</g>

<g transform="matrix( 1, 0, 0, 1, -49,-20.05) ">
<use xlink:href="#icon_r_box_02_23_Layer2_0_MEMBER_0_MEMBER_1_MEMBER_1_FILL"/>
</g>

<g transform="matrix( 1, 0, 0, 1, -49,-20.05) ">
<use xlink:href="#icon_r_box_02_23_Layer2_0_MEMBER_0_MEMBER_1_MEMBER_2_FILL"/>
</g>

<g transform="matrix( 1, 0, 0, 1, -49,-20.05) ">
<use xlink:href="#icon_r_box_02_23_Layer2_0_MEMBER_1_1_STROKES"/>
</g>
</g>
</svg>
