
<svg xmlns="http://www.w3.org/2000/svg" version="1.1" xmlns:xlink="http://www.w3.org/1999/xlink" preserveAspectRatio="none" x="0px" y="0px" width="130px" height="115px" viewBox="0 0 130 115">
<defs>
<g id="icon_r_box_02_27_Layer3_0_FILL">
<path fill="#FFFFFF" fill-opacity="0" stroke="none" d="
M 65 -55
L -65 -55 -65 25 65 25 65 -55 Z"/>
</g>

<g id="icon_r_box_02_27_Layer3_1_FILL">
<path fill="#FFFFFF" fill-opacity="0" stroke="none" d="
M 65.05 49.95
L 65.05 24.95 -64.95 24.95 -64.95 49.95 65.05 49.95 Z"/>
</g>

<g id="icon_r_box_02_27_Layer3_2_FILL">
<path fill="#FFFFFF" fill-opacity="0" stroke="none" d="
M 65 -52.85
L 65 -57.85 -65 -57.85 -65 -52.85 65 -52.85 Z"/>
</g>

<g id="icon_r_box_02_27_Layer3_3_FILL">
<path fill="#FFFFFF" fill-opacity="0" stroke="none" d="
M 65 54.95
L 65 49.95 -65 49.95 -65 54.95 65 54.95 Z"/>
</g>

<g id="icon_r_box_02_27_Layer2_0_MEMBER_0_MEMBER_3_MEMBER_0_FILL">
<path fill="#FF3934" stroke="none" d="
M 25.8 3.05
L 21.5 3.05 21.5 39.5
Q 23.95 38.85 25 36.4 25.3 37.2 25.8 37.75
L 25.8 3.05 Z"/>
</g>

<g id="icon_r_box_02_27_Layer2_0_MEMBER_0_MEMBER_3_MEMBER_1_FILL">
<path fill="#AD1111" stroke="none" d="
M 25.8 33.15
L 25.8 30.65 21.5 30.65 21.5 32.25 25.8 33.15 Z"/>
</g>

<g id="icon_r_box_02_27_Layer2_0_MEMBER_0_MEMBER_3_MEMBER_3_FILL">
<path fill="#FF3934" stroke="none" d="
M 57.85 3.05
L 53.55 3.05 53.55 37.75
Q 54.05 37.2 54.35 36.4 55.4 38.85 57.85 39.5
L 57.85 3.05 Z"/>
</g>

<g id="icon_r_box_02_27_Layer2_0_MEMBER_0_MEMBER_3_MEMBER_4_FILL">
<path fill="#AD1111" stroke="none" d="
M 57.85 33.15
L 57.85 30.65 53.55 30.65 53.55 32.25 57.85 33.15 Z"/>
</g>

<g id="icon_r_box_02_27_Layer2_0_MEMBER_0_MEMBER_14_FILL">
<path fill="#FF3934" stroke="none" d="
M 24.6 3.05
L 24.6 0.5 22.65 0.5 22.65 3.05 24.6 3.05 Z"/>
</g>

<g id="icon_r_box_02_27_Layer2_0_MEMBER_0_MEMBER_15_FILL">
<path fill="#FF3934" stroke="none" d="
M 56.7 3.05
L 56.7 0.5 54.75 0.5 54.75 3.05 56.7 3.05 Z"/>
</g>

<g id="icon_r_box_02_27_Layer2_0_MEMBER_0_MEMBER_16_FILL">
<path fill="#FF3934" stroke="none" d="
M 76.1 30.65
L 76.1 27.5 3.25 27.5 3.25 30.65 76.1 30.65 Z"/>
</g>

<path id="icon_r_box_02_27_Layer2_0_MEMBER_0_MEMBER_0_1_STROKES" stroke="#000000" stroke-width="1" stroke-linejoin="round" stroke-linecap="round" fill="none" d="
M 22 9.5
Q 22 14.35 17.85 17.75 13.7 21.2 7.85 21.2"/>

<path id="icon_r_box_02_27_Layer2_0_MEMBER_0_MEMBER_1_1_STROKES" stroke="#000000" stroke-width="1" stroke-linejoin="round" stroke-linecap="round" fill="none" d="
M 57.35 9.5
Q 57.35 14.35 61.5 17.75 65.65 21.2 71.5 21.2"/>

<path id="icon_r_box_02_27_Layer2_0_MEMBER_0_MEMBER_2_1_STROKES" stroke="#000000" stroke-width="1" stroke-linejoin="round" stroke-linecap="round" fill="none" d="
M 53.65 9.5
Q 53.65 14.35 49.55 17.75 45.4 21.2 39.55 21.2 33.7 21.2 29.6 17.75 25.45 14.35 25.45 9.5"/>

<path id="icon_r_box_02_27_Layer2_0_MEMBER_0_MEMBER_3_MEMBER_0_1_STROKES" stroke="#000000" stroke-width="1" stroke-linejoin="round" stroke-linecap="round" fill="none" d="
M 25.8 3.05
L 25.8 37.75
Q 25.3 37.2 25 36.4 23.95 38.85 21.5 39.5
L 21.5 3.05 25.8 3.05 Z"/>

<path id="icon_r_box_02_27_Layer2_0_MEMBER_0_MEMBER_3_MEMBER_2_1_STROKES" stroke="#000000" stroke-width="1" stroke-linejoin="round" stroke-linecap="round" fill="none" d="
M 25.8 3.05
L 25.8 37.75
Q 25.3 37.2 25 36.4 23.95 38.85 21.5 39.5
L 21.5 3.05 25.8 3.05 Z"/>

<path id="icon_r_box_02_27_Layer2_0_MEMBER_0_MEMBER_3_MEMBER_3_1_STROKES" stroke="#000000" stroke-width="1" stroke-linejoin="round" stroke-linecap="round" fill="none" d="
M 57.85 3.05
L 57.85 39.5
Q 55.4 38.85 54.35 36.4 54.05 37.2 53.55 37.75
L 53.55 3.05 57.85 3.05 Z"/>

<path id="icon_r_box_02_27_Layer2_0_MEMBER_0_MEMBER_3_MEMBER_5_1_STROKES" stroke="#000000" stroke-width="1" stroke-linejoin="round" stroke-linecap="round" fill="none" d="
M 57.85 3.05
L 57.85 39.5
Q 55.4 38.85 54.35 36.4 54.05 37.2 53.55 37.75
L 53.55 3.05 57.85 3.05 Z"/>

<path id="icon_r_box_02_27_Layer2_0_MEMBER_0_MEMBER_4_MEMBER_0_1_STROKES" stroke="#000000" stroke-width="1" stroke-linejoin="round" stroke-linecap="round" fill="none" d="
M 11.65 20.75
L 11.65 27.5"/>

<path id="icon_r_box_02_27_Layer2_0_MEMBER_0_MEMBER_5_MEMBER_0_1_STROKES" stroke="#000000" stroke-width="1" stroke-linejoin="round" stroke-linecap="round" fill="none" d="
M 16.9 18.5
L 16.9 27.5"/>

<path id="icon_r_box_02_27_Layer2_0_MEMBER_0_MEMBER_6_MEMBER_0_1_STROKES" stroke="#000000" stroke-width="1" stroke-linejoin="round" stroke-linecap="round" fill="none" d="
M 67.7 20.75
L 67.7 27.5"/>

<path id="icon_r_box_02_27_Layer2_0_MEMBER_0_MEMBER_7_MEMBER_0_1_STROKES" stroke="#000000" stroke-width="1" stroke-linejoin="round" stroke-linecap="round" fill="none" d="
M 62.45 18.5
L 62.45 27.5"/>

<path id="icon_r_box_02_27_Layer2_0_MEMBER_0_MEMBER_8_MEMBER_0_1_STROKES" stroke="#000000" stroke-width="1" stroke-linejoin="round" stroke-linecap="round" fill="none" d="
M 30.65 27.5
L 30.65 18.6"/>

<path id="icon_r_box_02_27_Layer2_0_MEMBER_0_MEMBER_9_MEMBER_0_1_STROKES" stroke="#000000" stroke-width="1" stroke-linejoin="round" stroke-linecap="round" fill="none" d="
M 35.35 20.7
L 35.35 27.5"/>

<path id="icon_r_box_02_27_Layer2_0_MEMBER_0_MEMBER_10_MEMBER_0_1_STROKES" stroke="#000000" stroke-width="1" stroke-linejoin="round" stroke-linecap="round" fill="none" d="
M 48.7 27.5
L 48.7 18.6"/>

<path id="icon_r_box_02_27_Layer2_0_MEMBER_0_MEMBER_11_MEMBER_0_1_STROKES" stroke="#000000" stroke-width="1" stroke-linejoin="round" stroke-linecap="round" fill="none" d="
M 44 20.7
L 44 27.5"/>

<path id="icon_r_box_02_27_Layer2_0_MEMBER_0_MEMBER_12_MEMBER_0_1_STROKES" stroke="#000000" stroke-width="1" stroke-linejoin="round" stroke-linecap="round" fill="none" d="
M 39.75 27.5
L 39.75 21.2"/>

<path id="icon_r_box_02_27_Layer2_0_MEMBER_0_MEMBER_13_1_STROKES" stroke="#000000" stroke-width="1" stroke-linejoin="round" stroke-linecap="round" fill="none" d="
M 78.85 39.7
Q 77.2 39.7 75.9 38.8 74.55 37.9 73.95 36.4 73.35 37.9 72.05 38.8 70.7 39.7 69.05 39.7 67.4 39.7 66.1 38.8 64.75 37.9 64.15 36.4 63.55 37.9 62.25 38.8 60.9 39.7 59.25 39.7 57.6 39.7 56.3 38.8 54.95 37.9 54.35 36.4 53.75 37.9 52.45 38.8 51.1 39.7 49.45 39.7 47.8 39.7 46.5 38.8 45.15 37.9 44.55 36.4 44 37.9 42.65 38.8 41.35 39.7 39.7 39.7 38.05 39.7 36.7 38.8 35.35 37.9 34.8 36.4 34.2 37.9 32.9 38.8 31.55 39.7 29.9 39.7 28.25 39.7 26.9 38.8 25.6 37.9 25 36.4 24.4 37.9 23.1 38.8 21.75 39.7 20.1 39.7 18.45 39.7 17.1 38.8 15.75 37.85 15.2 36.4 14.6 37.9 13.3 38.8 11.95 39.7 10.3 39.7 8.65 39.7 7.35 38.8 6 37.9 5.4 36.4 4.8 37.9 3.5 38.8 2.15 39.7 0.5 39.7"/>

<path id="icon_r_box_02_27_Layer2_0_MEMBER_0_MEMBER_14_1_STROKES" stroke="#000000" stroke-width="1" stroke-linejoin="round" stroke-linecap="round" fill="none" d="
M 24.6 0.5
L 22.65 0.5 22.65 3.05 24.6 3.05 24.6 0.5 Z"/>

<path id="icon_r_box_02_27_Layer2_0_MEMBER_0_MEMBER_15_1_STROKES" stroke="#000000" stroke-width="1" stroke-linejoin="round" stroke-linecap="round" fill="none" d="
M 56.7 0.5
L 54.75 0.5 54.75 3.05 56.7 3.05 56.7 0.5 Z"/>

<path id="icon_r_box_02_27_Layer2_0_MEMBER_0_MEMBER_16_1_STROKES" stroke="#000000" stroke-width="1" stroke-linejoin="round" stroke-linecap="round" fill="none" d="
M 76.1 30.65
L 3.25 30.65 3.25 27.5 76.1 27.5 76.1 30.65 Z"/>
</defs>

<g transform="matrix( 1, 0, 0, 0.999603271484375, 65,60) ">
<g transform="matrix( 1, 0, 0, 1, 0,0) ">
<use xlink:href="#icon_r_box_02_27_Layer3_0_FILL"/>
</g>

<g transform="matrix( 1, 0, 0, 1, -0.05,0.05) ">
<use xlink:href="#icon_r_box_02_27_Layer3_1_FILL"/>
</g>

<g transform="matrix( 1, 0, 0, 1, 0,-2.15) ">
<use xlink:href="#icon_r_box_02_27_Layer3_2_FILL"/>
</g>

<g transform="matrix( 1, 0, 0, 1, 0,0.05) ">
<use xlink:href="#icon_r_box_02_27_Layer3_3_FILL"/>
</g>

<g transform="matrix( 1, 0, 0, 1, -39.65,-33.35) ">
<use xlink:href="#icon_r_box_02_27_Layer2_0_MEMBER_0_MEMBER_0_1_STROKES"/>
</g>

<g transform="matrix( 1, 0, 0, 1, -39.65,-33.35) ">
<use xlink:href="#icon_r_box_02_27_Layer2_0_MEMBER_0_MEMBER_1_1_STROKES"/>
</g>

<g transform="matrix( 1, 0, 0, 1, -39.65,-33.35) ">
<use xlink:href="#icon_r_box_02_27_Layer2_0_MEMBER_0_MEMBER_2_1_STROKES"/>
</g>

<g transform="matrix( 1, 0, 0, 1, -39.65,-33.35) ">
<use xlink:href="#icon_r_box_02_27_Layer2_0_MEMBER_0_MEMBER_3_MEMBER_0_FILL"/>

<use xlink:href="#icon_r_box_02_27_Layer2_0_MEMBER_0_MEMBER_3_MEMBER_0_1_STROKES"/>
</g>

<g transform="matrix( 1, 0, 0, 1, -39.65,-33.35) ">
<use xlink:href="#icon_r_box_02_27_Layer2_0_MEMBER_0_MEMBER_3_MEMBER_1_FILL"/>
</g>

<g transform="matrix( 1, 0, 0, 1, -39.65,-33.35) ">
<use xlink:href="#icon_r_box_02_27_Layer2_0_MEMBER_0_MEMBER_3_MEMBER_2_1_STROKES"/>
</g>

<g transform="matrix( 1, 0, 0, 1, -39.65,-33.35) ">
<use xlink:href="#icon_r_box_02_27_Layer2_0_MEMBER_0_MEMBER_3_MEMBER_3_FILL"/>

<use xlink:href="#icon_r_box_02_27_Layer2_0_MEMBER_0_MEMBER_3_MEMBER_3_1_STROKES"/>
</g>

<g transform="matrix( 1, 0, 0, 1, -39.65,-33.35) ">
<use xlink:href="#icon_r_box_02_27_Layer2_0_MEMBER_0_MEMBER_3_MEMBER_4_FILL"/>
</g>

<g transform="matrix( 1, 0, 0, 1, -39.65,-33.35) ">
<use xlink:href="#icon_r_box_02_27_Layer2_0_MEMBER_0_MEMBER_3_MEMBER_5_1_STROKES"/>
</g>

<g transform="matrix( 1, 0, 0, 1, -39.65,-33.35) ">
<use xlink:href="#icon_r_box_02_27_Layer2_0_MEMBER_0_MEMBER_4_MEMBER_0_1_STROKES"/>
</g>

<g transform="matrix( 1, 0, 0, 1, -39.65,-33.35) ">
<use xlink:href="#icon_r_box_02_27_Layer2_0_MEMBER_0_MEMBER_5_MEMBER_0_1_STROKES"/>
</g>

<g transform="matrix( 1, 0, 0, 1, -39.65,-33.35) ">
<use xlink:href="#icon_r_box_02_27_Layer2_0_MEMBER_0_MEMBER_6_MEMBER_0_1_STROKES"/>
</g>

<g transform="matrix( 1, 0, 0, 1, -39.65,-33.35) ">
<use xlink:href="#icon_r_box_02_27_Layer2_0_MEMBER_0_MEMBER_7_MEMBER_0_1_STROKES"/>
</g>

<g transform="matrix( 1, 0, 0, 1, -39.65,-33.35) ">
<use xlink:href="#icon_r_box_02_27_Layer2_0_MEMBER_0_MEMBER_8_MEMBER_0_1_STROKES"/>
</g>

<g transform="matrix( 1, 0, 0, 1, -39.65,-33.35) ">
<use xlink:href="#icon_r_box_02_27_Layer2_0_MEMBER_0_MEMBER_9_MEMBER_0_1_STROKES"/>
</g>

<g transform="matrix( 1, 0, 0, 1, -39.65,-33.35) ">
<use xlink:href="#icon_r_box_02_27_Layer2_0_MEMBER_0_MEMBER_10_MEMBER_0_1_STROKES"/>
</g>

<g transform="matrix( 1, 0, 0, 1, -39.65,-33.35) ">
<use xlink:href="#icon_r_box_02_27_Layer2_0_MEMBER_0_MEMBER_11_MEMBER_0_1_STROKES"/>
</g>

<g transform="matrix( 1, 0, 0, 1, -39.65,-33.35) ">
<use xlink:href="#icon_r_box_02_27_Layer2_0_MEMBER_0_MEMBER_12_MEMBER_0_1_STROKES"/>
</g>

<g transform="matrix( 1, 0, 0, 1, -39.65,-33.35) ">
<use xlink:href="#icon_r_box_02_27_Layer2_0_MEMBER_0_MEMBER_13_1_STROKES"/>
</g>

<g transform="matrix( 1, 0, 0, 1, -39.65,-33.35) ">
<use xlink:href="#icon_r_box_02_27_Layer2_0_MEMBER_0_MEMBER_14_FILL"/>

<use xlink:href="#icon_r_box_02_27_Layer2_0_MEMBER_0_MEMBER_14_1_STROKES"/>
</g>

<g transform="matrix( 1, 0, 0, 1, -39.65,-33.35) ">
<use xlink:href="#icon_r_box_02_27_Layer2_0_MEMBER_0_MEMBER_15_FILL"/>

<use xlink:href="#icon_r_box_02_27_Layer2_0_MEMBER_0_MEMBER_15_1_STROKES"/>
</g>

<g transform="matrix( 1, 0, 0, 1, -39.65,-33.35) ">
<use xlink:href="#icon_r_box_02_27_Layer2_0_MEMBER_0_MEMBER_16_FILL"/>

<use xlink:href="#icon_r_box_02_27_Layer2_0_MEMBER_0_MEMBER_16_1_STROKES"/>
</g>
</g>
</svg>
