
<svg xmlns="http://www.w3.org/2000/svg" version="1.1" xmlns:xlink="http://www.w3.org/1999/xlink" preserveAspectRatio="none" x="0px" y="0px" width="130px" height="115px" viewBox="0 0 130 115">
<defs>
<g id="icon_r_box_02_3_Layer3_0_FILL">
<path fill="#FFFFFF" fill-opacity="0" stroke="none" d="
M 65 -55
L -65 -55 -65 25 65 25 65 -55 Z"/>
</g>

<g id="icon_r_box_02_3_Layer3_1_FILL">
<path fill="#FFFFFF" fill-opacity="0" stroke="none" d="
M 65.05 49.95
L 65.05 24.95 -64.95 24.95 -64.95 49.95 65.05 49.95 Z"/>
</g>

<g id="icon_r_box_02_3_Layer3_2_FILL">
<path fill="#FFFFFF" fill-opacity="0" stroke="none" d="
M 65 -52.85
L 65 -57.85 -65 -57.85 -65 -52.85 65 -52.85 Z"/>
</g>

<g id="icon_r_box_02_3_Layer3_3_FILL">
<path fill="#FFFFFF" fill-opacity="0" stroke="none" d="
M 65 54.95
L 65 49.95 -65 49.95 -65 54.95 65 54.95 Z"/>
</g>

<g id="icon_r_box_02_3_Layer2_0_MEMBER_0_MEMBER_0_FILL">
<path fill="#CDB9B7" stroke="none" d="
M 74.6 19.35
Q 74.6 17.45 73.3 16.15 71.95 14.8 70.05 14.8
L 67.4 14.8 67.4 5.05
Q 67.4 3.15 66.05 1.8 64.75 0.5 62.85 0.5
L 49.4 0.5
Q 47.5 0.5 46.15 1.8 44.85 3.15 44.85 5.05
L 44.85 35.45 74.6 35.45 74.6 19.35 Z"/>
</g>

<g id="icon_r_box_02_3_Layer2_0_MEMBER_0_MEMBER_1_MEMBER_0_FILL">
<path fill="#CDB9B7" stroke="none" d="
M 35.7 6.15
Q 35.7 4.25 34.35 2.9 33.05 1.6 31.15 1.6
L 18.5 1.6
Q 16.6 1.6 15.3 2.9 13.95 4.25 13.95 6.15
L 13.95 11.55 10.75 11.55
Q 8.85 11.55 7.5 12.9 6.2 14.2 6.2 16.1
L 6.2 35.45 35.7 35.45 35.7 6.15 Z"/>
</g>

<g id="icon_r_box_02_3_Layer2_0_MEMBER_0_MEMBER_1_MEMBER_1_FILL">
<path fill="#94DA71" stroke="none" d="
M 34.35 2.9
Q 33.05 1.6 31.15 1.6
L 18.5 1.6
Q 16.6 1.6 15.3 2.9 13.95 4.25 13.95 6.15
L 13.95 6.4
Q 14.9 6.8 16.15 6.6 17.45 6.4 18.4 5.65 19.7 4.65 21.5 5.2 22.25 5.45 24.35 6.65 25.45 7.3 27.15 6.95 28.35 6.75 30.55 5.85 32.15 5.2 33.15 5.35 34.05 5.45 35.7 6.45
L 35.7 6.15
Q 35.7 4.25 34.35 2.9 Z"/>
</g>

<g id="icon_r_box_02_3_Layer2_0_MEMBER_0_MEMBER_1_MEMBER_3_MEMBER_0_MEMBER_0_FILL">
<path fill="#4CB9FF" stroke="none" d="
M 44.75 35.45
L 44.75 6.65
Q 44.75 5.45 45.6 4.65 46.4234375 3.8265625 47.5 3.8
L 29.85 3.8
Q 28.7 3.8 27.85 4.65 27.05 5.45 27.05 6.65
L 27.05 35.45 44.75 35.45 Z"/>
</g>

<g id="icon_r_box_02_3_Layer2_0_MEMBER_0_MEMBER_1_MEMBER_4_FILL">
<path fill="#94DA71" stroke="none" d="
M 65.65 1.45
Q 64.4 0.5 62.85 0.5
L 49.4 0.5
Q 47.55 0.5 46.25 1.75 44.95 3 44.85 4.8 47.75 5.6 50.95 4.35 52.6 3.65 54.9 4.15 56.2 4.4 58.7 5.1 60.65 5.55 63.05 4.7 65.75 3.8 67.2 3.85 66.8 2.4 65.65 1.45 Z"/>
</g>

<g id="icon_r_box_02_3_Layer2_0_MEMBER_0_MEMBER_1_MEMBER_5_FILL">
<path fill="#FFFFFF" stroke="none" d="
M 50.95 35.45
Q 50.95 34.15 50.05 33.25 49.1 32.35 47.8 32.35 46.6 32.35 45.7 33.15 45.25 32.1 44.25 31.45 43.25 30.75 42.05 30.75 40.75 30.75 39.7 31.5 38.65 32.25 38.25 33.45 37.9 33.2 37.2 33.2 36.25 33.2 35.65 33.8 34.6 32.4 32.85 32.4 32.45 32.4 31.75 32.6 31.2 31.6 30.15 31 29.15 30.4 27.95 30.4 26.65 30.4 25.6 31.1 24.55 31.75 24 32.9 23.4 32.65 22.85 32.65 21.7 32.65 20.85 33.45 20.05 34.3 20.05 35.45
L 50.95 35.45 Z"/>
</g>

<g id="icon_r_box_02_3_Layer2_0_MEMBER_0_MEMBER_1_MEMBER_10_MEMBER_0_MEMBER_0_FILL">
<path fill="#CDB9B7" stroke="none" d="
M 48.45 13.05
L 59.75 10.15 51.55 10.15
Q 50 10.15 49.15 11.15 48.45 11.95 48.45 13.05 Z"/>
</g>

<g id="icon_r_box_02_3_Layer2_0_MEMBER_0_MEMBER_1_MEMBER_10_MEMBER_1_MEMBER_0_FILL">
<path fill="#CDB9B7" stroke="none" d="
M 52.95 18.8
L 55.2 10.15
Q 53.9 10.15 53.3 11.5 52.95 12.3 52.95 13.45
L 52.95 18.8 Z"/>
</g>

<g id="icon_r_box_02_3_Layer2_0_MEMBER_0_MEMBER_3_MEMBER_0_FILL">
<path fill="#CDB9B7" stroke="none" d="
M 64.3 20.4
L 71.55 22.65
Q 71.55 21.6 70.85 20.95 70.25 20.4 69.3 20.4
L 64.3 20.4 Z"/>
</g>

<path id="icon_r_box_02_3_Layer2_0_MEMBER_0_MEMBER_0_1_STROKES" stroke="#000000" stroke-width="1" stroke-linejoin="round" stroke-linecap="round" fill="none" d="
M 74.6 19.35
L 74.6 35.45 44.85 35.45 44.85 5.05
Q 44.85 3.15 46.15 1.8 47.5 0.5 49.4 0.5
L 62.85 0.5
Q 64.75 0.5 66.05 1.8 67.4 3.15 67.4 5.05
L 67.4 14.8 70.05 14.8
Q 71.95 14.8 73.3 16.15 74.6 17.45 74.6 19.35 Z"/>

<path id="icon_r_box_02_3_Layer2_0_MEMBER_0_MEMBER_1_MEMBER_0_1_STROKES" stroke="#000000" stroke-width="1" stroke-linejoin="round" stroke-linecap="round" fill="none" d="
M 35.7 6.15
L 35.7 35.45 6.2 35.45 6.2 16.1
Q 6.2 14.2 7.5 12.9 8.85 11.55 10.75 11.55
L 13.95 11.55 13.95 6.15
Q 13.95 4.25 15.3 2.9 16.6 1.6 18.5 1.6
L 31.15 1.6
Q 33.05 1.6 34.35 2.9 35.7 4.25 35.7 6.15 Z"/>

<path id="icon_r_box_02_3_Layer2_0_MEMBER_0_MEMBER_1_MEMBER_1_1_STROKES" stroke="#000000" stroke-width="1" stroke-linejoin="round" stroke-linecap="round" fill="none" d="
M 31.15 1.6
L 18.5 1.6
Q 16.6 1.6 15.3 2.9 13.95 4.25 13.95 6.15
L 13.95 6.4
Q 14.9 6.8 16.15 6.6 17.45 6.4 18.4 5.65 19.7 4.65 21.5 5.2 22.25 5.45 24.35 6.65 25.45 7.3 27.15 6.95 28.35 6.75 30.55 5.85 32.15 5.2 33.15 5.35 34.05 5.45 35.7 6.45
L 35.7 6.15
Q 35.7 4.25 34.35 2.9 33.05 1.6 31.15 1.6 Z"/>

<path id="icon_r_box_02_3_Layer2_0_MEMBER_0_MEMBER_1_MEMBER_2_1_STROKES" stroke="#000000" stroke-width="1" stroke-linejoin="round" stroke-linecap="round" fill="none" d="
M 22.1 11.55
L 29.95 11.55"/>

<path id="icon_r_box_02_3_Layer2_0_MEMBER_0_MEMBER_1_MEMBER_3_MEMBER_0_MEMBER_0_1_STROKES" stroke="#000000" stroke-width="1" stroke-linejoin="round" stroke-linecap="round" fill="none" d="
M 47.525 3.8
Q 46.4234375 3.8265625 45.6 4.65 44.75 5.45 44.75 6.65
L 44.75 35.45 27.05 35.45 27.05 6.65
Q 27.05 5.45 27.85 4.65 28.7 3.8 29.85 3.8
L 47.525 3.8 Z"/>

<path id="icon_r_box_02_3_Layer2_0_MEMBER_0_MEMBER_1_MEMBER_3_MEMBER_0_MEMBER_1_1_STROKES" stroke="#FFFFFF" stroke-width="1" stroke-linejoin="round" stroke-linecap="round" fill="none" d="
M 29.95 9.25
L 29.95 17.45"/>

<path id="icon_r_box_02_3_Layer2_0_MEMBER_0_MEMBER_1_MEMBER_3_MEMBER_0_MEMBER_2_1_STROKES" stroke="#FFFFFF" stroke-width="1" stroke-linejoin="round" stroke-linecap="round" fill="none" d="
M 32.95 7.35
L 32.95 11.8"/>

<path id="icon_r_box_02_3_Layer2_0_MEMBER_0_MEMBER_1_MEMBER_3_MEMBER_0_MEMBER_3_1_STROKES" stroke="#FFFFFF" stroke-width="1" stroke-linejoin="round" stroke-linecap="round" fill="none" d="
M 32.95 14
L 32.95 15.6"/>

<path id="icon_r_box_02_3_Layer2_0_MEMBER_0_MEMBER_1_MEMBER_3_MEMBER_0_MEMBER_4_1_STROKES" stroke="#FFFFFF" stroke-width="1" stroke-linejoin="round" stroke-linecap="round" fill="none" d="
M 38.4 12.95
L 38.4 18.3"/>

<path id="icon_r_box_02_3_Layer2_0_MEMBER_0_MEMBER_1_MEMBER_3_MEMBER_0_MEMBER_5_1_STROKES" stroke="#FFFFFF" stroke-width="1" stroke-linejoin="round" stroke-linecap="round" fill="none" d="
M 41.55 16.3
L 41.55 19.45"/>

<path id="icon_r_box_02_3_Layer2_0_MEMBER_0_MEMBER_1_MEMBER_3_MEMBER_0_MEMBER_6_1_STROKES" stroke="#FFFFFF" stroke-width="1" stroke-linejoin="round" stroke-linecap="round" fill="none" d="
M 41.55 7.05
L 41.55 10.55"/>

<path id="icon_r_box_02_3_Layer2_0_MEMBER_0_MEMBER_1_MEMBER_3_MEMBER_1_1_STROKES" stroke="#FFFFFF" stroke-width="1" stroke-linejoin="round" stroke-linecap="round" fill="none" d="
M 31.5 22.75
L 31.5 26.85"/>

<path id="icon_r_box_02_3_Layer2_0_MEMBER_0_MEMBER_1_MEMBER_3_MEMBER_2_1_STROKES" stroke="#FFFFFF" stroke-width="1" stroke-linejoin="round" stroke-linecap="round" fill="none" d="
M 36 22.75
L 36 30.05"/>

<path id="icon_r_box_02_3_Layer2_0_MEMBER_0_MEMBER_1_MEMBER_3_MEMBER_3_1_STROKES" stroke="#FFFFFF" stroke-width="1" stroke-linejoin="round" stroke-linecap="round" fill="none" d="
M 39.15 25.35
L 39.15 26.4"/>

<path id="icon_r_box_02_3_Layer2_0_MEMBER_0_MEMBER_1_MEMBER_4_1_STROKES" stroke="#000000" stroke-width="1" stroke-linejoin="round" stroke-linecap="round" fill="none" d="
M 62.85 0.5
L 49.4 0.5
Q 47.55 0.5 46.25 1.75 44.95 3 44.85 4.8 47.75 5.6 50.95 4.35 52.6 3.65 54.9 4.15 56.2 4.4 58.7 5.1 60.65 5.55 63.05 4.7 65.75 3.8 67.2 3.85 66.8 2.4 65.65 1.45 64.4 0.5 62.85 0.5 Z"/>

<path id="icon_r_box_02_3_Layer2_0_MEMBER_0_MEMBER_1_MEMBER_5_1_STROKES" stroke="#000000" stroke-width="1" stroke-linejoin="round" stroke-linecap="round" fill="none" d="
M 50.95 35.45
L 20.05 35.45
Q 20.05 34.3 20.85 33.45 21.7 32.65 22.85 32.65 23.4 32.65 24 32.9 24.55 31.75 25.6 31.1 26.65 30.4 27.95 30.4 29.15 30.4 30.15 31 31.2 31.6 31.75 32.6 32.45 32.4 32.85 32.4 34.6 32.4 35.65 33.8 36.25 33.2 37.2 33.2 37.9 33.2 38.25 33.45 38.65 32.25 39.7 31.5 40.75 30.75 42.05 30.75 43.25 30.75 44.25 31.45 45.25 32.1 45.7 33.15 46.6 32.35 47.8 32.35 49.1 32.35 50.05 33.25 50.95 34.15 50.95 35.45 Z"/>

<path id="icon_r_box_02_3_Layer2_0_MEMBER_0_MEMBER_1_MEMBER_6_MEMBER_0_1_STROKES" stroke="#000000" stroke-width="1" stroke-linejoin="round" stroke-linecap="round" fill="none" d="
M 13.95 11.55
L 17.45 11.55"/>

<path id="icon_r_box_02_3_Layer2_0_MEMBER_0_MEMBER_1_MEMBER_7_1_STROKES" stroke="#000000" stroke-width="1" stroke-linejoin="round" stroke-linecap="round" fill="none" d="
M 22 18.95
L 18.75 18.95
Q 17.2 18.95 16.4 19.9 15.7 20.7 15.7 21.8"/>

<path id="icon_r_box_02_3_Layer2_0_MEMBER_0_MEMBER_1_MEMBER_8_1_STROKES" stroke="#000000" stroke-width="1" stroke-linejoin="round" stroke-linecap="round" fill="none" d="
M 15.7 25.35
L 15.7 30.4"/>

<path id="icon_r_box_02_3_Layer2_0_MEMBER_0_MEMBER_1_MEMBER_9_1_STROKES" stroke="#000000" stroke-width="1" stroke-linejoin="round" stroke-linecap="round" fill="none" d="
M 12.85 27.85
L 12.85 35.45"/>

<path id="icon_r_box_02_3_Layer2_0_MEMBER_0_MEMBER_1_MEMBER_10_MEMBER_0_MEMBER_1_1_STROKES" stroke="#000000" stroke-width="1" stroke-linejoin="round" stroke-linecap="round" fill="none" d="
M 59.75 10.15
L 51.55 10.15
Q 50 10.15 49.15 11.15 48.45 11.95 48.45 13.05"/>

<path id="icon_r_box_02_3_Layer2_0_MEMBER_0_MEMBER_1_MEMBER_10_MEMBER_1_MEMBER_1_1_STROKES" stroke="#000000" stroke-width="1" stroke-linejoin="round" stroke-linecap="round" fill="none" d="
M 55.2 10.15
Q 53.9 10.15 53.3 11.5 52.95 12.3 52.95 13.45
L 52.95 18.8"/>

<path id="icon_r_box_02_3_Layer2_0_MEMBER_0_MEMBER_1_MEMBER_10_MEMBER_2_MEMBER_0_1_STROKES" stroke="#000000" stroke-width="1" stroke-linejoin="round" stroke-linecap="round" fill="none" d="
M 54.75 16.1
L 54.75 21.15"/>

<path id="icon_r_box_02_3_Layer2_0_MEMBER_0_MEMBER_2_MEMBER_0_1_STROKES" stroke="#000000" stroke-width="1" stroke-linejoin="round" stroke-linecap="round" fill="none" d="
M 67.4 14.8
L 67.4 20.4"/>

<path id="icon_r_box_02_3_Layer2_0_MEMBER_0_MEMBER_3_MEMBER_1_1_STROKES" stroke="#000000" stroke-width="1" stroke-linejoin="round" stroke-linecap="round" fill="none" d="
M 64.3 20.4
L 69.3 20.4
Q 70.25 20.4 70.85 20.95 71.55 21.6 71.55 22.65"/>

<path id="icon_r_box_02_3_Layer2_0_MEMBER_0_MEMBER_4_MEMBER_0_1_STROKES" stroke="#000000" stroke-width="1" stroke-linejoin="round" stroke-linecap="round" fill="none" d="
M 71.55 24.8
L 71.55 27.85"/>

<path id="icon_r_box_02_3_Layer2_0_MEMBER_0_MEMBER_5_MEMBER_0_1_STROKES" stroke="#000000" stroke-width="1" stroke-linejoin="round" stroke-linecap="round" fill="none" d="
M 59.1 28.45
L 59.1 35.45"/>

<path id="icon_r_box_02_3_Layer2_0_MEMBER_0_MEMBER_6_MEMBER_0_1_STROKES" stroke="#000000" stroke-width="1" stroke-linejoin="round" stroke-linecap="round" fill="none" d="
M 56.05 30.75
L 56.05 32.95"/>

<path id="icon_r_box_02_3_Layer2_0_MEMBER_1_1_STROKES" stroke="#000000" stroke-width="1" stroke-linejoin="round" stroke-linecap="round" fill="none" d="
M 0.5 35.45
L 79.35 35.45"/>
</defs>

<g transform="matrix( 1, 0, 0, 0.999603271484375, 65,60) ">
<g transform="matrix( 1, 0, 0, 1, 0,0) ">
<use xlink:href="#icon_r_box_02_3_Layer3_0_FILL"/>
</g>

<g transform="matrix( 1, 0, 0, 1, -0.05,0.05) ">
<use xlink:href="#icon_r_box_02_3_Layer3_1_FILL"/>
</g>

<g transform="matrix( 1, 0, 0, 1, 0,-2.15) ">
<use xlink:href="#icon_r_box_02_3_Layer3_2_FILL"/>
</g>

<g transform="matrix( 1, 0, 0, 1, 0,0.05) ">
<use xlink:href="#icon_r_box_02_3_Layer3_3_FILL"/>
</g>

<g transform="matrix( 1, 0, 0, 1, -39.95,-26.7) ">
<use xlink:href="#icon_r_box_02_3_Layer2_0_MEMBER_0_MEMBER_0_FILL"/>

<use xlink:href="#icon_r_box_02_3_Layer2_0_MEMBER_0_MEMBER_0_1_STROKES"/>
</g>

<g transform="matrix( 1, 0, 0, 1, -39.95,-26.7) ">
<use xlink:href="#icon_r_box_02_3_Layer2_0_MEMBER_0_MEMBER_1_MEMBER_0_FILL"/>

<use xlink:href="#icon_r_box_02_3_Layer2_0_MEMBER_0_MEMBER_1_MEMBER_0_1_STROKES"/>
</g>

<g transform="matrix( 1, 0, 0, 1, -39.95,-26.7) ">
<use xlink:href="#icon_r_box_02_3_Layer2_0_MEMBER_0_MEMBER_1_MEMBER_1_FILL"/>

<use xlink:href="#icon_r_box_02_3_Layer2_0_MEMBER_0_MEMBER_1_MEMBER_1_1_STROKES"/>
</g>

<g transform="matrix( 1, 0, 0, 1, -39.95,-26.7) ">
<use xlink:href="#icon_r_box_02_3_Layer2_0_MEMBER_0_MEMBER_1_MEMBER_2_1_STROKES"/>
</g>

<g transform="matrix( 1, 0, 0, 1, -39.95,-26.7) ">
<use xlink:href="#icon_r_box_02_3_Layer2_0_MEMBER_0_MEMBER_1_MEMBER_3_MEMBER_0_MEMBER_0_FILL"/>

<use xlink:href="#icon_r_box_02_3_Layer2_0_MEMBER_0_MEMBER_1_MEMBER_3_MEMBER_0_MEMBER_0_1_STROKES"/>
</g>

<g transform="matrix( 1, 0, 0, 1, -39.95,-26.7) ">
<use xlink:href="#icon_r_box_02_3_Layer2_0_MEMBER_0_MEMBER_1_MEMBER_3_MEMBER_0_MEMBER_1_1_STROKES"/>
</g>

<g transform="matrix( 1, 0, 0, 1, -39.95,-26.7) ">
<use xlink:href="#icon_r_box_02_3_Layer2_0_MEMBER_0_MEMBER_1_MEMBER_3_MEMBER_0_MEMBER_2_1_STROKES"/>
</g>

<g transform="matrix( 1, 0, 0, 1, -39.95,-26.7) ">
<use xlink:href="#icon_r_box_02_3_Layer2_0_MEMBER_0_MEMBER_1_MEMBER_3_MEMBER_0_MEMBER_3_1_STROKES"/>
</g>

<g transform="matrix( 1, 0, 0, 1, -39.95,-26.7) ">
<use xlink:href="#icon_r_box_02_3_Layer2_0_MEMBER_0_MEMBER_1_MEMBER_3_MEMBER_0_MEMBER_4_1_STROKES"/>
</g>

<g transform="matrix( 1, 0, 0, 1, -39.95,-26.7) ">
<use xlink:href="#icon_r_box_02_3_Layer2_0_MEMBER_0_MEMBER_1_MEMBER_3_MEMBER_0_MEMBER_5_1_STROKES"/>
</g>

<g transform="matrix( 1, 0, 0, 1, -39.95,-26.7) ">
<use xlink:href="#icon_r_box_02_3_Layer2_0_MEMBER_0_MEMBER_1_MEMBER_3_MEMBER_0_MEMBER_6_1_STROKES"/>
</g>

<g transform="matrix( 1, 0, 0, 1, -39.95,-26.7) ">
<use xlink:href="#icon_r_box_02_3_Layer2_0_MEMBER_0_MEMBER_1_MEMBER_3_MEMBER_1_1_STROKES"/>
</g>

<g transform="matrix( 1, 0, 0, 1, -39.95,-26.7) ">
<use xlink:href="#icon_r_box_02_3_Layer2_0_MEMBER_0_MEMBER_1_MEMBER_3_MEMBER_2_1_STROKES"/>
</g>

<g transform="matrix( 1, 0, 0, 1, -39.95,-26.7) ">
<use xlink:href="#icon_r_box_02_3_Layer2_0_MEMBER_0_MEMBER_1_MEMBER_3_MEMBER_3_1_STROKES"/>
</g>

<g transform="matrix( 1, 0, 0, 1, -39.95,-26.7) ">
<use xlink:href="#icon_r_box_02_3_Layer2_0_MEMBER_0_MEMBER_1_MEMBER_4_FILL"/>

<use xlink:href="#icon_r_box_02_3_Layer2_0_MEMBER_0_MEMBER_1_MEMBER_4_1_STROKES"/>
</g>

<g transform="matrix( 1, 0, 0, 1, -39.95,-26.7) ">
<use xlink:href="#icon_r_box_02_3_Layer2_0_MEMBER_0_MEMBER_1_MEMBER_5_FILL"/>

<use xlink:href="#icon_r_box_02_3_Layer2_0_MEMBER_0_MEMBER_1_MEMBER_5_1_STROKES"/>
</g>

<g transform="matrix( 1, 0, 0, 1, -39.95,-26.7) ">
<use xlink:href="#icon_r_box_02_3_Layer2_0_MEMBER_0_MEMBER_1_MEMBER_6_MEMBER_0_1_STROKES"/>
</g>

<g transform="matrix( 1, 0, 0, 1, -39.95,-26.7) ">
<use xlink:href="#icon_r_box_02_3_Layer2_0_MEMBER_0_MEMBER_1_MEMBER_7_1_STROKES"/>
</g>

<g transform="matrix( 1, 0, 0, 1, -39.95,-26.7) ">
<use xlink:href="#icon_r_box_02_3_Layer2_0_MEMBER_0_MEMBER_1_MEMBER_8_1_STROKES"/>
</g>

<g transform="matrix( 1, 0, 0, 1, -39.95,-26.7) ">
<use xlink:href="#icon_r_box_02_3_Layer2_0_MEMBER_0_MEMBER_1_MEMBER_9_1_STROKES"/>
</g>

<g transform="matrix( 1, 0, 0, 1, -39.95,-26.7) ">
<use xlink:href="#icon_r_box_02_3_Layer2_0_MEMBER_0_MEMBER_1_MEMBER_10_MEMBER_0_MEMBER_0_FILL"/>
</g>

<g transform="matrix( 1, 0, 0, 1, -39.95,-26.7) ">
<use xlink:href="#icon_r_box_02_3_Layer2_0_MEMBER_0_MEMBER_1_MEMBER_10_MEMBER_0_MEMBER_1_1_STROKES"/>
</g>

<g transform="matrix( 1, 0, 0, 1, -39.95,-26.7) ">
<use xlink:href="#icon_r_box_02_3_Layer2_0_MEMBER_0_MEMBER_1_MEMBER_10_MEMBER_1_MEMBER_0_FILL"/>
</g>

<g transform="matrix( 1, 0, 0, 1, -39.95,-26.7) ">
<use xlink:href="#icon_r_box_02_3_Layer2_0_MEMBER_0_MEMBER_1_MEMBER_10_MEMBER_1_MEMBER_1_1_STROKES"/>
</g>

<g transform="matrix( 1, 0, 0, 1, -39.95,-26.7) ">
<use xlink:href="#icon_r_box_02_3_Layer2_0_MEMBER_0_MEMBER_1_MEMBER_10_MEMBER_2_MEMBER_0_1_STROKES"/>
</g>

<g transform="matrix( 1, 0, 0, 1, -39.95,-26.7) ">
<use xlink:href="#icon_r_box_02_3_Layer2_0_MEMBER_0_MEMBER_2_MEMBER_0_1_STROKES"/>
</g>

<g transform="matrix( 1, 0, 0, 1, -39.95,-26.7) ">
<use xlink:href="#icon_r_box_02_3_Layer2_0_MEMBER_0_MEMBER_3_MEMBER_0_FILL"/>
</g>

<g transform="matrix( 1, 0, 0, 1, -39.95,-26.7) ">
<use xlink:href="#icon_r_box_02_3_Layer2_0_MEMBER_0_MEMBER_3_MEMBER_1_1_STROKES"/>
</g>

<g transform="matrix( 1, 0, 0, 1, -39.95,-26.7) ">
<use xlink:href="#icon_r_box_02_3_Layer2_0_MEMBER_0_MEMBER_4_MEMBER_0_1_STROKES"/>
</g>

<g transform="matrix( 1, 0, 0, 1, -39.95,-26.7) ">
<use xlink:href="#icon_r_box_02_3_Layer2_0_MEMBER_0_MEMBER_5_MEMBER_0_1_STROKES"/>
</g>

<g transform="matrix( 1, 0, 0, 1, -39.95,-26.7) ">
<use xlink:href="#icon_r_box_02_3_Layer2_0_MEMBER_0_MEMBER_6_MEMBER_0_1_STROKES"/>
</g>

<g transform="matrix( 1, 0, 0, 1, -39.95,-26.7) ">
<use xlink:href="#icon_r_box_02_3_Layer2_0_MEMBER_1_1_STROKES"/>
</g>
</g>
</svg>
