
<svg xmlns="http://www.w3.org/2000/svg" version="1.1" xmlns:xlink="http://www.w3.org/1999/xlink" preserveAspectRatio="none" x="0px" y="0px" width="130px" height="115px" viewBox="0 0 130 115">
<defs>
<g id="icon_r_box_02_5_Layer3_0_FILL">
<path fill="#FFFFFF" fill-opacity="0" stroke="none" d="
M 65 -55
L -65 -55 -65 25 65 25 65 -55 Z"/>
</g>

<g id="icon_r_box_02_5_Layer3_1_FILL">
<path fill="#FFFFFF" fill-opacity="0" stroke="none" d="
M 65.05 49.95
L 65.05 24.95 -64.95 24.95 -64.95 49.95 65.05 49.95 Z"/>
</g>

<g id="icon_r_box_02_5_Layer3_2_FILL">
<path fill="#FFFFFF" fill-opacity="0" stroke="none" d="
M 65 -52.85
L 65 -57.85 -65 -57.85 -65 -52.85 65 -52.85 Z"/>
</g>

<g id="icon_r_box_02_5_Layer3_3_FILL">
<path fill="#FFFFFF" fill-opacity="0" stroke="none" d="
M 65 54.95
L 65 49.95 -65 49.95 -65 54.95 65 54.95 Z"/>
</g>

<g id="icon_r_box_02_5_Layer2_0_MEMBER_0_MEMBER_0_MEMBER_0_FILL">
<path fill="#E4A08F" stroke="none" d="
M 75.45 16.95
L 75.45 14.2 3.1 14.2 3.1 16.95 75.45 16.95 Z"/>
</g>

<g id="icon_r_box_02_5_Layer2_0_MEMBER_0_MEMBER_0_MEMBER_1_FILL">
<path fill="#E4A08F" stroke="none" d="
M 73.8 32.95
L 73.8 16.95 4.75 16.95 4.75 32.95 73.8 32.95 Z"/>
</g>

<g id="icon_r_box_02_5_Layer2_0_MEMBER_0_MEMBER_0_MEMBER_2_FILL">
<path fill="#A4574D" stroke="none" d="
M 73.8 32.95
L 73.8 30.25 4.75 30.25 4.75 32.95 73.8 32.95 Z"/>
</g>

<g id="icon_r_box_02_5_Layer2_0_MEMBER_0_MEMBER_0_MEMBER_3_MEMBER_0_MEMBER_0_FILL">
<path fill="#E4A08F" stroke="none" d="
M 63.2 5.35
L 63.2 0.5 15.35 0.5 15.35 5.35 63.2 5.35 Z"/>
</g>

<g id="icon_r_box_02_5_Layer2_0_MEMBER_0_MEMBER_0_MEMBER_3_MEMBER_0_MEMBER_1_FILL">
<path fill="#E4A08F" stroke="none" d="
M 62.1 32.95
L 62.1 5.35 16.45 5.35 16.45 32.95 62.1 32.95 Z"/>
</g>

<g id="icon_r_box_02_5_Layer2_0_MEMBER_0_MEMBER_0_MEMBER_3_MEMBER_0_MEMBER_2_MEMBER_0_FILL">
<path fill="#E4A08F" stroke="none" d="
M 51.4 32.95
L 51.4 14.2 27.15 14.2 27.15 32.95 51.4 32.95 Z"/>
</g>

<g id="icon_r_box_02_5_Layer2_0_MEMBER_0_MEMBER_0_MEMBER_3_MEMBER_0_MEMBER_2_MEMBER_1_FILL">
<path fill="#FFFFFF" stroke="none" d="
M 52.65 22
L 52.65 14.2 25.9 14.2 25.9 22 52.65 22 Z"/>
</g>

<g id="icon_r_box_02_5_Layer2_0_MEMBER_0_MEMBER_0_MEMBER_3_MEMBER_0_MEMBER_2_MEMBER_2_FILL">
<path fill="#FFBC68" stroke="none" d="
M 52.65 14.2
L 51.4 14.2 47.85 22 52.65 22 52.65 14.2 Z"/>
</g>

<g id="icon_r_box_02_5_Layer2_0_MEMBER_0_MEMBER_0_MEMBER_3_MEMBER_0_MEMBER_2_MEMBER_3_FILL">
<path fill="#BAB9BC" stroke="none" d="
M 51.4 32.95
L 51.4 30.25 27.15 30.25 27.15 32.95 51.4 32.95 Z"/>
</g>

<g id="icon_r_box_02_5_Layer2_0_MEMBER_0_MEMBER_0_MEMBER_3_MEMBER_0_MEMBER_2_MEMBER_4_FILL">
<path fill="#A4574D" stroke="none" d="
M 47.15 30.25
L 47.15 22 31.4 22 31.4 30.25 47.15 30.25 Z"/>
</g>

<g id="icon_r_box_02_5_Layer2_0_MEMBER_0_MEMBER_0_MEMBER_3_MEMBER_1_MEMBER_0_FILL">
<path fill="#BAE6FF" stroke="none" d="
M 23.85 11.75
L 23.85 7.8 20.4 7.8 20.4 11.75 23.85 11.75 Z"/>
</g>

<g id="icon_r_box_02_5_Layer2_0_MEMBER_0_MEMBER_0_MEMBER_3_MEMBER_1_MEMBER_1_FILL">
<path fill="#BAE6FF" stroke="none" d="
M 32.45 11.75
L 32.45 7.8 29 7.8 29 11.75 32.45 11.75 Z"/>
</g>

<g id="icon_r_box_02_5_Layer2_0_MEMBER_0_MEMBER_0_MEMBER_3_MEMBER_1_MEMBER_2_FILL">
<path fill="#BAE6FF" stroke="none" d="
M 41 11.75
L 41 7.8 37.55 7.8 37.55 11.75 41 11.75 Z"/>
</g>

<g id="icon_r_box_02_5_Layer2_0_MEMBER_0_MEMBER_0_MEMBER_3_MEMBER_1_MEMBER_3_FILL">
<path fill="#BAE6FF" stroke="none" d="
M 49.55 11.75
L 49.55 7.8 46.1 7.8 46.1 11.75 49.55 11.75 Z"/>
</g>

<g id="icon_r_box_02_5_Layer2_0_MEMBER_0_MEMBER_0_MEMBER_3_MEMBER_1_MEMBER_4_FILL">
<path fill="#BAE6FF" stroke="none" d="
M 58.15 11.75
L 58.15 7.8 54.7 7.8 54.7 11.75 58.15 11.75 Z"/>
</g>

<g id="icon_r_box_02_5_Layer2_0_MEMBER_0_MEMBER_0_MEMBER_3_MEMBER_2_FILL">
<path fill="#BAE6FF" stroke="none" d="
M 23.85 26.1
L 23.85 22.2 20.4 22.2 20.4 26.1 23.85 26.1 Z"/>
</g>

<g id="icon_r_box_02_5_Layer2_0_MEMBER_0_MEMBER_0_MEMBER_3_MEMBER_3_FILL">
<path fill="#BAE6FF" stroke="none" d="
M 58.15 26.1
L 58.15 22.2 54.7 22.2 54.7 26.1 58.15 26.1 Z"/>
</g>

<g id="icon_r_box_02_5_Layer2_0_MEMBER_0_MEMBER_0_MEMBER_4_FILL">
<path fill="#BAE6FF" stroke="none" d="
M 12.1 26.1
L 12.1 22.2 8.65 22.2 8.65 26.1 12.1 26.1 Z"/>
</g>

<g id="icon_r_box_02_5_Layer2_0_MEMBER_0_MEMBER_0_MEMBER_5_FILL">
<path fill="#BAE6FF" stroke="none" d="
M 66.45 22.2
L 66.45 26.1 69.9 26.1 69.9 22.2 66.45 22.2 Z"/>
</g>

<g id="icon_r_box_02_5_Layer2_0_MEMBER_1_FILL">
<path fill="#01BC8C" stroke="none" d="
M 33.45 22
L 37 14.2 30.95 14.2 27.4 22 33.45 22 Z"/>
</g>

<path id="icon_r_box_02_5_Layer2_0_MEMBER_0_MEMBER_0_MEMBER_0_1_STROKES" stroke="#000000" stroke-width="1" stroke-linejoin="round" stroke-linecap="round" fill="none" d="
M 75.45 16.95
L 3.1 16.95 3.1 14.2 75.45 14.2 75.45 16.95 Z"/>

<path id="icon_r_box_02_5_Layer2_0_MEMBER_0_MEMBER_0_MEMBER_1_1_STROKES" stroke="#000000" stroke-width="1" stroke-linejoin="round" stroke-linecap="round" fill="none" d="
M 73.8 16.95
L 4.75 16.95 4.75 32.95 73.8 32.95 73.8 16.95 Z"/>

<path id="icon_r_box_02_5_Layer2_0_MEMBER_0_MEMBER_0_MEMBER_2_1_STROKES" stroke="#000000" stroke-width="1" stroke-linejoin="round" stroke-linecap="round" fill="none" d="
M 73.8 30.25
L 4.75 30.25 4.75 32.95 73.8 32.95 73.8 30.25 Z"/>

<path id="icon_r_box_02_5_Layer2_0_MEMBER_0_MEMBER_0_MEMBER_3_MEMBER_0_MEMBER_0_1_STROKES" stroke="#000000" stroke-width="1" stroke-linejoin="round" stroke-linecap="round" fill="none" d="
M 63.2 5.35
L 15.35 5.35 15.35 0.5 63.2 0.5 63.2 5.35 Z"/>

<path id="icon_r_box_02_5_Layer2_0_MEMBER_0_MEMBER_0_MEMBER_3_MEMBER_0_MEMBER_1_1_STROKES" stroke="#000000" stroke-width="1" stroke-linejoin="round" stroke-linecap="round" fill="none" d="
M 62.1 5.35
L 16.45 5.35 16.45 32.95 62.1 32.95 62.1 5.35 Z"/>

<path id="icon_r_box_02_5_Layer2_0_MEMBER_0_MEMBER_0_MEMBER_3_MEMBER_0_MEMBER_2_MEMBER_0_1_STROKES" stroke="#000000" stroke-width="1" stroke-linejoin="round" stroke-linecap="round" fill="none" d="
M 51.4 32.95
L 27.15 32.95 27.15 14.2 51.4 14.2 51.4 32.95 Z"/>

<path id="icon_r_box_02_5_Layer2_0_MEMBER_0_MEMBER_0_MEMBER_3_MEMBER_0_MEMBER_2_MEMBER_1_1_STROKES" stroke="#000000" stroke-width="1" stroke-linejoin="round" stroke-linecap="round" fill="none" d="
M 52.65 14.2
L 52.65 22 25.9 22 25.9 14.2 52.65 14.2 Z"/>

<path id="icon_r_box_02_5_Layer2_0_MEMBER_0_MEMBER_0_MEMBER_3_MEMBER_0_MEMBER_2_MEMBER_3_1_STROKES" stroke="#000000" stroke-width="1" stroke-linejoin="round" stroke-linecap="round" fill="none" d="
M 51.4 32.95
L 27.15 32.95 27.15 30.25 51.4 30.25 51.4 32.95 Z"/>

<path id="icon_r_box_02_5_Layer2_0_MEMBER_0_MEMBER_0_MEMBER_3_MEMBER_0_MEMBER_2_MEMBER_4_1_STROKES" stroke="#000000" stroke-width="1" stroke-linejoin="round" stroke-linecap="round" fill="none" d="
M 47.15 22
L 31.4 22 31.4 30.25 47.15 30.25 47.15 22 Z"/>

<path id="icon_r_box_02_5_Layer2_0_MEMBER_0_MEMBER_0_MEMBER_3_MEMBER_0_MEMBER_3_1_STROKES" stroke="#000000" stroke-width="1" stroke-linejoin="round" stroke-linecap="round" fill="none" d="
M 39.25 22
L 39.25 30.25"/>

<path id="icon_r_box_02_5_Layer2_0_MEMBER_0_MEMBER_0_MEMBER_3_MEMBER_1_MEMBER_0_1_STROKES" stroke="#000000" stroke-width="1" stroke-linejoin="round" stroke-linecap="round" fill="none" d="
M 23.85 11.75
L 20.4 11.75 20.4 7.8 23.85 7.8 23.85 11.75 Z"/>

<path id="icon_r_box_02_5_Layer2_0_MEMBER_0_MEMBER_0_MEMBER_3_MEMBER_1_MEMBER_1_1_STROKES" stroke="#000000" stroke-width="1" stroke-linejoin="round" stroke-linecap="round" fill="none" d="
M 32.45 11.75
L 29 11.75 29 7.8 32.45 7.8 32.45 11.75 Z"/>

<path id="icon_r_box_02_5_Layer2_0_MEMBER_0_MEMBER_0_MEMBER_3_MEMBER_1_MEMBER_2_1_STROKES" stroke="#000000" stroke-width="1" stroke-linejoin="round" stroke-linecap="round" fill="none" d="
M 41 11.75
L 37.55 11.75 37.55 7.8 41 7.8 41 11.75 Z"/>

<path id="icon_r_box_02_5_Layer2_0_MEMBER_0_MEMBER_0_MEMBER_3_MEMBER_1_MEMBER_3_1_STROKES" stroke="#000000" stroke-width="1" stroke-linejoin="round" stroke-linecap="round" fill="none" d="
M 49.55 11.75
L 46.1 11.75 46.1 7.8 49.55 7.8 49.55 11.75 Z"/>

<path id="icon_r_box_02_5_Layer2_0_MEMBER_0_MEMBER_0_MEMBER_3_MEMBER_1_MEMBER_4_1_STROKES" stroke="#000000" stroke-width="1" stroke-linejoin="round" stroke-linecap="round" fill="none" d="
M 58.15 11.75
L 54.7 11.75 54.7 7.8 58.15 7.8 58.15 11.75 Z"/>

<path id="icon_r_box_02_5_Layer2_0_MEMBER_0_MEMBER_0_MEMBER_3_MEMBER_2_1_STROKES" stroke="#000000" stroke-width="1" stroke-linejoin="round" stroke-linecap="round" fill="none" d="
M 23.85 26.1
L 20.4 26.1 20.4 22.2 23.85 22.2 23.85 26.1 Z"/>

<path id="icon_r_box_02_5_Layer2_0_MEMBER_0_MEMBER_0_MEMBER_3_MEMBER_3_1_STROKES" stroke="#000000" stroke-width="1" stroke-linejoin="round" stroke-linecap="round" fill="none" d="
M 58.15 26.1
L 54.7 26.1 54.7 22.2 58.15 22.2 58.15 26.1 Z"/>

<path id="icon_r_box_02_5_Layer2_0_MEMBER_0_MEMBER_0_MEMBER_4_1_STROKES" stroke="#000000" stroke-width="1" stroke-linejoin="round" stroke-linecap="round" fill="none" d="
M 12.1 26.1
L 8.65 26.1 8.65 22.2 12.1 22.2 12.1 26.1 Z"/>

<path id="icon_r_box_02_5_Layer2_0_MEMBER_0_MEMBER_0_MEMBER_5_1_STROKES" stroke="#000000" stroke-width="1" stroke-linejoin="round" stroke-linecap="round" fill="none" d="
M 66.45 26.1
L 69.9 26.1 69.9 22.2 66.45 22.2 66.45 26.1 Z"/>

<path id="icon_r_box_02_5_Layer2_0_MEMBER_0_MEMBER_1_MEMBER_0_1_STROKES" stroke="#000000" stroke-width="1" stroke-linejoin="round" stroke-linecap="round" fill="none" d="
M 0.5 32.95
L 78.05 32.95"/>

<path id="icon_r_box_02_5_Layer2_0_MEMBER_2_1_STROKES" stroke="#000000" stroke-width="1" stroke-linejoin="round" stroke-linecap="round" fill="none" d="
M 52.65 22
L 25.9 22 25.9 14.2 52.65 14.2 52.65 22 Z"/>
</defs>

<g transform="matrix( 1, 0, 0, 0.999603271484375, 65,60) ">
<g transform="matrix( 1, 0, 0, 1, 0,0) ">
<use xlink:href="#icon_r_box_02_5_Layer3_0_FILL"/>
</g>

<g transform="matrix( 1, 0, 0, 1, -0.05,0.05) ">
<use xlink:href="#icon_r_box_02_5_Layer3_1_FILL"/>
</g>

<g transform="matrix( 1, 0, 0, 1, 0,-2.15) ">
<use xlink:href="#icon_r_box_02_5_Layer3_2_FILL"/>
</g>

<g transform="matrix( 1, 0, 0, 1, 0,0.05) ">
<use xlink:href="#icon_r_box_02_5_Layer3_3_FILL"/>
</g>

<g transform="matrix( 1, 0, 0, 1, -39.25,-20.45) ">
<use xlink:href="#icon_r_box_02_5_Layer2_0_MEMBER_0_MEMBER_0_MEMBER_0_FILL"/>

<use xlink:href="#icon_r_box_02_5_Layer2_0_MEMBER_0_MEMBER_0_MEMBER_0_1_STROKES"/>
</g>

<g transform="matrix( 1, 0, 0, 1, -39.25,-20.45) ">
<use xlink:href="#icon_r_box_02_5_Layer2_0_MEMBER_0_MEMBER_0_MEMBER_1_FILL"/>

<use xlink:href="#icon_r_box_02_5_Layer2_0_MEMBER_0_MEMBER_0_MEMBER_1_1_STROKES"/>
</g>

<g transform="matrix( 1, 0, 0, 1, -39.25,-20.45) ">
<use xlink:href="#icon_r_box_02_5_Layer2_0_MEMBER_0_MEMBER_0_MEMBER_2_FILL"/>

<use xlink:href="#icon_r_box_02_5_Layer2_0_MEMBER_0_MEMBER_0_MEMBER_2_1_STROKES"/>
</g>

<g transform="matrix( 1, 0, 0, 1, -39.25,-20.45) ">
<use xlink:href="#icon_r_box_02_5_Layer2_0_MEMBER_0_MEMBER_0_MEMBER_3_MEMBER_0_MEMBER_0_FILL"/>

<use xlink:href="#icon_r_box_02_5_Layer2_0_MEMBER_0_MEMBER_0_MEMBER_3_MEMBER_0_MEMBER_0_1_STROKES"/>
</g>

<g transform="matrix( 1, 0, 0, 1, -39.25,-20.45) ">
<use xlink:href="#icon_r_box_02_5_Layer2_0_MEMBER_0_MEMBER_0_MEMBER_3_MEMBER_0_MEMBER_1_FILL"/>

<use xlink:href="#icon_r_box_02_5_Layer2_0_MEMBER_0_MEMBER_0_MEMBER_3_MEMBER_0_MEMBER_1_1_STROKES"/>
</g>

<g transform="matrix( 1, 0, 0, 1, -39.25,-20.45) ">
<use xlink:href="#icon_r_box_02_5_Layer2_0_MEMBER_0_MEMBER_0_MEMBER_3_MEMBER_0_MEMBER_2_MEMBER_0_FILL"/>

<use xlink:href="#icon_r_box_02_5_Layer2_0_MEMBER_0_MEMBER_0_MEMBER_3_MEMBER_0_MEMBER_2_MEMBER_0_1_STROKES"/>
</g>

<g transform="matrix( 1, 0, 0, 1, -39.25,-20.45) ">
<use xlink:href="#icon_r_box_02_5_Layer2_0_MEMBER_0_MEMBER_0_MEMBER_3_MEMBER_0_MEMBER_2_MEMBER_1_FILL"/>

<use xlink:href="#icon_r_box_02_5_Layer2_0_MEMBER_0_MEMBER_0_MEMBER_3_MEMBER_0_MEMBER_2_MEMBER_1_1_STROKES"/>
</g>

<g transform="matrix( 1, 0, 0, 1, -39.25,-20.45) ">
<use xlink:href="#icon_r_box_02_5_Layer2_0_MEMBER_0_MEMBER_0_MEMBER_3_MEMBER_0_MEMBER_2_MEMBER_2_FILL"/>
</g>

<g transform="matrix( 1, 0, 0, 1, -39.25,-20.45) ">
<use xlink:href="#icon_r_box_02_5_Layer2_0_MEMBER_0_MEMBER_0_MEMBER_3_MEMBER_0_MEMBER_2_MEMBER_3_FILL"/>

<use xlink:href="#icon_r_box_02_5_Layer2_0_MEMBER_0_MEMBER_0_MEMBER_3_MEMBER_0_MEMBER_2_MEMBER_3_1_STROKES"/>
</g>

<g transform="matrix( 1, 0, 0, 1, -39.25,-20.45) ">
<use xlink:href="#icon_r_box_02_5_Layer2_0_MEMBER_0_MEMBER_0_MEMBER_3_MEMBER_0_MEMBER_2_MEMBER_4_FILL"/>

<use xlink:href="#icon_r_box_02_5_Layer2_0_MEMBER_0_MEMBER_0_MEMBER_3_MEMBER_0_MEMBER_2_MEMBER_4_1_STROKES"/>
</g>

<g transform="matrix( 1, 0, 0, 1, -39.25,-20.45) ">
<use xlink:href="#icon_r_box_02_5_Layer2_0_MEMBER_0_MEMBER_0_MEMBER_3_MEMBER_0_MEMBER_3_1_STROKES"/>
</g>

<g transform="matrix( 1, 0, 0, 1, -39.25,-20.45) ">
<use xlink:href="#icon_r_box_02_5_Layer2_0_MEMBER_0_MEMBER_0_MEMBER_3_MEMBER_1_MEMBER_0_FILL"/>

<use xlink:href="#icon_r_box_02_5_Layer2_0_MEMBER_0_MEMBER_0_MEMBER_3_MEMBER_1_MEMBER_0_1_STROKES"/>
</g>

<g transform="matrix( 1, 0, 0, 1, -39.25,-20.45) ">
<use xlink:href="#icon_r_box_02_5_Layer2_0_MEMBER_0_MEMBER_0_MEMBER_3_MEMBER_1_MEMBER_1_FILL"/>

<use xlink:href="#icon_r_box_02_5_Layer2_0_MEMBER_0_MEMBER_0_MEMBER_3_MEMBER_1_MEMBER_1_1_STROKES"/>
</g>

<g transform="matrix( 1, 0, 0, 1, -39.25,-20.45) ">
<use xlink:href="#icon_r_box_02_5_Layer2_0_MEMBER_0_MEMBER_0_MEMBER_3_MEMBER_1_MEMBER_2_FILL"/>

<use xlink:href="#icon_r_box_02_5_Layer2_0_MEMBER_0_MEMBER_0_MEMBER_3_MEMBER_1_MEMBER_2_1_STROKES"/>
</g>

<g transform="matrix( 1, 0, 0, 1, -39.25,-20.45) ">
<use xlink:href="#icon_r_box_02_5_Layer2_0_MEMBER_0_MEMBER_0_MEMBER_3_MEMBER_1_MEMBER_3_FILL"/>

<use xlink:href="#icon_r_box_02_5_Layer2_0_MEMBER_0_MEMBER_0_MEMBER_3_MEMBER_1_MEMBER_3_1_STROKES"/>
</g>

<g transform="matrix( 1, 0, 0, 1, -39.25,-20.45) ">
<use xlink:href="#icon_r_box_02_5_Layer2_0_MEMBER_0_MEMBER_0_MEMBER_3_MEMBER_1_MEMBER_4_FILL"/>

<use xlink:href="#icon_r_box_02_5_Layer2_0_MEMBER_0_MEMBER_0_MEMBER_3_MEMBER_1_MEMBER_4_1_STROKES"/>
</g>

<g transform="matrix( 1, 0, 0, 1, -39.25,-20.45) ">
<use xlink:href="#icon_r_box_02_5_Layer2_0_MEMBER_0_MEMBER_0_MEMBER_3_MEMBER_2_FILL"/>

<use xlink:href="#icon_r_box_02_5_Layer2_0_MEMBER_0_MEMBER_0_MEMBER_3_MEMBER_2_1_STROKES"/>
</g>

<g transform="matrix( 1, 0, 0, 1, -39.25,-20.45) ">
<use xlink:href="#icon_r_box_02_5_Layer2_0_MEMBER_0_MEMBER_0_MEMBER_3_MEMBER_3_FILL"/>

<use xlink:href="#icon_r_box_02_5_Layer2_0_MEMBER_0_MEMBER_0_MEMBER_3_MEMBER_3_1_STROKES"/>
</g>

<g transform="matrix( 1, 0, 0, 1, -39.25,-20.45) ">
<use xlink:href="#icon_r_box_02_5_Layer2_0_MEMBER_0_MEMBER_0_MEMBER_4_FILL"/>

<use xlink:href="#icon_r_box_02_5_Layer2_0_MEMBER_0_MEMBER_0_MEMBER_4_1_STROKES"/>
</g>

<g transform="matrix( 1, 0, 0, 1, -39.25,-20.45) ">
<use xlink:href="#icon_r_box_02_5_Layer2_0_MEMBER_0_MEMBER_0_MEMBER_5_FILL"/>

<use xlink:href="#icon_r_box_02_5_Layer2_0_MEMBER_0_MEMBER_0_MEMBER_5_1_STROKES"/>
</g>

<g transform="matrix( 1, 0, 0, 1, -39.25,-20.45) ">
<use xlink:href="#icon_r_box_02_5_Layer2_0_MEMBER_0_MEMBER_1_MEMBER_0_1_STROKES"/>
</g>

<g transform="matrix( 1, 0, 0, 1, -39.25,-20.45) ">
<use xlink:href="#icon_r_box_02_5_Layer2_0_MEMBER_1_FILL"/>
</g>

<g transform="matrix( 1, 0, 0, 1, -39.25,-20.45) ">
<use xlink:href="#icon_r_box_02_5_Layer2_0_MEMBER_2_1_STROKES"/>
</g>
</g>
</svg>
