
<svg xmlns="http://www.w3.org/2000/svg" version="1.1" xmlns:xlink="http://www.w3.org/1999/xlink" preserveAspectRatio="none" x="0px" y="0px" width="130px" height="115px" viewBox="0 0 130 115">
<defs>
<g id="icon_r_box_02_77_Layer3_0_FILL">
<path fill="#FFFFFF" fill-opacity="0" stroke="none" d="
M 65 -55
L -65 -55 -65 25 65 25 65 -55 Z"/>
</g>

<g id="icon_r_box_02_77_Layer3_1_FILL">
<path fill="#FFFFFF" fill-opacity="0" stroke="none" d="
M 65.05 49.95
L 65.05 24.95 -64.95 24.95 -64.95 49.95 65.05 49.95 Z"/>
</g>

<g id="icon_r_box_02_77_Layer3_2_FILL">
<path fill="#FFFFFF" fill-opacity="0" stroke="none" d="
M 65 -52.85
L 65 -57.85 -65 -57.85 -65 -52.85 65 -52.85 Z"/>
</g>

<g id="icon_r_box_02_77_Layer3_3_FILL">
<path fill="#FFFFFF" fill-opacity="0" stroke="none" d="
M 65 54.95
L 65 49.95 -65 49.95 -65 54.95 65 54.95 Z"/>
</g>

<g id="icon_r_box_02_77_Layer2_0_MEMBER_0_MEMBER_0_FILL">
<path fill="#D1EBFA" stroke="none" d="
M 38.4 8.15
Q 32.1 1.9 23.25 1.9 14.4 1.9 8.15 8.15 1.9 14.4 1.9 23.3 1.9 32.15 8.15 38.4 14.4 44.65 23.25 44.65 32.1 44.65 38.4 38.4 44.65 32.15 44.65 23.3 44.65 14.4 38.4 8.15 Z"/>
</g>

<g id="icon_r_box_02_77_Layer2_0_MEMBER_0_MEMBER_1_FILL">
<path fill="#13338D" stroke="none" d="
M 39.7 6.85
Q 32.9 0 23.25 0 13.65 0 6.85 6.85 0 13.65 0 23.3 0 32.9 6.85 39.75 13.65 46.55 23.25 46.55 32.9 46.55 39.7 39.75 46.5 32.9 46.5 23.3 46.5 13.65 39.7 6.85
M 23.25 3.8
Q 31.3 3.8 37.05 9.5 42.75 15.25 42.75 23.3 42.75 31.35 37.05 37.05 31.3 42.75 23.25 42.75 15.2 42.75 9.5 37.05 3.8 31.35 3.8 23.3 3.8 15.25 9.5 9.5 15.2 3.8 23.25 3.8 Z"/>
</g>

<g id="icon_r_box_02_77_Layer2_0_MEMBER_1_MEMBER_0_MEMBER_0_FILL">
<path fill="#ECE72F" stroke="none" d="
M 22.8 11.4
L 22.2 11.55
Q 21.9 11.6 20.9 12.6 20.1 13.15 19.75 13.5 19.55 13.7 19.8 14.2 19.95 14.5 20.15 14.7
L 20.45 15.4 20.95 14.8
Q 21.1 14.55 21.45 14.55 21.8 14.5 22.05 14.9 22.3 15.35 22.2 16.2 22.05 17.05 21.65 17.75 21.3 18.3 21.15 18.4 21 18.5 20.5 18.55 17 16.2 16.5 16.1 13.95 16.1 11.3 15 7.95 13.55 5.95 10.8 5.35 17.25 11.1 21.3 15.25 24.2 21.35 27.1
L 25.35 27.1
Q 31.45 24.2 35.6 21.3 41.35 17.3 40.75 10.8 38.75 13.55 35.4 15 32.75 16.1 30.2 16.1 29.5 16.35 26.05 18.7 24.85 18.4 24.6 17.25 24.4 16.45 24.65 15.85 24.95 15.4 25.1 14.95 25.5 14.15 25.4 13.15 25.3 12.15 24.65 11.75 24.35 11.5 23.55 11.4 23.2 11.35 22.8 11.4 Z"/>
</g>

<g id="icon_r_box_02_77_Layer2_0_MEMBER_1_MEMBER_0_MEMBER_1_FILL">
<path fill="#281E1C" stroke="none" d="
M 41.45 10.7
Q 41.45 10.3 40.95 10.1 40.5 9.95 40.15 10.4 38.35 12.9 35.3 14.25 32.75 15.35 30.2 15.35
L 29.95 15.4
Q 29.15 15.7 25.95 17.9 25.7 17.8 25.4 17.4 25.05 16.6 25.3 16.1
L 25.4 15.85
Q 26.25 14.55 26.1 13.1 25.9 11 23.65 10.7 23 10.6 22.4 10.8
L 22.05 10.85
Q 21.5 11 20.7 11.8
L 20.4 12.1 19.3 12.95
Q 18.45 13.75 19.55 15.1
L 19.8 15.65
Q 20 16.05 20.3 16.1 20.75 16.1 20.95 15.9
L 21.45 15.3
Q 21.6 15.5 21.5 16.15 21.35 16.85 21.05 17.4
L 20.8 17.8 20.65 17.85
Q 17.55 15.65 16.7 15.4
L 16.5 15.35
Q 13.95 15.35 11.4 14.25 8.4 12.9 6.55 10.4 6.25 9.9 5.8 10.1 5.35 10.25 5.25 10.7 4.65 17.65 10.7 21.9 14.85 24.8 21.05 27.7
L 21.35 27.8 25.35 27.8 25.65 27.7
Q 31.85 24.8 36 21.9 42.05 17.65 41.45 10.7
M 22.3 12.25
L 22.75 12.15
Q 23.2 12.05 23.5 12.1 24.1 12.2 24.35 12.35 24.65 12.6 24.7 13.25 24.8 14.1 24.2 15.15
L 23.95 15.6
Q 23.55 16.95 24.15 18.05 24.65 19 25.85 19.4 26.1 19.45 26.45 19.3 28.8 17.65 30.35 16.8 32.8 16.75 35.2 15.85 38.05 14.75 40.05 12.7 39.75 17.5 35.2 20.7 31.2 23.5 25.2 26.35
L 21.5 26.35
Q 14.7 22.95 11.5 20.7 6.95 17.5 6.65 12.7 8.65 14.75 11.5 15.85 13.95 16.75 16.35 16.8
L 20.1 19.15
Q 20.35 19.3 20.6 19.25 21.3 19.2 21.6 19 21.9 18.75 22.25 18.1 22.75 17.25 22.9 16.25 23.05 15.15 22.65 14.55 22.2 13.85 21.4 13.85 20.95 13.85 20.6 14.1
L 20.45 13.85 21.4 13.15 21.75 12.75 22.3 12.25 Z"/>
</g>

<g id="icon_r_box_02_77_Layer2_0_MEMBER_1_MEMBER_1_MEMBER_0_FILL">
<path fill="#ECE72F" stroke="none" d="
M 18.05 39.8
L 28.45 39.8 31.7 29.9 23.25 23.75 14.8 29.9 18.05 39.8 Z"/>
</g>

<g id="icon_r_box_02_77_Layer2_0_MEMBER_1_MEMBER_1_MEMBER_1_FILL">
<path fill="#281E1C" stroke="none" d="
M 23.65 23.2
Q 23.25 22.9 22.85 23.2
L 14.4 29.3
Q 14 29.65 14.15 30.1
L 17.35 40.05
Q 17.5 40.5 18.05 40.5
L 28.45 40.5
Q 29 40.5 29.15 40.05
L 32.35 30.1
Q 32.5 29.65 32.1 29.3
L 23.65 23.2
M 18.55 39.1
L 15.65 30.15 23.25 24.65 30.85 30.15 27.95 39.1 18.55 39.1 Z"/>
</g>

<g id="icon_r_box_02_77_Layer2_0_MEMBER_1_MEMBER_2_MEMBER_0_MEMBER_0_FILL">
<path fill="#2F4D9C" stroke="none" d="
M 20 34.1
Q 19.4 33.6 19.25 32.85 19.45 34.45 20.6 35.55 21.75 36.65 23.35 36.7 25.15 36.8 26.45 35.55 27.75 34.35 27.8 32.6
L 27.75 32
Q 27.6 31.25 27 30.8 26.45 30.3 25.65 30.3 24.75 30.3 24.15 30.95 23.5 31.55 23.5 32.45 23.5 33.3 22.9 33.95 22.25 34.55 21.35 34.55 20.6 34.55 20 34.1 Z"/>
</g>

<g id="icon_r_box_02_77_Layer2_0_MEMBER_1_MEMBER_2_MEMBER_0_MEMBER_1_FILL">
<path fill="#DE2C29" stroke="none" d="
M 19.2 32.25
L 19.25 32.85
Q 19.4 33.6 20 34.1 20.6 34.55 21.35 34.55 22.25 34.55 22.9 33.95 23.5 33.3 23.5 32.45 23.5 31.55 24.15 30.95 24.75 30.3 25.65 30.3 26.45 30.3 27 30.8 27.6 31.25 27.75 32 27.55 30.4 26.4 29.35 25.25 28.25 23.65 28.15 21.85 28.1 20.55 29.3 19.3 30.5 19.2 32.25 Z"/>
</g>

<g id="icon_r_box_02_77_Layer2_0_MEMBER_1_MEMBER_2_MEMBER_1_FILL">
<path fill="#281E1C" stroke="none" d="
M 19 32.25
Q 18.95 34.15 20.2 35.5 21.5 36.9 23.35 36.95
L 23.55 36.95
Q 25.25 36.95 26.6 35.75 28 34.5 28 32.6 28.1 30.75 26.8 29.35 25.55 28 23.65 27.9
L 23.5 27.9
Q 21.75 27.9 20.4 29.1 19 30.4 19 32.25
M 19.45 32.3
L 19.45 32.25
Q 19.55 30.6 20.7 29.45 21.85 28.4 23.5 28.4
L 23.65 28.4
Q 25.3 28.45 26.45 29.7 27.6 30.9 27.55 32.6 27.45 34.25 26.25 35.4 25.1 36.55 23.4 36.45 21.7 36.4 20.55 35.2 19.4 33.95 19.45 32.3 Z"/>
</g>

<g id="icon_r_box_02_77_Layer2_0_MEMBER_1_MEMBER_2_MEMBER_2_FILL">
<path fill="#281E1C" stroke="none" d="
M 19.05 32.9
Q 19.2 33.7 19.85 34.25 20.5 34.8 21.35 34.8 22.35 34.8 23.05 34.1 23.75 33.4 23.75 32.45 23.75 31.65 24.3 31.1 24.85 30.5 25.65 30.5 26.35 30.5 26.85 30.95 27.4 31.4 27.5 32.05 27.6 32.25 27.8 32.2 28 32.2 28 31.95 27.8 31.15 27.15 30.6 26.5 30.05 25.65 30.05 24.65 30.05 23.95 30.75 23.25 31.45 23.25 32.45 23.25 33.25 22.7 33.8 22.15 34.35 21.35 34.35 20.65 34.35 20.15 33.9 19.6 33.45 19.5 32.8 19.45 32.65 19.25 32.65
L 19.2 32.65
Q 19.15 32.65 19.05 32.75 19 32.85 19.05 32.9 Z"/>
</g>
</defs>

<g transform="matrix( 1, 0, 0, 0.999603271484375, 65,60) ">
<g transform="matrix( 1, 0, 0, 1, 0,0) ">
<use xlink:href="#icon_r_box_02_77_Layer3_0_FILL"/>
</g>

<g transform="matrix( 1, 0, 0, 1, -0.05,0.05) ">
<use xlink:href="#icon_r_box_02_77_Layer3_1_FILL"/>
</g>

<g transform="matrix( 1, 0, 0, 1, 0,-2.15) ">
<use xlink:href="#icon_r_box_02_77_Layer3_2_FILL"/>
</g>

<g transform="matrix( 1, 0, 0, 1, 0,0.05) ">
<use xlink:href="#icon_r_box_02_77_Layer3_3_FILL"/>
</g>

<g transform="matrix( 1, 0, 0, 1, -23.25,-38.3) ">
<use xlink:href="#icon_r_box_02_77_Layer2_0_MEMBER_0_MEMBER_0_FILL"/>
</g>

<g transform="matrix( 1, 0, 0, 1, -23.25,-38.3) ">
<use xlink:href="#icon_r_box_02_77_Layer2_0_MEMBER_0_MEMBER_1_FILL"/>
</g>

<g transform="matrix( 1, 0, 0, 1, -23.25,-38.3) ">
<use xlink:href="#icon_r_box_02_77_Layer2_0_MEMBER_1_MEMBER_0_MEMBER_0_FILL"/>
</g>

<g transform="matrix( 1, 0, 0, 1, -23.25,-38.3) ">
<use xlink:href="#icon_r_box_02_77_Layer2_0_MEMBER_1_MEMBER_0_MEMBER_1_FILL"/>
</g>

<g transform="matrix( 1, 0, 0, 1, -23.25,-38.3) ">
<use xlink:href="#icon_r_box_02_77_Layer2_0_MEMBER_1_MEMBER_1_MEMBER_0_FILL"/>
</g>

<g transform="matrix( 1, 0, 0, 1, -23.25,-38.3) ">
<use xlink:href="#icon_r_box_02_77_Layer2_0_MEMBER_1_MEMBER_1_MEMBER_1_FILL"/>
</g>

<g transform="matrix( 1, 0, 0, 1, -23.25,-38.3) ">
<use xlink:href="#icon_r_box_02_77_Layer2_0_MEMBER_1_MEMBER_2_MEMBER_0_MEMBER_0_FILL"/>
</g>

<g transform="matrix( 1, 0, 0, 1, -23.25,-38.3) ">
<use xlink:href="#icon_r_box_02_77_Layer2_0_MEMBER_1_MEMBER_2_MEMBER_0_MEMBER_1_FILL"/>
</g>

<g transform="matrix( 1, 0, 0, 1, -23.25,-38.3) ">
<use xlink:href="#icon_r_box_02_77_Layer2_0_MEMBER_1_MEMBER_2_MEMBER_1_FILL"/>
</g>

<g transform="matrix( 1, 0, 0, 1, -23.25,-38.3) ">
<use xlink:href="#icon_r_box_02_77_Layer2_0_MEMBER_1_MEMBER_2_MEMBER_2_FILL"/>
</g>
</g>
</svg>
