
<svg xmlns="http://www.w3.org/2000/svg" version="1.1" xmlns:xlink="http://www.w3.org/1999/xlink" preserveAspectRatio="none" x="0px" y="0px" width="130px" height="115px" viewBox="0 0 130 115">
<defs>
<g id="icon_r_box_02_16_Layer3_0_FILL">
<path fill="#FFFFFF" fill-opacity="0" stroke="none" d="
M 65 -55
L -65 -55 -65 25 65 25 65 -55 Z"/>
</g>

<g id="icon_r_box_02_16_Layer3_1_FILL">
<path fill="#FFFFFF" fill-opacity="0" stroke="none" d="
M 65.05 49.95
L 65.05 24.95 -64.95 24.95 -64.95 49.95 65.05 49.95 Z"/>
</g>

<g id="icon_r_box_02_16_Layer3_2_FILL">
<path fill="#FFFFFF" fill-opacity="0" stroke="none" d="
M 65 -52.85
L 65 -57.85 -65 -57.85 -65 -52.85 65 -52.85 Z"/>
</g>

<g id="icon_r_box_02_16_Layer3_3_FILL">
<path fill="#FFFFFF" fill-opacity="0" stroke="none" d="
M 65 54.95
L 65 49.95 -65 49.95 -65 54.95 65 54.95 Z"/>
</g>

<g id="icon_r_box_02_16_Layer2_0_MEMBER_0_MEMBER_0_FILL">
<path fill="#96D760" stroke="none" d="
M 77.35 33.6
Q 77.35 29.25 66.1 26.15 54.85 23.05 38.95 23.05 23.05 23.05 11.75 26.15 0.5 29.25 0.5 33.6 0.5 38 11.75 41.05 23 44.15 38.95 44.15 54.85 44.15 66.1 41.05 77.35 38 77.35 33.6 Z"/>
</g>

<g id="icon_r_box_02_16_Layer2_0_MEMBER_0_MEMBER_1_FILL">
<path fill="#7FB64C" stroke="none" d="
M 65.7 31.1
Q 65.7 28.65 57.65 26.9 49.6 25.15 38.2 25.15 26.8 25.15 18.75 26.9 10.65 28.65 10.65 31.1 10.65 33.55 18.75 35.25 26.8 37 38.2 37 49.6 37 57.65 35.25 65.7 33.55 65.7 31.1 Z"/>
</g>

<g id="icon_r_box_02_16_Layer2_0_MEMBER_1_MEMBER_0_FILL">
<path fill="#9B9F96" stroke="none" d="
M 26.95 18.05
Q 24.9 19.45 23.8 20.85 21.95 23.3 20.4 26.15 18.2 30.2 18.9 31.3 19.65 32.55 26 32.6 32.2 32.65 33 31.75 33.85 30.85 34.8 25.8 35.75 20.55 35.2 18.85 34.75 17.3 29.65 16.75 28.95 16.65 26.95 18.05 Z"/>
</g>

<g id="icon_r_box_02_16_Layer2_0_MEMBER_2_MEMBER_0_FILL">
<path fill="#9B9F96" stroke="none" d="
M 54.7 23.8
Q 54.5 17.2 54.05 16.1 53.3 14.35 48.9 14.35 46.95 14.35 45.55 15.6 44.3 16.7 43.95 18.3 43.75 19.1 42.15 24.9 40.75 30.6 41.4 31.75 42.1 33.05 47.9 33.05 53.7 33 54.3 31.75 54.85 30.6 54.7 23.8 Z"/>
</g>

<g id="icon_r_box_02_16_Layer2_0_MEMBER_3_MEMBER_0_FILL">
<path fill="#73766E" stroke="none" d="
M 35.35 21.75
Q 35.5 19.8 35.2 18.85 34.75 17.3 29.65 16.75 28.95 16.65 26.95 18.05 24.9 19.5 23.8 20.9
L 23.25 21.65
Q 29.25 22.05 35.35 21.75 Z"/>
</g>

<g id="icon_r_box_02_16_Layer2_0_MEMBER_4_MEMBER_0_FILL">
<path fill="#73766E" stroke="none" d="
M 54.45 18.95
Q 54.3 16.65 54.05 16.1 53.3 14.35 48.9 14.35 46.95 14.35 45.55 15.6 44.3 16.7 43.9 18.3
L 43.15 21
Q 49 20.25 54.45 18.95 Z"/>
</g>

<g id="icon_r_box_02_16_Layer2_0_MEMBER_7_MEMBER_0_FILL">
<path fill="#D2CFC8" stroke="none" d="
M 67.5 0.6
Q 64.65 -0.15 40.65 2.6 15.85 5.45 13.5 7.65 12 9.1 13.8 13.15 15.65 17.25 18.3 18.35 20.7 19.35 30.8 18.55 38.85 17.9 48.6 16.45 55.6 15.45 61.85 13.35 66.6 11.8 68.35 10.65 69.7 9.75 69.65 5.55 69.6 1.15 67.5 0.6 Z"/>
</g>

<g id="icon_r_box_02_16_Layer2_0_MEMBER_7_MEMBER_1_FILL">
<path fill="#E5E2DC" stroke="none" d="
M 41.3 6.4
Q 61.3 3.95 64.9 2.55 66.95 1.75 67.2 0.55 62.55 0.1 40.1 2.65 16.4 5.4 13.6 7.55 13.9 8.7 17.65 8.7 22.4 8.7 41.3 6.4 Z"/>
</g>

<path id="icon_r_box_02_16_Layer2_0_MEMBER_0_MEMBER_0_1_STROKES" stroke="#000000" stroke-width="1" stroke-linejoin="round" stroke-linecap="round" fill="none" d="
M 77.35 33.6
Q 77.35 38 66.1 41.05 54.85 44.15 38.95 44.15 23 44.15 11.75 41.05 0.5 38 0.5 33.6 0.5 29.25 11.75 26.15 23.05 23.05 38.95 23.05 54.85 23.05 66.1 26.15 77.35 29.25 77.35 33.6 Z"/>

<path id="icon_r_box_02_16_Layer2_0_MEMBER_0_MEMBER_2_MEMBER_0_1_STROKES" stroke="#000000" stroke-width="1" stroke-linejoin="round" stroke-linecap="round" fill="none" d="
M 19.15 35.7
L 19.15 36.5"/>

<path id="icon_r_box_02_16_Layer2_0_MEMBER_0_MEMBER_2_MEMBER_1_1_STROKES" stroke="#000000" stroke-width="1" stroke-linejoin="round" stroke-linecap="round" fill="none" d="
M 20.9 34.1
L 20.9 36.5"/>

<path id="icon_r_box_02_16_Layer2_0_MEMBER_0_MEMBER_2_MEMBER_2_1_STROKES" stroke="#000000" stroke-width="1" stroke-linejoin="round" stroke-linecap="round" fill="none" d="
M 22.65 35.15
L 22.65 36.5"/>

<path id="icon_r_box_02_16_Layer2_0_MEMBER_0_MEMBER_3_MEMBER_0_1_STROKES" stroke="#000000" stroke-width="1" stroke-linejoin="round" stroke-linecap="round" fill="none" d="
M 36.4 39.05
L 36.4 39.9"/>

<path id="icon_r_box_02_16_Layer2_0_MEMBER_0_MEMBER_3_MEMBER_1_1_STROKES" stroke="#000000" stroke-width="1" stroke-linejoin="round" stroke-linecap="round" fill="none" d="
M 38.2 37.5
L 38.2 39.9"/>

<path id="icon_r_box_02_16_Layer2_0_MEMBER_0_MEMBER_3_MEMBER_2_1_STROKES" stroke="#000000" stroke-width="1" stroke-linejoin="round" stroke-linecap="round" fill="none" d="
M 39.95 38.55
L 39.95 39.9"/>

<path id="icon_r_box_02_16_Layer2_0_MEMBER_0_MEMBER_4_MEMBER_0_1_STROKES" stroke="#000000" stroke-width="1" stroke-linejoin="round" stroke-linecap="round" fill="none" d="
M 62.2 31.1
L 62.2 31.9"/>

<path id="icon_r_box_02_16_Layer2_0_MEMBER_0_MEMBER_4_MEMBER_1_1_STROKES" stroke="#000000" stroke-width="1" stroke-linejoin="round" stroke-linecap="round" fill="none" d="
M 63.95 29.5
L 63.95 31.9"/>

<path id="icon_r_box_02_16_Layer2_0_MEMBER_0_MEMBER_4_MEMBER_2_1_STROKES" stroke="#000000" stroke-width="1" stroke-linejoin="round" stroke-linecap="round" fill="none" d="
M 65.7 30.55
L 65.7 31.9"/>

<path id="icon_r_box_02_16_Layer2_0_MEMBER_0_MEMBER_5_MEMBER_0_1_STROKES" stroke="#000000" stroke-width="1" stroke-linejoin="round" stroke-linecap="round" fill="none" d="
M 8.7 30.3
L 8.7 31.15"/>

<path id="icon_r_box_02_16_Layer2_0_MEMBER_0_MEMBER_5_MEMBER_1_1_STROKES" stroke="#000000" stroke-width="1" stroke-linejoin="round" stroke-linecap="round" fill="none" d="
M 10.45 28.7
L 10.45 31.15"/>

<path id="icon_r_box_02_16_Layer2_0_MEMBER_0_MEMBER_5_MEMBER_2_1_STROKES" stroke="#000000" stroke-width="1" stroke-linejoin="round" stroke-linecap="round" fill="none" d="
M 12.2 29.75
L 12.2 31.15"/>

<path id="icon_r_box_02_16_Layer2_0_MEMBER_1_MEMBER_0_1_STROKES" stroke="#000000" stroke-width="1" stroke-linejoin="round" stroke-linecap="round" fill="none" d="
M 18.9 31.3
Q 18.2 30.2 20.4 26.15 21.95 23.3 23.8 20.85 24.9 19.45 26.95 18.05 28.95 16.65 29.65 16.75 34.75 17.3 35.2 18.85 35.75 20.55 34.8 25.8 33.85 30.85 33 31.75 32.2 32.65 26 32.6 19.65 32.55 18.9 31.3 Z"/>

<path id="icon_r_box_02_16_Layer2_0_MEMBER_2_MEMBER_0_1_STROKES" stroke="#000000" stroke-width="1" stroke-linejoin="round" stroke-linecap="round" fill="none" d="
M 41.4 31.75
Q 42.1 33.05 47.9 33.05 53.7 33 54.3 31.75 54.85 30.6 54.7 23.8 54.5 17.2 54.05 16.1 53.3 14.35 48.9 14.35 46.95 14.35 45.55 15.6 44.3 16.7 43.95 18.3 43.75 19.1 42.15 24.9 40.75 30.6 41.4 31.75 Z"/>

<path id="icon_r_box_02_16_Layer2_0_MEMBER_5_MEMBER_0_1_STROKES" stroke="#000000" stroke-width="1" stroke-linejoin="round" stroke-linecap="round" fill="none" d="
M 18.9 31.3
Q 18.2 30.2 20.4 26.15 21.95 23.3 23.8 20.85 24.9 19.45 26.95 18.05 28.95 16.65 29.65 16.75 34.75 17.3 35.2 18.85 35.75 20.55 34.8 25.8 33.85 30.85 33 31.75 32.2 32.65 26 32.6 19.65 32.55 18.9 31.3 Z"/>

<path id="icon_r_box_02_16_Layer2_0_MEMBER_6_MEMBER_0_1_STROKES" stroke="#000000" stroke-width="1" stroke-linejoin="round" stroke-linecap="round" fill="none" d="
M 41.4 31.75
Q 42.1 33.05 47.9 33.05 53.7 33 54.3 31.75 54.85 30.6 54.7 23.8 54.5 17.2 54.05 16.1 53.3 14.35 48.9 14.35 46.95 14.35 45.55 15.6 44.3 16.7 43.95 18.3 43.75 19.1 42.15 24.9 40.75 30.6 41.4 31.75 Z"/>

<path id="icon_r_box_02_16_Layer2_0_MEMBER_7_MEMBER_0_1_STROKES" stroke="#000000" stroke-width="1" stroke-linejoin="round" stroke-linecap="round" fill="none" d="
M 13.5 7.65
Q 12 9.1 13.8 13.15 15.65 17.25 18.3 18.35 20.7 19.35 30.8 18.55 38.85 17.9 48.6 16.45 55.6 15.45 61.85 13.35 66.6 11.8 68.35 10.65 69.7 9.75 69.65 5.55 69.6 1.15 67.5 0.6 64.65 -0.15 40.65 2.6 15.85 5.45 13.5 7.65 Z"/>

<path id="icon_r_box_02_16_Layer2_0_MEMBER_7_MEMBER_2_MEMBER_0_1_STROKES" stroke="#000000" stroke-width="1" stroke-linejoin="round" stroke-linecap="round" fill="none" d="
M 13.5 7.65
Q 12 9.1 13.8 13.15 15.65 17.25 18.3 18.35 20.7 19.35 30.8 18.55 38.85 17.9 48.6 16.45 55.6 15.45 61.85 13.35 66.6 11.8 68.35 10.65 69.7 9.75 69.65 5.55 69.6 1.15 67.5 0.6 64.65 -0.15 40.65 2.6 15.85 5.45 13.5 7.65 Z"/>

<path id="icon_r_box_02_16_Layer2_0_MEMBER_8_1_STROKES" stroke="#000000" stroke-width="1" stroke-linejoin="miter" stroke-linecap="round" stroke-miterlimit="10" fill="none" d="
M 16.5 13.15
Q 18.35 17.2 21.25 17"/>

<path id="icon_r_box_02_16_Layer2_0_MEMBER_9_1_STROKES" stroke="#000000" stroke-width="1" stroke-linejoin="miter" stroke-linecap="round" stroke-miterlimit="10" fill="none" d="
M 23.1 17
L 24.2 16.95"/>
</defs>

<g transform="matrix( 1, 0, 0, 0.999603271484375, 65,60) ">
<g transform="matrix( 1, 0, 0, 1, 0,0) ">
<use xlink:href="#icon_r_box_02_16_Layer3_0_FILL"/>
</g>

<g transform="matrix( 1, 0, 0, 1, -0.05,0.05) ">
<use xlink:href="#icon_r_box_02_16_Layer3_1_FILL"/>
</g>

<g transform="matrix( 1, 0, 0, 1, 0,-2.15) ">
<use xlink:href="#icon_r_box_02_16_Layer3_2_FILL"/>
</g>

<g transform="matrix( 1, 0, 0, 1, 0,0.05) ">
<use xlink:href="#icon_r_box_02_16_Layer3_3_FILL"/>
</g>

<g transform="matrix( 1, 0, 0, 1, -38.95,-34.8) ">
<use xlink:href="#icon_r_box_02_16_Layer2_0_MEMBER_0_MEMBER_0_FILL"/>

<use xlink:href="#icon_r_box_02_16_Layer2_0_MEMBER_0_MEMBER_0_1_STROKES"/>
</g>

<g transform="matrix( 1, 0, 0, 1, -38.95,-34.8) ">
<use xlink:href="#icon_r_box_02_16_Layer2_0_MEMBER_0_MEMBER_1_FILL"/>
</g>

<g transform="matrix( 1, 0, 0, 1, -38.95,-34.8) ">
<use xlink:href="#icon_r_box_02_16_Layer2_0_MEMBER_0_MEMBER_2_MEMBER_0_1_STROKES"/>
</g>

<g transform="matrix( 1, 0, 0, 1, -38.95,-34.8) ">
<use xlink:href="#icon_r_box_02_16_Layer2_0_MEMBER_0_MEMBER_2_MEMBER_1_1_STROKES"/>
</g>

<g transform="matrix( 1, 0, 0, 1, -38.95,-34.8) ">
<use xlink:href="#icon_r_box_02_16_Layer2_0_MEMBER_0_MEMBER_2_MEMBER_2_1_STROKES"/>
</g>

<g transform="matrix( 1, 0, 0, 1, -38.95,-34.8) ">
<use xlink:href="#icon_r_box_02_16_Layer2_0_MEMBER_0_MEMBER_3_MEMBER_0_1_STROKES"/>
</g>

<g transform="matrix( 1, 0, 0, 1, -38.95,-34.8) ">
<use xlink:href="#icon_r_box_02_16_Layer2_0_MEMBER_0_MEMBER_3_MEMBER_1_1_STROKES"/>
</g>

<g transform="matrix( 1, 0, 0, 1, -38.95,-34.8) ">
<use xlink:href="#icon_r_box_02_16_Layer2_0_MEMBER_0_MEMBER_3_MEMBER_2_1_STROKES"/>
</g>

<g transform="matrix( 1, 0, 0, 1, -38.95,-34.8) ">
<use xlink:href="#icon_r_box_02_16_Layer2_0_MEMBER_0_MEMBER_4_MEMBER_0_1_STROKES"/>
</g>

<g transform="matrix( 1, 0, 0, 1, -38.95,-34.8) ">
<use xlink:href="#icon_r_box_02_16_Layer2_0_MEMBER_0_MEMBER_4_MEMBER_1_1_STROKES"/>
</g>

<g transform="matrix( 1, 0, 0, 1, -38.95,-34.8) ">
<use xlink:href="#icon_r_box_02_16_Layer2_0_MEMBER_0_MEMBER_4_MEMBER_2_1_STROKES"/>
</g>

<g transform="matrix( 1, 0, 0, 1, -38.95,-34.8) ">
<use xlink:href="#icon_r_box_02_16_Layer2_0_MEMBER_0_MEMBER_5_MEMBER_0_1_STROKES"/>
</g>

<g transform="matrix( 1, 0, 0, 1, -38.95,-34.8) ">
<use xlink:href="#icon_r_box_02_16_Layer2_0_MEMBER_0_MEMBER_5_MEMBER_1_1_STROKES"/>
</g>

<g transform="matrix( 1, 0, 0, 1, -38.95,-34.8) ">
<use xlink:href="#icon_r_box_02_16_Layer2_0_MEMBER_0_MEMBER_5_MEMBER_2_1_STROKES"/>
</g>

<g transform="matrix( 1, 0, 0, 1, -38.95,-34.8) ">
<use xlink:href="#icon_r_box_02_16_Layer2_0_MEMBER_1_MEMBER_0_FILL"/>

<use xlink:href="#icon_r_box_02_16_Layer2_0_MEMBER_1_MEMBER_0_1_STROKES"/>
</g>

<g transform="matrix( 1, 0, 0, 1, -38.95,-34.8) ">
<use xlink:href="#icon_r_box_02_16_Layer2_0_MEMBER_2_MEMBER_0_FILL"/>

<use xlink:href="#icon_r_box_02_16_Layer2_0_MEMBER_2_MEMBER_0_1_STROKES"/>
</g>

<g transform="matrix( 1, 0, 0, 1, -38.95,-34.8) ">
<use xlink:href="#icon_r_box_02_16_Layer2_0_MEMBER_3_MEMBER_0_FILL"/>
</g>

<g transform="matrix( 1, 0, 0, 1, -38.95,-34.8) ">
<use xlink:href="#icon_r_box_02_16_Layer2_0_MEMBER_4_MEMBER_0_FILL"/>
</g>

<g transform="matrix( 1, 0, 0, 1, -38.95,-34.8) ">
<use xlink:href="#icon_r_box_02_16_Layer2_0_MEMBER_5_MEMBER_0_1_STROKES"/>
</g>

<g transform="matrix( 1, 0, 0, 1, -38.95,-34.8) ">
<use xlink:href="#icon_r_box_02_16_Layer2_0_MEMBER_6_MEMBER_0_1_STROKES"/>
</g>

<g transform="matrix( 1, 0, 0, 1, -38.95,-34.8) ">
<use xlink:href="#icon_r_box_02_16_Layer2_0_MEMBER_7_MEMBER_0_FILL"/>

<use xlink:href="#icon_r_box_02_16_Layer2_0_MEMBER_7_MEMBER_0_1_STROKES"/>
</g>

<g transform="matrix( 1, 0, 0, 1, -38.95,-34.8) ">
<use xlink:href="#icon_r_box_02_16_Layer2_0_MEMBER_7_MEMBER_1_FILL"/>
</g>

<g transform="matrix( 1, 0, 0, 1, -38.95,-34.8) ">
<use xlink:href="#icon_r_box_02_16_Layer2_0_MEMBER_7_MEMBER_2_MEMBER_0_1_STROKES"/>
</g>

<g transform="matrix( 1, 0, 0, 1, -38.95,-34.8) ">
<use xlink:href="#icon_r_box_02_16_Layer2_0_MEMBER_8_1_STROKES"/>
</g>

<g transform="matrix( 1, 0, 0, 1, -38.95,-34.8) ">
<use xlink:href="#icon_r_box_02_16_Layer2_0_MEMBER_9_1_STROKES"/>
</g>
</g>
</svg>
