
<svg xmlns="http://www.w3.org/2000/svg" version="1.1" xmlns:xlink="http://www.w3.org/1999/xlink" preserveAspectRatio="none" x="0px" y="0px" width="130px" height="115px" viewBox="0 0 130 115">
<defs>
<filter id="Filter_1" x="-24.911289761421315%" y="-22.77574896843679%" width="149.82257952284263%" height="145.55149793687357%" color-interpolation-filters="sRGB">
<feFlood flood-color="#000000" flood-opacity="1" in="SourceGraphic" result="result1"/>

<feGaussianBlur in="SourceGraphic" stdDeviation="1.6666666666666667,1.6666666666666667" result="result2"/>

<feComposite in2="result2" in="result1" operator="in" result="result3"/>

<feComposite in2="result3" in="SourceGraphic" operator="over" result="result4"/>
</filter>

<g id="icon_r_box_02_13_Layer3_0_FILL">
<path fill="#FFFFFF" fill-opacity="0" stroke="none" d="
M 65 -55
L -65 -55 -65 25 65 25 65 -55 Z"/>
</g>

<g id="icon_r_box_02_13_Layer3_1_FILL">
<path fill="#FFFFFF" fill-opacity="0" stroke="none" d="
M 65.05 49.95
L 65.05 24.95 -64.95 24.95 -64.95 49.95 65.05 49.95 Z"/>
</g>

<g id="icon_r_box_02_13_Layer3_2_FILL">
<path fill="#FFFFFF" fill-opacity="0" stroke="none" d="
M 65 -52.85
L 65 -57.85 -65 -57.85 -65 -52.85 65 -52.85 Z"/>
</g>

<g id="icon_r_box_02_13_Layer3_3_FILL">
<path fill="#FFFFFF" fill-opacity="0" stroke="none" d="
M 65 54.95
L 65 49.95 -65 49.95 -65 54.95 65 54.95 Z"/>
</g>

<g id="Duplicate_Items_Folder_rhdiddl_rlaskql_0_Layer4_0_FILL">
<path fill="#FFFFFF" stroke="none" d="
M 81.9 -0.25
Q 81.8380859375 -1.2576171875 81.05 -1.95 80.251953125 -2.59140625 79.2 -2.5 73.33515625 -1.93125 70.4 1.7
L 70.35 1.7
Q 67.37578125 5.135546875 67.75 10.95
L 67.75 10.95
Q 68.0142578125 15.17109375 70.4 19.95 71.5990234375 22.3228515625 73.9 26.9 75.2841796875 30.3478515625 74.75 34.3 74.320703125 37.8505859375 72.45 40.6 68.43671875 38.2470703125 62.75 38.1 61.05 38.05 49.8 39.35 42.45 40.2 38.7 38.15 40.5 36.4 41.4 34.25 42.3 32.1 41.95 27.55
L 41.4 23.45
Q 42.55 17.6 43.05 11.25 43.75 2.25 41.9 1.2 40.05 0.15 33.9 4.2 30.05 6.7 25.7 10.35 23.75 10.15 20.8 10.25
L 18.25 10.45
Q 7.7 -0.65 5.4 0.2 3.85 0.75 2.9 8.3 2.15 14.3 2.15 20.45
L 0.85 24.75
Q -0.3 29.55 0.15 32.1 0.7 35.25 2.8 37.85 5.65 41.45 10.7 43
L 10.8 43.35
Q 10.95 43.75 11.25 44.15
L 10.55 48.05
Q 9.85 52.65 10.15 56.2 10.55 61.25 14.4 71.65 18.5 82.8 19.25 87.5 18.8 87.55 18.2 87.8 17.1 88.25 16.65 89.2 16.15 90.25 16.55 91.4 16.95 92.4 17.65 92.5 18.45 92.6 20.95 92.6 23.65 92.65 24.25 92.5 24.95 92.35 25.5 91.4 26.1 90.4 26.15 89.1 26.2 88 26.05 80.35
L 25.9 72.8
Q 26.3 72.9 26.7 72.95 30.55 83.45 31.25 88 30.8 88.05 30.2 88.3 29.1 88.75 28.65 89.7 28.15 90.75 28.55 91.9 28.95 92.9 29.65 93 30.45 93.1 32.95 93.1 35.65 93.15 36.25 93 36.95 92.85 37.5 91.9 38.1 90.9 38.15 89.6
L 39.95 73.45
Q 44.65 73.85 49.85 73.45 51.45 76.7 52.15 77.9 52.95 79.25 53 83.35 53 86 52.85 87.5 52.4 87.55 51.8 87.8 50.7 88.25 50.25 89.2 49.75 90.25 50.15 91.4 50.55 92.4 51.25 92.5 52.05 92.6 54.55 92.6 57.25 92.65 57.85 92.5 58.55 92.35 59.1 91.4 59.7 90.4 59.75 89.1 61.25 80.5 62.35 76.5 62.35 76.45 62.4 76.4 63 77.65 63.45 78.4 64.25 79.75 64.3 83.85 64.3 86.5 64.15 88 63.7 88.05 63.1 88.3 62 88.75 61.55 89.7 61.05 90.75 61.45 91.9 61.85 92.9 62.55 93 63.35 93.1 65.85 93.1 68.55 93.15 69.15 93 69.85 92.85 70.4 91.9 71 90.9 71.05 89.6 72.55 81 73.65 77 75.3 71.35 76.3 67.65 78.15 60.75 78.45 58.2 78.85 54.55 78.35 50.9 77.85 47.05 76.55 44.5 76.4041015625 44.2083984375 76.2 43.9 79.073046875 40.0427734375 79.7 34.95 80.4158203125 29.6521484375 78.55 25.05 78.526953125 24.9744140625 78.45 24.85 76.07578125 20.1265625 74.85 17.7 72.992578125 13.9427734375 72.75 10.65
L 72.75 10.6
Q 72.530078125 7.0560546875 74.2 4.9
L 74.2 4.9
Q 76.0640625 2.83125 79.65 2.5 80.7072265625 2.3998046875 81.35 1.6 82.0296875 0.8015625 81.9 -0.25 Z"/>
</g>

<g id="Duplicate_Items_Folder_rhdiddl_rlaskql_0_Layer3_0_FILL">
<path fill="#514040" stroke="none" d="
M 81.9 -0.25
Q 81.8380859375 -1.2576171875 81.05 -1.95 80.251953125 -2.59140625 79.2 -2.5 73.33515625 -1.93125 70.4 1.7
L 70.35 1.7
Q 67.37578125 5.135546875 67.75 10.95
L 67.75 10.95
Q 68.0142578125 15.17109375 70.4 19.95 71.5990234375 22.3228515625 73.9 26.9 75.2841796875 30.3478515625 74.75 34.3 74.2212890625 38.6224609375 71.55 41.75 70.873046875 42.5703125 70.95 43.6 71.034375 44.6279296875 71.8 45.3 72.618359375 45.9779296875 73.65 45.9 74.676953125 45.813671875 75.35 45 78.978515625 40.7775390625 79.7 34.95 80.4158203125 29.6521484375 78.55 25.05 78.526953125 24.9744140625 78.45 24.85 76.07578125 20.1265625 74.85 17.7 72.992578125 13.9427734375 72.75 10.65
L 72.75 10.6
Q 72.530078125 7.0560546875 74.2 4.9
L 74.2 4.9
Q 76.0640625 2.83125 79.65 2.5 80.7072265625 2.3998046875 81.35 1.6 82.0296875 0.8015625 81.9 -0.25 Z"/>
</g>

<g id="Mask_Duplicate_Items_Folder_rhdiddl_rlaskql_0_2_MASK_0_FILL">
<path fill="#FFFFFF" stroke="none" d="
M 76.55 44.5
Q 75.5 42.4 72.6 40.7 68.55 38.25 62.75 38.1 61.05 38.05 49.8 39.35 42.45 40.2 38.7 38.15 40.5 36.4 41.4 34.25 42.3 32.1 41.95 27.55
L 41.4 23.45
Q 42.55 17.6 43.05 11.25 43.75 2.25 41.9 1.2 40.05 0.15 33.9 4.2 30.05 6.7 25.7 10.35 23.75 10.15 20.8 10.25
L 18.25 10.45
Q 7.7 -0.65 5.4 0.2 3.85 0.75 2.9 8.3 2.15 14.3 2.15 20.45
L 0.85 24.75
Q -0.3 29.55 0.15 32.1 0.7 35.25 2.8 37.85 5.65 41.45 10.7 43
L 10.8 43.35
Q 10.95 43.75 11.25 44.15
L 10.55 48.05
Q 9.85 52.65 10.15 56.2 10.55 61.25 14.4 71.65 18.5 82.8 19.25 87.5 18.8 87.55 18.2 87.8 17.1 88.25 16.65 89.2 16.15 90.25 16.55 91.4 16.95 92.4 17.65 92.5 18.45 92.6 20.95 92.6 23.65 92.65 24.25 92.5 24.95 92.35 25.5 91.4 26.1 90.4 26.15 89.1 26.2 88 26.05 80.35
L 25.9 72.8
Q 26.3 72.9 26.7 72.95 30.55 83.45 31.25 88 30.8 88.05 30.2 88.3 29.1 88.75 28.65 89.7 28.15 90.75 28.55 91.9 28.95 92.9 29.65 93 30.45 93.1 32.95 93.1 35.65 93.15 36.25 93 36.95 92.85 37.5 91.9 38.1 90.9 38.15 89.6
L 39.95 73.45
Q 44.65 73.85 49.85 73.45 51.45 76.7 52.15 77.9 52.95 79.25 53 83.35 53 86 52.85 87.5 52.4 87.55 51.8 87.8 50.7 88.25 50.25 89.2 49.75 90.25 50.15 91.4 50.55 92.4 51.25 92.5 52.05 92.6 54.55 92.6 57.25 92.65 57.85 92.5 58.55 92.35 59.1 91.4 59.7 90.4 59.75 89.1 61.25 80.5 62.35 76.5 62.35 76.45 62.4 76.4 63 77.65 63.45 78.4 64.25 79.75 64.3 83.85 64.3 86.5 64.15 88 63.7 88.05 63.1 88.3 62 88.75 61.55 89.7 61.05 90.75 61.45 91.9 61.85 92.9 62.55 93 63.35 93.1 65.85 93.1 68.55 93.15 69.15 93 69.85 92.85 70.4 91.9 71 90.9 71.05 89.6 72.55 81 73.65 77 75.3 71.35 76.3 67.65 78.15 60.75 78.45 58.2 78.85 54.55 78.35 50.9 77.85 47.05 76.55 44.5 Z"/>
</g>

<g id="Duplicate_Items_Folder_rhdiddl_rlaskql_0_Layer2_0_FILL">
<path fill="#EFE5DE" stroke="none" d="
M 76.55 44.5
Q 75.5 42.4 72.6 40.7 68.55 38.25 62.75 38.1 61.05 38.05 49.8 39.35 42.45 40.2 38.7 38.15 40.5 36.4 41.4 34.25 42.3 32.1 41.95 27.55
L 41.4 23.45
Q 42.55 17.6 43.05 11.25 43.75 2.25 41.9 1.2 40.05 0.15 33.9 4.2 30.05 6.7 25.7 10.35 23.75 10.15 20.8 10.25
L 18.25 10.45
Q 7.7 -0.65 5.4 0.2 3.85 0.75 2.9 8.3 2.15 14.3 2.15 20.45
L 0.85 24.75
Q -0.3 29.55 0.15 32.1 0.7 35.25 2.8 37.85 5.65 41.45 10.7 43
L 10.8 43.35
Q 10.95 43.75 11.25 44.15
L 10.55 48.05
Q 9.85 52.65 10.15 56.2 10.55 61.25 14.4 71.65 18.5 82.8 19.25 87.5 18.8 87.55 18.2 87.8 17.1 88.25 16.65 89.2 16.15 90.25 16.55 91.4 16.95 92.4 17.65 92.5 18.45 92.6 20.95 92.6 23.65 92.65 24.25 92.5 24.95 92.35 25.5 91.4 26.1 90.4 26.15 89.1 26.2 88 26.05 80.35
L 25.9 72.8
Q 26.3 72.9 26.7 72.95 30.55 83.45 31.25 88 30.8 88.05 30.2 88.3 29.1 88.75 28.65 89.7 28.15 90.75 28.55 91.9 28.95 92.9 29.65 93 30.45 93.1 32.95 93.1 35.65 93.15 36.25 93 36.95 92.85 37.5 91.9 38.1 90.9 38.15 89.6
L 39.95 73.45
Q 44.65 73.85 49.85 73.45 51.45 76.7 52.15 77.9 52.95 79.25 53 83.35 53 86 52.85 87.5 52.4 87.55 51.8 87.8 50.7 88.25 50.25 89.2 49.75 90.25 50.15 91.4 50.55 92.4 51.25 92.5 52.05 92.6 54.55 92.6 57.25 92.65 57.85 92.5 58.55 92.35 59.1 91.4 59.7 90.4 59.75 89.1 61.25 80.5 62.35 76.5 62.35 76.45 62.4 76.4 63 77.65 63.45 78.4 64.25 79.75 64.3 83.85 64.3 86.5 64.15 88 63.7 88.05 63.1 88.3 62 88.75 61.55 89.7 61.05 90.75 61.45 91.9 61.85 92.9 62.55 93 63.35 93.1 65.85 93.1 68.55 93.15 69.15 93 69.85 92.85 70.4 91.9 71 90.9 71.05 89.6 72.55 81 73.65 77 75.3 71.35 76.3 67.65 78.15 60.75 78.45 58.2 78.85 54.55 78.35 50.9 77.85 47.05 76.55 44.5 Z"/>
</g>

<g id="Duplicate_Items_Folder_rhdiddl_rlaskql_0_Layer2_1_FILL">
<path fill="#EFA344" stroke="none" d="
M 22.15 19.4
Q 22.1 21.2 23.15 23.65 23.65 24.85 24.15 25.7 25.4 27.95 28.05 29.4 32.455078125 31.79921875 39.15 29.15 39.0958984375 25.193359375 36.75 21.4 34.9 18.45 32.3 16.5 30.35 15.05 28.3 14.6 26.55 14.2 25.05 14.6 22.3451171875 15.3591796875 22.15 19 22.1525390625 19.1962890625 22.15 19.4 Z"/>

<path fill="#514040" stroke="none" d="
M 33.3 -5.2
L 5.65 -3.7 -2.35 3.55 -0.7 28.2
Q 0.75 29.35 5.05 30.05 9.8 30.75 11.5 29.5 13.15 28.3 13.6 27.25 13.75 26.9 14 25.4 14.2 24.2 14.75 23.25 15.35 22.2 15.9 22.25 16.4 22.3 16.7 22.95 16.85 23.3 17.05 24 17.45 24.9 18.9 24.9 20.2 24.9 20.65 24.1 21.65 22.3 22.15 19 22.3451171875 15.3591796875 25.05 14.6 26.55 14.2 28.3 14.6 30.35 15.05 32.3 16.5 34.9 18.45 36.75 21.4 39.0958984375 25.193359375 39.15 29.15
L 42.95 27.4 47.55 -0.85 33.3 -5.2 Z"/>
</g>

<g id="Duplicate_Items_Folder_rhdiddl_rlaskql_0_Layer2_2_FILL">
<path fill="#EFA344" stroke="none" d="
M 77.75 38.4
L 66.65 35.8 38.7 38.15
Q 41.357421875 39.8685546875 44 45.75 46.8 51.95 57.9 52.35 64.05 52.6 70.3 51.85 77.1 51.05 79.25 49.55
L 77.75 38.4 Z"/>
</g>

<g id="Duplicate_Items_Folder_rhdiddl_rlaskql_0_Layer2_3_FILL">
<path fill="#514040" stroke="none" d="
M 75.9 79.8
L 73.4 77.75
Q 69.53515625 80.103515625 63.75 79
L 62.35 80.5 62.35 86.95 64.15 88
Q 66.45 87.9 68.15 89.25 70 90.65 69.65 92.8
L 73.4 93.8 75.9 79.8 Z"/>
</g>

<g id="Duplicate_Items_Folder_rhdiddl_rlaskql_0_Layer0_0_FILL">
<path fill="#EFA344" stroke="none" d="
M 22.95 28.55
Q 18.85 26.75 14.95 28.55 12.95 29.75 12.15 31.5 11.3 33.25 11.95 35.2 13.2 39 18.85 39.1
L 19.1 39.1
Q 24.7 39 25.95 35.2 26.6 33.25 25.75 31.5 24.95 29.75 22.95 28.55 Z"/>
</g>

<g id="Duplicate_Items_Folder_rhdiddl_rlaskql_0_Layer0_1_FILL">
<path fill="#000000" stroke="none" d="
M 36.7 39.4
Q 37.25 39.4 38.2 38.65 39.1 37.9 39.1 37.4 39.1 36.9 38.25 36.55 37.7 36.3 36.7 36.3 35.7 36.3 35.15 36.55 34.3 36.9 34.3 37.4 34.3 37.9 35.2 38.65 36.15 39.4 36.7 39.4 Z"/>
</g>

<g id="Duplicate_Items_Folder_rhdiddl_rlaskql_0_Layer0_3_FILL">
<path fill="#000000" stroke="none" d="
M 47.65 33.7
Q 44.78359375 34.2458984375 42.8 35.15 42.75 35.4572265625 42.75 35.8 42.75 37 43.6 37.85 44.45 38.7 45.65 38.7 46.85 38.7 47.7 37.85 48.55 37 48.55 35.8 48.55 34.6 47.7 33.75 47.6810546875 33.7310546875 47.65 33.7 Z"/>
</g>

<g id="Duplicate_Items_Folder_rhdiddl_rlaskql_0_Layer0_3_STROKES_1_FILL">
<path fill="#000000" stroke="none" d="
M 42.6 34.6
Q 42.1 35 42.45 35.4 42.6 35.75 43.05 35.65
L 43.3 35.55 44.65 35.2 44.8 35.2 45.45 35 46 34.9 46.3 34.8 47.6 34.5 47.75 34.45 47.8 34.45 47.85 34.4 47.9 34.4 48.1 34.35 48.3 34.25 49 34
Q 49.55 33.85 49.35 33.3 49.25 32.95 48.85 32.95
L 47.8 32.95 47.55 33 47.5 33 47.35 33.05 47.1 33.05 45.95 33.25 44.45 33.7 43.1 34.3 42.85 34.5 42.6 34.6 Z"/>
</g>

<g id="Duplicate_Items_Folder_rhdiddl_rlaskql_0_Layer0_4_FILL">
<path fill="#000000" stroke="none" d="
M 42.8 35.15
Q 42.75 35.4572265625 42.75 35.8 42.75 37 43.6 37.85 44.45 38.7 45.65 38.7 46.85 38.7 47.7 37.85 48.55 37 48.55 35.8 48.55 34.6 47.7 33.75 47.6810546875 33.7310546875 47.65 33.7 44.78359375 34.2458984375 42.8 35.15 Z"/>
</g>

<g id="Duplicate_Items_Folder_rhdiddl_rlaskql_0_Layer0_4_STROKES_1_FILL">
<path fill="#000000" stroke="none" d="
M 42.6 34.6
Q 42.1 35 42.45 35.4 42.6 35.75 43.05 35.65
L 43.3 35.55 44.65 35.2 44.8 35.2 45.45 35 46 34.9 46.3 34.8 47.6 34.5 47.75 34.45 47.8 34.45 47.85 34.4 47.9 34.4 48.1 34.35 48.3 34.25 49 34
Q 49.55 33.85 49.35 33.3 49.25 32.95 48.85 32.95
L 47.8 32.95 47.55 33 47.5 33 47.35 33.05 47.1 33.05 45.95 33.25 44.45 33.7 43.1 34.3 42.85 34.5 42.6 34.6 Z"/>
</g>

<g id="Duplicate_Items_Folder_rhdiddl_rlaskql_0_Layer0_5_FILL">
<path fill="#96C1D3" stroke="none" d="
M 34.45 60.7
Q 35.2 62.5 37.15 62.8 39.15 63.05 40.9 61.45 41.2 61.75 41.6 62 42.45 62.5 42.9 62.3 43.65 62 43.3 60.65 43.65 59.4 42.9 59.1 42.45 58.9 41.6 59.4 41.2 59.65 40.9 59.95 39.15 58.35 37.15 58.6 35.2 58.9 34.45 60.7 Z"/>
</g>

<g id="Duplicate_Items_Folder_rhdiddl_rlaskql_0_Layer0_6_FILL">
<path fill="#E73D3D" stroke="none" d="
M 19.25 44.2
Q 14.45 44.2 10.7 43
L 10.8 43.35
Q 10.95 43.75 11.25 44.15 11.85 45.15 13.35 46 15.2 47.1 21.2 47.15 27.2 47.15 30.05 46.1 33.25 44.9 36 42.6 39.1 40 38.7 38.15 37.2 39.6 35.1 40.8 29.05 44.2 19.25 44.2 Z"/>
</g>

<g id="Duplicate_Items_Folder_rhdiddl_rlaskql_0_Layer0_7_FILL">
<path fill="#FBA9A9" stroke="none" d="
M 6 9.7
Q 5.75 14.05 5.8 17.3 7 16 9.65 14.3 12.25 12.6 13.95 12 12.4 9.95 10.7 7.95 7.35 3.95 6.75 4.3 6.3 4.55 6 9.7
M 29.85 12.3
L 32.65 14.25
Q 35.8 16.65 37.75 18.95 38.6 15.75 39.3 12.45 40.65 5.75 39.85 5.05 39 4.3 35.3 7.3 32.55 9.5 29.85 12.3 Z"/>
</g>

<g id="Duplicate_Items_Folder_rhdiddl_rlaskql_0_Layer0_8_FILL">
<path fill="#CF722C" stroke="none" d="
M 56.4 27.2
Q 56.4 26.45 56 25.9 55.65 25.35 55.1 25.35 54.55 25.35 54.15 25.9 53.8 26.45 53.8 27.2 53.8 27.95 54.15 28.5 54.55 29.05 55.1 29.05 55.65 29.05 56 28.5 56.4 27.95 56.4 27.2 Z"/>
</g>

<g id="Duplicate_Items_Folder_rhdiddl_rlaskql_0_Layer0_9_FILL">
<path fill="#CF722C" stroke="none" d="
M 56.4 27.2
Q 56.4 26.45 56 25.9 55.65 25.35 55.1 25.35 54.55 25.35 54.15 25.9 53.8 26.45 53.8 27.2 53.8 27.95 54.15 28.5 54.55 29.05 55.1 29.05 55.65 29.05 56 28.5 56.4 27.95 56.4 27.2 Z"/>
</g>

<path id="Duplicate_Items_Folder_rhdiddl_rlaskql_0_Layer4_0_1_STROKES" stroke="#FFFFFF" stroke-width="8" stroke-linejoin="round" stroke-linecap="round" fill="none" d="
M 69.18955078125 10.589404296875001
Q 70.78328781127931 8.820663452148438 73.87056884765624 8.537451171875 74.7531023979187 8.451786136627199 75.32403564453125 7.7679687500000005 75.883780670166 7.085320281982423 75.79427490234374 6.20762939453125 75.71996507644653 5.324761867523193 75.0461669921875 4.754162597656251 74.36385250091553 4.184398269653321 73.48582763671874 4.262548828125 68.45012626647949 4.748818969726563 65.94062500000001 7.853466796875001
L 65.91925048828125 7.853466796875001
Q 63.35497703552247 10.790792274475098 63.6749267578125 15.762036132812499
L 63.6749267578125 15.78341064453125
Q 63.900862026214604 19.370988845825195 65.96199951171874 23.47823486328125 66.96576662063597 25.485602092742916 68.95443115234374 29.42034912109375 70.11650323867798 32.34682035446167 69.68116455078126 35.747204589843754 69.29274959564208 38.76151170730591 67.6933349609375 41.11220703125 64.26205787658691 39.10049810409546 59.4000244140625 38.974755859375 57.946557617187494 38.93200683593749 48.328027343749994 40.0434814453125 42.043920898437506 40.770214843750004 38.837744140625006 39.017504882812496 40.376708984375 37.521289062499996 41.14619140625 35.6830810546875 41.915673828124994 33.844873046875 41.616430664062506 29.9547119140625
L 41.14619140625 26.449291992187497
Q 42.129418945312494 21.44765625 42.556909179687494 16.0185302734375 43.1553955078125 8.3237060546875 41.573681640625 7.425976562500001 39.991967773437494 6.5282470703125 34.733837890625 9.99091796875 31.4421630859375 12.128369140625 27.722998046875 15.2490478515625 26.0557861328125 15.078051757812501 23.53359375 15.1635498046875
L 21.3533935546875 15.334545898437499
Q 12.333349609375 5.8442626953125005 10.36689453125 6.570996093750001 9.0416748046875 7.0412353515625 8.229443359375 13.496337890625 7.5882080078125 18.626220703125 7.5882080078125 23.884350585937497
L 6.4767333984375 27.5607666015625
Q 5.493505859375 31.6646728515625 5.8782470703125 33.844873046875 6.348486328125 36.5380615234375 8.1439453125 38.7610107421875 10.5806396484375 41.838940429687504 14.898291015624999 43.16416015625
L 14.983789062500001 43.4634033203125
Q 15.112036132812499 43.8053955078125 15.3685302734375 44.147387695312496
L 14.770043945312501 47.48181152343749
Q 14.1715576171875 51.414721679687496 14.4280517578125 54.449902343750004 14.770043945312501 58.7675537109375 18.06171875 67.6593505859375 21.567138671875 77.1923828125 22.2083740234375 81.210791015625 21.8236328125 81.2535400390625 21.31064453125 81.46728515625 20.370166015625003 81.8520263671875 19.985424804687497 82.66425781250001 19.557934570312497 83.5619873046875 19.8999267578125 84.54521484375002 20.2419189453125 85.40019531250002 20.840405273437497 85.485693359375 21.5243896484375 85.57119140625 23.6618408203125 85.57119140625 25.970288085937497 85.61394042968752 26.4832763671875 85.485693359375 27.0817626953125 85.3574462890625 27.552001953125 84.54521484375002 28.064990234375003 83.69023437500002 28.107739257812497 82.578759765625 28.15048828125 81.63828125 28.0222412109375 75.0976806640625
L 27.893994140624997 68.642578125
Q 28.235986328125 68.728076171875 28.577978515625 68.77082519531251 31.8696533203125 77.74812011718751 32.4681396484375 81.63828125 32.0833984375 81.6810302734375 31.57041015625 81.894775390625 30.629931640625003 82.2795166015625 30.245190429687497 83.09174804687501 29.817700195312497 83.9894775390625 30.1596923828125 84.97270507812502 30.5016845703125 85.82768554687502 31.100170898437497 85.91318359375 31.7841552734375 85.998681640625 33.921606445312506 85.998681640625 36.2300537109375 86.04143066406252 36.7430419921875 85.91318359375 37.341528320312506 85.7849365234375 37.811767578125 84.97270507812502 38.324755859375 84.11772460937502 38.3675048828125 83.00625
L 39.906469726562506 69.19831542968751
Q 43.9248779296875 69.5403076171875 48.3707763671875 69.19831542968751 49.738745117187506 71.97700195312501 50.3372314453125 73.00297851562502 51.021215820312506 74.1572021484375 51.06396484375 77.6626220703125 51.06396484375 79.9283203125 50.9357177734375 81.210791015625 50.5509765625 81.2535400390625 50.037988281249994 81.46728515625 49.097509765625006 81.8520263671875 48.7127685546875 82.66425781250001 48.2852783203125 83.5619873046875 48.6272705078125 84.54521484375002 48.969262695312494 85.40019531250002 49.5677490234375 85.485693359375 50.251733398437494 85.57119140625 52.389184570312494 85.57119140625 54.6976318359375 85.61394042968752 55.2106201171875 85.485693359375 55.809106445312494 85.3574462890625 56.279345703125 84.54521484375002 56.792333984375006 83.69023437500002 56.8350830078125 82.578759765625 58.1175537109375 75.225927734375 59.0580322265625 71.806005859375 59.0580322265625 71.76325683593751 59.10078125 71.72050781250002 59.61376953125 72.78923339843752 59.998510742187506 73.43046875000002 60.6824951171875 74.5846923828125 60.725244140624994 78.0901123046875 60.725244140624994 80.355810546875 60.596997070312504 81.63828125 60.212255859375006 81.6810302734375 59.699267578125 81.894775390625 58.7587890625 82.2795166015625 58.374047851562494 83.09174804687501 57.946557617187494 83.9894775390625 58.288549804687506 84.97270507812502 58.6305419921875 85.82768554687502 59.229028320312494 85.91318359375 59.9130126953125 85.998681640625 62.050463867187496 85.998681640625 64.3589111328125 86.04143066406252 64.87189941406251 85.91318359375 65.47038574218749 85.7849365234375 65.94062500000001 84.97270507812502 66.45361328125 84.11772460937502 66.4963623046875 83.00625 67.7788330078125 75.65341796875 68.71931152343751 72.23349609375 70.130029296875 67.4028564453125 70.985009765625 64.2394287109375 72.56672363281251 58.3400634765625 72.8232177734375 56.159863281250004 73.16520996093749 53.03918457031249 72.73771972656249 49.918505859374996 72.31022949218749 46.62683105468749 71.1987548828125 44.446630859375 71.07401456832886 44.19731721878052 70.92088623046874 43.95501708984374 73.35591068267823 40.6357892036438 73.91331787109374 36.30294189453125 74.50395574569703 31.752007770538327 72.93009033203126 27.838635253906247 72.88901119232179 27.75263624191284 72.84459228515624 27.66763916015625 70.79330711364747 23.607817840576168 69.76666259765625 21.55452880859375 68.15722866058348 18.3207989692688 67.9498291015625 15.505541992187501
L 67.9498291015625 15.48416748046875
Q 67.76180019378663 12.432788944244384 69.21092529296874 10.589404296875001
L 69.18955078125 10.589404296875001 Z"/>

<path id="Duplicate_Items_Folder_rhdiddl_rlaskql_0_Layer0_2_1_STROKES" stroke="#B82E2E" stroke-width="1" stroke-linejoin="round" stroke-linecap="round" fill="none" d="
M 18.6281005859375 35.88439941406249
Q 20.893798828124996 35.756152343749996 21.663281249999997 34.131689453125 22.445454788208007 35.743461227416994 24.698461914062502 35.88439941406249"/>

<path id="Duplicate_Items_Folder_rhdiddl_rlaskql_0_Layer0_10_1_STROKES" stroke="#CAB6A9" stroke-width="1.5" stroke-linejoin="round" stroke-linecap="round" fill="none" d="
M 28.5207275390625 68.52082519531251
Q 25.00244951248169 68.13892278671264 22.450366210937496 66.6398681640625"/>

<path id="Duplicate_Items_Folder_rhdiddl_rlaskql_0_Layer0_11_1_STROKES" stroke="#CAB6A9" stroke-width="1.5" stroke-linejoin="round" stroke-linecap="round" fill="none" d="
M 48.413525390625 69.241064453125
Q 52.0901083946228 69.08893804550172 55.766357421875 68.2578369140625
L 59.0580322265625 71.8487548828125"/>
</defs>

<g transform="matrix( 1, 0, 0, 0.999603271484375, 65,60) ">
<g transform="matrix( 1, 0, 0, 1, 0,0) ">
<use xlink:href="#icon_r_box_02_13_Layer3_0_FILL"/>
</g>

<g transform="matrix( 1, 0, 0, 1, -0.05,0.05) ">
<use xlink:href="#icon_r_box_02_13_Layer3_1_FILL"/>
</g>

<g transform="matrix( 1, 0, 0, 1, 0,-2.15) ">
<use xlink:href="#icon_r_box_02_13_Layer3_2_FILL"/>
</g>

<g transform="matrix( 1, 0, 0, 1, 0,0.05) ">
<use xlink:href="#icon_r_box_02_13_Layer3_3_FILL"/>
</g>

<g filter="url(#Filter_1)" transform="matrix( 0.9999847412109375, 0, 0, 1.000396728515625, -65,-60) ">
<g transform="matrix( 0.75, 0, 0, 0.74969482421875, 33.3,7) ">
<g transform="matrix( 0.85498046875, 0, 0, 0.85498046875, 5.75,6.4) ">
<use xlink:href="#Duplicate_Items_Folder_rhdiddl_rlaskql_0_Layer4_0_FILL"/>

<use xlink:href="#Duplicate_Items_Folder_rhdiddl_rlaskql_0_Layer4_0_1_STROKES" transform="matrix( 1.16961669921875, 0, 0, 1.16961669921875, -6.7,-7.45) "/>
</g>

<g transform="matrix( 0.85498046875, 0, 0, 0.85498046875, 5.75,6.4) ">
<use xlink:href="#Duplicate_Items_Folder_rhdiddl_rlaskql_0_Layer3_0_FILL"/>
</g>

<mask id="Mask_Mask_1">
<g transform="matrix( 0.85498046875, 0, 0, 0.85498046875, 5.75,6.4) ">
<use xlink:href="#Mask_Duplicate_Items_Folder_rhdiddl_rlaskql_0_2_MASK_0_FILL"/>
</g>
</mask>

<g mask="url(#Mask_Mask_1)">
<g transform="matrix( 0.85498046875, 0, 0, 0.85498046875, 5.75,6.4) ">
<use xlink:href="#Duplicate_Items_Folder_rhdiddl_rlaskql_0_Layer2_0_FILL"/>
</g>

<g transform="matrix( 0.85498046875, 0, 0, 0.85498046875, 5.75,6.4) ">
<use xlink:href="#Duplicate_Items_Folder_rhdiddl_rlaskql_0_Layer2_1_FILL"/>
</g>

<g transform="matrix( 0.85498046875, 0, 0, 0.85498046875, 5.75,6.4) ">
<use xlink:href="#Duplicate_Items_Folder_rhdiddl_rlaskql_0_Layer2_2_FILL"/>
</g>

<g transform="matrix( 0.85498046875, 0, 0, 0.85498046875, 5.75,6.4) ">
<use xlink:href="#Duplicate_Items_Folder_rhdiddl_rlaskql_0_Layer2_3_FILL"/>
</g>
</g>

<g transform="matrix( 0.85498046875, 0, 0, 0.85498046875, 5.75,6.4) ">
<use xlink:href="#Duplicate_Items_Folder_rhdiddl_rlaskql_0_Layer0_0_FILL"/>
</g>

<g transform="matrix( 0.85498046875, 0, 0, 0.85498046875, -9.7,-0.95) ">
<use xlink:href="#Duplicate_Items_Folder_rhdiddl_rlaskql_0_Layer0_1_FILL"/>
</g>

<g transform="matrix( 0.85498046875, 0, 0, 0.85498046875, -9.8,-1.35) ">
<use xlink:href="#Duplicate_Items_Folder_rhdiddl_rlaskql_0_Layer0_2_1_STROKES" transform="matrix( 1.16961669921875, 0, 0, 1.16961669921875, 11.45,1.55) "/>
</g>

<g transform="matrix( 0.85498046875, 0, 0, 0.85498046875, -10,-1.35) ">
<use xlink:href="#Duplicate_Items_Folder_rhdiddl_rlaskql_0_Layer0_3_FILL"/>

<use xlink:href="#Duplicate_Items_Folder_rhdiddl_rlaskql_0_Layer0_3_STROKES_1_FILL"/>
</g>

<g transform="matrix( -0.85498046875, 0, 0, 0.85498046875, 54.45,-1.35) ">
<use xlink:href="#Duplicate_Items_Folder_rhdiddl_rlaskql_0_Layer0_4_FILL"/>

<use xlink:href="#Duplicate_Items_Folder_rhdiddl_rlaskql_0_Layer0_4_STROKES_1_FILL"/>
</g>

<g transform="matrix( 0.85498046875, 0, 0, 0.85498046875, -10,-2.25) ">
<use xlink:href="#Duplicate_Items_Folder_rhdiddl_rlaskql_0_Layer0_5_FILL"/>
</g>

<g transform="matrix( 0.85498046875, 0, 0, 0.85498046875, 5.75,6.4) ">
<use xlink:href="#Duplicate_Items_Folder_rhdiddl_rlaskql_0_Layer0_6_FILL"/>
</g>

<g transform="matrix( 0.85498046875, 0, 0, 0.85498046875, 5.75,6.4) ">
<use xlink:href="#Duplicate_Items_Folder_rhdiddl_rlaskql_0_Layer0_7_FILL"/>
</g>

<g transform="matrix( 0.2507171630859375, -0.54339599609375, 0.54339599609375, 0.2507171630859375, -3.6,55.5) ">
<use xlink:href="#Duplicate_Items_Folder_rhdiddl_rlaskql_0_Layer0_8_FILL"/>
</g>

<g transform="matrix( -0.2991943359375, -0.518280029296875, -0.518280029296875, 0.2991943359375, 49.05,52.8) ">
<use xlink:href="#Duplicate_Items_Folder_rhdiddl_rlaskql_0_Layer0_9_FILL"/>
</g>

<g transform="matrix( 0.85498046875, 0, 0, 0.85498046875, 5.65,6.15) ">
<use xlink:href="#Duplicate_Items_Folder_rhdiddl_rlaskql_0_Layer0_10_1_STROKES" transform="matrix( 1.16961669921875, 0, 0, 1.16961669921875, -6.6,-7.15) "/>
</g>

<g transform="matrix( 0.85498046875, 0, 0, 0.85498046875, 5.75,6.4) ">
<use xlink:href="#Duplicate_Items_Folder_rhdiddl_rlaskql_0_Layer0_11_1_STROKES" transform="matrix( 1.16961669921875, 0, 0, 1.16961669921875, -6.7,-7.45) "/>
</g>
</g>
</g>
</g>
</svg>
