
<svg xmlns="http://www.w3.org/2000/svg" version="1.1" xmlns:xlink="http://www.w3.org/1999/xlink" preserveAspectRatio="none" x="0px" y="0px" width="130px" height="115px" viewBox="0 0 130 115">
<defs>
<g id="icon_r_box_02_0_Layer3_0_FILL">
<path fill="#FFFFFF" fill-opacity="0" stroke="none" d="
M 65 -55
L -65 -55 -65 25 65 25 65 -55 Z"/>
</g>

<g id="icon_r_box_02_0_Layer3_1_FILL">
<path fill="#FFFFFF" fill-opacity="0" stroke="none" d="
M 65.05 49.95
L 65.05 24.95 -64.95 24.95 -64.95 49.95 65.05 49.95 Z"/>
</g>

<g id="icon_r_box_02_0_Layer3_2_FILL">
<path fill="#FFFFFF" fill-opacity="0" stroke="none" d="
M 65 -52.85
L 65 -57.85 -65 -57.85 -65 -52.85 65 -52.85 Z"/>
</g>

<g id="icon_r_box_02_0_Layer3_3_FILL">
<path fill="#FFFFFF" fill-opacity="0" stroke="none" d="
M 65 54.95
L 65 49.95 -65 49.95 -65 54.95 65 54.95 Z"/>
</g>

<g id="icon_r_box_02_0_Layer2_0_MEMBER_0_MEMBER_0_MEMBER_0_MEMBER_0_FILL">
<path fill="#AEDA71" stroke="none" d="
M 18.25 16.15
Q 16.7 16.15 15.85 17.4
L 0.5 40 36.4 40 20.7 17.4
Q 19.8 16.15 18.25 16.15 Z"/>
</g>

<g id="icon_r_box_02_0_Layer2_0_MEMBER_0_MEMBER_1_FILL">
<path fill="#98C054" stroke="none" d="
M 19.95 16.45
Q 19.65 16.25 19.1 16.25
L 25.5 40 36.4 40 20.7 17.4
Q 20.1 16.6 19.95 16.45 Z"/>
</g>

<g id="icon_r_box_02_0_Layer2_0_MEMBER_1_MEMBER_0_MEMBER_0_MEMBER_0_FILL">
<path fill="#40C871" stroke="none" d="
M 46.3 0.55
Q 43.75 0.55 42.3 2.65
L 16.9 40 76.35 40 50.3 2.6
Q 48.9 0.5 46.3 0.55 Z"/>
</g>

<g id="icon_r_box_02_0_Layer2_0_MEMBER_1_MEMBER_1_FILL">
<path fill="#209455" stroke="none" d="
M 49.1 1.1
Q 48.65 0.7 47.75 0.75
L 58.3 40 76.35 40 50.3 2.6
Q 49.4 1.35 49.1 1.1 Z"/>
</g>

<path id="icon_r_box_02_0_Layer2_0_MEMBER_0_MEMBER_0_MEMBER_0_MEMBER_0_1_STROKES" stroke="#000000" stroke-width="1" stroke-linejoin="round" stroke-linecap="round" fill="none" d="
M 15.85 17.4
L 0.5 40 36.4 40 20.7 17.4
Q 19.8 16.15 18.25 16.15 16.7 16.15 15.85 17.4 Z"/>

<path id="icon_r_box_02_0_Layer2_0_MEMBER_0_MEMBER_2_MEMBER_0_MEMBER_0_1_STROKES" stroke="#000000" stroke-width="1" stroke-linejoin="round" stroke-linecap="round" fill="none" d="
M 15.85 17.4
L 0.5 40 36.4 40 20.7 17.4
Q 19.8 16.15 18.25 16.15 16.7 16.15 15.85 17.4 Z"/>

<path id="icon_r_box_02_0_Layer2_0_MEMBER_0_MEMBER_3_MEMBER_0_MEMBER_0_1_STROKES" stroke="#000000" stroke-width="1" stroke-linejoin="round" stroke-linecap="round" fill="none" d="
M 6.9 34.6
L 6.05 35.85"/>

<path id="icon_r_box_02_0_Layer2_0_MEMBER_0_MEMBER_3_MEMBER_0_MEMBER_1_1_STROKES" stroke="#000000" stroke-width="1" stroke-linejoin="round" stroke-linecap="round" fill="none" d="
M 11.75 27.45
L 7.8 33.25"/>

<path id="icon_r_box_02_0_Layer2_0_MEMBER_1_MEMBER_0_MEMBER_0_MEMBER_0_1_STROKES" stroke="#000000" stroke-width="1" stroke-linejoin="round" stroke-linecap="round" fill="none" d="
M 42.3 2.65
L 16.9 40 76.35 40 50.3 2.6
Q 48.9 0.5 46.3 0.55 43.75 0.55 42.3 2.65 Z"/>

<path id="icon_r_box_02_0_Layer2_0_MEMBER_1_MEMBER_2_MEMBER_0_MEMBER_0_1_STROKES" stroke="#000000" stroke-width="1" stroke-linejoin="round" stroke-linecap="round" fill="none" d="
M 42.3 2.65
L 16.9 40 76.35 40 50.3 2.6
Q 48.9 0.5 46.3 0.55 43.75 0.55 42.3 2.65 Z"/>

<path id="icon_r_box_02_0_Layer2_0_MEMBER_1_MEMBER_3_MEMBER_0_MEMBER_0_1_STROKES" stroke="#000000" stroke-width="1" stroke-linejoin="round" stroke-linecap="round" fill="none" d="
M 26.8 30.6
L 25.4 32.7"/>

<path id="icon_r_box_02_0_Layer2_0_MEMBER_1_MEMBER_3_MEMBER_0_MEMBER_1_1_STROKES" stroke="#000000" stroke-width="1" stroke-linejoin="round" stroke-linecap="round" fill="none" d="
M 34.85 18.85
L 28.3 28.45"/>
</defs>

<g transform="matrix( 1, 0, 0, 0.999603271484375, 65,60) ">
<g transform="matrix( 1, 0, 0, 1, 0,0) ">
<use xlink:href="#icon_r_box_02_0_Layer3_0_FILL"/>
</g>

<g transform="matrix( 1, 0, 0, 1, -0.05,0.05) ">
<use xlink:href="#icon_r_box_02_0_Layer3_1_FILL"/>
</g>

<g transform="matrix( 1, 0, 0, 1, 0,-2.15) ">
<use xlink:href="#icon_r_box_02_0_Layer3_2_FILL"/>
</g>

<g transform="matrix( 1, 0, 0, 1, 0,0.05) ">
<use xlink:href="#icon_r_box_02_0_Layer3_3_FILL"/>
</g>

<g transform="matrix( 1, 0, 0, 1, -38.4,-28.95) ">
<use xlink:href="#icon_r_box_02_0_Layer2_0_MEMBER_0_MEMBER_0_MEMBER_0_MEMBER_0_FILL"/>

<use xlink:href="#icon_r_box_02_0_Layer2_0_MEMBER_0_MEMBER_0_MEMBER_0_MEMBER_0_1_STROKES"/>
</g>

<g transform="matrix( 1, 0, 0, 1, -38.4,-28.95) ">
<use xlink:href="#icon_r_box_02_0_Layer2_0_MEMBER_0_MEMBER_1_FILL"/>
</g>

<g transform="matrix( 1, 0, 0, 1, -38.4,-28.95) ">
<use xlink:href="#icon_r_box_02_0_Layer2_0_MEMBER_0_MEMBER_2_MEMBER_0_MEMBER_0_1_STROKES"/>
</g>

<g transform="matrix( 1, 0, 0, 1, -38.4,-28.95) ">
<use xlink:href="#icon_r_box_02_0_Layer2_0_MEMBER_0_MEMBER_3_MEMBER_0_MEMBER_0_1_STROKES"/>
</g>

<g transform="matrix( 1, 0, 0, 1, -38.4,-28.95) ">
<use xlink:href="#icon_r_box_02_0_Layer2_0_MEMBER_0_MEMBER_3_MEMBER_0_MEMBER_1_1_STROKES"/>
</g>

<g transform="matrix( 1, 0, 0, 1, -38.4,-28.95) ">
<use xlink:href="#icon_r_box_02_0_Layer2_0_MEMBER_1_MEMBER_0_MEMBER_0_MEMBER_0_FILL"/>

<use xlink:href="#icon_r_box_02_0_Layer2_0_MEMBER_1_MEMBER_0_MEMBER_0_MEMBER_0_1_STROKES"/>
</g>

<g transform="matrix( 1, 0, 0, 1, -38.4,-28.95) ">
<use xlink:href="#icon_r_box_02_0_Layer2_0_MEMBER_1_MEMBER_1_FILL"/>
</g>

<g transform="matrix( 1, 0, 0, 1, -38.4,-28.95) ">
<use xlink:href="#icon_r_box_02_0_Layer2_0_MEMBER_1_MEMBER_2_MEMBER_0_MEMBER_0_1_STROKES"/>
</g>

<g transform="matrix( 1, 0, 0, 1, -38.4,-28.95) ">
<use xlink:href="#icon_r_box_02_0_Layer2_0_MEMBER_1_MEMBER_3_MEMBER_0_MEMBER_0_1_STROKES"/>
</g>

<g transform="matrix( 1, 0, 0, 1, -38.4,-28.95) ">
<use xlink:href="#icon_r_box_02_0_Layer2_0_MEMBER_1_MEMBER_3_MEMBER_0_MEMBER_1_1_STROKES"/>
</g>
</g>
</svg>
