
<svg xmlns="http://www.w3.org/2000/svg" version="1.1" xmlns:xlink="http://www.w3.org/1999/xlink" preserveAspectRatio="none" x="0px" y="0px" width="130px" height="115px" viewBox="0 0 130 115">
<defs>
<g id="icon_r_box_02_37_Layer3_0_FILL">
<path fill="#FFFFFF" fill-opacity="0" stroke="none" d="
M 65 -55
L -65 -55 -65 25 65 25 65 -55 Z"/>
</g>

<g id="icon_r_box_02_37_Layer3_1_FILL">
<path fill="#FFFFFF" fill-opacity="0" stroke="none" d="
M 65.05 49.95
L 65.05 24.95 -64.95 24.95 -64.95 49.95 65.05 49.95 Z"/>
</g>

<g id="icon_r_box_02_37_Layer3_2_FILL">
<path fill="#FFFFFF" fill-opacity="0" stroke="none" d="
M 65 -52.85
L 65 -57.85 -65 -57.85 -65 -52.85 65 -52.85 Z"/>
</g>

<g id="icon_r_box_02_37_Layer3_3_FILL">
<path fill="#FFFFFF" fill-opacity="0" stroke="none" d="
M 65 54.95
L 65 49.95 -65 49.95 -65 54.95 65 54.95 Z"/>
</g>

<g id="icon_r_box_02_37_Layer2_0_MEMBER_0_MEMBER_0_MEMBER_0_FILL">
<path fill="#FFFFFF" stroke="none" d="
M 52.45 29.55
L 52.45 11.95 5.4 11.95 5.4 29.55 52.45 29.55 Z"/>
</g>

<g id="icon_r_box_02_37_Layer2_0_MEMBER_0_MEMBER_0_MEMBER_1_FILL">
<path fill="#016BC9" stroke="none" d="
M 55.45 11.95
L 51.6 0.5 6.25 0.5 2.4 11.95 55.45 11.95 Z"/>
</g>

<g id="icon_r_box_02_37_Layer2_0_MEMBER_0_MEMBER_0_MEMBER_2_MEMBER_0_MEMBER_0_MEMBER_0_MEMBER_0_FILL">
<path fill="#FFFFFF" stroke="none" d="
M 44 26.95
L 44 14.25 35.45 6.5 26.9 14.25 26.9 26.95 44 26.95 Z"/>
</g>

<g id="icon_r_box_02_37_Layer2_0_MEMBER_0_MEMBER_0_MEMBER_2_MEMBER_0_MEMBER_0_MEMBER_0_MEMBER_1_FILL">
<path fill="#C68C73" stroke="none" d="
M 35.45 5.9
L 25.95 14.45 44.55 14.45 35.45 5.9 Z"/>
</g>

<g id="icon_r_box_02_37_Layer2_0_MEMBER_0_MEMBER_0_MEMBER_2_MEMBER_0_MEMBER_0_MEMBER_0_MEMBER_2_FILL">
<path fill="#016BC9" stroke="none" d="
M 45.95 17.05
L 47.75 15.5 35.45 4.8 23.15 15.5 24.95 17.05 35.45 7.85 45.95 17.05 Z"/>
</g>

<g id="icon_r_box_02_37_Layer2_0_MEMBER_0_MEMBER_0_MEMBER_3_MEMBER_0_FILL">
<path fill="#C68C73" stroke="none" d="
M 39.25 26.95
L 39.25 16.9 31.7 16.9 31.7 26.95 39.25 26.95 Z"/>
</g>

<g id="icon_r_box_02_37_Layer2_0_MEMBER_0_MEMBER_0_MEMBER_4_FILL">
<path fill="#DCDAD7" stroke="none" d="
M 46.6 29.55
L 46.6 26.95 24.35 26.95 24.35 29.55 46.6 29.55 Z"/>
</g>

<g id="icon_r_box_02_37_Layer2_0_MEMBER_0_MEMBER_0_MEMBER_5_MEMBER_0_FILL">
<path fill="#76A4D2" stroke="none" d="
M 19.1 23.3
L 19.1 16.4 11.65 16.4 11.65 23.3 19.1 23.3 Z"/>
</g>

<g id="icon_r_box_02_37_Layer2_0_MEMBER_0_MEMBER_0_MEMBER_5_MEMBER_1_FILL">
<path fill="#C68C73" stroke="none" d="
M 20.2 25.1
L 20.2 23.3 10.55 23.3 10.55 25.1 20.2 25.1 Z"/>
</g>

<path id="icon_r_box_02_37_Layer2_0_MEMBER_0_MEMBER_0_MEMBER_0_1_STROKES" stroke="#000000" stroke-width="1" stroke-linejoin="round" stroke-linecap="round" fill="none" d="
M 52.45 11.95
L 5.4 11.95 5.4 29.55 52.45 29.55 52.45 11.95 Z"/>

<path id="icon_r_box_02_37_Layer2_0_MEMBER_0_MEMBER_0_MEMBER_1_1_STROKES" stroke="#000000" stroke-width="1" stroke-linejoin="round" stroke-linecap="round" fill="none" d="
M 55.45 11.95
L 2.4 11.95 6.25 0.5 51.6 0.5 55.45 11.95 Z"/>

<path id="icon_r_box_02_37_Layer2_0_MEMBER_0_MEMBER_0_MEMBER_2_MEMBER_0_MEMBER_0_MEMBER_0_MEMBER_0_1_STROKES" stroke="#000000" stroke-width="1" stroke-linejoin="round" stroke-linecap="round" fill="none" d="
M 44 26.95
L 26.9 26.95 26.9 14.25 35.45 6.5 44 14.25 44 26.95 Z"/>

<path id="icon_r_box_02_37_Layer2_0_MEMBER_0_MEMBER_0_MEMBER_2_MEMBER_0_MEMBER_0_MEMBER_0_MEMBER_1_1_STROKES" stroke="#000000" stroke-width="1" stroke-linejoin="round" stroke-linecap="round" fill="none" d="
M 44.55 14.45
L 25.95 14.45 35.45 5.9 44.55 14.45 Z"/>

<path id="icon_r_box_02_37_Layer2_0_MEMBER_0_MEMBER_0_MEMBER_2_MEMBER_0_MEMBER_0_MEMBER_0_MEMBER_2_1_STROKES" stroke="#000000" stroke-width="1" stroke-linejoin="round" stroke-linecap="round" fill="none" d="
M 24.95 17.05
L 23.15 15.5 35.45 4.8 47.75 15.5 45.95 17.05 35.45 7.85 24.95 17.05 Z"/>

<path id="icon_r_box_02_37_Layer2_0_MEMBER_0_MEMBER_0_MEMBER_3_MEMBER_0_1_STROKES" stroke="#000000" stroke-width="1" stroke-linejoin="round" stroke-linecap="round" fill="none" d="
M 39.25 26.95
L 31.7 26.95 31.7 16.9 39.25 16.9 39.25 26.95 Z"/>

<path id="icon_r_box_02_37_Layer2_0_MEMBER_0_MEMBER_0_MEMBER_3_MEMBER_1_MEMBER_0_1_STROKES" stroke="#000000" stroke-width="1" stroke-linejoin="round" stroke-linecap="round" fill="none" d="
M 37.8 21.9
L 37.8 22.65"/>

<path id="icon_r_box_02_37_Layer2_0_MEMBER_0_MEMBER_0_MEMBER_4_1_STROKES" stroke="#000000" stroke-width="1" stroke-linejoin="round" stroke-linecap="round" fill="none" d="
M 46.6 29.55
L 24.35 29.55 24.35 26.95 46.6 26.95 46.6 29.55 Z"/>

<path id="icon_r_box_02_37_Layer2_0_MEMBER_0_MEMBER_0_MEMBER_5_MEMBER_0_1_STROKES" stroke="#000000" stroke-width="1" stroke-linejoin="round" stroke-linecap="round" fill="none" d="
M 19.1 23.3
L 11.65 23.3 11.65 16.4 19.1 16.4 19.1 23.3 Z"/>

<path id="icon_r_box_02_37_Layer2_0_MEMBER_0_MEMBER_0_MEMBER_5_MEMBER_1_1_STROKES" stroke="#000000" stroke-width="1" stroke-linejoin="round" stroke-linecap="round" fill="none" d="
M 20.2 23.3
L 10.55 23.3 10.55 25.1 20.2 25.1 20.2 23.3 Z"/>

<path id="icon_r_box_02_37_Layer2_0_MEMBER_0_MEMBER_0_MEMBER_5_MEMBER_2_MEMBER_0_1_STROKES" stroke="#000000" stroke-width="1" stroke-linejoin="round" stroke-linecap="round" fill="none" d="
M 15.4 16.4
L 15.4 23.3"/>

<path id="icon_r_box_02_37_Layer2_0_MEMBER_0_MEMBER_1_MEMBER_0_1_STROKES" stroke="#000000" stroke-width="1" stroke-linejoin="round" stroke-linecap="round" fill="none" d="
M 0.5 29.55
L 57.35 29.55"/>
</defs>

<g transform="matrix( 1, 0, 0, 0.999603271484375, 65,60) ">
<g transform="matrix( 1, 0, 0, 1, 0,0) ">
<use xlink:href="#icon_r_box_02_37_Layer3_0_FILL"/>
</g>

<g transform="matrix( 1, 0, 0, 1, -0.05,0.05) ">
<use xlink:href="#icon_r_box_02_37_Layer3_1_FILL"/>
</g>

<g transform="matrix( 1, 0, 0, 1, 0,-2.15) ">
<use xlink:href="#icon_r_box_02_37_Layer3_2_FILL"/>
</g>

<g transform="matrix( 1, 0, 0, 1, 0,0.05) ">
<use xlink:href="#icon_r_box_02_37_Layer3_3_FILL"/>
</g>

<g transform="matrix( 1, 0, 0, 1, -28.9,-23.75) ">
<use xlink:href="#icon_r_box_02_37_Layer2_0_MEMBER_0_MEMBER_0_MEMBER_0_FILL"/>

<use xlink:href="#icon_r_box_02_37_Layer2_0_MEMBER_0_MEMBER_0_MEMBER_0_1_STROKES"/>
</g>

<g transform="matrix( 1, 0, 0, 1, -28.9,-23.75) ">
<use xlink:href="#icon_r_box_02_37_Layer2_0_MEMBER_0_MEMBER_0_MEMBER_1_FILL"/>

<use xlink:href="#icon_r_box_02_37_Layer2_0_MEMBER_0_MEMBER_0_MEMBER_1_1_STROKES"/>
</g>

<g transform="matrix( 1, 0, 0, 1, -28.9,-23.75) ">
<use xlink:href="#icon_r_box_02_37_Layer2_0_MEMBER_0_MEMBER_0_MEMBER_2_MEMBER_0_MEMBER_0_MEMBER_0_MEMBER_0_FILL"/>

<use xlink:href="#icon_r_box_02_37_Layer2_0_MEMBER_0_MEMBER_0_MEMBER_2_MEMBER_0_MEMBER_0_MEMBER_0_MEMBER_0_1_STROKES"/>
</g>

<g transform="matrix( 1, 0, 0, 1, -28.9,-23.75) ">
<use xlink:href="#icon_r_box_02_37_Layer2_0_MEMBER_0_MEMBER_0_MEMBER_2_MEMBER_0_MEMBER_0_MEMBER_0_MEMBER_1_FILL"/>

<use xlink:href="#icon_r_box_02_37_Layer2_0_MEMBER_0_MEMBER_0_MEMBER_2_MEMBER_0_MEMBER_0_MEMBER_0_MEMBER_1_1_STROKES"/>
</g>

<g transform="matrix( 1, 0, 0, 1, -28.9,-23.75) ">
<use xlink:href="#icon_r_box_02_37_Layer2_0_MEMBER_0_MEMBER_0_MEMBER_2_MEMBER_0_MEMBER_0_MEMBER_0_MEMBER_2_FILL"/>

<use xlink:href="#icon_r_box_02_37_Layer2_0_MEMBER_0_MEMBER_0_MEMBER_2_MEMBER_0_MEMBER_0_MEMBER_0_MEMBER_2_1_STROKES"/>
</g>

<g transform="matrix( 1, 0, 0, 1, -28.9,-23.75) ">
<use xlink:href="#icon_r_box_02_37_Layer2_0_MEMBER_0_MEMBER_0_MEMBER_3_MEMBER_0_FILL"/>

<use xlink:href="#icon_r_box_02_37_Layer2_0_MEMBER_0_MEMBER_0_MEMBER_3_MEMBER_0_1_STROKES"/>
</g>

<g transform="matrix( 1, 0, 0, 1, -28.9,-23.75) ">
<use xlink:href="#icon_r_box_02_37_Layer2_0_MEMBER_0_MEMBER_0_MEMBER_3_MEMBER_1_MEMBER_0_1_STROKES"/>
</g>

<g transform="matrix( 1, 0, 0, 1, -28.9,-23.75) ">
<use xlink:href="#icon_r_box_02_37_Layer2_0_MEMBER_0_MEMBER_0_MEMBER_4_FILL"/>

<use xlink:href="#icon_r_box_02_37_Layer2_0_MEMBER_0_MEMBER_0_MEMBER_4_1_STROKES"/>
</g>

<g transform="matrix( 1, 0, 0, 1, -28.9,-23.75) ">
<use xlink:href="#icon_r_box_02_37_Layer2_0_MEMBER_0_MEMBER_0_MEMBER_5_MEMBER_0_FILL"/>

<use xlink:href="#icon_r_box_02_37_Layer2_0_MEMBER_0_MEMBER_0_MEMBER_5_MEMBER_0_1_STROKES"/>
</g>

<g transform="matrix( 1, 0, 0, 1, -28.9,-23.75) ">
<use xlink:href="#icon_r_box_02_37_Layer2_0_MEMBER_0_MEMBER_0_MEMBER_5_MEMBER_1_FILL"/>

<use xlink:href="#icon_r_box_02_37_Layer2_0_MEMBER_0_MEMBER_0_MEMBER_5_MEMBER_1_1_STROKES"/>
</g>

<g transform="matrix( 1, 0, 0, 1, -28.9,-23.75) ">
<use xlink:href="#icon_r_box_02_37_Layer2_0_MEMBER_0_MEMBER_0_MEMBER_5_MEMBER_2_MEMBER_0_1_STROKES"/>
</g>

<g transform="matrix( 1, 0, 0, 1, -28.9,-23.75) ">
<use xlink:href="#icon_r_box_02_37_Layer2_0_MEMBER_0_MEMBER_1_MEMBER_0_1_STROKES"/>
</g>
</g>
</svg>
