
<svg xmlns="http://www.w3.org/2000/svg" version="1.1" xmlns:xlink="http://www.w3.org/1999/xlink" preserveAspectRatio="none" x="0px" y="0px" width="130px" height="115px" viewBox="0 0 130 115">
<defs>
<g id="icon_r_box_02_17_Layer3_0_FILL">
<path fill="#FFFFFF" fill-opacity="0" stroke="none" d="
M 65 -55
L -65 -55 -65 25 65 25 65 -55 Z"/>
</g>

<g id="icon_r_box_02_17_Layer3_1_FILL">
<path fill="#FFFFFF" fill-opacity="0" stroke="none" d="
M 65.05 49.95
L 65.05 24.95 -64.95 24.95 -64.95 49.95 65.05 49.95 Z"/>
</g>

<g id="icon_r_box_02_17_Layer3_2_FILL">
<path fill="#FFFFFF" fill-opacity="0" stroke="none" d="
M 65 -52.85
L 65 -57.85 -65 -57.85 -65 -52.85 65 -52.85 Z"/>
</g>

<g id="icon_r_box_02_17_Layer3_3_FILL">
<path fill="#FFFFFF" fill-opacity="0" stroke="none" d="
M 65 54.95
L 65 49.95 -65 49.95 -65 54.95 65 54.95 Z"/>
</g>

<g id="icon_r_box_02_17_Layer2_0_MEMBER_0_MEMBER_0_FILL">
<path fill="#D4D3D5" stroke="none" d="
M 28.15 11
L 27.7 0.5 26.55 0.5 26.1 11 28.15 11 Z"/>
</g>

<g id="icon_r_box_02_17_Layer2_0_MEMBER_0_MEMBER_1_FILL">
<path fill="#D4D3D5" stroke="none" d="
M 8.75 51.8
L 8.75 55.35 45.5 55.35 45.5 51.8 8.75 51.8 Z"/>
</g>

<g id="icon_r_box_02_17_Layer2_0_MEMBER_0_MEMBER_3_FILL">
<path fill="#D4D3D5" stroke="none" d="
M 38.6 45.6
L 15.65 45.6 15.65 52 38.6 52 38.6 45.6 Z"/>
</g>

<g id="icon_r_box_02_17_Layer2_0_MEMBER_0_MEMBER_4_MEMBER_0_FILL">
<path fill="#BAB9BC" stroke="none" d="
M 21.75 45.6
L 18 45.6 18 52 21.75 52 21.75 45.6 Z"/>
</g>

<g id="icon_r_box_02_17_Layer2_0_MEMBER_0_MEMBER_4_MEMBER_1_FILL">
<path fill="#BAB9BC" stroke="none" d="
M 29 45.6
L 25.25 45.6 25.25 52 29 52 29 45.6 Z"/>
</g>

<g id="icon_r_box_02_17_Layer2_0_MEMBER_0_MEMBER_4_MEMBER_2_FILL">
<path fill="#BAB9BC" stroke="none" d="
M 36.25 45.6
L 32.5 45.6 32.5 52 36.25 52 36.25 45.6 Z"/>
</g>

<g id="icon_r_box_02_17_Layer2_0_MEMBER_0_MEMBER_5_FILL">
<path fill="#D4D3D5" stroke="none" d="
M 40.4 45.6
L 40.4 42.5 13.85 42.5 13.85 45.6 40.4 45.6 Z"/>
</g>

<g id="icon_r_box_02_17_Layer2_0_MEMBER_0_MEMBER_6_FILL">
<path fill="#D4D3D5" stroke="none" d="
M 35.95 42.5
L 35.95 36.4 18.3 36.4 18.3 42.5 35.95 42.5 Z"/>
</g>

<g id="icon_r_box_02_17_Layer2_0_MEMBER_0_MEMBER_7_FILL">
<path fill="#BAB9BC" stroke="none" d="
M 33.2 42.5
L 33.2 36.4 21.05 36.4 21.05 42.5 33.2 42.5 Z"/>
</g>

<g id="icon_r_box_02_17_Layer2_0_MEMBER_0_MEMBER_8_FILL">
<path fill="#9A9A9A" stroke="none" d="
M 35.95 36.4
L 39.3 34.85 14.95 34.85 18.3 36.4 35.95 36.4 Z"/>
</g>

<g id="icon_r_box_02_17_Layer2_0_MEMBER_0_MEMBER_9_FILL">
<path fill="#D4D3D5" stroke="none" d="
M 39.3 34.85
L 33.8 32.4 20.45 32.4 14.95 34.85 39.3 34.85 Z"/>
</g>

<g id="icon_r_box_02_17_Layer2_0_MEMBER_0_MEMBER_10_FILL">
<path fill="#D4D3D5" stroke="none" d="
M 33.85 32.4
L 33.85 26.6 20.4 26.6 20.4 32.4 33.85 32.4 Z"/>
</g>

<g id="icon_r_box_02_17_Layer2_0_MEMBER_0_MEMBER_11_FILL">
<path fill="#BAB9BC" stroke="none" d="
M 31.75 32.4
L 31.75 26.6 22.5 26.6 22.5 32.4 31.75 32.4 Z"/>
</g>

<g id="icon_r_box_02_17_Layer2_0_MEMBER_0_MEMBER_12_MEMBER_0_FILL">
<path fill="#9A9A9A" stroke="none" d="
M 33.9 26.6
L 36.45 25.05 17.8 25.05 20.35 26.6 33.9 26.6 Z"/>
</g>

<g id="icon_r_box_02_17_Layer2_0_MEMBER_0_MEMBER_12_MEMBER_1_FILL">
<path fill="#D4D3D5" stroke="none" d="
M 36.45 25.05
L 32.25 22.6 22 22.6 17.8 25.05 36.45 25.05 Z"/>
</g>

<g id="icon_r_box_02_17_Layer2_0_MEMBER_0_MEMBER_13_FILL">
<path fill="#D4D3D5" stroke="none" d="
M 32.25 22.6
L 32.25 16.85 22 16.85 22 22.6 32.25 22.6 Z"/>
</g>

<g id="icon_r_box_02_17_Layer2_0_MEMBER_0_MEMBER_14_FILL">
<path fill="#BAB9BC" stroke="none" d="
M 30.25 22.6
L 30.25 16.85 24 16.85 24 22.6 30.25 22.6 Z"/>
</g>

<g id="icon_r_box_02_17_Layer2_0_MEMBER_0_MEMBER_15_FILL">
<path fill="#9A9A9A" stroke="none" d="
M 32.25 16.85
L 33.7 15.15 20.55 15.15 22 16.85 32.25 16.85 Z"/>
</g>

<g id="icon_r_box_02_17_Layer2_0_MEMBER_0_MEMBER_16_FILL">
<path fill="#D4D3D5" stroke="none" d="
M 33.7 15.15
L 31 13.5 23.25 13.5 20.55 15.15 33.7 15.15 Z"/>
</g>

<g id="icon_r_box_02_17_Layer2_0_MEMBER_0_MEMBER_17_FILL">
<path fill="#9A9A9A" stroke="none" d="
M 29.75 13.5
L 30.85 11.85 23.65 11.85 24.75 13.5 29.75 13.5 Z"/>
</g>

<g id="icon_r_box_02_17_Layer2_0_MEMBER_0_MEMBER_18_FILL">
<path fill="#D4D3D5" stroke="none" d="
M 30.85 11.85
L 29.15 10.2 25.35 10.2 23.65 11.85 30.85 11.85 Z"/>
</g>

<g id="icon_r_box_02_17_Layer2_0_MEMBER_0_MEMBER_19_FILL">
<path fill="#D4D3D5" stroke="none" d="
M 28.4 4.15
L 28.4 2.6 25.85 2.6 25.85 4.15 28.4 4.15 Z"/>
</g>

<path id="icon_r_box_02_17_Layer2_0_MEMBER_0_MEMBER_0_1_STROKES" stroke="#000000" stroke-width="1" stroke-linejoin="round" stroke-linecap="round" fill="none" d="
M 28.15 11
L 26.1 11 26.55 0.5 27.7 0.5 28.15 11 Z"/>

<path id="icon_r_box_02_17_Layer2_0_MEMBER_0_MEMBER_1_1_STROKES" stroke="#000000" stroke-width="1" stroke-linejoin="round" stroke-linecap="round" fill="none" d="
M 45.5 55.35
L 8.75 55.35 8.75 51.8 45.5 51.8 45.5 55.35 Z"/>

<path id="icon_r_box_02_17_Layer2_0_MEMBER_0_MEMBER_2_MEMBER_0_1_STROKES" stroke="#000000" stroke-width="1" stroke-linejoin="round" stroke-linecap="round" fill="none" d="
M 0.5 55.1
L 53.75 55.1"/>

<path id="icon_r_box_02_17_Layer2_0_MEMBER_0_MEMBER_3_1_STROKES" stroke="#000000" stroke-width="1" stroke-linejoin="round" stroke-linecap="round" fill="none" d="
M 38.6 45.6
L 15.65 45.6 15.65 52 38.6 52 38.6 45.6 Z"/>

<path id="icon_r_box_02_17_Layer2_0_MEMBER_0_MEMBER_4_MEMBER_0_1_STROKES" stroke="#000000" stroke-width="1" stroke-linejoin="round" stroke-linecap="round" fill="none" d="
M 21.75 45.6
L 18 45.6 18 52 21.75 52 21.75 45.6 Z"/>

<path id="icon_r_box_02_17_Layer2_0_MEMBER_0_MEMBER_4_MEMBER_1_1_STROKES" stroke="#000000" stroke-width="1" stroke-linejoin="round" stroke-linecap="round" fill="none" d="
M 29 45.6
L 25.25 45.6 25.25 52 29 52 29 45.6 Z"/>

<path id="icon_r_box_02_17_Layer2_0_MEMBER_0_MEMBER_4_MEMBER_2_1_STROKES" stroke="#000000" stroke-width="1" stroke-linejoin="round" stroke-linecap="round" fill="none" d="
M 36.25 45.6
L 32.5 45.6 32.5 52 36.25 52 36.25 45.6 Z"/>

<path id="icon_r_box_02_17_Layer2_0_MEMBER_0_MEMBER_5_1_STROKES" stroke="#000000" stroke-width="1" stroke-linejoin="round" stroke-linecap="round" fill="none" d="
M 40.4 45.6
L 13.85 45.6 13.85 42.5 40.4 42.5 40.4 45.6 Z"/>

<path id="icon_r_box_02_17_Layer2_0_MEMBER_0_MEMBER_6_1_STROKES" stroke="#000000" stroke-width="1" stroke-linejoin="round" stroke-linecap="round" fill="none" d="
M 35.95 36.4
L 18.3 36.4 18.3 42.5 35.95 42.5 35.95 36.4 Z"/>

<path id="icon_r_box_02_17_Layer2_0_MEMBER_0_MEMBER_7_1_STROKES" stroke="#000000" stroke-width="1" stroke-linejoin="round" stroke-linecap="round" fill="none" d="
M 33.2 36.4
L 21.05 36.4 21.05 42.5 33.2 42.5 33.2 36.4 Z"/>

<path id="icon_r_box_02_17_Layer2_0_MEMBER_0_MEMBER_8_1_STROKES" stroke="#000000" stroke-width="1" stroke-linejoin="round" stroke-linecap="round" fill="none" d="
M 35.95 36.4
L 18.3 36.4 14.95 34.85 39.3 34.85 35.95 36.4 Z"/>

<path id="icon_r_box_02_17_Layer2_0_MEMBER_0_MEMBER_9_1_STROKES" stroke="#000000" stroke-width="1" stroke-linejoin="round" stroke-linecap="round" fill="none" d="
M 33.8 32.4
L 20.45 32.4 14.95 34.85 39.3 34.85 33.8 32.4 Z"/>

<path id="icon_r_box_02_17_Layer2_0_MEMBER_0_MEMBER_10_1_STROKES" stroke="#000000" stroke-width="1" stroke-linejoin="round" stroke-linecap="round" fill="none" d="
M 33.85 26.6
L 20.4 26.6 20.4 32.4 33.85 32.4 33.85 26.6 Z"/>

<path id="icon_r_box_02_17_Layer2_0_MEMBER_0_MEMBER_11_1_STROKES" stroke="#000000" stroke-width="1" stroke-linejoin="round" stroke-linecap="round" fill="none" d="
M 31.75 26.6
L 22.5 26.6 22.5 32.4 31.75 32.4 31.75 26.6 Z"/>

<path id="icon_r_box_02_17_Layer2_0_MEMBER_0_MEMBER_12_MEMBER_0_1_STROKES" stroke="#000000" stroke-width="1" stroke-linejoin="round" stroke-linecap="round" fill="none" d="
M 33.9 26.6
L 20.35 26.6 17.8 25.05 36.45 25.05 33.9 26.6 Z"/>

<path id="icon_r_box_02_17_Layer2_0_MEMBER_0_MEMBER_12_MEMBER_1_1_STROKES" stroke="#000000" stroke-width="1" stroke-linejoin="round" stroke-linecap="round" fill="none" d="
M 32.25 22.6
L 22 22.6 17.8 25.05 36.45 25.05 32.25 22.6 Z"/>

<path id="icon_r_box_02_17_Layer2_0_MEMBER_0_MEMBER_13_1_STROKES" stroke="#000000" stroke-width="1" stroke-linejoin="round" stroke-linecap="round" fill="none" d="
M 32.25 16.85
L 22 16.85 22 22.6 32.25 22.6 32.25 16.85 Z"/>

<path id="icon_r_box_02_17_Layer2_0_MEMBER_0_MEMBER_14_1_STROKES" stroke="#000000" stroke-width="1" stroke-linejoin="round" stroke-linecap="round" fill="none" d="
M 30.25 16.85
L 24 16.85 24 22.6 30.25 22.6 30.25 16.85 Z"/>

<path id="icon_r_box_02_17_Layer2_0_MEMBER_0_MEMBER_15_1_STROKES" stroke="#000000" stroke-width="1" stroke-linejoin="round" stroke-linecap="round" fill="none" d="
M 32.25 16.85
L 22 16.85 20.55 15.15 33.7 15.15 32.25 16.85 Z"/>

<path id="icon_r_box_02_17_Layer2_0_MEMBER_0_MEMBER_16_1_STROKES" stroke="#000000" stroke-width="1" stroke-linejoin="round" stroke-linecap="round" fill="none" d="
M 31 13.5
L 23.25 13.5 20.55 15.15 33.7 15.15 31 13.5 Z"/>

<path id="icon_r_box_02_17_Layer2_0_MEMBER_0_MEMBER_17_1_STROKES" stroke="#000000" stroke-width="1" stroke-linejoin="round" stroke-linecap="round" fill="none" d="
M 29.75 13.5
L 24.75 13.5 23.65 11.85 30.85 11.85 29.75 13.5 Z"/>

<path id="icon_r_box_02_17_Layer2_0_MEMBER_0_MEMBER_18_1_STROKES" stroke="#000000" stroke-width="1" stroke-linejoin="round" stroke-linecap="round" fill="none" d="
M 29.15 10.2
L 25.35 10.2 23.65 11.85 30.85 11.85 29.15 10.2 Z"/>

<path id="icon_r_box_02_17_Layer2_0_MEMBER_0_MEMBER_19_1_STROKES" stroke="#000000" stroke-width="1" stroke-linejoin="round" stroke-linecap="round" fill="none" d="
M 28.4 4.15
L 25.85 4.15 25.85 2.6 28.4 2.6 28.4 4.15 Z"/>
</defs>

<g transform="matrix( 1, 0, 0, 0.999603271484375, 65,60) ">
<g transform="matrix( 1, 0, 0, 1, 0,0) ">
<use xlink:href="#icon_r_box_02_17_Layer3_0_FILL"/>
</g>

<g transform="matrix( 1, 0, 0, 1, -0.05,0.05) ">
<use xlink:href="#icon_r_box_02_17_Layer3_1_FILL"/>
</g>

<g transform="matrix( 1, 0, 0, 1, 0,-2.15) ">
<use xlink:href="#icon_r_box_02_17_Layer3_2_FILL"/>
</g>

<g transform="matrix( 1, 0, 0, 1, 0,0.05) ">
<use xlink:href="#icon_r_box_02_17_Layer3_3_FILL"/>
</g>

<g transform="matrix( 1, 0, 0, 1, -27.1,-42.95) ">
<use xlink:href="#icon_r_box_02_17_Layer2_0_MEMBER_0_MEMBER_0_FILL"/>

<use xlink:href="#icon_r_box_02_17_Layer2_0_MEMBER_0_MEMBER_0_1_STROKES"/>
</g>

<g transform="matrix( 1, 0, 0, 1, -27.1,-42.95) ">
<use xlink:href="#icon_r_box_02_17_Layer2_0_MEMBER_0_MEMBER_1_FILL"/>

<use xlink:href="#icon_r_box_02_17_Layer2_0_MEMBER_0_MEMBER_1_1_STROKES"/>
</g>

<g transform="matrix( 1, 0, 0, 1, -27.1,-42.95) ">
<use xlink:href="#icon_r_box_02_17_Layer2_0_MEMBER_0_MEMBER_2_MEMBER_0_1_STROKES"/>
</g>

<g transform="matrix( 1, 0, 0, 1, -27.1,-42.95) ">
<use xlink:href="#icon_r_box_02_17_Layer2_0_MEMBER_0_MEMBER_3_FILL"/>

<use xlink:href="#icon_r_box_02_17_Layer2_0_MEMBER_0_MEMBER_3_1_STROKES"/>
</g>

<g transform="matrix( 1, 0, 0, 1, -27.1,-42.95) ">
<use xlink:href="#icon_r_box_02_17_Layer2_0_MEMBER_0_MEMBER_4_MEMBER_0_FILL"/>

<use xlink:href="#icon_r_box_02_17_Layer2_0_MEMBER_0_MEMBER_4_MEMBER_0_1_STROKES"/>
</g>

<g transform="matrix( 1, 0, 0, 1, -27.1,-42.95) ">
<use xlink:href="#icon_r_box_02_17_Layer2_0_MEMBER_0_MEMBER_4_MEMBER_1_FILL"/>

<use xlink:href="#icon_r_box_02_17_Layer2_0_MEMBER_0_MEMBER_4_MEMBER_1_1_STROKES"/>
</g>

<g transform="matrix( 1, 0, 0, 1, -27.1,-42.95) ">
<use xlink:href="#icon_r_box_02_17_Layer2_0_MEMBER_0_MEMBER_4_MEMBER_2_FILL"/>

<use xlink:href="#icon_r_box_02_17_Layer2_0_MEMBER_0_MEMBER_4_MEMBER_2_1_STROKES"/>
</g>

<g transform="matrix( 1, 0, 0, 1, -27.1,-42.95) ">
<use xlink:href="#icon_r_box_02_17_Layer2_0_MEMBER_0_MEMBER_5_FILL"/>

<use xlink:href="#icon_r_box_02_17_Layer2_0_MEMBER_0_MEMBER_5_1_STROKES"/>
</g>

<g transform="matrix( 1, 0, 0, 1, -27.1,-42.95) ">
<use xlink:href="#icon_r_box_02_17_Layer2_0_MEMBER_0_MEMBER_6_FILL"/>

<use xlink:href="#icon_r_box_02_17_Layer2_0_MEMBER_0_MEMBER_6_1_STROKES"/>
</g>

<g transform="matrix( 1, 0, 0, 1, -27.1,-42.95) ">
<use xlink:href="#icon_r_box_02_17_Layer2_0_MEMBER_0_MEMBER_7_FILL"/>

<use xlink:href="#icon_r_box_02_17_Layer2_0_MEMBER_0_MEMBER_7_1_STROKES"/>
</g>

<g transform="matrix( 1, 0, 0, 1, -27.1,-42.95) ">
<use xlink:href="#icon_r_box_02_17_Layer2_0_MEMBER_0_MEMBER_8_FILL"/>

<use xlink:href="#icon_r_box_02_17_Layer2_0_MEMBER_0_MEMBER_8_1_STROKES"/>
</g>

<g transform="matrix( 1, 0, 0, 1, -27.1,-42.95) ">
<use xlink:href="#icon_r_box_02_17_Layer2_0_MEMBER_0_MEMBER_9_FILL"/>

<use xlink:href="#icon_r_box_02_17_Layer2_0_MEMBER_0_MEMBER_9_1_STROKES"/>
</g>

<g transform="matrix( 1, 0, 0, 1, -27.1,-42.95) ">
<use xlink:href="#icon_r_box_02_17_Layer2_0_MEMBER_0_MEMBER_10_FILL"/>

<use xlink:href="#icon_r_box_02_17_Layer2_0_MEMBER_0_MEMBER_10_1_STROKES"/>
</g>

<g transform="matrix( 1, 0, 0, 1, -27.1,-42.95) ">
<use xlink:href="#icon_r_box_02_17_Layer2_0_MEMBER_0_MEMBER_11_FILL"/>

<use xlink:href="#icon_r_box_02_17_Layer2_0_MEMBER_0_MEMBER_11_1_STROKES"/>
</g>

<g transform="matrix( 1, 0, 0, 1, -27.1,-42.95) ">
<use xlink:href="#icon_r_box_02_17_Layer2_0_MEMBER_0_MEMBER_12_MEMBER_0_FILL"/>

<use xlink:href="#icon_r_box_02_17_Layer2_0_MEMBER_0_MEMBER_12_MEMBER_0_1_STROKES"/>
</g>

<g transform="matrix( 1, 0, 0, 1, -27.1,-42.95) ">
<use xlink:href="#icon_r_box_02_17_Layer2_0_MEMBER_0_MEMBER_12_MEMBER_1_FILL"/>

<use xlink:href="#icon_r_box_02_17_Layer2_0_MEMBER_0_MEMBER_12_MEMBER_1_1_STROKES"/>
</g>

<g transform="matrix( 1, 0, 0, 1, -27.1,-42.95) ">
<use xlink:href="#icon_r_box_02_17_Layer2_0_MEMBER_0_MEMBER_13_FILL"/>

<use xlink:href="#icon_r_box_02_17_Layer2_0_MEMBER_0_MEMBER_13_1_STROKES"/>
</g>

<g transform="matrix( 1, 0, 0, 1, -27.1,-42.95) ">
<use xlink:href="#icon_r_box_02_17_Layer2_0_MEMBER_0_MEMBER_14_FILL"/>

<use xlink:href="#icon_r_box_02_17_Layer2_0_MEMBER_0_MEMBER_14_1_STROKES"/>
</g>

<g transform="matrix( 1, 0, 0, 1, -27.1,-42.95) ">
<use xlink:href="#icon_r_box_02_17_Layer2_0_MEMBER_0_MEMBER_15_FILL"/>

<use xlink:href="#icon_r_box_02_17_Layer2_0_MEMBER_0_MEMBER_15_1_STROKES"/>
</g>

<g transform="matrix( 1, 0, 0, 1, -27.1,-42.95) ">
<use xlink:href="#icon_r_box_02_17_Layer2_0_MEMBER_0_MEMBER_16_FILL"/>

<use xlink:href="#icon_r_box_02_17_Layer2_0_MEMBER_0_MEMBER_16_1_STROKES"/>
</g>

<g transform="matrix( 1, 0, 0, 1, -27.1,-42.95) ">
<use xlink:href="#icon_r_box_02_17_Layer2_0_MEMBER_0_MEMBER_17_FILL"/>

<use xlink:href="#icon_r_box_02_17_Layer2_0_MEMBER_0_MEMBER_17_1_STROKES"/>
</g>

<g transform="matrix( 1, 0, 0, 1, -27.1,-42.95) ">
<use xlink:href="#icon_r_box_02_17_Layer2_0_MEMBER_0_MEMBER_18_FILL"/>

<use xlink:href="#icon_r_box_02_17_Layer2_0_MEMBER_0_MEMBER_18_1_STROKES"/>
</g>

<g transform="matrix( 1, 0, 0, 1, -27.1,-42.95) ">
<use xlink:href="#icon_r_box_02_17_Layer2_0_MEMBER_0_MEMBER_19_FILL"/>

<use xlink:href="#icon_r_box_02_17_Layer2_0_MEMBER_0_MEMBER_19_1_STROKES"/>
</g>
</g>
</svg>
