
<svg xmlns="http://www.w3.org/2000/svg" version="1.1" xmlns:xlink="http://www.w3.org/1999/xlink" preserveAspectRatio="none" x="0px" y="0px" width="130px" height="115px" viewBox="0 0 130 115">
<defs>
<filter id="Filter_1" x="-25.610024176961495%" y="-20.31822676897464%" width="151.220048353923%" height="140.63645353794928%" color-interpolation-filters="sRGB">
<feFlood flood-color="#000000" flood-opacity="1" in="SourceGraphic" result="result1"/>

<feGaussianBlur in="SourceGraphic" stdDeviation="1.6666666666666667,1.6666666666666667" result="result2"/>

<feComposite in2="result2" in="result1" operator="in" result="result3"/>

<feComposite in2="result3" in="SourceGraphic" operator="over" result="result4"/>
</filter>

<g id="icon_r_box_02_19_Layer3_0_FILL">
<path fill="#FFFFFF" fill-opacity="0" stroke="none" d="
M 65 -55
L -65 -55 -65 25 65 25 65 -55 Z"/>
</g>

<g id="icon_r_box_02_19_Layer3_1_FILL">
<path fill="#FFFFFF" fill-opacity="0" stroke="none" d="
M 65.05 49.95
L 65.05 24.95 -64.95 24.95 -64.95 49.95 65.05 49.95 Z"/>
</g>

<g id="icon_r_box_02_19_Layer3_2_FILL">
<path fill="#FFFFFF" fill-opacity="0" stroke="none" d="
M 65 -52.85
L 65 -57.85 -65 -57.85 -65 -52.85 65 -52.85 Z"/>
</g>

<g id="icon_r_box_02_19_Layer3_3_FILL">
<path fill="#FFFFFF" fill-opacity="0" stroke="none" d="
M 65 54.95
L 65 49.95 -65 49.95 -65 54.95 65 54.95 Z"/>
</g>

<g id="Duplicate_Items_Folder___2_0_Layer1_0_FILL">
<path fill="#FFFFFF" stroke="none" d="
M 8.05 -46.15
Q 7.153125 -46.5529296875 6.15 -46.9 0.25 -48.9 -4.95 -48.1 -5.38046875 -48.034375 -5.8 -47.95 -6.855078125 -49.3083984375 -7.9 -50.05 -9.55 -51.1 -12.35 -48.4 -12.6736328125 -48.091015625 -12.95 -47.8 -13.2966796875 -47.9763671875 -13.65 -48.1 -16.8 -49.2 -19.55 -48.35 -23.45 -47.1 -24.3 -42.8 -24.65 -41.1 -24.7 -37.35 -24.75 -33.65 -25.05 -32 -26.05 -26.45 -32.05 -26.5 -32.15 -26.5 -32.2 -26.45 -32.2 -26.4 -32.2 -26.3 -32.25 -26.25 -32.25 -26.2 -31.8 -24.6 -31.15 -24.05 -29.6 -22.55 -26.05 -22.8 -25.95 -21.95 -25.2 -21.2 -23.85 -19.65 -20.65 -20.4
L -20.05 -19.9 -20 -19.85
Q -18.95 -19.35 -17.1 -19.75 -16.35 -19.9306640625 -15.6 -20.35 -13.8111328125 -18.65390625 -10.8 -17.8 -7.5 -16.9 -6.4 -16.75 -5.3 -16.65 -5.05 -16.85
L -5 -16.85 -5 -16.8
Q -4.6859375 -16.6115234375 -4.35 -16.45
L -4.6 -14.7
Q -7.5892578125 -15.2623046875 -8.8 -14.1 -10.05 -12.9 -10.55 -11.25 -10.7529296875 -10.554296875 -10.65 -10 -11.3205078125 -9.4865234375 -12.2 -8.8 -13.8 -7.55 -15.7 -6.35
L -21.45 -12.25 -22.3 -11.6
Q -23.05 -13.3654296875 -23.05 -13.95 -22.95 -14.7 -22.55 -15.65 -22.2 -16.3 -22.35 -16.6 -22.65 -16.95 -23.4 -16.75 -24.2189453125 -16.3646484375 -24.5 -15.05 -24.5794921875 -15.076953125 -24.7 -15.05 -24.7685546875 -14.9740234375 -24.8 -14.9
L -27.2 -17.8
Q -27.4 -18.05 -27.75 -18.05 -28.05 -18.15 -28.3 -17.9 -28.55 -17.7 -28.6 -17.35 -28.65 -17 -28.4 -16.75
L -26.6 -14.5
Q -26.6662109375 -14.4177734375 -26.75 -14.35
L -29.3 -17
Q -29.5 -17.25 -29.8 -17.2 -30.15 -17.3 -30.35 -17 -30.65 -16.8 -30.65 -16.45 -30.65 -16.15 -30.45 -15.9
L -28 -13.3
Q -28.08359375 -13.2248046875 -28.2 -13.15
L -30.5 -15.55
Q -30.75 -15.8 -31.05 -15.8 -31.4 -15.85 -31.65 -15.6 -31.85 -15.35 -31.85 -15 -31.9 -14.7 -31.65 -14.4
L -29.35 -12
Q -29.4095703125 -11.936328125 -29.5 -11.9
L -31.25 -13.5
Q -31.5 -13.7 -31.85 -13.7 -32.25 -13.7 -32.4 -13.45 -32.6 -13.2 -32.6 -12.85 -32.55 -12.55 -32.35 -12.3
L -29.7 -9.95 -28.7 -8.8
Q -27.998046875 -7.9224609375 -27.1 -7.6
L -27.75 -7.05 -19.5 1.4
Q -18.4451171875 2.7537109375 -16.8 2.7 -15.1646484375 2.63828125 -11.6 0.55 -11.56640625 0.53046875 -11.55 0.5
L -12.65 8.1
Q -12.762890625 8.2328125 -12.9 8.35 -14.95 10.1 -15.1 11.85 -15.25 13.55 -14.25 14.3
L -14.85 15.4
Q -15.1 16.65 -14.3 17.35 -13.2234375 18.3263671875 -11.35 18.5 -12.360546875 26.955078125 -12.5 31.65 -11 32.2 -9.3 32.65
L -9.7 38.9 -10.05 45.3
Q -10.45 46.45 -10.6 48.15 -10.7 49.65 -10.45 50.8 -2.85 51.1 -0.2 50.05 0.55 45.95 -3.25 45.1
L -3.3 45 -2.75 39.4 -2.15 33.05 3.05 32.1
Q 4.1 32.25 5.15 32.3
L 5.45 46.65
Q 5.45 48.65 5.55 49.85 15.3 49.75 16.05 49.05 16.55 44.7 11.6 44.5
L 11.9 38.65 11.85 38.65 12.15 32.1
Q 14.15 31.75 15.65 31.05 15.7 26.8 14.9 19.4
L 14.15 13.5
Q 14.80859375 13.24765625 15.5 12.95 14.9302734375 6.3763671875 13.65 1 16.634375 2.6556640625 18.1 2.7 19.75 2.75 20.8 1.4
L 29.05 -7.05 28.4 -7.6
Q 29.3046875 -7.9126953125 30.05 -8.8
L 30.8 -9.65 33.7 -12.25
Q 33.9 -12.5 33.95 -12.8 33.95 -13.15 33.75 -13.4 33.55 -13.65 33.2 -13.65 32.85 -13.65 32.6 -13.45
L 30.8 -11.85
Q 30.7705078125 -11.9087890625 30.7 -12
L 33 -14.4
Q 33.25 -14.65 33.2 -14.95 33.2 -15.3 33 -15.55 32.75 -15.8 32.4 -15.75 32.1 -15.75 31.85 -15.5
L 29.55 -13.15
Q 29.46171875 -13.20703125 29.35 -13.3
L 31.8 -15.85
Q 32 -16.1 32 -16.4 32 -16.75 31.7 -16.95 31.5 -17.25 31.15 -17.15 30.85 -17.2 30.65 -16.95
L 28.15 -14.35
Q 28.062109375 -14.4060546875 27.95 -14.5
L 29.75 -16.7
Q 30 -16.95 29.95 -17.3 29.9 -17.65 29.65 -17.85 29.4 -18.1 29.1 -18 28.7 -18 28.55 -17.75
L 26.05 -14.75
Q 25.99296875 -14.7767578125 25.9 -14.75
L 25.85 -14.75 25.85 -14.8
Q 25.824609375 -14.86875 25.8 -14.95 25.55 -16.35 24.7 -16.75 24 -16.95 23.65 -16.6 23.5 -16.3 23.85 -15.65 24.25 -14.7 24.35 -13.95 24.35 -13.3658203125 23.55 -11.6
L 22.75 -12.25 17 -6.35
Q 15.1 -7.55 13.5 -8.8 12.453125 -9.6169921875 11.7 -10.2 11.2509765625 -10.6587890625 10.8 -10.9 10.6642578125 -10.9673828125 10.55 -11.05 10.481640625 -11.078515625 10.4 -11.1 10.478515625 -12.4990234375 8.25 -13.4 7.03828125 -13.915625 6.15 -14 6.5900390625 -14.0126953125 7 -14.05 8.05 -14.15 8.95 -14.3 10.1 -14.5 11.15 -14.9 13.25 -15.65 15.05 -17.45 16.6109375 -19.0421875 16.85 -21.7 17.0302734375 -21.7322265625 17.15 -21.8 17.890234375 -22.187890625 18.55 -22.85 19.9998046875 -24.240625 20 -26.3 19.9978515625 -28.3001953125 18.55 -29.8 17.3798828125 -30.921484375 15.85 -31.15 15.7861328125 -31.162109375 15.7 -31.2
L 15.65 -31.45
Q 16 -31.95 16.3 -32.9 16.85 -34.7 16.55 -36.65 15.81328125 -41.16640625 11.75 -44.1
L 8.05 -46.15
M 16.7 -25.2
L 15.85 -30.15
Q 16.9775390625 -29.923828125 17.85 -29.1 19.0021484375 -27.8998046875 19 -26.3 19.000390625 -24.6595703125 17.85 -23.55 17.414453125 -23.1162109375 16.95 -22.85 16.9423828125 -23.8416015625 16.75 -24.9 16.7248046875 -25.0484375 16.7 -25.2
M 4.8 -13.9
L 4.85 -14
Q 5.19609375 -13.9564453125 5.55 -13.95 5.290625 -13.9080078125 5.05 -13.8 4.9525390625 -13.842578125 4.8 -13.9
M -6.55 33.1
Q -7.0833984375 33.0208984375 -7.65 32.9 -6.4607421875 33.091015625 -5.4 33.15 -5.95 33.15 -6.55 33.1 Z"/>
</g>

<g id="Duplicate_Items_Folder___2_0_Layer0_0_MEMBER_0_MEMBER_0_MEMBER_0_FILL">
<path fill="#FFCEA8" stroke="none" d="
M 142.5 58.6
L 144.9 51.5
Q 145.05 50.9 144.8 50.35 144.5 49.8 143.95 49.6 143.35 49.35 142.8 49.65 142.25 49.95 142.05 50.55
L 139.7 57.55
Q 141.2068359375 57.9962890625 142.5 58.6
M 139.55 47
Q 139 47.3 138.85 47.9
L 136.65 56.8
Q 138.1994140625 57.112109375 139.55 57.5
L 141.75 48.65
Q 141.9 48 141.6 47.5 141.25 46.95 140.7 46.8 140.05 46.65 139.55 47
M 134.4 47.9
Q 134.5 47.3 134.15 46.8 133.75 46.25 133.15 46.2 132.55 46.05 132.05 46.45 131.5 46.8 131.45 47.4
L 130 56.2
Q 131.5859375 56.2326171875 133 56.35
L 134.4 47.9
M 136.2 45.85
Q 135.65 46.15 135.5 46.75
L 133.2 56.35
Q 134.7603515625 56.508203125 136.15 56.75
L 138.4 47.45
Q 138.55 46.85 138.25 46.35 137.9 45.8 137.3 45.65 136.7 45.5 136.2 45.85 Z"/>
</g>

<g id="Duplicate_Items_Folder___2_0_Layer0_0_MEMBER_0_MEMBER_0_MEMBER_1_FILL">
<path fill="#FFCEA8" stroke="none" d="
M 117.9 55.35
Q 118.3650390625 54.9388671875 118.3 54.25
L 118.3 53.1
Q 116.8490234375 52.893359375 115.3 53.1
L 115.3 54.25
Q 115.3052734375 54.866015625 115.75 55.3 116.1779296875 55.738671875 116.8 55.75 117.4802734375 55.81171875 117.9 55.35 Z"/>
</g>

<g id="Duplicate_Items_Folder___2_0_Layer0_0_MEMBER_0_MEMBER_0_MEMBER_2_FILL">
<path fill="#FFCEA8" stroke="none" d="
M 130.05 60.2
L 130.05 73.05 140.35 73.35 138.8 60.2 130.05 60.2 Z"/>
</g>

<g id="Duplicate_Items_Folder___2_0_Layer0_0_MEMBER_0_MEMBER_0_MEMBER_3_FILL">
<path fill="#FFCEA8" stroke="none" d="
M 41.95 45.85
L 45.95 49.25
Q 44.4 46 44.4 45.2 44.5 44.5 44.85 43.6 45.2 42.95 45.05 42.7 44.75 42.35 44.05 42.55 43.25 42.9 43 44.25 42.7 45.35 42.35 45.75 42.15 45.9 41.95 45.85 Z"/>
</g>

<g id="Duplicate_Items_Folder___2_0_Layer0_0_MEMBER_0_MEMBER_1_FILL">
<path fill="#FF7686" stroke="none" d="
M -21.45 -12.25
L -27.75 -7.05 -19.5 1.4
Q -18.4451171875 2.7537109375 -16.8 2.7 -15.1646484375 2.63828125 -11.6 0.55 -8.03046875 -1.5345703125 -5.15 -4.15 -3.15 -6.85 -5.15 -9.45 -7.1 -11.95 -9.25 -11.05 -10.15 -10.4 -12.2 -8.8 -13.8 -7.55 -15.7 -6.35
L -21.45 -12.25 Z"/>
</g>

<g id="Duplicate_Items_Folder___2_0_Layer0_0_MEMBER_1_FILL">
<path fill="#CF2900" stroke="none" d="
M -13.9 -48.1
Q -17.05 -49.2 -19.8 -48.35 -23.7 -47.1 -24.55 -42.8 -24.9 -41.1 -24.95 -37.35 -25 -33.65 -25.3 -32 -26.3 -26.45 -32.3 -26.5 -32.4 -26.5 -32.45 -26.45 -32.45 -26.4 -32.45 -26.3 -32.5 -26.25 -32.5 -26.2 -32.05 -24.6 -31.4 -24.05 -29.85 -22.55 -26.3 -22.8 -26.2 -21.95 -25.45 -21.2 -24.1 -19.65 -20.9 -20.4
L -20.3 -19.9 -20.25 -19.85
Q -19.2 -19.35 -17.35 -19.75 -13.2 -20.75 -9.4 -29.25 -7.55 -33.4 -9.25 -40.25 -10.9 -47.05 -13.9 -48.1 Z"/>
</g>

<g id="Duplicate_Items_Folder___2_0_Layer0_0_MEMBER_2_MEMBER_0_FILL">
<path fill="#FFCEA8" stroke="none" d="
M 142.5 58.6
L 144.9 51.5
Q 145.05 50.9 144.8 50.35 144.5 49.8 143.95 49.6 143.35 49.35 142.8 49.65 142.25 49.95 142.05 50.55
L 139.7 57.55
Q 141.2068359375 57.9962890625 142.5 58.6
M 139.55 47
Q 139 47.3 138.85 47.9
L 136.65 56.8
Q 138.1994140625 57.112109375 139.55 57.5
L 141.75 48.65
Q 141.9 48 141.6 47.5 141.25 46.95 140.7 46.8 140.05 46.65 139.55 47
M 134.4 47.9
Q 134.5 47.3 134.15 46.8 133.75 46.25 133.15 46.2 132.55 46.05 132.05 46.45 131.5 46.8 131.45 47.4
L 130 56.2
Q 131.5859375 56.2326171875 133 56.35
L 134.4 47.9
M 136.2 45.85
Q 135.65 46.15 135.5 46.75
L 133.2 56.35
Q 134.7603515625 56.508203125 136.15 56.75
L 138.4 47.45
Q 138.55 46.85 138.25 46.35 137.9 45.8 137.3 45.65 136.7 45.5 136.2 45.85 Z"/>
</g>

<g id="Duplicate_Items_Folder___2_0_Layer0_0_MEMBER_2_MEMBER_1_FILL">
<path fill="#FFCEA8" stroke="none" d="
M 117.9 55.35
Q 118.3650390625 54.9388671875 118.3 54.25
L 118.3 53.1
Q 116.8490234375 52.893359375 115.3 53.1
L 115.3 54.25
Q 115.3052734375 54.866015625 115.75 55.3 116.1779296875 55.738671875 116.8 55.75 117.4802734375 55.81171875 117.9 55.35 Z"/>
</g>

<g id="Duplicate_Items_Folder___2_0_Layer0_0_MEMBER_2_MEMBER_2_FILL">
<path fill="#FFCEA8" stroke="none" d="
M 130.05 60.2
L 130.05 73.05 140.35 73.35 138.8 60.2 130.05 60.2 Z"/>
</g>

<g id="Duplicate_Items_Folder___2_0_Layer0_0_MEMBER_2_MEMBER_3_FILL">
<path fill="#FFCEA8" stroke="none" d="
M 41.95 45.85
L 45.95 49.25
Q 44.4 46 44.4 45.2 44.5 44.5 44.85 43.6 45.2 42.95 45.05 42.7 44.75 42.35 44.05 42.55 43.25 42.9 43 44.25 42.7 45.35 42.35 45.75 42.15 45.9 41.95 45.85 Z"/>
</g>

<g id="Duplicate_Items_Folder___2_0_Layer0_0_MEMBER_3_FILL">
<path fill="#FFDE63" stroke="none" d="
M 46.6 17.75
L 45.75 11.15
Q 41.2396484375 11.622265625 33.75 11.8 26.3103515625 12.027734375 20.9 12.2
L 20.5 15.55
Q 19.35 24.95 19.2 30 20.7 30.55 22.4 31 24.5 31.4 26.3 31.5 27.75 31.65 29.55 31.4
L 34.75 30.45
Q 35.8 30.6 36.85 30.65 40.95 30.95 43.85 30.45 45.85 30.1 47.35 29.4 47.4 25.15 46.6 17.75 Z"/>
</g>

<g id="Duplicate_Items_Folder___2_0_Layer0_0_MEMBER_5_FILL">
<path fill="#FFCEA8" stroke="none" d="
M 45.1 43.45
L 45.65 31.05
Q 42.75 31.55 38.65 31.25
L 39 43.9
Q 41.95 44.15 45.1 43.45 Z"/>
</g>

<g id="Duplicate_Items_Folder___2_0_Layer0_0_MEMBER_6_FILL">
<path fill="#FFDE63" stroke="none" d="
M 214.6 47.6
Q 211.1 48.55 207.8 47.9 204.05 49 205.1 53.05 207.8 53.9 215.4 53.05 215.55 51.9 215.35 50.4 215.1 48.7 214.6 47.6 Z"/>
</g>

<g id="Duplicate_Items_Folder___2_0_Layer0_0_MEMBER_7_FILL">
<path fill="#FFDE63" stroke="none" d="
M 199.05 48.4
Q 196.15 48.85 192.9 48.4 188 48.95 188.8 53.25 189.6 53.9 199.35 53.25 199.4 52.05 199.25 50.1
L 199.05 48.4 Z"/>
</g>

<g id="Duplicate_Items_Folder___2_0_Layer0_0_MEMBER_8_FILL">
<path fill="#FFCEA8" stroke="none" d="
M 28.1 32.1
Q 27.55 32.1 26.95 32.05 25.6 31.85 24.2 31.6
L 23.8 37.85 23.45 44.25
Q 27 44.95 30.25 44.05
L 30.2 43.95 30.75 38.35 31.35 32
Q 29.55 32.25 28.1 32.1 Z"/>
</g>

<g id="Duplicate_Items_Folder___2_0_Layer0_0_MEMBER_9_FILL">
<path fill="#FFA220" stroke="none" d="
M 210.2 42
Q 208.602734375 42.2 206.85 42.2
L 207.75 47.8 207.8 47.9
Q 211.1 48.55 214.6 47.6
L 213.8 41.2
Q 212.111328125 41.7447265625 210.2 42 Z"/>
</g>

<g id="Duplicate_Items_Folder___2_0_Layer0_0_MEMBER_10_FILL">
<path fill="#FFA220" stroke="none" d="
M 45.1 43.45
L 45.1 42.85 45.4 37.6
Q 42 38.05 38.85 37.55
L 38.95 43.3 39 43.9
Q 41.95 44.15 45.1 43.45 Z"/>
</g>

<g id="Duplicate_Items_Folder___2_0_Layer0_0_MEMBER_11_FILL">
<path fill="#FF8F9C" stroke="none" d="
M 37.6 -15.05
Q 35.7 -15.45 32.9 -15.4 30.3 -15.45 28.1 -14.7 26.1 -14.1 23.45 -12.55
L 19.7 13.55
Q 23.45 14.55 27.4 14.8 29.9 14.95 34.9 14.8 39.35 14.65 42.2 14.05 45.15 13.45 48.75 11.9 48.1 4.4 46.55 -1.55 45.25 -6.65 42.5 -13.25 39.8 -14.55 37.6 -15.05 Z"/>
</g>

<g id="Duplicate_Items_Folder___2_0_Layer0_0_MEMBER_12_FILL">
<path fill="#FFB882" stroke="none" d="
M 28.65 -27.7
L 27.35 -17.15 35.75 -17.15 37.05 -27.7 28.65 -27.7 Z"/>
</g>

<g id="Duplicate_Items_Folder___2_0_Layer0_0_MEMBER_13_FILL">
<path fill="#FF7686" stroke="none" d="
M -21.45 -12.25
L -27.75 -7.05 -19.5 1.4
Q -18.4451171875 2.7537109375 -16.8 2.7 -15.1646484375 2.63828125 -11.6 0.55 -8.03046875 -1.5345703125 -5.15 -4.15 -3.15 -6.85 -5.15 -9.45 -7.1 -11.95 -9.25 -11.05 -10.15 -10.4 -12.2 -8.8 -13.8 -7.55 -15.7 -6.35
L -21.45 -12.25 Z"/>
</g>

<g id="Duplicate_Items_Folder___2_0_Layer0_0_MEMBER_14_FILL">
<path fill="#2BAFFF" stroke="none" d="
M 39.5 -2.7
L 38.9 -1.85 37.25 0 36.7 0.5 36.4 0.7 35.25 1.65 32.75 3.25 31.05 4.05 30.9 4.15 30.8 4.15 30.75 4.2 27.45 5.45 22.1 6.75 21.95 6.75 21.95 11.65 26.95 10.15 32.65 7.7 32.8 7.6 33.55 7.2 33.9 6.95 34.65 6.55
Q 36.25 5.55 37.5 4.55
L 38.8 3.4 39 3.25 39.85 2.4 39.9 2.3 40.35 1.85 41.7 0.15 41.8 0 41.95 -0.15 43.65 -3.35
Q 44.35 -5.05 44.6 -6.1
L 45.05 -8.45 45.15 -9.45 45.2 -9.65 45.2 -9.9 45.25 -10.3 45.25 -10.9
Q 43.6 -12.953125 41.95 -11.45
L 41.95 -10.45 41.9 -10.15 41.9 -9.95 41.85 -9.75 41.75 -8.9
Q 41.55 -7.6 41.35 -6.95 41.15 -6 40.55 -4.7
L 40 -3.55 39.9 -3.4 39.85 -3.25 39.65 -3 39.5 -2.7 Z"/>
</g>

<g id="Duplicate_Items_Folder___2_0_Layer0_0_MEMBER_17_MEMBER_0_FILL">
<path fill="#2BAFFF" stroke="none" d="
M 26.25 17
Q 31.5576171875 15.76640625 33.2 14.6 34.8447265625 13.478125 35.6 10.25 36.34765625 7.066015625 35.95 5.4 35.6005859375 3.79375 33.95 3.4 32.350390625 3.051171875 30.95 3.35 26.05 4.45 25.7 4.55 22.248046875 5.54921875 20.2 7.3 18.1552734375 9.0521484375 18 10.75 17.8427734375 12.4970703125 18.85 13.25
L 18.25 14.35
Q 18 15.6 18.8 16.3 20.946875 18.2453125 26.25 17 Z"/>
</g>

<g id="Duplicate_Items_Folder___2_0_Layer0_0_MEMBER_17_MEMBER_2_FILL">
<path fill="#0A8CDE" stroke="none" d="
M 7.85 13.35
Q 7.7328125 13.301953125 7.6 13.3
L 3.3 13.3
Q 3.1951171875 13.3021484375 3.05 13.35 2.9578125 13.401953125 2.85 13.5 2.1609375 14.00625 1.95 14.65 1.740625 15.2416015625 2 15.9 2.0171875 16.0228515625 2.15 16.05 2.2421875 16.1103515625 2.35 16.1
L 6.7 16.1
Q 6.8421875 16.0978515625 7 16.05 7.1375 15.9625 7.2 15.85 7.8029296875 15.19140625 8 14.6 8.218359375 13.958203125 7.95 13.5 7.9576171875 13.401953125 7.85 13.35 Z"/>
</g>

<g id="Duplicate_Items_Folder___2_0_Layer0_0_MEMBER_20_MEMBER_0_FILL">
<path fill="#FF5468" stroke="none" d="
M 35.15 -17.15
L 35.85 -15.9
Q 38.65 -15.15 40.65 -16.2 42.4 -17.15 42.6 -18.9 42.8 -20.4 40.45 -21.4 38.1 -22.35 37.1 -21.65
L 35.15 -17.15 Z"/>
</g>

<g id="Duplicate_Items_Folder___2_0_Layer0_0_MEMBER_20_MEMBER_1_FILL">
<path fill="#FF5468" stroke="none" d="
M 36.65 -15.7
Q 37.2 -16.5 35.7 -18.05 34.2 -19.55 31.15 -20.75 28.1 -21.9 24.95 -22.55 21.8 -23.15 20.55 -21.95 19.3 -20.75 18.8 -19.1 18.1 -16.7 20.95 -16 24.05 -15.2 28.75 -15.15 30.2 -15.15 33.5 -15.05 36.2 -15.05 36.65 -15.7 Z"/>
</g>

<g id="Duplicate_Items_Folder___2_0_Layer0_0_MEMBER_21_FILL">
<path fill="#FF5468" stroke="none" d="
M 3.35 0.45
Q 3.0607421875 0.153515625 2.65 0.15
L 1.45 0.15
Q 1.0392578125 0.153515625 0.75 0.45 0.453515625 0.7392578125 0.45 1.15 0.453515625 1.5607421875 0.75 1.85 1.0392578125 2.146484375 1.45 2.15
L 2.65 2.15
Q 3.0607421875 2.146484375 3.35 1.85 3.646484375 1.5607421875 3.65 1.15 3.646484375 0.7392578125 3.35 0.45 Z"/>
</g>

<g id="Duplicate_Items_Folder___2_0_Layer0_0_MEMBER_22_FILL">
<path fill="#FF5468" stroke="none" d="
M 3.35 0.45
Q 3.0607421875 0.153515625 2.65 0.15
L 1.45 0.15
Q 1.0392578125 0.153515625 0.75 0.45 0.453515625 0.7392578125 0.45 1.15 0.453515625 1.5607421875 0.75 1.85 1.0392578125 2.146484375 1.45 2.15
L 2.65 2.15
Q 3.0607421875 2.146484375 3.35 1.85 3.646484375 1.5607421875 3.65 1.15 3.646484375 0.7392578125 3.35 0.45 Z"/>
</g>

<g id="Duplicate_Items_Folder___2_0_Layer0_0_MEMBER_23_MEMBER_0_FILL">
<path fill="#FFAC00" stroke="none" d="
M 7.65 -52.5
Q 8.2 -55.6 6.65 -56.2 5.1 -56.8 2.75 -56.8 0.4 -56.8 -1.05 -56.2 -2.5 -55.6 -1.9 -52.5 -1.45 -50.05 0 -48.55 1.3 -47.25 2.85 -47.25 4.4 -47.25 5.7 -48.55 7.15 -50.05 7.65 -52.5 Z"/>
</g>

<g id="Duplicate_Items_Folder___2_0_Layer0_0_MEMBER_23_MEMBER_1_FILL">
<path fill="#FFC000" stroke="none" d="
M 7.65 -52.5
Q 8.2 -55.6 6.65 -56.2 5.1 -56.8 2.75 -56.8 0.4 -56.8 -1.05 -56.2 -2.5 -55.6 -1.9 -52.5 -1.45 -50.05 0 -48.55 1.3 -47.25 2.85 -47.25 4.4 -47.25 5.7 -48.55 7.15 -50.05 7.65 -52.5 Z"/>
</g>

<g id="Duplicate_Items_Folder___2_0_Layer0_0_MEMBER_23_MEMBER_2_FILL">
<path fill="#FFCEA8" stroke="none" d="
M 69.8 -43.85
Q 67.15 -46.05 62.7 -45.75 57.9 -45.45 55 -44 53.05 -43.05 50.85 -40.85 50.3 -40.3 50.15 -36 50.1 -31.7 50.05 -31.55 49.6 -29.4 50.25 -27.35 49.7 -27.8 49.25 -28.4 48.9 -28.85 48.65 -29.3 48.35 -29.85 48.15 -30.45
L 47.65 -32.2
Q 47.6 -32.2 47.55 -32.2 47.2 -32.35 46.9 -32.4 46.85 -32.4 46.8 -32.4 45.65 -32.65 44.6 -32.25 44.45 -32.2 44.35 -32.15 42.65 -31.35 42.45 -29.2 42.25 -27.1 43.4 -25.65
L 43.45 -25.6
Q 44.25 -24.65 45.6 -24.15 45.9 -24.05 46.3 -23.95 46.75 -23.85 47.2 -23.75 48.1 -23.7 49.1 -23.85
L 50.25 -24.15
Q 51.3 -23 51.75 -22.65 52.25 -22.2 52.85 -21.8
L 52.9 -21.8 52.9 -21.75
Q 53.65 -21.3 54.5 -20.9
L 55.35 -20.5
Q 56.8 -20 58.75 -19.5 61.35 -18.9 63.8 -18.9 64.35 -18.95 64.9 -19 65.95 -19.1 66.85 -19.25 68 -19.45 69.05 -19.85 71.15 -20.6 72.95 -22.4 75.45 -24.95 74.6 -30.15
L 73 -39.75
Q 70.55 -43.2 69.8 -43.85 Z"/>
</g>

<g id="Duplicate_Items_Folder___2_0_Layer0_0_MEMBER_23_MEMBER_3_FILL">
<path fill="#E02D00" stroke="none" d="
M 16.55 -36.65
Q 15.4 -43.7 6.15 -46.9 0.25 -48.9 -4.95 -48.1 -10.2 -47.3 -11.95 -44.1
L -13.15 -43.9
Q -14.55 -43.5 -15.6 -42.65 -17.05 -41.45 -18.2 -38.35 -19.4 -35.3 -19.5 -31.95 -19.6 -28.65 -19.2 -27.05 -18.8 -25.5 -18.35 -24.15 -17.9 -22.8 -16 -20.75 -14.15 -18.75 -10.8 -17.8 -7.5 -16.9 -6.4 -16.75 -5.3 -16.65 -5.05 -16.85 -5.65 -17.25 -6.15 -17.7 -6.6 -18.05 -7.65 -19.2
L -8.8 -18.9
Q -9.8 -18.75 -10.7 -18.8 -11.15 -18.9 -11.6 -19 -12 -19.1 -12.3 -19.2 -13.65 -19.7 -14.45 -20.65 -15.65 -22.1 -15.45 -24.25 -15.25 -26.4 -13.55 -27.2 -13.45 -27.25 -13.3 -27.3 -12.25 -27.7 -11.1 -27.45 -10.75 -27.4 -10.35 -27.25 -10.3 -27.25 -10.25 -27.25
L -9.75 -25.5
Q -9.55 -24.9 -9.25 -24.35 -9 -23.9 -8.65 -23.45 -8.2 -22.85 -7.65 -22.4 -7.8 -22.9 -7.55 -26.6 -7.25 -30.5 -6.8 -32.4 -6.2 -34.85 -5.95 -35.5 -5.5 -36.55 -4.5 -37.1 -0.1 -39.6 4.05 -39.6 9.15 -39.6 11.75 -38.1 13.35 -37.2 15.1 -34.8
L 15.65 -31.45
Q 16 -31.95 16.3 -32.9 16.85 -34.7 16.55 -36.65 Z"/>
</g>

<g id="Duplicate_Items_Folder___2_0_Layer0_0_MEMBER_23_MEMBER_4_FILL">
<path fill="#FFB47B" stroke="none" d="
M 31.45 24.15
Q 30.9662109375 26.591015625 29.9 28.45 33.2 29 34.05 27.25 34.75 25.9 34.05 24.8 33.35 23.65 31.45 24.15 Z"/>
</g>

<g id="Duplicate_Items_Folder___2_0_Layer0_0_MEMBER_23_MEMBER_5_MEMBER_0_STROKES_1_FILL">
<path fill="#CC3008" stroke="none" d="
M 17.95 14.55
L 17.85 14.5 17.7 14.5 17.65 14.45 16.9 14.45 16.6 14.5 16.5 14.55 16.35 14.6 15.9 14.8 15.75 14.95 15.65 15 15.5 15.15 15.45 15.25
Q 15.15 15.75 15.6 16 15.7 16.1 16 16.1
L 16.1 16.05 16.35 16.05 16.5 16 16.55 16 16.65 15.95 16.8 15.9 16.9 15.9 17 15.85 17.15 15.8 17.25 15.8 17.35 15.75 17.8 15.6 18 15.5 18.05 15.5
Q 18.55 15.3 18.35 14.85 18.15 14.55 17.95 14.55 Z"/>
</g>

<g id="Duplicate_Items_Folder___2_0_Layer0_0_MEMBER_23_MEMBER_5_MEMBER_1_STROKES_1_FILL">
<path fill="#CC3008" stroke="none" d="
M 8.75 15.45
L 8.3 15.45 8.2 15.5 8.1 15.5 8 15.55
Q 7.5 15.65 7.6 16.15 7.7 16.45 7.9 16.5
L 7.95 16.5 8.15 16.6 8.2 16.6 8.2 16.65 8.25 16.65 8.85 16.85 8.9 16.9 9 16.9 9.1 16.95 9.2 16.95 9.2 17 9.4 17 9.45 17.05 9.65 17.05
Q 10.15 17.2 10.35 16.7
L 10.3 16.3 10.25 16.2 10.1 16.05 10.1 16 10 15.95 9.85 15.8 9.45 15.6 9.4 15.6 9.35 15.55 9.25 15.55 8.75 15.45 Z"/>
</g>

<g id="Duplicate_Items_Folder___2_0_Layer0_0_MEMBER_23_MEMBER_5_MEMBER_2_FILL">
<path fill="#FF9A7B" stroke="none" d="
M 26.95 26.65
Q 26.95 25.95 26 25.45 25.1 25 23.75 25 22.4 25 21.45 25.45 20.55 25.95 20.55 26.65 20.55 27.35 21.45 27.8 22.4 28.3 23.75 28.3 25.1 28.3 26 27.8 26.95 27.35 26.95 26.65 Z"/>
</g>

<g id="Duplicate_Items_Folder___2_0_Layer0_0_MEMBER_23_MEMBER_5_MEMBER_3_FILL">
<path fill="#000000" stroke="none" d="
M 18.9 22.25
Q 18.9 21.3 18.55 20.6 18.2 19.9 17.7 19.9 17.2 19.9 16.85 20.6 16.5 21.3 16.5 22.25 16.5 23.2 16.85 23.9 17.2 24.6 17.7 24.6 18.2 24.6 18.55 23.9 18.9 23.2 18.9 22.25 Z"/>
</g>

<g id="Duplicate_Items_Folder___2_0_Layer0_0_MEMBER_23_MEMBER_5_MEMBER_4_FILL">
<path fill="#FF9A7B" stroke="none" d="
M 7.95 25.25
Q 7.95 24.7 7.25 24.35 6.6 24 5.55 24 4.9126953125 24 4.4 24.1
L 4.4 24.15
Q 4.2171875 25.26796875 4.2 26.25 4.787890625 26.5 5.55 26.5 6.6 26.5 7.25 26.1 7.95 25.75 7.95 25.25 Z"/>
</g>

<g id="Duplicate_Items_Folder___2_0_Layer0_0_MEMBER_23_MEMBER_5_MEMBER_5_FILL">
<path fill="#000000" stroke="none" d="
M 10.05 22.9
Q 10.05 21.9 9.6 21.15 9.15 20.4 8.55 20.4 7.9 20.4 7.45 21.15 7.05 21.9 7.05 22.9 7.05 23.95 7.45 24.65 7.9 25.4 8.55 25.4 9.15 25.4 9.6 24.65 10.05 23.95 10.05 22.9 Z"/>
</g>

<g id="Duplicate_Items_Folder___2_0_Layer0_0_MEMBER_23_MEMBER_5_MEMBER_6_FILL">
<path fill="#E71818" stroke="none" d="
M 60.95 21.25
Q 60.9 21.1 60.8 21.05 60.65 20.95 60.5 20.95 60.35 20.95 60.25 21.05 60 21.15 58.75 21.75 57.55 22.25 55.95 22.3 55.8 22.3 55.7 22.4 55.55 22.45 55.5 22.6 55.45 22.7 55.45 22.85 55.55 23.9 56.3 24.6 57.15 25.5 58.35 25.5 59.55 25.5 60.45 24.6
L 60.4 24.6
Q 61.25 23.75 61.25 22.55 61.25 21.85 60.95 21.25 Z"/>
</g>

<g id="Duplicate_Items_Folder___2_0_Layer0_0_MEMBER_23_MEMBER_5_MEMBER_7_FILL">
<path fill="#FF5454" stroke="none" d="
M 13.55 18.8
Q 14.25 19.4 15.25 19.4 16.45 19.4 17.35 18.5
L 17.3 18.5
Q 17.7 18.1 17.9 17.65 15.3 16.8 13.55 18.8 Z"/>
</g>

<g id="Duplicate_Items_Folder___2_0_Layer0_0_MEMBER_23_MEMBER_6_FILL">
<path fill="#E94B23" stroke="none" d="
M 9.45 5.15
Q 9.9998046875 5.3857421875 10.6 5.6 14.85 7.05 18.8 6.8 17.75 6.35 16.5 5.3 15.04453125 4.1357421875 14.15 2.75 11.42109375 3.7751953125 9.45 5.15 Z"/>
</g>

<path id="Duplicate_Items_Folder___2_0_Layer1_0_1_STROKES" stroke="#FFFFFF" stroke-width="8" stroke-linejoin="round" stroke-linecap="round" fill="none" d="
M 30.65 -16.95
L 28.15 -14.325
Q 28.062109375 -14.4060546875 27.975 -14.475
L 29.75 -16.7
Q 30 -16.95 29.95 -17.3 29.9 -17.65 29.65 -17.85 29.4 -18.1 29.1 -18 28.7 -18 28.55 -17.75
L 26.075 -14.725
Q 25.99296875 -14.7767578125 25.9 -14.75
L 25.875 -14.75 25.85 -14.8
Q 25.824609375 -14.86875 25.8 -14.95 25.55 -16.35 24.7 -16.75 24 -16.95 23.65 -16.6 23.5 -16.3 23.85 -15.65 24.25 -14.7 24.35 -13.95 24.35 -13.3658203125 23.575 -11.575
L 22.75 -12.25 17 -6.35
Q 15.1 -7.55 13.5 -8.8 12.453125 -9.6169921875 11.7 -10.175 11.2509765625 -10.6587890625 10.8 -10.875 10.6642578125 -10.9673828125 10.55 -11.05 10.481640625 -11.078515625 10.425 -11.1 10.478515625 -12.4990234375 8.25 -13.4 7.03828125 -13.915625 6.175 -13.975 6.5900390625 -14.0126953125 7 -14.05 8.05 -14.15 8.95 -14.3 10.1 -14.5 11.15 -14.9 13.25 -15.65 15.05 -17.45 16.6109375 -19.0421875 16.875 -21.675 17.0302734375 -21.7322265625 17.175 -21.8 17.890234375 -22.187890625 18.55 -22.85 19.9998046875 -24.240625 20 -26.3 19.9978515625 -28.3001953125 18.55 -29.8 17.3798828125 -30.921484375 15.875 -31.15 15.7861328125 -31.162109375 15.7 -31.175
L 15.65 -31.45
Q 16 -31.95 16.3 -32.9 16.85 -34.7 16.55 -36.65 15.81328125 -41.16640625 11.75 -44.1
L 8.05 -46.15
Q 7.153125 -46.5529296875 6.15 -46.9 0.25 -48.9 -4.95 -48.1 -5.38046875 -48.034375 -5.775 -47.95 -6.855078125 -49.3083984375 -7.9 -50.05 -9.55 -51.1 -12.35 -48.4 -12.6736328125 -48.091015625 -12.95 -47.775 -13.2966796875 -47.9763671875 -13.65 -48.1 -16.8 -49.2 -19.55 -48.35 -23.45 -47.1 -24.3 -42.8 -24.65 -41.1 -24.7 -37.35 -24.75 -33.65 -25.05 -32 -26.05 -26.45 -32.05 -26.5 -32.15 -26.5 -32.2 -26.45 -32.2 -26.4 -32.2 -26.3 -32.25 -26.25 -32.25 -26.2 -31.8 -24.6 -31.15 -24.05 -29.6 -22.55 -26.05 -22.8 -25.95 -21.95 -25.2 -21.2 -23.85 -19.65 -20.65 -20.4
L -20.05 -19.9 -20 -19.85
Q -18.95 -19.35 -17.1 -19.75 -16.35 -19.9306640625 -15.6 -20.35 -13.8111328125 -18.65390625 -10.8 -17.8 -7.5 -16.9 -6.4 -16.75 -5.3 -16.65 -5.05 -16.85
L -5 -16.85 -5 -16.8
Q -4.6859375 -16.6115234375 -4.35 -16.425
L -4.6 -14.7
Q -7.5892578125 -15.2623046875 -8.8 -14.1 -10.05 -12.9 -10.55 -11.25 -10.7529296875 -10.554296875 -10.65 -10 -11.3205078125 -9.4865234375 -12.2 -8.8 -13.8 -7.55 -15.7 -6.35
L -21.45 -12.25 -22.275 -11.575
Q -23.05 -13.3654296875 -23.05 -13.95 -22.95 -14.7 -22.55 -15.65 -22.2 -16.3 -22.35 -16.6 -22.65 -16.95 -23.4 -16.75 -24.2189453125 -16.3646484375 -24.475 -15.05 -24.5794921875 -15.076953125 -24.675 -15.025 -24.7685546875 -14.9740234375 -24.8 -14.875
L -27.2 -17.8
Q -27.4 -18.05 -27.75 -18.05 -28.05 -18.15 -28.3 -17.9 -28.55 -17.7 -28.6 -17.35 -28.65 -17 -28.4 -16.75
L -26.575 -14.475
Q -26.6662109375 -14.4177734375 -26.75 -14.35
L -29.3 -17
Q -29.5 -17.25 -29.8 -17.2 -30.15 -17.3 -30.35 -17 -30.65 -16.8 -30.65 -16.45 -30.65 -16.15 -30.45 -15.9
L -28 -13.3
Q -28.08359375 -13.2248046875 -28.175 -13.15
L -30.5 -15.55
Q -30.75 -15.8 -31.05 -15.8 -31.4 -15.85 -31.65 -15.6 -31.85 -15.35 -31.85 -15 -31.9 -14.7 -31.65 -14.4
L -29.35 -12
Q -29.4095703125 -11.936328125 -29.475 -11.875
L -31.25 -13.5
Q -31.5 -13.7 -31.85 -13.7 -32.25 -13.7 -32.4 -13.45 -32.6 -13.2 -32.6 -12.85 -32.55 -12.55 -32.35 -12.3
L -29.7 -9.925 -28.7 -8.8
Q -27.998046875 -7.9224609375 -27.1 -7.575
L -27.75 -7.05 -19.5 1.4
Q -18.4451171875 2.7537109375 -16.8 2.7 -15.1646484375 2.63828125 -11.6 0.55 -11.56640625 0.53046875 -11.525 0.5
L -12.625 8.125
Q -12.762890625 8.2328125 -12.9 8.35 -14.95 10.1 -15.1 11.85 -15.25 13.55 -14.25 14.3
L -14.85 15.4
Q -15.1 16.65 -14.3 17.35 -13.2234375 18.3263671875 -11.35 18.5 -12.360546875 26.955078125 -12.5 31.65 -11 32.2 -9.3 32.65
L -9.7 38.9 -10.05 45.3
Q -10.45 46.45 -10.6 48.15 -10.7 49.65 -10.45 50.8 -2.85 51.1 -0.2 50.05 0.55 45.95 -3.25 45.1
L -3.3 45 -2.75 39.4 -2.15 33.05 3.05 32.1
Q 4.1 32.25 5.15 32.3
L 5.45 46.65
Q 5.45 48.65 5.55 49.85 15.3 49.75 16.05 49.05 16.55 44.7 11.6 44.5
L 11.9 38.65 11.875 38.65 12.15 32.1
Q 14.15 31.75 15.65 31.05 15.7 26.8 14.9 19.4
L 14.15 13.5
Q 14.80859375 13.24765625 15.5 12.95 14.9302734375 6.3763671875 13.675 1 16.634375 2.6556640625 18.1 2.7 19.75 2.75 20.8 1.4
L 29.05 -7.05 28.4 -7.575
Q 29.3046875 -7.9126953125 30.05 -8.8
L 30.825 -9.65 33.7 -12.25
Q 33.9 -12.5 33.95 -12.8 33.95 -13.15 33.75 -13.4 33.55 -13.65 33.2 -13.65 32.85 -13.65 32.6 -13.45
L 30.825 -11.85
Q 30.7705078125 -11.9087890625 30.725 -11.975
L 33 -14.4
Q 33.25 -14.65 33.2 -14.95 33.2 -15.3 33 -15.55 32.75 -15.8 32.4 -15.75 32.1 -15.75 31.85 -15.5
L 29.55 -13.125
Q 29.46171875 -13.20703125 29.375 -13.3
L 31.8 -15.85
Q 32 -16.1 32 -16.4 32 -16.75 31.7 -16.95 31.5 -17.25 31.15 -17.15 30.85 -17.2 30.65 -16.95 Z
M 16.7 -25.2
Q 16.7248046875 -25.0484375 16.75 -24.9 16.9423828125 -23.8416015625 16.95 -22.825 17.414453125 -23.1162109375 17.85 -23.55 19.000390625 -24.6595703125 19 -26.3 19.0021484375 -27.8998046875 17.85 -29.1 16.9775390625 -29.923828125 15.875 -30.125
L 16.7 -25.2 Z
M 4.825 -13.875
Q 4.9525390625 -13.842578125 5.075 -13.8 5.290625 -13.9080078125 5.55 -13.95 5.19609375 -13.9564453125 4.85 -13.975
L 4.825 -13.875 Z
M -6.55 33.1
Q -5.95 33.15 -5.4 33.15 -6.4607421875 33.091015625 -7.625 32.925 -7.0833984375 33.0208984375 -6.55 33.1 Z"/>

<path id="Duplicate_Items_Folder___2_0_Layer0_0_MEMBER_0_MEMBER_0_MEMBER_4_1_STROKES" stroke="#FFB780" stroke-width="0.5" stroke-linejoin="round" stroke-linecap="round" fill="none" d="
M 25.70736999511719 -14.74296417236328
Q 26.36504263877869 -12.87983169555664 26.12723083496094 -10.911734008789061"/>

<path id="Duplicate_Items_Folder___2_0_Layer0_0_MEMBER_0_MEMBER_0_MEMBER_5_1_STROKES" stroke="#FFB780" stroke-width="0.5" stroke-linejoin="round" stroke-linecap="round" fill="none" d="
M 30.483287048339847 -11.279112243652342
Q 28.751361083984378 -13.745794677734374 26.59957427978516 -14.74296417236328"/>

<path id="Duplicate_Items_Folder___2_0_Layer0_0_MEMBER_2_MEMBER_4_1_STROKES" stroke="#FFB780" stroke-width="0.5" stroke-linejoin="round" stroke-linecap="round" fill="none" d="
M -24.406388854980477 -14.742285919189449
Q -25.064071059227004 -12.879126358032224 -24.826255798339858 -10.911000061035153"/>

<path id="Duplicate_Items_Folder___2_0_Layer0_0_MEMBER_2_MEMBER_5_1_STROKES" stroke="#FFB780" stroke-width="0.5" stroke-linejoin="round" stroke-linecap="round" fill="none" d="
M -29.182375335693365 -11.278383636474608
Q -27.45042419433595 -13.745101928710938 -25.298606109619143 -14.742285919189449"/>

<path id="Duplicate_Items_Folder___2_0_Layer0_0_MEMBER_4_1_STROKES" stroke="#FFC430" stroke-width="1" stroke-linejoin="round" stroke-linecap="round" fill="none" d="
M 2.9778854370117074 31.124851989746094
L 2.9951400756835938 20.494731140136725"/>

<path id="Duplicate_Items_Folder___2_0_Layer0_0_MEMBER_15_1_STROKES" stroke="#0796EE" stroke-width="2" stroke-linejoin="round" stroke-linecap="round" fill="none" d="
M 41.65 -5.6
L 43.5 -4.6"/>

<path id="Duplicate_Items_Folder___2_0_Layer0_0_MEMBER_16_1_STROKES" stroke="#0796EE" stroke-width="2" stroke-linejoin="round" stroke-linecap="round" fill="none" d="
M 41.65 -5.6
L 43.5 -4.6"/>

<path id="Duplicate_Items_Folder___2_0_Layer0_0_MEMBER_17_MEMBER_1_1_STROKES" stroke="#0796EE" stroke-width="0.7" stroke-linejoin="round" stroke-linecap="round" fill="none" d="
M 35.9 4.9
Q 34.8087890625 4.0146484375 34.325 4.3 33.8435546875 4.5892578125 33.55 6.175 33.253515625 7.755859375 31.9 9.3 30.4 11 28.55 11.6 24.6 12.9 19.7 13.55"/>

<path id="Duplicate_Items_Folder___2_0_Layer0_0_MEMBER_18_1_STROKES" stroke="#FFFFFF" stroke-width="1.5" stroke-linejoin="round" stroke-linecap="round" fill="none" d="
M 1.35 -8.25
Q 2.6146484375 -3.8443359375 2.15 0.7"/>

<path id="Duplicate_Items_Folder___2_0_Layer0_0_MEMBER_19_1_STROKES" stroke="#FFFFFF" stroke-width="1.5" stroke-linejoin="round" stroke-linecap="round" fill="none" d="
M 8.65 -9.1
Q 10.16875 -6.1083984375 10.95 -0.75"/>

<path id="Duplicate_Items_Folder___2_0_Layer0_0_MEMBER_20_MEMBER_2_1_STROKES" stroke="#EC3E52" stroke-width="1" stroke-linejoin="round" stroke-linecap="round" fill="none" d="
M 37.95 -12.6
Q 39.74453125 -11.5943359375 40.2 -9.25"/>

<path id="Duplicate_Items_Folder___2_0_Layer0_0_MEMBER_23_MEMBER_5_MEMBER_8_1_STROKES" stroke="#0A7E00" stroke-width="1" stroke-linejoin="round" stroke-linecap="round" fill="none" d="
M 43.05 -34.175
Q 42.95 -34.65546875 42.95 -35.2 42.95 -37 44.2 -38.35 45.55 -39.6 47.4 -39.6 49.2 -39.6 50.5 -38.35 51.8 -37 51.8 -35.2 51.8 -33.35 50.5 -32.1 49.2 -30.75 47.4 -30.75 45.55 -30.75 44.2 -32.1 43.31796875 -32.98203125 43.05 -34.175 42.0923828125 -35.7892578125 39.2 -34.45 38.977734375 -33.0880859375 37.95 -32.1 36.65 -30.75 34.85 -30.75 33 -30.75 31.65 -32.1 30.4 -33.35 30.4 -35.2 30.4 -37 31.65 -38.35 33 -39.6 34.85 -39.6 36.65 -39.6 37.95 -38.35 39.25 -37 39.25 -35.2 39.25 -34.8125 39.2 -34.45"/>

<path id="Duplicate_Items_Folder___2_0_Layer0_0_MEMBER_23_MEMBER_5_MEMBER_9_1_STROKES" stroke="#F89A52" stroke-width="1" stroke-linejoin="round" stroke-linecap="round" fill="none" d="
M 8.749999999999998 -25.3
Q 9.799999999999999 -25.6 10.549999999999999 -25 11.2 -24.5 11.2 -23.650000000000002 11.2 -22.8 10.649999999999999 -22.25 10.099999999999998 -21.700000000000003 9.2 -21.8"/>

<path id="Duplicate_Items_Folder___2_0_Layer0_0_MEMBER_23_MEMBER_7_1_STROKES" stroke="#CA2800" stroke-width="1" stroke-linejoin="round" stroke-linecap="round" fill="none" d="
M 22.25 -44.45
Q 25.25 -41.9 26.9 -39.05"/>
</defs>

<g transform="matrix( 1, 0, 0, 0.999603271484375, 65,60) ">
<g transform="matrix( 1, 0, 0, 1, 0,0) ">
<use xlink:href="#icon_r_box_02_19_Layer3_0_FILL"/>
</g>

<g transform="matrix( 1, 0, 0, 1, -0.05,0.05) ">
<use xlink:href="#icon_r_box_02_19_Layer3_1_FILL"/>
</g>

<g transform="matrix( 1, 0, 0, 1, 0,-2.15) ">
<use xlink:href="#icon_r_box_02_19_Layer3_2_FILL"/>
</g>

<g transform="matrix( 1, 0, 0, 1, 0,0.05) ">
<use xlink:href="#icon_r_box_02_19_Layer3_3_FILL"/>
</g>

<g filter="url(#Filter_1)" transform="matrix( 0.9999847412109375, 0, 0, 1.000396728515625, -65,-60) ">
<g transform="matrix( 0.7499847412109375, 0, 0, 0.7496795654296875, 65.8,40.8) ">
<g transform="matrix( 1, 0, 0, 1, 0,0) ">
<use xlink:href="#Duplicate_Items_Folder___2_0_Layer1_0_FILL"/>

<use xlink:href="#Duplicate_Items_Folder___2_0_Layer1_0_1_STROKES"/>
</g>

<g transform="matrix( 0.4640045166015625, 0.2678375244140625, -0.2678375244140625, 0.4640045166015625, -19.6,-74.8) ">
<use xlink:href="#Duplicate_Items_Folder___2_0_Layer0_0_MEMBER_0_MEMBER_0_MEMBER_0_FILL"/>
</g>

<g transform="matrix( 1.694580078125, 1.5420074462890625, -1.5420074462890625, 1.694580078125, -86.65,-283.2) ">
<use xlink:href="#Duplicate_Items_Folder___2_0_Layer0_0_MEMBER_0_MEMBER_0_MEMBER_1_FILL"/>
</g>

<g transform="matrix( 0.3787689208984375, 0.3787994384765625, -0.3787994384765625, 0.3787689208984375, -0.6,-85) ">
<use xlink:href="#Duplicate_Items_Folder___2_0_Layer0_0_MEMBER_0_MEMBER_0_MEMBER_2_FILL"/>
</g>

<g transform="matrix( -1.04962158203125, 0, 0, 1.04962158203125, 70.95,-61.4) ">
<use xlink:href="#Duplicate_Items_Folder___2_0_Layer0_0_MEMBER_0_MEMBER_0_MEMBER_3_FILL"/>
</g>

<g transform="matrix( -1.049652099609375, 0, 0, 1.049652099609375, 93.2,-61.4) ">
<use xlink:href="#Duplicate_Items_Folder___2_0_Layer0_0_MEMBER_0_MEMBER_0_MEMBER_4_1_STROKES" transform="matrix( -0.9526824951171875, 0, 0, 0.9526824951171875, 88.75,58.45) "/>
</g>

<g transform="matrix( -1.049652099609375, 0, 0, 1.049652099609375, 93.2,-61.4) ">
<use xlink:href="#Duplicate_Items_Folder___2_0_Layer0_0_MEMBER_0_MEMBER_0_MEMBER_5_1_STROKES" transform="matrix( -0.9526824951171875, 0, 0, 0.9526824951171875, 88.75,58.45) "/>
</g>

<g transform="matrix( -1, 0, 0, 1, 1.3,0) ">
<use xlink:href="#Duplicate_Items_Folder___2_0_Layer0_0_MEMBER_0_MEMBER_1_FILL"/>
</g>

<g transform="matrix( 1, 0, 0, 1, 0.25,0) ">
<use xlink:href="#Duplicate_Items_Folder___2_0_Layer0_0_MEMBER_1_FILL"/>
</g>

<g transform="matrix( -0.464019775390625, 0.267852783203125, 0.267852783203125, 0.464019775390625, 20.9,-74.85) ">
<use xlink:href="#Duplicate_Items_Folder___2_0_Layer0_0_MEMBER_2_MEMBER_0_FILL"/>
</g>

<g transform="matrix( -1.6946258544921875, 1.54205322265625, 1.54205322265625, 1.6946258544921875, 88,-283.2) ">
<use xlink:href="#Duplicate_Items_Folder___2_0_Layer0_0_MEMBER_2_MEMBER_1_FILL"/>
</g>

<g transform="matrix( -0.3787994384765625, 0.378814697265625, 0.378814697265625, 0.3787994384765625, 1.95,-85) ">
<use xlink:href="#Duplicate_Items_Folder___2_0_Layer0_0_MEMBER_2_MEMBER_2_FILL"/>
</g>

<g transform="matrix( 1.049652099609375, 0, 0, 1.049652099609375, -69.65,-61.4) ">
<use xlink:href="#Duplicate_Items_Folder___2_0_Layer0_0_MEMBER_2_MEMBER_3_FILL"/>
</g>

<g transform="matrix( 1.0496673583984375, 0, 0, 1.0496673583984375, -91.9,-61.4) ">
<use xlink:href="#Duplicate_Items_Folder___2_0_Layer0_0_MEMBER_2_MEMBER_4_1_STROKES" transform="matrix( 0.9526824951171875, 0, 0, 0.9526824951171875, 87.55,58.45) "/>
</g>

<g transform="matrix( 1.0496673583984375, 0, 0, 1.0496673583984375, -91.9,-61.4) ">
<use xlink:href="#Duplicate_Items_Folder___2_0_Layer0_0_MEMBER_2_MEMBER_5_1_STROKES" transform="matrix( 0.9526824951171875, 0, 0, 0.9526824951171875, 87.55,58.45) "/>
</g>

<g transform="matrix( 1, 0, 0, 1, -31.7,1.65) ">
<use xlink:href="#Duplicate_Items_Folder___2_0_Layer0_0_MEMBER_3_FILL"/>
</g>

<g transform="matrix( -0.997283935546875, 0.073638916015625, 0.073638916015625, 0.997283935546875, 200.45,-17.95) ">
<use xlink:href="#Duplicate_Items_Folder___2_0_Layer0_0_MEMBER_4_1_STROKES" transform="matrix( -0.997283935546875, 0.073638916015625, 0.073638916015625, 0.997283935546875, 201.2,3.1) "/>
</g>

<g transform="matrix( 1, 0, 0, 1, -33.5,1.05) ">
<use xlink:href="#Duplicate_Items_Folder___2_0_Layer0_0_MEMBER_5_FILL"/>
</g>

<g transform="matrix( -0.997283935546875, 0.073638916015625, 0.073638916015625, 0.997283935546875, 200.45,-17.95) ">
<use xlink:href="#Duplicate_Items_Folder___2_0_Layer0_0_MEMBER_6_FILL"/>
</g>

<g transform="matrix( -0.997283935546875, 0.073638916015625, 0.073638916015625, 0.997283935546875, 200.45,-17.95) ">
<use xlink:href="#Duplicate_Items_Folder___2_0_Layer0_0_MEMBER_7_FILL"/>
</g>

<g transform="matrix( 1, 0, 0, 1, -33.5,1.05) ">
<use xlink:href="#Duplicate_Items_Folder___2_0_Layer0_0_MEMBER_8_FILL"/>
</g>

<g transform="matrix( -0.997283935546875, 0.073638916015625, 0.073638916015625, 0.997283935546875, 200.45,-17.95) ">
<use xlink:href="#Duplicate_Items_Folder___2_0_Layer0_0_MEMBER_9_FILL"/>
</g>

<g transform="matrix( 1, 0, 0, 1, -33.5,1.05) ">
<use xlink:href="#Duplicate_Items_Folder___2_0_Layer0_0_MEMBER_10_FILL"/>
</g>

<g transform="matrix( 1, 0, 0, 1, -33.25,1.05) ">
<use xlink:href="#Duplicate_Items_Folder___2_0_Layer0_0_MEMBER_11_FILL"/>
</g>

<g transform="matrix( 1.1340179443359375, 0, 0, 1, -36.15,6.3) ">
<use xlink:href="#Duplicate_Items_Folder___2_0_Layer0_0_MEMBER_12_FILL"/>
</g>

<g transform="matrix( 1, 0, 0, 1, 0,0) ">
<use xlink:href="#Duplicate_Items_Folder___2_0_Layer0_0_MEMBER_13_FILL"/>
</g>

<g transform="matrix( 1, 0, 0, 1, -33.25,1.05) ">
<use xlink:href="#Duplicate_Items_Folder___2_0_Layer0_0_MEMBER_14_FILL"/>
</g>

<g transform="matrix( 1, 0, 0, 1, -33.25,1.05) ">
<use xlink:href="#Duplicate_Items_Folder___2_0_Layer0_0_MEMBER_15_1_STROKES"/>
</g>

<g transform="matrix( 1, 0, 0, 1, -32.35,-1.6) ">
<use xlink:href="#Duplicate_Items_Folder___2_0_Layer0_0_MEMBER_16_1_STROKES"/>
</g>

<g transform="matrix( 1, 0, 0, 1, -33.1,1.05) ">
<use xlink:href="#Duplicate_Items_Folder___2_0_Layer0_0_MEMBER_17_MEMBER_0_FILL"/>
</g>

<g transform="matrix( 1, 0, 0, 1, -33.25,1.05) ">
<use xlink:href="#Duplicate_Items_Folder___2_0_Layer0_0_MEMBER_17_MEMBER_1_1_STROKES"/>
</g>

<g transform="matrix( 0.7917327880859375, -0.212127685546875, 0.212127685546875, 0.7917327880859375, -16.5,0.5) ">
<use xlink:href="#Duplicate_Items_Folder___2_0_Layer0_0_MEMBER_17_MEMBER_2_FILL"/>
</g>

<g transform="matrix( 1, 0, 0, 1, 0,0) ">
<use xlink:href="#Duplicate_Items_Folder___2_0_Layer0_0_MEMBER_18_1_STROKES"/>
</g>

<g transform="matrix( 1, 0, 0, 1, 0,0) ">
<use xlink:href="#Duplicate_Items_Folder___2_0_Layer0_0_MEMBER_19_1_STROKES"/>
</g>

<g transform="matrix( 1, 0, 0, 1, -32.2,7.95) ">
<use xlink:href="#Duplicate_Items_Folder___2_0_Layer0_0_MEMBER_20_MEMBER_0_FILL"/>
</g>

<g transform="matrix( 1, 0, 0, 1, -29.35,7.85) ">
<use xlink:href="#Duplicate_Items_Folder___2_0_Layer0_0_MEMBER_20_MEMBER_1_FILL"/>
</g>

<g transform="matrix( 1, 0, 0, 1, -33.25,1.05) ">
<use xlink:href="#Duplicate_Items_Folder___2_0_Layer0_0_MEMBER_20_MEMBER_2_1_STROKES"/>
</g>

<g transform="matrix( 1, 0, 0, 1, 0,0) ">
<use xlink:href="#Duplicate_Items_Folder___2_0_Layer0_0_MEMBER_21_FILL"/>
</g>

<g transform="matrix( 0.965911865234375, -0.2587890625, 0.2587890625, 0.965911865234375, 8.85,-0.75) ">
<use xlink:href="#Duplicate_Items_Folder___2_0_Layer0_0_MEMBER_22_FILL"/>
</g>

<g transform="matrix( 0.67559814453125, 1.028076171875, -1.028076171875, 0.67559814453125, -65,-11) ">
<use xlink:href="#Duplicate_Items_Folder___2_0_Layer0_0_MEMBER_23_MEMBER_0_FILL"/>
</g>

<g transform="matrix( 0.3184051513671875, -1.1883392333984375, 1.1883392333984375, 0.3184051513671875, 46.4,-20.95) ">
<use xlink:href="#Duplicate_Items_Folder___2_0_Layer0_0_MEMBER_23_MEMBER_1_FILL"/>
</g>

<g transform="matrix( 1, 0, 0, 1, -57.9,4.95) ">
<use xlink:href="#Duplicate_Items_Folder___2_0_Layer0_0_MEMBER_23_MEMBER_2_FILL"/>
</g>

<g transform="matrix( 1, 0, 0, 1, 0,0) ">
<use xlink:href="#Duplicate_Items_Folder___2_0_Layer0_0_MEMBER_23_MEMBER_3_FILL"/>
</g>

<g transform="matrix( -0.9999847412109375, 0, 0, 0.9999847412109375, 20.8,-49.45) ">
<use xlink:href="#Duplicate_Items_Folder___2_0_Layer0_0_MEMBER_23_MEMBER_4_FILL"/>
</g>

<g transform="matrix( -0.787994384765625, 0.6156463623046875, 0.6156463623046875, 0.787994384765625, 8.1,-54.9) ">
<use xlink:href="#Duplicate_Items_Folder___2_0_Layer0_0_MEMBER_23_MEMBER_5_MEMBER_0_STROKES_1_FILL"/>
</g>

<g transform="matrix( -0.61578369140625, -0.787841796875, -0.787841796875, 0.61578369140625, 30.55,-35.4) ">
<use xlink:href="#Duplicate_Items_Folder___2_0_Layer0_0_MEMBER_23_MEMBER_5_MEMBER_1_STROKES_1_FILL"/>
</g>

<g transform="matrix( -0.75, 0, 0, 0.75, 18.4,-43.8) ">
<use xlink:href="#Duplicate_Items_Folder___2_0_Layer0_0_MEMBER_23_MEMBER_5_MEMBER_2_FILL"/>
</g>

<g transform="matrix( -1.25, 0, 0, 1.063720703125, 25.75,-49.6) ">
<use xlink:href="#Duplicate_Items_Folder___2_0_Layer0_0_MEMBER_23_MEMBER_5_MEMBER_3_FILL"/>
</g>

<g transform="matrix( -1, 0, 0, 1, 21.15,-49.05) ">
<use xlink:href="#Duplicate_Items_Folder___2_0_Layer0_0_MEMBER_23_MEMBER_5_MEMBER_4_FILL"/>
</g>

<g transform="matrix( -0.9976043701171875, 0.0691680908203125, 0.0691680908203125, 0.9976043701171875, 19.5,-49.35) ">
<use xlink:href="#Duplicate_Items_Folder___2_0_Layer0_0_MEMBER_23_MEMBER_5_MEMBER_5_FILL"/>
</g>

<g transform="matrix( -0.8549041748046875, 0, 0, 0.8549041748046875, 57.1,-38.6) ">
<use xlink:href="#Duplicate_Items_Folder___2_0_Layer0_0_MEMBER_23_MEMBER_5_MEMBER_6_FILL"/>
</g>

<g transform="matrix( -0.8549041748046875, 0, 0, 0.8549041748046875, 20.3,-33.4) ">
<use xlink:href="#Duplicate_Items_Folder___2_0_Layer0_0_MEMBER_23_MEMBER_5_MEMBER_7_FILL"/>
</g>

<g transform="matrix( 1, 0, 0, 1, -32.3,8.9) ">
<use xlink:href="#Duplicate_Items_Folder___2_0_Layer0_0_MEMBER_23_MEMBER_5_MEMBER_8_1_STROKES"/>
</g>

<g transform="matrix( -1, 0, 0, 1, 21.15,-48.35) ">
<use xlink:href="#Duplicate_Items_Folder___2_0_Layer0_0_MEMBER_23_MEMBER_5_MEMBER_9_1_STROKES" transform="matrix( -1, 0, 0, 1, 21.15,48.35) "/>
</g>

<g transform="matrix( -0.9999847412109375, 0, 0, 0.9999847412109375, 21.2,-49.3) ">
<use xlink:href="#Duplicate_Items_Folder___2_0_Layer0_0_MEMBER_23_MEMBER_6_FILL"/>
</g>

<g transform="matrix( 1, 0, 0, 1, -33.35,1.55) ">
<use xlink:href="#Duplicate_Items_Folder___2_0_Layer0_0_MEMBER_23_MEMBER_7_1_STROKES"/>
</g>
</g>
</g>
</g>
</svg>
