
<svg xmlns="http://www.w3.org/2000/svg" version="1.1" xmlns:xlink="http://www.w3.org/1999/xlink" preserveAspectRatio="none" x="0px" y="0px" width="130px" height="115px" viewBox="0 0 130 115">
<defs>
<filter id="Filter_1" x="-31.157911147962675%" y="-20.676938129041247%" width="162.31582229592536%" height="141.3538762580825%" color-interpolation-filters="sRGB">
<feFlood flood-color="#000000" flood-opacity="1" in="SourceGraphic" result="result1"/>

<feGaussianBlur in="SourceGraphic" stdDeviation="1.6666666666666667,1.6666666666666667" result="result2"/>

<feComposite in2="result2" in="result1" operator="in" result="result3"/>

<feComposite in2="result3" in="SourceGraphic" operator="over" result="result4"/>
</filter>

<g id="icon_r_box_02_31_Layer3_0_FILL">
<path fill="#FFFFFF" fill-opacity="0" stroke="none" d="
M 65 -55
L -65 -55 -65 25 65 25 65 -55 Z"/>
</g>

<g id="icon_r_box_02_31_Layer3_1_FILL">
<path fill="#FFFFFF" fill-opacity="0" stroke="none" d="
M 65.05 49.95
L 65.05 24.95 -64.95 24.95 -64.95 49.95 65.05 49.95 Z"/>
</g>

<g id="icon_r_box_02_31_Layer3_2_FILL">
<path fill="#FFFFFF" fill-opacity="0" stroke="none" d="
M 65 -52.85
L 65 -57.85 -65 -57.85 -65 -52.85 65 -52.85 Z"/>
</g>

<g id="icon_r_box_02_31_Layer3_3_FILL">
<path fill="#FFFFFF" fill-opacity="0" stroke="none" d="
M 65 54.95
L 65 49.95 -65 49.95 -65 54.95 65 54.95 Z"/>
</g>

<g id="Duplicate_Items_Folder___1_0_Layer1_0_MEMBER_0_FILL">
<path fill="#FFFFFF" stroke="none" d="
M 4.25 -5.05
Q 4 -10.85 1.35 -16.05 0.25 -18.25 -1.1 -20.25
L -1.85 -20.2
Q -2.2 -14.7 -3.45 -9.45 -4.3 -6 -5.7 -2.85
L -3.05 -24.75
Q -1.75 -31.2 1.1 -37.1 -6.9 -36.75 -10.85 -28.6
L -12 -26.4
Q -11.4 -31.95 -13.6 -37.1 -15.95 -42.6 -20.6 -46.3 -21.15 -46.8 -21.65 -47.3
L -22.55 -47.2
Q -19.4 -38.7 -21.75 -29.85 -23.9 -21.95 -25.85 -14.05 -26.4 -11.85 -27.3 -9.75 -31.25 -15 -34.4 -20.6 -38.05 -26.95 -40.35 -33.95 -43.35 -29.6 -44.1 -24.3 -45.05 -17.9 -42.4 -12.15 -40.7 -8.35 -38.9 -4.7 -37.3 -1.5 -36.1 1.5 -35.15 4 -34.7 6.65 -38.1 0.05 -41.15 -6.55
L -41.7 -6.7
Q -44.9 -0.75 -44.55 5.9 -44.15 12.65 -40.6 18.65 -44.3 20.85 -42.6 24.6 -41.85 26.15 -40 26.8 -39.7 31.75 -39.2 36.75 -38.3 45.4 -31.35 50.3
L -10.7 50.3
Q -6.2 47.55 -3.85 42.8 -1.15 37.35 -1.8 31.15 -2.05 28.95 -2.1 26.8 1.5 25.8 0.6 22.35 -0.25 18.95 -4 18.5 -2.3 12.95 0.75 8.15 4.6 2.1 4.25 -5.05 Z"/>
</g>

<g id="Duplicate_Items_Folder___1_0_Layer0_0_MEMBER_0_FILL">
<path fill="#0E9D72" stroke="none" d="
M -40.7 -33.9
Q -40.8203125 -33.8341796875 -40.9 -33.7 -42.1509765625 -31.3755859375 -43.2 -28.9 -45.2591796875 -24.0283203125 -44.65 -18.9
L -44.65 -18.85
Q -44.6048828125 -18.65 -44.6 -18.45 -44.6 -18.4 -44.6 -18.3 -44.6041015625 -18.250390625 -44.6 -18.2 -44.03125 -15.09921875 -42.75 -12.1
L -42.8 -12.15
Q -42.51484375 -11.45 -42.15 -10.8
L -42.15 -10.75
Q -40.7375 -8.2001953125 -39.3 -5.65
L -39.3 -5.7
Q -38.95 -4.975 -38.6 -4.3 -37.56328125 -2.0994140625 -36.7 0.2
L -36.65 0.25
Q -36.0140625 1.765234375 -35.55 3.55
L -35.55 3.6
Q -34.925390625 5.6376953125 -34.45 7.75
L -34.45 7.75
Q -34.3291015625 8.32578125 -34.15 8.55
L -28.9 29
Q -28.825 29.2208984375 -28.65 29.3 -28.4740234375 29.426953125 -28.3 29.35 -28.08046875 29.3380859375 -28 29.15 -27.725 28.7630859375 -27.5 28.3
L -27.45 28.3
Q -23.248828125 20.5951171875 -22.95 11.7 -22.9 10.925 -22.85 10.1
L -22.85 10.1
Q -22.85 9.4 -22.85 8.75 -22.8951171875 3.9984375 -23.85 -0.5 -23.91484375 -0.812109375 -24 -1.05
L -23.95 -1
Q -24.6697265625 -4.303515625 -26 -7.2 -26.2125 -7.6779296875 -26.45 -8.05
L -26.4 -8
Q -26.5986328125 -8.5140625 -26.9 -9 -27.4609375 -10.0384765625 -28.1 -11.05 -28.1099609375 -11.0517578125 -28.15 -11.1 -28.1625 -11.15 -28.2 -11.25 -28.22109375 -11.2640625 -28.25 -11.3 -28.5556640625 -11.697265625 -28.85 -12.1 -28.8568359375 -12.2091796875 -28.95 -12.3 -29 -12.35 -29.05 -12.4 -29.221484375 -12.575 -29.35 -12.75 -29.3732421875 -12.77578125 -29.4 -12.8 -29.425 -12.825 -29.45 -12.85 -30.812890625 -14.5767578125 -32.1 -15.95
L -32.05 -15.9
Q -32.2345703125 -16.125 -32.4 -16.35
L -32.4 -16.4
Q -33.75 -18.3375 -35.1 -20.25 -35.3375 -20.5787109375 -35.6 -20.85 -35.7875 -21.1556640625 -35.9 -21.4 -35.88671875 -21.425390625 -35.9 -21.45
L -37 -23.85
Q -38.0818359375 -26.3158203125 -38.45 -27.4 -39.31171875 -30.3263671875 -39.95 -33.55 -39.9833984375 -33.69765625 -40.1 -33.8 -40.2171875 -33.9177734375 -40.4 -33.95 -40.5318359375 -33.9720703125 -40.7 -33.9 Z"/>
</g>

<g id="Duplicate_Items_Folder___1_0_Layer0_0_MEMBER_1_FILL">
<path fill="#0D976E" stroke="none" d="
M -95.5 3
Q -95.5 2.3 -95.5 1.65 -95.5109375 0.6125 -95.6 -0.45 -99.253515625 -0.3201171875 -102.85 0 -105.15078125 0.1630859375 -107.1 0.5 -107.0734375 0.608203125 -107.05 0.7
L -107.1 0.65
Q -107 1.25 -106.75 1.45
L -105.2 7.45
Q -104.3736328125 7.5673828125 -103.5 7.7 -101.4 8.05 -96.5 9.1 -96.2591796875 9.148828125 -96.05 9.2 -95.678515625 6.9685546875 -95.6 4.65 -95.55 3.85 -95.5 3.05
L -95.5 3
M -111.9 -12.75
L -111.95 -12.75
Q -111.6 -12.05 -111.25 -11.35 -110.4939453125 -9.801953125 -109.85 -8.15 -106.130078125 -10.4759765625 -101.85 -11.95 -99.9751953125 -12.5791015625 -98.1 -13.05 -98.3548828125 -13.6662109375 -98.65 -14.3 -98.8228515625 -14.7322265625 -99 -15.05 -99.0228515625 -15.1025390625 -99.05 -15.15 -99.2732421875 -15.646484375 -99.5 -16.1 -99.762890625 -16.5599609375 -100.05 -17 -103.2580078125 -15.4140625 -106.75 -14.25 -109.3154296875 -13.3822265625 -111.95 -12.8
L -111.9 -12.75
M -117.25 -25.4
Q -117.25 -25.35 -117.25 -25.3 -116.7998046875 -22.7623046875 -115.85 -20.3 -112.6537109375 -22.416796875 -107.95 -24.45 -107.06484375 -24.8306640625 -106.25 -25.2 -106.994140625 -26.286328125 -107.75 -27.35 -108 -27.7 -108.2 -27.9 -108.45 -28.25 -108.5 -28.5
L -108.55 -28.55 -109.65 -30.95
Q -109.933203125 -31.580859375 -110.2 -32.15 -110.8294921875 -31.7958984375 -111.55 -31.45 -114.715234375 -29.7345703125 -117.45 -27.7 -117.39765625 -26.8384765625 -117.3 -26
L -117.3 -25.95
Q -117.25 -25.75 -117.25 -25.55 -117.25 -25.5 -117.25 -25.4 Z"/>
</g>

<g id="Duplicate_Items_Folder___1_0_Layer0_0_MEMBER_2_FILL">
<path fill="#187C5F" fill-opacity="0.2" stroke="none" d="
M -67.65 37.85
L -67.7 37.85
Q -67.35 38.55 -67 39.25 -65.95 41.4 -65.05 43.75 -64.4 45.25 -63.9 47.1 -63.35 49.15 -62.8 51.3
L -62.85 51.25
Q -62.75 51.85 -62.5 52.05
L -57.25 72.55
Q -57.2 72.7 -57.05 72.85 -56.85 72.95 -56.65 72.9 -56.5 72.85 -56.35 72.7 -56.1 72.25 -55.85 71.8 -51.65 64.1 -51.35 55.25 -51.3 54.45 -51.25 53.65
L -51.25 53.6
Q -51.25 52.9 -51.25 52.25 -51.3 47.5 -52.25 43 -52.3 42.7 -52.35 42.5 -52.75 40.7 -53.3 39.05 -53.65 40.4 -54.15 41.65 -54.8 43.4 -56.9 44 -59.85 44.85 -63.4 41.65 -65 40.25 -68 37.25 -67.85 37.55 -67.65 37.85 Z"/>
</g>

<g id="Duplicate_Items_Folder___1_0_Layer0_0_MEMBER_3_FILL">
<path fill="#0E9D72" stroke="none" d="
M 0.7 -36.1
Q 1.5888671875 -37.4623046875 0.8 -37.65 0.0037109375 -37.7958984375 -0.9 -37.5 -1.45 -37.3 -1.85 -36.95 -1.95 -36.9 -2.05 -36.85 -2.1 -36.85 -2.15 -36.8 -2.45 -36.6 -2.75 -36.4 -4.85 -35.05 -6.8 -33.55 -7.4 -33.1 -7.85 -32.5 -9.45 -30.6 -10.85 -28.6 -12.05 -26.5 -13 -24.5 -13.25 -23.95 -13.75 -23.05
L -15.5 -18 -17.25 -10.15 -19.75 17
Q -20.1 18.15 -20.25 19.55 -20.35 20.35 -20.6 21.45 -20.65 21.75 -20.75 22.05 -20.8 22.35 -20.85 22.65 -20.9 22.85 -20.95 23.05 -21.65 25.6 -22.1 28.1 -21.45 28.85 -20.5 28.2 -19.75 27.6 -18.95 27.05 -18.95 27 -18.9 27 -18.6 26.7 -18.25 26.45 -17.95 26.2 -17.65 25.95
L -14.05 22.1 -12.9 20.45 -9.8 14.75
Q -9.2 13.3 -8.65 11.8 -8.2 10.6 -7.85 9.45 -7.7 9 -7.55 8.6 -7.45 8.3 -7.4 8 -7.3 7.65 -7.25 7.25 -6.9 5.75 -6.6 4.35
L -3.05 -24.75
Q -2.85 -26.15 -2.65 -27.3 -2.6 -27.55 -2.3 -28.5 -2.05 -29.45 -1.95 -29.6 -1.5 -31.45 0.7 -36.1 Z"/>
</g>

<g id="Duplicate_Items_Folder___1_0_Layer0_0_MEMBER_4_FILL">
<path fill="#0D976E" stroke="none" d="
M -134.9 15.8
Q -136.85 15.1 -138.65 13.8 -141.8 11.35 -141.9 11.3
L -141.95 11.3 -142.1 12.95
Q -142.45 14.1 -142.6 15.5 -142.7 16.3 -142.95 17.4 -143 17.7 -143.1 18 -143.15 18.3 -143.2 18.6 -143.25 18.8 -143.3 19 -144 21.55 -144.45 24.05 -143.8 24.8 -142.85 24.15 -142.1 23.55 -141.3 23 -141.3 22.95 -141.25 22.95 -140.95 22.65 -140.6 22.4 -140.3 22.15 -140 21.9
L -136.4 18.05 -134.9 15.8
M -134.9 -2.95
Q -138 -3.05 -140.55 -3.75
L -141.05 1.65
Q -138.15 2.2 -135.35 3.2 -132.65 4.15 -130.2 5.5 -130.2 5.45 -130.2 5.4 -130.05 4.95 -129.9 4.55 -129.8 4.25 -129.75 3.95 -129.65 3.6 -129.6 3.2 -129.25 1.7 -128.95 0.3
L -128.45 -3.65
Q -132.3 -2.95 -134.9 -2.95
M -134.6 -30.05
Q -135 -29.3 -135.35 -28.55 -135.6 -28 -136.1 -27.1
L -137.85 -22.05 -138.7 -18.1
Q -137.9 -17.95 -137.15 -17.65 -135.8 -17.15 -134.1 -15.9 -131.45 -14 -131.25 -13.9 -129.45 -12.8 -127.4 -12.1
L -125.95 -24.05
Q -127.1 -25 -128.4 -26.15 -131.4 -28.45 -134.6 -30.05
M -125.1 -40.45
Q -127.2 -39.1 -129.15 -37.6 -129.75 -37.15 -130.2 -36.55 -131.1 -35.5 -131.9 -34.4 -130.6 -33.7 -129.25 -32.8 -126.85 -31.25 -125.2 -30.15 -125.1 -30.8 -125 -31.35 -124.95 -31.6 -124.65 -32.55 -124.4 -33.5 -124.3 -33.65 -123.85 -35.5 -121.65 -40.15 -120.75 -41.5 -121.55 -41.65 -122.35 -41.85 -123.25 -41.55 -123.8 -41.35 -124.2 -41 -124.3 -40.95 -124.4 -40.9 -124.45 -40.9 -124.5 -40.85 -124.8 -40.65 -125.1 -40.45 Z"/>
</g>

<g id="Duplicate_Items_Folder___1_0_Layer0_0_MEMBER_5_FILL">
<path fill="#187C5F" fill-opacity="0.2" stroke="none" d="
M 33.35 7.25
Q 32.85 7.95 32.35 8.6 29.75 11.65 27.6 13.2 25.45 14.75 23.65 14.3 21.9 13.85 20.65 11.15
L 18.7 32.1
Q 18.35 33.25 18.2 34.65 18.1 35.45 17.85 36.55 17.8 36.85 17.7 37.15 17.65 37.45 17.6 37.75 17.55 37.95 17.5 38.15 16.8 40.7 16.35 43.2 17 43.95 17.95 43.3 18.7 42.7 19.5 42.15 19.5 42.1 19.55 42.1 19.85 41.8 20.2 41.55 20.5 41.3 20.8 41.05
L 24.4 37.2 25.55 35.55 28.65 29.85
Q 29.25 28.4 29.8 26.9 30.25 25.7 30.6 24.55 30.75 24.1 30.9 23.7 31 23.4 31.05 23.1 31.15 22.75 31.2 22.35 31.55 20.85 31.85 19.45
L 33.35 7.25 Z"/>
</g>

<g id="Duplicate_Items_Folder___1_0_Layer0_0_MEMBER_6_FILL">
<path fill="#0DA578" stroke="none" d="
M -41.85 -6.55
Q -41.95 -6.45 -42.05 -6.35 -42.4 -5.65 -42.7 -4.9 -43.25 -3.7 -43.75 -2.4
L -43.75 -2.35
Q -44.1 -0.9 -44.4 0.55 -44.5 1.15 -44.55 1.55 -44.8 3.15 -44.9 4.75 -44.9 5.2 -44.9 5.7 -44.85 6.4 -44.75 7.15 -44.7 7.85 -44.6 8.6 -44.5 9.25 -44.35 9.9 -44.2 10.55 -44.05 11.2 -43.9 11.8 -43.7 12.4 -43.55 12.95 -43.35 13.5 -42.95 14.4 -42.45 15.25 -42.1 15.9 -41.75 16.7 -41.65 17 -41.5 17.3
L -38.35 22.1 -33 28.65
Q -32.95 28.7 -32.85 28.8
L -32.8 28.85
Q -32.8 28.9 -32.75 28.95
L -32.7 29
Q -31.7 29.85 -30.35 32.25 -30.3 32.3 -30.25 32.35
L -30.2 32.4
Q -29.9 32.85 -29.6 33.3 -29.6 33.35 -29.5 33.45 -29.35 33.65 -29.15 33.9 -28.8 34.4 -28.45 34.95 -28.35 35.15 -28.25 35.35 -27.5 36.7 -26.7 38.05 -26.7 38 -26.7 37.95 -26.65 38.1 -26.5 38.35 -26.3 38.8 -25.75 39.95 -25.55 40.4 -25.35 40.9 -25.3 41.05 -25.25 41.2 -24.95 41.9 -24.65 42.6 -24.6 42.7 -24.5 42.85 -24.35 42.9 -24.15 43 -24.05 43 -24 42.95 -23.9 42.9 -23.85 42.8 -23.75 42.75 -23.65 42.7
L -23.65 42.75
Q -23.45 42.45 -23.25 42.15 -22.95 41.6 -22.65 41.1 -22.65 41.05 -22.65 41 -22.55 40.8 -22.45 40.6 -22.15 40.2 -22.15 39.75 -22.15 39.7 -22.1 39.65 -22 39.35 -21.85 39.05 -21.85 39 -21.85 38.95 -21.8 38.75 -21.75 38.6 -21.45 36.9 -21.35 35.2 -21.25 32.85 -21.45 30.55 -21.5 29.75 -21.65 29 -21.7 28.85 -21.7 28.7 -21.75 28.55 -21.75 28.4 -21.55 26.95 -23.4 23.4
L -23.6 22.95
Q -24.15 21.8 -24.7 20.7
L -32.35 10.15
Q -32.4 10.05 -32.45 10 -32.55 9.85 -32.6 9.75 -32.65 9.7 -32.7 9.65 -32.75 9.6 -32.75 9.65 -32.8 9.5 -32.9 9.4 -33.2 9 -33.5 8.6
L -33.55 8.55
Q -33.6 8.45 -33.6 8.4 -33.75 8.2 -33.9 8 -34.4 7.15 -34.9 6.3 -35.35 5.5 -35.8 4.75 -35.9 4.55 -36 4.4
L -36.05 4.35
Q -36.1 4.25 -36.15 4.2 -36.45 3.6 -36.7 3.05
L -39 -1.9
Q -39.05 -2.1 -39.1 -2.25 -39.65 -3.4 -40.15 -4.55 -40.2 -4.65 -40.2 -4.7 -40.6 -5.5 -40.95 -6.2 -41.05 -6.4 -41.15 -6.55 -41.35 -6.65 -41.55 -6.7 -41.6 -6.7 -41.65 -6.7 -41.75 -6.6 -41.85 -6.55 Z"/>
</g>

<g id="Duplicate_Items_Folder___1_0_Layer0_0_MEMBER_7_FILL">
<path fill="#0FB180" stroke="none" d="
M -65.6 4.75
L -65.65 4.7
Q -67.9240234375 5.05859375 -69.5 5.4 -72.265625 6.005078125 -74.6 6.9 -74.5673828125 7.0203125 -74.55 7.15 -74.5 7.85 -74.4 8.6 -74.3 9.25 -74.15 9.9 -74 10.55 -73.85 11.2 -73.7 11.8 -73.5 12.4 -73.35 12.95 -73.15 13.5 -72.75 14.4 -72.25 15.25 -72.1736328125 15.3916015625 -72.1 15.55 -69.28125 14.8533203125 -66.55 13.5 -64.0041015625 12.2501953125 -61.85 10.55
L -62.15 10.15
Q -62.2 10.05 -62.25 10 -62.35 9.85 -62.4 9.75 -62.45 9.7 -62.5 9.65 -62.55 9.6 -62.55 9.65 -62.6 9.5 -62.7 9.4 -63 9 -63.3 8.6
L -63.35 8.55
Q -63.4 8.45 -63.4 8.4 -63.55 8.2 -63.7 8 -64.2 7.15 -64.7 6.3 -65.15 5.5 -65.6 4.75
M -53.2 23.4
L -53.4 22.95
Q -53.95 21.8 -54.5 20.7
L -59.35 14.05
Q -60.87890625 15.56796875 -62.7 17.85 -65.371484375 21.1806640625 -67.55 22.85
L -63.95 27.25
Q -58.2822265625 24.9873046875 -52.45 25 -52.750390625 24.2626953125 -53.2 23.4
M -70.95 -6.55
Q -71.15 -6.65 -71.35 -6.7 -71.4 -6.7 -71.45 -6.7 -71.55 -6.6 -71.65 -6.55 -71.75 -6.45 -71.85 -6.35 -72.2 -5.65 -72.5 -4.9 -73.05 -3.7 -73.55 -2.4
L -73.55 -2.35
Q -73.7583984375 -1.48671875 -73.95 -0.65 -72.7453125 -0.4611328125 -71.5 -0.4 -69.781640625 -0.31484375 -68.15 -0.45
L -68.8 -1.9
Q -68.85 -2.1 -68.9 -2.25 -69.45 -3.4 -69.95 -4.55 -70 -4.65 -70 -4.7 -70.4 -5.5 -70.75 -6.2 -70.85 -6.4 -70.95 -6.55 Z"/>
</g>

<g id="Duplicate_Items_Folder___1_0_Layer0_0_MEMBER_8_FILL">
<path fill="#0FB180" stroke="none" d="
M -6.25 -1.5
Q -6.4 -1.05 -6.65 -0.65 -6.85 -0.2 -7.15 0.25
L -10.6 6.25
Q -11.5 7.7 -12.05 9.2 -12.6 10.5 -12.95 11.7 -13.25 12.75 -13.35 13.8 -13.7 16.2 -13.5 18.75 -13.4 20.3 -13.05 21.85 -12.95 22.4 -12.8 22.95 -12.6 23.4 -12.45 23.9
L -12.45 24
Q -11.15 26.95 -9.45 29.7 -8.9 30.6 -8.25 31.25 -6.75 32.75 -5 33.8 -5 33.85 -4.85 33.8 -4.6 32.45 -4.7 31.3 -4.75 30.3 -4.65 29.35
L -4.65 22.55
Q -4.5 20.1 -3.85 17.95 -3.5 16.9 -3.2 15.8 -2.25 13.55 -0.95 11.7 0.25 10.1 1.1 8.4 2.15 6.35 2.85 4.5 3.6 2.5 4 0.3 4.3 -1.35 4.4 -3.05
L 3.9 -8.25 2.5 -13.35 0.05 -18.75
Q -0.4 -19.4 -0.9 -20.05 -1.35 -20.65 -1.85 -20.2 -2.3 -18.6 -2.25 -16.85 -2.25 -15.2 -2.5 -13.6 -2.8 -11.75 -3.4 -9.8 -4.2 -7.05 -5.15 -4.5 -5.55 -3.3 -6 -2.1 -6.15 -1.85 -6.25 -1.5 Z"/>
</g>

<g id="Duplicate_Items_Folder___1_0_Layer0_0_MEMBER_9_FILL">
<path fill="#0FB180" stroke="none" d="
M -18.55 -44.55
Q -18.9 -44.85 -19.2 -45.2 -20.3 -46.2 -21.65 -47.3 -21.8 -47.4 -21.9 -47.45 -22.15 -47.45 -22.35 -47.4 -22.45 -47.3 -22.55 -47.2 -22.6 -47.1 -22.65 -46.95
L -22.65 -46.9
Q -22.65 -46.85 -22.65 -46.8 -21.75 -44.7 -21.4 -42.75 -21 -40.55 -21 -38.4 -20.95 -35.95 -21 -33.45 -21 -31.7 -22.85 -26.5 -24.2 -22.7 -27.6 -8.55
L -28.25 -3.3
Q -28.45 -1.05 -28.45 1.15 -28.45 2.95 -28.3 4.8 -28.15 6.45 -28 8.3 -27.9 9.35 -27.85 10.45
L -26 19.35
Q -25.5 20.25 -25.25 21.2 -24.85 22.7 -24.35 24 -23.8 25.25 -23.3 26.55
L -23.3 26.5 -19.55 33.25
Q -17.65 36.35 -14.75 38.7 -13.5 39.65 -12.2 40.8 -11.8 41.2 -11.35 41.55 -11.2 41.45 -11.1 41.35 -11 41.3 -10.95 41.25 -10.9 41.15 -10.85 41.05 -10.8 41 -10.75 40.95
L -12.25 34.85
Q -12.35 34.4 -12.45 33.95 -12.7 32.95 -12.85 31.75 -12.95 31.15 -13.1 30.25 -13.35 28.8 -13.6 27.35 -13.65 27.15 -13.65 26.95 -13.7 26.6 -13.75 26.25 -14 25.05 -14.05 23.9
L -14.7 5.6
Q -14.5 3.8 -14.45 2.15 -14.35 0.3 -14.2 -1.4 -14.1 -3.1 -14.05 -4.9 -14.05 -6.4 -13.75 -7.95 -13.65 -8.5 -13.55 -9.05 -13.55 -9.15 -13.55 -9.2 -13.55 -9.25 -13.5 -9.25
L -12.5 -18.3
Q -12.25 -20.1 -12.2 -22 -12.1 -23.95 -12.05 -26.05 -11.95 -28.45 -11.95 -30.85 -11.95 -31.8 -12.2 -32.85 -12.3 -33.2 -12.4 -33.55 -12.45 -33.85 -12.55 -34.15 -12.85 -35.35 -13.3 -36.55 -14 -38.35 -14.95 -40 -16.5 -42.55 -18.55 -44.55 Z"/>
</g>

<g id="Duplicate_Items_Folder___1_0_Layer0_0_MEMBER_10_FILL">
<path fill="#0DA578" stroke="none" d="
M -13.1 30.25
Q -15.3 29.7 -18.05 29.55 -19.25 29.5 -21.6 29.55
L -19.55 33.25
Q -19.5 33.35 -19.4 33.45 -18.4 33.55 -17.65 33.65 -14.6 34 -12.45 34
L -12.45 33.95
Q -12.7 32.95 -12.85 31.75 -12.95 31.15 -13.1 30.25
M -14.7 5.6
Q -14.65 5.35 -14.65 5.15 -20.4 9.6 -27.6 11.55
L -26.55 16.75
Q -24.95 16.35 -23 16.3 -22.55 16.3 -16.75 16.5 -15.4 16.5 -14.3 16.35
L -14.7 5.6
M -27.7 -7.75
L -28.25 -3.3
Q -28.45 -1.1 -28.45 1.1 -23.95 -0.35 -20 -0.6 -17 -0.8 -14.25 -0.4 -14.25 -0.9 -14.2 -1.4 -14.1 -3.1 -14.05 -4.9 -14.05 -6.1 -13.85 -7.3 -14.05 -7.25 -14.25 -7.25 -20.95 -6.25 -27.7 -7.75
M -24.05 -22.4
Q -24.55 -20.65 -25.15 -18.25 -19 -17.05 -12.85 -14.8
L -12.5 -18.3
Q -12.35 -19.35 -12.25 -20.4 -14.45 -20.6 -17.35 -20.85 -21.2 -21.35 -24.05 -22.4
M -14.2 -38.65
Q -14.4 -38.55 -14.55 -38.45 -16.8 -36.8 -21 -33.5
L -21 -33.45
Q -21 -32.05 -22.2 -28.4 -21.45 -28.65 -20.65 -28.85 -19.45 -29.15 -15.75 -29.85 -13.7 -30.15 -11.95 -30.65 -11.95 -30.75 -11.95 -30.85 -11.95 -31.8 -12.2 -32.85 -12.3 -33.2 -12.4 -33.55 -12.45 -33.85 -12.55 -34.15 -12.85 -35.35 -13.3 -36.55 -13.7 -37.65 -14.2 -38.65 Z"/>
</g>

<g id="Duplicate_Items_Folder___1_0_Layer0_0_MEMBER_11_FILL">
<path fill="#0DA578" stroke="none" d="
M 9.85 16
Q 9.7890625 16.4408203125 9.75 16.85 9.4 19.25 9.6 21.8 9.6228515625 22.1544921875 9.65 22.5 11.9697265625 21.873046875 15.5 22.5 16.6095703125 22.71328125 18.75 23.15 18.936328125 22.0376953125 19.25 21 19.6 19.95 19.9 18.85 20.151953125 18.253515625 20.4 17.65 17.6908203125 16.621875 16.25 16.25 13.4326171875 15.5275390625 9.85 16
M 23.05 13.45
Q 23.6923828125 12.4650390625 24.2 11.45 24.6646484375 10.5427734375 25.05 9.65 24.698828125 9.4720703125 24.35 9.25 23.35 8.65 21.5 7.2 19.6 5.75 18.6 5.1 17.21171875 4.2181640625 15.75 3.65
L 12.8 8.75
Q 13.3970703125 9.02109375 14 9.35 15 10 17 11.25 18.75 12.25 20.1 12.75 21.3783203125 13.2166015625 23.05 13.45
M 24.45 -12.8
Q 23.4509765625 -12.9052734375 22.75 -13 21.7330078125 -13.1326171875 20.85 -13.4 20.819921875 -11.9578125 20.6 -10.55 20.526953125 -10.09921875 20.4 -9.65 23.475 -9.2462890625 25.1 -8.85 25.589453125 -8.763671875 26.05 -8.65
L 25.6 -10.3 24.45 -12.8
M 19.6 -2.9
Q 19.033203125 -2.955078125 18.5 -3 18.231640625 -2.205859375 17.95 -1.45 17.873828125 -1.2216796875 17.8 -1 18.7673828125 -0.981640625 19.85 -0.85 20.65 -0.7 23 -0.25 24.9 0.1 26 0.25 26.74296875 0.34609375 27.45 0.4 27.48828125 0.19921875 27.5 0
L 27.25 -2.45
Q 26.4185546875 -2.35 25.6 -2.35 25.55 -2.35 19.6 -2.9 Z"/>
</g>

<g id="Duplicate_Items_Folder___1_0_Layer0_0_MEMBER_12_FILL">
<path fill="#196F55" fill-opacity="0.09803921568627451" stroke="none" d="
M -14.55 -8.7
Q -15.4556640625 -5.8033203125 -16.75 -2.9 -18.039453125 0.0109375 -19.9 3.25 -21.7119140625 6.541796875 -23.7 7 -25.6435546875 7.4962890625 -26.9 5.25 -28.15390625 3.05703125 -28.45 1.55 -28.45 3.1 -28.3 4.7 -28.15 6.35 -28 8.2 -27.9 9.25 -27.85 10.35
L -26.05 18.95
Q -26 18.95 -25.95 18.95
L -25.95 19.1
Q -25.45 20 -25.2 20.95 -24.8 22.45 -24.3 23.75 -23.75 25 -23.25 26.3
L -23.25 26.25 -19.5 33
Q -17.6 36.1 -14.7 38.45 -13.45 39.4 -12.15 40.55 -11.75 40.95 -11.3 41.3 -11.15 41.2 -11.05 41.1 -10.95 41.05 -10.9 41 -10.85 40.9 -10.8 40.8 -10.75 40.75 -10.7 40.7
L -12.2 34.6
Q -12.3 34.15 -12.4 33.7 -12.65 32.7 -12.8 31.5 -12.9 30.9 -13.05 30 -13.3 28.55 -13.55 27.1 -13.6 26.9 -13.6 26.7 -13.65 26.35 -13.7 26 -13.95 24.8 -14 23.65
L -14.65 5.35
Q -14.55 4.3 -14.45 3.4
L -14.5 3.4
Q -14.45 2.7 -14.45 2.05 -14.35 0.2 -14.2 -1.5 -14.1 -3.2 -14.05 -5 -14.05 -6.5 -13.75 -8.05 -13.65 -8.6 -13.55 -9.15 -13.55 -9.25 -13.55 -9.3 -13.55 -9.35 -13.5 -9.35
L -13.05 -13.1
Q -13.63984375 -11.5990234375 -14.55 -8.7 Z"/>
</g>

<g id="Duplicate_Items_Folder___1_0_Layer0_0_MEMBER_13_FILL">
<path fill="#196F55" fill-opacity="0.09803921568627451" stroke="none" d="
M -60.55 18.5
Q -60.6 18.85 -60.75 19.6 -60.9 20.35 -61.6 21.55 -62.3 22.8 -63.6 23.35 -64.9 23.9 -66.9 23.4 -68.9 22.95 -71 21.6 -70.95 21.9 -70.85 22.15 -70.7 22.7 -70.5 23.25 -70.1 24.15 -69.6 25 -69.25 25.65 -68.9 26.45 -68.8 26.75 -68.65 27.05
L -65.5 31.85 -60.15 38.4
Q -60.1 38.45 -60 38.55
L -59.95 38.6
Q -59.95 38.65 -59.9 38.7
L -59.85 38.75
Q -58.85 39.6 -57.5 42 -57.45 42.05 -57.4 42.1
L -57.35 42.15
Q -57.05 42.6 -56.75 43.05 -56.75 43.1 -56.65 43.2 -56.5 43.4 -56.3 43.65 -55.95 44.15 -55.6 44.7 -55.5 44.9 -55.4 45.1 -54.65 46.45 -53.85 47.8 -53.85 47.75 -53.85 47.7 -53.8 47.85 -53.65 48.1 -53.45 48.55 -52.9 49.7 -52.7 50.15 -52.5 50.65 -52.45 50.8 -52.4 50.95 -52.1 51.65 -51.8 52.35 -51.75 52.45 -51.65 52.6 -51.5 52.65 -51.3 52.75 -51.2 52.75 -51.15 52.7 -51.05 52.65 -51 52.55 -50.9 52.5 -50.8 52.45
L -50.8 52.5
Q -50.6 52.2 -50.4 51.9 -50.1 51.35 -49.8 50.85 -49.8 50.8 -49.8 50.75 -49.7 50.55 -49.6 50.35 -49.3 49.95 -49.3 49.5 -49.3 49.45 -49.25 49.4 -49.15 49.1 -49 48.8 -49 48.75 -49 48.7 -48.95 48.5 -48.9 48.35 -48.6 46.65 -48.5 44.95 -48.4 42.6 -48.6 40.3 -48.65 39.5 -48.8 38.75 -48.85 38.6 -48.85 38.45 -48.9 38.3 -48.9 38.15 -48.7 36.7 -50.55 33.15
L -50.75 32.7
Q -51.3 31.55 -51.85 30.45
L -59.5 19.9
Q -59.55 19.8 -59.6 19.75 -59.7 19.6 -59.75 19.5 -59.8 19.45 -59.85 19.4 -59.9 19.35 -59.9 19.4 -59.95 19.25 -60.05 19.15 -60.3 18.8 -60.55 18.5 Z"/>
</g>

<g id="Duplicate_Items_Folder___1_0_Layer0_0_MEMBER_14_FILL">
<path fill="#196F55" fill-opacity="0.09803921568627451" stroke="none" d="
M 21.85 21.85
Q 21.7 21.6 21.65 21.3 21.2 22.4 20.9 23.45 20.6 24.5 20.5 25.55 20.15 27.95 20.35 30.5 20.45 32.05 20.8 33.6 20.9 34.15 21.05 34.7 21.25 35.15 21.4 35.65
L 21.4 35.75
Q 22.7 38.7 24.4 41.45 24.95 42.35 25.6 43 27.1 44.5 28.85 45.55 28.85 45.6 29 45.55 29.25 44.2 29.15 43.05 29.1 42.05 29.2 41.1
L 29.2 34.3
Q 29.35 31.85 30 29.7 30.35 28.65 30.65 27.55 31.6 25.3 32.9 23.45 34.1 21.85 34.95 20.15 36 18.1 36.7 16.25 37.35 14.45 37.8 12.5 35.9 14.05 34.35 15.85 31.85 19.35 30.35 20.85 27.45 23.6 24.35 23.25 22.65 23.25 21.85 21.85 Z"/>
</g>

<g id="Duplicate_Items_Folder___1_0_Layer0_0_MEMBER_15_MEMBER_0_FILL">
<path fill="#FFD50B" stroke="none" d="
M -2.15 35.6
L -2.15 24.55 -40.05 24.55 -40.05 35.6
Q -40.05 43.4 -34.55 48.85 -33.0619140625 50.324609375 -31.4 51.4
L -10.75 51.4
Q -9.0880859375 50.324609375 -7.6 48.85 -2.15 43.4 -2.15 35.6 Z"/>
</g>

<g id="Duplicate_Items_Folder___1_0_Layer0_0_MEMBER_15_MEMBER_1_FILL">
<path fill="#FFAC00" stroke="none" d="
M 0.15 25.65
Q 1.3 24.55 1.3 22.95
L 1.3 22 1.25 22
Q 1.168359375 20.6626953125 0.15 19.6 -0.95 18.5 -2.55 18.5
L -39.65 18.5
Q -41.2 18.5 -42.4 19.6 -43.37421875 20.6626953125 -43.5 22
L -43.5 22 -43.5 22.95
Q -43.5 24.55 -42.4 25.65 -41.2 26.8 -39.65 26.8
L -2.55 26.8
Q -0.95 26.8 0.15 25.65 Z"/>
</g>

<g id="Duplicate_Items_Folder___1_0_Layer0_0_MEMBER_15_MEMBER_2_FILL">
<path fill="#FFC000" stroke="none" d="
M -82.1 44
Q -82.1 42.25 -83.35 41 -84.6 39.75 -86.35 39.75 -88.15 39.75 -89.4 41 -90.65 42.25 -90.65 44 -90.65 45.8 -89.4 47.05 -88.15 48.3 -86.35 48.3 -84.6 48.3 -83.35 47.05 -82.1 45.8 -82.1 44
M -91.65 30.2
Q -92.9 28.95 -94.65 28.95 -96.45 28.95 -97.7 30.2 -98.95 31.45 -98.95 33.2 -98.95 35 -97.7 36.25 -96.45 37.5 -94.65 37.5 -92.9 37.5 -91.65 36.25 -90.4 35 -90.4 33.2 -90.4 31.45 -91.65 30.2
M -102.95 39.75
Q -104.75 39.75 -106 41 -107.25 42.25 -107.25 44 -107.25 45.8 -106 47.05 -104.75 48.3 -102.95 48.3 -101.2 48.3 -99.95 47.05 -98.7 45.8 -98.7 44 -98.7 42.25 -99.95 41 -101.2 39.75 -102.95 39.75
M -108.25 36.25
Q -107 35 -107 33.2 -107 31.45 -108.25 30.2 -109.5 28.95 -111.25 28.95 -112.573828125 28.95 -113.6 29.6
L -113.6 34.5
Q -113.6 35.7349609375 -113.45 36.9 -112.4857421875 37.5 -111.25 37.5 -109.5 37.5 -108.25 36.25
M -75.7 34.5
L -75.7 29.6
Q -76.715234375 28.95 -78 28.95 -79.8 28.95 -81.05 30.2 -82.3 31.45 -82.3 33.2 -82.3 35 -81.05 36.25 -79.8 37.5 -78 37.5 -76.801171875 37.5 -75.85 36.9 -75.7 35.736328125 -75.7 34.5 Z"/>
</g>

<g id="Duplicate_Items_Folder___1_0_Layer0_0_MEMBER_15_MEMBER_3_FILL">
<path fill="#FFCA2D" stroke="none" d="
M -31.4 23.05
Q -31.4 22.2 -32.05 21.55 -32.65 20.95 -33.5 20.95 -34.35 20.95 -35 21.55 -35.6 22.2 -35.6 23.05 -35.6 23.9 -35 24.5 -34.35 25.15 -33.5 25.15 -32.65 25.15 -32.05 24.5 -31.4 23.9 -31.4 23.05 Z"/>
</g>

<g id="Duplicate_Items_Folder___1_0_Layer0_0_MEMBER_15_MEMBER_5_FILL">
<path fill="#994D09" fill-opacity="0.09803921568627451" stroke="none" d="
M -44.35 60.6
Q -43.05 60.45 -42.1 59.45 -40.95 58.35 -40.95 56.75
L -40.95 55.8
Q -41.1 54.45 -42.1 53.4 -43.2 52.3 -44.8 52.3
L -49.05 52.3
Q -48.95 53.4 -48.95 54.9 -48.95 58.25 -49.65 60.6
L -49.5 65.15
Q -49.6 70.4 -50.8 74.05 -52.55 79.25 -55.9 82.45 -56.9 83.4 -57.7 84.1
L -52.95 84.1
Q -51.3 83 -49.8 81.55 -44.35 76.1 -44.35 68.3
L -44.35 60.6 Z"/>
</g>

<path id="Duplicate_Items_Folder___1_0_Layer1_0_MEMBER_0_1_STROKES" stroke="#FFFFFF" stroke-width="8" stroke-linejoin="round" stroke-linecap="round" fill="none" d="
M -10.85 -28.6
L -12 -26.4
Q -11.4 -31.95 -13.6 -37.1 -15.95 -42.6 -20.6 -46.3 -21.15 -46.8 -21.65 -47.3
L -22.55 -47.2
Q -19.4 -38.7 -21.75 -29.85 -23.9 -21.95 -25.85 -14.05 -26.4 -11.85 -27.3 -9.75 -31.25 -15 -34.4 -20.6 -38.05 -26.95 -40.35 -33.95 -43.35 -29.6 -44.1 -24.3 -45.05 -17.9 -42.4 -12.15 -40.7 -8.35 -38.9 -4.7 -37.3 -1.5 -36.1 1.5 -35.15 4 -34.7 6.65 -38.1 0.05 -41.15 -6.55
L -41.7 -6.7
Q -44.9 -0.75 -44.55 5.9 -44.15 12.65 -40.6 18.65 -44.3 20.85 -42.6 24.6 -41.85 26.15 -40 26.8 -39.7 31.75 -39.2 36.75 -38.3 45.4 -31.35 50.3
L -10.7 50.3
Q -6.2 47.55 -3.85 42.8 -1.15 37.35 -1.8 31.15 -2.05 28.95 -2.1 26.8 1.5 25.8 0.6 22.35 -0.25 18.95 -4 18.5 -2.3 12.95 0.75 8.15 4.6 2.1 4.25 -5.05 4 -10.85 1.35 -16.05 0.25 -18.25 -1.1 -20.25
L -1.85 -20.2
Q -2.2 -14.7 -3.45 -9.45 -4.3 -6 -5.7 -2.85
L -3.05 -24.75
Q -1.75 -31.2 1.1 -37.1 -6.9 -36.75 -10.85 -28.6 Z"/>

<path id="Duplicate_Items_Folder___1_0_Layer0_0_MEMBER_15_MEMBER_4_1_STROKES" stroke="#FFF0A7" stroke-width="3" stroke-linejoin="miter" stroke-linecap="round" stroke-miterlimit="3" fill="none" d="
M -36.35 29.05
Q -36.529296875 32.5015625 -36.35 35.35 -36.3236328125 35.73046875 -36.3 36.1
M -35.725 39.9
Q -35.63359375 40.3357421875 -35.525 40.75"/>
</defs>

<g transform="matrix( 1, 0, 0, 0.999603271484375, 65,60) ">
<g transform="matrix( 1, 0, 0, 1, 0,0) ">
<use xlink:href="#icon_r_box_02_31_Layer3_0_FILL"/>
</g>

<g transform="matrix( 1, 0, 0, 1, -0.05,0.05) ">
<use xlink:href="#icon_r_box_02_31_Layer3_1_FILL"/>
</g>

<g transform="matrix( 1, 0, 0, 1, 0,-2.15) ">
<use xlink:href="#icon_r_box_02_31_Layer3_2_FILL"/>
</g>

<g transform="matrix( 1, 0, 0, 1, 0,0.05) ">
<use xlink:href="#icon_r_box_02_31_Layer3_3_FILL"/>
</g>

<g filter="url(#Filter_1)" transform="matrix( 0.9999847412109375, 0, 0, 1.000396728515625, -65,-60) ">
<g transform="matrix( 0.75, 0, 0, 0.74969482421875, 64.7,41.2) ">
<g transform="matrix( 1, 0, 0, 1, 20.15,-1.5) ">
<use xlink:href="#Duplicate_Items_Folder___1_0_Layer1_0_MEMBER_0_FILL"/>

<use xlink:href="#Duplicate_Items_Folder___1_0_Layer1_0_MEMBER_0_1_STROKES"/>
</g>

<g transform="matrix( 1, 0, 0, 1, 20.25,-1.4) ">
<use xlink:href="#Duplicate_Items_Folder___1_0_Layer0_0_MEMBER_0_FILL"/>
</g>

<g transform="matrix( 1, 0, 0, 1, 93.25,6.4) ">
<use xlink:href="#Duplicate_Items_Folder___1_0_Layer0_0_MEMBER_1_FILL"/>
</g>

<g transform="matrix( 1, 0, 0, 1, 48.8,-45.05) ">
<use xlink:href="#Duplicate_Items_Folder___1_0_Layer0_0_MEMBER_2_FILL"/>
</g>

<g transform="matrix( 1, 0, 0, 1, 20.25,-1.4) ">
<use xlink:href="#Duplicate_Items_Folder___1_0_Layer0_0_MEMBER_3_FILL"/>
</g>

<g transform="matrix( 1, 0, 0, 1, 142.6,2.65) ">
<use xlink:href="#Duplicate_Items_Folder___1_0_Layer0_0_MEMBER_4_FILL"/>
</g>

<g transform="matrix( 1, 0, 0, 1, -18.2,-17.25) ">
<use xlink:href="#Duplicate_Items_Folder___1_0_Layer0_0_MEMBER_5_FILL"/>
</g>

<g transform="matrix( 1, 0, 0, 1, 20.25,-1.4) ">
<use xlink:href="#Duplicate_Items_Folder___1_0_Layer0_0_MEMBER_6_FILL"/>
</g>

<g transform="matrix( 1, 0, 0, 1, 50,-1.4) ">
<use xlink:href="#Duplicate_Items_Folder___1_0_Layer0_0_MEMBER_7_FILL"/>
</g>

<g transform="matrix( 1, 0, 0, 1, 20.25,-0.75) ">
<use xlink:href="#Duplicate_Items_Folder___1_0_Layer0_0_MEMBER_8_FILL"/>
</g>

<g transform="matrix( 1, 0, 0, 1, 20.25,-1.4) ">
<use xlink:href="#Duplicate_Items_Folder___1_0_Layer0_0_MEMBER_9_FILL"/>
</g>

<g transform="matrix( 1, 0, 0, 1, 20.25,-1.4) ">
<use xlink:href="#Duplicate_Items_Folder___1_0_Layer0_0_MEMBER_10_FILL"/>
</g>

<g transform="matrix( 1, 0, 0, 1, -2.85,-4.6) ">
<use xlink:href="#Duplicate_Items_Folder___1_0_Layer0_0_MEMBER_11_FILL"/>
</g>

<g transform="matrix( 1, 0, 0, 1, 20.25,-1.4) ">
<use xlink:href="#Duplicate_Items_Folder___1_0_Layer0_0_MEMBER_12_FILL"/>
</g>

<g transform="matrix( 1, 0, 0, 1, 47.75,-10.55) ">
<use xlink:href="#Duplicate_Items_Folder___1_0_Layer0_0_MEMBER_13_FILL"/>
</g>

<g transform="matrix( 1, 0, 0, 1, -13.6,-13.15) ">
<use xlink:href="#Duplicate_Items_Folder___1_0_Layer0_0_MEMBER_14_FILL"/>
</g>

<g transform="matrix( 1, 0, 0, 1, 20.3,-2.5) ">
<use xlink:href="#Duplicate_Items_Folder___1_0_Layer0_0_MEMBER_15_MEMBER_0_FILL"/>
</g>

<g transform="matrix( 1, 0, 0, 1, 20.25,-1.4) ">
<use xlink:href="#Duplicate_Items_Folder___1_0_Layer0_0_MEMBER_15_MEMBER_1_FILL"/>
</g>

<g transform="matrix( 1, 0, 0, 1, 93.85,-1.55) ">
<use xlink:href="#Duplicate_Items_Folder___1_0_Layer0_0_MEMBER_15_MEMBER_2_FILL"/>
</g>

<g transform="matrix( 0.899993896484375, 0, 0, 0.899993896484375, 10.65,-0.3) ">
<use xlink:href="#Duplicate_Items_Folder___1_0_Layer0_0_MEMBER_15_MEMBER_3_FILL"/>
</g>

<g transform="matrix( 1, 0, 0, 1, 20.25,-1.4) ">
<use xlink:href="#Duplicate_Items_Folder___1_0_Layer0_0_MEMBER_15_MEMBER_4_1_STROKES"/>
</g>

<g transform="matrix( 1, 0, 0, 1, 62.5,-35.25) ">
<use xlink:href="#Duplicate_Items_Folder___1_0_Layer0_0_MEMBER_15_MEMBER_5_FILL"/>
</g>
</g>
</g>
</g>
</svg>
