
<svg xmlns="http://www.w3.org/2000/svg" version="1.1" xmlns:xlink="http://www.w3.org/1999/xlink" preserveAspectRatio="none" x="0px" y="0px" width="130px" height="115px" viewBox="0 0 130 115">
<defs>
<filter id="Filter_1" x="-23.579231786203277%" y="-23.787912178964355%" width="147.15846357240656%" height="147.5758243579287%" color-interpolation-filters="sRGB">
<feFlood flood-color="#000000" flood-opacity="1" in="SourceGraphic" result="result1"/>

<feGaussianBlur in="SourceGraphic" stdDeviation="1.6666666666666667,1.6666666666666667" result="result2"/>

<feComposite in2="result2" in="result1" operator="in" result="result3"/>

<feComposite in2="result3" in="SourceGraphic" operator="over" result="result4"/>
</filter>

<g id="icon_r_box_02_24_Layer3_0_FILL">
<path fill="#FFFFFF" fill-opacity="0" stroke="none" d="
M 65 -55
L -65 -55 -65 25 65 25 65 -55 Z"/>
</g>

<g id="icon_r_box_02_24_Layer3_1_FILL">
<path fill="#FFFFFF" fill-opacity="0" stroke="none" d="
M 65.05 49.95
L 65.05 24.95 -64.95 24.95 -64.95 49.95 65.05 49.95 Z"/>
</g>

<g id="icon_r_box_02_24_Layer3_2_FILL">
<path fill="#FFFFFF" fill-opacity="0" stroke="none" d="
M 65 -52.85
L 65 -57.85 -65 -57.85 -65 -52.85 65 -52.85 Z"/>
</g>

<g id="icon_r_box_02_24_Layer3_3_FILL">
<path fill="#FFFFFF" fill-opacity="0" stroke="none" d="
M 65 54.95
L 65 49.95 -65 49.95 -65 54.95 65 54.95 Z"/>
</g>

<g id="Duplicate_Items_Folder_____0_Layer1_0_FILL">
<path fill="#FFFFFF" stroke="none" d="
M 18.6 -5.15
Q 17.55 -4.1 17.55 -2.65
L 17.55 23.65
Q 17.55 25.1 18.6 26.15 19.6 27.15 21.05 27.15
L 21.1 27.15
Q 22.55 27.15 23.6 26.15 24.6 25.1 24.6 23.65
L 24.6 -2.65
Q 24.6 -4.1 23.6 -5.15 22.55 -6.15 21.1 -6.15
L 21.05 -6.15
Q 19.6 -6.15 18.6 -5.15
M -21.15 -6.15
Q -22.6 -6.15 -23.65 -5.15 -24.65 -4.1 -24.65 -2.65
L -24.65 23.65
Q -24.65 25.1 -23.65 26.15 -22.6 27.15 -21.15 27.15
L -21.1 27.15
Q -19.65 27.15 -18.65 26.15 -17.6 25.1 -17.6 23.65
L -17.6 -2.65
Q -17.6 -4.1 -18.65 -5.15 -19.65 -6.15 -21.1 -6.15
L -21.15 -6.15
M -24.35 -29.85
Q -25.7947265625 -28.3658203125 -25.8 -26.3 -25.7970703125 -25.1384765625 -25.35 -24.2 -31.4560546875 -16.0748046875 -31.45 -5.5
L -31.45 -2.1
Q -34.323828125 -1.1658203125 -36.65 1.1 -40.45 4.95 -40.45 10.45 -40.45 15.9 -36.65 19.75 -32.8 23.55 -27.45 23.6
L -27.45 -5.5
Q -27.444140625 -14.55078125 -22.3 -21.55 -21.5861328125 -21.301953125 -20.8 -21.3 -18.7341796875 -21.3052734375 -17.3 -22.8 -10.174609375 -29.86484375 0 -29.85 10.127734375 -29.86171875 17.2 -22.8 18.6841796875 -21.3052734375 20.75 -21.3 21.5359375 -21.301953125 22.2 -21.55 27.394140625 -14.5505859375 27.4 -5.5
L 27.4 29.4
Q 27.4001953125 35.95 20.85 35.95
L 8.05 35.95
Q 7.97421875 35.9505859375 7.9 35.95 7.6958984375 35.3458984375 7.2 34.85 6.4 34.05 5.2 34.05
L 0.95 34.05
Q -0.25 34.05 -1.1 34.85 -1.9 35.7 -1.9 36.9
L -1.9 36.95
Q -1.9 38.15 -1.1 38.95 -0.25 39.8 0.95 39.8
L 5.2 39.8
Q 6.4 39.8 7.2 38.95 7.6732421875 38.5046875 7.85 37.9 7.9638671875 37.94921875 8.05 37.95
L 20.85 37.95
Q 29.4 37.95 29.4 29.4
L 29.4 23.4
Q 33.4896484375 22.819921875 36.6 19.75 40.4 15.9 40.4 10.45 40.4 4.95 36.6 1.1 33.4896484375 -1.9296875 29.4 -2.55
L 31.4 -2.55 31.4 -5.5
Q 31.405859375 -16.0748046875 25.25 -24.2 25.7470703125 -25.1384765625 25.75 -26.3 25.7447265625 -28.3658203125 24.25 -29.85 14.272265625 -39.83828125 0 -39.85 -14.325390625 -39.83515625 -24.35 -29.85 Z"/>
</g>

<g id="Duplicate_Items_Folder_____0_Layer0_0_FILL">
<path fill="#000000" stroke="none" d="
M -36.9 19.55
Q -33.0537109375 23.346875 -27.7 23.4
L -27.7 -2.9
Q -33.0537109375 -2.84765625 -36.9 0.9 -40.7 4.75 -40.7 10.25 -40.7 15.7 -36.9 19.55 Z"/>
</g>

<g id="Duplicate_Items_Folder_____0_Layer0_1_FILL">
<path fill="#000000" stroke="none" d="
M -13.2 -19.5
L -13.25 -19.5
Q -15.25 -19.5 -16.65 -18.1 -18.05 -16.7 -18.05 -14.7
L -18.05 21.4
Q -18.05 23.4 -16.65 24.8 -15.25 26.2 -13.25 26.2
L -13.2 26.2
Q -11.2 26.2 -9.8 24.8 -8.4 23.4 -8.4 21.4
L -8.4 -14.7
Q -8.4 -16.7 -9.8 -18.1 -11.2 -19.5 -13.2 -19.5 Z"/>
</g>

<g id="Duplicate_Items_Folder_____0_Layer0_3_FILL">
<path fill="#000000" stroke="none" d="
M -36.9 19.55
Q -33.0537109375 23.346875 -27.7 23.4
L -27.7 -2.9
Q -33.0537109375 -2.84765625 -36.9 0.9 -40.7 4.75 -40.7 10.25 -40.7 15.7 -36.9 19.55 Z"/>
</g>

<g id="Duplicate_Items_Folder_____0_Layer0_4_FILL">
<path fill="#000000" stroke="none" d="
M -13.2 -19.5
L -13.25 -19.5
Q -15.25 -19.5 -16.65 -18.1 -18.05 -16.7 -18.05 -14.7
L -18.05 21.4
Q -18.05 23.4 -16.65 24.8 -15.25 26.2 -13.25 26.2
L -13.2 26.2
Q -11.2 26.2 -9.8 24.8 -8.4 23.4 -8.4 21.4
L -8.4 -14.7
Q -8.4 -16.7 -9.8 -18.1 -11.2 -19.5 -13.2 -19.5 Z"/>
</g>

<g id="Duplicate_Items_Folder_____0_Layer0_7_FILL">
<path fill="#000000" stroke="none" d="
M 6.85 34.3
L 2.6 34.3
Q 1.4 34.3 0.55 35.1 -0.25 35.95 -0.25 37.15
L -0.25 37.2
Q -0.25 38.4 0.55 39.2 1.4 40.05 2.6 40.05
L 6.85 40.05
Q 8.05 40.05 8.85 39.2 9.7 38.4 9.7 37.2
L 9.7 37.15
Q 9.7 35.95 8.85 35.1 8.05 34.3 6.85 34.3 Z"/>
</g>

<path id="Duplicate_Items_Folder_____0_Layer1_0_1_STROKES" stroke="#FFFFFF" stroke-width="8" stroke-linejoin="miter" stroke-linecap="square" stroke-miterlimit="3" fill="none" d="
M -34.81738815307617 18.762439727783203
Q -38.42737655639649 15.104951477050781 -38.42737655639649 9.927468109130858 -38.42737655639649 4.702484893798828 -34.81738815307617 1.0449966430664064 -32.607531970739366 -1.1075257390737534 -29.877404022216798 -1.9712436676025393
L -29.877404022216798 -5.224983215332031
Q -29.883155956864357 -15.271015396714208 -24.0586727142334 -22.966176223754882 -24.507138070464134 -23.881476017832757 -24.509921264648437 -24.98491973876953 -24.504911515116692 -26.94744273126125 -23.10867576599121 -28.333658981323243 -13.609077376127244 -37.8432768702507 0 -37.85737838745117 13.558608788251876 -37.84624561071396 23.0611759185791 -28.333658981323243 24.45741166770458 -26.94744273126125 24.462421417236328 -24.98491973876953 24.459638223052025 -23.881476017832757 24.011172866821287 -22.966176223754882 29.835470563173292 -15.271015396714208 29.829904174804685 -5.224983215332031
L 29.829904174804685 -2.422492218017578 27.92991027832031 -2.422492218017578
Q 31.815063813328745 -1.8331972360610962 34.76988830566406 1.0449966430664064 38.379876708984376 4.702484893798828 38.379876708984376 9.927468109130858 38.379876708984376 15.104951477050781 34.76988830566406 18.762439727783203 31.815063813328745 21.678856140375135 27.92991027832031 22.25367851257324
L 27.92991027832031 27.92991027832031
Q 27.92991027832031 36.05238418579102 19.80743637084961 36.05238418579102
L 7.64747543334961 36.05238418579102
Q 7.565649524331093 36.0516420006752 7.481225967407227 36.02863426208496 7.289556661248207 36.57933561801911 6.83997802734375 37.00238113403321 6.0799804687500005 37.80987854003906 4.939984130859375 37.80987854003906
L 0.9024971008300781 37.80987854003906
Q -0.23749923706054688 37.80987854003906 -1.0449966430664064 37.00238113403321 -1.8049942016601561 36.242383575439455 -1.8049942016601561 35.10238723754883
L -1.8049942016601561 35.05488739013672
Q -1.8049942016601561 33.9148910522461 -1.0449966430664064 33.10739364624023 -0.23749923706054688 32.34739608764648 0.9024971008300781 32.34739608764648
L 4.939984130859375 32.34739608764648
Q 6.0799804687500005 32.34739608764648 6.83997802734375 33.10739364624023 7.31108002960682 33.5784956485033 7.504975891113282 34.152390289306645 7.575483477115632 34.1529469281435 7.64747543334961 34.152390289306645
L 19.80743637084961 34.152390289306645
Q 26.03010192811489 34.152390289306645 26.029916381835935 27.92991027832031
L 26.029916381835935 -5.224983215332031
Q 26.02434999346733 -13.823012235760688 21.11368217468262 -20.448684310913084 20.459074902534486 -20.23679046034813 19.71243667602539 -20.234934997558593 17.749913683533666 -20.239944747090338 16.363697433471682 -21.636180496215818 9.621316748857497 -28.368541681766512 0 -28.3574089050293 -9.66584785580635 -28.371510422229765 -16.411197280883787 -21.636180496215818 -17.79741353094578 -20.239944747090338 -19.7599365234375 -20.234934997558593 -20.506760296225547 -20.23679046034813 -21.161182022094724 -20.448684310913084 -26.07184984087944 -13.823197782039642 -26.077416229248048 -5.224983215332031
L -26.077416229248048 22.419927978515627
Q -31.159899902343746 22.372428131103515 -34.81738815307617 18.762439727783203 Z
M -20.092435455322263 -5.842481231689454
L -20.04493560791016 -5.842481231689454
Q -18.667440032958982 -5.842481231689454 -17.717443084716795 -4.892484283447266 -16.719946289062502 -3.894987487792968 -16.719946289062502 -2.517491912841797
L -16.719946289062502 22.467427825927732
Q -16.719946289062502 23.84492340087891 -17.717443084716795 24.8424201965332 -18.667440032958982 25.79241714477539 -20.04493560791016 25.79241714477539
L -20.092435455322263 25.79241714477539
Q -21.46993103027344 25.79241714477539 -22.467427825927732 24.8424201965332 -23.41742477416992 23.84492340087891 -23.41742477416992 22.467427825927732
L -23.41742477416992 -2.517491912841797
Q -23.41742477416992 -3.894987487792968 -22.467427825927732 -4.892484283447266 -21.46993103027344 -5.842481231689454 -20.092435455322263 -5.842481231689454 Z
M 20.04493560791016 -5.842481231689454
L 19.997435760498046 -5.842481231689454
Q 18.619940185546877 -5.842481231689454 17.66994323730469 -4.892484283447266 16.67244644165039 -3.894987487792968 16.67244644165039 -2.517491912841797
L 16.67244644165039 22.467427825927732
Q 16.67244644165039 23.84492340087891 17.66994323730469 24.8424201965332 18.619940185546877 25.79241714477539 19.997435760498046 25.79241714477539
L 20.04493560791016 25.79241714477539
Q 21.422431182861327 25.79241714477539 22.419927978515627 24.8424201965332 23.369924926757815 23.84492340087891 23.369924926757815 22.467427825927732
L 23.369924926757815 -2.517491912841797
Q 23.369924926757815 -3.894987487792968 22.419927978515627 -4.892484283447266 21.422431182861327 -5.842481231689454 20.04493560791016 -5.842481231689454 Z"/>

<path id="Duplicate_Items_Folder_____0_Layer0_2_1_STROKES" stroke="#000000" stroke-width="4" stroke-linejoin="round" stroke-linecap="butt" fill="none" d="
M -27.925330352783202 -0.8519195556640629
L -27.925330352783202 -5.216615295410156
Q -27.925330352783202 -16.76709060668945 -19.728218841552735 -24.964202117919918 -11.584335327148438 -33.10808563232421 0.01936798095703124 -33.10808563232421 11.623071289062498 -33.10808563232421 19.7669548034668 -24.964202117919918 27.964066314697266 -16.76709060668945 27.964066314697266 -5.216615295410156
L 27.964066314697266 -0.8519195556640629"/>

<path id="Duplicate_Items_Folder_____0_Layer0_5_1_STROKES" stroke="#000000" stroke-width="10" stroke-linejoin="round" stroke-linecap="round" fill="none" d="
M -19.7599365234375 -25.02491912841797
Q -11.637462615966797 -33.14739303588867 0 -33.14739303588867 11.589962768554686 -33.14739303588867 19.71243667602539 -25.02491912841797"/>

<path id="Duplicate_Items_Folder_____0_Layer0_6_1_STROKES" stroke="#000000" stroke-width="2" stroke-linejoin="round" stroke-linecap="round" fill="none" d="
M 26.979913330078123 17.86744613647461
L 26.979913330078123 27.88991394042969
Q 26.979913330078123 35.062390899658205 19.80743637084961 35.062390899658205
L 6.459979248046875 35.062390899658205
Q 6.0799804687500005 35.062390899658205 5.7474815368652346 35.062390899658205"/>
</defs>

<g transform="matrix( 1, 0, 0, 0.999603271484375, 65,60) ">
<g transform="matrix( 1, 0, 0, 1, 0,0) ">
<use xlink:href="#icon_r_box_02_24_Layer3_0_FILL"/>
</g>

<g transform="matrix( 1, 0, 0, 1, -0.05,0.05) ">
<use xlink:href="#icon_r_box_02_24_Layer3_1_FILL"/>
</g>

<g transform="matrix( 1, 0, 0, 1, 0,-2.15) ">
<use xlink:href="#icon_r_box_02_24_Layer3_2_FILL"/>
</g>

<g transform="matrix( 1, 0, 0, 1, 0,0.05) ">
<use xlink:href="#icon_r_box_02_24_Layer3_3_FILL"/>
</g>

<g filter="url(#Filter_1)" transform="matrix( 0.9999847412109375, 0, 0, 1.000396728515625, -65,-60) ">
<g transform="matrix( 0.75, 0, 0, 0.74969482421875, 65,40.8) ">
<g transform="matrix( 0.9499969482421875, 0, 0, 0.9499969482421875, 0,0) ">
<use xlink:href="#Duplicate_Items_Folder_____0_Layer1_0_FILL"/>

<use xlink:href="#Duplicate_Items_Folder_____0_Layer1_0_1_STROKES" transform="matrix( 1.0526275634765625, 0, 0, 1.0526275634765625, 0,0) "/>
</g>

<g transform="matrix( 0.9499969482421875, 0, 0, 0.9499969482421875, 0.2,0.15) ">
<use xlink:href="#Duplicate_Items_Folder_____0_Layer0_0_FILL"/>
</g>

<g transform="matrix( 0.6925048828125, 0, 0, 0.6925048828125, -10.9,7.6) ">
<use xlink:href="#Duplicate_Items_Folder_____0_Layer0_1_FILL"/>
</g>

<g transform="matrix( 1.0645599365234375, 0, 0, 1.0645599365234375, -0.3,6.6) ">
<use xlink:href="#Duplicate_Items_Folder_____0_Layer0_2_1_STROKES" transform="matrix( 0.9393463134765625, 0, 0, 0.9393463134765625, 0.25,-6.15) "/>
</g>

<g transform="matrix( -0.9499969482421875, 0, 0, 0.9499969482421875, -0.25,0.15) ">
<use xlink:href="#Duplicate_Items_Folder_____0_Layer0_3_FILL"/>
</g>

<g transform="matrix( -0.6925048828125, 0, 0, 0.6925048828125, 10.85,7.6) ">
<use xlink:href="#Duplicate_Items_Folder_____0_Layer0_4_FILL"/>
</g>

<g transform="matrix( 0.9499969482421875, 0, 0, 0.9499969482421875, 0,0.15) ">
<use xlink:href="#Duplicate_Items_Folder_____0_Layer0_5_1_STROKES" transform="matrix( 1.0526275634765625, 0, 0, 1.0526275634765625, 0,-0.15) "/>
</g>

<g transform="matrix( 0.9499969482421875, 0, 0, 0.9499969482421875, 0,1.1) ">
<use xlink:href="#Duplicate_Items_Folder_____0_Layer0_6_1_STROKES" transform="matrix( 1.0526275634765625, 0, 0, 1.0526275634765625, 0,-1.15) "/>
</g>

<g transform="matrix( 0.9499969482421875, 0, 0, 0.9499969482421875, -1.55,-0.2) ">
<use xlink:href="#Duplicate_Items_Folder_____0_Layer0_7_FILL"/>
</g>
</g>
</g>
</g>
</svg>
