
<svg xmlns="http://www.w3.org/2000/svg" version="1.1" xmlns:xlink="http://www.w3.org/1999/xlink" preserveAspectRatio="none" x="0px" y="0px" width="130px" height="115px" viewBox="0 0 130 115">
<defs>
<g id="icon_r_box_02_32_Layer3_0_FILL">
<path fill="#FFFFFF" fill-opacity="0" stroke="none" d="
M 65 -55
L -65 -55 -65 25 65 25 65 -55 Z"/>
</g>

<g id="icon_r_box_02_32_Layer3_1_FILL">
<path fill="#FFFFFF" fill-opacity="0" stroke="none" d="
M 65.05 49.95
L 65.05 24.95 -64.95 24.95 -64.95 49.95 65.05 49.95 Z"/>
</g>

<g id="icon_r_box_02_32_Layer3_2_FILL">
<path fill="#FFFFFF" fill-opacity="0" stroke="none" d="
M 65 -52.85
L 65 -57.85 -65 -57.85 -65 -52.85 65 -52.85 Z"/>
</g>

<g id="icon_r_box_02_32_Layer3_3_FILL">
<path fill="#FFFFFF" fill-opacity="0" stroke="none" d="
M 65 54.95
L 65 49.95 -65 49.95 -65 54.95 65 54.95 Z"/>
</g>

<g id="icon_r_box_02_32_Layer2_0_MEMBER_0_FILL">
<path fill="#C68C73" stroke="none" d="
M 74.6 51.7
L 74.6 46.4 8.75 46.4 8.75 51.7 74.6 51.7 Z"/>
</g>

<g id="icon_r_box_02_32_Layer2_0_MEMBER_1_FILL">
<path fill="#BAE6FF" stroke="none" d="
M 36.35 46.4
L 25.75 46.4 25.75 51.7 36.35 51.7 36.35 46.4 Z"/>
</g>

<g id="icon_r_box_02_32_Layer2_0_MEMBER_2_FILL">
<path fill="#BAE6FF" stroke="none" d="
M 48 51.7
L 48 46.4 37.35 46.4 37.35 51.7 48 51.7 Z"/>
</g>

<g id="icon_r_box_02_32_Layer2_0_MEMBER_3_FILL">
<path fill="#BAE6FF" stroke="none" d="
M 70.05 46.4
L 60.45 46.4 60.45 51.7 70.05 51.7 70.05 46.4 Z"/>
</g>

<g id="icon_r_box_02_32_Layer2_0_MEMBER_4_MEMBER_0_FILL">
<path fill="#E4B4A9" stroke="none" d="
M 76.35 46.4
L 76.35 15 7 15 7 46.4 76.35 46.4 Z"/>
</g>

<g id="icon_r_box_02_32_Layer2_0_MEMBER_4_MEMBER_1_FILL">
<path fill="#FFFFFF" stroke="none" d="
M 76.35 17.45
L 76.35 15 7 15 7 17.45 76.35 17.45 Z"/>
</g>

<g id="icon_r_box_02_32_Layer2_0_MEMBER_4_MEMBER_2_FILL">
<path fill="#FFFFFF" stroke="none" d="
M 76.35 46.4
L 76.35 43.95 7 43.95 7 46.4 76.35 46.4 Z"/>
</g>

<g id="icon_r_box_02_32_Layer2_0_MEMBER_4_MEMBER_3_FILL">
<path fill="#FFFFFF" stroke="none" d="
M 76.35 36.75
L 76.35 34.3 7 34.3 7 36.75 76.35 36.75 Z"/>
</g>

<g id="icon_r_box_02_32_Layer2_0_MEMBER_4_MEMBER_4_FILL">
<path fill="#FFFFFF" stroke="none" d="
M 76.35 27.1
L 76.35 24.65 7 24.65 7 27.1 76.35 27.1 Z"/>
</g>

<g id="icon_r_box_02_32_Layer2_0_MEMBER_5_FILL">
<path fill="#FFD350" stroke="none" d="
M 41.7 41.2
L 41.7 20.45 9.55 20.45 9.55 41.2 41.7 41.2 Z"/>
</g>

<g id="icon_r_box_02_32_Layer2_0_MEMBER_6_FILL">
<path fill="#E4B4A9" stroke="none" d="
M 73.2 15
L 73.2 10.4 67.1 10.4 67.1 15 73.2 15 Z"/>
</g>

<g id="icon_r_box_02_32_Layer2_0_MEMBER_7_FILL">
<path fill="#E4B4A9" stroke="none" d="
M 24 15
L 24 11.3 7 11.3 7 15 24 15 Z"/>
</g>

<g id="icon_r_box_02_32_Layer2_0_MEMBER_8_FILL">
<path fill="#FFD350" stroke="none" d="
M 22.25 11.3
L 22.25 0.5 8.75 0.5 8.75 11.3 22.25 11.3 Z"/>
</g>

<g id="icon_r_box_02_32_Layer2_0_MEMBER_10_FILL">
<path fill="#FFFFFF" stroke="none" d="
M 15.25 46.4
L 13.6 46.4 13.6 51.7 15.25 51.7 15.25 46.4 Z"/>
</g>

<g id="icon_r_box_02_32_Layer2_0_MEMBER_11_FILL">
<path fill="#FFFFFF" stroke="none" d="
M 26.55 46.4
L 24.9 46.4 24.9 51.7 26.55 51.7 26.55 46.4 Z"/>
</g>

<g id="icon_r_box_02_32_Layer2_0_MEMBER_12_FILL">
<path fill="#FFFFFF" stroke="none" d="
M 37.85 46.4
L 36.2 46.4 36.2 51.7 37.85 51.7 37.85 46.4 Z"/>
</g>

<g id="icon_r_box_02_32_Layer2_0_MEMBER_13_FILL">
<path fill="#FFFFFF" stroke="none" d="
M 49.15 46.4
L 47.5 46.4 47.5 51.7 49.15 51.7 49.15 46.4 Z"/>
</g>

<g id="icon_r_box_02_32_Layer2_0_MEMBER_14_FILL">
<path fill="#FFFFFF" stroke="none" d="
M 60.45 46.4
L 58.8 46.4 58.8 51.7 60.45 51.7 60.45 46.4 Z"/>
</g>

<g id="icon_r_box_02_32_Layer2_0_MEMBER_15_FILL">
<path fill="#FFFFFF" stroke="none" d="
M 71.75 46.4
L 70.05 46.4 70.05 51.7 71.75 51.7 71.75 46.4 Z"/>
</g>

<g id="icon_r_box_02_32_Layer2_0_MEMBER_16_MEMBER_0_MEMBER_0_FILL">
<path fill="#BAE6FF" stroke="none" d="
M 69.1 42
L 69.1 19.65 50.7 19.65 50.7 42 69.1 42 Z"/>
</g>

<g id="icon_r_box_02_32_Layer2_0_MEMBER_16_MEMBER_0_MEMBER_1_FILL">
<path fill="#FFFFFF" stroke="none" d="
M 62.1 42
L 67.5 19.95 65.8 19.95 60.35 42 62.1 42 Z"/>
</g>

<g id="icon_r_box_02_32_Layer2_0_MEMBER_16_MEMBER_0_MEMBER_2_FILL">
<path fill="#FFFFFF" stroke="none" d="
M 58.45 42
L 63.85 19.95 57.15 19.95 51.7 42 58.45 42 Z"/>
</g>

<g id="icon_r_box_02_32_Layer2_1_FILL">
<path fill="#FFFFFF" stroke="none" d="
M 18.95 5.9
Q 18.95 4.5 17.95 3.45 16.95 2.45 15.5 2.45 14.1 2.45 13.05 3.45 12.05 4.5 12.05 5.9 12.05 7.35 13.05 8.35 14.1 9.35 15.5 9.35 16.95 9.35 17.95 8.35 18.95 7.35 18.95 5.9 Z"/>
</g>

<g id="icon_r_box_02_32_Layer1_0_FILL">
<path fill="#000000" stroke="none" d="
M -14.9 -7.3
Q -14.9 -7.1 -14.85 -6.95 -14.8 -6.8 -14.7 -6.65 -14.6 -6.55 -14.45 -6.45 -14.35 -6.4 -14.2 -6.4
L -2.55 -6.4
Q -2.35 -6.4 -2.2 -6.45 -2.05 -6.55 -2 -6.65 -1.9 -6.8 -1.85 -6.95 -1.8 -7.1 -1.8 -7.3 -1.8 -7.45 -1.85 -7.6 -1.9 -7.75 -2 -7.9 -2.05 -8.05 -2.2 -8.1 -2.35 -8.15 -2.55 -8.15
L -14.2 -8.15
Q -14.35 -8.15 -14.45 -8.1 -14.6 -8.05 -14.7 -7.9 -14.8 -7.75 -14.85 -7.6 -14.9 -7.45 -14.9 -7.3
M -4.7 -15.5
Q -4.55 -15.5 -4.45 -15.55 -4.3 -15.6 -4.2 -15.75 -4.1 -15.85 -4.05 -16 -4 -16.1 -4 -16.3 -4 -16.45 -4.05 -16.6 -4.1 -16.75 -4.2 -16.9 -4.3 -17 -4.45 -17.1 -4.55 -17.15 -4.7 -17.15
L -11.2 -17.15
Q -11.65 -17.15 -11.95 -17.1 -12.25 -17 -12.45 -16.9 -12.7 -16.75 -12.8 -16.45 -12.9 -16.15 -12.9 -15.75
L -12.9 -12.2
Q -12.9 -12 -12.9 -11.8 -12.85 -11.65 -12.8 -11.5 -12.8 -11.3 -12.75 -11.15 -12.65 -11 -12.6 -10.9 -12.5 -10.75 -12.45 -10.65 -12.35 -10.5 -12.2 -10.45 -12.05 -10.35 -11.9 -10.25 -11.7 -10.15 -11.5 -10.1 -11.2 -10 -10.9 -9.95 -10.6 -9.85 -10.3 -9.8 -10 -9.75 -9.7 -9.75 -9.4 -9.7 -9.05 -9.7 -8.8 -9.65 -8.5 -9.65 -8.2 -9.65 -7.9 -9.65 -7.65 -9.7 -7.35 -9.7 -7.1 -9.7 -6.8 -9.75 -5.6 -9.8 -4.45 -10.1 -4.1 -10.2 -3.9 -10.4 -3.7 -10.6 -3.7 -10.9 -3.75 -11.15 -3.8 -11.35 -3.85 -11.5 -3.95 -11.65 -4.1 -11.75 -4.25 -11.75 -4.4 -11.8 -4.6 -11.75 -6.35 -11.4 -7.5 -11.35 -8.1 -11.3 -8.6 -11.35 -9.05 -11.35 -9.45 -11.4 -9.9 -11.4 -10.25 -11.5 -10.6 -11.6 -10.85 -11.75
L -10.85 -12.65 -5 -12.65
Q -4.5 -12.65 -4.4 -12.85 -4.35 -13 -4.35 -13.1 -4.3 -13.25 -4.3 -13.45 -4.3 -13.6 -4.35 -13.75 -4.35 -13.95 -4.4 -14.05 -4.45 -14.15 -4.6 -14.25 -4.75 -14.3 -5 -14.3
L -10.85 -14.3 -10.85 -15.5 -4.7 -15.5
M -17.3 -17.7
Q -17.3 -18.1 -17.6 -18.25 -17.75 -18.35 -17.95 -18.35 -18.1 -18.4 -18.3 -18.4 -18.65 -18.4 -18.95 -18.25 -19.25 -18.1 -19.25 -17.7
L -19.25 -5
Q -19.25 -4.8 -19.2 -4.65 -19.1 -4.5 -18.95 -4.45 -18.65 -4.3 -18.3 -4.3 -18.1 -4.3 -17.95 -4.35 -17.75 -4.35 -17.6 -4.45 -17.45 -4.5 -17.35 -4.65 -17.3 -4.8 -17.3 -5
L -17.3 -11.55 -15.8 -11.55
Q -15.35 -11.55 -15.2 -11.8 -15.15 -11.95 -15.15 -12.1 -15.1 -12.25 -15.1 -12.4 -15.1 -12.8 -15.2 -13.05 -15.3 -13.15 -15.45 -13.25 -15.6 -13.3 -15.8 -13.3
L -17.3 -13.3 -17.3 -17.7
M -27.75 -16
Q -27.8 -15.85 -27.8 -15.7
L -27.8 -10.05
Q -27.8 -9.75 -27.75 -9.5 -27.65 -9.3 -27.55 -9.1 -27.45 -8.95 -27.25 -8.8 -27.05 -8.7 -26.75 -8.55 -26.4 -8.45 -26.1 -8.35 -25.75 -8.3 -25.4 -8.25 -25.1 -8.2 -24.75 -8.2 -24.4 -8.2 -24.05 -8.2 -23.65 -8.25 -23.3 -8.3 -22.9 -8.4 -22.5 -8.55 -22.35 -8.65 -22.25 -8.7 -22.1 -8.8 -22 -8.85 -21.85 -8.9 -21.8 -9 -21.7 -9.05 -21.6 -9.15 -21.55 -9.25 -21.5 -9.35 -21.45 -9.45 -21.4 -9.55 -21.35 -9.65 -21.35 -9.75 -21.3 -9.9 -21.3 -10.05
L -21.3 -15.7
Q -21.3 -15.85 -21.35 -16 -21.4 -16.15 -21.45 -16.3 -21.55 -16.4 -21.65 -16.55 -21.75 -16.65 -21.85 -16.75 -22.1 -16.95 -22.35 -17.05 -22.55 -17.1 -22.65 -17.15 -22.8 -17.15 -22.95 -17.2
L -26.3 -17.2
Q -26.45 -17.15 -26.6 -17.15 -26.75 -17.1 -26.85 -17.05 -27 -17 -27.1 -16.95 -27.2 -16.85 -27.3 -16.75 -27.4 -16.65 -27.5 -16.55 -27.6 -16.4 -27.65 -16.3 -27.7 -16.15 -27.75 -16
M -25.75 -15.25
L -23.35 -15.25 -23.35 -10.4
Q -23.55 -10.25 -23.8 -10.2 -24 -10.1 -24.2 -10.1 -24.45 -10.1 -24.65 -10.1 -24.85 -10.1 -25 -10.15 -25.2 -10.15 -25.4 -10.2 -25.6 -10.3 -25.75 -10.4
L -25.75 -15.25 Z"/>
</g>

<path id="icon_r_box_02_32_Layer2_0_MEMBER_0_1_STROKES" stroke="#000000" stroke-width="1" stroke-linejoin="round" stroke-linecap="round" fill="none" d="
M 74.6 46.4
L 8.75 46.4 8.75 51.7 74.6 51.7 74.6 46.4 Z"/>

<path id="icon_r_box_02_32_Layer2_0_MEMBER_1_1_STROKES" stroke="#000000" stroke-width="1" stroke-linejoin="round" stroke-linecap="round" fill="none" d="
M 36.35 51.7
L 25.75 51.7 25.75 46.4 36.35 46.4 36.35 51.7 Z"/>

<path id="icon_r_box_02_32_Layer2_0_MEMBER_2_1_STROKES" stroke="#000000" stroke-width="1" stroke-linejoin="round" stroke-linecap="round" fill="none" d="
M 48 51.7
L 37.35 51.7 37.35 46.4 48 46.4 48 51.7 Z"/>

<path id="icon_r_box_02_32_Layer2_0_MEMBER_3_1_STROKES" stroke="#000000" stroke-width="1" stroke-linejoin="round" stroke-linecap="round" fill="none" d="
M 70.05 51.7
L 60.45 51.7 60.45 46.4 70.05 46.4 70.05 51.7 Z"/>

<path id="icon_r_box_02_32_Layer2_0_MEMBER_4_MEMBER_0_1_STROKES" stroke="#000000" stroke-width="1" stroke-linejoin="round" stroke-linecap="round" fill="none" d="
M 76.35 46.4
L 7 46.4 7 15 76.35 15 76.35 46.4 Z"/>

<path id="icon_r_box_02_32_Layer2_0_MEMBER_4_MEMBER_1_1_STROKES" stroke="#000000" stroke-width="1" stroke-linejoin="round" stroke-linecap="round" fill="none" d="
M 76.35 17.45
L 7 17.45 7 15 76.35 15 76.35 17.45 Z"/>

<path id="icon_r_box_02_32_Layer2_0_MEMBER_4_MEMBER_2_1_STROKES" stroke="#000000" stroke-width="1" stroke-linejoin="round" stroke-linecap="round" fill="none" d="
M 76.35 46.4
L 7 46.4 7 43.95 76.35 43.95 76.35 46.4 Z"/>

<path id="icon_r_box_02_32_Layer2_0_MEMBER_4_MEMBER_3_1_STROKES" stroke="#000000" stroke-width="1" stroke-linejoin="round" stroke-linecap="round" fill="none" d="
M 76.35 36.75
L 7 36.75 7 34.3 76.35 34.3 76.35 36.75 Z"/>

<path id="icon_r_box_02_32_Layer2_0_MEMBER_4_MEMBER_4_1_STROKES" stroke="#000000" stroke-width="1" stroke-linejoin="round" stroke-linecap="round" fill="none" d="
M 76.35 27.1
L 7 27.1 7 24.65 76.35 24.65 76.35 27.1 Z"/>

<path id="icon_r_box_02_32_Layer2_0_MEMBER_5_1_STROKES" stroke="#000000" stroke-width="1" stroke-linejoin="round" stroke-linecap="round" fill="none" d="
M 41.7 41.2
L 9.55 41.2 9.55 20.45 41.7 20.45 41.7 41.2 Z"/>

<path id="icon_r_box_02_32_Layer2_0_MEMBER_6_1_STROKES" stroke="#000000" stroke-width="1" stroke-linejoin="round" stroke-linecap="round" fill="none" d="
M 73.2 15
L 67.1 15 67.1 10.4 73.2 10.4 73.2 15 Z"/>

<path id="icon_r_box_02_32_Layer2_0_MEMBER_7_1_STROKES" stroke="#000000" stroke-width="1" stroke-linejoin="round" stroke-linecap="round" fill="none" d="
M 24 15
L 7 15 7 11.3 24 11.3 24 15 Z"/>

<path id="icon_r_box_02_32_Layer2_0_MEMBER_8_1_STROKES" stroke="#000000" stroke-width="1" stroke-linejoin="round" stroke-linecap="round" fill="none" d="
M 22.25 11.3
L 8.75 11.3 8.75 0.5 22.25 0.5 22.25 11.3 Z"/>

<path id="icon_r_box_02_32_Layer2_0_MEMBER_9_MEMBER_0_1_STROKES" stroke="#000000" stroke-width="1" stroke-linejoin="round" stroke-linecap="round" fill="none" d="
M 0.5 51.7
L 81.35 51.7"/>

<path id="icon_r_box_02_32_Layer2_0_MEMBER_10_1_STROKES" stroke="#000000" stroke-width="1" stroke-linejoin="round" stroke-linecap="round" fill="none" d="
M 15.25 51.7
L 13.6 51.7 13.6 46.4 15.25 46.4 15.25 51.7 Z"/>

<path id="icon_r_box_02_32_Layer2_0_MEMBER_11_1_STROKES" stroke="#000000" stroke-width="1" stroke-linejoin="round" stroke-linecap="round" fill="none" d="
M 26.55 51.7
L 24.9 51.7 24.9 46.4 26.55 46.4 26.55 51.7 Z"/>

<path id="icon_r_box_02_32_Layer2_0_MEMBER_12_1_STROKES" stroke="#000000" stroke-width="1" stroke-linejoin="round" stroke-linecap="round" fill="none" d="
M 37.85 51.7
L 36.2 51.7 36.2 46.4 37.85 46.4 37.85 51.7 Z"/>

<path id="icon_r_box_02_32_Layer2_0_MEMBER_13_1_STROKES" stroke="#000000" stroke-width="1" stroke-linejoin="round" stroke-linecap="round" fill="none" d="
M 49.15 51.7
L 47.5 51.7 47.5 46.4 49.15 46.4 49.15 51.7 Z"/>

<path id="icon_r_box_02_32_Layer2_0_MEMBER_14_1_STROKES" stroke="#000000" stroke-width="1" stroke-linejoin="round" stroke-linecap="round" fill="none" d="
M 60.45 51.7
L 58.8 51.7 58.8 46.4 60.45 46.4 60.45 51.7 Z"/>

<path id="icon_r_box_02_32_Layer2_0_MEMBER_15_1_STROKES" stroke="#000000" stroke-width="1" stroke-linejoin="round" stroke-linecap="round" fill="none" d="
M 71.75 51.7
L 70.05 51.7 70.05 46.4 71.75 46.4 71.75 51.7 Z"/>

<path id="icon_r_box_02_32_Layer2_0_MEMBER_16_MEMBER_0_MEMBER_3_MEMBER_0_1_STROKES" stroke="#000000" stroke-width="1" stroke-linejoin="round" stroke-linecap="round" fill="none" d="
M 50.7 19.65
L 50.7 42"/>

<path id="icon_r_box_02_32_Layer2_0_MEMBER_16_MEMBER_0_MEMBER_3_MEMBER_1_1_STROKES" stroke="#000000" stroke-width="1" stroke-linejoin="round" stroke-linecap="round" fill="none" d="
M 60.4 19.65
L 60.4 42"/>

<path id="icon_r_box_02_32_Layer2_0_MEMBER_16_MEMBER_1_1_STROKES" stroke="#000000" stroke-width="1" stroke-linejoin="round" stroke-linecap="round" fill="none" d="
M 69.1 42
L 50.7 42 50.7 19.65 69.1 19.65 69.1 42 Z"/>
</defs>

<g transform="matrix( 1, 0, 0, 0.999603271484375, 65,60) ">
<g transform="matrix( 1, 0, 0, 1, 0,0) ">
<use xlink:href="#icon_r_box_02_32_Layer3_0_FILL"/>
</g>

<g transform="matrix( 1, 0, 0, 1, -0.05,0.05) ">
<use xlink:href="#icon_r_box_02_32_Layer3_1_FILL"/>
</g>

<g transform="matrix( 1, 0, 0, 1, 0,-2.15) ">
<use xlink:href="#icon_r_box_02_32_Layer3_2_FILL"/>
</g>

<g transform="matrix( 1, 0, 0, 1, 0,0.05) ">
<use xlink:href="#icon_r_box_02_32_Layer3_3_FILL"/>
</g>

<g transform="matrix( 1, 0, 0, 1, -40.9,-41.85) ">
<use xlink:href="#icon_r_box_02_32_Layer2_0_MEMBER_0_FILL"/>

<use xlink:href="#icon_r_box_02_32_Layer2_0_MEMBER_0_1_STROKES"/>
</g>

<g transform="matrix( 1, 0, 0, 1, -40.9,-41.85) ">
<use xlink:href="#icon_r_box_02_32_Layer2_0_MEMBER_1_FILL"/>

<use xlink:href="#icon_r_box_02_32_Layer2_0_MEMBER_1_1_STROKES"/>
</g>

<g transform="matrix( 1, 0, 0, 1, -40.9,-41.85) ">
<use xlink:href="#icon_r_box_02_32_Layer2_0_MEMBER_2_FILL"/>

<use xlink:href="#icon_r_box_02_32_Layer2_0_MEMBER_2_1_STROKES"/>
</g>

<g transform="matrix( 1, 0, 0, 1, -40.9,-41.85) ">
<use xlink:href="#icon_r_box_02_32_Layer2_0_MEMBER_3_FILL"/>

<use xlink:href="#icon_r_box_02_32_Layer2_0_MEMBER_3_1_STROKES"/>
</g>

<g transform="matrix( 1, 0, 0, 1, -40.9,-41.85) ">
<use xlink:href="#icon_r_box_02_32_Layer2_0_MEMBER_4_MEMBER_0_FILL"/>

<use xlink:href="#icon_r_box_02_32_Layer2_0_MEMBER_4_MEMBER_0_1_STROKES"/>
</g>

<g transform="matrix( 1, 0, 0, 1, -40.9,-41.85) ">
<use xlink:href="#icon_r_box_02_32_Layer2_0_MEMBER_4_MEMBER_1_FILL"/>

<use xlink:href="#icon_r_box_02_32_Layer2_0_MEMBER_4_MEMBER_1_1_STROKES"/>
</g>

<g transform="matrix( 1, 0, 0, 1, -40.9,-41.85) ">
<use xlink:href="#icon_r_box_02_32_Layer2_0_MEMBER_4_MEMBER_2_FILL"/>

<use xlink:href="#icon_r_box_02_32_Layer2_0_MEMBER_4_MEMBER_2_1_STROKES"/>
</g>

<g transform="matrix( 1, 0, 0, 1, -40.9,-41.85) ">
<use xlink:href="#icon_r_box_02_32_Layer2_0_MEMBER_4_MEMBER_3_FILL"/>

<use xlink:href="#icon_r_box_02_32_Layer2_0_MEMBER_4_MEMBER_3_1_STROKES"/>
</g>

<g transform="matrix( 1, 0, 0, 1, -40.9,-41.85) ">
<use xlink:href="#icon_r_box_02_32_Layer2_0_MEMBER_4_MEMBER_4_FILL"/>

<use xlink:href="#icon_r_box_02_32_Layer2_0_MEMBER_4_MEMBER_4_1_STROKES"/>
</g>

<g transform="matrix( 1, 0, 0, 1, -40.9,-41.85) ">
<use xlink:href="#icon_r_box_02_32_Layer2_0_MEMBER_5_FILL"/>

<use xlink:href="#icon_r_box_02_32_Layer2_0_MEMBER_5_1_STROKES"/>
</g>

<g transform="matrix( 1, 0, 0, 1, -40.9,-41.85) ">
<use xlink:href="#icon_r_box_02_32_Layer2_0_MEMBER_6_FILL"/>

<use xlink:href="#icon_r_box_02_32_Layer2_0_MEMBER_6_1_STROKES"/>
</g>

<g transform="matrix( 1, 0, 0, 1, -40.9,-41.85) ">
<use xlink:href="#icon_r_box_02_32_Layer2_0_MEMBER_7_FILL"/>

<use xlink:href="#icon_r_box_02_32_Layer2_0_MEMBER_7_1_STROKES"/>
</g>

<g transform="matrix( 1, 0, 0, 1, -40.9,-41.85) ">
<use xlink:href="#icon_r_box_02_32_Layer2_0_MEMBER_8_FILL"/>

<use xlink:href="#icon_r_box_02_32_Layer2_0_MEMBER_8_1_STROKES"/>
</g>

<g transform="matrix( 1, 0, 0, 1, -40.9,-41.85) ">
<use xlink:href="#icon_r_box_02_32_Layer2_0_MEMBER_9_MEMBER_0_1_STROKES"/>
</g>

<g transform="matrix( 1, 0, 0, 1, -40.9,-41.85) ">
<use xlink:href="#icon_r_box_02_32_Layer2_0_MEMBER_10_FILL"/>

<use xlink:href="#icon_r_box_02_32_Layer2_0_MEMBER_10_1_STROKES"/>
</g>

<g transform="matrix( 1, 0, 0, 1, -40.9,-41.85) ">
<use xlink:href="#icon_r_box_02_32_Layer2_0_MEMBER_11_FILL"/>

<use xlink:href="#icon_r_box_02_32_Layer2_0_MEMBER_11_1_STROKES"/>
</g>

<g transform="matrix( 1, 0, 0, 1, -40.9,-41.85) ">
<use xlink:href="#icon_r_box_02_32_Layer2_0_MEMBER_12_FILL"/>

<use xlink:href="#icon_r_box_02_32_Layer2_0_MEMBER_12_1_STROKES"/>
</g>

<g transform="matrix( 1, 0, 0, 1, -40.9,-41.85) ">
<use xlink:href="#icon_r_box_02_32_Layer2_0_MEMBER_13_FILL"/>

<use xlink:href="#icon_r_box_02_32_Layer2_0_MEMBER_13_1_STROKES"/>
</g>

<g transform="matrix( 1, 0, 0, 1, -40.9,-41.85) ">
<use xlink:href="#icon_r_box_02_32_Layer2_0_MEMBER_14_FILL"/>

<use xlink:href="#icon_r_box_02_32_Layer2_0_MEMBER_14_1_STROKES"/>
</g>

<g transform="matrix( 1, 0, 0, 1, -40.9,-41.85) ">
<use xlink:href="#icon_r_box_02_32_Layer2_0_MEMBER_15_FILL"/>

<use xlink:href="#icon_r_box_02_32_Layer2_0_MEMBER_15_1_STROKES"/>
</g>

<g transform="matrix( 1, 0, 0, 1, -40.9,-41.85) ">
<use xlink:href="#icon_r_box_02_32_Layer2_0_MEMBER_16_MEMBER_0_MEMBER_0_FILL"/>
</g>

<g transform="matrix( 1, 0, 0, 1, -40.9,-41.85) ">
<use xlink:href="#icon_r_box_02_32_Layer2_0_MEMBER_16_MEMBER_0_MEMBER_1_FILL"/>
</g>

<g transform="matrix( 1, 0, 0, 1, -40.9,-41.85) ">
<use xlink:href="#icon_r_box_02_32_Layer2_0_MEMBER_16_MEMBER_0_MEMBER_2_FILL"/>
</g>

<g transform="matrix( 1, 0, 0, 1, -40.9,-41.85) ">
<use xlink:href="#icon_r_box_02_32_Layer2_0_MEMBER_16_MEMBER_0_MEMBER_3_MEMBER_0_1_STROKES"/>
</g>

<g transform="matrix( 1, 0, 0, 1, -40.9,-41.85) ">
<use xlink:href="#icon_r_box_02_32_Layer2_0_MEMBER_16_MEMBER_0_MEMBER_3_MEMBER_1_1_STROKES"/>
</g>

<g transform="matrix( 1, 0, 0, 1, -40.9,-41.85) ">
<use xlink:href="#icon_r_box_02_32_Layer2_0_MEMBER_16_MEMBER_1_1_STROKES"/>
</g>

<g transform="matrix( 1, 0, 0, 1, -40.9,-41.85) ">
<use xlink:href="#icon_r_box_02_32_Layer2_1_FILL"/>
</g>

<g transform="matrix( 1, 0, 0, 1, 0,0) ">
<use xlink:href="#icon_r_box_02_32_Layer1_0_FILL"/>
</g>
</g>
</svg>
