
<svg xmlns="http://www.w3.org/2000/svg" version="1.1" xmlns:xlink="http://www.w3.org/1999/xlink" preserveAspectRatio="none" x="0px" y="0px" width="130px" height="115px" viewBox="0 0 130 115">
<defs>
<g id="icon_r_box_02_35_Layer3_0_FILL">
<path fill="#FFFFFF" fill-opacity="0" stroke="none" d="
M 65 -55
L -65 -55 -65 25 65 25 65 -55 Z"/>
</g>

<g id="icon_r_box_02_35_Layer3_1_FILL">
<path fill="#FFFFFF" fill-opacity="0" stroke="none" d="
M 65.05 49.95
L 65.05 24.95 -64.95 24.95 -64.95 49.95 65.05 49.95 Z"/>
</g>

<g id="icon_r_box_02_35_Layer3_2_FILL">
<path fill="#FFFFFF" fill-opacity="0" stroke="none" d="
M 65 -52.85
L 65 -57.85 -65 -57.85 -65 -52.85 65 -52.85 Z"/>
</g>

<g id="icon_r_box_02_35_Layer3_3_FILL">
<path fill="#FFFFFF" fill-opacity="0" stroke="none" d="
M 65 54.95
L 65 49.95 -65 49.95 -65 54.95 65 54.95 Z"/>
</g>

<g id="icon_r_box_02_35_Layer2_0_FILL">
<path fill="#DDE1F1" stroke="none" d="
M 76.4 45.05
L 76.4 23.75 7.45 23.75 7.45 45.05 76.4 45.05 Z"/>
</g>

<g id="icon_r_box_02_35_Layer2_1_FILL">
<path fill="#A6B0C5" stroke="none" d="
M 76.4 45.05
L 76.4 40.45 7.45 40.45 7.45 45.05 76.4 45.05 Z"/>
</g>

<g id="icon_r_box_02_35_Layer2_2_FILL">
<path fill="#BAE6FF" stroke="none" d="
M 74 40.45
L 74 25.45 9.85 25.45 9.85 40.45 74 40.45 Z"/>
</g>

<g id="icon_r_box_02_35_Layer2_3_FILL">
<path fill="#DDE1F1" stroke="none" d="
M 76.4 22.05
L 76.4 12.8 7.45 12.8 7.45 22.05 76.4 22.05 Z"/>
</g>

<g id="icon_r_box_02_35_Layer2_4_FILL">
<path fill="#6877AB" stroke="none" d="
M 76.4 23.75
L 76.4 22.05 7.45 22.05 7.45 23.75 76.4 23.75 Z"/>
</g>

<g id="icon_r_box_02_35_Layer2_5_FILL">
<path fill="#DDE1F1" stroke="none" d="
M 67.15 19.05
L 67.15 2.2 16.7 2.2 16.7 19.05 67.15 19.05 Z"/>
</g>

<g id="icon_r_box_02_35_Layer2_6_FILL">
<path fill="#6877AB" stroke="none" d="
M 67.15 20.75
L 67.15 19.05 16.7 19.05 16.7 20.75 67.15 20.75 Z"/>
</g>

<g id="icon_r_box_02_35_Layer2_7_FILL">
<path fill="#6877AB" stroke="none" d="
M 67.15 2.2
L 67.15 0.5 16.7 0.5 16.7 2.2 67.15 2.2 Z"/>
</g>

<g id="icon_r_box_02_35_Layer2_8_FILL">
<path fill="#DDE1F1" stroke="none" d="
M 65.2 45.05
L 65.2 20.75 18.65 20.75 18.65 45.05 65.2 45.05 Z"/>
</g>

<g id="icon_r_box_02_35_Layer2_9_FILL">
<path fill="#DDE1F1" stroke="none" d="
M 54.75 45.05
L 54.75 20.75 29.1 20.75 29.1 45.05 54.75 45.05 Z"/>
</g>

<g id="icon_r_box_02_35_Layer2_10_MEMBER_0_FILL">
<path fill="#BAE6FF" stroke="none" d="
M 26.65 25.45
L 26.65 23.1 21.1 23.1 21.1 25.45 26.65 25.45 Z"/>
</g>

<g id="icon_r_box_02_35_Layer2_10_MEMBER_1_FILL">
<path fill="#BAE6FF" stroke="none" d="
M 62.75 25.45
L 62.75 23.1 57.25 23.1 57.25 25.45 62.75 25.45 Z"/>
</g>

<g id="icon_r_box_02_35_Layer2_11_FILL">
<path fill="#BAE6FF" stroke="none" d="
M 52.35 25.45
L 52.35 23.1 31.5 23.1 31.5 25.45 52.35 25.45 Z"/>
</g>

<g id="icon_r_box_02_35_Layer2_12_MEMBER_0_MEMBER_0_FILL">
<path fill="#FFFFFF" stroke="none" d="
M 26.65 41.3
L 26.65 27.65 21.1 27.65 21.1 41.3 26.65 41.3 Z"/>
</g>

<g id="icon_r_box_02_35_Layer2_12_MEMBER_0_MEMBER_1_FILL">
<path fill="#FF5B5B" stroke="none" d="
M 21.1 27.65
L 21.1 30.95 26.65 30.95 26.65 27.65 21.1 27.65 Z"/>
</g>

<g id="icon_r_box_02_35_Layer2_12_MEMBER_1_MEMBER_0_FILL">
<path fill="#FFFFFF" stroke="none" d="
M 62.75 41.3
L 62.75 27.65 57.25 27.65 57.25 41.3 62.75 41.3 Z"/>
</g>

<g id="icon_r_box_02_35_Layer2_12_MEMBER_1_MEMBER_1_FILL">
<path fill="#FF5B5B" stroke="none" d="
M 57.25 27.65
L 57.25 30.95 62.75 30.95 62.75 27.65 57.25 27.65 Z"/>
</g>

<g id="icon_r_box_02_35_Layer2_13_FILL">
<path fill="#FFFFFF" stroke="none" d="
M 48.6 32.4
L 48.6 27.4 35.3 27.4 35.3 32.4 48.6 32.4 Z"/>
</g>

<g id="icon_r_box_02_35_Layer2_19_FILL">
<path fill="#BAE6FF" stroke="none" d="
M 47.25 45.05
L 47.25 37.05 36.3 37.05 36.3 45.05 47.25 45.05 Z"/>
</g>

<g id="icon_r_box_02_35_Layer1_0_FILL">
<path fill="#000000" stroke="none" d="
M 13.4 -22.25
Q 13.2 -22.3 13 -22.3
L 8.8 -22.3
Q 8.6 -22.3 8.4 -22.25 8.2 -22.2 8.1 -22.1 7.95 -21.95 7.9 -21.8 7.8 -21.65 7.8 -21.4
L 7.8 -19.35
Q 7.8 -18.85 8.1 -18.65 8.2 -18.55 8.4 -18.45 8.6 -18.35 8.8 -18.3 9.1 -18.2 9.4 -18.15 9.7 -18.1 10.1 -18.05 10.65 -18 11.4 -18.05 11.75 -18.05 12.15 -18.1 12.55 -18.2 13 -18.3 13.2 -18.4 13.4 -18.45 13.55 -18.55 13.7 -18.65 14 -18.85 14 -19.35
L 14 -21.4
Q 14 -21.65 13.9 -21.8 13.85 -21.95 13.7 -22.1 13.55 -22.2 13.4 -22.25
M 12.45 -20.8
Q 12.45 -20.75 12.45 -20.65
L 12.45 -19.8
Q 12.45 -19.65 12.3 -19.6 12.25 -19.55 12.2 -19.5 12.15 -19.5 12.1 -19.5 11.9 -19.45 11.7 -19.4 11.5 -19.35 11.3 -19.35 11.15 -19.35 10.95 -19.3 10.8 -19.3 10.55 -19.3 10.35 -19.3 10.1 -19.35 9.9 -19.4 9.65 -19.5 9.55 -19.5 9.45 -19.6 9.4 -19.6 9.35 -19.65 9.3 -19.7 9.3 -19.8
L 9.3 -20.65
Q 9.3 -20.75 9.35 -20.8 9.35 -20.85 9.45 -20.9 9.5 -20.9 9.55 -20.95 9.6 -20.95 9.65 -20.95
L 12.1 -20.95
Q 12.2 -20.95 12.25 -20.95 12.3 -20.9 12.35 -20.9 12.4 -20.85 12.45 -20.8
M 13.25 -28.4
Q 13.15 -28.4 13.1 -28.35 13.05 -28.35 13 -28.3 12.95 -28.3 12.9 -28.25 12.85 -28.2 12.8 -28.15 12.75 -28.1 12.75 -28.05 12.7 -27.95 12.7 -27.9
L 12.7 -26.5 11.45 -26.5
Q 11.3 -26.5 11.2 -26.45 11.1 -26.4 11.05 -26.3 11 -26.2 11 -26.1 10.95 -25.95 10.95 -25.85 10.95 -25.7 11 -25.6 11 -25.45 11.05 -25.35 11.15 -25.2 11.45 -25.2
L 12.7 -25.2 12.7 -23.4
Q 12.7 -23.25 12.75 -23.15 12.85 -23.05 12.95 -23 13.05 -22.9 13.2 -22.9 13.35 -22.85 13.5 -22.85 13.65 -22.85 13.75 -22.9 13.9 -22.9 14 -23 14.1 -23.05 14.2 -23.15 14.25 -23.25 14.25 -23.4
L 14.25 -27.9
Q 14.25 -28.05 14.2 -28.15 14.15 -28.25 14.05 -28.3 13.95 -28.35 13.8 -28.4 13.7 -28.4 13.55 -28.4 13.45 -28.4 13.4 -28.4 13.3 -28.4 13.25 -28.4
M 6.6 -28
Q 6.5 -28 6.35 -27.95 6.25 -27.9 6.2 -27.8 6.15 -27.7 6.1 -27.6 6.1 -27.45 6.1 -27.35 6.1 -27.05 6.2 -26.85 6.25 -26.75 6.35 -26.7 6.5 -26.65 6.6 -26.65
L 7.8 -26.65 7.8 -26.6
Q 7.8 -26.3 7.65 -26 7.55 -25.65 7.35 -25.35 7.15 -25.05 6.9 -24.75 6.6 -24.45 6.3 -24.2 6 -23.95 6 -23.75 5.95 -23.65 6 -23.55 6.05 -23.4 6.15 -23.3 6.25 -23.15 6.4 -23.05 6.5 -23 6.65 -22.95 6.8 -22.9 6.9 -22.95 7 -22.95 7.05 -23.05 7.2 -23.15 7.3 -23.25 7.4 -23.35 7.5 -23.45 7.6 -23.55 7.7 -23.65 7.8 -23.75 7.9 -23.85 7.95 -23.95 8.05 -24.05 8.1 -24.15 8.2 -24.25 8.3 -24.35 8.35 -24.45 8.45 -24.6 8.55 -24.7 8.75 -24.45 8.9 -24.25 9 -24.15 9.1 -24.05 9.15 -23.95 9.25 -23.9 9.4 -23.7 9.65 -23.5 9.75 -23.4 9.85 -23.3 10 -23.25 10.15 -23.15 10.25 -23.1 10.35 -23.05 10.45 -23.05 10.55 -23.1 10.7 -23.15 10.75 -23.25 10.85 -23.35 10.95 -23.45 11 -23.55 11.05 -23.65 11.1 -23.8 11.1 -23.9 11.1 -24 11 -24.1 10.9 -24.25 10.75 -24.35 10.4 -24.6 10.15 -24.9 9.9 -25.2 9.75 -25.45 9.55 -25.7 9.45 -26 9.35 -26.25 9.3 -26.55
L 9.3 -26.65 10.4 -26.65
Q 10.55 -26.65 10.65 -26.7 10.8 -26.75 10.85 -26.85 10.9 -26.95 10.95 -27.1 10.95 -27.2 10.95 -27.35 10.95 -27.45 10.95 -27.6 10.9 -27.7 10.85 -27.8 10.8 -27.9 10.7 -27.95 10.55 -28 10.4 -28
L 6.6 -28
M 3.3 -27.9
Q 3.25 -28.05 3.2 -28.15 3.15 -28.3 3.05 -28.35 2.95 -28.4 2.8 -28.4 2.7 -28.45 2.55 -28.45 2.4 -28.45 2.3 -28.4 2.15 -28.4 2.05 -28.35 1.85 -28.2 1.85 -27.9
L 1.85 -18.3
Q 1.85 -18 2.05 -17.9 2.15 -17.85 2.3 -17.8 2.4 -17.8 2.55 -17.8 2.7 -17.8 2.8 -17.8 2.95 -17.85 3.05 -17.9 3.15 -17.95 3.2 -18.05 3.25 -18.15 3.3 -18.3
L 3.3 -23.3 4.4 -23.3
Q 4.55 -23.25 4.7 -23.35 4.8 -23.4 4.85 -23.5 4.9 -23.6 4.95 -23.7 4.95 -23.8 4.95 -23.95 4.95 -24.25 4.85 -24.4 4.8 -24.5 4.7 -24.55 4.55 -24.6 4.4 -24.6
L 3.3 -24.6 3.3 -27.9
M -2.65 -25.95
Q -3.05 -25.8 -3.4 -25.5 -3.6 -25.35 -3.7 -25.2 -3.85 -25.05 -3.95 -24.85 -4.05 -24.7 -4.1 -24.5 -4.15 -24.3 -4.15 -24.1 -4.15 -23.85 -4.1 -23.65 -4.05 -23.4 -3.9 -23.25 -3.8 -23.05 -3.65 -22.95 -3.5 -22.8 -3.35 -22.7 -3.15 -22.55 -3 -22.5 -2.8 -22.4 -2.55 -22.35
L -2.5 -22.35 -2.5 -21.55 -4.6 -21.55
Q -4.8 -21.45 -4.95 -21.25 -5.05 -21.15 -5.05 -21.05 -5.1 -20.95 -5.1 -20.85 -5.1 -20.75 -5.05 -20.65 -5.05 -20.55 -4.95 -20.45 -4.85 -20.35 -4.75 -20.3 -4.7 -20.25 -4.6 -20.2
L -2.1 -20.2
Q -1.85 -20.2 -1.65 -20.2 -1.4 -20.2 -1.25 -20.2 -1.05 -20.2 -0.85 -20.2 -0.65 -20.2 -0.5 -20.2 -0.3 -20.2 -0.15 -20.2 0.05 -20.25 0.2 -20.25 0.35 -20.3 0.55 -20.3 0.75 -20.35 0.95 -20.4 1.2 -20.45 1.35 -20.65 1.45 -20.75 1.45 -20.85 1.5 -21 1.5 -21.1 1.45 -21.2 1.45 -21.25 1.4 -21.3 1.4 -21.35 1.35 -21.4 1.3 -21.45 1.25 -21.5 1.15 -21.55 1.1 -21.6 1.05 -21.65 1 -21.65 0.95 -21.7 0.85 -21.7 0.8 -21.7 0.75 -21.7 0.65 -21.7 0.5 -21.65 0.4 -21.65 0.25 -21.6 0.15 -21.6 0.05 -21.6 -0.05 -21.55 -0.15 -21.55 -0.25 -21.55 -0.35 -21.55 -0.45 -21.55 -0.55 -21.55 -0.65 -21.55 -0.75 -21.55 -0.85 -21.55 -1 -21.55 -1.15 -21.55
L -1.15 -22.3
Q -1 -22.3 -0.85 -22.35 -0.6 -22.4 -0.4 -22.5 -0.2 -22.55 -0.05 -22.7 0.15 -22.8 0.25 -22.95 0.4 -23.05 0.5 -23.25 0.6 -23.4 0.7 -23.65 0.75 -23.85 0.75 -24.1 0.75 -24.55 0.55 -24.9 0.45 -25.05 0.35 -25.2 0.2 -25.35 0 -25.5 -0.35 -25.8 -0.75 -25.95 -0.95 -26 -1.2 -26.05 -1.45 -26.1 -1.7 -26.1 -2 -26.1 -2.2 -26.05 -2.45 -26 -2.65 -25.95
M -0.8 -24.1
Q -0.8 -23.95 -0.9 -23.85 -0.95 -23.7 -1.05 -23.65 -1.2 -23.55 -1.35 -23.5 -1.5 -23.45 -1.7 -23.45 -1.9 -23.45 -2.05 -23.5 -2.25 -23.55 -2.35 -23.65 -2.45 -23.7 -2.55 -23.85 -2.6 -23.95 -2.6 -24.1 -2.6 -24.2 -2.55 -24.3 -2.45 -24.4 -2.35 -24.5 -2.3 -24.55 -2.25 -24.6 -2.15 -24.65 -2.05 -24.65 -2 -24.7 -1.9 -24.7 -1.8 -24.7 -1.7 -24.7 -1.5 -24.7 -1.35 -24.65 -1.15 -24.6 -1 -24.5 -0.9 -24.4 -0.85 -24.3 -0.8 -24.2 -0.8 -24.1
M -2.35 -28.35
Q -2.4 -28.25 -2.4 -28.05
L -2.4 -27.6 -4.15 -27.6
Q -4.3 -27.6 -4.4 -27.55 -4.5 -27.5 -4.55 -27.4 -4.65 -27.2 -4.65 -26.9 -4.65 -26.8 -4.6 -26.65 -4.6 -26.55 -4.55 -26.45 -4.5 -26.35 -4.4 -26.3 -4.3 -26.25 -4.15 -26.25
L 0.75 -26.25
Q 0.9 -26.25 1 -26.3 1.1 -26.35 1.15 -26.45 1.2 -26.55 1.25 -26.65 1.25 -26.75 1.25 -26.9 1.25 -27.05 1.25 -27.15 1.2 -27.3 1.15 -27.4 1.1 -27.5 1 -27.55 0.9 -27.6 0.75 -27.6
L -1 -27.6 -1 -28.05
Q -1 -28.25 -1.05 -28.35 -1.1 -28.45 -1.2 -28.5 -1.4 -28.6 -1.7 -28.6 -1.85 -28.6 -1.95 -28.6 -2.1 -28.55 -2.2 -28.5 -2.3 -28.45 -2.35 -28.35
M -6.2 -21.9
Q -6.4 -22.2 -6.85 -22.2
L -11.95 -22.2
Q -12.15 -22.2 -12.25 -22.15 -12.35 -22.1 -12.4 -22 -12.45 -21.9 -12.45 -21.8 -12.5 -21.7 -12.5 -21.55 -12.5 -21.4 -12.45 -21.3 -12.45 -21.2 -12.4 -21.1 -12.3 -20.9 -11.95 -20.9
L -7.4 -20.9 -7.4 -18.3
Q -7.4 -18.1 -7.35 -18 -7.3 -17.9 -7.15 -17.85 -7.05 -17.8 -6.95 -17.8 -6.85 -17.75 -6.75 -17.75 -6.6 -17.75 -6.45 -17.8 -6.35 -17.8 -6.2 -17.85 -6.1 -17.9 -6.05 -18 -6 -18.1 -6 -18.3
L -6 -21.15
Q -6 -21.35 -6.05 -21.55 -6.1 -21.75 -6.2 -21.9
M -5.95 -27.85
Q -5.95 -28.05 -6 -28.15 -6.05 -28.25 -6.15 -28.3 -6.25 -28.35 -6.4 -28.4 -6.5 -28.4 -6.65 -28.4 -6.8 -28.4 -6.9 -28.4 -7 -28.35 -7.1 -28.3 -7.2 -28.25 -7.25 -28.15 -7.3 -28.05 -7.3 -27.85
L -7.3 -26.35 -8.1 -26.35 -8.1 -27.65
Q -8.1 -27.85 -8.15 -27.95 -8.2 -28.05 -8.3 -28.1 -8.4 -28.15 -8.5 -28.2 -8.6 -28.2 -8.75 -28.2 -8.9 -28.2 -9 -28.2 -9.15 -28.15 -9.25 -28.1 -9.45 -28 -9.45 -27.65
L -9.45 -23.5
Q -9.45 -23.35 -9.4 -23.25 -9.35 -23.1 -9.25 -23.05 -9.15 -23 -9 -23 -8.9 -22.95 -8.75 -22.95 -8.6 -22.95 -8.5 -23 -8.4 -23 -8.3 -23.05 -8.2 -23.1 -8.15 -23.25 -8.1 -23.35 -8.1 -23.5
L -8.1 -25.05 -7.3 -25.05 -7.3 -23.4
Q -7.3 -23.25 -7.25 -23.1 -7.2 -23 -7.1 -22.95 -6.95 -22.85 -6.65 -22.85 -6.35 -22.85 -6.15 -22.95 -6.05 -23 -6 -23.1 -5.95 -23.25 -5.95 -23.4
L -5.95 -27.85
M -10.95 -28.05
Q -11.05 -28.05 -11.2 -28.05 -11.3 -28 -11.4 -27.95 -11.5 -27.9 -11.55 -27.8 -11.6 -27.7 -11.6 -27.55
L -11.6 -26.85 -13.05 -26.85 -13.05 -27.55
Q -13.05 -27.85 -13.25 -27.95 -13.35 -28 -13.45 -28.05 -13.55 -28.05 -13.7 -28.05 -13.75 -28.05 -13.8 -28.05 -13.85 -28.05 -13.95 -28.05 -14 -28.05 -14.05 -28 -14.1 -28 -14.15 -27.95 -14.3 -27.9 -14.35 -27.8 -14.4 -27.75 -14.4 -27.7 -14.4 -27.6 -14.4 -27.55
L -14.4 -24.6
Q -14.4 -24.4 -14.4 -24.3 -14.4 -24.15 -14.35 -24.05 -14.35 -23.95 -14.3 -23.85 -14.3 -23.75 -14.25 -23.7 -14.2 -23.65 -14.15 -23.55 -14.1 -23.5 -14 -23.45 -13.8 -23.35 -13.45 -23.3 -13.15 -23.2 -12.85 -23.15 -12.55 -23.1 -12.25 -23.1 -12 -23.1 -11.65 -23.15 -11.35 -23.2 -11.05 -23.3 -10.95 -23.3 -10.85 -23.35 -10.75 -23.4 -10.7 -23.45 -10.6 -23.5 -10.55 -23.55 -10.5 -23.6 -10.45 -23.7 -10.4 -23.75 -10.35 -23.85 -10.3 -23.95 -10.3 -24.05 -10.25 -24.15 -10.25 -24.3 -10.2 -24.4 -10.2 -24.6
L -10.2 -27.55
Q -10.2 -27.6 -10.25 -27.7 -10.25 -27.75 -10.3 -27.8 -10.35 -27.85 -10.4 -27.9 -10.45 -27.95 -10.5 -27.95 -10.5 -28 -10.6 -28 -10.65 -28.05 -10.7 -28.05 -10.75 -28.05 -10.85 -28.05 -10.9 -28.05 -10.95 -28.05
M -13 -25.5
L -11.6 -25.5 -11.6 -24.6
Q -11.75 -24.55 -11.85 -24.55 -11.95 -24.5 -12.1 -24.5 -12.2 -24.45 -12.3 -24.45 -12.4 -24.45 -12.55 -24.45 -12.65 -24.45 -12.8 -24.5 -12.9 -24.55 -13 -24.6
L -13 -25.5 Z"/>
</g>

<path id="icon_r_box_02_35_Layer2_0_1_STROKES" stroke="#000000" stroke-width="1" stroke-linejoin="round" stroke-linecap="round" fill="none" d="
M 76.4 45.05
L 7.45 45.05 7.45 23.75 76.4 23.75 76.4 45.05 Z"/>

<path id="icon_r_box_02_35_Layer2_1_1_STROKES" stroke="#000000" stroke-width="1" stroke-linejoin="round" stroke-linecap="round" fill="none" d="
M 76.4 45.05
L 7.45 45.05 7.45 40.45 76.4 40.45 76.4 45.05 Z"/>

<path id="icon_r_box_02_35_Layer2_2_1_STROKES" stroke="#000000" stroke-width="1" stroke-linejoin="round" stroke-linecap="round" fill="none" d="
M 74 40.45
L 9.85 40.45 9.85 25.45 74 25.45 74 40.45 Z"/>

<path id="icon_r_box_02_35_Layer2_3_1_STROKES" stroke="#000000" stroke-width="1" stroke-linejoin="round" stroke-linecap="round" fill="none" d="
M 76.4 22.05
L 7.45 22.05 7.45 12.8 76.4 12.8 76.4 22.05 Z"/>

<path id="icon_r_box_02_35_Layer2_4_1_STROKES" stroke="#000000" stroke-width="1" stroke-linejoin="round" stroke-linecap="round" fill="none" d="
M 76.4 22.05
L 7.45 22.05 7.45 23.75 76.4 23.75 76.4 22.05 Z"/>

<path id="icon_r_box_02_35_Layer2_5_1_STROKES" stroke="#000000" stroke-width="1" stroke-linejoin="round" stroke-linecap="round" fill="none" d="
M 67.15 19.05
L 16.7 19.05 16.7 2.2 67.15 2.2 67.15 19.05 Z"/>

<path id="icon_r_box_02_35_Layer2_6_1_STROKES" stroke="#000000" stroke-width="1" stroke-linejoin="round" stroke-linecap="round" fill="none" d="
M 67.15 19.05
L 16.7 19.05 16.7 20.75 67.15 20.75 67.15 19.05 Z"/>

<path id="icon_r_box_02_35_Layer2_7_1_STROKES" stroke="#000000" stroke-width="1" stroke-linejoin="round" stroke-linecap="round" fill="none" d="
M 67.15 0.5
L 16.7 0.5 16.7 2.2 67.15 2.2 67.15 0.5 Z"/>

<path id="icon_r_box_02_35_Layer2_8_1_STROKES" stroke="#000000" stroke-width="1" stroke-linejoin="round" stroke-linecap="round" fill="none" d="
M 65.2 45.05
L 18.65 45.05 18.65 20.75 65.2 20.75 65.2 45.05 Z"/>

<path id="icon_r_box_02_35_Layer2_9_1_STROKES" stroke="#000000" stroke-width="1" stroke-linejoin="round" stroke-linecap="round" fill="none" d="
M 54.75 45.05
L 29.1 45.05 29.1 20.75 54.75 20.75 54.75 45.05 Z"/>

<path id="icon_r_box_02_35_Layer2_10_MEMBER_0_1_STROKES" stroke="#000000" stroke-width="1" stroke-linejoin="round" stroke-linecap="round" fill="none" d="
M 26.65 25.45
L 21.1 25.45 21.1 23.1 26.65 23.1 26.65 25.45 Z"/>

<path id="icon_r_box_02_35_Layer2_10_MEMBER_1_1_STROKES" stroke="#000000" stroke-width="1" stroke-linejoin="round" stroke-linecap="round" fill="none" d="
M 62.75 25.45
L 57.25 25.45 57.25 23.1 62.75 23.1 62.75 25.45 Z"/>

<path id="icon_r_box_02_35_Layer2_11_1_STROKES" stroke="#000000" stroke-width="1" stroke-linejoin="round" stroke-linecap="round" fill="none" d="
M 52.35 25.45
L 31.5 25.45 31.5 23.1 52.35 23.1 52.35 25.45 Z"/>

<path id="icon_r_box_02_35_Layer2_12_MEMBER_0_MEMBER_0_1_STROKES" stroke="#000000" stroke-width="1" stroke-linejoin="round" stroke-linecap="round" fill="none" d="
M 26.65 41.3
L 21.1 41.3 21.1 27.65 26.65 27.65 26.65 41.3 Z"/>

<path id="icon_r_box_02_35_Layer2_12_MEMBER_0_MEMBER_2_1_STROKES" stroke="#000000" stroke-width="1" stroke-linejoin="round" stroke-linecap="round" fill="none" d="
M 26.65 41.3
L 21.1 41.3 21.1 27.65 26.65 27.65 26.65 41.3 Z"/>

<path id="icon_r_box_02_35_Layer2_12_MEMBER_1_MEMBER_0_1_STROKES" stroke="#000000" stroke-width="1" stroke-linejoin="round" stroke-linecap="round" fill="none" d="
M 62.75 41.3
L 57.25 41.3 57.25 27.65 62.75 27.65 62.75 41.3 Z"/>

<path id="icon_r_box_02_35_Layer2_12_MEMBER_1_MEMBER_2_1_STROKES" stroke="#000000" stroke-width="1" stroke-linejoin="round" stroke-linecap="round" fill="none" d="
M 62.75 41.3
L 57.25 41.3 57.25 27.65 62.75 27.65 62.75 41.3 Z"/>

<path id="icon_r_box_02_35_Layer2_13_1_STROKES" stroke="#000000" stroke-width="1" stroke-linejoin="round" stroke-linecap="round" fill="none" d="
M 48.6 32.4
L 35.3 32.4 35.3 27.4 48.6 27.4 48.6 32.4 Z"/>

<path id="icon_r_box_02_35_Layer2_14_1_STROKES" stroke="#000000" stroke-width="1" stroke-linejoin="round" stroke-linecap="round" fill="none" d="
M 12.55 25.45
L 12.55 40.45"/>

<path id="icon_r_box_02_35_Layer2_15_1_STROKES" stroke="#000000" stroke-width="1" stroke-linejoin="round" stroke-linecap="round" fill="none" d="
M 15.75 25.45
L 15.75 40.45"/>

<path id="icon_r_box_02_35_Layer2_16_1_STROKES" stroke="#000000" stroke-width="1" stroke-linejoin="round" stroke-linecap="round" fill="none" d="
M 71.35 25.45
L 71.35 40.45"/>

<path id="icon_r_box_02_35_Layer2_17_1_STROKES" stroke="#000000" stroke-width="1" stroke-linejoin="round" stroke-linecap="round" fill="none" d="
M 68.15 25.45
L 68.15 40.45"/>

<path id="icon_r_box_02_35_Layer2_18_MEMBER_0_1_STROKES" stroke="#000000" stroke-width="1" stroke-linejoin="round" stroke-linecap="round" fill="none" d="
M 0.5 45.05
L 83.4 45.05"/>

<path id="icon_r_box_02_35_Layer2_19_1_STROKES" stroke="#000000" stroke-width="1" stroke-linejoin="round" stroke-linecap="round" fill="none" d="
M 47.25 45.05
L 36.3 45.05 36.3 37.05 47.25 37.05 47.25 45.05 Z"/>

<path id="icon_r_box_02_35_Layer2_20_MEMBER_0_1_STROKES" stroke="#000000" stroke-width="1" stroke-linejoin="round" stroke-linecap="round" fill="none" d="
M 41.8 37.05
L 41.8 45.05"/>
</defs>

<g transform="matrix( 1, 0, 0, 0.999603271484375, 65,60) ">
<g transform="matrix( 1, 0, 0, 1, 0,0) ">
<use xlink:href="#icon_r_box_02_35_Layer3_0_FILL"/>
</g>

<g transform="matrix( 1, 0, 0, 1, -0.05,0.05) ">
<use xlink:href="#icon_r_box_02_35_Layer3_1_FILL"/>
</g>

<g transform="matrix( 1, 0, 0, 1, 0,-2.15) ">
<use xlink:href="#icon_r_box_02_35_Layer3_2_FILL"/>
</g>

<g transform="matrix( 1, 0, 0, 1, 0,0.05) ">
<use xlink:href="#icon_r_box_02_35_Layer3_3_FILL"/>
</g>

<g transform="matrix( 1, 0, 0, 1, -41.95,-34) ">
<use xlink:href="#icon_r_box_02_35_Layer2_0_FILL"/>

<use xlink:href="#icon_r_box_02_35_Layer2_0_1_STROKES"/>
</g>

<g transform="matrix( 1, 0, 0, 1, -41.95,-34) ">
<use xlink:href="#icon_r_box_02_35_Layer2_1_FILL"/>

<use xlink:href="#icon_r_box_02_35_Layer2_1_1_STROKES"/>
</g>

<g transform="matrix( 1, 0, 0, 1, -41.95,-34) ">
<use xlink:href="#icon_r_box_02_35_Layer2_2_FILL"/>

<use xlink:href="#icon_r_box_02_35_Layer2_2_1_STROKES"/>
</g>

<g transform="matrix( 1, 0, 0, 1, -41.95,-34) ">
<use xlink:href="#icon_r_box_02_35_Layer2_3_FILL"/>

<use xlink:href="#icon_r_box_02_35_Layer2_3_1_STROKES"/>
</g>

<g transform="matrix( 1, 0, 0, 1, -41.95,-34) ">
<use xlink:href="#icon_r_box_02_35_Layer2_4_FILL"/>

<use xlink:href="#icon_r_box_02_35_Layer2_4_1_STROKES"/>
</g>

<g transform="matrix( 1, 0, 0, 1, -41.95,-34) ">
<use xlink:href="#icon_r_box_02_35_Layer2_5_FILL"/>

<use xlink:href="#icon_r_box_02_35_Layer2_5_1_STROKES"/>
</g>

<g transform="matrix( 1, 0, 0, 1, -41.95,-34) ">
<use xlink:href="#icon_r_box_02_35_Layer2_6_FILL"/>

<use xlink:href="#icon_r_box_02_35_Layer2_6_1_STROKES"/>
</g>

<g transform="matrix( 1, 0, 0, 1, -41.95,-34) ">
<use xlink:href="#icon_r_box_02_35_Layer2_7_FILL"/>

<use xlink:href="#icon_r_box_02_35_Layer2_7_1_STROKES"/>
</g>

<g transform="matrix( 1, 0, 0, 1, -41.95,-34) ">
<use xlink:href="#icon_r_box_02_35_Layer2_8_FILL"/>

<use xlink:href="#icon_r_box_02_35_Layer2_8_1_STROKES"/>
</g>

<g transform="matrix( 1, 0, 0, 1, -41.95,-34) ">
<use xlink:href="#icon_r_box_02_35_Layer2_9_FILL"/>

<use xlink:href="#icon_r_box_02_35_Layer2_9_1_STROKES"/>
</g>

<g transform="matrix( 1, 0, 0, 1, -41.95,-34) ">
<use xlink:href="#icon_r_box_02_35_Layer2_10_MEMBER_0_FILL"/>

<use xlink:href="#icon_r_box_02_35_Layer2_10_MEMBER_0_1_STROKES"/>
</g>

<g transform="matrix( 1, 0, 0, 1, -41.95,-34) ">
<use xlink:href="#icon_r_box_02_35_Layer2_10_MEMBER_1_FILL"/>

<use xlink:href="#icon_r_box_02_35_Layer2_10_MEMBER_1_1_STROKES"/>
</g>

<g transform="matrix( 1, 0, 0, 1, -41.95,-34) ">
<use xlink:href="#icon_r_box_02_35_Layer2_11_FILL"/>

<use xlink:href="#icon_r_box_02_35_Layer2_11_1_STROKES"/>
</g>

<g transform="matrix( 1, 0, 0, 1, -41.95,-34) ">
<use xlink:href="#icon_r_box_02_35_Layer2_12_MEMBER_0_MEMBER_0_FILL"/>

<use xlink:href="#icon_r_box_02_35_Layer2_12_MEMBER_0_MEMBER_0_1_STROKES"/>
</g>

<g transform="matrix( 1, 0, 0, 1, -41.95,-34) ">
<use xlink:href="#icon_r_box_02_35_Layer2_12_MEMBER_0_MEMBER_1_FILL"/>
</g>

<g transform="matrix( 1, 0, 0, 1, -41.95,-34) ">
<use xlink:href="#icon_r_box_02_35_Layer2_12_MEMBER_0_MEMBER_2_1_STROKES"/>
</g>

<g transform="matrix( 1, 0, 0, 1, -41.95,-34) ">
<use xlink:href="#icon_r_box_02_35_Layer2_12_MEMBER_1_MEMBER_0_FILL"/>

<use xlink:href="#icon_r_box_02_35_Layer2_12_MEMBER_1_MEMBER_0_1_STROKES"/>
</g>

<g transform="matrix( 1, 0, 0, 1, -41.95,-34) ">
<use xlink:href="#icon_r_box_02_35_Layer2_12_MEMBER_1_MEMBER_1_FILL"/>
</g>

<g transform="matrix( 1, 0, 0, 1, -41.95,-34) ">
<use xlink:href="#icon_r_box_02_35_Layer2_12_MEMBER_1_MEMBER_2_1_STROKES"/>
</g>

<g transform="matrix( 1, 0, 0, 1, -41.95,-34) ">
<use xlink:href="#icon_r_box_02_35_Layer2_13_FILL"/>

<use xlink:href="#icon_r_box_02_35_Layer2_13_1_STROKES"/>
</g>

<g transform="matrix( 1, 0, 0, 1, -41.95,-34) ">
<use xlink:href="#icon_r_box_02_35_Layer2_14_1_STROKES"/>
</g>

<g transform="matrix( 1, 0, 0, 1, -41.95,-34) ">
<use xlink:href="#icon_r_box_02_35_Layer2_15_1_STROKES"/>
</g>

<g transform="matrix( 1, 0, 0, 1, -41.95,-34) ">
<use xlink:href="#icon_r_box_02_35_Layer2_16_1_STROKES"/>
</g>

<g transform="matrix( 1, 0, 0, 1, -41.95,-34) ">
<use xlink:href="#icon_r_box_02_35_Layer2_17_1_STROKES"/>
</g>

<g transform="matrix( 1, 0, 0, 1, -41.95,-34) ">
<use xlink:href="#icon_r_box_02_35_Layer2_18_MEMBER_0_1_STROKES"/>
</g>

<g transform="matrix( 1, 0, 0, 1, -41.95,-34) ">
<use xlink:href="#icon_r_box_02_35_Layer2_19_FILL"/>

<use xlink:href="#icon_r_box_02_35_Layer2_19_1_STROKES"/>
</g>

<g transform="matrix( 1, 0, 0, 1, -41.95,-34) ">
<use xlink:href="#icon_r_box_02_35_Layer2_20_MEMBER_0_1_STROKES"/>
</g>

<g transform="matrix( 1, 0, 0, 1, 0,0) ">
<use xlink:href="#icon_r_box_02_35_Layer1_0_FILL"/>
</g>
</g>
</svg>
