
<svg xmlns="http://www.w3.org/2000/svg" version="1.1" xmlns:xlink="http://www.w3.org/1999/xlink" preserveAspectRatio="none" x="0px" y="0px" width="130px" height="115px" viewBox="0 0 130 115">
<defs>
<g id="icon_r_box_02_50_Layer3_0_FILL">
<path fill="#FFFFFF" fill-opacity="0" stroke="none" d="
M 65 -55
L -65 -55 -65 25 65 25 65 -55 Z"/>
</g>

<g id="icon_r_box_02_50_Layer3_1_FILL">
<path fill="#FFFFFF" fill-opacity="0" stroke="none" d="
M 65.05 49.95
L 65.05 24.95 -64.95 24.95 -64.95 49.95 65.05 49.95 Z"/>
</g>

<g id="icon_r_box_02_50_Layer3_2_FILL">
<path fill="#FFFFFF" fill-opacity="0" stroke="none" d="
M 65 -52.85
L 65 -57.85 -65 -57.85 -65 -52.85 65 -52.85 Z"/>
</g>

<g id="icon_r_box_02_50_Layer3_3_FILL">
<path fill="#FFFFFF" fill-opacity="0" stroke="none" d="
M 65 54.95
L 65 49.95 -65 49.95 -65 54.95 65 54.95 Z"/>
</g>

<g id="icon_r_box_02_50_Layer2_0_MEMBER_1_MEMBER_0_MEMBER_0_FILL">
<path fill="#FF434B" stroke="none" d="
M 22.75 7.75
Q 22.75 5.4 21.05 3.7 19.35 2 16.95 2 14.6 2 12.9 3.7 11.2 5.4 11.2 7.75
L 11.45 9.8 9.55 8.95
Q 7.2 8.25 5.15 9.3 3 10.4 2.3 12.65 1.55 14.95 2.65 17.05 3.7 19.2 6 19.95
L 8.05 20.35 6.6 21.9
Q 5.2 23.8 5.6 26.15 6 28.5 7.9 29.95 9.4 31 11.3 31 14.25 31 15.95 28.65 16.4 28.1 16.95 26.85 17.7 28.25 18 28.65 19.7 31 22.65 31 24.55 31 26.05 29.95 27.95 28.5 28.35 26.15 28.7 23.8 27.3 21.9 26.95 21.35 25.9 20.35 27.1 20.2 27.95 19.95 30.25 19.15 31.3 17.05 32.4 14.9 31.65 12.65 30.95 10.4 28.8 9.3 26.7 8.25 24.4 8.95
L 22.5 9.85 22.75 7.75 Z"/>
</g>

<g id="icon_r_box_02_50_Layer2_0_MEMBER_1_MEMBER_0_MEMBER_1_FILL">
<path fill="#000000" stroke="none" d="
M 24.7 6.85
Q 24.3 3.95 22.15 2 19.95 0 16.95 0 14 0 11.8 2 9.65 3.95 9.25 6.85 8.5 6.7 7.75 6.7 5.95 6.7 4.25 7.55 1.45 8.9 0.4 12.05 -0.55 14.85 0.65 17.55 1.85 20.25 4.5 21.5 3.05 24.05 3.7 26.9 4.3 29.8 6.7 31.55 8.75 33 11.3 33 14.65 33 16.95 30.55 19.3 33 22.65 33 25.2 33 27.2 31.55 29.6 29.8 30.25 26.9 30.9 24.05 29.45 21.5 31.9 20.3 33.1 17.95 34.55 15.1 33.55 12.05 32.5 8.9 29.7 7.55 28 6.7 26.2 6.7 25.4 6.7 24.7 6.85
M 26.2 8.7
Q 27.55 8.7 28.8 9.3 30.95 10.4 31.65 12.65 32.4 14.9 31.3 17.05 30.25 19.15 27.95 19.95 27.1 20.2 25.9 20.35 26.95 21.35 27.3 21.9 28.7 23.8 28.35 26.15 27.95 28.5 26.05 29.95 24.55 31 22.65 31 19.7 31 18 28.65 17.7 28.25 16.95 26.85 16.4 28.1 15.95 28.65 14.25 31 11.3 31 9.4 31 7.9 29.95 6 28.5 5.6 26.15 5.2 23.8 6.6 21.9
L 8.05 20.35 6 19.95
Q 3.7 19.2 2.65 17.05 1.55 14.95 2.3 12.65 3 10.4 5.15 9.3 6.45 8.7 7.75 8.7 8.55 8.7 9.55 8.95
L 11.45 9.8 11.2 7.75
Q 11.2 5.4 12.9 3.7 14.6 2 16.95 2 19.35 2 21.05 3.7 22.75 5.4 22.75 7.75
L 22.5 9.85 24.4 8.95
Q 25.4 8.7 26.2 8.7 Z"/>
</g>

<g id="icon_r_box_02_50_Layer2_0_MEMBER_1_MEMBER_1_FILL">
<path fill="#FFD252" stroke="none" d="
M 20.9 17.4
Q 20.9 15.8 19.75 14.65 18.6 13.5 16.95 13.5 15.35 13.5 14.2 14.65 13.05 15.8 13.05 17.4 13.05 19 14.2 20.15 15.35 21.3 16.95 21.3 18.6 21.3 19.75 20.15 20.9 19 20.9 17.4 Z"/>
</g>

<g id="icon_r_box_02_50_Layer2_0_MEMBER_2_MEMBER_0_FILL">
<path fill="#55D559" stroke="none" d="
M 35.95 35.1
Q 34.25 34.45 31.9 34.15 27.25 33.55 23.95 35.25 20.7 36.95 18.55 41.2 17.5 43.3 17.05 45.05
L 21.1 46
Q 25.75 46.6 29.05 44.9 32.3 43.2 34.45 38.95 35.55 36.85 35.95 35.1 Z"/>
</g>

<path id="icon_r_box_02_50_Layer2_0_MEMBER_0_MEMBER_0_1_STROKES" stroke="#000000" stroke-width="2" stroke-linejoin="miter" stroke-linecap="round" stroke-miterlimit="10" fill="none" d="
M 17 24.25
L 17 51.75"/>

<path id="icon_r_box_02_50_Layer2_0_MEMBER_1_MEMBER_1_1_STROKES" stroke="#000000" stroke-width="2" stroke-linejoin="miter" stroke-linecap="round" stroke-miterlimit="10" fill="none" d="
M 20.9 17.4
Q 20.9 19 19.75 20.15 18.6 21.3 16.95 21.3 15.35 21.3 14.2 20.15 13.05 19 13.05 17.4 13.05 15.8 14.2 14.65 15.35 13.5 16.95 13.5 18.6 13.5 19.75 14.65 20.9 15.8 20.9 17.4 Z"/>

<path id="icon_r_box_02_50_Layer2_0_MEMBER_2_MEMBER_0_1_STROKES" stroke="#000000" stroke-width="2" stroke-linejoin="round" stroke-linecap="round" fill="none" d="
M 35.95 35.1
Q 35.55 36.85 34.45 38.95 32.3 43.2 29.05 44.9 25.75 46.6 21.1 46
L 17.05 45.05
Q 17.5 43.3 18.55 41.2 20.7 36.95 23.95 35.25 27.25 33.55 31.9 34.15 34.25 34.45 35.95 35.1 Z"/>

<path id="icon_r_box_02_50_Layer2_0_MEMBER_2_MEMBER_1_MEMBER_0_1_STROKES" stroke="#000000" stroke-width="2" stroke-linejoin="round" stroke-linecap="round" fill="none" d="
M 17.05 45.05
L 27.2 39.7"/>
</defs>

<g transform="matrix( 1, 0, 0, 0.999603271484375, 65,60) ">
<g transform="matrix( 1, 0, 0, 1, 0,0) ">
<use xlink:href="#icon_r_box_02_50_Layer3_0_FILL"/>
</g>

<g transform="matrix( 1, 0, 0, 1, -0.05,0.05) ">
<use xlink:href="#icon_r_box_02_50_Layer3_1_FILL"/>
</g>

<g transform="matrix( 1, 0, 0, 1, 0,-2.15) ">
<use xlink:href="#icon_r_box_02_50_Layer3_2_FILL"/>
</g>

<g transform="matrix( 1, 0, 0, 1, 0,0.05) ">
<use xlink:href="#icon_r_box_02_50_Layer3_3_FILL"/>
</g>

<g transform="matrix( 1, 0, 0, 1, -17.95,-40.9) ">
<use xlink:href="#icon_r_box_02_50_Layer2_0_MEMBER_0_MEMBER_0_1_STROKES"/>
</g>

<g transform="matrix( 1, 0, 0, 1, -17.95,-40.9) ">
<use xlink:href="#icon_r_box_02_50_Layer2_0_MEMBER_1_MEMBER_0_MEMBER_0_FILL"/>
</g>

<g transform="matrix( 1, 0, 0, 1, -17.95,-40.9) ">
<use xlink:href="#icon_r_box_02_50_Layer2_0_MEMBER_1_MEMBER_0_MEMBER_1_FILL"/>
</g>

<g transform="matrix( 1, 0, 0, 1, -17.95,-40.9) ">
<use xlink:href="#icon_r_box_02_50_Layer2_0_MEMBER_1_MEMBER_1_FILL"/>

<use xlink:href="#icon_r_box_02_50_Layer2_0_MEMBER_1_MEMBER_1_1_STROKES"/>
</g>

<g transform="matrix( 1, 0, 0, 1, -17.95,-40.9) ">
<use xlink:href="#icon_r_box_02_50_Layer2_0_MEMBER_2_MEMBER_0_FILL"/>

<use xlink:href="#icon_r_box_02_50_Layer2_0_MEMBER_2_MEMBER_0_1_STROKES"/>
</g>

<g transform="matrix( 1, 0, 0, 1, -17.95,-40.9) ">
<use xlink:href="#icon_r_box_02_50_Layer2_0_MEMBER_2_MEMBER_1_MEMBER_0_1_STROKES"/>
</g>
</g>
</svg>
