
<svg xmlns="http://www.w3.org/2000/svg" version="1.1" xmlns:xlink="http://www.w3.org/1999/xlink" preserveAspectRatio="none" x="0px" y="0px" width="130px" height="115px" viewBox="0 0 130 115">
<defs>
<g id="icon_r_box_02_65_Layer3_0_FILL">
<path fill="#FFFFFF" fill-opacity="0" stroke="none" d="
M 65 -55
L -65 -55 -65 25 65 25 65 -55 Z"/>
</g>

<g id="icon_r_box_02_65_Layer3_1_FILL">
<path fill="#FFFFFF" fill-opacity="0" stroke="none" d="
M 65.05 49.95
L 65.05 24.95 -64.95 24.95 -64.95 49.95 65.05 49.95 Z"/>
</g>

<g id="icon_r_box_02_65_Layer3_2_FILL">
<path fill="#FFFFFF" fill-opacity="0" stroke="none" d="
M 65 -52.85
L 65 -57.85 -65 -57.85 -65 -52.85 65 -52.85 Z"/>
</g>

<g id="icon_r_box_02_65_Layer3_3_FILL">
<path fill="#FFFFFF" fill-opacity="0" stroke="none" d="
M 65 54.95
L 65 49.95 -65 49.95 -65 54.95 65 54.95 Z"/>
</g>

<g id="icon_r_box_02_65_Layer2_0_MEMBER_0_MEMBER_0_MEMBER_0_FILL">
<path fill="#1166E9" stroke="none" d="
M 9.9 35.95
L 9.9 30.2
Q 9.9 29.5 9.4 29 8.85 28.5 8.15 28.5
L 6.45 28.5
Q 5.75 28.5 5.2 29 4.7 29.5 4.7 30.2
L 4.7 35.95
Q 4.7 36.65 5.2 37.15 5.75 37.65 6.45 37.65
L 8.15 37.65
Q 8.85 37.65 9.4 37.15 9.9 36.65 9.9 35.95 Z"/>
</g>

<g id="icon_r_box_02_65_Layer2_0_MEMBER_0_MEMBER_0_MEMBER_1_FILL">
<path fill="#000000" stroke="none" d="
M 10.9 35.95
L 10.9 30.2
Q 10.9 29.1 10.1 28.3 9.3 27.5 8.15 27.5
L 6.45 27.5
Q 5.3 27.5 4.5 28.3 3.7 29.1 3.7 30.2
L 3.7 35.95
Q 3.7 37.05 4.5 37.85 5.3 38.65 6.45 38.65
L 8.15 38.65
Q 9.3 38.65 10.1 37.85 10.9 37.05 10.9 35.95
M 6.45 28.5
L 8.15 28.5
Q 8.85 28.5 9.4 29 9.9 29.5 9.9 30.2
L 9.9 35.95
Q 9.9 36.65 9.4 37.15 8.85 37.65 8.15 37.65
L 6.45 37.65
Q 5.75 37.65 5.2 37.15 4.7 36.65 4.7 35.95
L 4.7 30.2
Q 4.7 29.5 5.2 29 5.75 28.5 6.45 28.5 Z"/>
</g>

<g id="icon_r_box_02_65_Layer2_0_MEMBER_0_MEMBER_1_MEMBER_0_FILL">
<path fill="#1166E9" stroke="none" d="
M 28.55 35.95
L 28.55 30.2
Q 28.55 29.5 28.05 29 27.55 28.5 26.85 28.5
L 25.1 28.5
Q 24.4 28.5 23.9 29 23.4 29.5 23.4 30.2
L 23.4 35.95
Q 23.4 36.65 23.9 37.15 24.4 37.65 25.1 37.65
L 26.85 37.65
Q 27.55 37.65 28.05 37.15 28.55 36.65 28.55 35.95 Z"/>
</g>

<g id="icon_r_box_02_65_Layer2_0_MEMBER_0_MEMBER_1_MEMBER_1_FILL">
<path fill="#000000" stroke="none" d="
M 29.55 30.2
Q 29.55 29.1 28.75 28.3 28 27.5 26.85 27.5
L 25.1 27.5
Q 24 27.5 23.2 28.3 22.4 29.1 22.4 30.2
L 22.4 35.95
Q 22.4 37.1 23.2 37.85 24 38.65 25.1 38.65
L 26.85 38.65
Q 28 38.65 28.75 37.85 29.55 37.1 29.55 35.95
L 29.55 30.2
M 26.85 28.5
Q 27.55 28.5 28.05 29 28.55 29.5 28.55 30.2
L 28.55 35.95
Q 28.55 36.65 28.05 37.15 27.55 37.65 26.85 37.65
L 25.1 37.65
Q 24.4 37.65 23.9 37.15 23.4 36.65 23.4 35.95
L 23.4 30.2
Q 23.4 29.5 23.9 29 24.4 28.5 25.1 28.5
L 26.85 28.5 Z"/>
</g>

<g id="icon_r_box_02_65_Layer2_0_MEMBER_1_MEMBER_0_FILL">
<path fill="#1166E9" stroke="none" d="
M 32.3 10.2
Q 32.3 7.65 30.5 5.85 28.7 4.05 26.1 4.05
L 24.25 4.05 24.25 3.85
Q 24.25 2.65 23.4 1.85 22.55 1 21.35 1
L 11.9 1
Q 10.75 1 9.9 1.85 9.05 2.65 9.05 3.85
L 9.05 4.05 7.15 4.05
Q 4.6 4.05 2.8 5.85 1 7.65 1 10.2
L 1 30.25
Q 1 31.55 1.9 32.45 2.85 33.35 4.1 33.35
L 29.15 33.35
Q 30.45 33.35 31.4 32.45 32.3 31.55 32.3 30.25
L 32.3 10.2 Z"/>
</g>

<g id="icon_r_box_02_65_Layer2_0_MEMBER_1_MEMBER_1_FILL">
<path fill="#000000" stroke="none" d="
M 33.3 10.2
Q 33.3 7.25 31.2 5.15 29.1 3.05 26.1 3.05
L 25.15 3.05
Q 24.85 1.75 23.8 0.85 22.75 0 21.35 0
L 11.9 0
Q 10.5 0 9.45 0.85 8.4 1.75 8.15 3.05
L 7.15 3.05
Q 4.2 3.05 2.1 5.15 0 7.25 0 10.2
L 0 30.25
Q 0 31.95 1.2 33.15 2.4 34.35 4.1 34.35
L 29.15 34.35
Q 30.85 34.35 32.1 33.15 33.3 31.95 33.3 30.25
L 33.3 10.2
M 30.5 5.85
Q 32.3 7.65 32.3 10.2
L 32.3 30.25
Q 32.3 31.55 31.4 32.45 30.45 33.35 29.15 33.35
L 4.1 33.35
Q 2.85 33.35 1.9 32.45 1 31.55 1 30.25
L 1 10.2
Q 1 7.65 2.8 5.85 4.6 4.05 7.15 4.05
L 9.05 4.05 9.05 3.85
Q 9.05 2.65 9.9 1.85 10.75 1 11.9 1
L 21.35 1
Q 22.55 1 23.4 1.85 24.25 2.65 24.25 3.85
L 24.25 4.05 26.1 4.05
Q 28.7 4.05 30.5 5.85 Z"/>
</g>

<g id="icon_r_box_02_65_Layer2_0_MEMBER_2_FILL">
<path fill="#FFFFFF" stroke="none" d="
M 28.3 19.7
L 28.3 11.1
Q 28.3 9.85 27.4 9 26.5 8.1 25.25 8.1
L 8 8.1
Q 6.75 8.1 5.9 9 5 9.85 5 11.1
L 5 19.7 28.3 19.7 Z"/>
</g>

<g id="icon_r_box_02_65_Layer2_0_MEMBER_3_MEMBER_0_FILL">
<path fill="#FFFFFF" stroke="none" d="
M 9.85 27.7
Q 9.85 26.7 9.15 26 8.4 25.3 7.4 25.3 6.45 25.3 5.7 26 5 26.75 5 27.7 5 28.7 5.7 29.45 6.4 30.15 7.4 30.15 8.4 30.15 9.15 29.45 9.85 28.7 9.85 27.7 Z"/>
</g>

<g id="icon_r_box_02_65_Layer2_0_MEMBER_3_MEMBER_1_FILL">
<path fill="#FFFFFF" stroke="none" d="
M 28.3 27.7
Q 28.3 26.7 27.6 26 26.85 25.3 25.85 25.3 24.85 25.3 24.15 26 23.45 26.7 23.45 27.7 23.45 28.7 24.15 29.45 24.85 30.15 25.85 30.15 26.85 30.15 27.6 29.45 28.3 28.7 28.3 27.7 Z"/>
</g>
</defs>

<g transform="matrix( 1, 0, 0, 0.999603271484375, 65,60) ">
<g transform="matrix( 1, 0, 0, 1, 0,0) ">
<use xlink:href="#icon_r_box_02_65_Layer3_0_FILL"/>
</g>

<g transform="matrix( 1, 0, 0, 1, -0.05,0.05) ">
<use xlink:href="#icon_r_box_02_65_Layer3_1_FILL"/>
</g>

<g transform="matrix( 1, 0, 0, 1, 0,-2.15) ">
<use xlink:href="#icon_r_box_02_65_Layer3_2_FILL"/>
</g>

<g transform="matrix( 1, 0, 0, 1, 0,0.05) ">
<use xlink:href="#icon_r_box_02_65_Layer3_3_FILL"/>
</g>

<g transform="matrix( 1, 0, 0, 1, -16.65,-34.35) ">
<use xlink:href="#icon_r_box_02_65_Layer2_0_MEMBER_0_MEMBER_0_MEMBER_0_FILL"/>
</g>

<g transform="matrix( 1, 0, 0, 1, -16.65,-34.35) ">
<use xlink:href="#icon_r_box_02_65_Layer2_0_MEMBER_0_MEMBER_0_MEMBER_1_FILL"/>
</g>

<g transform="matrix( 1, 0, 0, 1, -16.65,-34.35) ">
<use xlink:href="#icon_r_box_02_65_Layer2_0_MEMBER_0_MEMBER_1_MEMBER_0_FILL"/>
</g>

<g transform="matrix( 1, 0, 0, 1, -16.65,-34.35) ">
<use xlink:href="#icon_r_box_02_65_Layer2_0_MEMBER_0_MEMBER_1_MEMBER_1_FILL"/>
</g>

<g transform="matrix( 1, 0, 0, 1, -16.65,-34.35) ">
<use xlink:href="#icon_r_box_02_65_Layer2_0_MEMBER_1_MEMBER_0_FILL"/>
</g>

<g transform="matrix( 1, 0, 0, 1, -16.65,-34.35) ">
<use xlink:href="#icon_r_box_02_65_Layer2_0_MEMBER_1_MEMBER_1_FILL"/>
</g>

<g transform="matrix( 1, 0, 0, 1, -16.65,-34.35) ">
<use xlink:href="#icon_r_box_02_65_Layer2_0_MEMBER_2_FILL"/>
</g>

<g transform="matrix( 1, 0, 0, 1, -16.65,-34.35) ">
<use xlink:href="#icon_r_box_02_65_Layer2_0_MEMBER_3_MEMBER_0_FILL"/>
</g>

<g transform="matrix( 1, 0, 0, 1, -16.65,-34.35) ">
<use xlink:href="#icon_r_box_02_65_Layer2_0_MEMBER_3_MEMBER_1_FILL"/>
</g>
</g>
</svg>
