
<svg xmlns="http://www.w3.org/2000/svg" version="1.1" xmlns:xlink="http://www.w3.org/1999/xlink" preserveAspectRatio="none" x="0px" y="0px" width="130px" height="115px" viewBox="0 0 130 115">
<defs>
<g id="icon_r_box_02_24_Layer3_0_FILL">
<path fill="#FFFFFF" fill-opacity="0" stroke="none" d="
M 65 -55
L -65 -55 -65 25 65 25 65 -55 Z"/>
</g>

<g id="icon_r_box_02_24_Layer3_1_FILL">
<path fill="#FFFFFF" fill-opacity="0" stroke="none" d="
M 65.05 49.95
L 65.05 24.95 -64.95 24.95 -64.95 49.95 65.05 49.95 Z"/>
</g>

<g id="icon_r_box_02_24_Layer3_2_FILL">
<path fill="#FFFFFF" fill-opacity="0" stroke="none" d="
M 65 -52.85
L 65 -57.85 -65 -57.85 -65 -52.85 65 -52.85 Z"/>
</g>

<g id="icon_r_box_02_24_Layer3_3_FILL">
<path fill="#FFFFFF" fill-opacity="0" stroke="none" d="
M 65 54.95
L 65 49.95 -65 49.95 -65 54.95 65 54.95 Z"/>
</g>

<g id="icon_r_box_02_24_Layer2_0_MEMBER_0_MEMBER_1_FILL">
<path fill="#FFFFFF" stroke="none" d="
M 34.65 2.15
Q 32.95 0.5 30.6 0.5
L 6.25 0.5
Q 3.9 0.5 2.2 2.15 0.5 3.85 0.5 6.2
L 0.5 35.55
Q 0.5 37.1 1.6 38.15 2.65 39.2 4.15 39.2
L 32.7 39.2
Q 34.2 39.2 35.3 38.15 36.35 37.1 36.35 35.55
L 36.35 6.2
Q 36.35 3.85 34.65 2.15 Z"/>
</g>

<g id="icon_r_box_02_24_Layer2_0_MEMBER_0_MEMBER_2_FILL">
<path fill="#1CB500" stroke="none" d="
M 36.35 34.85
L 36.35 28.2 0.65 28.2 0.65 34.85 36.35 34.85 Z"/>
</g>

<g id="icon_r_box_02_24_Layer2_0_MEMBER_0_MEMBER_3_MEMBER_0_MEMBER_0_FILL">
<path fill="#FFFFB9" stroke="none" d="
M 8.55 30.55
Q 8.15 30.15 7.55 30.15
L 4.25 30.15
Q 3.7 30.15 3.3 30.55 2.9 30.95 2.9 31.5 2.9 32.1 3.3 32.5 3.7 32.9 4.25 32.9
L 7.55 32.9
Q 8.15 32.9 8.55 32.5 8.95 32.1 8.95 31.5 8.95 30.95 8.55 30.55 Z"/>
</g>

<g id="icon_r_box_02_24_Layer2_0_MEMBER_0_MEMBER_3_MEMBER_1_MEMBER_0_FILL">
<path fill="#FFFFB9" stroke="none" d="
M 32.6 32.9
Q 33.15 32.9 33.55 32.5 33.95 32.1 33.95 31.5 33.95 30.95 33.55 30.55 33.15 30.15 32.6 30.15
L 29.3 30.15
Q 28.7 30.15 28.3 30.55 27.9 30.95 27.9 31.5 27.9 32.1 28.3 32.5 28.7 32.9 29.3 32.9
L 32.6 32.9 Z"/>
</g>

<g id="icon_r_box_02_24_Layer2_0_MEMBER_0_MEMBER_4_FILL">
<path fill="#FFFFFF" stroke="none" d="
M 34.65 2.15
Q 32.95 0.5 30.6 0.5
L 6.25 0.5
Q 3.9 0.5 2.2 2.15 0.5 3.85 0.5 6.2
L 0.5 7.55 36.35 7.55 36.35 6.2
Q 36.35 3.85 34.65 2.15 Z"/>
</g>

<g id="icon_r_box_02_24_Layer2_0_MEMBER_0_MEMBER_5_MEMBER_0_FILL">
<path fill="#BAE6FF" stroke="none" d="
M 32.4 24.4
Q 33.05 23.75 33.05 22.8
L 33.05 13.3
Q 33.05 12.35 32.4 11.7 31.75 11.05 30.8 11.05
L 6.2 11.05
Q 5.25 11.05 4.6 11.7 3.95 12.35 3.95 13.3
L 3.95 22.8
Q 3.95 23.75 4.6 24.4 5.25 25.05 6.2 25.05
L 30.8 25.05
Q 31.75 25.05 32.4 24.4 Z"/>
</g>

<g id="icon_r_box_02_24_Layer2_0_MEMBER_0_MEMBER_5_MEMBER_1_FILL">
<path fill="#FFFFFF" stroke="none" d="
M 17.35 25.05
L 21.8 11.1 15.7 11.1 11.25 25.05 17.35 25.05 Z"/>
</g>

<g id="icon_r_box_02_24_Layer2_0_MEMBER_0_MEMBER_5_MEMBER_2_FILL">
<path fill="#FFFFFF" stroke="none" d="
M 8.95 25.05
L 13.4 11.1 10.65 11.1 6.2 25.05 8.95 25.05 Z"/>
</g>

<g id="icon_r_box_02_24_Layer2_0_MEMBER_0_MEMBER_5_MEMBER_3_FILL">
<path fill="#FFFFFF" stroke="none" d="
M 23.15 25.05
L 27.6 11.1 25.85 11.1 21.4 25.05 23.15 25.05 Z"/>
</g>

<g id="icon_r_box_02_24_Layer2_0_MEMBER_0_MEMBER_6_FILL">
<path fill="#C9E1E7" stroke="none" d="
M 22.9 5.6
L 22.9 2.45 13.9 2.45 13.9 5.6 22.9 5.6 Z"/>
</g>

<path id="icon_r_box_02_24_Layer2_0_MEMBER_0_MEMBER_0_MEMBER_0_1_STROKES" stroke="#000000" stroke-width="1" stroke-linejoin="round" stroke-linecap="round" fill="none" d="
M 11.45 39.4
L 3.85 50.2"/>

<path id="icon_r_box_02_24_Layer2_0_MEMBER_0_MEMBER_0_MEMBER_1_1_STROKES" stroke="#000000" stroke-width="1" stroke-linejoin="round" stroke-linecap="round" fill="none" d="
M 25.4 39.4
L 33 50.2"/>

<path id="icon_r_box_02_24_Layer2_0_MEMBER_0_MEMBER_0_MEMBER_2_MEMBER_0_1_STROKES" stroke="#000000" stroke-width="1" stroke-linejoin="round" stroke-linecap="round" fill="none" d="
M 9 42.85
L 27.85 42.85"/>

<path id="icon_r_box_02_24_Layer2_0_MEMBER_0_MEMBER_0_MEMBER_2_MEMBER_1_1_STROKES" stroke="#000000" stroke-width="1" stroke-linejoin="round" stroke-linecap="round" fill="none" d="
M 5.55 47.8
L 31.3 47.8"/>

<path id="icon_r_box_02_24_Layer2_0_MEMBER_0_MEMBER_1_1_STROKES" stroke="#000000" stroke-width="1" stroke-linejoin="round" stroke-linecap="round" fill="none" d="
M 32.7 39.2
L 4.15 39.2
Q 2.65 39.2 1.6 38.15 0.5 37.1 0.5 35.55
L 0.5 6.2
Q 0.5 3.85 2.2 2.15 3.9 0.5 6.25 0.5
L 30.6 0.5
Q 32.95 0.5 34.65 2.15 36.35 3.85 36.35 6.2
L 36.35 35.55
Q 36.35 37.1 35.3 38.15 34.2 39.2 32.7 39.2 Z"/>

<path id="icon_r_box_02_24_Layer2_0_MEMBER_0_MEMBER_2_1_STROKES" stroke="#000000" stroke-width="1" stroke-linejoin="round" stroke-linecap="round" fill="none" d="
M 36.35 34.85
L 0.65 34.85 0.65 28.2 36.35 28.2 36.35 34.85 Z"/>

<path id="icon_r_box_02_24_Layer2_0_MEMBER_0_MEMBER_3_MEMBER_0_MEMBER_1_1_STROKES" stroke="#000000" stroke-width="1" stroke-linejoin="round" stroke-linecap="butt" fill="none" d="
M 7.55 32.9
L 4.25 32.9
Q 3.7 32.9 3.3 32.5 2.9 32.1 2.9 31.5 2.9 30.95 3.3 30.55 3.7 30.15 4.25 30.15
L 7.55 30.15
Q 8.15 30.15 8.55 30.55 8.95 30.95 8.95 31.5 8.95 32.1 8.55 32.5 8.15 32.9 7.55 32.9 Z"/>

<path id="icon_r_box_02_24_Layer2_0_MEMBER_0_MEMBER_3_MEMBER_1_MEMBER_1_1_STROKES" stroke="#000000" stroke-width="1" stroke-linejoin="round" stroke-linecap="butt" fill="none" d="
M 32.6 32.9
L 29.3 32.9
Q 28.7 32.9 28.3 32.5 27.9 32.1 27.9 31.5 27.9 30.95 28.3 30.55 28.7 30.15 29.3 30.15
L 32.6 30.15
Q 33.15 30.15 33.55 30.55 33.95 30.95 33.95 31.5 33.95 32.1 33.55 32.5 33.15 32.9 32.6 32.9 Z"/>

<path id="icon_r_box_02_24_Layer2_0_MEMBER_0_MEMBER_4_1_STROKES" stroke="#000000" stroke-width="1" stroke-linejoin="round" stroke-linecap="round" fill="none" d="
M 30.6 0.5
L 6.25 0.5
Q 3.9 0.5 2.2 2.15 0.5 3.85 0.5 6.2
L 0.5 7.55 36.35 7.55 36.35 6.2
Q 36.35 3.85 34.65 2.15 32.95 0.5 30.6 0.5 Z"/>

<path id="icon_r_box_02_24_Layer2_0_MEMBER_0_MEMBER_5_MEMBER_0_1_STROKES" stroke="#000000" stroke-width="1" stroke-linejoin="round" stroke-linecap="round" fill="none" d="
M 30.8 25.05
L 6.2 25.05
Q 5.25 25.05 4.6 24.4 3.95 23.75 3.95 22.8
L 3.95 13.3
Q 3.95 12.35 4.6 11.7 5.25 11.05 6.2 11.05
L 30.8 11.05
Q 31.75 11.05 32.4 11.7 33.05 12.35 33.05 13.3
L 33.05 22.8
Q 33.05 23.75 32.4 24.4 31.75 25.05 30.8 25.05 Z"/>

<path id="icon_r_box_02_24_Layer2_0_MEMBER_0_MEMBER_5_MEMBER_4_1_STROKES" stroke="#000000" stroke-width="1" stroke-linejoin="round" stroke-linecap="round" fill="none" d="
M 18.4 11.05
L 18.4 24.8"/>

<path id="icon_r_box_02_24_Layer2_0_MEMBER_0_MEMBER_6_1_STROKES" stroke="#000000" stroke-width="1" stroke-linejoin="round" stroke-linecap="round" fill="none" d="
M 22.9 5.6
L 13.9 5.6 13.9 2.45 22.9 2.45 22.9 5.6 Z"/>

<path id="icon_r_box_02_24_Layer2_0_MEMBER_0_MEMBER_7_MEMBER_0_1_STROKES" stroke="#000000" stroke-width="1" stroke-linejoin="round" stroke-linecap="round" fill="none" d="
M 10.35 25.05
L 12.95 21.4"/>

<path id="icon_r_box_02_24_Layer2_0_MEMBER_0_MEMBER_8_MEMBER_0_1_STROKES" stroke="#000000" stroke-width="1" stroke-linejoin="round" stroke-linecap="round" fill="none" d="
M 24.55 25.05
L 27.15 21.4"/>

<path id="icon_r_box_02_24_Layer2_0_MEMBER_0_MEMBER_9_1_STROKES" stroke="#000000" stroke-width="1" stroke-linejoin="round" stroke-linecap="round" fill="none" d="
M 30.8 25.05
L 6.2 25.05
Q 5.25 25.05 4.6 24.4 3.95 23.75 3.95 22.8
L 3.95 13.3
Q 3.95 12.35 4.6 11.7 5.25 11.05 6.2 11.05
L 30.8 11.05
Q 31.75 11.05 32.4 11.7 33.05 12.35 33.05 13.3
L 33.05 22.8
Q 33.05 23.75 32.4 24.4 31.75 25.05 30.8 25.05 Z"/>

<path id="icon_r_box_02_24_Layer2_0_MEMBER_1_1_STROKES" stroke="#000000" stroke-width="1" stroke-linejoin="round" stroke-linecap="round" fill="none" d="
M 14.8 30.6
L 22.05 30.6"/>

<path id="icon_r_box_02_24_Layer2_0_MEMBER_2_1_STROKES" stroke="#000000" stroke-width="1" stroke-linejoin="round" stroke-linecap="round" fill="none" d="
M 14.8 32.45
L 22.05 32.45"/>
</defs>

<g transform="matrix( 1, 0, 0, 0.999603271484375, 65,60) ">
<g transform="matrix( 1, 0, 0, 1, 0,0) ">
<use xlink:href="#icon_r_box_02_24_Layer3_0_FILL"/>
</g>

<g transform="matrix( 1, 0, 0, 1, -0.05,0.05) ">
<use xlink:href="#icon_r_box_02_24_Layer3_1_FILL"/>
</g>

<g transform="matrix( 1, 0, 0, 1, 0,-2.15) ">
<use xlink:href="#icon_r_box_02_24_Layer3_2_FILL"/>
</g>

<g transform="matrix( 1, 0, 0, 1, 0,0.05) ">
<use xlink:href="#icon_r_box_02_24_Layer3_3_FILL"/>
</g>

<g transform="matrix( 1, 0, 0, 1, -18.4,-35.6) ">
<use xlink:href="#icon_r_box_02_24_Layer2_0_MEMBER_0_MEMBER_0_MEMBER_0_1_STROKES"/>
</g>

<g transform="matrix( 1, 0, 0, 1, -18.4,-35.6) ">
<use xlink:href="#icon_r_box_02_24_Layer2_0_MEMBER_0_MEMBER_0_MEMBER_1_1_STROKES"/>
</g>

<g transform="matrix( 1, 0, 0, 1, -18.4,-35.6) ">
<use xlink:href="#icon_r_box_02_24_Layer2_0_MEMBER_0_MEMBER_0_MEMBER_2_MEMBER_0_1_STROKES"/>
</g>

<g transform="matrix( 1, 0, 0, 1, -18.4,-35.6) ">
<use xlink:href="#icon_r_box_02_24_Layer2_0_MEMBER_0_MEMBER_0_MEMBER_2_MEMBER_1_1_STROKES"/>
</g>

<g transform="matrix( 1, 0, 0, 1, -18.4,-35.6) ">
<use xlink:href="#icon_r_box_02_24_Layer2_0_MEMBER_0_MEMBER_1_FILL"/>

<use xlink:href="#icon_r_box_02_24_Layer2_0_MEMBER_0_MEMBER_1_1_STROKES"/>
</g>

<g transform="matrix( 1, 0, 0, 1, -18.4,-35.6) ">
<use xlink:href="#icon_r_box_02_24_Layer2_0_MEMBER_0_MEMBER_2_FILL"/>

<use xlink:href="#icon_r_box_02_24_Layer2_0_MEMBER_0_MEMBER_2_1_STROKES"/>
</g>

<g transform="matrix( 1, 0, 0, 1, -18.4,-35.6) ">
<use xlink:href="#icon_r_box_02_24_Layer2_0_MEMBER_0_MEMBER_3_MEMBER_0_MEMBER_0_FILL"/>
</g>

<g transform="matrix( 1, 0, 0, 1, -18.4,-35.6) ">
<use xlink:href="#icon_r_box_02_24_Layer2_0_MEMBER_0_MEMBER_3_MEMBER_0_MEMBER_1_1_STROKES"/>
</g>

<g transform="matrix( 1, 0, 0, 1, -18.4,-35.6) ">
<use xlink:href="#icon_r_box_02_24_Layer2_0_MEMBER_0_MEMBER_3_MEMBER_1_MEMBER_0_FILL"/>
</g>

<g transform="matrix( 1, 0, 0, 1, -18.4,-35.6) ">
<use xlink:href="#icon_r_box_02_24_Layer2_0_MEMBER_0_MEMBER_3_MEMBER_1_MEMBER_1_1_STROKES"/>
</g>

<g transform="matrix( 1, 0, 0, 1, -18.4,-35.6) ">
<use xlink:href="#icon_r_box_02_24_Layer2_0_MEMBER_0_MEMBER_4_FILL"/>

<use xlink:href="#icon_r_box_02_24_Layer2_0_MEMBER_0_MEMBER_4_1_STROKES"/>
</g>

<g transform="matrix( 1, 0, 0, 1, -18.4,-35.6) ">
<use xlink:href="#icon_r_box_02_24_Layer2_0_MEMBER_0_MEMBER_5_MEMBER_0_FILL"/>

<use xlink:href="#icon_r_box_02_24_Layer2_0_MEMBER_0_MEMBER_5_MEMBER_0_1_STROKES"/>
</g>

<g transform="matrix( 1, 0, 0, 1, -18.4,-35.6) ">
<use xlink:href="#icon_r_box_02_24_Layer2_0_MEMBER_0_MEMBER_5_MEMBER_1_FILL"/>
</g>

<g transform="matrix( 1, 0, 0, 1, -18.4,-35.6) ">
<use xlink:href="#icon_r_box_02_24_Layer2_0_MEMBER_0_MEMBER_5_MEMBER_2_FILL"/>
</g>

<g transform="matrix( 1, 0, 0, 1, -18.4,-35.6) ">
<use xlink:href="#icon_r_box_02_24_Layer2_0_MEMBER_0_MEMBER_5_MEMBER_3_FILL"/>
</g>

<g transform="matrix( 1, 0, 0, 1, -18.4,-35.6) ">
<use xlink:href="#icon_r_box_02_24_Layer2_0_MEMBER_0_MEMBER_5_MEMBER_4_1_STROKES"/>
</g>

<g transform="matrix( 1, 0, 0, 1, -18.4,-35.6) ">
<use xlink:href="#icon_r_box_02_24_Layer2_0_MEMBER_0_MEMBER_6_FILL"/>

<use xlink:href="#icon_r_box_02_24_Layer2_0_MEMBER_0_MEMBER_6_1_STROKES"/>
</g>

<g transform="matrix( 1, 0, 0, 1, -18.4,-35.6) ">
<use xlink:href="#icon_r_box_02_24_Layer2_0_MEMBER_0_MEMBER_7_MEMBER_0_1_STROKES"/>
</g>

<g transform="matrix( 1, 0, 0, 1, -18.4,-35.6) ">
<use xlink:href="#icon_r_box_02_24_Layer2_0_MEMBER_0_MEMBER_8_MEMBER_0_1_STROKES"/>
</g>

<g transform="matrix( 1, 0, 0, 1, -18.4,-35.6) ">
<use xlink:href="#icon_r_box_02_24_Layer2_0_MEMBER_0_MEMBER_9_1_STROKES"/>
</g>

<g transform="matrix( 1, 0, 0, 1, -18.4,-35.6) ">
<use xlink:href="#icon_r_box_02_24_Layer2_0_MEMBER_1_1_STROKES"/>
</g>

<g transform="matrix( 1, 0, 0, 1, -18.4,-35.6) ">
<use xlink:href="#icon_r_box_02_24_Layer2_0_MEMBER_2_1_STROKES"/>
</g>
</g>
</svg>
