
<svg xmlns="http://www.w3.org/2000/svg" version="1.1" xmlns:xlink="http://www.w3.org/1999/xlink" preserveAspectRatio="none" x="0px" y="0px" width="130px" height="115px" viewBox="0 0 130 115">
<defs>
<g id="icon_r_box_02_25_Layer3_0_FILL">
<path fill="#FFFFFF" fill-opacity="0" stroke="none" d="
M 65 -55
L -65 -55 -65 25 65 25 65 -55 Z"/>
</g>

<g id="icon_r_box_02_25_Layer3_1_FILL">
<path fill="#FFFFFF" fill-opacity="0" stroke="none" d="
M 65.05 49.95
L 65.05 24.95 -64.95 24.95 -64.95 49.95 65.05 49.95 Z"/>
</g>

<g id="icon_r_box_02_25_Layer3_2_FILL">
<path fill="#FFFFFF" fill-opacity="0" stroke="none" d="
M 65 -52.85
L 65 -57.85 -65 -57.85 -65 -52.85 65 -52.85 Z"/>
</g>

<g id="icon_r_box_02_25_Layer3_3_FILL">
<path fill="#FFFFFF" fill-opacity="0" stroke="none" d="
M 65 54.95
L 65 49.95 -65 49.95 -65 54.95 65 54.95 Z"/>
</g>

<g id="icon_r_box_02_25_Layer2_0_MEMBER_1_MEMBER_0_FILL">
<path fill="#FFFFFF" stroke="none" d="
M 36.85 1.15
Q 36.25 0.5 35.3 0.5
L 18.65 0.5
Q 17.7 0.5 17.1 1.15 16.45 1.8 16.45 2.7
L 16.45 5.4 37.5 5.4 37.5 2.7
Q 37.5 1.8 36.85 1.15 Z"/>
</g>

<g id="icon_r_box_02_25_Layer2_0_MEMBER_1_MEMBER_1_MEMBER_0_FILL">
<path fill="#576868" stroke="none" d="
M 17.95 41.7
L 17.95 36.8 10.7 36.8 10.7 41.7
Q 10.7 42.4 11.2 42.9 11.7 43.4 12.4 43.4
L 16.25 43.4
Q 16.95 43.4 17.45 42.9 17.95 42.4 17.95 41.7 Z"/>
</g>

<g id="icon_r_box_02_25_Layer2_0_MEMBER_1_MEMBER_1_MEMBER_1_FILL">
<path fill="#576868" stroke="none" d="
M 43.25 41.7
L 43.25 36.8 36 36.8 36 41.7
Q 36 42.4 36.5 42.9 37 43.4 37.7 43.4
L 41.55 43.4
Q 42.25 43.4 42.75 42.9 43.25 42.4 43.25 41.7 Z"/>
</g>

<g id="icon_r_box_02_25_Layer2_0_MEMBER_1_MEMBER_2_MEMBER_0_MEMBER_0_MEMBER_0_FILL">
<path fill="#0161D2" stroke="none" d="
M 42.95 39.25
Q 43.85 39.25 44.5 38.6 45.1 37.95 45.1 37.1
L 45.1 7.95
Q 45.1 6.1 43.75 4.8 42.45 3.45 40.6 3.45
L 13.35 3.45
Q 11.5 3.45 10.2 4.8 8.85 6.1 8.85 7.95
L 8.85 37.1
Q 8.85 37.95 9.5 38.6 10.1 39.25 11 39.25
L 42.95 39.25 Z"/>
</g>

<g id="icon_r_box_02_25_Layer2_0_MEMBER_1_MEMBER_2_MEMBER_0_MEMBER_1_FILL">
<path fill="#FFFFFF" stroke="none" d="
M 9 37.85
Q 18.3 38.45 18.3 35.15 18.3 30.15 8.85 29.9
L 8.85 37.1 9 37.85 Z"/>
</g>

<g id="icon_r_box_02_25_Layer2_0_MEMBER_1_MEMBER_2_MEMBER_0_MEMBER_2_FILL">
<path fill="#FFFFFF" stroke="none" d="
M 44.95 37.85
L 45.1 37.1 45.1 29.9
Q 35.65 30.15 35.65 35.15 35.65 38.45 44.95 37.85 Z"/>
</g>

<g id="icon_r_box_02_25_Layer2_0_MEMBER_1_MEMBER_2_MEMBER_0_MEMBER_3_FILL">
<path fill="#BAE6FF" stroke="none" d="
M 42.25 23.75
Q 43 22.95 43 21.9
L 43 10.55 10.95 10.55 10.95 21.9
Q 10.95 22.95 11.75 23.75 12.5 24.5 13.55 24.5
L 40.4 24.5
Q 41.45 24.5 42.25 23.75 Z"/>
</g>

<g id="icon_r_box_02_25_Layer2_0_MEMBER_1_MEMBER_2_MEMBER_0_MEMBER_4_FILL">
<path fill="#FFFFFF" stroke="none" d="
M 20 24.45
L 25.4 10.55 22 10.55 16.6 24.45 20 24.45 Z"/>
</g>

<g id="icon_r_box_02_25_Layer2_0_MEMBER_1_MEMBER_2_MEMBER_0_MEMBER_5_FILL">
<path fill="#FFFFFF" stroke="none" d="
M 32.1 24.5
L 37.5 10.6 28.7 10.6 23.3 24.5 32.1 24.5 Z"/>
</g>

<g id="icon_r_box_02_25_Layer2_0_MEMBER_1_MEMBER_3_FILL">
<path fill="#242628" stroke="none" d="
M 42.35 6.35
Q 41.7 5.7 40.8 5.7
L 13.15 5.7
Q 12.25 5.7 11.6 6.35 10.95 6.95 10.95 7.85
L 10.95 10.55 43 10.55 43 7.85
Q 43 6.95 42.35 6.35 Z"/>
</g>

<g id="icon_r_box_02_25_Layer2_0_MEMBER_1_MEMBER_4_FILL">
<path fill="#3E4144" stroke="none" d="
M 36.5 9.2
L 36.5 7.05 17.45 7.05 17.45 9.2 36.5 9.2 Z"/>
</g>

<g id="icon_r_box_02_25_Layer2_0_MEMBER_1_MEMBER_6_FILL">
<path fill="#3E4144" stroke="none" d="
M 45.1 37.1
L 45.1 34.4 8.85 34.4 8.85 37.1
Q 8.85 37.95 9.5 38.6 10.1 39.25 11 39.25
L 42.95 39.25
Q 43.85 39.25 44.5 38.6 45.1 37.95 45.1 37.1 Z"/>
</g>

<g id="icon_r_box_02_25_Layer2_0_MEMBER_1_MEMBER_7_MEMBER_0_FILL">
<path fill="#FFD78A" stroke="none" d="
M 31.85 37.5
L 31.85 33.55 22.1 33.55 22.1 37.5 31.85 37.5 Z"/>
</g>

<g id="icon_r_box_02_25_Layer2_0_MEMBER_1_MEMBER_11_MEMBER_1_FILL">
<path fill="#C9E1E7" stroke="none" d="
M 29.1 30.5
Q 29.1 30.05 28.5 29.75 27.85 29.45 27 29.45 26.1 29.45 25.5 29.75 24.85 30.05 24.85 30.5 24.85 30.95 25.5 31.25 26.1 31.55 27 31.55 27.85 31.55 28.5 31.25 29.1 30.95 29.1 30.5 Z"/>
</g>

<path id="icon_r_box_02_25_Layer2_0_MEMBER_0_MEMBER_0_1_STROKES" stroke="#000000" stroke-width="1" stroke-linejoin="round" stroke-linecap="round" fill="none" d="
M 0.5 43.4
L 53.45 43.4"/>

<path id="icon_r_box_02_25_Layer2_0_MEMBER_1_MEMBER_0_1_STROKES" stroke="#000000" stroke-width="1" stroke-linejoin="round" stroke-linecap="round" fill="none" d="
M 35.3 0.5
L 18.65 0.5
Q 17.7 0.5 17.1 1.15 16.45 1.8 16.45 2.7
L 16.45 5.4 37.5 5.4 37.5 2.7
Q 37.5 1.8 36.85 1.15 36.25 0.5 35.3 0.5 Z"/>

<path id="icon_r_box_02_25_Layer2_0_MEMBER_1_MEMBER_1_MEMBER_0_1_STROKES" stroke="#000000" stroke-width="1" stroke-linejoin="round" stroke-linecap="round" fill="none" d="
M 17.95 36.8
L 10.7 36.8 10.7 41.7
Q 10.7 42.4 11.2 42.9 11.7 43.4 12.4 43.4
L 16.25 43.4
Q 16.95 43.4 17.45 42.9 17.95 42.4 17.95 41.7
L 17.95 36.8 Z"/>

<path id="icon_r_box_02_25_Layer2_0_MEMBER_1_MEMBER_1_MEMBER_1_1_STROKES" stroke="#000000" stroke-width="1" stroke-linejoin="round" stroke-linecap="round" fill="none" d="
M 43.25 36.8
L 36 36.8 36 41.7
Q 36 42.4 36.5 42.9 37 43.4 37.7 43.4
L 41.55 43.4
Q 42.25 43.4 42.75 42.9 43.25 42.4 43.25 41.7
L 43.25 36.8 Z"/>

<path id="icon_r_box_02_25_Layer2_0_MEMBER_1_MEMBER_2_MEMBER_0_MEMBER_0_MEMBER_0_1_STROKES" stroke="#000000" stroke-width="1" stroke-linejoin="round" stroke-linecap="round" fill="none" d="
M 42.95 39.25
L 11 39.25
Q 10.1 39.25 9.5 38.6 8.85 37.95 8.85 37.1
L 8.85 7.95
Q 8.85 6.1 10.2 4.8 11.5 3.45 13.35 3.45
L 40.6 3.45
Q 42.45 3.45 43.75 4.8 45.1 6.1 45.1 7.95
L 45.1 37.1
Q 45.1 37.95 44.5 38.6 43.85 39.25 42.95 39.25 Z"/>

<path id="icon_r_box_02_25_Layer2_0_MEMBER_1_MEMBER_2_MEMBER_0_MEMBER_1_1_STROKES" stroke="#000000" stroke-width="1" stroke-linejoin="round" stroke-linecap="round" fill="none" d="
M 18.3 35.15
Q 18.3 30.15 8.85 29.9
L 8.85 37.1 9 37.85
Q 18.3 38.45 18.3 35.15 Z"/>

<path id="icon_r_box_02_25_Layer2_0_MEMBER_1_MEMBER_2_MEMBER_0_MEMBER_2_1_STROKES" stroke="#000000" stroke-width="1" stroke-linejoin="round" stroke-linecap="round" fill="none" d="
M 35.65 35.15
Q 35.65 30.15 45.1 29.9
L 45.1 37.1 44.95 37.85
Q 35.65 38.45 35.65 35.15 Z"/>

<path id="icon_r_box_02_25_Layer2_0_MEMBER_1_MEMBER_2_MEMBER_0_MEMBER_3_1_STROKES" stroke="#000000" stroke-width="1" stroke-linejoin="round" stroke-linecap="round" fill="none" d="
M 40.4 24.5
L 13.55 24.5
Q 12.5 24.5 11.75 23.75 10.95 22.95 10.95 21.9
L 10.95 10.55 43 10.55 43 21.9
Q 43 22.95 42.25 23.75 41.45 24.5 40.4 24.5 Z"/>

<path id="icon_r_box_02_25_Layer2_0_MEMBER_1_MEMBER_2_MEMBER_1_1_STROKES" stroke="#000000" stroke-width="1" stroke-linejoin="round" stroke-linecap="round" fill="none" d="
M 45.1 9.3
L 48.1 9.3 48.1 14.35"/>

<path id="icon_r_box_02_25_Layer2_0_MEMBER_1_MEMBER_2_MEMBER_2_MEMBER_0_1_STROKES" stroke="#000000" stroke-width="1" stroke-linejoin="round" stroke-linecap="round" fill="none" d="
M 8.85 9.3
L 5.85 9.3 5.85 14.35"/>

<path id="icon_r_box_02_25_Layer2_0_MEMBER_1_MEMBER_3_1_STROKES" stroke="#000000" stroke-width="1" stroke-linejoin="round" stroke-linecap="round" fill="none" d="
M 40.8 5.7
L 13.15 5.7
Q 12.25 5.7 11.6 6.35 10.95 6.95 10.95 7.85
L 10.95 10.55 43 10.55 43 7.85
Q 43 6.95 42.35 6.35 41.7 5.7 40.8 5.7 Z"/>

<path id="icon_r_box_02_25_Layer2_0_MEMBER_1_MEMBER_5_1_STROKES" stroke="#000000" stroke-width="1" stroke-linejoin="round" stroke-linecap="round" fill="none" d="
M 26.95 10.55
L 26.95 24.5"/>

<path id="icon_r_box_02_25_Layer2_0_MEMBER_1_MEMBER_6_1_STROKES" stroke="#000000" stroke-width="1" stroke-linejoin="round" stroke-linecap="round" fill="none" d="
M 8.85 34.4
L 8.85 37.1
Q 8.85 37.95 9.5 38.6 10.1 39.25 11 39.25
L 42.95 39.25
Q 43.85 39.25 44.5 38.6 45.1 37.95 45.1 37.1
L 45.1 34.4 8.85 34.4 Z"/>

<path id="icon_r_box_02_25_Layer2_0_MEMBER_1_MEMBER_7_MEMBER_1_1_STROKES" stroke="#000000" stroke-width="1" stroke-linejoin="round" stroke-linecap="butt" fill="none" d="
M 31.85 37.5
L 22.1 37.5 22.1 33.55 31.85 33.55 31.85 37.5 Z"/>

<path id="icon_r_box_02_25_Layer2_0_MEMBER_1_MEMBER_8_MEMBER_0_1_STROKES" stroke="#000000" stroke-width="1" stroke-linejoin="round" stroke-linecap="round" fill="none" d="
M 17.45 24.5
L 19.7 21.8"/>

<path id="icon_r_box_02_25_Layer2_0_MEMBER_1_MEMBER_9_MEMBER_0_1_STROKES" stroke="#000000" stroke-width="1" stroke-linejoin="round" stroke-linecap="round" fill="none" d="
M 34.25 24.5
L 36.5 21.8"/>

<path id="icon_r_box_02_25_Layer2_0_MEMBER_1_MEMBER_10_1_STROKES" stroke="#000000" stroke-width="1" stroke-linejoin="round" stroke-linecap="round" fill="none" d="
M 40.4 24.5
L 13.55 24.5
Q 12.5 24.5 11.75 23.75 10.95 22.95 10.95 21.9
L 10.95 10.55 43 10.55 43 21.9
Q 43 22.95 42.25 23.75 41.45 24.5 40.4 24.5 Z"/>

<path id="icon_r_box_02_25_Layer2_0_MEMBER_1_MEMBER_11_MEMBER_0_MEMBER_0_1_STROKES" stroke="#000000" stroke-width="1" stroke-linejoin="round" stroke-linecap="round" fill="none" d="
M 21.5 30.5
L 32.45 30.5"/>

<path id="icon_r_box_02_25_Layer2_0_MEMBER_1_MEMBER_11_MEMBER_1_1_STROKES" stroke="#000000" stroke-width="1" stroke-linejoin="round" stroke-linecap="round" fill="none" d="
M 29.1 30.5
Q 29.1 30.95 28.5 31.25 27.85 31.55 27 31.55 26.1 31.55 25.5 31.25 24.85 30.95 24.85 30.5 24.85 30.05 25.5 29.75 26.1 29.45 27 29.45 27.85 29.45 28.5 29.75 29.1 30.05 29.1 30.5 Z"/>
</defs>

<g transform="matrix( 1, 0, 0, 0.999603271484375, 65,60) ">
<g transform="matrix( 1, 0, 0, 1, 0,0) ">
<use xlink:href="#icon_r_box_02_25_Layer3_0_FILL"/>
</g>

<g transform="matrix( 1, 0, 0, 1, -0.05,0.05) ">
<use xlink:href="#icon_r_box_02_25_Layer3_1_FILL"/>
</g>

<g transform="matrix( 1, 0, 0, 1, 0,-2.15) ">
<use xlink:href="#icon_r_box_02_25_Layer3_2_FILL"/>
</g>

<g transform="matrix( 1, 0, 0, 1, 0,0.05) ">
<use xlink:href="#icon_r_box_02_25_Layer3_3_FILL"/>
</g>

<g transform="matrix( 1, 0, 0, 1, -26.95,-33.7) ">
<use xlink:href="#icon_r_box_02_25_Layer2_0_MEMBER_0_MEMBER_0_1_STROKES"/>
</g>

<g transform="matrix( 1, 0, 0, 1, -26.95,-33.7) ">
<use xlink:href="#icon_r_box_02_25_Layer2_0_MEMBER_1_MEMBER_0_FILL"/>

<use xlink:href="#icon_r_box_02_25_Layer2_0_MEMBER_1_MEMBER_0_1_STROKES"/>
</g>

<g transform="matrix( 1, 0, 0, 1, -26.95,-33.7) ">
<use xlink:href="#icon_r_box_02_25_Layer2_0_MEMBER_1_MEMBER_1_MEMBER_0_FILL"/>

<use xlink:href="#icon_r_box_02_25_Layer2_0_MEMBER_1_MEMBER_1_MEMBER_0_1_STROKES"/>
</g>

<g transform="matrix( 1, 0, 0, 1, -26.95,-33.7) ">
<use xlink:href="#icon_r_box_02_25_Layer2_0_MEMBER_1_MEMBER_1_MEMBER_1_FILL"/>

<use xlink:href="#icon_r_box_02_25_Layer2_0_MEMBER_1_MEMBER_1_MEMBER_1_1_STROKES"/>
</g>

<g transform="matrix( 1, 0, 0, 1, -26.95,-33.7) ">
<use xlink:href="#icon_r_box_02_25_Layer2_0_MEMBER_1_MEMBER_2_MEMBER_0_MEMBER_0_MEMBER_0_FILL"/>

<use xlink:href="#icon_r_box_02_25_Layer2_0_MEMBER_1_MEMBER_2_MEMBER_0_MEMBER_0_MEMBER_0_1_STROKES"/>
</g>

<g transform="matrix( 1, 0, 0, 1, -26.95,-33.7) ">
<use xlink:href="#icon_r_box_02_25_Layer2_0_MEMBER_1_MEMBER_2_MEMBER_0_MEMBER_1_FILL"/>

<use xlink:href="#icon_r_box_02_25_Layer2_0_MEMBER_1_MEMBER_2_MEMBER_0_MEMBER_1_1_STROKES"/>
</g>

<g transform="matrix( 1, 0, 0, 1, -26.95,-33.7) ">
<use xlink:href="#icon_r_box_02_25_Layer2_0_MEMBER_1_MEMBER_2_MEMBER_0_MEMBER_2_FILL"/>

<use xlink:href="#icon_r_box_02_25_Layer2_0_MEMBER_1_MEMBER_2_MEMBER_0_MEMBER_2_1_STROKES"/>
</g>

<g transform="matrix( 1, 0, 0, 1, -26.95,-33.7) ">
<use xlink:href="#icon_r_box_02_25_Layer2_0_MEMBER_1_MEMBER_2_MEMBER_0_MEMBER_3_FILL"/>

<use xlink:href="#icon_r_box_02_25_Layer2_0_MEMBER_1_MEMBER_2_MEMBER_0_MEMBER_3_1_STROKES"/>
</g>

<g transform="matrix( 1, 0, 0, 1, -26.95,-33.7) ">
<use xlink:href="#icon_r_box_02_25_Layer2_0_MEMBER_1_MEMBER_2_MEMBER_0_MEMBER_4_FILL"/>
</g>

<g transform="matrix( 1, 0, 0, 1, -26.95,-33.7) ">
<use xlink:href="#icon_r_box_02_25_Layer2_0_MEMBER_1_MEMBER_2_MEMBER_0_MEMBER_5_FILL"/>
</g>

<g transform="matrix( 1, 0, 0, 1, -26.95,-33.7) ">
<use xlink:href="#icon_r_box_02_25_Layer2_0_MEMBER_1_MEMBER_2_MEMBER_1_1_STROKES"/>
</g>

<g transform="matrix( 1, 0, 0, 1, -26.95,-33.7) ">
<use xlink:href="#icon_r_box_02_25_Layer2_0_MEMBER_1_MEMBER_2_MEMBER_2_MEMBER_0_1_STROKES"/>
</g>

<g transform="matrix( 1, 0, 0, 1, -26.95,-33.7) ">
<use xlink:href="#icon_r_box_02_25_Layer2_0_MEMBER_1_MEMBER_3_FILL"/>

<use xlink:href="#icon_r_box_02_25_Layer2_0_MEMBER_1_MEMBER_3_1_STROKES"/>
</g>

<g transform="matrix( 1, 0, 0, 1, -26.95,-33.7) ">
<use xlink:href="#icon_r_box_02_25_Layer2_0_MEMBER_1_MEMBER_4_FILL"/>
</g>

<g transform="matrix( 1, 0, 0, 1, -26.95,-33.7) ">
<use xlink:href="#icon_r_box_02_25_Layer2_0_MEMBER_1_MEMBER_5_1_STROKES"/>
</g>

<g transform="matrix( 1, 0, 0, 1, -26.95,-33.7) ">
<use xlink:href="#icon_r_box_02_25_Layer2_0_MEMBER_1_MEMBER_6_FILL"/>

<use xlink:href="#icon_r_box_02_25_Layer2_0_MEMBER_1_MEMBER_6_1_STROKES"/>
</g>

<g transform="matrix( 1, 0, 0, 1, -26.95,-33.7) ">
<use xlink:href="#icon_r_box_02_25_Layer2_0_MEMBER_1_MEMBER_7_MEMBER_0_FILL"/>
</g>

<g transform="matrix( 1, 0, 0, 1, -26.95,-33.7) ">
<use xlink:href="#icon_r_box_02_25_Layer2_0_MEMBER_1_MEMBER_7_MEMBER_1_1_STROKES"/>
</g>

<g transform="matrix( 1, 0, 0, 1, -26.95,-33.7) ">
<use xlink:href="#icon_r_box_02_25_Layer2_0_MEMBER_1_MEMBER_8_MEMBER_0_1_STROKES"/>
</g>

<g transform="matrix( 1, 0, 0, 1, -26.95,-33.7) ">
<use xlink:href="#icon_r_box_02_25_Layer2_0_MEMBER_1_MEMBER_9_MEMBER_0_1_STROKES"/>
</g>

<g transform="matrix( 1, 0, 0, 1, -26.95,-33.7) ">
<use xlink:href="#icon_r_box_02_25_Layer2_0_MEMBER_1_MEMBER_10_1_STROKES"/>
</g>

<g transform="matrix( 1, 0, 0, 1, -26.95,-33.7) ">
<use xlink:href="#icon_r_box_02_25_Layer2_0_MEMBER_1_MEMBER_11_MEMBER_0_MEMBER_0_1_STROKES"/>
</g>

<g transform="matrix( 1, 0, 0, 1, -26.95,-33.7) ">
<use xlink:href="#icon_r_box_02_25_Layer2_0_MEMBER_1_MEMBER_11_MEMBER_1_FILL"/>

<use xlink:href="#icon_r_box_02_25_Layer2_0_MEMBER_1_MEMBER_11_MEMBER_1_1_STROKES"/>
</g>
</g>
</svg>
