
<svg xmlns="http://www.w3.org/2000/svg" version="1.1" xmlns:xlink="http://www.w3.org/1999/xlink" preserveAspectRatio="none" x="0px" y="0px" width="130px" height="115px" viewBox="0 0 130 115">
<defs>
<filter id="Filter_1" x="-23.13494484017817%" y="-23.173312224813714%" width="146.26988968035636%" height="146.34662444962743%" color-interpolation-filters="sRGB">
<feFlood flood-color="#000000" flood-opacity="1" in="SourceGraphic" result="result1"/>

<feGaussianBlur in="SourceGraphic" stdDeviation="1.6666666666666667,1.6666666666666667" result="result2"/>

<feComposite in2="result2" in="result1" operator="in" result="result3"/>

<feComposite in2="result3" in="SourceGraphic" operator="over" result="result4"/>
</filter>

<g id="icon_r_box_02_12_Layer3_0_FILL">
<path fill="#FFFFFF" fill-opacity="0" stroke="none" d="
M 65 -55
L -65 -55 -65 25 65 25 65 -55 Z"/>
</g>

<g id="icon_r_box_02_12_Layer3_1_FILL">
<path fill="#FFFFFF" fill-opacity="0" stroke="none" d="
M 65.05 49.95
L 65.05 24.95 -64.95 24.95 -64.95 49.95 65.05 49.95 Z"/>
</g>

<g id="icon_r_box_02_12_Layer3_2_FILL">
<path fill="#FFFFFF" fill-opacity="0" stroke="none" d="
M 65 -52.85
L 65 -57.85 -65 -57.85 -65 -52.85 65 -52.85 Z"/>
</g>

<g id="icon_r_box_02_12_Layer3_3_FILL">
<path fill="#FFFFFF" fill-opacity="0" stroke="none" d="
M 65 54.95
L 65 49.95 -65 49.95 -65 54.95 65 54.95 Z"/>
</g>

<g id="Duplicate_Items_Folder_vndtjs_0_Layer1_0_FILL">
<path fill="#FFFFFF" stroke="none" d="
M 62.2 31.1
Q 62.2 18.2 53.1 9.1 44 0 31.1 0 18.2 0 9.1 9.1 0 18.2 0 31.1 0 44 9.1 53.1 18.3943359375 62.3943359375 28.3 63.55 28.25 63.685546875 28.25 63.85
L 28.25 64.9
Q 28.25 65.4 28.85 65.75 28.9212890625 65.7974609375 29 65.85
L 28.05 67.1
Q 26.25 69.8 26.5 70.55 27.1 72 29.05 71.65
L 29.7 71.95
Q 29.9544921875 72.0294921875 30.15 72.05 30.959765625 77.0544921875 34.45 80.2 37.0775390625 82.551171875 42.45 84.55 50.016796875 87.5009765625 50.75 87.8
L 50.8 87.8
Q 54.9751953125 89.824609375 56.75 92.7 56.9576171875 93.076953125 57.35 93.15 57.7603515625 93.2697265625 58.1 93.05 58.4775390625 92.84296875 58.55 92.45 58.669140625 92.040234375 58.45 91.65 56.435546875 88.29296875 51.6 86 51.5982421875 85.9869140625 51.55 85.95 51.0677734375 85.776953125 43.15 82.7 38.2224609375 80.848828125 35.8 78.7 32.930859375 76.0869140625 32.2 72 32.3310546875 71.987109375 32.45 71.95
L 33.05 71.65
Q 35.05 72 35.65 70.55 35.9 69.8 34.05 67.1
L 33.15 65.85
Q 33.2533203125 65.814453125 33.35 65.75 33.9 65.4 33.9 64.9
L 33.9 63.85
Q 33.9 63.68828125 33.85 63.55 43.78515625 62.41484375 53.1 53.1 62.2 44 62.2 31.1 Z"/>
</g>

<g id="Duplicate_Items_Folder_vndtjs_0_Layer0_1_FILL">
<path fill="#A053F1" stroke="none" d="
M 56.25 72
L 53.55 72 51.15 75.25
Q 48.85 78.65 49.2 79.55 49.95 81.35 52.4 80.95
L 53.2 81.3
Q 54.2 81.65 54.9 81.6 55.6 81.65 56.6 81.3
L 57.4 80.95
Q 59.85 81.35 60.6 79.55 60.95 78.65 58.65 75.25
L 56.25 72 Z"/>
</g>

<g id="Duplicate_Items_Folder_vndtjs_0_Layer0_2_FILL">
<path fill="#7634BB" stroke="none" d="
M 30.25 62.6
Q 29.45 62.6 28.85 62.95 28.25 63.3 28.25 63.85
L 28.25 64.9
Q 28.25 65.4 28.85 65.75 29.45 66.15 30.25 66.15
L 31.9 66.15
Q 32.75 66.15 33.35 65.75 33.9 65.4 33.9 64.9
L 33.9 63.85
Q 33.9 63.3 33.35 62.95 32.75 62.6 31.9 62.6
L 30.25 62.6 Z"/>
</g>

<g id="Duplicate_Items_Folder_vndtjs_0_Layer0_3_FILL">
<path fill="#A053F1" stroke="none" d="
M 77.25 16.25
Q 68.15 7.15 55.25 7.15 42.35 7.15 33.25 16.25 24.15 25.35 24.15 38.25 24.15 51.15 33.25 60.25 43.85 70.85 55.25 70.85 66.65 70.85 77.25 60.25 86.35 51.15 86.35 38.25 86.35 25.35 77.25 16.25 Z"/>
</g>

<g id="Duplicate_Items_Folder_vndtjs_0_Layer0_4_FILL">
<path fill="#9848EC" stroke="none" d="
M 27.05 57.1
L 23.55 57.7 20.3 56.4
Q 19.9 56.25 19.45 56.3 19.05 56.4 18.8 56.7 18.5 57 18.5 57.4
L 18.05 60.1
Q 23.5265625 63.176953125 29.15 63.6
L 28.35 62 28.5 58.45
Q 28.6 58.05 28.4 57.7 28.15 57.4 27.75 57.2 27.4 57.05 27.05 57.1
M 9.55 42.7
L 6.4 41.2 4.4 38.25
Q 4.2 37.95 3.8 37.75 3.4 37.65 3.05 37.7 2.65 37.75 2.35 38.1
L 1.05 39.45 1.05 39.5 1.05 39.45
Q 2.7900390625 45.9078125 7.3 51.15 7.3392578125 51.0859375 7.35 51
L 7.75 47.5 9.95 44.65
Q 10.25 44.4 10.3 44 10.25 43.6 10.1 43.2 9.85 42.9 9.55 42.7
M 17 29.8
Q 16.55 29.85 16.25 30.05 16 30.35 15.9 30.75 15.75 31.15 15.85 31.45
L 16.95 34.85 16.2 38.3
Q 16.1 38.7 16.3 39 16.45 39.4 16.75 39.65 17.1 39.85 17.5 39.85
L 21.05 39.85 24.05 41.65
Q 24.45 41.85 24.85 41.85 25.2 41.8 25.55 41.5 25.85 41.3 25.95 40.9
L 27 37.55 29.7 35.15
Q 30 34.95 30.15 34.55 30.2 34.15 30.05 33.75 29.9 33.45 29.6 33.2
L 26.7 31.1 25.3 27.85
Q 25.15 27.55 24.8 27.3 24.45 27.1 24.1 27.1 23.65 27.1 23.3 27.35
L 20.5 29.4 17 29.8
M 6.5 16.7
L 4.7 14.45
Q 0.9462890625 20.336328125 0.2 27.45
L 3.25 26.6 6.65 27.55
Q 7.05 27.65 7.45 27.55 7.8 27.4 8.05 27.05 8.3 26.75 8.3 26.35
L 8.45 22.85 10.4 19.85
Q 10.65 19.55 10.65 19.15 10.6 18.75 10.4 18.4 10.15 18.1 9.8 17.95
L 6.5 16.7
M 28.35 1.6
Q 27.95 1.4 27.6 1.35
L 24.05 1.6 22.9 1
Q 22.7048828125 1.0638671875 22.45 1.1 20.4806640625 1.694921875 18.6 2.5
L 18.15 4.2 15.65 6.6
Q 15.3 6.95 15.3 7.3 15.15 7.7 15.35 8.05 15.5 8.45 15.8 8.65
L 18.8 10.6 20.35 13.75
Q 20.5 14.15 20.85 14.3 21.2 14.55 21.65 14.5 22 14.45 22.35 14.15
L 25.1 11.95 28.55 11.45
Q 28.95 11.4 29.3 11.1 29.55 10.85 29.65 10.4 29.75 10.05 29.6 9.65
L 28.3 6.4 28.9 2.9
Q 29 2.55 28.85 2.15 28.6 1.8 28.35 1.6
M 47.95 41.4
L 46.2 38.3
Q 46 38 45.6 37.8 45.2 37.6 44.85 37.65 44.45 37.7 44.15 38
L 41.6 40.45 38.1 41.15
Q 37.65 41.2 37.4 41.5 37.15 41.8 37.1 42.2 37.05 42.6 37.2 42.95
L 38.65 46.2 38.25 49.65
Q 38.2 50.05 38.4 50.4 38.6 50.8 39 51 39.3 51.15 39.75 51.1
L 43.25 50.65 46.45 52.15
Q 46.8 52.3 47.25 52.25 47.6 52.15 47.9 51.85 48.2 51.6 48.25 51.2
L 48.95 47.75 51.3 45.1
Q 51.6 44.85 51.65 44.45 51.65 44.05 51.5 43.65 51.3 43.3 51 43.1
L 47.95 41.4
M 56.3 33.15
Q 56 33.4 55.9 33.7 55.7 34.15 55.8 34.55 55.95 34.95 56.2 35.15
L 58.85 37.55 59.9 40.9
Q 60 41.3 60.3 41.45 60.3833984375 41.521484375 60.45 41.55 62.2 36.7013671875 62.2 31.1 62.2 29.0546875 61.95 27.1 61.912890625 27.1 61.85 27.1 61.45 27.1 61.1 27.25 60.75 27.45 60.65 27.85
L 59.2 31.05 56.3 33.15
M 48 21.9
L 49.35 18.6
Q 49.55 18.3 49.5 17.9 49.35 17.5 49.1 17.15 48.8 16.9 48.5 16.85
L 45 16.2 42.3 13.9
Q 42 13.65 41.6 13.55 41.2 13.55 40.9 13.7 40.5 13.85 40.3 14.25
L 38.65 17.35 35.65 19.15
Q 35.25 19.35 35.1 19.7 34.9 20.1 35 20.5 35.05 20.9 35.3 21.15
L 37.75 23.75 38.5 27.2
Q 38.6 27.6 38.9 27.8 39.2 28.1 39.6 28.15 40 28.2 40.35 28.05
L 43.55 26.55 47.05 26.85
Q 47.45 26.85 47.8 26.7 48.15 26.5 48.35 26.1 48.55 25.8 48.45 25.4
L 48 21.9
M 53.1 9.1
Q 52.3513671875 8.3513671875 51.55 7.65
L 50.85 10.8
Q 50.75 11.15 50.9 11.5 51.05 11.95 51.4 12.2 51.75 12.35 52.1 12.35
L 55.65 12.3 56.15 12.6
Q 54.7916015625 10.7916015625 53.1 9.1 Z"/>
</g>

<g id="Duplicate_Items_Folder_vndtjs_0_Layer0_5_FILL">
<path fill="#FFFFFF" fill-opacity="0.12941176470588237" stroke="none" d="
M 84.25 42.9
Q 84.25 41.35 83.15 40.25 82.05 39.15 80.5 39.15 78.95 39.15 77.85 40.25 76.75 41.35 76.75 42.9 76.75 44.45 77.85 45.55 78.95 46.65 80.5 46.65 82.05 46.65 83.15 45.55 84.25 44.45 84.25 42.9 Z"/>
</g>

<g id="Duplicate_Items_Folder_vndtjs_0_Layer0_6_FILL">
<path fill="#6100C7" fill-opacity="0.09803921568627451" stroke="none" d="
M 62.2 31.1
Q 62.2 18.2 53.1 9.1 51.823828125 7.823828125 50.45 6.7 57.2 15.008984375 57.2 26.1 57.2 39 48.1 48.1 37.5 58.7 26.1 58.7 16.2263671875 58.7 6.95 50.75 7.954296875 51.954296875 9.1 53.1 19.7 63.7 31.1 63.7 42.5 63.7 53.1 53.1 62.2 44 62.2 31.1 Z"/>
</g>

<path id="Duplicate_Items_Folder_vndtjs_0_Layer1_0_1_STROKES" stroke="#FFFFFF" stroke-width="8" stroke-linejoin="round" stroke-linecap="round" fill="none" d="
M 41.69410095214843 65.8502426147461
Q 41.02138061523438 69.02468719482422 41.53123016357422 69.62886657714844 42.6253173828125 70.75376281738282 44.307228088378906 69.70684051513672
L 45.0220932006836 69.74493103027343
Q 45.287928861379626 69.7245760023594 45.50961532592774 69.68523025512695 48.08177494406701 74.02047561407089 52.511572265625006 75.64135513305665 55.79949501752853 76.86216432452203 61.53938522338866 76.75360565185547 69.65164311528206 76.670873939991 70.46666259765625 76.6680061340332
L 70.52236404418944 76.67272262573242
Q 75.11785987615585 76.99408463835717 77.84014663696288 79.03147735595704 78.16328831911086 79.28157697319985 78.56408615112305 79.22741851806641 78.98034713864327 79.16352455019951 79.23775787353516 78.82443466186524 79.488618683815 78.5016204059124 79.43369903564452 78.10049514770509 79.36947764158249 77.6849953532219 79.03071517944336 77.42682342529297 75.90752761363983 75.03071352243424 70.59000854492187 74.6812614440918 70.56030800938606 74.67900953888893 70.53430709838867 74.67654495239258 69.98980981111526 74.68031705021859 61.504880523681635 74.77593536376953 56.232957375049594 74.85697324872017 53.21044006347657 73.74822311401367 49.5546856701374 72.39204317331314 47.39546585083008 68.87997970581056 47.47996076345444 68.80552511811257 47.57671966552735 68.72702484130859
L 48.023048400878906 68.22624969482422
Q 50.01051025390625 67.81108856201172 50.03116912841797 66.2420150756836 49.98579711914063 65.45276184082032 47.26783142089843 63.62935638427734
L 45.97834091186523 62.82451934814453
Q 46.051909554004666 62.73003024458885 46.117863464355466 62.63437042236328 46.499237060546875 62.10565490722657 46.31416320800781 61.64117736816407
L 45.925508117675776 60.66577453613281
Q 45.865648293495184 60.51554508209228 45.7680160522461 60.40559539794922 54.57715442180634 55.673610949516295 59.78235778808593 43.572671508789064 64.8675048828125 31.750836181640622 60.09259948730468 19.767315673828122 55.31769409179687 7.783795166015624 43.49585876464843 2.698648071289062 31.6740234375 -2.3864990234374996 19.6905029296875 2.388406372070312 7.706982421875001 7.163311767578126 2.621835327148439 18.985147094726564 -2.4633117675781246 30.806982421875 2.311593627929689 42.7905029296875 7.086499023437501 54.7740234375 18.90833435058594 59.859170532226564 30.982632035017016 65.0529139816761 40.61231536865235 62.45991516113281 40.61603997945785 62.60433950424194 40.676911926269526 62.75710906982422
L 41.06556701660156 63.732511901855474
Q 41.250640869140625 64.19698944091797 41.937565612792966 64.30003509521485 42.021357506513596 64.3177366912365 42.113923645019526 64.33740844726562
L 41.69410095214843 65.8502426147461 Z"/>

<path id="Duplicate_Items_Folder_vndtjs_0_Layer0_0_1_STROKES" stroke="#F3AD00" stroke-width="2" stroke-linejoin="round" stroke-linecap="round" fill="none" d="
M 46.127810668945315 68.65380554199218
Q 48.53592224121094 73.07649230957031 52.888275146484375 74.67924346923829 56.043495178222656 75.84402313232422 61.54940185546876 75.74922485351563 70.01709747314453 75.65837097167969 70.55560455322266 75.65908813476562 75.53171997070312 75.99067687988281 78.46269989013672 78.21360473632812"/>
</defs>

<g transform="matrix( 1, 0, 0, 0.999603271484375, 65,60) ">
<g transform="matrix( 1, 0, 0, 1, 0,0) ">
<use xlink:href="#icon_r_box_02_12_Layer3_0_FILL"/>
</g>

<g transform="matrix( 1, 0, 0, 1, -0.05,0.05) ">
<use xlink:href="#icon_r_box_02_12_Layer3_1_FILL"/>
</g>

<g transform="matrix( 1, 0, 0, 1, 0,-2.15) ">
<use xlink:href="#icon_r_box_02_12_Layer3_2_FILL"/>
</g>

<g transform="matrix( 1, 0, 0, 1, 0,0.05) ">
<use xlink:href="#icon_r_box_02_12_Layer3_3_FILL"/>
</g>

<g filter="url(#Filter_1)" transform="matrix( 0.9999847412109375, 0, 0, 1.000396728515625, -65,-60) ">
<g transform="matrix( 0.75, 0, 0, 0.74969482421875, 34.2,11.3) ">
<g transform="matrix( 0.928955078125, -0.370147705078125, 0.370147705078125, 0.928955078125, -9.2,13.9) ">
<use xlink:href="#Duplicate_Items_Folder_vndtjs_0_Layer1_0_FILL"/>

<use xlink:href="#Duplicate_Items_Folder_vndtjs_0_Layer1_0_1_STROKES" transform="matrix( 0.928985595703125, 0.370147705078125, -0.370147705078125, 0.928985595703125, 13.65,-9.5) "/>
</g>

<g transform="matrix( 0.928955078125, -0.370147705078125, 0.370147705078125, 0.928955078125, -34.3,16.2) ">
<use xlink:href="#Duplicate_Items_Folder_vndtjs_0_Layer0_0_1_STROKES" transform="matrix( 0.928985595703125, 0.370147705078125, -0.370147705078125, 0.928985595703125, 37.85,-2.35) "/>
</g>

<g transform="matrix( 0.7431640625, -0.296112060546875, 0.296112060546875, 0.7431640625, -18.55,25.05) ">
<use xlink:href="#Duplicate_Items_Folder_vndtjs_0_Layer0_1_FILL"/>
</g>

<g transform="matrix( 0.928955078125, -0.370147705078125, 0.370147705078125, 0.928955078125, -9.2,13.9) ">
<use xlink:href="#Duplicate_Items_Folder_vndtjs_0_Layer0_2_FILL"/>
</g>

<g transform="matrix( 0.928955078125, -0.370147705078125, 0.370147705078125, 0.928955078125, -34.25,16.15) ">
<use xlink:href="#Duplicate_Items_Folder_vndtjs_0_Layer0_3_FILL"/>
</g>

<g transform="matrix( 0.928955078125, -0.370147705078125, 0.370147705078125, 0.928955078125, -9.2,13.9) ">
<use xlink:href="#Duplicate_Items_Folder_vndtjs_0_Layer0_4_FILL"/>
</g>

<g transform="matrix( 0.8317108154296875, -1.3197021484375, 0.8797607421875, 0.554443359375, -93.5,99.6) ">
<use xlink:href="#Duplicate_Items_Folder_vndtjs_0_Layer0_5_FILL"/>
</g>

<g transform="matrix( 0.928955078125, -0.370147705078125, 0.370147705078125, 0.928955078125, -9.2,13.9) ">
<use xlink:href="#Duplicate_Items_Folder_vndtjs_0_Layer0_6_FILL"/>
</g>
</g>
</g>
</g>
</svg>
