
<svg xmlns="http://www.w3.org/2000/svg" version="1.1" xmlns:xlink="http://www.w3.org/1999/xlink" preserveAspectRatio="none" x="0px" y="0px" width="130px" height="115px" viewBox="0 0 130 115">
<defs>
<g id="icon_r_box_02_72_Layer3_0_FILL">
<path fill="#FFFFFF" fill-opacity="0" stroke="none" d="
M 65 -55
L -65 -55 -65 25 65 25 65 -55 Z"/>
</g>

<g id="icon_r_box_02_72_Layer3_1_FILL">
<path fill="#FFFFFF" fill-opacity="0" stroke="none" d="
M 65.05 49.95
L 65.05 24.95 -64.95 24.95 -64.95 49.95 65.05 49.95 Z"/>
</g>

<g id="icon_r_box_02_72_Layer3_2_FILL">
<path fill="#FFFFFF" fill-opacity="0" stroke="none" d="
M 65 -52.85
L 65 -57.85 -65 -57.85 -65 -52.85 65 -52.85 Z"/>
</g>

<g id="icon_r_box_02_72_Layer3_3_FILL">
<path fill="#FFFFFF" fill-opacity="0" stroke="none" d="
M 65 54.95
L 65 49.95 -65 49.95 -65 54.95 65 54.95 Z"/>
</g>

<g id="icon_r_box_02_72_Layer2_0_MEMBER_0_FILL">
<path fill="#FF2732" stroke="none" d="
M 22.5 1.65
Q 20.85 0 18.5 0 16.15 0 14.45 1.65 12.8 3.3 12.8 5.65 12.8 8 14.45 9.7 16.15 11.35 18.5 11.35 20.85 11.35 22.5 9.7 24.15 8 24.15 5.65 24.15 3.35 22.5 1.65 Z"/>
</g>

<g id="icon_r_box_02_72_Layer2_0_MEMBER_1_MEMBER_0_FILL">
<path fill="#FF2732" stroke="none" d="
M 9.7 18.85
Q 8 17.2 5.65 17.2 3.3 17.2 1.65 18.85 0 20.55 0 22.9 0 25.25 1.65 26.9 3.35 28.55 5.65 28.55 8 28.55 9.7 26.9 11.35 25.25 11.35 22.9 11.35 20.55 9.7 18.85 Z"/>
</g>

<g id="icon_r_box_02_72_Layer2_0_MEMBER_1_MEMBER_1_FILL">
<path fill="#FF2732" stroke="none" d="
M 35.3 18.85
Q 33.65 17.2 31.3 17.2 28.95 17.2 27.25 18.85 25.6 20.55 25.6 22.9 25.6 25.25 27.25 26.9 28.95 28.55 31.3 28.55 33.65 28.55 35.3 26.9 36.95 25.25 36.95 22.9 36.95 20.55 35.3 18.85 Z"/>
</g>
</defs>

<g transform="matrix( 1, 0, 0, 0.999603271484375, 65,60) ">
<g transform="matrix( 1, 0, 0, 1, 0,0) ">
<use xlink:href="#icon_r_box_02_72_Layer3_0_FILL"/>
</g>

<g transform="matrix( 1, 0, 0, 1, -0.05,0.05) ">
<use xlink:href="#icon_r_box_02_72_Layer3_1_FILL"/>
</g>

<g transform="matrix( 1, 0, 0, 1, 0,-2.15) ">
<use xlink:href="#icon_r_box_02_72_Layer3_2_FILL"/>
</g>

<g transform="matrix( 1, 0, 0, 1, 0,0.05) ">
<use xlink:href="#icon_r_box_02_72_Layer3_3_FILL"/>
</g>

<g transform="matrix( 1, 0, 0, 1, -18.45,-29.3) ">
<use xlink:href="#icon_r_box_02_72_Layer2_0_MEMBER_0_FILL"/>
</g>

<g transform="matrix( 1, 0, 0, 1, -18.45,-29.3) ">
<use xlink:href="#icon_r_box_02_72_Layer2_0_MEMBER_1_MEMBER_0_FILL"/>
</g>

<g transform="matrix( 1, 0, 0, 1, -18.45,-29.3) ">
<use xlink:href="#icon_r_box_02_72_Layer2_0_MEMBER_1_MEMBER_1_FILL"/>
</g>
</g>
</svg>
