
<svg xmlns="http://www.w3.org/2000/svg" version="1.1" xmlns:xlink="http://www.w3.org/1999/xlink" preserveAspectRatio="none" x="0px" y="0px" width="130px" height="115px" viewBox="0 0 130 115">
<defs>
<g id="icon_r_box_02_38_Layer3_0_FILL">
<path fill="#FFFFFF" fill-opacity="0" stroke="none" d="
M 65 -55
L -65 -55 -65 25 65 25 65 -55 Z"/>
</g>

<g id="icon_r_box_02_38_Layer3_1_FILL">
<path fill="#FFFFFF" fill-opacity="0" stroke="none" d="
M 65.05 49.95
L 65.05 24.95 -64.95 24.95 -64.95 49.95 65.05 49.95 Z"/>
</g>

<g id="icon_r_box_02_38_Layer3_2_FILL">
<path fill="#FFFFFF" fill-opacity="0" stroke="none" d="
M 65 -52.85
L 65 -57.85 -65 -57.85 -65 -52.85 65 -52.85 Z"/>
</g>

<g id="icon_r_box_02_38_Layer3_3_FILL">
<path fill="#FFFFFF" fill-opacity="0" stroke="none" d="
M 65 54.95
L 65 49.95 -65 49.95 -65 54.95 65 54.95 Z"/>
</g>

<g id="icon_r_box_02_38_Layer2_0_MEMBER_0_MEMBER_0_MEMBER_0_MEMBER_0_FILL">
<path fill="#FFFFFF" stroke="none" d="
M 41.2 49.5
L 41.2 0.5 8.95 0.5 8.95 49.5 41.2 49.5 Z"/>
</g>

<g id="icon_r_box_02_38_Layer2_0_MEMBER_0_MEMBER_0_MEMBER_0_MEMBER_1_FILL">
<path fill="#FFC6BC" stroke="none" d="
M 41.2 3.2
L 41.2 0.5 8.95 0.5 8.95 3.2 41.2 3.2 Z"/>
</g>

<g id="icon_r_box_02_38_Layer2_0_MEMBER_0_MEMBER_0_MEMBER_0_MEMBER_2_MEMBER_0_MEMBER_0_FILL">
<path fill="#BAE6FF" stroke="none" d="
M 17.9 15.4
L 17.9 8.1 14.45 8.1 14.45 15.4 17.9 15.4 Z"/>
</g>

<g id="icon_r_box_02_38_Layer2_0_MEMBER_0_MEMBER_0_MEMBER_0_MEMBER_2_MEMBER_0_MEMBER_1_FILL">
<path fill="#76A4D2" stroke="none" d="
M 17.9 15.4
L 17.9 13.15 14.45 13.15 14.45 15.4 17.9 15.4 Z"/>
</g>

<g id="icon_r_box_02_38_Layer2_0_MEMBER_0_MEMBER_0_MEMBER_0_MEMBER_2_MEMBER_1_MEMBER_0_FILL">
<path fill="#BAE6FF" stroke="none" d="
M 26.8 15.4
L 26.8 8.1 23.35 8.1 23.35 15.4 26.8 15.4 Z"/>
</g>

<g id="icon_r_box_02_38_Layer2_0_MEMBER_0_MEMBER_0_MEMBER_0_MEMBER_2_MEMBER_1_MEMBER_1_FILL">
<path fill="#76A4D2" stroke="none" d="
M 26.8 15.4
L 26.8 13.15 23.35 13.15 23.35 15.4 26.8 15.4 Z"/>
</g>

<g id="icon_r_box_02_38_Layer2_0_MEMBER_0_MEMBER_0_MEMBER_0_MEMBER_2_MEMBER_2_MEMBER_0_FILL">
<path fill="#BAE6FF" stroke="none" d="
M 35.7 15.4
L 35.7 8.1 32.25 8.1 32.25 15.4 35.7 15.4 Z"/>
</g>

<g id="icon_r_box_02_38_Layer2_0_MEMBER_0_MEMBER_0_MEMBER_0_MEMBER_2_MEMBER_2_MEMBER_1_FILL">
<path fill="#76A4D2" stroke="none" d="
M 35.7 15.4
L 35.7 13.15 32.25 13.15 32.25 15.4 35.7 15.4 Z"/>
</g>

<g id="icon_r_box_02_38_Layer2_0_MEMBER_0_MEMBER_0_MEMBER_0_MEMBER_3_MEMBER_0_MEMBER_0_FILL">
<path fill="#BAE6FF" stroke="none" d="
M 17.9 30.05
L 17.9 22.8 14.45 22.8 14.45 30.05 17.9 30.05 Z"/>
</g>

<g id="icon_r_box_02_38_Layer2_0_MEMBER_0_MEMBER_0_MEMBER_0_MEMBER_3_MEMBER_0_MEMBER_1_FILL">
<path fill="#76A4D2" stroke="none" d="
M 17.9 30.05
L 17.9 27.8 14.45 27.8 14.45 30.05 17.9 30.05 Z"/>
</g>

<g id="icon_r_box_02_38_Layer2_0_MEMBER_0_MEMBER_0_MEMBER_0_MEMBER_3_MEMBER_1_MEMBER_0_FILL">
<path fill="#BAE6FF" stroke="none" d="
M 26.8 30.05
L 26.8 22.8 23.35 22.8 23.35 30.05 26.8 30.05 Z"/>
</g>

<g id="icon_r_box_02_38_Layer2_0_MEMBER_0_MEMBER_0_MEMBER_0_MEMBER_3_MEMBER_1_MEMBER_1_FILL">
<path fill="#76A4D2" stroke="none" d="
M 26.8 30.05
L 26.8 27.8 23.35 27.8 23.35 30.05 26.8 30.05 Z"/>
</g>

<g id="icon_r_box_02_38_Layer2_0_MEMBER_0_MEMBER_0_MEMBER_0_MEMBER_3_MEMBER_2_MEMBER_0_FILL">
<path fill="#BAE6FF" stroke="none" d="
M 35.7 30.05
L 35.7 22.8 32.25 22.8 32.25 30.05 35.7 30.05 Z"/>
</g>

<g id="icon_r_box_02_38_Layer2_0_MEMBER_0_MEMBER_0_MEMBER_0_MEMBER_3_MEMBER_2_MEMBER_1_FILL">
<path fill="#76A4D2" stroke="none" d="
M 35.7 30.05
L 35.7 27.8 32.25 27.8 32.25 30.05 35.7 30.05 Z"/>
</g>

<g id="icon_r_box_02_38_Layer2_0_MEMBER_0_MEMBER_0_MEMBER_0_MEMBER_4_MEMBER_0_MEMBER_0_FILL">
<path fill="#BAE6FF" stroke="none" d="
M 17.9 44.75
L 17.9 37.45 14.45 37.45 14.45 44.75 17.9 44.75 Z"/>
</g>

<g id="icon_r_box_02_38_Layer2_0_MEMBER_0_MEMBER_0_MEMBER_0_MEMBER_4_MEMBER_0_MEMBER_1_FILL">
<path fill="#76A4D2" stroke="none" d="
M 17.9 44.75
L 17.9 42.5 14.45 42.5 14.45 44.75 17.9 44.75 Z"/>
</g>

<g id="icon_r_box_02_38_Layer2_0_MEMBER_0_MEMBER_0_MEMBER_0_MEMBER_4_MEMBER_1_MEMBER_0_FILL">
<path fill="#BAE6FF" stroke="none" d="
M 35.7 44.75
L 35.7 37.45 32.25 37.45 32.25 44.75 35.7 44.75 Z"/>
</g>

<g id="icon_r_box_02_38_Layer2_0_MEMBER_0_MEMBER_0_MEMBER_0_MEMBER_4_MEMBER_1_MEMBER_1_FILL">
<path fill="#76A4D2" stroke="none" d="
M 35.7 44.75
L 35.7 42.5 32.25 42.5 32.25 44.75 35.7 44.75 Z"/>
</g>

<g id="icon_r_box_02_38_Layer2_0_MEMBER_0_MEMBER_0_MEMBER_1_FILL">
<path fill="#BAE6FF" stroke="none" d="
M 29.2 37.2
L 20.95 37.2 20.95 49.5 29.2 49.5 29.2 37.2 Z"/>
</g>

<g id="icon_r_box_02_38_Layer2_0_MEMBER_0_MEMBER_0_MEMBER_2_FILL">
<path fill="#76A4D2" stroke="none" d="
M 29.2 37.2
L 25.05 37.2 25.05 49.5 29.2 49.5 29.2 37.2 Z"/>
</g>

<g id="icon_r_box_02_38_Layer2_0_MEMBER_0_MEMBER_0_MEMBER_3_FILL">
<path fill="#C68C73" stroke="none" d="
M 29.2 38.95
L 29.2 37.2 20.95 37.2 20.95 38.95 29.2 38.95 Z"/>
</g>

<g id="icon_r_box_02_38_Layer2_0_MEMBER_0_MEMBER_0_MEMBER_4_FILL">
<path fill="#C68C73" stroke="none" d="
M 32 47.75
L 18.15 47.75 18.15 49.5 32 49.5 32 47.75 Z"/>
</g>

<g id="icon_r_box_02_38_Layer2_0_MEMBER_0_MEMBER_0_MEMBER_5_FILL">
<path fill="#C6CBC8" stroke="none" d="
M 8.95 49.5
L 8.95 51.85 41.2 51.85 41.2 49.5 8.95 49.5 Z"/>
</g>

<path id="icon_r_box_02_38_Layer2_0_MEMBER_0_MEMBER_0_MEMBER_0_MEMBER_0_1_STROKES" stroke="#000000" stroke-width="1" stroke-linejoin="round" stroke-linecap="round" fill="none" d="
M 41.2 49.5
L 8.95 49.5 8.95 0.5 41.2 0.5 41.2 49.5 Z"/>

<path id="icon_r_box_02_38_Layer2_0_MEMBER_0_MEMBER_0_MEMBER_0_MEMBER_1_1_STROKES" stroke="#000000" stroke-width="1" stroke-linejoin="round" stroke-linecap="round" fill="none" d="
M 41.2 3.2
L 8.95 3.2 8.95 0.5 41.2 0.5 41.2 3.2 Z"/>

<path id="icon_r_box_02_38_Layer2_0_MEMBER_0_MEMBER_0_MEMBER_0_MEMBER_2_MEMBER_0_MEMBER_0_1_STROKES" stroke="#000000" stroke-width="1" stroke-linejoin="round" stroke-linecap="round" fill="none" d="
M 17.9 15.4
L 14.45 15.4 14.45 8.1 17.9 8.1 17.9 15.4 Z"/>

<path id="icon_r_box_02_38_Layer2_0_MEMBER_0_MEMBER_0_MEMBER_0_MEMBER_2_MEMBER_0_MEMBER_1_1_STROKES" stroke="#000000" stroke-width="1" stroke-linejoin="round" stroke-linecap="round" fill="none" d="
M 17.9 15.4
L 14.45 15.4 14.45 13.15 17.9 13.15 17.9 15.4 Z"/>

<path id="icon_r_box_02_38_Layer2_0_MEMBER_0_MEMBER_0_MEMBER_0_MEMBER_2_MEMBER_1_MEMBER_0_1_STROKES" stroke="#000000" stroke-width="1" stroke-linejoin="round" stroke-linecap="round" fill="none" d="
M 26.8 15.4
L 23.35 15.4 23.35 8.1 26.8 8.1 26.8 15.4 Z"/>

<path id="icon_r_box_02_38_Layer2_0_MEMBER_0_MEMBER_0_MEMBER_0_MEMBER_2_MEMBER_1_MEMBER_1_1_STROKES" stroke="#000000" stroke-width="1" stroke-linejoin="round" stroke-linecap="round" fill="none" d="
M 26.8 15.4
L 23.35 15.4 23.35 13.15 26.8 13.15 26.8 15.4 Z"/>

<path id="icon_r_box_02_38_Layer2_0_MEMBER_0_MEMBER_0_MEMBER_0_MEMBER_2_MEMBER_2_MEMBER_0_1_STROKES" stroke="#000000" stroke-width="1" stroke-linejoin="round" stroke-linecap="round" fill="none" d="
M 35.7 15.4
L 32.25 15.4 32.25 8.1 35.7 8.1 35.7 15.4 Z"/>

<path id="icon_r_box_02_38_Layer2_0_MEMBER_0_MEMBER_0_MEMBER_0_MEMBER_2_MEMBER_2_MEMBER_1_1_STROKES" stroke="#000000" stroke-width="1" stroke-linejoin="round" stroke-linecap="round" fill="none" d="
M 35.7 15.4
L 32.25 15.4 32.25 13.15 35.7 13.15 35.7 15.4 Z"/>

<path id="icon_r_box_02_38_Layer2_0_MEMBER_0_MEMBER_0_MEMBER_0_MEMBER_3_MEMBER_0_MEMBER_0_1_STROKES" stroke="#000000" stroke-width="1" stroke-linejoin="round" stroke-linecap="round" fill="none" d="
M 17.9 30.05
L 14.45 30.05 14.45 22.8 17.9 22.8 17.9 30.05 Z"/>

<path id="icon_r_box_02_38_Layer2_0_MEMBER_0_MEMBER_0_MEMBER_0_MEMBER_3_MEMBER_0_MEMBER_1_1_STROKES" stroke="#000000" stroke-width="1" stroke-linejoin="round" stroke-linecap="round" fill="none" d="
M 17.9 30.05
L 14.45 30.05 14.45 27.8 17.9 27.8 17.9 30.05 Z"/>

<path id="icon_r_box_02_38_Layer2_0_MEMBER_0_MEMBER_0_MEMBER_0_MEMBER_3_MEMBER_1_MEMBER_0_1_STROKES" stroke="#000000" stroke-width="1" stroke-linejoin="round" stroke-linecap="round" fill="none" d="
M 26.8 30.05
L 23.35 30.05 23.35 22.8 26.8 22.8 26.8 30.05 Z"/>

<path id="icon_r_box_02_38_Layer2_0_MEMBER_0_MEMBER_0_MEMBER_0_MEMBER_3_MEMBER_1_MEMBER_1_1_STROKES" stroke="#000000" stroke-width="1" stroke-linejoin="round" stroke-linecap="round" fill="none" d="
M 26.8 30.05
L 23.35 30.05 23.35 27.8 26.8 27.8 26.8 30.05 Z"/>

<path id="icon_r_box_02_38_Layer2_0_MEMBER_0_MEMBER_0_MEMBER_0_MEMBER_3_MEMBER_2_MEMBER_0_1_STROKES" stroke="#000000" stroke-width="1" stroke-linejoin="round" stroke-linecap="round" fill="none" d="
M 35.7 30.05
L 32.25 30.05 32.25 22.8 35.7 22.8 35.7 30.05 Z"/>

<path id="icon_r_box_02_38_Layer2_0_MEMBER_0_MEMBER_0_MEMBER_0_MEMBER_3_MEMBER_2_MEMBER_1_1_STROKES" stroke="#000000" stroke-width="1" stroke-linejoin="round" stroke-linecap="round" fill="none" d="
M 35.7 30.05
L 32.25 30.05 32.25 27.8 35.7 27.8 35.7 30.05 Z"/>

<path id="icon_r_box_02_38_Layer2_0_MEMBER_0_MEMBER_0_MEMBER_0_MEMBER_4_MEMBER_0_MEMBER_0_1_STROKES" stroke="#000000" stroke-width="1" stroke-linejoin="round" stroke-linecap="round" fill="none" d="
M 17.9 44.75
L 14.45 44.75 14.45 37.45 17.9 37.45 17.9 44.75 Z"/>

<path id="icon_r_box_02_38_Layer2_0_MEMBER_0_MEMBER_0_MEMBER_0_MEMBER_4_MEMBER_0_MEMBER_1_1_STROKES" stroke="#000000" stroke-width="1" stroke-linejoin="round" stroke-linecap="round" fill="none" d="
M 17.9 44.75
L 14.45 44.75 14.45 42.5 17.9 42.5 17.9 44.75 Z"/>

<path id="icon_r_box_02_38_Layer2_0_MEMBER_0_MEMBER_0_MEMBER_0_MEMBER_4_MEMBER_1_MEMBER_0_1_STROKES" stroke="#000000" stroke-width="1" stroke-linejoin="round" stroke-linecap="round" fill="none" d="
M 35.7 44.75
L 32.25 44.75 32.25 37.45 35.7 37.45 35.7 44.75 Z"/>

<path id="icon_r_box_02_38_Layer2_0_MEMBER_0_MEMBER_0_MEMBER_0_MEMBER_4_MEMBER_1_MEMBER_1_1_STROKES" stroke="#000000" stroke-width="1" stroke-linejoin="round" stroke-linecap="round" fill="none" d="
M 35.7 44.75
L 32.25 44.75 32.25 42.5 35.7 42.5 35.7 44.75 Z"/>

<path id="icon_r_box_02_38_Layer2_0_MEMBER_0_MEMBER_0_MEMBER_1_1_STROKES" stroke="#000000" stroke-width="1" stroke-linejoin="round" stroke-linecap="round" fill="none" d="
M 29.2 49.5
L 20.95 49.5 20.95 37.2 29.2 37.2 29.2 49.5 Z"/>

<path id="icon_r_box_02_38_Layer2_0_MEMBER_0_MEMBER_0_MEMBER_2_1_STROKES" stroke="#000000" stroke-width="1" stroke-linejoin="round" stroke-linecap="round" fill="none" d="
M 29.2 49.5
L 25.05 49.5 25.05 37.2 29.2 37.2 29.2 49.5 Z"/>

<path id="icon_r_box_02_38_Layer2_0_MEMBER_0_MEMBER_0_MEMBER_3_1_STROKES" stroke="#000000" stroke-width="1" stroke-linejoin="round" stroke-linecap="round" fill="none" d="
M 29.2 38.95
L 20.95 38.95 20.95 37.2 29.2 37.2 29.2 38.95 Z"/>

<path id="icon_r_box_02_38_Layer2_0_MEMBER_0_MEMBER_0_MEMBER_4_1_STROKES" stroke="#000000" stroke-width="1" stroke-linejoin="round" stroke-linecap="round" fill="none" d="
M 32 49.5
L 18.15 49.5 18.15 47.75 32 47.75 32 49.5 Z"/>

<path id="icon_r_box_02_38_Layer2_0_MEMBER_0_MEMBER_0_MEMBER_5_1_STROKES" stroke="#000000" stroke-width="1" stroke-linejoin="round" stroke-linecap="round" fill="none" d="
M 41.2 51.85
L 8.95 51.85 8.95 49.5 41.2 49.5 41.2 51.85 Z"/>

<path id="icon_r_box_02_38_Layer2_0_MEMBER_0_MEMBER_0_MEMBER_6_MEMBER_0_1_STROKES" stroke="#000000" stroke-width="1" stroke-linejoin="round" stroke-linecap="round" fill="none" d="
M 0.5 51.85
L 49.65 51.85"/>

<path id="icon_r_box_02_38_Layer2_0_MEMBER_0_MEMBER_1_1_STROKES" stroke="#E5E5EC" stroke-width="1" stroke-linejoin="round" stroke-linecap="round" fill="none" d="
M 11.45 18.85
L 38.7 18.85"/>

<path id="icon_r_box_02_38_Layer2_0_MEMBER_0_MEMBER_2_1_STROKES" stroke="#E5E5EC" stroke-width="1" stroke-linejoin="round" stroke-linecap="round" fill="none" d="
M 11.45 33.9
L 38.7 33.9"/>
</defs>

<g transform="matrix( 1, 0, 0, 0.999603271484375, 65,60) ">
<g transform="matrix( 1, 0, 0, 1, 0,0) ">
<use xlink:href="#icon_r_box_02_38_Layer3_0_FILL"/>
</g>

<g transform="matrix( 1, 0, 0, 1, -0.05,0.05) ">
<use xlink:href="#icon_r_box_02_38_Layer3_1_FILL"/>
</g>

<g transform="matrix( 1, 0, 0, 1, 0,-2.15) ">
<use xlink:href="#icon_r_box_02_38_Layer3_2_FILL"/>
</g>

<g transform="matrix( 1, 0, 0, 1, 0,0.05) ">
<use xlink:href="#icon_r_box_02_38_Layer3_3_FILL"/>
</g>

<g transform="matrix( 1, 0, 0, 1, -25.05,-39.2) ">
<use xlink:href="#icon_r_box_02_38_Layer2_0_MEMBER_0_MEMBER_0_MEMBER_0_MEMBER_0_FILL"/>

<use xlink:href="#icon_r_box_02_38_Layer2_0_MEMBER_0_MEMBER_0_MEMBER_0_MEMBER_0_1_STROKES"/>
</g>

<g transform="matrix( 1, 0, 0, 1, -25.05,-39.2) ">
<use xlink:href="#icon_r_box_02_38_Layer2_0_MEMBER_0_MEMBER_0_MEMBER_0_MEMBER_1_FILL"/>

<use xlink:href="#icon_r_box_02_38_Layer2_0_MEMBER_0_MEMBER_0_MEMBER_0_MEMBER_1_1_STROKES"/>
</g>

<g transform="matrix( 1, 0, 0, 1, -25.05,-39.2) ">
<use xlink:href="#icon_r_box_02_38_Layer2_0_MEMBER_0_MEMBER_0_MEMBER_0_MEMBER_2_MEMBER_0_MEMBER_0_FILL"/>

<use xlink:href="#icon_r_box_02_38_Layer2_0_MEMBER_0_MEMBER_0_MEMBER_0_MEMBER_2_MEMBER_0_MEMBER_0_1_STROKES"/>
</g>

<g transform="matrix( 1, 0, 0, 1, -25.05,-39.2) ">
<use xlink:href="#icon_r_box_02_38_Layer2_0_MEMBER_0_MEMBER_0_MEMBER_0_MEMBER_2_MEMBER_0_MEMBER_1_FILL"/>

<use xlink:href="#icon_r_box_02_38_Layer2_0_MEMBER_0_MEMBER_0_MEMBER_0_MEMBER_2_MEMBER_0_MEMBER_1_1_STROKES"/>
</g>

<g transform="matrix( 1, 0, 0, 1, -25.05,-39.2) ">
<use xlink:href="#icon_r_box_02_38_Layer2_0_MEMBER_0_MEMBER_0_MEMBER_0_MEMBER_2_MEMBER_1_MEMBER_0_FILL"/>

<use xlink:href="#icon_r_box_02_38_Layer2_0_MEMBER_0_MEMBER_0_MEMBER_0_MEMBER_2_MEMBER_1_MEMBER_0_1_STROKES"/>
</g>

<g transform="matrix( 1, 0, 0, 1, -25.05,-39.2) ">
<use xlink:href="#icon_r_box_02_38_Layer2_0_MEMBER_0_MEMBER_0_MEMBER_0_MEMBER_2_MEMBER_1_MEMBER_1_FILL"/>

<use xlink:href="#icon_r_box_02_38_Layer2_0_MEMBER_0_MEMBER_0_MEMBER_0_MEMBER_2_MEMBER_1_MEMBER_1_1_STROKES"/>
</g>

<g transform="matrix( 1, 0, 0, 1, -25.05,-39.2) ">
<use xlink:href="#icon_r_box_02_38_Layer2_0_MEMBER_0_MEMBER_0_MEMBER_0_MEMBER_2_MEMBER_2_MEMBER_0_FILL"/>

<use xlink:href="#icon_r_box_02_38_Layer2_0_MEMBER_0_MEMBER_0_MEMBER_0_MEMBER_2_MEMBER_2_MEMBER_0_1_STROKES"/>
</g>

<g transform="matrix( 1, 0, 0, 1, -25.05,-39.2) ">
<use xlink:href="#icon_r_box_02_38_Layer2_0_MEMBER_0_MEMBER_0_MEMBER_0_MEMBER_2_MEMBER_2_MEMBER_1_FILL"/>

<use xlink:href="#icon_r_box_02_38_Layer2_0_MEMBER_0_MEMBER_0_MEMBER_0_MEMBER_2_MEMBER_2_MEMBER_1_1_STROKES"/>
</g>

<g transform="matrix( 1, 0, 0, 1, -25.05,-39.2) ">
<use xlink:href="#icon_r_box_02_38_Layer2_0_MEMBER_0_MEMBER_0_MEMBER_0_MEMBER_3_MEMBER_0_MEMBER_0_FILL"/>

<use xlink:href="#icon_r_box_02_38_Layer2_0_MEMBER_0_MEMBER_0_MEMBER_0_MEMBER_3_MEMBER_0_MEMBER_0_1_STROKES"/>
</g>

<g transform="matrix( 1, 0, 0, 1, -25.05,-39.2) ">
<use xlink:href="#icon_r_box_02_38_Layer2_0_MEMBER_0_MEMBER_0_MEMBER_0_MEMBER_3_MEMBER_0_MEMBER_1_FILL"/>

<use xlink:href="#icon_r_box_02_38_Layer2_0_MEMBER_0_MEMBER_0_MEMBER_0_MEMBER_3_MEMBER_0_MEMBER_1_1_STROKES"/>
</g>

<g transform="matrix( 1, 0, 0, 1, -25.05,-39.2) ">
<use xlink:href="#icon_r_box_02_38_Layer2_0_MEMBER_0_MEMBER_0_MEMBER_0_MEMBER_3_MEMBER_1_MEMBER_0_FILL"/>

<use xlink:href="#icon_r_box_02_38_Layer2_0_MEMBER_0_MEMBER_0_MEMBER_0_MEMBER_3_MEMBER_1_MEMBER_0_1_STROKES"/>
</g>

<g transform="matrix( 1, 0, 0, 1, -25.05,-39.2) ">
<use xlink:href="#icon_r_box_02_38_Layer2_0_MEMBER_0_MEMBER_0_MEMBER_0_MEMBER_3_MEMBER_1_MEMBER_1_FILL"/>

<use xlink:href="#icon_r_box_02_38_Layer2_0_MEMBER_0_MEMBER_0_MEMBER_0_MEMBER_3_MEMBER_1_MEMBER_1_1_STROKES"/>
</g>

<g transform="matrix( 1, 0, 0, 1, -25.05,-39.2) ">
<use xlink:href="#icon_r_box_02_38_Layer2_0_MEMBER_0_MEMBER_0_MEMBER_0_MEMBER_3_MEMBER_2_MEMBER_0_FILL"/>

<use xlink:href="#icon_r_box_02_38_Layer2_0_MEMBER_0_MEMBER_0_MEMBER_0_MEMBER_3_MEMBER_2_MEMBER_0_1_STROKES"/>
</g>

<g transform="matrix( 1, 0, 0, 1, -25.05,-39.2) ">
<use xlink:href="#icon_r_box_02_38_Layer2_0_MEMBER_0_MEMBER_0_MEMBER_0_MEMBER_3_MEMBER_2_MEMBER_1_FILL"/>

<use xlink:href="#icon_r_box_02_38_Layer2_0_MEMBER_0_MEMBER_0_MEMBER_0_MEMBER_3_MEMBER_2_MEMBER_1_1_STROKES"/>
</g>

<g transform="matrix( 1, 0, 0, 1, -25.05,-39.2) ">
<use xlink:href="#icon_r_box_02_38_Layer2_0_MEMBER_0_MEMBER_0_MEMBER_0_MEMBER_4_MEMBER_0_MEMBER_0_FILL"/>

<use xlink:href="#icon_r_box_02_38_Layer2_0_MEMBER_0_MEMBER_0_MEMBER_0_MEMBER_4_MEMBER_0_MEMBER_0_1_STROKES"/>
</g>

<g transform="matrix( 1, 0, 0, 1, -25.05,-39.2) ">
<use xlink:href="#icon_r_box_02_38_Layer2_0_MEMBER_0_MEMBER_0_MEMBER_0_MEMBER_4_MEMBER_0_MEMBER_1_FILL"/>

<use xlink:href="#icon_r_box_02_38_Layer2_0_MEMBER_0_MEMBER_0_MEMBER_0_MEMBER_4_MEMBER_0_MEMBER_1_1_STROKES"/>
</g>

<g transform="matrix( 1, 0, 0, 1, -25.05,-39.2) ">
<use xlink:href="#icon_r_box_02_38_Layer2_0_MEMBER_0_MEMBER_0_MEMBER_0_MEMBER_4_MEMBER_1_MEMBER_0_FILL"/>

<use xlink:href="#icon_r_box_02_38_Layer2_0_MEMBER_0_MEMBER_0_MEMBER_0_MEMBER_4_MEMBER_1_MEMBER_0_1_STROKES"/>
</g>

<g transform="matrix( 1, 0, 0, 1, -25.05,-39.2) ">
<use xlink:href="#icon_r_box_02_38_Layer2_0_MEMBER_0_MEMBER_0_MEMBER_0_MEMBER_4_MEMBER_1_MEMBER_1_FILL"/>

<use xlink:href="#icon_r_box_02_38_Layer2_0_MEMBER_0_MEMBER_0_MEMBER_0_MEMBER_4_MEMBER_1_MEMBER_1_1_STROKES"/>
</g>

<g transform="matrix( 1, 0, 0, 1, -25.05,-39.2) ">
<use xlink:href="#icon_r_box_02_38_Layer2_0_MEMBER_0_MEMBER_0_MEMBER_1_FILL"/>

<use xlink:href="#icon_r_box_02_38_Layer2_0_MEMBER_0_MEMBER_0_MEMBER_1_1_STROKES"/>
</g>

<g transform="matrix( 1, 0, 0, 1, -25.05,-39.2) ">
<use xlink:href="#icon_r_box_02_38_Layer2_0_MEMBER_0_MEMBER_0_MEMBER_2_FILL"/>

<use xlink:href="#icon_r_box_02_38_Layer2_0_MEMBER_0_MEMBER_0_MEMBER_2_1_STROKES"/>
</g>

<g transform="matrix( 1, 0, 0, 1, -25.05,-39.2) ">
<use xlink:href="#icon_r_box_02_38_Layer2_0_MEMBER_0_MEMBER_0_MEMBER_3_FILL"/>

<use xlink:href="#icon_r_box_02_38_Layer2_0_MEMBER_0_MEMBER_0_MEMBER_3_1_STROKES"/>
</g>

<g transform="matrix( 1, 0, 0, 1, -25.05,-39.2) ">
<use xlink:href="#icon_r_box_02_38_Layer2_0_MEMBER_0_MEMBER_0_MEMBER_4_FILL"/>

<use xlink:href="#icon_r_box_02_38_Layer2_0_MEMBER_0_MEMBER_0_MEMBER_4_1_STROKES"/>
</g>

<g transform="matrix( 1, 0, 0, 1, -25.05,-39.2) ">
<use xlink:href="#icon_r_box_02_38_Layer2_0_MEMBER_0_MEMBER_0_MEMBER_5_FILL"/>

<use xlink:href="#icon_r_box_02_38_Layer2_0_MEMBER_0_MEMBER_0_MEMBER_5_1_STROKES"/>
</g>

<g transform="matrix( 1, 0, 0, 1, -25.05,-39.2) ">
<use xlink:href="#icon_r_box_02_38_Layer2_0_MEMBER_0_MEMBER_0_MEMBER_6_MEMBER_0_1_STROKES"/>
</g>

<g transform="matrix( 1, 0, 0, 1, -25.05,-39.2) ">
<use xlink:href="#icon_r_box_02_38_Layer2_0_MEMBER_0_MEMBER_1_1_STROKES"/>
</g>

<g transform="matrix( 1, 0, 0, 1, -25.05,-39.2) ">
<use xlink:href="#icon_r_box_02_38_Layer2_0_MEMBER_0_MEMBER_2_1_STROKES"/>
</g>
</g>
</svg>
