
<svg xmlns="http://www.w3.org/2000/svg" version="1.1" xmlns:xlink="http://www.w3.org/1999/xlink" preserveAspectRatio="none" x="0px" y="0px" width="130px" height="115px" viewBox="0 0 130 115">
<defs>
<filter id="Filter_1" x="-23.532285436034904%" y="-23.898019729639312%" width="147.0645708720698%" height="147.79603945927863%" color-interpolation-filters="sRGB">
<feFlood flood-color="#000000" flood-opacity="1" in="SourceGraphic" result="result1"/>

<feGaussianBlur in="SourceGraphic" stdDeviation="1.6666666666666667,1.6666666666666667" result="result2"/>

<feComposite in2="result2" in="result1" operator="in" result="result3"/>

<feComposite in2="result3" in="SourceGraphic" operator="over" result="result4"/>
</filter>

<g id="icon_r_box_02_7_Layer3_0_FILL">
<path fill="#FFFFFF" fill-opacity="0" stroke="none" d="
M 65 -55
L -65 -55 -65 25 65 25 65 -55 Z"/>
</g>

<g id="icon_r_box_02_7_Layer3_1_FILL">
<path fill="#FFFFFF" fill-opacity="0" stroke="none" d="
M 65.05 49.95
L 65.05 24.95 -64.95 24.95 -64.95 49.95 65.05 49.95 Z"/>
</g>

<g id="icon_r_box_02_7_Layer3_2_FILL">
<path fill="#FFFFFF" fill-opacity="0" stroke="none" d="
M 65 -52.85
L 65 -57.85 -65 -57.85 -65 -52.85 65 -52.85 Z"/>
</g>

<g id="icon_r_box_02_7_Layer3_3_FILL">
<path fill="#FFFFFF" fill-opacity="0" stroke="none" d="
M 65 54.95
L 65 49.95 -65 49.95 -65 54.95 65 54.95 Z"/>
</g>

<g id="Duplicate_Items_Folder_Rhc_0_Layer1_0_FILL">
<path fill="#FFFFFF" stroke="none" d="
M 88.15 45.1
Q 90.55 40.4 88.9 35.3 87.25 30.25 82.55 27.75 77.75 25.4 72.65 27.05 71.6193359375 27.3787109375 70.35 28.15 70.8 26.57109375 70.8 25.4 70.8 20.05 67 16.25 63.25 12.5 57.9 12.5 52.55 12.5 48.75 16.25 45 20.05 45 25.4 45 26.4947265625 45.35 27.95 44.03984375 27.0974609375 42.95 26.75 37.85 25.1 33.05 27.55 28.35 29.95 26.7 35.05 25.05 40.1 27.45 44.9 29.85 49.65 34.95 51.3 35.976953125 51.6275390625 37.45 51.7 36.216015625 52.7302734375 35.55 53.65 32.4 58 33.25 63.3 34.05 68.55 38.4 71.7 42.7 74.85 48 74 53.3 73.2 56.45 68.85 57.0646484375 68.001171875 57.6 66.65 58.1513671875 68.104296875 58.8 69 61.95 73.35 67.3 74.15 72.5 75 76.85 71.85 81.15 68.7 82.05 63.45 82.85 58.2 79.7 53.85 79.0724609375 52.9833984375 77.9 52 79.5501953125 51.9505859375 80.65 51.6 85.75 49.95 88.15 45.1 Z"/>
</g>

<g id="Duplicate_Items_Folder_Rhc_0_Layer0_0_FILL">
<path fill="#FF7696" stroke="none" d="
M 88.15 45.1
Q 90.55 40.4 88.9 35.3 87.25 30.25 82.55 27.75 77.75 25.4 72.65 27.05 71.6193359375 27.3787109375 70.35 28.15 70.8 26.57109375 70.8 25.4 70.8 20.05 67 16.25 63.25 12.5 57.9 12.5 52.55 12.5 48.75 16.25 45 20.05 45 25.4 45 26.4947265625 45.35 27.95 44.03984375 27.0974609375 42.95 26.75 37.85 25.1 33.05 27.55 28.35 29.95 26.7 35.05 25.05 40.1 27.45 44.9 29.85 49.65 34.95 51.3 35.976953125 51.6275390625 37.45 51.7 36.216015625 52.7302734375 35.55 53.65 32.4 58 33.25 63.3 34.05 68.55 38.4 71.7 42.7 74.85 48 74 53.3 73.2 56.45 68.85 57.0646484375 68.001171875 57.6 66.65 58.1513671875 68.104296875 58.8 69 61.95 73.35 67.3 74.15 72.5 75 76.85 71.85 81.15 68.7 82.05 63.45 82.85 58.2 79.7 53.85 79.0724609375 52.9833984375 77.9 52 79.5501953125 51.9505859375 80.65 51.6 85.75 49.95 88.15 45.1
M 55.75 23.15
Q 55.74453125 22.316015625 56.3 21.7 56.916015625 21.14453125 57.75 21.15 58.5837890625 21.14453125 59.15 21.7 59.7552734375 22.316015625 59.75 23.15
L 59.75 35.2
Q 60.0984375 35.30703125 60.45 35.4 64.8 36.55 67 40.4 67.0216796875 40.437109375 67.05 40.45
L 78.45 36.75
Q 79.258984375 36.49609375 80 36.85 80.7404296875 37.2458984375 81 38 81.2546875 38.8099609375 80.85 39.55 80.505078125 40.289453125 79.7 40.55
L 68.35 44.25
Q 68.692578125 46.35859375 68.1 48.6 67.376171875 51.22421875 65.7 53.05
L 72.5 62.45
Q 73.007421875 63.140625 72.85 63.95 72.745703125 64.775390625 72.05 65.25 71.41015625 65.758984375 70.6 65.6 69.7759765625 65.494921875 69.25 64.8
L 62.45 55.45
Q 58.8796875 57.310546875 54.9 56.2 53.9060546875 55.9373046875 53 55.5
L 46.2 64.85
Q 45.737890625 65.544140625 44.9 65.65 44.1037109375 65.8091796875 43.4 65.3 42.7548828125 64.8390625 42.6 64 42.491796875 63.2044921875 42.95 62.5
L 49.75 53.2
Q 48.94765625 52.308203125 48.3 51.2 46.3962890625 47.8685546875 47 44.15
L 35.9 40.55
Q 35.144921875 40.289453125 34.75 39.55 34.3953125 38.8099609375 34.65 38 34.9095703125 37.2458984375 35.65 36.85 36.3908203125 36.49609375 37.15 36.75
L 48.3 40.35
Q 49.6751953125 37.9546875 52.25 36.45 53.951171875 35.4779296875 55.75 35.15
L 55.75 23.15 Z"/>

<path fill="#F35B7F" stroke="none" d="
M 44.9 65.65
Q 45.737890625 65.544140625 46.2 64.85
L 53 55.5
Q 51.151171875 54.67578125 49.75 53.2
L 42.95 62.5
Q 42.491796875 63.2044921875 42.6 64 42.7548828125 64.8390625 43.4 65.3 44.1037109375 65.8091796875 44.9 65.65
M 63.05 55.15
Q 62.76328125 55.317578125 62.45 55.45
L 69.25 64.8
Q 69.7759765625 65.494921875 70.6 65.6 71.41015625 65.758984375 72.05 65.25 72.745703125 64.775390625 72.85 63.95 73.007421875 63.140625 72.5 62.45
L 65.7 53.05
Q 64.57734375 54.2771484375 63.05 55.15
M 80 36.85
Q 79.258984375 36.49609375 78.45 36.75
L 67.05 40.45
Q 68.0962890625 42.305859375 68.35 44.25
L 79.7 40.55
Q 80.505078125 40.289453125 80.85 39.55 81.2546875 38.8099609375 81 38 80.7404296875 37.2458984375 80 36.85
M 47.25 43
Q 47.630859375 41.5755859375 48.3 40.35
L 37.15 36.75
Q 36.3908203125 36.49609375 35.65 36.85 34.9095703125 37.2458984375 34.65 38 34.3953125 38.8099609375 34.75 39.55 35.144921875 40.289453125 35.9 40.55
L 47 44.15
Q 47.0951171875 43.5859375 47.25 43
M 56.3 21.7
Q 55.74453125 22.316015625 55.75 23.15
L 55.75 35.15
Q 57.6931640625 34.81484375 59.75 35.2
L 59.75 23.15
Q 59.7552734375 22.316015625 59.15 21.7 58.5837890625 21.14453125 57.75 21.15 56.916015625 21.14453125 56.3 21.7 Z"/>

<path fill="#FFDE00" stroke="none" d="
M 60.45 35.4
Q 60.0984375 35.30703125 59.75 35.2 57.6931640625 34.81484375 55.75 35.15 53.951171875 35.4779296875 52.25 36.45 49.6751953125 37.9546875 48.3 40.35 47.630859375 41.5755859375 47.25 43 47.0951171875 43.5859375 47 44.15 46.3962890625 47.8685546875 48.3 51.2 48.94765625 52.308203125 49.75 53.2 51.151171875 54.67578125 53 55.5 53.9060546875 55.9373046875 54.9 56.2 58.8796875 57.310546875 62.45 55.45 62.76328125 55.317578125 63.05 55.15 64.57734375 54.2771484375 65.7 53.05 67.376171875 51.22421875 68.1 48.6 68.692578125 46.35859375 68.35 44.25 68.0962890625 42.305859375 67.05 40.45 67.0216796875 40.437109375 67 40.4 64.8 36.55 60.45 35.4 Z"/>
</g>

<path id="Duplicate_Items_Folder_Rhc_0_Layer1_0_1_STROKES" stroke="#FFFFFF" stroke-width="8" stroke-linejoin="round" stroke-linecap="round" fill="none" d="
M 54.367419433593746 15.659356689453123
Q 54.367419433593746 17.08215982913971 53.82069854736327 19.030802154541018 55.36285958886146 18.063362461328506 56.61504974365236 17.663999938964846 62.81121978759766 15.659356689453123 68.64290924072264 18.514454650878907 74.35310516357421 21.551792907714844 76.35774841308594 27.687216186523433 78.36239166259764 33.883386230468744 75.44654693603516 39.59358215332031 72.53070220947265 45.486018371582034 66.33453216552735 47.49066162109375 64.99834062457083 47.91660085320473 63.02383346557617 48.007009124755854 64.41792426705359 49.17140122056007 65.18034362792969 50.224266052246094 69.00738983154295 55.50923461914063 68.03544158935546 61.8876449584961 66.94199981689454 68.26605529785157 61.71777801513671 72.09310150146483 56.43280944824219 75.92014770507812 50.11514587402343 74.88745269775391 43.61524200439454 73.91550445556639 39.788195800781246 68.63053588867187 39.000148898363115 67.54231454133988 38.330273437500004 65.7754379272461 37.67985592484474 67.41702433824538 36.933097839355476 68.4482955932617 33.10605163574218 73.73326416015625 26.66689453125 74.70521240234375 20.22773742675782 75.73790740966795 15.003515624999999 71.91086120605469 9.718547058105464 68.0838150024414 8.74659881591797 61.70540466308593 7.713903808593749 55.26624755859375 11.540950012207027 49.98127899169921 12.350115907192226 48.86387072205544 13.84932708740235 47.64252853393555 12.059670436382298 47.5241198003292 10.811988830566413 47.12618103027343 4.615818786621098 45.12153778076171 1.6999740600585938 39.35059509277343 -1.2158706665039034 33.51890563964844 0.7887725830078125 27.38348236083984 2.7934158325195355 21.18731231689453 8.50361175537109 18.271467590332033 14.335301208496098 15.294876098632816 20.531471252441413 17.299519348144532 21.85556089878083 17.721661907434463 23.477689361572267 18.787815093994144 23.022088623046876 16.989378637075422 23.022088623046876 15.659356689453123 23.022088623046876 9.15945281982422 27.578096008300783 4.5426986694335945 32.1948501586914 -0.01330871582031179 38.69475402832031 -0.01330871582031179 45.19465789794922 -0.01330871582031179 49.750665283203126 4.5426986694335945 54.367419433593746 9.15945281982422 54.367419433593746 15.659356689453123 Z"/>
</defs>

<g transform="matrix( 1, 0, 0, 0.999603271484375, 65,60) ">
<g transform="matrix( 1, 0, 0, 1, 0,0) ">
<use xlink:href="#icon_r_box_02_7_Layer3_0_FILL"/>
</g>

<g transform="matrix( 1, 0, 0, 1, -0.05,0.05) ">
<use xlink:href="#icon_r_box_02_7_Layer3_1_FILL"/>
</g>

<g transform="matrix( 1, 0, 0, 1, 0,-2.15) ">
<use xlink:href="#icon_r_box_02_7_Layer3_2_FILL"/>
</g>

<g transform="matrix( 1, 0, 0, 1, 0,0.05) ">
<use xlink:href="#icon_r_box_02_7_Layer3_3_FILL"/>
</g>

<g filter="url(#Filter_1)" transform="matrix( 0.9999847412109375, 0, 0, 1.000396728515625, -65,-60) ">
<g transform="matrix( 0.75, 0, 0, 0.74969482421875, 35.1,12.85) ">
<g transform="matrix( 1.214935302734375, 0, 0, 1.214935302734375, -31.65,-15.2) ">
<use xlink:href="#Duplicate_Items_Folder_Rhc_0_Layer1_0_FILL"/>

<use xlink:href="#Duplicate_Items_Folder_Rhc_0_Layer1_0_1_STROKES" transform="matrix( 0.8230743408203125, 0, 0, 0.8230743408203125, 26.05,12.5) "/>
</g>

<g transform="matrix( 1.214935302734375, 0, 0, 1.214935302734375, -31.65,-15.2) ">
<use xlink:href="#Duplicate_Items_Folder_Rhc_0_Layer0_0_FILL"/>
</g>
</g>
</g>
</g>
</svg>
