
<svg xmlns="http://www.w3.org/2000/svg" version="1.1" xmlns:xlink="http://www.w3.org/1999/xlink" preserveAspectRatio="none" x="0px" y="0px" width="130px" height="115px" viewBox="0 0 130 115">
<defs>
<g id="icon_r_box_02_21_Layer3_0_FILL">
<path fill="#FFFFFF" fill-opacity="0" stroke="none" d="
M 65 -55
L -65 -55 -65 25 65 25 65 -55 Z"/>
</g>

<g id="icon_r_box_02_21_Layer3_1_FILL">
<path fill="#FFFFFF" fill-opacity="0" stroke="none" d="
M 65.05 49.95
L 65.05 24.95 -64.95 24.95 -64.95 49.95 65.05 49.95 Z"/>
</g>

<g id="icon_r_box_02_21_Layer3_2_FILL">
<path fill="#FFFFFF" fill-opacity="0" stroke="none" d="
M 65 -52.85
L 65 -57.85 -65 -57.85 -65 -52.85 65 -52.85 Z"/>
</g>

<g id="icon_r_box_02_21_Layer3_3_FILL">
<path fill="#FFFFFF" fill-opacity="0" stroke="none" d="
M 65 54.95
L 65 49.95 -65 49.95 -65 54.95 65 54.95 Z"/>
</g>

<g id="icon_r_box_02_21_Layer2_0_MEMBER_0_MEMBER_0_FILL">
<path fill="#96D760" stroke="none" d="
M 82.45 32.25
Q 82.7 30.25 82.7 28.65 82.7 17 72.15 8.75 61.6 0.5 46.7 0.5 31.75 0.5 21.2 8.75 10.65 17 10.65 28.65 10.65 30.25 10.9 32.25
L 82.45 32.25 Z"/>
</g>

<g id="icon_r_box_02_21_Layer2_0_MEMBER_0_MEMBER_1_FILL">
<path fill="#81BB4C" stroke="none" d="
M 82.45 32.25
Q 82.7 30.25 82.7 28.65 82.7 17.45 72.9 9.35 63.15 1.3 48.95 0.6 72 11.4 72.55 32.25
L 82.45 32.25 Z"/>
</g>

<g id="icon_r_box_02_21_Layer2_0_MEMBER_0_MEMBER_3_FILL">
<path fill="#D4D3D5" stroke="none" d="
M 84.95 25.55
L 84.95 23.85 60.15 23.85 60.15 25.55 84.95 25.55 Z"/>
</g>

<g id="icon_r_box_02_21_Layer2_0_MEMBER_0_MEMBER_4_FILL">
<path fill="#D4D3D5" stroke="none" d="
M 33.2 25.55
L 33.2 23.85 8.4 23.85 8.4 25.55 33.2 25.55 Z"/>
</g>

<g id="icon_r_box_02_21_Layer2_0_MEMBER_0_MEMBER_5_MEMBER_0_MEMBER_0_FILL">
<path fill="#D4D3D5" stroke="none" d="
M 13.1 21.2
Q 13.1 20.2 12.4 19.5 11.7 18.8 10.7 18.8 9.7 18.8 9.05 19.5 8.35 20.2 8.35 21.2 8.35 22.2 9.05 22.85 9.75 23.55 10.7 23.55 11.7 23.55 12.4 22.85 13.1 22.2 13.1 21.2 Z"/>
</g>

<g id="icon_r_box_02_21_Layer2_0_MEMBER_0_MEMBER_5_MEMBER_0_MEMBER_1_MEMBER_0_FILL">
<path fill="#D4D3D5" stroke="none" d="
M 13.05 32.25
L 13.05 22.7 8.4 22.7 8.4 32.25 13.05 32.25 Z"/>
</g>

<g id="icon_r_box_02_21_Layer2_0_MEMBER_0_MEMBER_5_MEMBER_1_MEMBER_0_FILL">
<path fill="#D4D3D5" stroke="none" d="
M 33.25 21.2
Q 33.25 20.2 32.55 19.5 31.85 18.8 30.85 18.8 29.85 18.8 29.2 19.5 28.5 20.2 28.5 21.2 28.5 22.2 29.2 22.85 29.9 23.55 30.85 23.55 31.85 23.55 32.55 22.85 33.25 22.2 33.25 21.2 Z"/>
</g>

<g id="icon_r_box_02_21_Layer2_0_MEMBER_0_MEMBER_5_MEMBER_1_MEMBER_1_MEMBER_0_FILL">
<path fill="#D4D3D5" stroke="none" d="
M 33.2 32.25
L 33.2 22.7 28.55 22.7 28.55 32.25 33.2 32.25 Z"/>
</g>

<g id="icon_r_box_02_21_Layer2_0_MEMBER_0_MEMBER_5_MEMBER_2_MEMBER_0_FILL">
<path fill="#D4D3D5" stroke="none" d="
M 64.85 21.2
Q 64.85 20.2 64.15 19.5 63.5 18.8 62.5 18.8 61.5 18.8 60.8 19.5 60.1 20.2 60.1 21.2 60.1 22.2 60.8 22.85 61.5 23.55 62.5 23.55 63.5 23.55 64.15 22.85 64.85 22.2 64.85 21.2 Z"/>
</g>

<g id="icon_r_box_02_21_Layer2_0_MEMBER_0_MEMBER_5_MEMBER_2_MEMBER_1_MEMBER_0_FILL">
<path fill="#D4D3D5" stroke="none" d="
M 64.8 32.25
L 64.8 22.7 60.15 22.7 60.15 32.25 64.8 32.25 Z"/>
</g>

<g id="icon_r_box_02_21_Layer2_0_MEMBER_0_MEMBER_5_MEMBER_3_MEMBER_0_FILL">
<path fill="#D4D3D5" stroke="none" d="
M 85 21.2
Q 85 20.2 84.3 19.5 83.65 18.8 82.65 18.8 81.65 18.8 80.95 19.5 80.25 20.2 80.25 21.2 80.25 22.2 80.95 22.85 81.65 23.55 82.65 23.55 83.65 23.55 84.3 22.85 85 22.2 85 21.2 Z"/>
</g>

<g id="icon_r_box_02_21_Layer2_0_MEMBER_0_MEMBER_5_MEMBER_3_MEMBER_1_MEMBER_0_FILL">
<path fill="#D4D3D5" stroke="none" d="
M 84.95 32.25
L 84.95 22.7 80.3 22.7 80.3 32.25 84.95 32.25 Z"/>
</g>

<g id="icon_r_box_02_21_Layer2_0_MEMBER_0_MEMBER_7_FILL">
<path fill="#D4D3D5" stroke="none" d="
M 21.9 32.25
L 21.9 23.85 19.65 23.85 19.65 32.25 21.9 32.25 Z"/>
</g>

<g id="icon_r_box_02_21_Layer2_0_MEMBER_0_MEMBER_8_FILL">
<path fill="#D4D3D5" stroke="none" d="
M 73.7 32.25
L 73.7 23.85 71.45 23.85 71.45 32.25 73.7 32.25 Z"/>
</g>

<g id="icon_r_box_02_21_Layer2_0_MEMBER_0_MEMBER_9_FILL">
<path fill="#D4D3D5" stroke="none" d="
M 54.05 32.25
L 54.05 28.65 39.3 28.65 39.3 32.25 54.05 32.25 Z"/>
</g>

<path id="icon_r_box_02_21_Layer2_0_MEMBER_0_MEMBER_0_1_STROKES" stroke="#000000" stroke-width="1" stroke-linejoin="round" stroke-linecap="round" fill="none" d="
M 82.7 28.65
Q 82.7 30.25 82.45 32.25
L 10.9 32.25
Q 10.65 30.25 10.65 28.65 10.65 17 21.2 8.75 31.75 0.5 46.7 0.5 61.6 0.5 72.15 8.75 82.7 17 82.7 28.65 Z"/>

<path id="icon_r_box_02_21_Layer2_0_MEMBER_0_MEMBER_2_1_STROKES" stroke="#000000" stroke-width="1" stroke-linejoin="round" stroke-linecap="round" fill="none" d="
M 82.7 28.65
Q 82.7 30.25 82.45 32.25
L 10.9 32.25
Q 10.65 30.25 10.65 28.65 10.65 17 21.2 8.75 31.75 0.5 46.7 0.5 61.6 0.5 72.15 8.75 82.7 17 82.7 28.65 Z"/>

<path id="icon_r_box_02_21_Layer2_0_MEMBER_0_MEMBER_3_1_STROKES" stroke="#000000" stroke-width="1" stroke-linejoin="round" stroke-linecap="round" fill="none" d="
M 84.95 25.55
L 60.15 25.55 60.15 23.85 84.95 23.85 84.95 25.55 Z"/>

<path id="icon_r_box_02_21_Layer2_0_MEMBER_0_MEMBER_4_1_STROKES" stroke="#000000" stroke-width="1" stroke-linejoin="round" stroke-linecap="round" fill="none" d="
M 33.2 25.55
L 8.4 25.55 8.4 23.85 33.2 23.85 33.2 25.55 Z"/>

<path id="icon_r_box_02_21_Layer2_0_MEMBER_0_MEMBER_5_MEMBER_0_MEMBER_0_1_STROKES" stroke="#000000" stroke-width="1" stroke-linejoin="round" stroke-linecap="round" fill="none" d="
M 13.1 21.2
Q 13.1 22.2 12.4 22.85 11.7 23.55 10.7 23.55 9.75 23.55 9.05 22.85 8.35 22.2 8.35 21.2 8.35 20.2 9.05 19.5 9.7 18.8 10.7 18.8 11.7 18.8 12.4 19.5 13.1 20.2 13.1 21.2 Z"/>

<path id="icon_r_box_02_21_Layer2_0_MEMBER_0_MEMBER_5_MEMBER_0_MEMBER_1_MEMBER_0_1_STROKES" stroke="#000000" stroke-width="1" stroke-linejoin="round" stroke-linecap="round" fill="none" d="
M 13.05 32.25
L 8.4 32.25 8.4 22.7 13.05 22.7 13.05 32.25 Z"/>

<path id="icon_r_box_02_21_Layer2_0_MEMBER_0_MEMBER_5_MEMBER_1_MEMBER_0_1_STROKES" stroke="#000000" stroke-width="1" stroke-linejoin="round" stroke-linecap="round" fill="none" d="
M 33.25 21.2
Q 33.25 22.2 32.55 22.85 31.85 23.55 30.85 23.55 29.9 23.55 29.2 22.85 28.5 22.2 28.5 21.2 28.5 20.2 29.2 19.5 29.85 18.8 30.85 18.8 31.85 18.8 32.55 19.5 33.25 20.2 33.25 21.2 Z"/>

<path id="icon_r_box_02_21_Layer2_0_MEMBER_0_MEMBER_5_MEMBER_1_MEMBER_1_MEMBER_0_1_STROKES" stroke="#000000" stroke-width="1" stroke-linejoin="round" stroke-linecap="round" fill="none" d="
M 33.2 32.25
L 28.55 32.25 28.55 22.7 33.2 22.7 33.2 32.25 Z"/>

<path id="icon_r_box_02_21_Layer2_0_MEMBER_0_MEMBER_5_MEMBER_2_MEMBER_0_1_STROKES" stroke="#000000" stroke-width="1" stroke-linejoin="round" stroke-linecap="round" fill="none" d="
M 64.85 21.2
Q 64.85 22.2 64.15 22.85 63.5 23.55 62.5 23.55 61.5 23.55 60.8 22.85 60.1 22.2 60.1 21.2 60.1 20.2 60.8 19.5 61.5 18.8 62.5 18.8 63.5 18.8 64.15 19.5 64.85 20.2 64.85 21.2 Z"/>

<path id="icon_r_box_02_21_Layer2_0_MEMBER_0_MEMBER_5_MEMBER_2_MEMBER_1_MEMBER_0_1_STROKES" stroke="#000000" stroke-width="1" stroke-linejoin="round" stroke-linecap="round" fill="none" d="
M 64.8 32.25
L 60.15 32.25 60.15 22.7 64.8 22.7 64.8 32.25 Z"/>

<path id="icon_r_box_02_21_Layer2_0_MEMBER_0_MEMBER_5_MEMBER_3_MEMBER_0_1_STROKES" stroke="#000000" stroke-width="1" stroke-linejoin="round" stroke-linecap="round" fill="none" d="
M 85 21.2
Q 85 22.2 84.3 22.85 83.65 23.55 82.65 23.55 81.65 23.55 80.95 22.85 80.25 22.2 80.25 21.2 80.25 20.2 80.95 19.5 81.65 18.8 82.65 18.8 83.65 18.8 84.3 19.5 85 20.2 85 21.2 Z"/>

<path id="icon_r_box_02_21_Layer2_0_MEMBER_0_MEMBER_5_MEMBER_3_MEMBER_1_MEMBER_0_1_STROKES" stroke="#000000" stroke-width="1" stroke-linejoin="round" stroke-linecap="round" fill="none" d="
M 84.95 32.25
L 80.3 32.25 80.3 22.7 84.95 22.7 84.95 32.25 Z"/>

<path id="icon_r_box_02_21_Layer2_0_MEMBER_0_MEMBER_6_1_STROKES" stroke="#000000" stroke-width="1" stroke-linejoin="round" stroke-linecap="round" fill="none" d="
M 0.5 32.25
L 92.85 32.25"/>

<path id="icon_r_box_02_21_Layer2_0_MEMBER_0_MEMBER_7_1_STROKES" stroke="#000000" stroke-width="1" stroke-linejoin="round" stroke-linecap="round" fill="none" d="
M 21.9 32.25
L 19.65 32.25 19.65 23.85 21.9 23.85 21.9 32.25 Z"/>

<path id="icon_r_box_02_21_Layer2_0_MEMBER_0_MEMBER_8_1_STROKES" stroke="#000000" stroke-width="1" stroke-linejoin="round" stroke-linecap="round" fill="none" d="
M 73.7 32.25
L 71.45 32.25 71.45 23.85 73.7 23.85 73.7 32.25 Z"/>

<path id="icon_r_box_02_21_Layer2_0_MEMBER_0_MEMBER_9_1_STROKES" stroke="#000000" stroke-width="1" stroke-linejoin="round" stroke-linecap="round" fill="none" d="
M 54.05 32.25
L 39.3 32.25 39.3 28.65 54.05 28.65 54.05 32.25 Z"/>

<path id="icon_r_box_02_21_Layer2_0_MEMBER_0_MEMBER_10_MEMBER_0_1_STROKES" stroke="#000000" stroke-width="1" stroke-linejoin="round" stroke-linecap="round" fill="none" d="
M 20.8 18.8
L 20.8 19.6"/>

<path id="icon_r_box_02_21_Layer2_0_MEMBER_0_MEMBER_10_MEMBER_1_1_STROKES" stroke="#000000" stroke-width="1" stroke-linejoin="round" stroke-linecap="round" fill="none" d="
M 22.5 17.3
L 22.5 19.6"/>

<path id="icon_r_box_02_21_Layer2_0_MEMBER_0_MEMBER_10_MEMBER_2_1_STROKES" stroke="#000000" stroke-width="1" stroke-linejoin="round" stroke-linecap="round" fill="none" d="
M 24.15 18.3
L 24.15 19.6"/>

<path id="icon_r_box_02_21_Layer2_0_MEMBER_0_MEMBER_11_MEMBER_0_1_STROKES" stroke="#000000" stroke-width="1" stroke-linejoin="round" stroke-linecap="round" fill="none" d="
M 32.55 13.75
L 32.55 14.55"/>

<path id="icon_r_box_02_21_Layer2_0_MEMBER_0_MEMBER_11_MEMBER_1_1_STROKES" stroke="#000000" stroke-width="1" stroke-linejoin="round" stroke-linecap="round" fill="none" d="
M 34.25 12.25
L 34.25 14.55"/>

<path id="icon_r_box_02_21_Layer2_0_MEMBER_0_MEMBER_11_MEMBER_2_1_STROKES" stroke="#000000" stroke-width="1" stroke-linejoin="round" stroke-linecap="round" fill="none" d="
M 35.9 13.25
L 35.9 14.55"/>

<path id="icon_r_box_02_21_Layer2_0_MEMBER_0_MEMBER_12_MEMBER_0_1_STROKES" stroke="#000000" stroke-width="1" stroke-linejoin="round" stroke-linecap="round" fill="none" d="
M 45 22.7
L 45 23.5"/>

<path id="icon_r_box_02_21_Layer2_0_MEMBER_0_MEMBER_12_MEMBER_1_1_STROKES" stroke="#000000" stroke-width="1" stroke-linejoin="round" stroke-linecap="round" fill="none" d="
M 46.7 21.2
L 46.7 23.5"/>

<path id="icon_r_box_02_21_Layer2_0_MEMBER_0_MEMBER_12_MEMBER_2_1_STROKES" stroke="#000000" stroke-width="1" stroke-linejoin="round" stroke-linecap="round" fill="none" d="
M 48.35 22.2
L 48.35 23.5"/>

<path id="icon_r_box_02_21_Layer2_0_MEMBER_0_MEMBER_13_MEMBER_0_1_STROKES" stroke="#000000" stroke-width="1" stroke-linejoin="round" stroke-linecap="round" fill="none" d="
M 58 12.25
L 58 13.1"/>

<path id="icon_r_box_02_21_Layer2_0_MEMBER_0_MEMBER_13_MEMBER_1_1_STROKES" stroke="#000000" stroke-width="1" stroke-linejoin="round" stroke-linecap="round" fill="none" d="
M 59.65 10.75
L 59.65 13.1"/>

<path id="icon_r_box_02_21_Layer2_0_MEMBER_0_MEMBER_13_MEMBER_2_1_STROKES" stroke="#000000" stroke-width="1" stroke-linejoin="round" stroke-linecap="round" fill="none" d="
M 61.35 11.75
L 61.35 13.1"/>
</defs>

<g transform="matrix( 1, 0, 0, 0.999603271484375, 65,60) ">
<g transform="matrix( 1, 0, 0, 1, 0,0) ">
<use xlink:href="#icon_r_box_02_21_Layer3_0_FILL"/>
</g>

<g transform="matrix( 1, 0, 0, 1, -0.05,0.05) ">
<use xlink:href="#icon_r_box_02_21_Layer3_1_FILL"/>
</g>

<g transform="matrix( 1, 0, 0, 1, 0,-2.15) ">
<use xlink:href="#icon_r_box_02_21_Layer3_2_FILL"/>
</g>

<g transform="matrix( 1, 0, 0, 1, 0,0.05) ">
<use xlink:href="#icon_r_box_02_21_Layer3_3_FILL"/>
</g>

<g transform="matrix( 1, 0, 0, 1, -46.65,-24.55) ">
<use xlink:href="#icon_r_box_02_21_Layer2_0_MEMBER_0_MEMBER_0_FILL"/>

<use xlink:href="#icon_r_box_02_21_Layer2_0_MEMBER_0_MEMBER_0_1_STROKES"/>
</g>

<g transform="matrix( 1, 0, 0, 1, -46.65,-24.55) ">
<use xlink:href="#icon_r_box_02_21_Layer2_0_MEMBER_0_MEMBER_1_FILL"/>
</g>

<g transform="matrix( 1, 0, 0, 1, -46.65,-24.55) ">
<use xlink:href="#icon_r_box_02_21_Layer2_0_MEMBER_0_MEMBER_2_1_STROKES"/>
</g>

<g transform="matrix( 1, 0, 0, 1, -46.65,-24.55) ">
<use xlink:href="#icon_r_box_02_21_Layer2_0_MEMBER_0_MEMBER_3_FILL"/>

<use xlink:href="#icon_r_box_02_21_Layer2_0_MEMBER_0_MEMBER_3_1_STROKES"/>
</g>

<g transform="matrix( 1, 0, 0, 1, -46.65,-24.55) ">
<use xlink:href="#icon_r_box_02_21_Layer2_0_MEMBER_0_MEMBER_4_FILL"/>

<use xlink:href="#icon_r_box_02_21_Layer2_0_MEMBER_0_MEMBER_4_1_STROKES"/>
</g>

<g transform="matrix( 1, 0, 0, 1, -46.65,-24.55) ">
<use xlink:href="#icon_r_box_02_21_Layer2_0_MEMBER_0_MEMBER_5_MEMBER_0_MEMBER_0_FILL"/>

<use xlink:href="#icon_r_box_02_21_Layer2_0_MEMBER_0_MEMBER_5_MEMBER_0_MEMBER_0_1_STROKES"/>
</g>

<g transform="matrix( 1, 0, 0, 1, -46.65,-24.55) ">
<use xlink:href="#icon_r_box_02_21_Layer2_0_MEMBER_0_MEMBER_5_MEMBER_0_MEMBER_1_MEMBER_0_FILL"/>

<use xlink:href="#icon_r_box_02_21_Layer2_0_MEMBER_0_MEMBER_5_MEMBER_0_MEMBER_1_MEMBER_0_1_STROKES"/>
</g>

<g transform="matrix( 1, 0, 0, 1, -46.65,-24.55) ">
<use xlink:href="#icon_r_box_02_21_Layer2_0_MEMBER_0_MEMBER_5_MEMBER_1_MEMBER_0_FILL"/>

<use xlink:href="#icon_r_box_02_21_Layer2_0_MEMBER_0_MEMBER_5_MEMBER_1_MEMBER_0_1_STROKES"/>
</g>

<g transform="matrix( 1, 0, 0, 1, -46.65,-24.55) ">
<use xlink:href="#icon_r_box_02_21_Layer2_0_MEMBER_0_MEMBER_5_MEMBER_1_MEMBER_1_MEMBER_0_FILL"/>

<use xlink:href="#icon_r_box_02_21_Layer2_0_MEMBER_0_MEMBER_5_MEMBER_1_MEMBER_1_MEMBER_0_1_STROKES"/>
</g>

<g transform="matrix( 1, 0, 0, 1, -46.65,-24.55) ">
<use xlink:href="#icon_r_box_02_21_Layer2_0_MEMBER_0_MEMBER_5_MEMBER_2_MEMBER_0_FILL"/>

<use xlink:href="#icon_r_box_02_21_Layer2_0_MEMBER_0_MEMBER_5_MEMBER_2_MEMBER_0_1_STROKES"/>
</g>

<g transform="matrix( 1, 0, 0, 1, -46.65,-24.55) ">
<use xlink:href="#icon_r_box_02_21_Layer2_0_MEMBER_0_MEMBER_5_MEMBER_2_MEMBER_1_MEMBER_0_FILL"/>

<use xlink:href="#icon_r_box_02_21_Layer2_0_MEMBER_0_MEMBER_5_MEMBER_2_MEMBER_1_MEMBER_0_1_STROKES"/>
</g>

<g transform="matrix( 1, 0, 0, 1, -46.65,-24.55) ">
<use xlink:href="#icon_r_box_02_21_Layer2_0_MEMBER_0_MEMBER_5_MEMBER_3_MEMBER_0_FILL"/>

<use xlink:href="#icon_r_box_02_21_Layer2_0_MEMBER_0_MEMBER_5_MEMBER_3_MEMBER_0_1_STROKES"/>
</g>

<g transform="matrix( 1, 0, 0, 1, -46.65,-24.55) ">
<use xlink:href="#icon_r_box_02_21_Layer2_0_MEMBER_0_MEMBER_5_MEMBER_3_MEMBER_1_MEMBER_0_FILL"/>

<use xlink:href="#icon_r_box_02_21_Layer2_0_MEMBER_0_MEMBER_5_MEMBER_3_MEMBER_1_MEMBER_0_1_STROKES"/>
</g>

<g transform="matrix( 1, 0, 0, 1, -46.65,-24.55) ">
<use xlink:href="#icon_r_box_02_21_Layer2_0_MEMBER_0_MEMBER_6_1_STROKES"/>
</g>

<g transform="matrix( 1, 0, 0, 1, -46.65,-24.55) ">
<use xlink:href="#icon_r_box_02_21_Layer2_0_MEMBER_0_MEMBER_7_FILL"/>

<use xlink:href="#icon_r_box_02_21_Layer2_0_MEMBER_0_MEMBER_7_1_STROKES"/>
</g>

<g transform="matrix( 1, 0, 0, 1, -46.65,-24.55) ">
<use xlink:href="#icon_r_box_02_21_Layer2_0_MEMBER_0_MEMBER_8_FILL"/>

<use xlink:href="#icon_r_box_02_21_Layer2_0_MEMBER_0_MEMBER_8_1_STROKES"/>
</g>

<g transform="matrix( 1, 0, 0, 1, -46.65,-24.55) ">
<use xlink:href="#icon_r_box_02_21_Layer2_0_MEMBER_0_MEMBER_9_FILL"/>

<use xlink:href="#icon_r_box_02_21_Layer2_0_MEMBER_0_MEMBER_9_1_STROKES"/>
</g>

<g transform="matrix( 1, 0, 0, 1, -46.65,-24.55) ">
<use xlink:href="#icon_r_box_02_21_Layer2_0_MEMBER_0_MEMBER_10_MEMBER_0_1_STROKES"/>
</g>

<g transform="matrix( 1, 0, 0, 1, -46.65,-24.55) ">
<use xlink:href="#icon_r_box_02_21_Layer2_0_MEMBER_0_MEMBER_10_MEMBER_1_1_STROKES"/>
</g>

<g transform="matrix( 1, 0, 0, 1, -46.65,-24.55) ">
<use xlink:href="#icon_r_box_02_21_Layer2_0_MEMBER_0_MEMBER_10_MEMBER_2_1_STROKES"/>
</g>

<g transform="matrix( 1, 0, 0, 1, -46.65,-24.55) ">
<use xlink:href="#icon_r_box_02_21_Layer2_0_MEMBER_0_MEMBER_11_MEMBER_0_1_STROKES"/>
</g>

<g transform="matrix( 1, 0, 0, 1, -46.65,-24.55) ">
<use xlink:href="#icon_r_box_02_21_Layer2_0_MEMBER_0_MEMBER_11_MEMBER_1_1_STROKES"/>
</g>

<g transform="matrix( 1, 0, 0, 1, -46.65,-24.55) ">
<use xlink:href="#icon_r_box_02_21_Layer2_0_MEMBER_0_MEMBER_11_MEMBER_2_1_STROKES"/>
</g>

<g transform="matrix( 1, 0, 0, 1, -46.65,-24.55) ">
<use xlink:href="#icon_r_box_02_21_Layer2_0_MEMBER_0_MEMBER_12_MEMBER_0_1_STROKES"/>
</g>

<g transform="matrix( 1, 0, 0, 1, -46.65,-24.55) ">
<use xlink:href="#icon_r_box_02_21_Layer2_0_MEMBER_0_MEMBER_12_MEMBER_1_1_STROKES"/>
</g>

<g transform="matrix( 1, 0, 0, 1, -46.65,-24.55) ">
<use xlink:href="#icon_r_box_02_21_Layer2_0_MEMBER_0_MEMBER_12_MEMBER_2_1_STROKES"/>
</g>

<g transform="matrix( 1, 0, 0, 1, -46.65,-24.55) ">
<use xlink:href="#icon_r_box_02_21_Layer2_0_MEMBER_0_MEMBER_13_MEMBER_0_1_STROKES"/>
</g>

<g transform="matrix( 1, 0, 0, 1, -46.65,-24.55) ">
<use xlink:href="#icon_r_box_02_21_Layer2_0_MEMBER_0_MEMBER_13_MEMBER_1_1_STROKES"/>
</g>

<g transform="matrix( 1, 0, 0, 1, -46.65,-24.55) ">
<use xlink:href="#icon_r_box_02_21_Layer2_0_MEMBER_0_MEMBER_13_MEMBER_2_1_STROKES"/>
</g>
</g>
</svg>
