
<svg xmlns="http://www.w3.org/2000/svg" version="1.1" xmlns:xlink="http://www.w3.org/1999/xlink" preserveAspectRatio="none" x="0px" y="0px" width="130px" height="115px" viewBox="0 0 130 115">
<defs>
<g id="icon_r_box_02_30_Layer3_0_FILL">
<path fill="#FFFFFF" fill-opacity="0" stroke="none" d="
M 65 -55
L -65 -55 -65 25 65 25 65 -55 Z"/>
</g>

<g id="icon_r_box_02_30_Layer3_1_FILL">
<path fill="#FFFFFF" fill-opacity="0" stroke="none" d="
M 65.05 49.95
L 65.05 24.95 -64.95 24.95 -64.95 49.95 65.05 49.95 Z"/>
</g>

<g id="icon_r_box_02_30_Layer3_2_FILL">
<path fill="#FFFFFF" fill-opacity="0" stroke="none" d="
M 65 -52.85
L 65 -57.85 -65 -57.85 -65 -52.85 65 -52.85 Z"/>
</g>

<g id="icon_r_box_02_30_Layer3_3_FILL">
<path fill="#FFFFFF" fill-opacity="0" stroke="none" d="
M 65 54.95
L 65 49.95 -65 49.95 -65 54.95 65 54.95 Z"/>
</g>

<g id="icon_r_box_02_30_Layer2_0_FILL">
<path fill="#FFFFFF" stroke="none" d="
M 18.05 -40.6
Q 17.9890625 -40.5140625 17.95 -40.4
L 17.65 -39.5 -36.65 -39.5 -36.95 -40.4
Q -36.9748046875 -40.5294921875 -37.1 -40.65 -36.8 -40.9958984375 -36.8 -41.45 -36.8 -42 -37.2 -42.4 -37.6 -42.8 -38.15 -42.8 -38.7 -42.8 -39.1 -42.4 -39.5 -42 -39.5 -41.45 -39.5 -40.9 -39.1 -40.5 -38.7984375 -40.1984375 -38.4 -40.15 -38.4068359375 -40.0255859375 -38.4 -39.95
L -38.25 -39.5 -38.85 -39.5 -38.85 48.75 -39.5 49.85 -40 49.6 -42.3 53 -39.65 54.5 -37.85 50.8 -38.2 50.6 -37.25 48.9 18.2 48.9 19.15 50.6 18.8 50.8 20.6 54.5 23.25 53 20.95 49.6 20.5 49.85 19.8 48.65 19.8 -39.5 19.2 -39.5 19.35 -39.9
Q 19.3923828125 -40.01640625 19.4 -40.15 19.7623046875 -40.2123046875 20.05 -40.5 20.45 -40.9 20.45 -41.45 20.45 -42 20.05 -42.4 19.65 -42.8 19.1 -42.8 18.55 -42.8 18.15 -42.4 17.75 -42 17.75 -41.45 17.75 -40.9697265625 18.05 -40.6 Z"/>
</g>

<g id="icon_r_box_02_30_Layer2_1_FILL">
<path fill="#FF7900" stroke="none" d="
M 32.3 -48.15
L -26.35 -48.15 -26.35 40.25 32.3 40.25 32.3 -48.15 Z"/>
</g>

<g id="Duplicate_Items_Folder_Symbol_31_0_Layer0_0_FILL">
<path fill="#FFFFFF" stroke="none" d="
M -9 -31.55
Q -23.15 -31.5 -33.15 -21.5 -43.2 -11.45 -43.2 2.65 -43.2 16.85 -33.15 26.9 -23.15 36.9 -9 36.85 5.2 36.95 15.25 26.9 25.25 16.9 25.2 2.65 25.25 -11.5 15.25 -21.5 5.2 -31.55 -9 -31.55 Z"/>
</g>

<g id="Duplicate_Items_Folder_Symbol_31_0_Layer0_1_MEMBER_0_FILL">
<path fill="#FFC08F" stroke="none" d="
M 142.5 58.6
L 144.9 51.5
Q 145.05 50.9 144.8 50.35 144.5 49.8 143.95 49.6 143.35 49.35 142.8 49.65 142.25 49.95 142.05 50.55
L 139.7 57.55
Q 141.2068359375 57.9962890625 142.5 58.6
M 139.55 47
Q 139 47.3 138.85 47.9
L 136.65 56.8
Q 138.1994140625 57.112109375 139.55 57.5
L 141.75 48.65
Q 141.9 48 141.6 47.5 141.25 46.95 140.7 46.8 140.05 46.65 139.55 47
M 136.2 45.85
Q 135.65 46.15 135.5 46.75
L 133.2 56.35
Q 134.7603515625 56.508203125 136.15 56.75
L 138.4 47.45
Q 138.55 46.85 138.25 46.35 137.9 45.8 137.3 45.65 136.7 45.5 136.2 45.85
M 134.4 47.9
Q 134.5 47.3 134.15 46.8 133.75 46.25 133.15 46.2 132.55 46.05 132.05 46.45 131.5 46.8 131.45 47.4
L 130 56.2
Q 131.5859375 56.2326171875 133 56.35
L 134.4 47.9 Z"/>
</g>

<g id="Duplicate_Items_Folder_Symbol_31_0_Layer0_1_MEMBER_1_FILL">
<path fill="#FFC08F" stroke="none" d="
M 29.3 -6.4
L 28.65 -1.15
Q 28.55 1.95 30.85 4.35 33.1 6.7 36.5 7.1 39.85 7.15 42.2 5.1 44.35 2.85 44.15 -0.8
L 44.15 -5.7
Q 36.85 -7.9 29.3 -6.4 Z"/>
</g>

<g id="Duplicate_Items_Folder_Symbol_31_0_Layer0_1_MEMBER_2_FILL">
<path fill="#FFC08F" stroke="none" d="
M 41.05 -0.7
L 30.5 -1.45 29.6 11.25 41.65 11.25 41.05 -0.7 Z"/>
</g>

<g id="Duplicate_Items_Folder_Symbol_31_0_Layer0_1_MEMBER_3_FILL">
<path fill="#FFC08F" stroke="none" d="
M 45.05 42.7
Q 44.65 42.2 44 42.55 43.25 42.95 43 44.25 42.7 45.35 42.35 45.75 42.15 45.9 41.95 45.85
L 45.15 48.9
Q 45.35 47.45 44.9 46.45 44.4 45.3 44.4 45.2 44.45 44.5 44.9 43.6 45.2 42.9 45.05 42.7 Z"/>
</g>

<g id="Duplicate_Items_Folder_Symbol_31_0_Layer0_3_FILL">
<path fill="#FF2626" stroke="none" d="
M -21.5 -26.75
L -26.45 -21.8 21.95 26.6 26.9 21.65 -21.5 -26.75 Z"/>
</g>

<g id="icon_r_box_02_30_Layer2_3_MEMBER_1_FILL">
<path fill="#223F67" stroke="none" d="
M -37.75 -40.3
Q -37.35 -40.7 -37.35 -41.25 -37.35 -41.8 -37.75 -42.2 -38.15 -42.6 -38.7 -42.6 -39.25 -42.6 -39.65 -42.2 -40.05 -41.8 -40.05 -41.25 -40.05 -40.7 -39.65 -40.3 -39.25 -39.9 -38.7 -39.9 -38.15 -39.9 -37.75 -40.3 Z"/>
</g>

<g id="icon_r_box_02_30_Layer2_4_MEMBER_1_FILL">
<path fill="#223F67" stroke="none" d="
M -37.75 -40.3
Q -37.35 -40.7 -37.35 -41.25 -37.35 -41.8 -37.75 -42.2 -38.15 -42.6 -38.7 -42.6 -39.25 -42.6 -39.65 -42.2 -40.05 -41.8 -40.05 -41.25 -40.05 -40.7 -39.65 -40.3 -39.25 -39.9 -38.7 -39.9 -38.15 -39.9 -37.75 -40.3 Z"/>
</g>

<g id="icon_r_box_02_30_Layer2_5_MEMBER_1_FILL">
<path fill="#223F67" stroke="none" d="
M -50.8 55
L -54.05 55 -54.45 61.45 -50.4 61.45 -50.8 55 Z"/>
</g>

<g id="icon_r_box_02_30_Layer2_6_MEMBER_1_FILL">
<path fill="#223F67" stroke="none" d="
M -50.8 55
L -54.05 55 -54.45 61.45 -50.4 61.45 -50.8 55 Z"/>
</g>

<g id="icon_r_box_02_30_Layer1_0_FILL">
<path fill="#FFFFFF" stroke="none" d="
M 10.8 1.8
L 10.2 1.8
Q 10.15 1.8 10.1 1.8 10.1 1.85 10.1 1.9
L 10.1 2.55 8.85 2.55 8.85 1.9
Q 8.85 1.85 8.85 1.8
L 8.15 1.8
Q 8.1 1.85 8.1 1.9
L 8.1 2.55 7.15 2.55
Q 7.1 2.55 7.05 2.55 7.05 2.6 7.05 2.65
L 7.05 3.1
Q 7.1 3.15 7.15 3.15
L 11.8 3.15
Q 11.9 3.15 11.9 3.05
L 11.9 2.65
Q 11.9 2.55 11.8 2.55
L 10.85 2.55 10.85 1.9
Q 10.85 1.85 10.8 1.8
M 8.5 -0.8
Q 8.1 -0.65 7.85 -0.35 7.6 -0.05 7.6 0.35 7.6 0.75 7.85 1.05 8.1 1.3 8.55 1.5 8.95 1.65 9.5 1.65 10 1.65 10.45 1.5 10.85 1.3 11.1 1.05 11.35 0.75 11.35 0.35 11.35 -0.05 11.1 -0.35 10.85 -0.65 10.45 -0.8 10 -1 9.5 -1 8.95 -1 8.5 -0.8
M 8.9 -0.25
Q 9.15 -0.35 9.5 -0.35 9.8 -0.35 10.1 -0.25 10.35 -0.15 10.45 0 10.6 0.15 10.6 0.35 10.6 0.5 10.45 0.7 10.35 0.85 10.1 0.95 9.8 1.05 9.5 1.05 9.15 1.05 8.9 0.95 8.6 0.85 8.5 0.7 8.35 0.5 8.35 0.35 8.35 0.15 8.5 0 8.6 -0.15 8.9 -0.25
M 5.85 -1.15
Q 5.8 -1.1 5.8 -1.05
L 5.8 3.95
Q 5.8 4 5.85 4 5.85 4.05 5.9 4.05
L 6.45 4.05
Q 6.5 4.05 6.55 4
L 6.55 -1.05
Q 6.55 -1.1 6.55 -1.15 6.5 -1.15 6.45 -1.15
L 5.85 -1.15
M 4.8 -1.05
Q 4.75 -1 4.75 -0.95
L 4.75 0.45 4.05 0.45
Q 4 0.5 4 0.55
L 4 0.95
Q 4 1 4.05 1.05
L 4.75 1.05 4.75 3.75
Q 4.75 3.8 4.8 3.85
L 5.35 3.85
Q 5.4 3.85 5.45 3.85 5.45 3.8 5.45 3.75
L 5.45 -0.95
Q 5.45 -1 5.45 -1.05 5.4 -1.05 5.35 -1.05
L 4.8 -1.05
M 3.6 -0.85
L 3 -0.85
Q 2.95 -0.8 2.95 -0.75 3 0.25 2.75 1 2.5 1.75 1.95 2.3 1.9 2.35 1.9 2.4 1.9 2.45 1.95 2.5
L 2.25 2.8
Q 2.3 2.85 2.35 2.85 2.4 2.85 2.45 2.8 2.7 2.55 2.9 2.25 3.15 1.95 3.3 1.65 3.35 1.85 3.5 2.05 3.65 2.25 3.8 2.45 3.9 2.6 4.05 2.7 4.1 2.75 4.15 2.75
L 4.2 2.7 4.5 2.35
Q 4.55 2.3 4.55 2.25
L 4.5 2.2
Q 4.35 2 4.15 1.8 3.95 1.55 3.8 1.2 3.65 0.9 3.6 0.55 3.65 0.25 3.65 -0.05 3.7 -0.35 3.7 -0.7 3.7 -0.8 3.65 -0.8 3.65 -0.85 3.6 -0.85
M 1.75 2.15
L 1.75 1.7
Q 1.75 1.65 1.75 1.6 1.7 1.6 1.65 1.6
L -3 1.6
Q -3.05 1.6 -3.1 1.6 -3.1 1.65 -3.1 1.7
L -3.1 2.15
Q -3.05 2.2 -3 2.2
L -1.05 2.2 -1.05 3.9
Q -1.05 3.95 -1 3.95 -1 4 -0.95 4
L -0.4 4
Q -0.35 4 -0.3 3.95
L -0.3 2.2 1.65 2.2
Q 1.7 2.2 1.75 2.15
M -2.3 -0.9
L -2.3 -0.4 -0.45 -0.4
Q -0.4 -0.4 -0.35 -0.35 -0.35 -0.3 -0.45 -0.25 -0.65 -0.15 -1 0.05 -1.35 0.2 -1.75 0.35 -2.2 0.5 -2.65 0.65 -2.7 0.65 -2.75 0.7
L -2.75 0.8 -2.6 1.15 -2.55 1.2
Q -2.5 1.2 -2.4 1.2 -1.95 1.1 -1.45 0.95 -1 0.75 -0.55 0.55 -0.15 0.75 0.3 0.9 0.75 1.05 1.1 1.15
L 1.2 1.15
Q 1.25 1.15 1.3 1.05
L 1.4 0.7
Q 1.45 0.65 1.45 0.6 1.4 0.55 1.35 0.55 1.15 0.5 0.95 0.45 0.75 0.4 0.5 0.3 0.3 0.25 0.1 0.2
L 0.25 0.1
Q 0.4 0 0.55 -0.15 0.65 -0.3 0.75 -0.4 0.85 -0.55 0.85 -0.7 0.85 -0.85 0.7 -0.9 0.6 -1 0.3 -1
L -2.3 -1
Q -2.3 -0.95 -2.3 -0.9
M -5.35 -1.05
Q -5.4 -1 -5.4 -0.95
L -5.4 3.75
Q -5.4 3.8 -5.35 3.8 -5.35 3.85 -5.3 3.85
L -4.8 3.85
Q -4.75 3.85 -4.7 3.8
L -4.7 1.45 -4.3 1.45 -4.3 3.95
Q -4.3 4 -4.25 4 -4.25 4.05 -4.2 4.05
L -3.65 4.05
Q -3.6 4.05 -3.55 4
L -3.55 -1.05
Q -3.55 -1.1 -3.55 -1.15 -3.6 -1.15 -3.65 -1.15
L -4.25 -1.15
Q -4.3 -1.1 -4.3 -1.05
L -4.3 0.85 -4.7 0.85 -4.7 -0.95
Q -4.7 -1 -4.7 -1.05 -4.75 -1.05 -4.8 -1.05
L -5.35 -1.05
M -7.6 -0.75
L -7.6 -0.4
Q -7.6 -0.3 -7.55 -0.3 -7.5 -0.3 -7.45 -0.3
L -6.15 -0.3
Q -6.1 -0.3 -6.05 -0.3 -6.05 -0.35 -6.05 -0.4
L -6.05 -0.85
Q -6.1 -0.9 -6.15 -0.9
L -7.45 -0.9
Q -7.5 -0.9 -7.55 -0.85 -7.6 -0.85 -7.6 -0.75
M -5.75 0.55
Q -5.65 0.55 -5.65 0.45
L -5.65 0.1
Q -5.65 0 -5.75 0
L -8 0
Q -8.05 0 -8.1 0 -8.1 0.05 -8.1 0.1
L -8.1 0.45
Q -8.1 0.5 -8.1 0.55 -8.05 0.55 -8 0.55
L -5.75 0.55
M -5.85 1.25
Q -6 1.05 -6.25 0.9 -6.5 0.75 -6.8 0.75 -7.15 0.75 -7.4 0.9 -7.65 1.05 -7.8 1.25 -7.95 1.5 -7.95 1.85 -7.95 2.15 -7.8 2.4 -7.65 2.65 -7.4 2.8 -7.15 2.95 -6.85 2.95 -6.5 2.95 -6.25 2.8 -6 2.65 -5.85 2.4 -5.7 2.15 -5.7 1.85 -5.7 1.5 -5.85 1.25
M -6.8 1.35
Q -6.6 1.35 -6.5 1.5 -6.4 1.65 -6.4 1.85 -6.4 2.05 -6.5 2.2 -6.6 2.3 -6.8 2.35 -7.05 2.3 -7.15 2.2 -7.25 2.05 -7.25 1.85 -7.25 1.65 -7.15 1.5 -7.05 1.35 -6.8 1.35
M -9.15 -1.15
L -9.75 -1.15
Q -9.8 -1.1 -9.8 -1.05
L -9.8 1.7
Q -9.8 1.75 -9.75 1.8
L -9.15 1.8
Q -9.05 1.8 -9.05 1.7
L -9.05 0.7 -8.3 0.7
Q -8.25 0.65 -8.25 0.6
L -8.25 0.2
Q -8.25 0.15 -8.3 0.1
L -9.05 0.1 -9.05 -1.05
Q -9.05 -1.1 -9.05 -1.15 -9.1 -1.15 -9.15 -1.15
M -9.2 2.45
Q -9.45 2.2 -9.8 2.1 -10.2 1.95 -10.65 1.95 -11.1 1.95 -11.45 2.1 -11.85 2.25 -12.05 2.45 -12.25 2.7 -12.25 3 -12.25 3.3 -12.05 3.55 -11.85 3.8 -11.45 3.95 -11.1 4.05 -10.65 4.05 -10.2 4.05 -9.8 3.95 -9.45 3.8 -9.2 3.55 -9 3.3 -9 3 -9 2.7 -9.2 2.45
M -9.9 2.8
Q -9.75 2.9 -9.75 3 -9.75 3.15 -9.9 3.25 -10 3.35 -10.2 3.4 -10.4 3.5 -10.65 3.5 -11.05 3.45 -11.25 3.35 -11.5 3.2 -11.5 3 -11.5 2.8 -11.25 2.7 -11.05 2.55 -10.65 2.55 -10.4 2.55 -10.2 2.6 -10 2.7 -9.9 2.8
M -11.95 -0.9
Q -11.95 -0.5 -12.05 -0.05 -12.2 0.35 -12.45 0.7 -12.7 1.05 -13.05 1.3 -13.15 1.35 -13.15 1.4
L -13.1 1.5 -12.85 1.85
Q -12.8 1.9 -12.75 1.9 -12.7 1.9 -12.6 1.8 -12.25 1.6 -12 1.3 -11.75 1.05 -11.55 0.7 -11.45 0.9 -11.25 1.1 -11.1 1.25 -10.9 1.4 -10.75 1.5 -10.6 1.6 -10.55 1.65 -10.5 1.65 -10.45 1.6 -10.4 1.55
L -10.2 1.2 -10.15 1.15 -10.15 1.1
Q -10.2 1.05 -10.25 1.05 -10.4 0.95 -10.6 0.75 -10.8 0.6 -11 0.35 -11.2 0.15 -11.3 -0.1 -11.2 -0.5 -11.2 -0.9 -11.2 -0.95 -11.2 -1 -11.25 -1 -11.3 -1
L -11.8 -1.05
Q -11.9 -1.05 -11.9 -1 -11.95 -1 -11.95 -0.9
M -14.15 -1.1
Q -14.2 -1.15 -14.25 -1.15
L -14.8 -1.15
Q -14.85 -1.15 -14.85 -1.1 -14.9 -1.1 -14.9 -1.05
L -14.9 1.6
Q -14.9 1.65 -14.85 1.65 -14.85 1.7 -14.8 1.7
L -14.25 1.7
Q -14.2 1.7 -14.15 1.7 -14.15 1.65 -14.15 1.6
L -14.15 0.65 -13.4 0.65
Q -13.35 0.6 -13.35 0.55
L -13.35 0.15
Q -13.35 0.1 -13.4 0.05
L -14.15 0.05 -14.15 -1.1
M -17.95 -0.8
L -17.95 -0.35
Q -17.95 -0.3 -17.85 -0.3
L -16.5 -0.3
Q -16.4 -0.3 -16.4 -0.25
L -16.4 -0.2
Q -16.55 0.3 -16.95 0.65 -17.4 1 -18.1 1.3
L -18.15 1.35
Q -18.2 1.4 -18.15 1.45
L -17.95 1.85
Q -17.95 1.9 -17.9 1.9 -17.85 1.9 -17.8 1.9 -17.1 1.6 -16.6 1.2 -16.1 0.8 -15.85 0.35 -15.6 -0.1 -15.6 -0.55 -15.6 -0.75 -15.7 -0.85 -15.75 -0.9 -16 -0.9
L -17.85 -0.9
Q -17.9 -0.9 -17.95 -0.9 -17.95 -0.85 -17.95 -0.8
M -14.15 2.15
Q -14.2 2.05 -14.3 2 -14.35 2 -14.55 2
L -17 2
Q -17.2 2 -17.3 2.05 -17.4 2.15 -17.4 2.4
L -17.4 3.55
Q -17.4 3.7 -17.35 3.8 -17.3 3.9 -17.25 3.9 -17.15 3.95 -16.95 3.95
L -14.55 3.95
Q -14.3 3.95 -14.2 3.85 -14.15 3.8 -14.15 3.55
L -14.15 2.4
Q -14.15 2.25 -14.15 2.15
M -14.9 3.25
Q -14.9 3.3 -14.9 3.35
L -16.55 3.35
Q -16.65 3.35 -16.65 3.25
L -16.65 2.65 -16.6 2.6 -14.9 2.6 -14.9 3.25
M 12.65 -41.25
Q 12.5 -41.55 12.2 -41.75 11.95 -41.95 11.6 -42.05 11.2 -42.15 10.8 -42.15 10.4 -42.15 10 -42.05 9.65 -41.95 9.4 -41.75 9.1 -41.55 8.95 -41.25 8.8 -40.95 8.8 -40.5 8.8 -40.15 8.9 -39.9 9.05 -39.6 9.2 -39.4 9.4 -39.2 9.7 -39.1 9.95 -38.95 10.3 -38.9
L 10.3 -38.45 9.05 -38.45
Q 8.95 -38.45 8.9 -38.4 8.85 -38.35 8.85 -38.25
L 8.85 -37.7
Q 8.85 -37.6 8.9 -37.6 8.95 -37.55 9.05 -37.55
L 12.55 -37.6
Q 12.65 -37.6 12.7 -37.65 12.75 -37.7 12.75 -37.8
L 12.75 -38.35
Q 12.75 -38.45 12.7 -38.45 12.65 -38.5 12.55 -38.5
L 11.3 -38.45 11.3 -38.9
Q 11.6 -38.95 11.9 -39.1 12.15 -39.2 12.35 -39.4 12.55 -39.6 12.7 -39.9 12.8 -40.15 12.8 -40.5 12.8 -40.95 12.65 -41.25
M 10.8 -41.3
Q 11.25 -41.3 11.5 -41.1 11.75 -40.85 11.75 -40.5 11.75 -40.1 11.5 -39.9 11.25 -39.7 10.8 -39.7 10.35 -39.7 10.1 -39.9 9.85 -40.1 9.85 -40.5 9.85 -40.85 10.1 -41.1 10.35 -41.3 10.8 -41.3
M 8.15 -41.75
Q 8.15 -41.9 8.1 -41.95 8.05 -42 7.95 -42
L 7.4 -42
Q 7.25 -42 7.2 -41.95 7.15 -41.9 7.15 -41.75
L 7.15 -38.1
Q 7.15 -37.95 7.2 -37.9 7.25 -37.85 7.4 -37.85
L 7.95 -37.85
Q 8.05 -37.85 8.1 -37.9 8.15 -37.95 8.15 -38.1
L 8.15 -41.75
M 4.85 -42.1
Q 4.75 -42.1 4.7 -42.05 4.65 -42 4.65 -41.85
L 4.65 -40.2
Q 4.65 -40.05 4.6 -40 4.6 -39.9 4.55 -39.8
L 3.5 -38.3
Q 3.45 -38.2 3.45 -38.15 3.5 -38.1 3.6 -38.05
L 4.05 -37.7
Q 4.15 -37.65 4.2 -37.65 4.25 -37.7 4.3 -37.75
L 5.15 -39 6 -37.85
Q 6.05 -37.8 6.1 -37.8 6.15 -37.75 6.2 -37.8
L 6.7 -38.15
Q 6.8 -38.2 6.8 -38.25 6.85 -38.35 6.75 -38.4
L 5.75 -39.8
Q 5.7 -39.9 5.65 -40 5.65 -40.05 5.65 -40.2
L 5.65 -41.85
Q 5.65 -42 5.6 -42.05 5.55 -42.1 5.4 -42.1
L 4.85 -42.1
M 3.1 -40.25
Q 3.1 -40.35 3.05 -40.35 3 -40.4 2.9 -40.4
L 2.5 -40.4 2.5 -41.75
Q 2.5 -41.9 2.45 -41.95 2.45 -42 2.3 -42
L 1.75 -42
Q 1.6 -42 1.55 -41.95 1.5 -41.9 1.5 -41.75
L 1.5 -38.1
Q 1.5 -37.95 1.55 -37.9 1.6 -37.85 1.75 -37.85
L 2.3 -37.85
Q 2.45 -37.85 2.45 -37.9 2.5 -37.95 2.5 -38.1
L 2.5 -39.5 2.9 -39.5
Q 3 -39.5 3.05 -39.55 3.1 -39.6 3.1 -39.7
L 3.1 -40.25
M -1.6 -42.05
Q -1.7 -42.05 -1.75 -42 -1.8 -42 -1.8 -41.9
L -1.75 -37.95
Q -1.75 -37.8 -1.7 -37.75 -1.65 -37.65 -1.5 -37.7
L 0.8 -37.75
Q 0.95 -37.75 1 -37.8 1.05 -37.85 1.05 -38
L 1.15 -41.85
Q 1.15 -42 1.1 -42.05 1.05 -42.1 0.95 -42.1
L -1.6 -42.05
M -0.8 -38.55
L -0.85 -41.15 0.15 -41.2 0.1 -38.6 -0.8 -38.55
M -5 -41.95
Q -5.05 -41.9 -5.05 -41.75
L -5.05 -38.1
Q -5.05 -37.95 -5 -37.9 -4.95 -37.85 -4.8 -37.85
L -4.25 -37.85
Q -4.15 -37.85 -4.1 -37.9 -4.05 -37.95 -4.05 -38.1
L -4.05 -41.75
Q -4.05 -41.9 -4.1 -41.95 -4.15 -42 -4.25 -42
L -4.8 -42
Q -4.95 -42 -5 -41.95
M -5.5 -41.45
L -5.5 -41.9
Q -5.5 -42.05 -5.55 -42.05 -5.55 -42.1 -5.7 -42.1
L -8.45 -42.05
Q -8.55 -42.05 -8.6 -42 -8.6 -41.95 -8.6 -41.8
L -8.6 -41.4
Q -8.6 -41.25 -8.6 -41.2 -8.55 -41.15 -8.45 -41.15
L -7.55 -41.2 -7.55 -40.2
Q -7.55 -40.05 -7.6 -40 -7.6 -39.9 -7.65 -39.8
L -8.7 -38.3
Q -8.75 -38.2 -8.75 -38.15 -8.7 -38.1 -8.6 -38.05
L -8.15 -37.7
Q -8.05 -37.65 -8 -37.65 -7.95 -37.7 -7.9 -37.75
L -7.05 -39 -6.2 -37.85
Q -6.15 -37.8 -6.1 -37.8 -6.05 -37.75 -6 -37.8
L -5.5 -38.15
Q -5.4 -38.2 -5.4 -38.25 -5.35 -38.35 -5.45 -38.4
L -6.45 -39.8
Q -6.5 -39.9 -6.55 -40 -6.55 -40.05 -6.55 -40.2
L -6.55 -41.2 -5.7 -41.2
Q -5.55 -41.2 -5.55 -41.25 -5.5 -41.3 -5.5 -41.45
M -10.7 -41.45
L -10.7 -41.9
Q -10.7 -42.05 -10.75 -42.05 -10.75 -42.1 -10.9 -42.1
L -13.65 -42.05
Q -13.75 -42.05 -13.8 -42 -13.8 -41.95 -13.8 -41.8
L -13.8 -41.4
Q -13.8 -41.25 -13.8 -41.2 -13.75 -41.15 -13.65 -41.15
L -12.75 -41.2 -12.75 -40.2
Q -12.75 -40.05 -12.8 -40 -12.8 -39.9 -12.85 -39.8
L -13.9 -38.3
Q -13.95 -38.2 -13.95 -38.15 -13.9 -38.1 -13.8 -38.05
L -13.35 -37.7
Q -13.25 -37.65 -13.2 -37.65 -13.15 -37.7 -13.1 -37.75
L -12.25 -39 -11.4 -37.85
Q -11.35 -37.8 -11.3 -37.8 -11.25 -37.75 -11.2 -37.8
L -10.7 -38.15
Q -10.6 -38.2 -10.6 -38.25 -10.55 -38.35 -10.65 -38.4
L -11.65 -39.8
Q -11.7 -39.9 -11.75 -40 -11.75 -40.05 -11.75 -40.2
L -11.75 -41.2 -10.9 -41.2
Q -10.75 -41.2 -10.75 -41.25 -10.7 -41.3 -10.7 -41.45
M -10 -37.85
L -9.45 -37.85
Q -9.35 -37.85 -9.3 -37.9 -9.25 -37.95 -9.25 -38.1
L -9.25 -41.75
Q -9.25 -41.9 -9.3 -41.95 -9.35 -42 -9.45 -42
L -10 -42
Q -10.15 -42 -10.2 -41.95 -10.25 -41.9 -10.25 -41.75
L -10.25 -38.1
Q -10.25 -37.95 -10.2 -37.9 -10.15 -37.85 -10 -37.85
M -18.15 -38.7
Q -18.3 -38.7 -18.35 -38.65 -18.4 -38.6 -18.4 -38.45
L -18.4 -37
Q -18.4 -36.8 -18.35 -36.75 -18.3 -36.7 -18.15 -36.7
L -15.1 -36.75
Q -14.95 -36.75 -14.9 -36.8 -14.9 -36.85 -14.9 -37
L -14.9 -37.45
Q -14.9 -37.55 -14.9 -37.6 -14.95 -37.65 -15.05 -37.65
L -17.4 -37.6 -17.4 -38.45
Q -17.4 -38.6 -17.45 -38.65 -17.5 -38.7 -17.6 -38.7
L -18.15 -38.7
M -16.25 -41.9
Q -16.25 -42.05 -16.3 -42.1 -16.35 -42.2 -16.45 -42.15
L -19 -42.1
Q -19.1 -42.1 -19.15 -42.1 -19.2 -42.05 -19.2 -41.95
L -19.15 -39.25
Q -19.15 -39.1 -19.1 -39.05 -19.05 -39 -18.95 -39
L -16.55 -39.05
Q -16.4 -39.05 -16.4 -39.1 -16.35 -39.2 -16.35 -39.35
L -16.25 -41.9
M -18.25 -41.2
L -17.25 -41.25 -17.25 -39.95 -18.2 -39.9 -18.25 -41.2
M -15.65 -42.1
Q -15.8 -42.1 -15.85 -42.05 -15.9 -42 -15.9 -41.85
L -15.9 -38.95
Q -15.9 -38.8 -15.85 -38.75 -15.8 -38.65 -15.65 -38.65
L -15.1 -38.65
Q -14.95 -38.65 -14.95 -38.75 -14.9 -38.8 -14.9 -38.95
L -14.9 -39.95 -14.5 -39.95
Q -14.4 -39.95 -14.35 -40 -14.3 -40 -14.3 -40.1
L -14.3 -40.65
Q -14.3 -40.75 -14.35 -40.8 -14.4 -40.85 -14.5 -40.85
L -14.9 -40.8 -14.9 -41.85
Q -14.9 -42 -14.95 -42.05 -14.95 -42.1 -15.1 -42.1
L -15.65 -42.1 Z"/>

<path fill="#FFF200" stroke="none" d="
M 3.6 -4.5
L 3 -4.5
Q 2.9 -4.5 2.9 -4.4
L 2.9 -3.2
Q 2.9 -2.95 2.95 -2.9 3.05 -2.8 3.3 -2.8
L 6.2 -2.8
Q 6.25 -2.8 6.3 -2.8 6.35 -2.85 6.35 -2.9
L 6.35 -3.35
Q 6.35 -3.4 6.3 -3.4 6.25 -3.4 6.2 -3.4
L 3.75 -3.4
Q 3.7 -3.4 3.65 -3.45
L 3.65 -4.4
Q 3.65 -4.45 3.6 -4.5
M 6.1 -7.85
Q 6.05 -7.9 6 -7.9
L 5.45 -7.9
Q 5.4 -7.9 5.4 -7.85 5.35 -7.85 5.35 -7.8
L 5.35 -4.35
Q 5.35 -4.3 5.4 -4.3 5.4 -4.25 5.45 -4.25
L 6 -4.25
Q 6.05 -4.25 6.1 -4.3
L 6.1 -5.75 6.85 -5.75
Q 6.9 -5.8 6.9 -5.85
L 6.9 -6.25
Q 6.9 -6.35 6.85 -6.35
L 6.1 -6.35 6.1 -7.85
M 2.45 -7.5
Q 2.35 -7.45 2.35 -7.2
L 2.35 -5.45
Q 2.35 -5.2 2.45 -5.15 2.5 -5.1 2.75 -5.1
L 4.4 -5.1
Q 4.65 -5.1 4.7 -5.15 4.8 -5.2 4.8 -5.45
L 4.8 -7.2
Q 4.8 -7.35 4.75 -7.45 4.75 -7.55 4.65 -7.55 4.55 -7.6 4.4 -7.55
L 2.7 -7.55
Q 2.5 -7.6 2.45 -7.5
M 3.1 -6.95
Q 3.15 -6.95 3.2 -6.95
L 4.05 -6.95
Q 4.05 -6.9 4.05 -6.85
L 4.05 -5.8
Q 4.05 -5.75 4.05 -5.7
L 3.2 -5.7
Q 3.15 -5.7 3.1 -5.7
L 3.1 -6.95
M -2.4 -7.55
L -2.4 -7.15
Q -2.4 -7.1 -2.35 -7.05
L 0.25 -7.05
Q 0.3 -7.05 0.3 -7
L 0.3 -6.6
Q 0.3 -6.55 0.25 -6.55
L -2.05 -6.55
Q -2.25 -6.55 -2.35 -6.5 -2.4 -6.4 -2.4 -6.2
L -2.4 -5.25
Q -2.4 -5.05 -2.35 -4.95 -2.25 -4.85 -2 -4.85
L -1.05 -4.85 -1.05 -4.2 -3 -4.2
Q -3.05 -4.2 -3.1 -4.15
L -3.1 -3.7
Q -3.1 -3.65 -3.1 -3.6 -3.05 -3.6 -3 -3.6
L 1.65 -3.6
Q 1.75 -3.6 1.75 -3.7
L 1.75 -4.05
Q 1.75 -4.2 1.65 -4.2
L -0.3 -4.2 -0.3 -4.85 1.05 -4.85
Q 1.1 -4.85 1.15 -4.9
L 1.15 -5.45
Q 1.1 -5.5 1.05 -5.45
L -1.6 -5.45
Q -1.65 -5.45 -1.65 -5.5 -1.7 -5.5 -1.7 -5.55
L -1.7 -5.95 -1.65 -5.95
Q -1.65 -6 -1.6 -6
L 0.65 -6
Q 0.9 -6 1 -6.05 1.05 -6.15 1.05 -6.35
L 1.05 -7.3
Q 1.05 -7.5 1 -7.55 0.9 -7.65 0.65 -7.65
L -2.3 -7.65
Q -2.35 -7.65 -2.35 -7.6 -2.4 -7.6 -2.4 -7.55
M -8.15 -3.75
Q -8.15 -3.7 -8.15 -3.65 -8.1 -3.65 -8.05 -3.65
L -3.4 -3.65
Q -3.3 -3.65 -3.3 -3.75
L -3.3 -4.15
Q -3.3 -4.25 -3.4 -4.25
L -8.05 -4.25
Q -8.1 -4.25 -8.15 -4.25 -8.15 -4.2 -8.15 -4.15
L -8.15 -3.75
M -4.15 -7
Q -4.4 -7.3 -4.8 -7.5 -5.2 -7.65 -5.7 -7.65 -6.2 -7.65 -6.65 -7.5 -7.05 -7.3 -7.3 -7 -7.55 -6.7 -7.55 -6.3 -7.55 -5.9 -7.3 -5.6 -7.05 -5.3 -6.65 -5.15 -6.2 -4.95 -5.7 -4.95 -5.2 -4.95 -4.8 -5.15 -4.4 -5.3 -4.15 -5.6 -3.9 -5.9 -3.9 -6.3 -3.9 -6.7 -4.15 -7
M -4.8 -6.65
Q -4.7 -6.5 -4.7 -6.3 -4.7 -6.1 -4.8 -5.95 -4.95 -5.8 -5.15 -5.7 -5.4 -5.6 -5.7 -5.6 -6.05 -5.6 -6.3 -5.7 -6.5 -5.8 -6.65 -5.95 -6.75 -6.1 -6.75 -6.3 -6.75 -6.5 -6.65 -6.65 -6.5 -6.85 -6.3 -6.95 -6.05 -7.05 -5.7 -7.05 -5.4 -7.05 -5.15 -6.95 -4.95 -6.85 -4.8 -6.65
M -11.1 -3.9
Q -11.05 -3.85 -11 -3.85
L -10.45 -3.85
Q -10.4 -3.85 -10.4 -3.9 -10.35 -3.9 -10.35 -3.95
L -10.35 -4.85 -8.45 -4.85
Q -8.4 -4.85 -8.35 -4.85 -8.35 -4.9 -8.35 -4.95
L -8.35 -5.35
Q -8.35 -5.45 -8.45 -5.45
L -13.1 -5.45
Q -13.15 -5.45 -13.2 -5.4
L -13.2 -4.95
Q -13.2 -4.9 -13.2 -4.85 -13.15 -4.85 -13.1 -4.85
L -11.1 -4.85 -11.1 -3.9
M -11.75 -4.4
Q -11.75 -4.45 -11.8 -4.45 -11.8 -4.5 -11.85 -4.5
L -12.4 -4.5
Q -12.45 -4.5 -12.45 -4.45 -12.5 -4.45 -12.5 -4.4
L -12.5 -3.2
Q -12.5 -2.95 -12.45 -2.9 -12.35 -2.8 -12.15 -2.8
L -8.95 -2.8
Q -8.9 -2.85 -8.9 -2.9
L -8.9 -3.35
Q -8.9 -3.4 -8.95 -3.4
L -11.65 -3.4
Q -11.7 -3.4 -11.75 -3.45
L -11.75 -4.4
M -12.35 -7.8
Q -12.4 -7.8 -12.4 -7.75 -12.45 -7.7 -12.45 -7.65
L -12.45 -6.35
Q -12.45 -6.1 -12.35 -6 -12.25 -5.9 -11.95 -5.9
L -9.1 -5.9
Q -9.05 -5.9 -9 -5.9
L -9 -6.4
Q -9 -6.45 -9 -6.5 -9.05 -6.5 -9.1 -6.5
L -11.65 -6.5
Q -11.7 -6.55 -11.7 -6.6
L -11.7 -7.65
Q -11.7 -7.7 -11.7 -7.75 -11.75 -7.8 -11.8 -7.8
L -12.35 -7.8 Z"/>
</g>

<path id="icon_r_box_02_30_Layer2_0_1_STROKES" stroke="#FFFFFF" stroke-width="8" stroke-linejoin="round" stroke-linecap="round" fill="none" d="
M -23.02327575683594 -48.762017822265626
L -22.618283081054688 -48.762017822265626 -22.702656555175782 -49.04888763427734
Q -22.724145424365997 -49.11678191423416 -22.71953125 -49.183885192871095 -22.988471698760986 -49.233454608917235 -23.192022705078127 -49.437005615234376 -23.462017822265626 -49.707000732421875 -23.462017822265626 -50.07824401855469 -23.462017822265626 -50.4494873046875 -23.192022705078127 -50.719482421875 -22.92202758789063 -50.9894775390625 -22.550784301757812 -50.9894775390625 -22.179541015625002 -50.9894775390625 -21.909545898437504 -50.719482421875 -21.639550781249998 -50.4494873046875 -21.639550781249998 -50.07824401855469 -21.639550781249998 -49.771731007099156 -21.82517242431641 -49.53825378417969 -21.757541811466215 -49.45691248178482 -21.72392425537109 -49.35263214111328
L -21.538302612304687 -48.762017822265626 15.113534545898435 -48.762017822265626 15.316030883789061 -49.3695068359375
Q 15.342397594451903 -49.446497631073 15.383529663085938 -49.50450439453125 15.181033325195312 -49.75406531095505 15.181033325195312 -50.07824401855469 15.181033325195312 -50.4494873046875 15.45102844238281 -50.719482421875 15.721023559570312 -50.9894775390625 16.092266845703126 -50.9894775390625 16.463510131835935 -50.9894775390625 16.733505249023438 -50.719482421875 17.003500366210936 -50.4494873046875 17.003500366210936 -50.07824401855469 17.003500366210936 -49.707000732421875 16.733505249023438 -49.437005615234376 16.539314424991606 -49.24281479120255 16.294763183593748 -49.183885192871095 16.289621675014494 -49.1105857372284 16.261013793945313 -49.032012939453125
L 16.159765625 -48.762017822265626 16.56475830078125 -48.762017822265626 16.56475830078125 10.738156127929685 17.037249755859374 11.548141479492188 17.34099426269531 11.37939453125 18.893466186523437 13.674353027343749 17.10474853515625 14.686834716796874 15.8897705078125 12.189379882812496 16.14289093017578 12.05438232421875 15.484777832031249 10.906903076171872 -21.92642059326172 10.906903076171872 -22.584533691406254 12.05438232421875 -22.34828796386719 12.189379882812496 -23.563265991210937 14.686834716796874 -25.351983642578123 13.674353027343749 -23.79951171875 11.37939453125 -23.462017822265626 11.565016174316405 -23.02327575683594 10.805654907226561 -23.02327575683594 -48.762017822265626 Z"/>

<path id="Duplicate_Items_Folder_Symbol_31_0_Layer0_0_1_STROKES" stroke="#FFFFFF" stroke-width="5" stroke-linejoin="round" stroke-linecap="round" fill="none" d="
M 27.584757995605468 27.715573120117188
Q 16.12791748046875 39.1724136352539 -0.05985717773437571 39.058415222167966 -16.190632629394532 39.115414428710935 -27.590473937988282 27.715573120117188 -39.047314453125 16.25873260498047 -39.047314453125 0.07095794677734357 -39.047314453125 -16.002818298339843 -27.590473937988282 -27.459658813476562 -16.190632629394532 -38.859500122070315 -0.05985717773437571 -38.916499328613284 16.12791748046875 -38.916499328613284 27.584757995605468 -27.459658813476562 38.98459930419922 -16.059817504882812 38.92760009765625 0.07095794677734357 38.98459930419922 16.315731811523438 27.584757995605468 27.715573120117188 Z"/>

<path id="Duplicate_Items_Folder_Symbol_31_0_Layer0_1_MEMBER_4_1_STROKES" stroke="#FFB072" stroke-width="2" stroke-linejoin="round" stroke-linecap="round" fill="none" d="
M -12.368814086914028 -1.401831054687534
Q -5.972812080383278 5.145562076568581 -3.1353210449218523 13.879827880859352"/>

<path id="Duplicate_Items_Folder_Symbol_31_0_Layer0_1_MEMBER_5_1_STROKES" stroke="#FFB072" stroke-width="2" stroke-linejoin="round" stroke-linecap="round" fill="none" d="
M 15.654898071289068 6.025131225585936
Q 1.7812408447265682 -3.3139038085937536 -9.136294555664065 -3.252581787109378"/>

<path id="Duplicate_Items_Folder_Symbol_31_0_Layer0_2_1_STROKES" stroke="#FF2626" stroke-width="7" stroke-linejoin="round" stroke-linecap="round" fill="none" d="
M 15.25 26.9
Q 5.2 36.95 -9 36.85 -23.15 36.9 -33.15 26.9 -43.2 16.85 -43.2 2.65 -43.2 -11.45 -33.15 -21.5 -23.15 -31.5 -9 -31.55 5.2 -31.55 15.25 -21.5 25.25 -11.5 25.2 2.65 25.25 16.9 15.25 26.9 Z"/>

<path id="icon_r_box_02_30_Layer2_3_MEMBER_0_1_STROKES" stroke="#62697E" stroke-width="1.5" stroke-linejoin="round" stroke-linecap="round" fill="none" d="
M -22.35509033203125 -49.93701171875
L -21.511431884765624 -47.406036376953125"/>

<path id="icon_r_box_02_30_Layer2_4_MEMBER_0_1_STROKES" stroke="#62697E" stroke-width="1.5" stroke-linejoin="round" stroke-linecap="round" fill="none" d="
M 16.105090332031253 -49.93701171875
L 15.261431884765626 -47.406036376953125"/>

<path id="icon_r_box_02_30_Layer2_5_MEMBER_0_1_STROKES" stroke="#62697E" stroke-width="1.5" stroke-linejoin="round" stroke-linecap="round" fill="none" d="
M -21.69879913330078 9.170104980468752
L -23.470081329345703 12.238185882568361"/>

<path id="icon_r_box_02_30_Layer2_6_MEMBER_0_1_STROKES" stroke="#62697E" stroke-width="1.5" stroke-linejoin="round" stroke-linecap="round" fill="none" d="
M 15.498799133300782 9.420104980468752
L 17.270081329345704 12.488185882568361"/>
</defs>

<g transform="matrix( 1, 0, 0, 0.999603271484375, 65,60) ">
<g transform="matrix( 1, 0, 0, 1, 0,0) ">
<use xlink:href="#icon_r_box_02_30_Layer3_0_FILL"/>
</g>

<g transform="matrix( 1, 0, 0, 1, -0.05,0.05) ">
<use xlink:href="#icon_r_box_02_30_Layer3_1_FILL"/>
</g>

<g transform="matrix( 1, 0, 0, 1, 0,-2.15) ">
<use xlink:href="#icon_r_box_02_30_Layer3_2_FILL"/>
</g>

<g transform="matrix( 1, 0, 0, 1, 0,0.05) ">
<use xlink:href="#icon_r_box_02_30_Layer3_3_FILL"/>
</g>

<g transform="matrix( 0.67498779296875, 0, 0, 0.67498779296875, 3.2,-22.1) ">
<use xlink:href="#icon_r_box_02_30_Layer2_0_FILL"/>

<use xlink:href="#icon_r_box_02_30_Layer2_0_1_STROKES" transform="matrix( 1.48150634765625, 0, 0, 1.48150634765625, -4.7,32.7) "/>
</g>

<g transform="matrix( 0.67498779296875, 0, 0, 0.67498779296875, -5.2,-16.3) ">
<use xlink:href="#icon_r_box_02_30_Layer2_1_FILL"/>
</g>

<g transform="matrix( 0.3249053955078125, 0, 0, 0.3249053955078125, -3.2,-22.4) ">
<g transform="matrix( 1.139984130859375, 0, 0, 1.139984130859375, 10.2,-2.95) ">
<use xlink:href="#Duplicate_Items_Folder_Symbol_31_0_Layer0_0_FILL"/>

<use xlink:href="#Duplicate_Items_Folder_Symbol_31_0_Layer0_0_1_STROKES" transform="matrix( 0.877197265625, 0, 0, 0.877197265625, -8.9,2.55) "/>
</g>

<g transform="matrix( 2.472015380859375, 0.2209930419921875, -0.2209930419921875, 2.472015380859375, -321.65,-168.1) ">
<use xlink:href="#Duplicate_Items_Folder_Symbol_31_0_Layer0_1_MEMBER_0_FILL"/>
</g>

<g transform="matrix( 1.9735107421875, 0.56842041015625, -0.56842041015625, 1.9735107421875, -71.55,-10.65) ">
<use xlink:href="#Duplicate_Items_Folder_Symbol_31_0_Layer0_1_MEMBER_1_FILL"/>
</g>

<g transform="matrix( 1.9735107421875, 0.56842041015625, -0.56842041015625, 1.9735107421875, -70.75,-9.45) ">
<use xlink:href="#Duplicate_Items_Folder_Symbol_31_0_Layer0_1_MEMBER_2_FILL"/>
</g>

<g transform="matrix( -4.1351318359375, 1.9183349609375, 1.9183349609375, 4.1351318359375, 78.1,-269.45) ">
<use xlink:href="#Duplicate_Items_Folder_Symbol_31_0_Layer0_1_MEMBER_3_FILL"/>
</g>

<g transform="matrix( -4.4110107421875, 2.04632568359375, 2.04632568359375, 4.4110107421875, 180.3,-329.05) ">
<use xlink:href="#Duplicate_Items_Folder_Symbol_31_0_Layer0_1_MEMBER_4_1_STROKES" transform="matrix( -0.186553955078125, 0.0865325927734375, 0.0865325927734375, 0.186553955078125, 62.1,45.75) "/>
</g>

<g transform="matrix( 1.9735107421875, 0.56842041015625, -0.56842041015625, 1.9735107421875, -71.55,-10.65) ">
<use xlink:href="#Duplicate_Items_Folder_Symbol_31_0_Layer0_1_MEMBER_5_1_STROKES" transform="matrix( 0.4678802490234375, -0.1347503662109375, 0.1347503662109375, 0.4678802490234375, 34.9,-4.65) "/>
</g>

<g transform="matrix( 1, 0, 0, 1, 9,-2.65) ">
<use xlink:href="#Duplicate_Items_Folder_Symbol_31_0_Layer0_2_1_STROKES"/>
</g>

<g transform="matrix( 0.9999847412109375, 0, 0, 0.9999847412109375, -0.15,0.05) ">
<use xlink:href="#Duplicate_Items_Folder_Symbol_31_0_Layer0_3_FILL"/>
</g>
</g>

<g transform="matrix( 0.6749267578125, 0, 0, 0.6749267578125, -0.15,-22.4) ">
<use xlink:href="#icon_r_box_02_30_Layer2_3_MEMBER_0_1_STROKES" transform="matrix( 1.48162841796875, 0, 0, 1.48162841796875, 0.2,33.15) "/>
</g>

<g transform="matrix( 0.6749267578125, 0, 0, 0.6749267578125, 3.55,-22.1) ">
<use xlink:href="#icon_r_box_02_30_Layer2_3_MEMBER_1_FILL"/>
</g>

<g transform="matrix( -0.6749267578125, 0, 0, 0.6749267578125, -6.1,-22.4) ">
<use xlink:href="#icon_r_box_02_30_Layer2_4_MEMBER_0_1_STROKES" transform="matrix( -1.48162841796875, 0, 0, 1.48162841796875, -9,33.15) "/>
</g>

<g transform="matrix( -0.6749267578125, 0, 0, 0.6749267578125, -9.8,-22.1) ">
<use xlink:href="#icon_r_box_02_30_Layer2_4_MEMBER_1_FILL"/>
</g>

<g transform="matrix( 0.5843963623046875, 0.3373870849609375, -0.3373870849609375, 0.5843963623046875, 21.35,-3.65) ">
<use xlink:href="#icon_r_box_02_30_Layer2_5_MEMBER_0_1_STROKES" transform="matrix( 1.2834014892578125, -0.740936279296875, 0.740936279296875, 1.2834014892578125, -24.65,20.5) "/>
</g>

<g transform="matrix( 0.4405059814453125, 0.2543182373046875, -0.21392822265625, 0.3705596923828125, 11.95,4.25) ">
<use xlink:href="#icon_r_box_02_30_Layer2_5_MEMBER_1_FILL"/>
</g>

<g transform="matrix( -0.5843963623046875, 0.3373870849609375, 0.3373870849609375, 0.5843963623046875, -27.55,-3.4) ">
<use xlink:href="#icon_r_box_02_30_Layer2_6_MEMBER_0_1_STROKES" transform="matrix( -1.2834014892578125, 0.740936279296875, 0.740936279296875, 1.2834014892578125, -32.8,24.75) "/>
</g>

<g transform="matrix( -0.4405059814453125, 0.254302978515625, 0.2139129638671875, 0.37054443359375, -18.2,4.5) ">
<use xlink:href="#icon_r_box_02_30_Layer2_6_MEMBER_1_FILL"/>
</g>

<g transform="matrix( 1, 0, 0, 1, 0,0) ">
<use xlink:href="#icon_r_box_02_30_Layer1_0_FILL"/>
</g>
</g>
</svg>
