
<svg xmlns="http://www.w3.org/2000/svg" version="1.1" xmlns:xlink="http://www.w3.org/1999/xlink" preserveAspectRatio="none" x="0px" y="0px" width="130px" height="115px" viewBox="0 0 130 115">
<defs>
<g id="icon_r_box_02_10_Layer3_0_FILL">
<path fill="#FFFFFF" fill-opacity="0" stroke="none" d="
M 65 -55
L -65 -55 -65 25 65 25 65 -55 Z"/>
</g>

<g id="icon_r_box_02_10_Layer3_1_FILL">
<path fill="#FFFFFF" fill-opacity="0" stroke="none" d="
M 65.05 49.95
L 65.05 24.95 -64.95 24.95 -64.95 49.95 65.05 49.95 Z"/>
</g>

<g id="icon_r_box_02_10_Layer3_2_FILL">
<path fill="#FFFFFF" fill-opacity="0" stroke="none" d="
M 65 -52.85
L 65 -57.85 -65 -57.85 -65 -52.85 65 -52.85 Z"/>
</g>

<g id="icon_r_box_02_10_Layer3_3_FILL">
<path fill="#FFFFFF" fill-opacity="0" stroke="none" d="
M 65 54.95
L 65 49.95 -65 49.95 -65 54.95 65 54.95 Z"/>
</g>

<g id="icon_r_box_02_10_Layer2_0_MEMBER_0_FILL">
<path fill="#BBAEAA" stroke="none" d="
M 75.9 40.45
L 75.9 3 7.35 3 7.35 40.45 75.9 40.45 Z"/>
</g>

<g id="icon_r_box_02_10_Layer2_0_MEMBER_1_MEMBER_0_FILL">
<path fill="#6EABC8" stroke="none" d="
M 73.55 29.4
L 73.55 20.3 47.1 20.3 47.1 29.4 73.55 29.4 Z"/>
</g>

<g id="icon_r_box_02_10_Layer2_0_MEMBER_2_FILL">
<path fill="#E4DAD5" stroke="none" d="
M 28.75 40.45
L 28.75 34.6 22.95 34.6 22.95 40.45 28.75 40.45 Z"/>
</g>

<g id="icon_r_box_02_10_Layer2_0_MEMBER_3_FILL">
<path fill="#FFFFFF" stroke="none" d="
M 75.9 16.9
L 75.9 3 7.35 3 7.35 40.45 24.7 40.45 28.55 16.9 75.9 16.9 Z"/>
</g>

<g id="icon_r_box_02_10_Layer2_2_MEMBER_0_FILL">
<path fill="#FF2116" stroke="none" d="
M 75.9 3
L 75.9 0.5 7.35 0.5 7.35 3 75.9 3 Z"/>
</g>

<g id="icon_r_box_02_10_Layer2_3_FILL">
<path fill="#FF2116" stroke="none" d="
M 75.9 16.9
L 75.9 3 46.65 3
Q 45.85 6.75 40.65 11.6 35.03125 16.734375 30.1 16.9
L 75.9 16.9 Z"/>
</g>

<g id="icon_r_box_02_10_Layer2_4_FILL">
<path fill="#F3913F" stroke="none" d="
M 44.4 3
L 41.75 3
Q 41.45 5.8 37.65 10.65 33.5 15.85 29.8 16.9 33.2 16.9 38.8 11.6 44.4 6.25 44.4 3 Z"/>
</g>

<g id="icon_r_box_02_10_Layer2_5_FILL">
<path fill="#FFC323" stroke="none" d="
M 39.75 3
L 37.05 3
Q 36.9 7.75 33.35 12.8 31.55 15.35 29.8 16.9 33.7 14.6 36.9 9.75 39.75 5.45 39.75 3 Z"/>
</g>

<g id="icon_r_box_02_10_Layer2_7_MEMBER_0_FILL">
<path fill="#FF2116" stroke="none" d="
M 24.9 7.1
L 24.9 7.05 15.5 7.05
Q 14.95 7.05 14.65 7.35 14.1 8 14.8 8.45
L 18.05 10.6 15.15 12.1 15.1 12.1 15.05 12.15 13.65 12.9
Q 13.1 13.25 13.25 13.75 13.35 14.2 14 14.2
L 23.5 14.2 20.5 12.2 20.5 12.15 24.5 12.15 22.2 10.6 25.1 9.1 25.05 9.05 21.1 9.05 20.4 12.15 18.1 10.6 21.1 9.05 24.9 7.1 Z"/>
</g>

<g id="icon_r_box_02_10_Layer2_7_MEMBER_1_FILL">
<path fill="#FF2116" stroke="none" d="
M 15.15 12.1
L 15.7 9.55
Q 15.8 9.25 15.7 9.1
L 12.7 10.6 15.05 12.15 15.15 12.1 Z"/>
</g>

<g id="icon_r_box_02_10_Layer2_7_MEMBER_2_FILL">
<path fill="#FCAF0C" stroke="none" d="
M 24.65 10.6
L 27.6 9.1
Q 27 9 26.5 9.3
L 23.95 10.6 26.05 12
Q 26.3 12.15 26.95 12.15
L 24.65 10.6 Z"/>
</g>

<g id="icon_r_box_02_10_Layer2_7_MEMBER_3_FILL">
<path fill="#FC650C" stroke="none" d="
M 26.3 9.15
Q 25.75 9.05 25.55 9.15
L 22.95 10.5
Q 22.7 10.6 22.9 10.75
L 24.75 11.95
Q 25 12.15 25.75 12.15
L 23.4 10.6 26.3 9.15 Z"/>
</g>

<g id="icon_r_box_02_10_Layer2_8_MEMBER_0_FILL">
<path fill="#8AC3E2" stroke="none" d="
M 14.95 34.6
L 14.95 22.45 12.55 22.45 12.55 34.6 14.95 34.6 Z"/>
</g>

<g id="icon_r_box_02_10_Layer2_8_MEMBER_1_FILL">
<path fill="#8AC3E2" stroke="none" d="
M 20.15 34.6
L 20.15 22.45 17.8 22.45 17.8 34.6 20.15 34.6 Z"/>
</g>

<g id="icon_r_box_02_10_Layer2_9_MEMBER_0_FILL">
<path fill="#74C410" stroke="none" d="
M 59.05 27.6
Q 58.1 27 57.05 27 55.85 27 54.9 27.7 53.95 28.4 53.6 29.55
L 52.9 29.45
Q 51.95 29.45 51.3 30.15 50.6 30.85 50.6 31.8 50.6 32.75 51.3 33.4 51.95 34.1 52.9 34.1 54 34.1 54.6 33.4 55.15 33.85 55.85 34.15
L 55.85 36.15 72.15 36.15 72.15 34.85
Q 72.85 35.15 73.55 35.15 75.05 35.15 76.15 34.1 77.2 33.05 77.2 31.5 77.2 30 76.15 28.95 75.05 27.9 73.55 27.9
L 72.55 28.05
Q 71.8 26.35 69.95 26.35 68.85 26.35 68.05 27.05 67.05 26.2 65.65 26.2 63.9 26.2 62.75 27.5 62.15 26.5 60.9 26.5 59.65 26.5 59.05 27.6 Z"/>
</g>

<g id="icon_r_box_02_10_Layer2_9_MEMBER_1_FILL">
<path fill="#000000" stroke="none" d="
M 58.8 26.35
Q 58.05 26 57.05 26 55.75 26 54.65 26.65 53.55 27.3 52.95 28.45
L 52.9 28.45
Q 51.5 28.45 50.55 29.45 49.6 30.4 49.6 31.8 49.6 33.15 50.55 34.15 51.5 35.1 52.9 35.1 53.85 35.1 54.6 34.65
L 54.85 34.8 54.85 36.15
Q 54.85 36.55 55.15 36.85 55.45 37.15 55.85 37.15
L 72.15 37.15
Q 72.55 37.15 72.85 36.85 73.15 36.55 73.15 36.15
L 73.55 36.15
Q 75.45 36.15 76.85 34.8 78.2 33.45 78.2 31.5 78.2 29.6 76.85 28.25 75.45 26.9 73.55 26.9
L 73.05 26.95
Q 71.95 25.35 69.95 25.35 68.85 25.35 68.05 25.85 66.85 25.2 65.65 25.2 64.2 25.2 62.8 26.1 62.05 25.5 60.9 25.5 59.65 25.5 58.8 26.35
M 57.05 27
Q 58.1 27 59.05 27.6 59.65 26.5 60.9 26.5 62.15 26.5 62.75 27.5 63.9 26.2 65.65 26.2 67.05 26.2 68.05 27.05 68.85 26.35 69.95 26.35 71.8 26.35 72.55 28.05
L 73.55 27.9
Q 75.05 27.9 76.15 28.95 77.2 30 77.2 31.5 77.2 33.05 76.15 34.1 75.05 35.15 73.55 35.15 72.85 35.15 72.15 34.85
L 72.15 36.15 55.85 36.15 55.85 34.15
Q 55.15 33.85 54.6 33.4 54 34.1 52.9 34.1 51.95 34.1 51.3 33.4 50.6 32.75 50.6 31.8 50.6 30.85 51.3 30.15 51.95 29.45 52.9 29.45
L 53.6 29.55
Q 53.95 28.4 54.9 27.7 55.85 27 57.05 27 Z"/>
</g>

<g id="icon_r_box_02_10_Layer2_10_FILL">
<path fill="#FFFFFF" stroke="none" d="
M 78.85 40.45
L 78.85 31.85 48.25 31.85 48.25 40.45 78.85 40.45 Z"/>
</g>

<g id="icon_r_box_02_10_Layer2_11_FILL">
<path fill="#BBAEAA" stroke="none" d="
M 48.25 40.45
L 48.25 34.6 28.75 34.6 28.75 40.45 48.25 40.45 Z"/>
</g>

<g id="icon_r_box_02_10_Layer2_12_FILL">
<path fill="#E4DAD5" stroke="none" d="
M 48.25 40.45
L 48.25 37.5 28.75 37.5 28.75 40.45 48.25 40.45 Z"/>
</g>

<g id="icon_r_box_02_10_Layer2_13_MEMBER_0_FILL">
<path fill="#6EABC8" stroke="none" d="
M 44.85 34.6
L 44.85 20.3 31.6 20.3 31.6 34.6 44.85 34.6 Z"/>
</g>

<g id="icon_r_box_02_10_Layer2_13_MEMBER_1_FILL">
<path fill="#E4DAD5" stroke="none" d="
M 44.85 23.9
L 44.85 20.3 31.6 20.3 31.6 23.9 44.85 23.9 Z"/>
</g>

<g id="icon_r_box_02_10_Layer2_14_MEMBER_0_FILL">
<path fill="#FF2116" stroke="none" d="
M 78.85 35.4
L 78.85 33.9 71.5 33.9 71.5 35.4 78.85 35.4 Z"/>
</g>

<g id="icon_r_box_02_10_Layer2_14_MEMBER_1_FILL">
<path fill="#FF2116" stroke="none" d="
M 78.85 38.4
L 78.85 36.9 71.5 36.9 71.5 38.4 78.85 38.4 Z"/>
</g>

<g id="icon_r_box_02_10_Layer1_0_FILL">
<path fill="#FFFFFF" stroke="none" d="
M 28.45 -19
Q 28.85 -19 28.85 -18.6 28.85 -18.4 28.85 -18.1 28.8 -17.85 28.75 -17.55 28.7 -17.25 28.85 -17.05 29 -16.9 29.3 -16.85 29.6 -16.8 29.85 -16.85 30.1 -16.95 30.2 -17.25 30.3 -17.55 30.35 -18 30.4 -18.4 30.4 -18.85 30.4 -19.55 30.05 -19.85 29.75 -20.15 29.05 -20.15
L 24.6 -20.15
Q 24.35 -20.15 24.25 -20 24.1 -19.8 24.1 -19.6 24.1 -19.35 24.25 -19.2 24.35 -19 24.6 -19
L 28.45 -19
M 31.4 -22.45
Q 31.3 -22.6 31.05 -22.6
L 23.5 -22.6
Q 23.25 -22.6 23.15 -22.45 23 -22.25 23 -22 23 -21.75 23.15 -21.6 23.25 -21.45 23.5 -21.45
L 26.55 -21.45 26.55 -20.85
Q 26.55 -20.6 26.75 -20.45 26.95 -20.35 27.3 -20.35 27.6 -20.35 27.8 -20.45 28 -20.6 28 -20.85
L 28 -21.45 31.05 -21.45
Q 31.3 -21.45 31.4 -21.6 31.55 -21.75 31.55 -22 31.55 -22.25 31.4 -22.45
M 24.45 -25.6
Q 24.3 -25.45 24.3 -25.15 24.3 -24.9 24.45 -24.75 24.55 -24.6 24.8 -24.6
L 28.4 -24.6
Q 28.7 -24.6 28.8 -24.5 28.95 -24.35 28.95 -24.1 28.95 -23.9 28.9 -23.75 28.9 -23.55 28.85 -23.4 28.8 -22.9 29.4 -22.8 29.75 -22.75 29.95 -22.85 30.15 -22.95 30.2 -23.2 30.3 -23.45 30.3 -23.75 30.35 -24 30.35 -24.25 30.35 -25 29.95 -25.35 29.6 -25.75 28.8 -25.75
L 24.8 -25.75
Q 24.55 -25.75 24.45 -25.6
M 18.95 -25.7
Q 18.75 -25.6 18.75 -25.35
L 18.75 -22.9 17.85 -22.9
Q 17.6 -22.9 17.5 -22.75 17.4 -22.6 17.4 -22.35 17.4 -22.1 17.5 -21.95 17.6 -21.8 17.85 -21.8
L 18.75 -21.8 18.75 -18.65
Q 18.75 -18.45 18.95 -18.3 19.15 -18.2 19.4 -18.2 19.65 -18.2 19.85 -18.3 20.05 -18.45 20.05 -18.65
L 20.05 -25.35
Q 20.05 -25.6 19.85 -25.7 19.65 -25.85 19.4 -25.85 19.15 -25.85 18.95 -25.7
M 16.75 -25.65
Q 16.75 -25.9 16.55 -26 16.35 -26.15 16.05 -26.15 15.8 -26.15 15.6 -26 15.4 -25.9 15.4 -25.65
L 15.4 -24.75 14.45 -24.75
Q 14.2 -24.75 14.1 -24.6 13.95 -24.45 13.95 -24.2 13.95 -23.95 14.1 -23.8 14.2 -23.65 14.45 -23.65
L 15.4 -23.65 15.4 -23.15
Q 15.4 -22.4 15.05 -21.7 14.7 -20.95 13.95 -20.3 13.75 -20.1 13.75 -19.85 13.8 -19.6 13.95 -19.45 14.15 -19.3 14.35 -19.25 14.6 -19.25 14.85 -19.45 15.55 -20.05 16.05 -20.9
L 17.25 -19.55
Q 17.4 -19.35 17.65 -19.35 17.9 -19.35 18.1 -19.5 18.3 -19.7 18.35 -19.95 18.35 -20.2 18.15 -20.4
L 16.55 -22.05
Q 16.75 -22.65 16.75 -23.2
L 16.75 -23.65 17.7 -23.65
Q 17.95 -23.65 18.05 -23.8 18.2 -23.95 18.2 -24.2 18.2 -24.45 18.05 -24.6 17.95 -24.75 17.7 -24.75
L 16.75 -24.75 16.75 -25.65
M 20.85 -25.8
Q 20.65 -25.65 20.65 -25.4
L 20.65 -18.55
Q 20.65 -18.3 20.85 -18.2 21 -18.05 21.3 -18.05 21.6 -18.05 21.75 -18.2 21.95 -18.3 21.95 -18.55
L 21.95 -25.4
Q 21.95 -25.65 21.75 -25.8 21.6 -25.9 21.3 -25.9 21 -25.9 20.85 -25.8
M 12.5 -19.9
Q 12.75 -19.9 12.9 -20.05 13.05 -20.2 13.05 -20.45 13.05 -20.7 12.9 -20.85 12.75 -21 12.5 -21
L 5.05 -21
Q 4.8 -21 4.65 -20.85 4.5 -20.7 4.5 -20.45 4.5 -20.2 4.65 -20.05 4.8 -19.9 5.05 -19.9
L 8.05 -19.9 8.05 -17.8
Q 8.05 -17.55 8.25 -17.4 8.45 -17.25 8.8 -17.25 9.1 -17.25 9.3 -17.4 9.5 -17.55 9.5 -17.8
L 9.5 -19.9 12.5 -19.9
M 7.6 -25.75
Q 7.1 -25.6 6.7 -25.3 6.35 -25 6.15 -24.6 5.95 -24.2 5.95 -23.75 5.95 -23.25 6.15 -22.85 6.35 -22.45 6.7 -22.15 7.1 -21.9 7.6 -21.7 8.1 -21.55 8.8 -21.55 9.45 -21.55 9.95 -21.7 10.5 -21.9 10.85 -22.15 11.2 -22.45 11.4 -22.85 11.6 -23.25 11.6 -23.75 11.6 -24.2 11.4 -24.6 11.2 -25 10.85 -25.3 10.5 -25.6 9.95 -25.75 9.45 -25.95 8.8 -25.95 8.1 -25.95 7.6 -25.75
M 10.1 -23.75
Q 10.1 -23.25 9.75 -22.95 9.4 -22.65 8.8 -22.65 8.15 -22.65 7.8 -22.95 7.45 -23.25 7.45 -23.75 7.45 -24.2 7.8 -24.5 8.15 -24.8 8.8 -24.8 9.4 -24.8 9.75 -24.5 10.1 -24.2 10.1 -23.75 Z"/>
</g>

<path id="icon_r_box_02_10_Layer2_0_MEMBER_0_1_STROKES" stroke="#000000" stroke-width="1" stroke-linejoin="round" stroke-linecap="round" fill="none" d="
M 75.9 40.45
L 7.35 40.45 7.35 3 75.9 3 75.9 40.45 Z"/>

<path id="icon_r_box_02_10_Layer2_0_MEMBER_1_MEMBER_0_1_STROKES" stroke="#000000" stroke-width="1" stroke-linejoin="round" stroke-linecap="round" fill="none" d="
M 73.55 29.4
L 47.1 29.4 47.1 20.3 73.55 20.3 73.55 29.4 Z"/>

<path id="icon_r_box_02_10_Layer2_0_MEMBER_1_MEMBER_1_MEMBER_0_MEMBER_0_1_STROKES" stroke="#000000" stroke-width="1" stroke-linejoin="round" stroke-linecap="round" fill="none" d="
M 51.55 20.3
L 51.55 29.4"/>

<path id="icon_r_box_02_10_Layer2_0_MEMBER_1_MEMBER_1_MEMBER_1_MEMBER_0_1_STROKES" stroke="#000000" stroke-width="1" stroke-linejoin="round" stroke-linecap="round" fill="none" d="
M 55.95 20.3
L 55.95 29.4"/>

<path id="icon_r_box_02_10_Layer2_0_MEMBER_1_MEMBER_1_MEMBER_2_MEMBER_0_1_STROKES" stroke="#000000" stroke-width="1" stroke-linejoin="round" stroke-linecap="round" fill="none" d="
M 60.35 20.3
L 60.35 29.4"/>

<path id="icon_r_box_02_10_Layer2_0_MEMBER_1_MEMBER_1_MEMBER_3_MEMBER_0_1_STROKES" stroke="#000000" stroke-width="1" stroke-linejoin="round" stroke-linecap="round" fill="none" d="
M 64.75 20.3
L 64.75 29.4"/>

<path id="icon_r_box_02_10_Layer2_0_MEMBER_1_MEMBER_1_MEMBER_4_MEMBER_0_1_STROKES" stroke="#000000" stroke-width="1" stroke-linejoin="round" stroke-linecap="round" fill="none" d="
M 69.15 20.3
L 69.15 29.4"/>

<path id="icon_r_box_02_10_Layer2_0_MEMBER_2_1_STROKES" stroke="#000000" stroke-width="1" stroke-linejoin="round" stroke-linecap="round" fill="none" d="
M 28.75 40.45
L 22.95 40.45 22.95 34.6 28.75 34.6 28.75 40.45 Z"/>

<path id="icon_r_box_02_10_Layer2_0_MEMBER_3_1_STROKES" stroke="#000000" stroke-width="1" stroke-linejoin="round" stroke-linecap="round" fill="none" d="
M 75.9 3
L 75.9 16.9 28.55 16.9 24.7 40.45 7.35 40.45 7.35 3 75.9 3 Z"/>

<path id="icon_r_box_02_10_Layer2_1_MEMBER_0_1_STROKES" stroke="#000000" stroke-width="1" stroke-linejoin="round" stroke-linecap="round" fill="none" d="
M 0.5 40.45
L 82.75 40.45"/>

<path id="icon_r_box_02_10_Layer2_2_MEMBER_1_1_STROKES" stroke="#000000" stroke-width="1" stroke-linejoin="miter" stroke-linecap="butt" stroke-miterlimit="10" fill="none" d="
M 75.9 0.5
L 7.35 0.5 7.35 3 75.9 3 75.9 0.5 Z"/>

<path id="icon_r_box_02_10_Layer2_6_1_STROKES" stroke="#000000" stroke-width="1" stroke-linejoin="round" stroke-linecap="round" fill="none" d="
M 75.9 3
L 75.9 16.9 28.55 16.9 24.7 40.45 7.35 40.45 7.35 3 75.9 3 Z"/>

<path id="icon_r_box_02_10_Layer2_8_MEMBER_0_1_STROKES" stroke="#000000" stroke-width="1" stroke-linejoin="round" stroke-linecap="round" fill="none" d="
M 14.95 34.6
L 12.55 34.6 12.55 22.45 14.95 22.45 14.95 34.6 Z"/>

<path id="icon_r_box_02_10_Layer2_8_MEMBER_1_1_STROKES" stroke="#000000" stroke-width="1" stroke-linejoin="round" stroke-linecap="round" fill="none" d="
M 20.15 34.6
L 17.8 34.6 17.8 22.45 20.15 22.45 20.15 34.6 Z"/>

<path id="icon_r_box_02_10_Layer2_10_1_STROKES" stroke="#000000" stroke-width="1" stroke-linejoin="round" stroke-linecap="round" fill="none" d="
M 78.85 40.45
L 48.25 40.45 48.25 31.85 78.85 31.85 78.85 40.45 Z"/>

<path id="icon_r_box_02_10_Layer2_11_1_STROKES" stroke="#000000" stroke-width="1" stroke-linejoin="round" stroke-linecap="round" fill="none" d="
M 48.25 40.45
L 28.75 40.45 28.75 34.6 48.25 34.6 48.25 40.45 Z"/>

<path id="icon_r_box_02_10_Layer2_12_1_STROKES" stroke="#000000" stroke-width="1" stroke-linejoin="round" stroke-linecap="round" fill="none" d="
M 48.25 40.45
L 28.75 40.45 28.75 37.5 48.25 37.5 48.25 40.45 Z"/>

<path id="icon_r_box_02_10_Layer2_13_MEMBER_0_1_STROKES" stroke="#000000" stroke-width="1" stroke-linejoin="round" stroke-linecap="round" fill="none" d="
M 44.85 20.3
L 31.6 20.3 31.6 34.6 44.85 34.6 44.85 20.3 Z"/>

<path id="icon_r_box_02_10_Layer2_13_MEMBER_1_1_STROKES" stroke="#000000" stroke-width="1" stroke-linejoin="round" stroke-linecap="round" fill="none" d="
M 44.85 20.3
L 31.6 20.3 31.6 23.9 44.85 23.9 44.85 20.3 Z"/>

<path id="icon_r_box_02_10_Layer2_13_MEMBER_2_MEMBER_0_1_STROKES" stroke="#000000" stroke-width="1" stroke-linejoin="round" stroke-linecap="round" fill="none" d="
M 38.2 23.9
L 38.2 34.6"/>

<path id="icon_r_box_02_10_Layer2_15_1_STROKES" stroke="#000000" stroke-width="1" stroke-linejoin="round" stroke-linecap="round" fill="none" d="
M 78.85 40.45
L 48.25 40.45 48.25 31.85 78.85 31.85 78.85 40.45 Z"/>
</defs>

<g transform="matrix( 1, 0, 0, 0.999603271484375, 65,60) ">
<g transform="matrix( 1, 0, 0, 1, 0,0) ">
<use xlink:href="#icon_r_box_02_10_Layer3_0_FILL"/>
</g>

<g transform="matrix( 1, 0, 0, 1, -0.05,0.05) ">
<use xlink:href="#icon_r_box_02_10_Layer3_1_FILL"/>
</g>

<g transform="matrix( 1, 0, 0, 1, 0,-2.15) ">
<use xlink:href="#icon_r_box_02_10_Layer3_2_FILL"/>
</g>

<g transform="matrix( 1, 0, 0, 1, 0,0.05) ">
<use xlink:href="#icon_r_box_02_10_Layer3_3_FILL"/>
</g>

<g transform="matrix( 1, 0, 0, 1, -41.6,-32) ">
<use xlink:href="#icon_r_box_02_10_Layer2_0_MEMBER_0_FILL"/>

<use xlink:href="#icon_r_box_02_10_Layer2_0_MEMBER_0_1_STROKES"/>
</g>

<g transform="matrix( 1, 0, 0, 1, -41.6,-32) ">
<use xlink:href="#icon_r_box_02_10_Layer2_0_MEMBER_1_MEMBER_0_FILL"/>

<use xlink:href="#icon_r_box_02_10_Layer2_0_MEMBER_1_MEMBER_0_1_STROKES"/>
</g>

<g transform="matrix( 1, 0, 0, 1, -41.6,-32) ">
<use xlink:href="#icon_r_box_02_10_Layer2_0_MEMBER_1_MEMBER_1_MEMBER_0_MEMBER_0_1_STROKES"/>
</g>

<g transform="matrix( 1, 0, 0, 1, -41.6,-32) ">
<use xlink:href="#icon_r_box_02_10_Layer2_0_MEMBER_1_MEMBER_1_MEMBER_1_MEMBER_0_1_STROKES"/>
</g>

<g transform="matrix( 1, 0, 0, 1, -41.6,-32) ">
<use xlink:href="#icon_r_box_02_10_Layer2_0_MEMBER_1_MEMBER_1_MEMBER_2_MEMBER_0_1_STROKES"/>
</g>

<g transform="matrix( 1, 0, 0, 1, -41.6,-32) ">
<use xlink:href="#icon_r_box_02_10_Layer2_0_MEMBER_1_MEMBER_1_MEMBER_3_MEMBER_0_1_STROKES"/>
</g>

<g transform="matrix( 1, 0, 0, 1, -41.6,-32) ">
<use xlink:href="#icon_r_box_02_10_Layer2_0_MEMBER_1_MEMBER_1_MEMBER_4_MEMBER_0_1_STROKES"/>
</g>

<g transform="matrix( 1, 0, 0, 1, -41.6,-32) ">
<use xlink:href="#icon_r_box_02_10_Layer2_0_MEMBER_2_FILL"/>

<use xlink:href="#icon_r_box_02_10_Layer2_0_MEMBER_2_1_STROKES"/>
</g>

<g transform="matrix( 1, 0, 0, 1, -41.6,-32) ">
<use xlink:href="#icon_r_box_02_10_Layer2_0_MEMBER_3_FILL"/>

<use xlink:href="#icon_r_box_02_10_Layer2_0_MEMBER_3_1_STROKES"/>
</g>

<g transform="matrix( 1, 0, 0, 1, -41.6,-32) ">
<use xlink:href="#icon_r_box_02_10_Layer2_1_MEMBER_0_1_STROKES"/>
</g>

<g transform="matrix( 1, 0, 0, 1, -41.6,-32) ">
<use xlink:href="#icon_r_box_02_10_Layer2_2_MEMBER_0_FILL"/>
</g>

<g transform="matrix( 1, 0, 0, 1, -41.6,-32) ">
<use xlink:href="#icon_r_box_02_10_Layer2_2_MEMBER_1_1_STROKES"/>
</g>

<g transform="matrix( 1, 0, 0, 1, -41.6,-32) ">
<use xlink:href="#icon_r_box_02_10_Layer2_3_FILL"/>
</g>

<g transform="matrix( 1, 0, 0, 1, -41.6,-32) ">
<use xlink:href="#icon_r_box_02_10_Layer2_4_FILL"/>
</g>

<g transform="matrix( 1, 0, 0, 1, -41.6,-32) ">
<use xlink:href="#icon_r_box_02_10_Layer2_5_FILL"/>
</g>

<g transform="matrix( 1, 0, 0, 1, -41.6,-32) ">
<use xlink:href="#icon_r_box_02_10_Layer2_6_1_STROKES"/>
</g>

<g transform="matrix( 1, 0, 0, 1, -41.6,-32) ">
<use xlink:href="#icon_r_box_02_10_Layer2_7_MEMBER_0_FILL"/>
</g>

<g transform="matrix( 1, 0, 0, 1, -41.6,-32) ">
<use xlink:href="#icon_r_box_02_10_Layer2_7_MEMBER_1_FILL"/>
</g>

<g transform="matrix( 1, 0, 0, 1, -41.6,-32) ">
<use xlink:href="#icon_r_box_02_10_Layer2_7_MEMBER_2_FILL"/>
</g>

<g transform="matrix( 1, 0, 0, 1, -41.6,-32) ">
<use xlink:href="#icon_r_box_02_10_Layer2_7_MEMBER_3_FILL"/>
</g>

<g transform="matrix( 1, 0, 0, 1, -41.6,-32) ">
<use xlink:href="#icon_r_box_02_10_Layer2_8_MEMBER_0_FILL"/>

<use xlink:href="#icon_r_box_02_10_Layer2_8_MEMBER_0_1_STROKES"/>
</g>

<g transform="matrix( 1, 0, 0, 1, -41.6,-32) ">
<use xlink:href="#icon_r_box_02_10_Layer2_8_MEMBER_1_FILL"/>

<use xlink:href="#icon_r_box_02_10_Layer2_8_MEMBER_1_1_STROKES"/>
</g>

<g transform="matrix( 1, 0, 0, 1, -41.6,-32) ">
<use xlink:href="#icon_r_box_02_10_Layer2_9_MEMBER_0_FILL"/>
</g>

<g transform="matrix( 1, 0, 0, 1, -41.6,-32) ">
<use xlink:href="#icon_r_box_02_10_Layer2_9_MEMBER_1_FILL"/>
</g>

<g transform="matrix( 1, 0, 0, 1, -41.6,-32) ">
<use xlink:href="#icon_r_box_02_10_Layer2_10_FILL"/>

<use xlink:href="#icon_r_box_02_10_Layer2_10_1_STROKES"/>
</g>

<g transform="matrix( 1, 0, 0, 1, -41.6,-32) ">
<use xlink:href="#icon_r_box_02_10_Layer2_11_FILL"/>

<use xlink:href="#icon_r_box_02_10_Layer2_11_1_STROKES"/>
</g>

<g transform="matrix( 1, 0, 0, 1, -41.6,-32) ">
<use xlink:href="#icon_r_box_02_10_Layer2_12_FILL"/>

<use xlink:href="#icon_r_box_02_10_Layer2_12_1_STROKES"/>
</g>

<g transform="matrix( 1, 0, 0, 1, -41.6,-32) ">
<use xlink:href="#icon_r_box_02_10_Layer2_13_MEMBER_0_FILL"/>

<use xlink:href="#icon_r_box_02_10_Layer2_13_MEMBER_0_1_STROKES"/>
</g>

<g transform="matrix( 1, 0, 0, 1, -41.6,-32) ">
<use xlink:href="#icon_r_box_02_10_Layer2_13_MEMBER_1_FILL"/>

<use xlink:href="#icon_r_box_02_10_Layer2_13_MEMBER_1_1_STROKES"/>
</g>

<g transform="matrix( 1, 0, 0, 1, -41.6,-32) ">
<use xlink:href="#icon_r_box_02_10_Layer2_13_MEMBER_2_MEMBER_0_1_STROKES"/>
</g>

<g transform="matrix( 1, 0, 0, 1, -41.6,-32) ">
<use xlink:href="#icon_r_box_02_10_Layer2_14_MEMBER_0_FILL"/>
</g>

<g transform="matrix( 1, 0, 0, 1, -41.6,-32) ">
<use xlink:href="#icon_r_box_02_10_Layer2_14_MEMBER_1_FILL"/>
</g>

<g transform="matrix( 1, 0, 0, 1, -41.6,-32) ">
<use xlink:href="#icon_r_box_02_10_Layer2_15_1_STROKES"/>
</g>

<g transform="matrix( 1, 0, 0, 1, 0,0) ">
<use xlink:href="#icon_r_box_02_10_Layer1_0_FILL"/>
</g>
</g>
</svg>
