
<svg xmlns="http://www.w3.org/2000/svg" version="1.1" xmlns:xlink="http://www.w3.org/1999/xlink" preserveAspectRatio="none" x="0px" y="0px" width="130px" height="115px" viewBox="0 0 130 115">
<defs>
<filter id="Filter_1" x="-23.758219902893128%" y="-22.411306050161258%" width="147.51643980578626%" height="144.82261210032252%" color-interpolation-filters="sRGB">
<feFlood flood-color="#000000" flood-opacity="1" in="SourceGraphic" result="result1"/>

<feGaussianBlur in="SourceGraphic" stdDeviation="1.6666666666666667,1.6666666666666667" result="result2"/>

<feComposite in2="result2" in="result1" operator="in" result="result3"/>

<feComposite in2="result3" in="SourceGraphic" operator="over" result="result4"/>
</filter>

<g id="icon_r_box_02_23_Layer3_0_FILL">
<path fill="#FFFFFF" fill-opacity="0" stroke="none" d="
M 65 -55
L -65 -55 -65 25 65 25 65 -55 Z"/>
</g>

<g id="icon_r_box_02_23_Layer3_1_FILL">
<path fill="#FFFFFF" fill-opacity="0" stroke="none" d="
M 65.05 49.95
L 65.05 24.95 -64.95 24.95 -64.95 49.95 65.05 49.95 Z"/>
</g>

<g id="icon_r_box_02_23_Layer3_2_FILL">
<path fill="#FFFFFF" fill-opacity="0" stroke="none" d="
M 65 -52.85
L 65 -57.85 -65 -57.85 -65 -52.85 65 -52.85 Z"/>
</g>

<g id="icon_r_box_02_23_Layer3_3_FILL">
<path fill="#FFFFFF" fill-opacity="0" stroke="none" d="
M 65 54.95
L 65 49.95 -65 49.95 -65 54.95 65 54.95 Z"/>
</g>

<g id="Duplicate_Items_Folder______0_Layer1_0_FILL">
<path fill="#FFFFFF" stroke="none" d="
M 27.2 -30
L 26.05 -33.3 15.3 -29.65
Q 14.8 -29.5 14.45 -29.05 14.15 -28.65 14.1 -28.15
L 13.45 -22.35
Q 6.8474609375 -25 -0.85 -25 -16.55 -25 -27.65 -13.9 -38.8 -2.75 -38.8 12.95 -38.8 24.0775390625 -33.2 32.9 -33.1666015625 35.7916015625 -31.55 37.8 -29.9 39.9 -27.6 39.9
L -27.55 39.9
Q -16.47890625 50.9 -0.85 50.9 14.85 50.9 26 39.75 37.1 28.65 37.1 12.95 37.1 -2.75 26 -13.85 25.8181640625 -14.0318359375 25.6 -14.2 26.2 -14.7478515625 26.2 -15.85
L 26.2 -18.45
Q 26.2 -20.55 24.05 -20.55
L 17.15 -20.55
Q 17.0087890625 -20.627734375 16.85 -20.7
L 17.5 -26.6 27.2 -30 Z"/>
</g>

<g id="Duplicate_Items_Folder______0_Layer0_0_FILL">
<path fill="#FFFFFF" stroke="none" d="
M 98.5 74.4
Q 107.95 65 107.95 51.65 107.95 38.3 98.5 28.85 89.1 19.45 75.75 19.45 62.4 19.45 52.95 28.85 43.55 38.3 43.55 51.65 43.55 65 52.95 74.4 62.4 83.85 75.75 83.85 89.1 83.85 98.5 74.4 Z"/>
</g>

<g id="Duplicate_Items_Folder______0_Layer0_1_MEMBER_0_FILL">
<path fill="#000000" stroke="none" d="
M 113.2 66.55
Q 113.3 69.05 116.35 69.05
L 142.75 69.05
Q 145.75 69.05 145.9 66.55
L 149 15.1 110 15.1 113.2 66.55 Z"/>
</g>

<g id="Duplicate_Items_Folder______0_Layer0_1_MEMBER_1_FILL">
<path fill="#000000" stroke="none" d="
M 151.85 8.45
Q 151.85 5.45 148.85 5.45
L 110.2 5.45
Q 107.2 5.45 107.2 8.45
L 107.2 12.1
Q 107.2 15.1 110.2 15.1
L 148.85 15.1
Q 151.85 15.1 151.85 12.1
L 151.85 8.45 Z"/>
</g>

<g id="Duplicate_Items_Folder______0_Layer0_1_MEMBER_2_FILL">
<path fill="#000000" stroke="none" d="
M 74.5 -14.25
L 73.25 -17.75 61.95 -13.9
Q 61.4 -13.75 61.05 -13.25 60.75 -12.85 60.7 -12.3
L 59.65 -2.9 63.4 -2.9 64.25 -10.7 74.5 -14.25 Z"/>
</g>

<g id="Duplicate_Items_Folder______0_Layer0_1_MEMBER_3_FILL">
<path fill="#000000" stroke="none" d="
M 113.2 66.55
Q 113.3 69.05 116.35 69.05
L 142.75 69.05
Q 145.75 69.05 145.9 66.55
L 149 15.1 110 15.1 113.2 66.55 Z"/>
</g>

<g id="Duplicate_Items_Folder______0_Layer0_1_MEMBER_4_MEMBER_0_FILL">
<path fill="#000000" stroke="none" d="
M 151.85 8.45
Q 151.85 5.45 148.85 5.45
L 110.2 5.45
Q 107.2 5.45 107.2 8.45
L 107.2 12.1
Q 107.2 15.1 110.2 15.1
L 148.85 15.1
Q 151.85 15.1 151.85 12.1
L 151.85 8.45 Z"/>
</g>

<g id="Duplicate_Items_Folder______0_Layer0_1_MEMBER_4_MEMBER_1_FILL">
<path fill="#000000" stroke="none" d="
M 74.5 -14.25
L 73.25 -17.75 61.95 -13.9
Q 61.4 -13.75 61.05 -13.25 60.75 -12.85 60.7 -12.3
L 59.65 -2.9 63.4 -2.9 64.25 -10.7 74.5 -14.25 Z"/>
</g>

<g id="Duplicate_Items_Folder______0_Layer0_2_FILL">
<path fill="#A06D6D" stroke="none" d="
M -0.55 10.8
Q -6.15 6.25 -14.1 6.25 -22 6.25 -27.6 10.8 -33.25 15.35 -33.25 21.75
L 5.05 21.75
Q 5.05 15.35 -0.55 10.8
M 3.65 30.8
Q 5.25 30.8 6.4 29.6 7.6 28.45 7.6 26.8 7.6 25.15 6.4 23.95 5.25 22.8 3.65 22.8
L -31.75 22.8
Q -33.4 22.8 -34.55 23.95 -35.7 25.15 -35.7 26.8 -35.7 28.45 -34.55 29.6 -33.4 30.8 -31.75 30.8
L 3.65 30.8
M 5.05 32.2
Q 5.05 32 5.05 31.85
L -33.2 31.85
Q -33.2 32 -33.2 32.2
L -33.2 32.25
Q -33.2 35.2 -31.55 37.25 -29.9 39.35 -27.6 39.35
L -0.55 39.35
Q 1.75 39.35 3.4 37.25 5.05 35.2 5.05 32.25
L 5.05 32.2 Z"/>
</g>

<g id="Duplicate_Items_Folder______0_Layer0_3_MEMBER_0_FILL">
<path fill="#000000" stroke="none" d="
M 43.3 99.3
L 43.3 99.35
Q 43.3 102.4 45.45 104.55 47.6 106.7 50.65 106.7
L 85.95 106.7
Q 89 106.7 91.15 104.55 93.3 102.4 93.3 99.35
L 93.3 99.3
Q 93.3 99.1234375 93.3 98.95
L 43.3 98.95
Q 43.3 99.1234375 43.3 99.3 Z"/>
</g>

<g id="Duplicate_Items_Folder______0_Layer0_3_MEMBER_1_FILL">
<path fill="#000000" stroke="none" d="
M 78.9 40.65
Q 78.9 30.3 71.6 23 64.25 15.65 53.9 15.65 43.55 15.65 36.25 23 28.9 30.3 28.9 40.65
L 78.9 40.65 Z"/>
</g>

<g id="Duplicate_Items_Folder______0_Layer0_3_MEMBER_2_FILL">
<path fill="#000000" stroke="none" d="
M 22.45 50.3
Q 20.95 51.85 20.95 54
L 20.95 54.05
Q 20.95 56.2 22.45 57.7 24 59.25 26.15 59.25
L 72.35 59.25
Q 74.5 59.25 76 57.7 77.55 56.2 77.55 54.05
L 77.55 54
Q 77.55 51.85 76 50.3 74.5 48.8 72.35 48.8
L 26.15 48.8
Q 24 48.8 22.45 50.3 Z"/>
</g>

<g id="Duplicate_Items_Folder______0_Layer0_3_MEMBER_3_FILL">
<path fill="#000000" stroke="none" d="
M 43.3 99.3
L 43.3 99.35
Q 43.3 102.4 45.45 104.55 47.6 106.7 50.65 106.7
L 85.95 106.7
Q 89 106.7 91.15 104.55 93.3 102.4 93.3 99.35
L 93.3 99.3
Q 93.3 99.1234375 93.3 98.95
L 43.3 98.95
Q 43.3 99.1234375 43.3 99.3 Z"/>
</g>

<g id="Duplicate_Items_Folder______0_Layer0_3_MEMBER_4_FILL">
<path fill="#000000" stroke="none" d="
M 78.9 40.65
Q 78.9 30.3 71.6 23 64.25 15.65 53.9 15.65 43.55 15.65 36.25 23 28.9 30.3 28.9 40.65
L 78.9 40.65 Z"/>
</g>

<g id="Duplicate_Items_Folder______0_Layer0_3_MEMBER_5_FILL">
<path fill="#000000" stroke="none" d="
M 22.45 50.3
Q 20.95 51.85 20.95 54
L 20.95 54.05
Q 20.95 56.2 22.45 57.7 24 59.25 26.15 59.25
L 72.35 59.25
Q 74.5 59.25 76 57.7 77.55 56.2 77.55 54.05
L 77.55 54
Q 77.55 51.85 76 50.3 74.5 48.8 72.35 48.8
L 26.15 48.8
Q 24 48.8 22.45 50.3 Z"/>
</g>

<g id="Duplicate_Items_Folder______0_Layer0_3_MEMBER_6_FILL">
<path fill="#FFFFFF" stroke="none" d="
M -23.55 14.8
Q -23.55 14.35 -23.85 14.05 -24.15 13.75 -24.5 13.75 -24.55 13.75 -24.6 13.75 -24.9 13.8 -25.2 14.05 -25.5 14.35 -25.5 14.8 -25.5 15.15 -25.2 15.45 -24.9 15.7 -24.6 15.75 -24.55 15.75 -24.5 15.75 -24.15 15.75 -23.85 15.45 -23.55 15.15 -23.55 14.8
M -21.1 11.65
Q -20.75 11.65 -20.45 11.35 -20.1 11.05 -20.1 10.7 -20.1 10.25 -20.45 9.95 -20.75 9.65 -21.1 9.65 -21.5 9.65 -21.85 9.95 -22.15 10.25 -22.15 10.7 -22.15 11.05 -21.85 11.35 -21.5 11.65 -21.1 11.65
M -18.15 14.8
Q -18.15 14.35 -18.45 14.05 -18.75 13.75 -19.1 13.75 -19.5 13.75 -19.85 14.05 -20.1 14.35 -20.1 14.8 -20.1 15.15 -19.85 15.45 -19.5 15.75 -19.1 15.75 -18.75 15.75 -18.45 15.45 -18.15 15.15 -18.15 14.8
M -14.75 10.7
Q -14.75 10.25 -15.05 9.95 -15.35 9.65 -15.7 9.65 -16.15 9.65 -16.45 9.95 -16.75 10.25 -16.75 10.7 -16.75 11.05 -16.45 11.35 -16.15 11.65 -15.7 11.65 -15.35 11.65 -15.05 11.35 -14.75 11.05 -14.75 10.7 Z"/>
</g>

<g id="Duplicate_Items_Folder______0_Layer0_4_FILL">
<path fill="#FFFFFF" stroke="none" d="
M -20.1 -23.15
Q -19.98203125 -23.033203125 -19.9 -22.95
L 23.1 20.05
Q 23.206640625 20.155859375 23.3 20.2 25.0193359375 18.2939453125 26.35 16.2
L -16.05 -26.2
Q -18.1453125 -24.8705078125 -20.1 -23.15
M -22.9 -20.35
Q -24.62265625 -18.39453125 -25.95 -16.3
L 16.45 26.1
Q 18.54296875 24.7708984375 20.45 23.05 20.4056640625 22.956640625 20.3 22.85
L -22.75 -20.2
Q -22.8072265625 -20.25625 -22.9 -20.35 Z"/>
</g>

<g id="Duplicate_Items_Folder______0_Layer0_5_FILL">
<path fill="#FF2626" stroke="none" d="
M -21.5 -26.75
L -26.45 -21.8 21.95 26.6 26.9 21.65 -21.5 -26.75 Z"/>
</g>

<path id="Duplicate_Items_Folder______0_Layer1_0_1_STROKES" stroke="#FFFFFF" stroke-width="8" stroke-linejoin="round" stroke-linecap="round" fill="none" d="
M 24.05 -20.55
Q 26.2 -20.55 26.2 -18.45
L 26.2 -15.85
Q 26.2 -14.7478515625 25.625 -14.2 25.8181640625 -14.0318359375 26 -13.85 37.1 -2.75 37.1 12.95 37.1 28.65 26 39.75 14.85 50.9 -0.85 50.9 -16.47890625 50.9 -27.55 39.9
L -27.6 39.9
Q -29.9 39.9 -31.55 37.8 -33.1666015625 35.7916015625 -33.2 32.925 -38.8 24.0775390625 -38.8 12.95 -38.8 -2.75 -27.65 -13.9 -16.55 -25 -0.85 -25 6.8474609375 -25 13.45 -22.325
L 14.1 -28.15
Q 14.15 -28.65 14.45 -29.05 14.8 -29.5 15.3 -29.65
L 26.05 -33.3 27.2 -30 17.5 -26.6 16.875 -20.7
Q 17.0087890625 -20.627734375 17.15 -20.55
L 24.05 -20.55 Z"/>

<path id="Duplicate_Items_Folder______0_Layer0_0_1_STROKES" stroke="#FF2626" stroke-width="7" stroke-linejoin="round" stroke-linecap="round" fill="none" d="
M 23.360906982421884 37.143530273437506
Q 13.328036499023444 47.176400756835946 -0.8382263183593786 47.13882446289064 -15.004489135742194 47.17640075683592 -25.03735961914062 37.14353027343749 -35.07023010253906 27.110659790039065 -35.07023010253906 12.906820678710957 -35.07023010253907 -1.2218658447265653 -25.037359619140627 -11.254736328125006 -15.00448913574219 -21.287606811523446 -0.8382263183593714 -21.32518310546874 13.328036499023437 -21.28760681152344 23.360906982421877 -11.254736328124991 33.39377746582031 -1.2218658447265653 33.39377746582031 12.906820678710943 33.39377746582032 27.110659790039065 23.360906982421884 37.143530273437506 Z"/>

<path id="Duplicate_Items_Folder______0_Layer0_1_MEMBER_0_1_STROKES" stroke="#FFFFFF" stroke-width="5" stroke-linejoin="round" stroke-linecap="round" fill="none" d="
M 21.761764526367188 25.470530700683593
Q 21.65488128662109 27.251918029785156 19.517216491699216 27.251918029785156
L 0.7057662963867131 27.251918029785156
Q -1.4675262451171989 27.251918029785156 -1.5387817382812443 25.470530700683593
L -3.8011436462402344 -11.190420532226563 23.98849868774414 -11.190420532226563 21.761764526367188 25.470530700683593 Z"/>

<path id="Duplicate_Items_Folder______0_Layer0_1_MEMBER_1_1_STROKES" stroke="#FFFFFF" stroke-width="5" stroke-linejoin="round" stroke-linecap="round" fill="none" d="
M -3.4764465332031165 -20.56657562255859
L 24.06380157470703 -20.56657562255859
Q 26.201466369628903 -20.56657562255859 26.201466369628903 -18.42891082763672
L 26.201466369628903 -15.828085327148438
Q 26.201466369628903 -13.690420532226563 24.06380157470703 -13.690420532226563
L -3.4764465332031165 -13.690420532226563
Q -5.6141113281249915 -13.690420532226563 -5.6141113281249915 -15.828085327148438
L -5.6141113281249915 -18.42891082763672
Q -5.6141113281249915 -20.56657562255859 -3.4764465332031165 -20.56657562255859 Z"/>

<path id="Duplicate_Items_Folder______0_Layer0_1_MEMBER_2_1_STROKES" stroke="#FFFFFF" stroke-width="5" stroke-linejoin="round" stroke-linecap="round" fill="none" d="
M 26.03615875244141 -33.31217498779297
L 15.301365661621098 -29.654745483398436
Q 14.778875732421874 -29.512248229980468 14.446382141113283 -29.037257385253906 14.161387634277347 -28.657264709472656 14.113888549804692 -28.13477478027344
L 13.116407775878905 -19.20494689941406 16.678839111328124 -19.20494689941406 17.486323547363284 -26.614804077148435 27.223635864257815 -29.98723907470703 26.03615875244141 -33.31217498779297 Z"/>

<path id="Duplicate_Items_Folder______0_Layer0_2_1_STROKES" stroke="#FFFFFF" stroke-width="5" stroke-linejoin="round" stroke-linecap="round" fill="none" d="
M 5.05 32.2
L 5.05 32.25
Q 5.05 35.2 3.4 37.25 1.75 39.35 -0.55 39.35
L -27.6 39.35
Q -29.9 39.35 -31.55 37.25 -33.2 35.2 -33.2 32.25
L -33.2 32.2
Q -33.2 32 -33.2 31.85
L 5.05 31.85
Q 5.05 32 5.05 32.2 Z
M -31.75 22.8
L 3.65 22.8
Q 5.25 22.8 6.4 23.95 7.6 25.15 7.6 26.8 7.6 28.45 6.4 29.6 5.25 30.8 3.65 30.8
L -31.75 30.8
Q -33.4 30.8 -34.55 29.6 -35.7 28.45 -35.7 26.8 -35.7 25.15 -34.55 23.95 -33.4 22.8 -31.75 22.8 Z
M -33.25 21.75
Q -33.25 15.35 -27.6 10.8 -22 6.25 -14.1 6.25 -6.15 6.25 -0.55 10.8 5.05 15.35 5.05 21.75
L -33.25 21.75 Z"/>

<path id="Duplicate_Items_Folder______0_Layer0_3_MEMBER_0_1_STROKES" stroke="#FFFFFF" stroke-width="5" stroke-linejoin="round" stroke-linecap="round" fill="none" d="
M 5.0628814697265625 32.74534606933594
L 5.0628814697265625 32.793556213378906
Q 5.0628814697265625 35.734375 3.417247009277361 37.807411193847656 1.7716125488281307 39.88044738769531 -0.5628921508788949 39.88044738769531
L -27.581913757324216 39.88044738769531
Q -29.91641845703124 39.88044738769531 -31.562052917480457 37.807411193847656 -33.20768737792969 35.734375 -33.20768737792969 32.793556213378906
L -33.20768737792969 32.74534606933594
Q -33.20768737792969 32.575103998184204 -33.20768737792969 32.407875061035156
L 5.0628814697265625 32.407875061035156
Q 5.0628814697265625 32.575103998184204 5.0628814697265625 32.74534606933594 Z"/>

<path id="Duplicate_Items_Folder______0_Layer0_3_MEMBER_1_1_STROKES" stroke="#FFFFFF" stroke-width="5" stroke-linejoin="round" stroke-linecap="round" fill="none" d="
M -33.22961120605469 19.305282592773438
Q -33.22961120605469 12.887701416015625 -27.60383758544922 8.36129150390625 -22.016334533691413 3.8038787841796875 -14.094326782226567 3.8038787841796875 -6.17231903076172 3.8038787841796875 -0.5465454101562557 8.36129150390625 5.040957641601565 12.887701416015625 5.040957641601565 19.305282592773438
L -33.22961120605469 19.305282592773438 Z"/>

<path id="Duplicate_Items_Folder______0_Layer0_3_MEMBER_2_1_STROKES" stroke="#FFFFFF" stroke-width="5" stroke-linejoin="round" stroke-linecap="round" fill="none" d="
M -31.734492492675784 21.802075195312494
L 3.6275131225585895 21.802075195312494
Q 5.2731475830078125 21.802075195312494 6.4212646484375 22.95019226074218 7.607652282714838 24.136579895019533 7.607652282714838 25.78221435546875
L 7.607652282714838 25.8204849243164
Q 7.607652282714838 27.46611938476563 6.4212646484375 28.614236450195317 5.2731475830078125 29.800624084472656 3.6275131225585895 29.800624084472656
L -31.734492492675784 29.800624084472656
Q -33.380126953125 29.800624084472656 -34.566514587402345 28.614236450195317 -35.71463165283203 27.46611938476563 -35.71463165283203 25.8204849243164
L -35.71463165283203 25.78221435546875
Q -35.71463165283203 24.136579895019533 -34.566514587402345 22.95019226074218 -33.380126953125 21.802075195312494 -31.734492492675784 21.802075195312494 Z"/>
</defs>

<g transform="matrix( 1, 0, 0, 0.999603271484375, 65,60) ">
<g transform="matrix( 1, 0, 0, 1, 0,0) ">
<use xlink:href="#icon_r_box_02_23_Layer3_0_FILL"/>
</g>

<g transform="matrix( 1, 0, 0, 1, -0.05,0.05) ">
<use xlink:href="#icon_r_box_02_23_Layer3_1_FILL"/>
</g>

<g transform="matrix( 1, 0, 0, 1, 0,-2.15) ">
<use xlink:href="#icon_r_box_02_23_Layer3_2_FILL"/>
</g>

<g transform="matrix( 1, 0, 0, 1, 0,0.05) ">
<use xlink:href="#icon_r_box_02_23_Layer3_3_FILL"/>
</g>

<g filter="url(#Filter_1)" transform="matrix( 0.9999847412109375, 0, 0, 1.000396728515625, -65,-60) ">
<g transform="matrix( 0.7499847412109375, 0, 0, 0.7496795654296875, 65.05,32.45) ">
<g transform="matrix( 1, 0, 0, 1, 0,0) ">
<use xlink:href="#Duplicate_Items_Folder______0_Layer1_0_FILL"/>

<use xlink:href="#Duplicate_Items_Folder______0_Layer1_0_1_STROKES"/>
</g>

<g transform="matrix( 0.75152587890625, 0.75152587890625, -0.75152587890625, 0.75152587890625, -18.95,-82.8) ">
<use xlink:href="#Duplicate_Items_Folder______0_Layer0_0_FILL"/>

<use xlink:href="#Duplicate_Items_Folder______0_Layer0_0_1_STROKES" transform="matrix( 0.6652984619140625, -0.6652984619140625, 0.6652984619140625, 0.6652984619140625, 67.65,42.45) "/>
</g>

<g transform="matrix( 0.712554931640625, 0, 0, 0.712554931640625, -82.2,-21.95) ">
<use xlink:href="#Duplicate_Items_Folder______0_Layer0_1_MEMBER_0_FILL"/>

<use xlink:href="#Duplicate_Items_Folder______0_Layer0_1_MEMBER_0_1_STROKES" transform="matrix( 1.4033966064453125, 0, 0, 1.4033966064453125, 115.35,30.8) "/>
</g>

<g transform="matrix( 0.712554931640625, 0, 0, 0.712554931640625, -82,-24.45) ">
<use xlink:href="#Duplicate_Items_Folder______0_Layer0_1_MEMBER_1_FILL"/>

<use xlink:href="#Duplicate_Items_Folder______0_Layer0_1_MEMBER_1_1_STROKES" transform="matrix( 1.4033966064453125, 0, 0, 1.4033966064453125, 115.05,34.3) "/>
</g>

<g transform="matrix( 0.949981689453125, 0, 0, 0.949981689453125, -43.55,-16.45) ">
<use xlink:href="#Duplicate_Items_Folder______0_Layer0_1_MEMBER_2_FILL"/>

<use xlink:href="#Duplicate_Items_Folder______0_Layer0_1_MEMBER_2_1_STROKES" transform="matrix( 1.052642822265625, 0, 0, 1.052642822265625, 45.8,17.3) "/>
</g>

<g transform="matrix( 0.712554931640625, 0, 0, 0.712554931640625, -82.2,-21.95) ">
<use xlink:href="#Duplicate_Items_Folder______0_Layer0_1_MEMBER_3_FILL"/>
</g>

<g transform="matrix( 0.712554931640625, 0, 0, 0.712554931640625, -82,-24.45) ">
<use xlink:href="#Duplicate_Items_Folder______0_Layer0_1_MEMBER_4_MEMBER_0_FILL"/>
</g>

<g transform="matrix( 0.949981689453125, 0, 0, 0.949981689453125, -43.55,-16.45) ">
<use xlink:href="#Duplicate_Items_Folder______0_Layer0_1_MEMBER_4_MEMBER_1_FILL"/>
</g>

<g transform="matrix( 1, 0, 0, 1, 0,0) ">
<use xlink:href="#Duplicate_Items_Folder______0_Layer0_2_FILL"/>

<use xlink:href="#Duplicate_Items_Folder______0_Layer0_2_1_STROKES"/>
</g>

<g transform="matrix( 0.765411376953125, 0, 0, 0.964202880859375, -66.35,-63) ">
<use xlink:href="#Duplicate_Items_Folder______0_Layer0_3_MEMBER_0_FILL"/>

<use xlink:href="#Duplicate_Items_Folder______0_Layer0_3_MEMBER_0_1_STROKES" transform="matrix( 1.3064727783203125, 0, 0, 1.0371246337890625, 86.65,65.3) "/>
</g>

<g transform="matrix( 0.765411376953125, 0, 0, 0.62005615234375, -55.35,-5.9) ">
<use xlink:href="#Duplicate_Items_Folder______0_Layer0_3_MEMBER_1_FILL"/>

<use xlink:href="#Duplicate_Items_Folder______0_Layer0_3_MEMBER_1_1_STROKES" transform="matrix( 1.3064727783203125, 0, 0, 1.6127471923828125, 72.3,9.5) "/>
</g>

<g transform="matrix( 0.765411376953125, 0, 0, 0.765411376953125, -51.75,-15.55) ">
<use xlink:href="#Duplicate_Items_Folder______0_Layer0_3_MEMBER_2_FILL"/>

<use xlink:href="#Duplicate_Items_Folder______0_Layer0_3_MEMBER_2_1_STROKES" transform="matrix( 1.3064727783203125, 0, 0, 1.3064727783203125, 67.6,20.3) "/>
</g>

<g transform="matrix( 0.765411376953125, 0, 0, 0.964202880859375, -66.35,-63) ">
<use xlink:href="#Duplicate_Items_Folder______0_Layer0_3_MEMBER_3_FILL"/>
</g>

<g transform="matrix( 0.765411376953125, 0, 0, 0.62005615234375, -55.35,-5.9) ">
<use xlink:href="#Duplicate_Items_Folder______0_Layer0_3_MEMBER_4_FILL"/>
</g>

<g transform="matrix( 0.765411376953125, 0, 0, 0.765411376953125, -51.75,-15.55) ">
<use xlink:href="#Duplicate_Items_Folder______0_Layer0_3_MEMBER_5_FILL"/>
</g>

<g transform="matrix( 1, 0, 0, 1, -1.65,-1.9) ">
<use xlink:href="#Duplicate_Items_Folder______0_Layer0_3_MEMBER_6_FILL"/>
</g>

<g transform="matrix( 1, 0, 0, 1, -1,13) ">
<use xlink:href="#Duplicate_Items_Folder______0_Layer0_4_FILL"/>
</g>

<g transform="matrix( 1, 0, 0, 1, -1,13) ">
<use xlink:href="#Duplicate_Items_Folder______0_Layer0_5_FILL"/>
</g>
</g>
</g>
</g>
</svg>
