
<svg xmlns="http://www.w3.org/2000/svg" version="1.1" xmlns:xlink="http://www.w3.org/1999/xlink" preserveAspectRatio="none" x="0px" y="0px" width="130px" height="115px" viewBox="0 0 130 115">
<defs>
<g id="icon_r_box_02_6_Layer3_0_FILL">
<path fill="#FFFFFF" fill-opacity="0" stroke="none" d="
M 65 -55
L -65 -55 -65 25 65 25 65 -55 Z"/>
</g>

<g id="icon_r_box_02_6_Layer3_1_FILL">
<path fill="#FFFFFF" fill-opacity="0" stroke="none" d="
M 65.05 49.95
L 65.05 24.95 -64.95 24.95 -64.95 49.95 65.05 49.95 Z"/>
</g>

<g id="icon_r_box_02_6_Layer3_2_FILL">
<path fill="#FFFFFF" fill-opacity="0" stroke="none" d="
M 65 -52.85
L 65 -57.85 -65 -57.85 -65 -52.85 65 -52.85 Z"/>
</g>

<g id="icon_r_box_02_6_Layer3_3_FILL">
<path fill="#FFFFFF" fill-opacity="0" stroke="none" d="
M 65 54.95
L 65 49.95 -65 49.95 -65 54.95 65 54.95 Z"/>
</g>

<g id="icon_r_box_02_6_Layer2_0_MEMBER_0_MEMBER_0_MEMBER_0_MEMBER_0_FILL">
<path fill="#F4CDA4" stroke="none" d="
M 63.1 45.15
L 63.1 28.8 4.15 28.8 4.15 45.15 63.1 45.15 Z"/>
</g>

<g id="icon_r_box_02_6_Layer2_0_MEMBER_0_MEMBER_0_MEMBER_0_MEMBER_1_FILL">
<path fill="#FE4742" stroke="none" d="
M 65.35 28.8
L 63.1 23.7 4.15 23.7 1.9 28.8 65.35 28.8 Z"/>
</g>

<g id="icon_r_box_02_6_Layer2_0_MEMBER_0_MEMBER_0_MEMBER_1_MEMBER_0_MEMBER_0_FILL">
<path fill="#F4CDA4" stroke="none" d="
M 44.95 45.15
L 44.95 22.5 33.65 10.8 22.3 22.5 22.3 45.15 44.95 45.15 Z"/>
</g>

<g id="icon_r_box_02_6_Layer2_0_MEMBER_0_MEMBER_0_MEMBER_1_MEMBER_0_MEMBER_1_FILL">
<path fill="#FE4742" stroke="none" d="
M 47.5 26.7
L 49.85 24.35 33.65 8.15 17.4 24.35 19.75 26.7 33.65 12.85 47.5 26.7 Z"/>
</g>

<g id="icon_r_box_02_6_Layer2_0_MEMBER_0_MEMBER_0_MEMBER_1_MEMBER_0_MEMBER_2_MEMBER_0_FILL">
<path fill="#FFFFFF" stroke="none" d="
M 37.7 24.8
Q 37.7 23.1 36.5 21.9 35.35 20.7 33.65 20.7 31.95 20.7 30.75 21.9 29.55 23.1 29.55 24.8 29.55 26.5 30.75 27.7 31.95 28.9 33.65 28.9 35.35 28.9 36.5 27.7 37.7 26.5 37.7 24.8 Z"/>
</g>

<g id="icon_r_box_02_6_Layer2_0_MEMBER_0_MEMBER_0_MEMBER_1_MEMBER_0_MEMBER_2_MEMBER_1_MEMBER_0_FILL">
<path fill="#FFFFFF" stroke="none" d="
M 35 24.8
L 33.65 22.6 33.65 24.8 35 24.8 Z"/>
</g>

<g id="icon_r_box_02_6_Layer2_0_MEMBER_0_MEMBER_0_MEMBER_1_MEMBER_2_FILL">
<path fill="#FFAC2E" stroke="none" d="
M 33.65 0.5
L 33.65 4.75 40.65 2.6 33.65 0.5 Z"/>
</g>

<g id="icon_r_box_02_6_Layer2_0_MEMBER_0_MEMBER_0_MEMBER_1_MEMBER_3_MEMBER_0_FILL">
<path fill="#FFFFFF" stroke="none" d="
M 38.65 45.15
L 38.65 34.5 28.6 34.5 28.6 45.15 38.65 45.15 Z"/>
</g>

<g id="icon_r_box_02_6_Layer2_0_MEMBER_0_MEMBER_0_MEMBER_1_MEMBER_4_FILL">
<path fill="#C9BC96" stroke="none" d="
M 39.85 36.75
L 39.85 33.75 27.4 33.75 27.4 36.75 39.85 36.75 Z"/>
</g>

<g id="icon_r_box_02_6_Layer2_0_MEMBER_0_MEMBER_0_MEMBER_2_MEMBER_0_MEMBER_0_FILL">
<path fill="#BAE6FF" stroke="none" d="
M 18.95 40
L 18.95 33.55 15.1 33.55 15.1 40 18.95 40 Z"/>
</g>

<g id="icon_r_box_02_6_Layer2_0_MEMBER_0_MEMBER_0_MEMBER_2_MEMBER_0_MEMBER_1_FILL">
<path fill="#BAE6FF" stroke="none" d="
M 11.65 40
L 11.65 33.55 7.8 33.55 7.8 40 11.65 40 Z"/>
</g>

<g id="icon_r_box_02_6_Layer2_0_MEMBER_0_MEMBER_0_MEMBER_2_MEMBER_1_MEMBER_0_FILL">
<path fill="#BAE6FF" stroke="none" d="
M 59.45 40
L 59.45 33.55 55.6 33.55 55.6 40 59.45 40 Z"/>
</g>

<g id="icon_r_box_02_6_Layer2_0_MEMBER_0_MEMBER_0_MEMBER_2_MEMBER_1_MEMBER_1_FILL">
<path fill="#BAE6FF" stroke="none" d="
M 52.15 40
L 52.15 33.55 48.3 33.55 48.3 40 52.15 40 Z"/>
</g>

<path id="icon_r_box_02_6_Layer2_0_MEMBER_0_MEMBER_0_MEMBER_0_MEMBER_0_1_STROKES" stroke="#000000" stroke-width="1" stroke-linejoin="round" stroke-linecap="round" fill="none" d="
M 63.1 28.8
L 4.15 28.8 4.15 45.15 63.1 45.15 63.1 28.8 Z"/>

<path id="icon_r_box_02_6_Layer2_0_MEMBER_0_MEMBER_0_MEMBER_0_MEMBER_1_1_STROKES" stroke="#000000" stroke-width="1" stroke-linejoin="round" stroke-linecap="round" fill="none" d="
M 65.35 28.8
L 1.9 28.8 4.15 23.7 63.1 23.7 65.35 28.8 Z"/>

<path id="icon_r_box_02_6_Layer2_0_MEMBER_0_MEMBER_0_MEMBER_1_MEMBER_0_MEMBER_0_1_STROKES" stroke="#000000" stroke-width="1" stroke-linejoin="round" stroke-linecap="round" fill="none" d="
M 44.95 45.15
L 22.3 45.15 22.3 22.5 33.65 10.8 44.95 22.5 44.95 45.15 Z"/>

<path id="icon_r_box_02_6_Layer2_0_MEMBER_0_MEMBER_0_MEMBER_1_MEMBER_0_MEMBER_1_1_STROKES" stroke="#000000" stroke-width="1" stroke-linejoin="round" stroke-linecap="round" fill="none" d="
M 19.75 26.7
L 17.4 24.35 33.65 8.15 49.85 24.35 47.5 26.7 33.65 12.85 19.75 26.7 Z"/>

<path id="icon_r_box_02_6_Layer2_0_MEMBER_0_MEMBER_0_MEMBER_1_MEMBER_0_MEMBER_2_MEMBER_0_1_STROKES" stroke="#000000" stroke-width="1" stroke-linejoin="round" stroke-linecap="round" fill="none" d="
M 37.7 24.8
Q 37.7 26.5 36.5 27.7 35.35 28.9 33.65 28.9 31.95 28.9 30.75 27.7 29.55 26.5 29.55 24.8 29.55 23.1 30.75 21.9 31.95 20.7 33.65 20.7 35.35 20.7 36.5 21.9 37.7 23.1 37.7 24.8 Z"/>

<path id="icon_r_box_02_6_Layer2_0_MEMBER_0_MEMBER_0_MEMBER_1_MEMBER_0_MEMBER_2_MEMBER_1_MEMBER_1_1_STROKES" stroke="#000000" stroke-width="1" stroke-linejoin="round" stroke-linecap="round" fill="none" d="
M 33.65 22.6
L 33.65 24.8 35 24.8"/>

<path id="icon_r_box_02_6_Layer2_0_MEMBER_0_MEMBER_0_MEMBER_1_MEMBER_1_MEMBER_0_1_STROKES" stroke="#000000" stroke-width="1" stroke-linejoin="round" stroke-linecap="round" fill="none" d="
M 33.65 8.15
L 33.65 0.5"/>

<path id="icon_r_box_02_6_Layer2_0_MEMBER_0_MEMBER_0_MEMBER_1_MEMBER_2_1_STROKES" stroke="#000000" stroke-width="1" stroke-linejoin="round" stroke-linecap="round" fill="none" d="
M 33.65 0.5
L 33.65 4.75 40.65 2.6 33.65 0.5 Z"/>

<path id="icon_r_box_02_6_Layer2_0_MEMBER_0_MEMBER_0_MEMBER_1_MEMBER_3_MEMBER_0_1_STROKES" stroke="#000000" stroke-width="1" stroke-linejoin="round" stroke-linecap="round" fill="none" d="
M 38.65 45.15
L 28.6 45.15 28.6 34.5 38.65 34.5 38.65 45.15 Z"/>

<path id="icon_r_box_02_6_Layer2_0_MEMBER_0_MEMBER_0_MEMBER_1_MEMBER_3_MEMBER_1_MEMBER_0_1_STROKES" stroke="#000000" stroke-width="1" stroke-linejoin="round" stroke-linecap="round" fill="none" d="
M 33.65 34.5
L 33.65 45.15"/>

<path id="icon_r_box_02_6_Layer2_0_MEMBER_0_MEMBER_0_MEMBER_1_MEMBER_4_1_STROKES" stroke="#000000" stroke-width="1" stroke-linejoin="round" stroke-linecap="round" fill="none" d="
M 39.85 36.75
L 27.4 36.75 27.4 33.75 39.85 33.75 39.85 36.75 Z"/>

<path id="icon_r_box_02_6_Layer2_0_MEMBER_0_MEMBER_0_MEMBER_2_MEMBER_0_MEMBER_0_1_STROKES" stroke="#000000" stroke-width="1" stroke-linejoin="round" stroke-linecap="round" fill="none" d="
M 18.95 40
L 15.1 40 15.1 33.55 18.95 33.55 18.95 40 Z"/>

<path id="icon_r_box_02_6_Layer2_0_MEMBER_0_MEMBER_0_MEMBER_2_MEMBER_0_MEMBER_1_1_STROKES" stroke="#000000" stroke-width="1" stroke-linejoin="round" stroke-linecap="round" fill="none" d="
M 11.65 40
L 7.8 40 7.8 33.55 11.65 33.55 11.65 40 Z"/>

<path id="icon_r_box_02_6_Layer2_0_MEMBER_0_MEMBER_0_MEMBER_2_MEMBER_1_MEMBER_0_1_STROKES" stroke="#000000" stroke-width="1" stroke-linejoin="round" stroke-linecap="round" fill="none" d="
M 59.45 40
L 55.6 40 55.6 33.55 59.45 33.55 59.45 40 Z"/>

<path id="icon_r_box_02_6_Layer2_0_MEMBER_0_MEMBER_0_MEMBER_2_MEMBER_1_MEMBER_1_1_STROKES" stroke="#000000" stroke-width="1" stroke-linejoin="round" stroke-linecap="round" fill="none" d="
M 52.15 40
L 48.3 40 48.3 33.55 52.15 33.55 52.15 40 Z"/>

<path id="icon_r_box_02_6_Layer2_0_MEMBER_0_MEMBER_1_MEMBER_0_1_STROKES" stroke="#000000" stroke-width="1" stroke-linejoin="round" stroke-linecap="round" fill="none" d="
M 0.5 45.15
L 66.75 45.15"/>
</defs>

<g transform="matrix( 1, 0, 0, 0.999603271484375, 65,60) ">
<g transform="matrix( 1, 0, 0, 1, 0,0) ">
<use xlink:href="#icon_r_box_02_6_Layer3_0_FILL"/>
</g>

<g transform="matrix( 1, 0, 0, 1, -0.05,0.05) ">
<use xlink:href="#icon_r_box_02_6_Layer3_1_FILL"/>
</g>

<g transform="matrix( 1, 0, 0, 1, 0,-2.15) ">
<use xlink:href="#icon_r_box_02_6_Layer3_2_FILL"/>
</g>

<g transform="matrix( 1, 0, 0, 1, 0,0.05) ">
<use xlink:href="#icon_r_box_02_6_Layer3_3_FILL"/>
</g>

<g transform="matrix( 1, 0, 0, 1, -33.6,-34.05) ">
<use xlink:href="#icon_r_box_02_6_Layer2_0_MEMBER_0_MEMBER_0_MEMBER_0_MEMBER_0_FILL"/>

<use xlink:href="#icon_r_box_02_6_Layer2_0_MEMBER_0_MEMBER_0_MEMBER_0_MEMBER_0_1_STROKES"/>
</g>

<g transform="matrix( 1, 0, 0, 1, -33.6,-34.05) ">
<use xlink:href="#icon_r_box_02_6_Layer2_0_MEMBER_0_MEMBER_0_MEMBER_0_MEMBER_1_FILL"/>

<use xlink:href="#icon_r_box_02_6_Layer2_0_MEMBER_0_MEMBER_0_MEMBER_0_MEMBER_1_1_STROKES"/>
</g>

<g transform="matrix( 1, 0, 0, 1, -33.6,-34.05) ">
<use xlink:href="#icon_r_box_02_6_Layer2_0_MEMBER_0_MEMBER_0_MEMBER_1_MEMBER_0_MEMBER_0_FILL"/>

<use xlink:href="#icon_r_box_02_6_Layer2_0_MEMBER_0_MEMBER_0_MEMBER_1_MEMBER_0_MEMBER_0_1_STROKES"/>
</g>

<g transform="matrix( 1, 0, 0, 1, -33.6,-34.05) ">
<use xlink:href="#icon_r_box_02_6_Layer2_0_MEMBER_0_MEMBER_0_MEMBER_1_MEMBER_0_MEMBER_1_FILL"/>

<use xlink:href="#icon_r_box_02_6_Layer2_0_MEMBER_0_MEMBER_0_MEMBER_1_MEMBER_0_MEMBER_1_1_STROKES"/>
</g>

<g transform="matrix( 1, 0, 0, 1, -33.6,-34.05) ">
<use xlink:href="#icon_r_box_02_6_Layer2_0_MEMBER_0_MEMBER_0_MEMBER_1_MEMBER_0_MEMBER_2_MEMBER_0_FILL"/>

<use xlink:href="#icon_r_box_02_6_Layer2_0_MEMBER_0_MEMBER_0_MEMBER_1_MEMBER_0_MEMBER_2_MEMBER_0_1_STROKES"/>
</g>

<g transform="matrix( 1, 0, 0, 1, -33.6,-34.05) ">
<use xlink:href="#icon_r_box_02_6_Layer2_0_MEMBER_0_MEMBER_0_MEMBER_1_MEMBER_0_MEMBER_2_MEMBER_1_MEMBER_0_FILL"/>
</g>

<g transform="matrix( 1, 0, 0, 1, -33.6,-34.05) ">
<use xlink:href="#icon_r_box_02_6_Layer2_0_MEMBER_0_MEMBER_0_MEMBER_1_MEMBER_0_MEMBER_2_MEMBER_1_MEMBER_1_1_STROKES"/>
</g>

<g transform="matrix( 1, 0, 0, 1, -33.6,-34.05) ">
<use xlink:href="#icon_r_box_02_6_Layer2_0_MEMBER_0_MEMBER_0_MEMBER_1_MEMBER_1_MEMBER_0_1_STROKES"/>
</g>

<g transform="matrix( 1, 0, 0, 1, -33.6,-34.05) ">
<use xlink:href="#icon_r_box_02_6_Layer2_0_MEMBER_0_MEMBER_0_MEMBER_1_MEMBER_2_FILL"/>

<use xlink:href="#icon_r_box_02_6_Layer2_0_MEMBER_0_MEMBER_0_MEMBER_1_MEMBER_2_1_STROKES"/>
</g>

<g transform="matrix( 1, 0, 0, 1, -33.6,-34.05) ">
<use xlink:href="#icon_r_box_02_6_Layer2_0_MEMBER_0_MEMBER_0_MEMBER_1_MEMBER_3_MEMBER_0_FILL"/>

<use xlink:href="#icon_r_box_02_6_Layer2_0_MEMBER_0_MEMBER_0_MEMBER_1_MEMBER_3_MEMBER_0_1_STROKES"/>
</g>

<g transform="matrix( 1, 0, 0, 1, -33.6,-34.05) ">
<use xlink:href="#icon_r_box_02_6_Layer2_0_MEMBER_0_MEMBER_0_MEMBER_1_MEMBER_3_MEMBER_1_MEMBER_0_1_STROKES"/>
</g>

<g transform="matrix( 1, 0, 0, 1, -33.6,-34.05) ">
<use xlink:href="#icon_r_box_02_6_Layer2_0_MEMBER_0_MEMBER_0_MEMBER_1_MEMBER_4_FILL"/>

<use xlink:href="#icon_r_box_02_6_Layer2_0_MEMBER_0_MEMBER_0_MEMBER_1_MEMBER_4_1_STROKES"/>
</g>

<g transform="matrix( 1, 0, 0, 1, -33.6,-34.05) ">
<use xlink:href="#icon_r_box_02_6_Layer2_0_MEMBER_0_MEMBER_0_MEMBER_2_MEMBER_0_MEMBER_0_FILL"/>

<use xlink:href="#icon_r_box_02_6_Layer2_0_MEMBER_0_MEMBER_0_MEMBER_2_MEMBER_0_MEMBER_0_1_STROKES"/>
</g>

<g transform="matrix( 1, 0, 0, 1, -33.6,-34.05) ">
<use xlink:href="#icon_r_box_02_6_Layer2_0_MEMBER_0_MEMBER_0_MEMBER_2_MEMBER_0_MEMBER_1_FILL"/>

<use xlink:href="#icon_r_box_02_6_Layer2_0_MEMBER_0_MEMBER_0_MEMBER_2_MEMBER_0_MEMBER_1_1_STROKES"/>
</g>

<g transform="matrix( 1, 0, 0, 1, -33.6,-34.05) ">
<use xlink:href="#icon_r_box_02_6_Layer2_0_MEMBER_0_MEMBER_0_MEMBER_2_MEMBER_1_MEMBER_0_FILL"/>

<use xlink:href="#icon_r_box_02_6_Layer2_0_MEMBER_0_MEMBER_0_MEMBER_2_MEMBER_1_MEMBER_0_1_STROKES"/>
</g>

<g transform="matrix( 1, 0, 0, 1, -33.6,-34.05) ">
<use xlink:href="#icon_r_box_02_6_Layer2_0_MEMBER_0_MEMBER_0_MEMBER_2_MEMBER_1_MEMBER_1_FILL"/>

<use xlink:href="#icon_r_box_02_6_Layer2_0_MEMBER_0_MEMBER_0_MEMBER_2_MEMBER_1_MEMBER_1_1_STROKES"/>
</g>

<g transform="matrix( 1, 0, 0, 1, -33.6,-34.05) ">
<use xlink:href="#icon_r_box_02_6_Layer2_0_MEMBER_0_MEMBER_1_MEMBER_0_1_STROKES"/>
</g>
</g>
</svg>
