
<svg xmlns="http://www.w3.org/2000/svg" version="1.1" xmlns:xlink="http://www.w3.org/1999/xlink" preserveAspectRatio="none" x="0px" y="0px" width="130px" height="115px" viewBox="0 0 130 115">
<defs>
<g id="icon_r_box_02_43_Layer3_0_FILL">
<path fill="#FFFFFF" fill-opacity="0" stroke="none" d="
M 65 -55
L -65 -55 -65 25 65 25 65 -55 Z"/>
</g>

<g id="icon_r_box_02_43_Layer3_1_FILL">
<path fill="#FFFFFF" fill-opacity="0" stroke="none" d="
M 65.05 49.95
L 65.05 24.95 -64.95 24.95 -64.95 49.95 65.05 49.95 Z"/>
</g>

<g id="icon_r_box_02_43_Layer3_2_FILL">
<path fill="#FFFFFF" fill-opacity="0" stroke="none" d="
M 65 -52.85
L 65 -57.85 -65 -57.85 -65 -52.85 65 -52.85 Z"/>
</g>

<g id="icon_r_box_02_43_Layer3_3_FILL">
<path fill="#FFFFFF" fill-opacity="0" stroke="none" d="
M 65 54.95
L 65 49.95 -65 49.95 -65 54.95 65 54.95 Z"/>
</g>

<g id="icon_r_box_02_43_Layer2_0_MEMBER_0_FILL">
<path fill="#AA1AA4" stroke="none" d="
M 21.4 2
L 2 30.45 40.85 30.45 21.4 2 Z"/>
</g>

<g id="icon_r_box_02_43_Layer2_0_MEMBER_1_FILL">
<path fill="#000000" stroke="none" d="
M 42.6 31.35
Q 43.15 30.3 42.5 29.3
L 23.1 0.9
Q 22.45 0 21.45 0 20.4 0 19.75 0.9
L 0.35 29.3
Q -0.3 30.3 0.25 31.35 0.75 32.45 2 32.45
L 40.85 32.45
Q 42.1 32.45 42.6 31.35
M 2 30.45
L 21.45 2 40.85 30.45 2 30.45 Z"/>
</g>
</defs>

<g transform="matrix( 1, 0, 0, 0.999603271484375, 65,60) ">
<g transform="matrix( 1, 0, 0, 1, 0,0) ">
<use xlink:href="#icon_r_box_02_43_Layer3_0_FILL"/>
</g>

<g transform="matrix( 1, 0, 0, 1, -0.05,0.05) ">
<use xlink:href="#icon_r_box_02_43_Layer3_1_FILL"/>
</g>

<g transform="matrix( 1, 0, 0, 1, 0,-2.15) ">
<use xlink:href="#icon_r_box_02_43_Layer3_2_FILL"/>
</g>

<g transform="matrix( 1, 0, 0, 1, 0,0.05) ">
<use xlink:href="#icon_r_box_02_43_Layer3_3_FILL"/>
</g>

<g transform="matrix( 1, 0, 0, 1, -21.4,-31.25) ">
<use xlink:href="#icon_r_box_02_43_Layer2_0_MEMBER_0_FILL"/>
</g>

<g transform="matrix( 1, 0, 0, 1, -21.4,-31.25) ">
<use xlink:href="#icon_r_box_02_43_Layer2_0_MEMBER_1_FILL"/>
</g>
</g>
</svg>
