
<svg xmlns="http://www.w3.org/2000/svg" version="1.1" xmlns:xlink="http://www.w3.org/1999/xlink" preserveAspectRatio="none" x="0px" y="0px" width="130px" height="115px" viewBox="0 0 130 115">
<defs>
<filter id="Filter_1" x="-20%" y="-23.479404677541744%" width="140%" height="146.95880935508347%" color-interpolation-filters="sRGB">
<feFlood flood-color="#000000" flood-opacity="1" in="SourceGraphic" result="result1"/>

<feGaussianBlur in="SourceGraphic" stdDeviation="1.6666666666666667,1.6666666666666667" result="result2"/>

<feComposite in2="result2" in="result1" operator="in" result="result3"/>

<feComposite in2="result3" in="SourceGraphic" operator="over" result="result4"/>
</filter>

<g id="icon_r_box_02_9_Layer3_0_FILL">
<path fill="#FFFFFF" fill-opacity="0" stroke="none" d="
M 65 -55
L -65 -55 -65 25 65 25 65 -55 Z"/>
</g>

<g id="icon_r_box_02_9_Layer3_1_FILL">
<path fill="#FFFFFF" fill-opacity="0" stroke="none" d="
M 65.05 49.95
L 65.05 24.95 -64.95 24.95 -64.95 49.95 65.05 49.95 Z"/>
</g>

<g id="icon_r_box_02_9_Layer3_2_FILL">
<path fill="#FFFFFF" fill-opacity="0" stroke="none" d="
M 65 -52.85
L 65 -57.85 -65 -57.85 -65 -52.85 65 -52.85 Z"/>
</g>

<g id="icon_r_box_02_9_Layer3_3_FILL">
<path fill="#FFFFFF" fill-opacity="0" stroke="none" d="
M 65 54.95
L 65 49.95 -65 49.95 -65 54.95 65 54.95 Z"/>
</g>

<g id="Duplicate_Items_Folder_wkwjsrj_0_Layer1_0_FILL">
<path fill="#FFFFFF" stroke="none" d="
M 63.5 -1.5
Q 62.887109375 -0.90625 62.85 -0.1 62.8142578125 0.74453125 63.35 1.35 63.94375 1.9623046875 64.75 2 73.0984375 2.3408203125 77.75 2.95 78.589453125 3.094140625 79.25 2.6 79.4623046875 2.4380859375 79.6 2.25 80.7294921875 2.4251953125 81.5 2.6 83.7375 3.2337890625 83.65 5.15 83.3947265625 6.923046875 80.7 7.55 80.516015625 7.2107421875 80.15 7 79.6880859375 6.8017578125 79.2 6.95 78.7091796875 7.137890625 78.45 7.6 78.251953125 8.0615234375 78.4 8.55
L 78.6 9.15 78.6 9.1 79.8 13.55
Q 79.760546875 13.6671875 79.7 13.75 79.297265625 14.5015625 79.5 15.3
L 80.2 17.7 39.6 21.85 38.55 20.15
Q 38.15078125 19.4361328125 37.35 19.2 37.234765625 19.19375 37.1 19.15
L 36.2 17.7
Q 38.7505859375 17.62265625 39.7 17.45 40.9 17.2 41.55 15.5 42.25 13.75 41.4 12.55 40.5 11.2 36.25 10.5
L 32.15 10.05
Q 29.65 8.85 26.85 8.6 23.9 8.3 22.35 9.35 20.65 10.45 20.95 13.3 21.2 16.1 23.2 17.2 24.5 17.9 31.65 17.8 32.534765625 17.7931640625 33.3 17.75
L 34.95 20.45
Q 34.9470703125 20.565625 34.9 20.65 34.7107421875 21.4400390625 35.1 22.15
L 36.25 24 30.3 34.45
Q 26.2802734375 32.55 21.45 32.55 12.55 32.55 6.25 38.9 0 45.1 0 54 0 62.85 6.25 69.2
L 6.25 69.25
Q 12.6 75.45 21.45 75.45 30.35 75.45 36.65 69.25 40.7529296875 65.08125 42.15 59.8
L 53.25 61 51.75 65.45 47.95 65.45
Q 47.1 65.45 46.55 66 46 66.55 46 67.35 46 68.2 46.55 68.75 47.1 69.3 47.95 69.3
L 56.15 69.3
Q 57 69.3 57.55 68.75 58.1 68.2 58.1 67.35 58.1 66.55 57.55 66 57 65.45 56.15 65.45
L 53.85 65.45 55.25 61.2 55.4 61.25
Q 55.65 61.35 56.05 61.4
L 56.1 61.4
Q 56.35 61.4 56.65 61.4 59.7 61.4 61.85 59.2 64.1 57 64.1 53.95 64.1 51.6998046875 62.85 49.9
L 82.8 27.1 84.7 33.9
Q 80.58671875 35.4861328125 77.2 38.9 70.95 45.1 70.95 54 70.95 62.85 77.2 69.2
L 77.2 69.25
Q 83.55 75.45 92.4 75.45 101.3 75.45 107.6 69.25 113.85 62.9 113.85 54 113.85 45.15 107.6 38.9
L 107.5 38.9
Q 101.25 32.55 92.4 32.55 90.4287109375 32.55 88.55 32.85
L 87.8 30.05 90.05 30.05
Q 90.1869140625 30.0685546875 90.3 30.05
L 98.85 30.05
Q 99.182421875 30.0486328125 99.45 29.85 99.709765625 29.6587890625 99.8 29.35
L 101.7 22.75 101.75 22.7
Q 101.7630859375 22.6625 101.75 22.6
L 103.7 16.05
Q 103.7990234375 15.737890625 103.7 15.4 103.591015625 15.1158203125 103.3 14.9 103.0673828125 14.7439453125 102.75 14.75
L 95.55 14.75
Q 95.537109375 14.74765625 95.5 14.75
L 88.35 14.75
Q 88.24453125 14.730859375 88.1 14.75
L 83.5 14.75 83.35 14.2
Q 83.1486328125 13.4064453125 82.4 13 82.332421875 12.9486328125 82.25 12.9
L 81.3 9.5
Q 85.570703125 8.49453125 85.65 5.3 85.96328125 1.7662109375 82.05 0.65
L 82.05 0.65
Q 81.1630859375 0.451953125 79.9 0.25 79.812109375 0.016015625 79.65 -0.2 79.1466796875 -0.860546875 78.3 -1 73.5015625 -1.6408203125 64.9 -2 64.10546875 -2.03515625 63.5 -1.5
M 81.3 21.6
L 81.55 22.5 66.45 39.75
Q 66.3923828125 39.6423828125 66.3 39.55 65.75 39 64.9 39
L 56.7 39
Q 55.85 39 55.3 39.55 54.75 40.1 54.75 40.9 54.75 41.75 55.3 42.3 55.85 42.85 56.7 42.85
L 59.4 42.85 58.1 46.65
Q 57.4185546875 46.5 56.65 46.5 56.1 46.5 55.6 46.6 55.55 46.6 55.45 46.65 55.2 46.65 55 46.7
L 54.6 46.75 41.9 25.65 81.3 21.6
M 50.25 47.2
L 42.15 48.1
Q 40.7177734375 42.9677734375 36.65 38.9
L 36.55 38.9
Q 35.225390625 37.554296875 33.75 36.5
L 38.6 27.95 50.25 47.2 Z"/>
</g>

<g id="Duplicate_Items_Folder_wkwjsrj_0_Layer0_0_MEMBER_8_FILL">
<path fill="#C3BCB1" stroke="none" d="
M 109.55 73.05
Q 109.55 65.8 104.4 60.7 99.3 55.55 92.05 55.55 84.8 55.55 79.65 60.7 74.55 65.8 74.55 73.05 74.55 80.3 79.65 85.45 84.8 90.55 92.05 90.55 99.3 90.55 104.4 85.45 109.55 80.3 109.55 73.05 Z"/>
</g>

<g id="Duplicate_Items_Folder_wkwjsrj_0_Layer0_0_MEMBER_9_FILL">
<path fill="#4D2623" stroke="none" d="
M 100.35 35.45
Q 94.1 29.1 85.25 29.1 76.35 29.1 70.05 35.45 63.8 41.65 63.8 50.55 63.8 59.4 70.05 65.75
L 70.05 65.8
Q 76.4 72 85.25 72 94.15 72 100.45 65.8 106.7 59.45 106.7 50.55 106.7 41.7 100.45 35.45
L 100.35 35.45
M 97.3 38.5
L 97.3 38.55
Q 102.3 43.5 102.3 50.55 102.3 57.6 97.3 62.65 92.3 67.6 85.25 67.6 78.2 67.6 73.2 62.65
L 73.15 62.65
Q 68.2 57.6 68.2 50.55 68.2 43.5 73.2 38.55 78.2 33.5 85.25 33.5 92.3 33.5 97.3 38.5 Z"/>
</g>

<g id="Duplicate_Items_Folder_wkwjsrj_0_Layer0_0_MEMBER_10_FILL">
<path fill="#4D2623" stroke="none" d="
M 17.5 29.6
Q 9.4173828125 29.5931640625 3.65 35.3 -2.00390625 41.014453125 -2 49.1 -2.001953125 57.1689453125 3.65 62.9
L 3.7 62.9
Q 9.430859375 68.601953125 17.5 68.6 25.5853515625 68.6037109375 31.25 62.9 37.006640625 57.182421875 37 49.1 36.99609375 41.031640625 31.25 35.35
L 31.25 35.3
Q 25.5685546875 29.6037109375 17.5 29.6
M 2 49.1
Q 2.0037109375 42.6853515625 6.5 38.15 11.082421875 33.606640625 17.5 33.6 23.9138671875 33.5962890625 28.4 38.15
L 28.45 38.15
Q 33.003515625 42.6861328125 33 49.1 32.9931640625 55.5173828125 28.4 60.05 23.914453125 64.59609375 17.5 64.6 11.08671875 64.598046875 6.5 60.1
L 6.5 60.05
Q 2.001953125 55.51328125 2 49.1 Z"/>
</g>

<g id="Duplicate_Items_Folder_wkwjsrj_0_Layer0_0_MEMBER_11_FILL">
<path fill="#D1592D" stroke="none" d="
M 58.95 84.85
Q 58.45 84.35 57.7 84.35
L 50.25 84.35
Q 49.5 84.35 49 84.85 48.5 85.35 48.5 86.1 48.5 86.85 49 87.35 49.5 87.85 50.25 87.85
L 57.7 87.85
Q 58.45 87.85 58.95 87.35 59.45 86.85 59.45 86.1 59.45 85.35 58.95 84.85 Z"/>
</g>

<g id="Duplicate_Items_Folder_wkwjsrj_0_Layer0_0_MEMBER_12_FILL">
<path fill="#D1592D" stroke="none" d="
M 45 38.35
Q 46 38.15 46.55 36.75 47.1 35.3 46.4 34.3 45.65 33.2 42.15 32.6
L 38.75 32.25
Q 36.7 31.25 34.4 31.05 31.95 30.8 30.65 31.65 29.25 32.55 29.5 34.9 29.7 37.25 31.35 38.15 32.45 38.7 38.35 38.65 43.65 38.6 45 38.35 Z"/>
</g>

<g id="Duplicate_Items_Folder_wkwjsrj_0_Layer0_0_MEMBER_14_FILL">
<path fill="#00911A" stroke="none" d="
M 48.3 43.2
Q 48.0724609375 43.209375 47.85 43.25
L 14.25 47
Q 12.829296875 47.01171875 11.8 47.95 10.6962890625 49.0294921875 10.7 50.55 10.696484375 52 11.8 53.1 12.8458984375 54.1494140625 14.3 54.15 14.4796875 54.15 14.7 54.15
L 48.2 57.8
Q 48.520703125 57.8962890625 48.85 57.95 48.9126953125 57.9525390625 48.95 57.95 49.2 57.95 49.5 57.95 52.5564453125 57.95078125 54.7 55.75 56.9525390625 53.5546875 56.95 50.5 56.9525390625 47.4453125 54.7 45.25 52.5564453125 43.04921875 49.5 43.05 48.9470703125 43.0439453125 48.45 43.15 48.375390625 43.1607421875 48.3 43.2 Z"/>
</g>

<g id="Duplicate_Items_Folder_wkwjsrj_0_Layer0_0_MEMBER_15_FILL">
<path fill="#005910" stroke="none" d="
M 25.55 71.1
Q 24.7 71.9 24.7 73.1 24.7 74.25 25.55 75.1 26.35 75.9 27.5 75.9 27.69765625 75.9 27.85 75.85 28.7875 75.7625 29.45 75.1 30.3 74.25 30.3 73.1 30.3 71.9 29.45 71.1 28.65 70.3 27.5 70.3 26.35 70.3 25.55 71.1 Z"/>
</g>

<g id="Duplicate_Items_Folder_wkwjsrj_0_Layer0_0_MEMBER_16_FILL">
<path fill="#005910" stroke="none" d="
M 62.1 72.2
Q 61.75 71.15 60.8 70.6 59.85 70.05 58.85 70.35 58 70.55 57.45 71.2 57.4 71.35 57.3 71.45 57.25 71.55 57.2 71.6 56.65 72.55 56.95 73.65 57.2 74.65 58.15 75.2 59.1 75.75 60.2 75.5 61.3 75.2 61.85 74.25 61.95 74.1 61.95 73.95 62.3 73.1 62.1 72.2 Z"/>
</g>

<g id="Duplicate_Items_Folder_wkwjsrj_0_Layer0_0_MEMBER_18_FILL">
<path fill="#D1592D" stroke="none" d="
M 58.95 84.85
Q 58.45 84.35 57.7 84.35
L 50.25 84.35
Q 49.5 84.35 49 84.85 48.5 85.35 48.5 86.1 48.5 86.85 49 87.35 49.5 87.85 50.25 87.85
L 57.7 87.85
Q 58.45 87.85 58.95 87.35 59.45 86.85 59.45 86.1 59.45 85.35 58.95 84.85 Z"/>
</g>

<path id="Duplicate_Items_Folder_wkwjsrj_0_Layer1_0_1_STROKES" stroke="#FFFFFF" stroke-width="8" stroke-linejoin="round" stroke-linecap="round" fill="none" d="
M 107.6 69.25
Q 113.85 62.9 113.85 54 113.85 45.15 107.6 38.9
L 107.5 38.9
Q 101.25 32.55 92.4 32.55 90.4287109375 32.55 88.575 32.85
L 87.8 30.05 90.05 30.05
Q 90.1869140625 30.0685546875 90.325 30.05
L 98.85 30.05
Q 99.182421875 30.0486328125 99.45 29.85 99.709765625 29.6587890625 99.8 29.35
L 101.725 22.75 101.75 22.7
Q 101.7630859375 22.6625 101.775 22.625
L 103.7 16.05
Q 103.7990234375 15.737890625 103.7 15.425 103.591015625 15.1158203125 103.325 14.925 103.0673828125 14.7439453125 102.75 14.75
L 95.575 14.75
Q 95.537109375 14.74765625 95.5 14.75
L 88.375 14.75
Q 88.24453125 14.730859375 88.1 14.75
L 83.525 14.75 83.375 14.2
Q 83.1486328125 13.4064453125 82.425 13 82.332421875 12.9486328125 82.25 12.9
L 81.3 9.5
Q 85.570703125 8.49453125 85.65 5.325 85.96328125 1.7662109375 82.075 0.675
L 82.05 0.675
Q 81.1630859375 0.451953125 79.9 0.25 79.812109375 0.016015625 79.65 -0.2 79.1466796875 -0.860546875 78.325 -0.975 73.5015625 -1.6408203125 64.925 -2 64.10546875 -2.03515625 63.5 -1.475 62.887109375 -0.90625 62.85 -0.075 62.8142578125 0.74453125 63.375 1.35 63.94375 1.9623046875 64.775 2 73.0984375 2.3408203125 77.775 2.975 78.589453125 3.094140625 79.25 2.6 79.4623046875 2.4380859375 79.625 2.25 80.7294921875 2.4251953125 81.525 2.625 83.7375 3.2337890625 83.65 5.175 83.3947265625 6.923046875 80.7 7.55 80.516015625 7.2107421875 80.15 7.025 79.6880859375 6.8017578125 79.2 6.975 78.7091796875 7.137890625 78.475 7.6 78.251953125 8.0615234375 78.425 8.55
L 78.625 9.15 78.6 9.1 79.825 13.575
Q 79.760546875 13.6671875 79.7 13.775 79.297265625 14.5015625 79.525 15.3
L 80.2 17.7 39.6 21.875 38.575 20.15
Q 38.15078125 19.4361328125 37.35 19.225 37.234765625 19.19375 37.125 19.175
L 36.225 17.7
Q 38.7505859375 17.62265625 39.7 17.45 40.9 17.2 41.55 15.5 42.25 13.75 41.4 12.55 40.5 11.2 36.25 10.5
L 32.15 10.05
Q 29.65 8.85 26.85 8.6 23.9 8.3 22.35 9.35 20.65 10.45 20.95 13.3 21.2 16.1 23.2 17.2 24.5 17.9 31.65 17.8 32.534765625 17.7931640625 33.325 17.775
L 34.975 20.475
Q 34.9470703125 20.565625 34.925 20.65 34.7107421875 21.4400390625 35.125 22.15
L 36.25 24.025 30.325 34.45
Q 26.2802734375 32.55 21.45 32.55 12.55 32.55 6.25 38.9 0 45.1 0 54 0 62.85 6.25 69.2
L 6.25 69.25
Q 12.6 75.45 21.45 75.45 30.35 75.45 36.65 69.25 40.7529296875 65.08125 42.175 59.825
L 53.25 61.025 51.75 65.45 47.95 65.45
Q 47.1 65.45 46.55 66 46 66.55 46 67.35 46 68.2 46.55 68.75 47.1 69.3 47.95 69.3
L 56.15 69.3
Q 57 69.3 57.55 68.75 58.1 68.2 58.1 67.35 58.1 66.55 57.55 66 57 65.45 56.15 65.45
L 53.85 65.45 55.275 61.225 55.4 61.25
Q 55.65 61.35 56.05 61.4
L 56.1 61.4
Q 56.35 61.4 56.65 61.4 59.7 61.4 61.85 59.2 64.1 57 64.1 53.95 64.1 51.6998046875 62.875 49.925
L 82.825 27.125 84.725 33.9
Q 80.58671875 35.4861328125 77.2 38.9 70.95 45.1 70.95 54 70.95 62.85 77.2 69.2
L 77.2 69.25
Q 83.55 75.45 92.4 75.45 101.3 75.45 107.6 69.25 Z
M 56.7 39
L 64.9 39
Q 65.75 39 66.3 39.55 66.3923828125 39.6423828125 66.475 39.75
L 81.55 22.5 81.3 21.625 41.9 25.675 54.625 46.75 55 46.7
Q 55.2 46.65 55.45 46.65 55.55 46.6 55.6 46.6 56.1 46.5 56.65 46.5 57.4185546875 46.5 58.125 46.65
L 59.4 42.85 56.7 42.85
Q 55.85 42.85 55.3 42.3 54.75 41.75 54.75 40.9 54.75 40.1 55.3 39.55 55.85 39 56.7 39 Z
M 36.65 38.9
L 36.55 38.9
Q 35.225390625 37.554296875 33.775 36.5
L 38.625 27.95 50.25 47.225 42.15 48.125
Q 40.7177734375 42.9677734375 36.65 38.9 Z"/>

<path id="Duplicate_Items_Folder_wkwjsrj_0_Layer0_0_MEMBER_0_1_STROKES" stroke="#C3BCB1" stroke-width="5" stroke-linejoin="round" stroke-linecap="round" fill="none" d="
M -0.475 42
Q 0.619140625 40.1646484375 2.25 38.55 3.878125 36.9056640625 5.725 35.8 9.545703125 33.5 14.3 33.5
L 14.35 33.5
M 22.975 35.825
Q 24.76015625 36.91015625 26.35 38.5
L 26.35 38.55
Q 28.040625 40.223828125 29.15 42.15
M 14.35 33.5
Q 19.128515625 33.512109375 22.975 35.825
M 29.15 42.15
Q 31.35 45.8837890625 31.35 50.55
L 31.35 50.6
M 22.875 65.35
Q 19.0796875 67.5880859375 14.35 67.6
M 29.075 59.15
Q 27.9759765625 61.0078125 26.35 62.65 24.7255859375 64.258203125 22.875 65.35
M 14.35 67.6
L 14.3 67.6
Q 9.607421875 67.6 5.825 65.4
M 31.35 50.6
Q 31.3380859375 55.327734375 29.075 59.15
M -0.45 59.25
Q -2.7380859375 55.3826171875 -2.75 50.6
M -0.475 42
Q -2.75 45.799609375 -2.75 50.55
L -2.75 50.6
M 5.825 65.4
Q 3.921875 64.3052734375 2.25 62.65
L 2.2 62.65
Q 0.62890625 61.0470703125 -0.45 59.25"/>

<path id="Duplicate_Items_Folder_wkwjsrj_0_Layer0_0_MEMBER_0_2_STROKES" stroke="#C3BCB1" stroke-width="1" stroke-linejoin="round" stroke-linecap="round" fill="none" d="
M 5.725 35.8
L 4.65 33.95
M 14.35 31.35
L 14.35 33.5
M 24.05 33.95
L 22.975 35.825
M 31.05 41.05
L 29.15 42.15
M 22.975 35.825
L 14.4 50.6 14.45 50.6 29.15 42.15
M 33.6 50.6
L 31.35 50.6
M 24.05 67.35
L 22.875 65.35
M 14.35 67.6
L 14.35 69.85
M 31.05 60.3
L 29.075 59.15
M 22.875 65.35
L 14.35 50.65 14.35 67.6
M 5.825 65.4
L 4.7 67.35
M 29.075 59.15
L 14.4 50.65 14.35 50.65 14.35 50.6 -2.75 50.6
M -0.45 59.25
L 14.35 50.65 14.4 50.6 14.35 50.6 14.3 50.55 -0.475 42
M -2.75 50.6
L -4.9 50.6
M 31.35 50.6
L 14.45 50.6 14.4 50.65 14.4 50.6
M -0.45 59.25
L -2.35 60.35
M 14.35 50.65
L 5.825 65.4
M 14.3 50.55
L 5.725 35.8
M 14.35 33.5
L 14.35 50.6
M -0.475 42
L -2.3 40.95"/>

<path id="Duplicate_Items_Folder_wkwjsrj_0_Layer0_0_MEMBER_1_1_STROKES" stroke="#C3BCB1" stroke-width="5" stroke-linejoin="round" stroke-linecap="round" fill="none" d="
M 93.925 35.825
Q 95.71015625 36.91015625 97.3 38.5
L 97.3 38.55
Q 98.990625 40.223828125 100.1 42.15
M 85.3 33.5
Q 90.0783203125 33.512109375 93.925 35.825
M 100.1 42.15
Q 102.3 45.8837890625 102.3 50.55
L 102.3 50.6
M 76.675 35.8
Q 80.495703125 33.5 85.25 33.5
L 85.3 33.5
M 102.3 50.6
Q 102.2880859375 55.327734375 100.025 59.15 98.9259765625 61.0078125 97.3 62.65 95.6755859375 64.258203125 93.825 65.35 90.0296875 67.5880859375 85.3 67.6
M 70.475 42
Q 68.2 45.799609375 68.2 50.55
L 68.2 50.6
Q 68.2119140625 55.3826171875 70.5 59.25
M 85.3 67.6
L 85.25 67.6
Q 80.557421875 67.6 76.775 65.4
M 70.475 42
Q 71.569140625 40.1646484375 73.2 38.55 74.828125 36.9056640625 76.675 35.8
M 76.775 65.4
Q 74.871875 64.3052734375 73.2 62.65
L 73.15 62.65
Q 71.57890625 61.0470703125 70.5 59.25"/>

<path id="Duplicate_Items_Folder_wkwjsrj_0_Layer0_0_MEMBER_1_2_STROKES" stroke="#C3BCB1" stroke-width="1" stroke-linejoin="round" stroke-linecap="round" fill="none" d="
M 95 33.95
L 93.925 35.825
M 102 41.05
L 100.1 42.15
M 85.3 31.35
L 85.3 33.5
M 93.925 35.825
L 85.35 50.6 85.4 50.6 100.1 42.15
M 104.55 50.6
L 102.3 50.6
M 85.3 33.5
L 85.3 50.6 85.35 50.6 85.35 50.65 85.4 50.6 102.3 50.6
M 102 60.3
L 100.025 59.15
M 85.35 50.6
L 85.3 50.65 85.35 50.65 100.025 59.15
M 95 67.35
L 93.825 65.35
M 85.3 50.6
L 85.3 50.65 93.825 65.35
M 85.3 67.6
L 85.3 69.85
M 68.2 50.6
L 85.3 50.6 85.25 50.55 70.475 42
M 70.5 59.25
L 85.3 50.65 85.3 67.6
M 76.775 65.4
L 75.65 67.35
M 76.675 35.8
L 75.6 33.95
M 70.475 42
L 68.65 40.95
M 85.25 50.55
L 76.675 35.8
M 70.5 59.25
L 68.6 60.35
M 68.2 50.6
L 66.05 50.6
M 85.3 50.65
L 76.775 65.4"/>

<path id="Duplicate_Items_Folder_wkwjsrj_0_Layer0_0_MEMBER_2_1_STROKES" stroke="#00911A" stroke-width="2" stroke-linejoin="round" stroke-linecap="round" fill="none" d="
M 94.48795166015626 29.03935546875
L 94.98294067382812 22.384503173828126
M 98.83285522460938 29.03935546875
L 94.48795166015626 29.03935546875
M 100.78531188964844 22.384503173828126
L 98.83285522460938 29.03935546875
M 100.78531188964844 22.384503173828126
L 94.98294067382812 22.384503173828126 95.4779296875 15.72965087890625 88.27308959960938 15.72965087890625 89.23556823730469 22.384503173828126 94.98294067382812 22.384503173828126
M 95.4779296875 15.72965087890625
L 102.7377685546875 15.72965087890625 100.78531188964844 22.384503173828126
M 90.198046875 29.03935546875
L 85.74314575195314 29.03935546875
M 89.23556823730469 22.384503173828126
L 90.198046875 29.03935546875
M 89.23556823730469 22.384503173828126
L 84.03818359375 22.384503173828126
M 81.89323120117189 15.72965087890625
L 88.27308959960938 15.72965087890625
M 94.48795166015626 29.03935546875
L 90.198046875 29.03935546875"/>

<path id="Duplicate_Items_Folder_wkwjsrj_0_Layer0_0_MEMBER_3_1_STROKES" stroke="#C3BCB1" stroke-width="2.5" stroke-linejoin="round" stroke-linecap="round" fill="none" d="
M 36.84923095703125 21.174530029296875
L 31.954339599609376 13.089709472656251"/>

<path id="Duplicate_Items_Folder_wkwjsrj_0_Layer0_0_MEMBER_4_1_STROKES" stroke="#C3BCB1" stroke-width="2.5" stroke-linejoin="round" stroke-linecap="round" fill="none" d="
M 81.42574157714844 14.739672851562501
L 79.58328247070312 8.139819335937501"/>

<path id="Duplicate_Items_Folder_wkwjsrj_0_Layer0_0_MEMBER_5_1_STROKES" stroke="#C3BCB1" stroke-width="2" stroke-linejoin="round" stroke-linecap="round" fill="none" d="
M 79.77306518554687 8.76428833007812
Q 84.44796142578124 8.104302978515626 84.66795654296875 5.244366455078122 84.83295288085937 2.494427490234372 81.80802001953124 1.6694458007812472 80.35141172409057 1.296485328674315 78.06810302734375 0.9819610595703097 73.28342406749725 0.3546312332153292 64.86839599609375 0.019482421874997158"/>

<path id="Duplicate_Items_Folder_wkwjsrj_0_Layer0_0_MEMBER_6_1_STROKES" stroke="#D1592D" stroke-width="4" stroke-linejoin="round" stroke-linecap="round" fill="none" d="
M 78.06810302734375 0.9819610595703097
Q 73.28342406749725 0.3546312332153292 64.86839599609375 0.019482421874997158"/>

<path id="Duplicate_Items_Folder_wkwjsrj_0_Layer0_0_MEMBER_7_1_STROKES" stroke="#4D2623" stroke-width="2" stroke-linejoin="round" stroke-linecap="round" fill="none" d="
M 61.25354614257812 40.5482177734375
L 56.688647460937496 54.022918701171875"/>

<path id="Duplicate_Items_Folder_wkwjsrj_0_Layer0_0_MEMBER_13_1_STROKES" stroke="#00911A" stroke-width="4" stroke-linejoin="round" stroke-linecap="round" fill="none" d="
M 38.554193115234376 23.979467773437502
L 82.38822021484376 19.524566650390625
M 56.64879150390625 54.008801269531254
L 38.554193115234376 23.979467773437502
M 56.64879150390625 54.008801269531254
L 83.26820068359376 23.594476318359373
M 56.64879150390625 54.008801269531254
L 21.5595703125 54.008801269531254 38.554193115234376 23.979467773437502 36.84923095703125 21.174530029296875
M 92.397998046875 54.008801269531254
L 81.42574157714844 14.739672851562501"/>

<path id="Duplicate_Items_Folder_wkwjsrj_0_Layer0_0_MEMBER_17_1_STROKES" stroke="#4D2623" stroke-width="2" stroke-linejoin="round" stroke-linecap="round" fill="none" d="
M 56.653546142578115 54.0482177734375
L 52.088647460937494 67.52291870117188"/>
</defs>

<g transform="matrix( 1, 0, 0, 0.999603271484375, 65,60) ">
<g transform="matrix( 1, 0, 0, 1, 0,0) ">
<use xlink:href="#icon_r_box_02_9_Layer3_0_FILL"/>
</g>

<g transform="matrix( 1, 0, 0, 1, -0.05,0.05) ">
<use xlink:href="#icon_r_box_02_9_Layer3_1_FILL"/>
</g>

<g transform="matrix( 1, 0, 0, 1, 0,-2.15) ">
<use xlink:href="#icon_r_box_02_9_Layer3_2_FILL"/>
</g>

<g transform="matrix( 1, 0, 0, 1, 0,0.05) ">
<use xlink:href="#icon_r_box_02_9_Layer3_3_FILL"/>
</g>

<g filter="url(#Filter_1)" transform="matrix( 0.9999847412109375, 0, 0, 1.000396728515625, -65,-60) ">
<g transform="matrix( 0.75, 0, 0, 0.74969482421875, 21.3,13.45) ">
<g transform="matrix( 1, 0, 0, 1, 0,0) ">
<use xlink:href="#Duplicate_Items_Folder_wkwjsrj_0_Layer1_0_FILL"/>

<use xlink:href="#Duplicate_Items_Folder_wkwjsrj_0_Layer1_0_1_STROKES"/>
</g>

<g transform="matrix( 1, 0, 0, 1, 7.15,3.45) ">
<use xlink:href="#Duplicate_Items_Folder_wkwjsrj_0_Layer0_0_MEMBER_0_1_STROKES"/>

<use xlink:href="#Duplicate_Items_Folder_wkwjsrj_0_Layer0_0_MEMBER_0_2_STROKES"/>
</g>

<g transform="matrix( 1, 0, 0, 1, 7.15,3.45) ">
<use xlink:href="#Duplicate_Items_Folder_wkwjsrj_0_Layer0_0_MEMBER_1_1_STROKES"/>

<use xlink:href="#Duplicate_Items_Folder_wkwjsrj_0_Layer0_0_MEMBER_1_2_STROKES"/>
</g>

<g transform="matrix( 1.0999755859375, 0, 0, 1.0999755859375, 2.2,0) ">
<use xlink:href="#Duplicate_Items_Folder_wkwjsrj_0_Layer0_0_MEMBER_2_1_STROKES" transform="matrix( 0.9091033935546875, 0, 0, 0.9091033935546875, -2,0) "/>
</g>

<g transform="matrix( 1.0999755859375, 0, 0, 1.0999755859375, 2.2,0) ">
<use xlink:href="#Duplicate_Items_Folder_wkwjsrj_0_Layer0_0_MEMBER_3_1_STROKES" transform="matrix( 0.9091033935546875, 0, 0, 0.9091033935546875, -2,0) "/>
</g>

<g transform="matrix( 1.0999755859375, 0, 0, 1.0999755859375, 2.2,0) ">
<use xlink:href="#Duplicate_Items_Folder_wkwjsrj_0_Layer0_0_MEMBER_4_1_STROKES" transform="matrix( 0.9091033935546875, 0, 0, 0.9091033935546875, -2,0) "/>
</g>

<g transform="matrix( 1.0999755859375, 0, 0, 1.0999755859375, -7.4,-23.3) ">
<use xlink:href="#Duplicate_Items_Folder_wkwjsrj_0_Layer0_0_MEMBER_5_1_STROKES" transform="matrix( 0.9091033935546875, 0, 0, 0.9091033935546875, 6.7,21.15) "/>
</g>

<g transform="matrix( 1.0999755859375, 0, 0, 1.0999755859375, -7.4,-23.3) ">
<use xlink:href="#Duplicate_Items_Folder_wkwjsrj_0_Layer0_0_MEMBER_6_1_STROKES" transform="matrix( 0.9091033935546875, 0, 0, 0.9091033935546875, 6.7,21.15) "/>
</g>

<g transform="matrix( 1.0999755859375, 0, 0, 1.0999755859375, -4.25,-39.75) ">
<use xlink:href="#Duplicate_Items_Folder_wkwjsrj_0_Layer0_0_MEMBER_7_1_STROKES" transform="matrix( 0.9091033935546875, 0, 0, 0.9091033935546875, 3.85,36.1) "/>
</g>

<g transform="matrix( 0.21112060546875, 0, 0, 0.21112060546875, 72.85,38.45) ">
<use xlink:href="#Duplicate_Items_Folder_wkwjsrj_0_Layer0_0_MEMBER_8_FILL"/>
</g>

<g transform="matrix( 1, 0, 0, 1, 7.15,3.45) ">
<use xlink:href="#Duplicate_Items_Folder_wkwjsrj_0_Layer0_0_MEMBER_9_FILL"/>
</g>

<g transform="matrix( 1.0999755859375, 0, 0, 1.0999755859375, 2.2,0) ">
<use xlink:href="#Duplicate_Items_Folder_wkwjsrj_0_Layer0_0_MEMBER_10_FILL"/>
</g>

<g transform="matrix( 1.10498046875, 0, 0, 1.0999755859375, 1.15,-53.8) ">
<use xlink:href="#Duplicate_Items_Folder_wkwjsrj_0_Layer0_0_MEMBER_11_FILL"/>
</g>

<g transform="matrix( 1.2099609375, 0, 0, 1.2099609375, -14.75,-28.95) ">
<use xlink:href="#Duplicate_Items_Folder_wkwjsrj_0_Layer0_0_MEMBER_12_FILL"/>
</g>

<g transform="matrix( 1.0999755859375, 0, 0, 1.0999755859375, 2.2,0) ">
<use xlink:href="#Duplicate_Items_Folder_wkwjsrj_0_Layer0_0_MEMBER_13_1_STROKES" transform="matrix( 0.9091033935546875, 0, 0, 0.9091033935546875, -2,0) "/>
</g>

<g transform="matrix( 1, 0, 0, 1, 7.15,3.45) ">
<use xlink:href="#Duplicate_Items_Folder_wkwjsrj_0_Layer0_0_MEMBER_14_FILL"/>
</g>

<g transform="matrix( 0.4124755859375, 0, 0, 0.4124755859375, 10.05,23.8) ">
<use xlink:href="#Duplicate_Items_Folder_wkwjsrj_0_Layer0_0_MEMBER_15_FILL"/>
</g>

<g transform="matrix( 1.0999755859375, 0, 0, 1.0999755859375, -8.75,-26.2) ">
<use xlink:href="#Duplicate_Items_Folder_wkwjsrj_0_Layer0_0_MEMBER_16_FILL"/>
</g>

<g transform="matrix( 1.0999755859375, 0, 0, 1.0999755859375, -8.85,-26.25) ">
<use xlink:href="#Duplicate_Items_Folder_wkwjsrj_0_Layer0_0_MEMBER_17_1_STROKES" transform="matrix( 0.9091033935546875, 0, 0, 0.9091033935546875, 8,23.85) "/>
</g>

<g transform="matrix( 1.10498046875, 0, 0, 1.0999755859375, -7.6,-27.35) ">
<use xlink:href="#Duplicate_Items_Folder_wkwjsrj_0_Layer0_0_MEMBER_18_FILL"/>
</g>
</g>
</g>
</g>
</svg>
