
<svg xmlns="http://www.w3.org/2000/svg" version="1.1" xmlns:xlink="http://www.w3.org/1999/xlink" preserveAspectRatio="none" x="0px" y="0px" width="130px" height="115px" viewBox="0 0 130 115">
<defs>
<filter id="Filter_1" x="-31.157911147962675%" y="-21.76789499271488%" width="162.31582229592536%" height="143.53578998542974%" color-interpolation-filters="sRGB">
<feFlood flood-color="#000000" flood-opacity="1" in="SourceGraphic" result="result1"/>

<feGaussianBlur in="SourceGraphic" stdDeviation="1.6666666666666667,1.6666666666666667" result="result2"/>

<feComposite in2="result2" in="result1" operator="in" result="result3"/>

<feComposite in2="result3" in="SourceGraphic" operator="over" result="result4"/>
</filter>

<g id="icon_r_box_02_29_Layer3_0_FILL">
<path fill="#FFFFFF" fill-opacity="0" stroke="none" d="
M 65 -55
L -65 -55 -65 25 65 25 65 -55 Z"/>
</g>

<g id="icon_r_box_02_29_Layer3_1_FILL">
<path fill="#FFFFFF" fill-opacity="0" stroke="none" d="
M 65.05 49.95
L 65.05 24.95 -64.95 24.95 -64.95 49.95 65.05 49.95 Z"/>
</g>

<g id="icon_r_box_02_29_Layer3_2_FILL">
<path fill="#FFFFFF" fill-opacity="0" stroke="none" d="
M 65 -52.85
L 65 -57.85 -65 -57.85 -65 -52.85 65 -52.85 Z"/>
</g>

<g id="icon_r_box_02_29_Layer3_3_FILL">
<path fill="#FFFFFF" fill-opacity="0" stroke="none" d="
M 65 54.95
L 65 49.95 -65 49.95 -65 54.95 65 54.95 Z"/>
</g>

<g id="Duplicate_Items_Folder_____0_Layer1_0_FILL">
<path fill="#FFFFFF" stroke="none" d="
M -3.2 -26.6
Q -9.7 -26.6 -14.35 -22 -18.95 -17.35 -18.95 -10.85
L -18.95 -1.55
Q -18.95 3.329296875 -15.5 4.75 -18.429296875 8.1501953125 -18.95 12.65
L -22.55 47.45
Q -22.85 50.05 -22.6 51.85 -22.45 52.8 -22.2 53.6 -20.55 58.7 -13.5 58.7
L 15.4 58.7
Q 22.4 58.7 24.15 53.6 24.4 52.8 24.55 51.85 24.8 50.05 24.5 47.45
L 20.85 12.65
Q 20.3408203125 8.249609375 17.45 4.9 21.35 3.6099609375 21.35 -1.55
L 21.35 -7.95
Q 21.3298828125 -8.240625 21.3 -8.55
L 21.3 -10.85
Q 21.3 -17.35 16.65 -22 12 -26.6 5.5 -26.6
L -3.2 -26.6 Z"/>
</g>

<g id="Duplicate_Items_Folder_____0_Layer0_0_FILL">
<path fill="#FFE18C" stroke="none" d="
M 28.5 21.25
Q 27.5 12.9 20.45 7.35 13.8 2.05 5.1 2.05
L -2.9 2.05
Q -11.6 2.05 -18.3 7.35 -25.3 12.9 -26.3 21.25
L -31.25 69.1
Q -31.65 72.7 -31.3 75.15 -31.1228515625 76.437890625 -30.75 77.55 -28.466796875 84.6 -18.75 84.6
L 20.95 84.6
Q 30.6236328125 84.6 32.95 77.55 33.3591796875 76.437890625 33.55 75.15 33.9 72.7 33.5 69.1
L 28.5 21.25 Z"/>
</g>

<g id="Duplicate_Items_Folder_____0_Layer0_1_FILL">
<path fill="#FFB232" stroke="none" d="
M 81.75 55.75
Q 82.8 53.85 81.75 50.15 81.45 49.15 81.1 48.15 80.5 46.35 79.85 44.45 73.65 40.1 65.75 40.1
L 57.75 40.1
Q 49.9 40.1 43.65 44.45 43.1 46 42.65 47.55 42.2 48.8 41.85 50.15 40.7 53.85 41.85 55.75 43.1 58.15 47.3 58.15
L 76.2 58.15
Q 80.45 58.15 81.75 55.75 Z"/>
</g>

<g id="Duplicate_Items_Folder_____0_Layer0_2_FILL">
<path fill="#09283E" stroke="none" d="
M 68 13.85
Q 66.1 11.95 63.4 11.95 60.7 11.95 58.75 13.85 56.85 15.8 56.85 18.5
L 56.85 34.8
Q 56.85 37.5 58.75 39.4 60.7 41.35 63.4 41.35 66.1 41.35 68 39.4 69.95 37.5 69.95 34.8
L 69.95 18.5
Q 69.95 15.8 68 13.85 Z"/>
</g>

<g id="Duplicate_Items_Folder_____0_Layer0_3_FILL">
<path fill="#FFE18C" stroke="none" d="
M 76.5 -22.1
L 63.95 -22.1
Q 54.5 -22.1 47.8 -15.4 41.1 -8.7 41.1 0.75
L 41.1 13.65
Q 41.1 23.65 51.1 23.65
L 89.35 23.65
Q 99.35 23.65 99.35 13.65
L 99.35 0.75
Q 99.35 -8.7 92.65 -15.4 85.95 -22.1 76.5 -22.1 Z"/>
</g>

<g id="Duplicate_Items_Folder_____0_Layer0_4_FILL">
<path fill="#FFC25C" stroke="none" d="
M 58.2 -10.2
Q 51 -10.2 45.95 -5.1 41.283203125 -0.433203125 40.85 5.95
L 40.85 5.95 40.85 12.95
Q 40.85 20.55 48.45 20.55
L 77.5 20.55
Q 85.1 20.55 85.1 12.95
L 85.1 5.95 85.05 5.95
Q 84.666796875 -0.433203125 80 -5.1 74.9 -10.2 67.75 -10.2
L 58.2 -10.2 Z"/>
</g>

<g id="Duplicate_Items_Folder_____0_Layer0_5_FILL">
<path fill="#0A4977" stroke="none" d="
M 58.2 -10.2
Q 51 -10.2 45.95 -5.1 41.283203125 -0.433203125 40.85 5.95
L 40.85 5.95 40.85 12.95
Q 40.85 20.55 48.45 20.55
L 77.5 20.55
Q 85.1 20.55 85.1 12.95
L 85.1 5.95 85.05 5.95
Q 84.666796875 -0.433203125 80 -5.1 74.9 -10.2 67.75 -10.2
L 58.2 -10.2 Z"/>
</g>

<g id="Duplicate_Items_Folder_____0_Layer0_6_FILL">
<path fill="#115688" stroke="none" d="
M 101.2 10.2
Q 100.976171875 6.866015625 99.65 3.95
L 64.65 25.55 93.2 25.55
Q 101.2 25.55 101.2 17.55
L 101.2 10.2
M 83 -6.75
L 82.15 -6.75 54.8 10.1
Q 54.8025390625 10.158984375 54.8 10.2
L 54.75 10.2 54.75 17.55
Q 54.75 17.967578125 54.75 18.35
L 91.85 -4.5
Q 87.8783203125 -6.75 83 -6.75 Z"/>
</g>

<g id="Duplicate_Items_Folder_Symbol_22_0_Layer0_0_FILL">
<path fill="#FFFFFF" stroke="none" d="
M -0.8 -4.55
Q -0.8 -7.3 -2.75 -9.25 -4.65 -11.15 -7.4 -11.15 -10.15 -11.15 -12.1 -9.25 -14 -7.3 -14 -4.55 -14 -1.8 -12.1 0.1 -10.15 2.05 -7.4 2.05 -4.65 2.05 -2.75 0.1 -0.8 -1.8 -0.8 -4.55 Z"/>
</g>

<g id="Duplicate_Items_Folder_Symbol_22_0_Layer0_1_FILL">
<path fill="#97D2FF" stroke="none" d="
M -0.8 -4.55
Q -0.8 -7.3 -2.75 -9.25 -4.65 -11.15 -7.4 -11.15 -10.15 -11.15 -12.1 -9.25 -14 -7.3 -14 -4.55 -14 -1.8 -12.1 0.1 -10.15 2.05 -7.4 2.05 -4.65 2.05 -2.75 0.1 -0.8 -1.8 -0.8 -4.55 Z"/>
</g>

<g id="Duplicate_Items_Folder_Symbol_22_0_Layer0_2_FILL">
<path fill="#003E6C" stroke="none" d="
M -0.8 -4.55
Q -0.8 -7.3 -2.75 -9.25 -4.65 -11.15 -7.4 -11.15 -10.15 -11.15 -12.1 -9.25 -14 -7.3 -14 -4.55 -14 -1.8 -12.1 0.1 -10.15 2.05 -7.4 2.05 -4.65 2.05 -2.75 0.1 -0.8 -1.8 -0.8 -4.55 Z"/>
</g>

<g id="Duplicate_Items_Folder_Symbol_22_0_Layer0_3_FILL">
<path fill="#FFFFFF" stroke="none" d="
M 3.4 -2.8
Q 3.4 -3.65 2.8 -4.2 2.3 -4.75 1.45 -4.75 0.65 -4.75 0.05 -4.2 -0.45 -3.65 -0.45 -2.8 -0.45 -2 0.05 -1.4 0.65 -0.9 1.45 -0.9 2.3 -0.9 2.8 -1.4 3.4 -2 3.4 -2.8 Z"/>
</g>

<g id="Duplicate_Items_Folder_____0_Layer0_9_FILL">
<path fill="#FFE497" stroke="none" d="
M 5.1 -0.35
L -2.75 -0.35
Q -2.7 1.05 -1.65 2.1 -0.5 3.25 1.15 3.25 2.8 3.25 3.95 2.1 5 1.05 5.1 -0.35 Z"/>
</g>

<g id="Duplicate_Items_Folder_____0_Layer0_10_MEMBER_0_FILL">
<path fill="#053557" stroke="none" d="
M 9.3 -23.75
Q 8.6 -24.45 7.6 -24.45
L -0.5 -24.45
Q -1.5 -24.45 -2.25 -23.75 -2.95 -23 -2.95 -22 -2.95 -21 -2.25 -20.3 -1.5 -19.55 -0.5 -19.55
L 7.6 -19.55
Q 8.6 -19.55 9.3 -20.3 10.05 -21 10.05 -22 10.05 -23 9.3 -23.75 Z"/>
</g>

<g id="Duplicate_Items_Folder_____0_Layer0_10_MEMBER_1_FILL">
<path fill="#FFE18C" stroke="none" d="
M -0.75 -25.8
Q -0.75 -26.25 -1.05 -26.55 -1.35 -26.9 -1.8 -26.9 -2.25 -26.9 -2.6 -26.55 -2.9 -26.25 -2.9 -25.8 -2.9 -25.35 -2.6 -25.05 -2.25 -24.7 -1.8 -24.7 -1.35 -24.7 -1.05 -25.05 -0.75 -25.35 -0.75 -25.8
M 3.35 -25.8
Q 3.35 -25.35 3.65 -25.05 4 -24.7 4.45 -24.7 4.9 -24.7 5.2 -25.05 5.5 -25.35 5.5 -25.8 5.5 -26.25 5.2 -26.55 4.9 -26.9 4.45 -26.9 4 -26.9 3.65 -26.55 3.35 -26.25 3.35 -25.8
M 2.3 -25.8
Q 2.3 -26.25 2 -26.55 1.7 -26.9 1.25 -26.9 0.8 -26.9 0.45 -26.55 0.15 -26.25 0.15 -25.8 0.15 -25.35 0.45 -25.05 0.8 -24.7 1.25 -24.7 1.7 -24.7 2 -25.05 2.3 -25.35 2.3 -25.8 Z"/>
</g>

<g id="Duplicate_Items_Folder_____0_Layer0_11_FILL">
<path fill="#0A4977" stroke="none" d="
M 20.15 32.15
Q 20.15 27.65 15.7 27.65
L -13.45 27.65
Q -17.95 27.65 -17.95 32.15
L -17.95 69.9
Q -17.95 74.35 -13.45 74.35
L 15.7 74.35
Q 20.15 74.35 20.15 69.9
L 20.15 32.15 Z"/>
</g>

<g id="Duplicate_Items_Folder_____0_Layer0_12_FILL">
<path fill="#FFC25C" stroke="none" d="
M 20.95 84.6
Q 30.6236328125 84.6 32.95 77.55
L -30.75 77.55
Q -28.466796875 84.6 -18.75 84.6
L 20.95 84.6 Z"/>
</g>

<g id="Duplicate_Items_Folder_____0_Layer0_13_MEMBER_0_FILL">
<path fill="#FFA612" stroke="none" d="
M -2.45 24.45
Q -2.45 23.75 -2.95 23.25 -3.4 22.8 -4.1 22.8 -4.8 22.8 -5.3 23.25 -5.75 23.75 -5.75 24.45 -5.75 25.15 -5.3 25.6 -4.8 26.1 -4.1 26.1 -3.4 26.1 -2.95 25.6 -2.45 25.15 -2.45 24.45 Z"/>
</g>

<g id="Duplicate_Items_Folder_____0_Layer0_13_MEMBER_1_FILL">
<path fill="#FFA612" stroke="none" d="
M -2.45 24.45
Q -2.45 23.75 -2.95 23.25 -3.4 22.8 -4.1 22.8 -4.8 22.8 -5.3 23.25 -5.75 23.75 -5.75 24.45 -5.75 25.15 -5.3 25.6 -4.8 26.1 -4.1 26.1 -3.4 26.1 -2.95 25.6 -2.45 25.15 -2.45 24.45 Z"/>
</g>

<g id="Duplicate_Items_Folder_____0_Layer0_14_FILL">
<path fill="#115688" stroke="none" d="
M 41.55 87
L 41.55 70.8 9.3 110.15 22.6 110.15 41.55 87 Z"/>
</g>

<g id="Duplicate_Items_Folder_____0_Layer0_15_MEMBER_0_FILL">
<path fill="#FFF9CF" stroke="none" d="
M 14.65 47.6
Q 14.65 43.85 11.3 41.15 7.95 38.5 3.25 38.5 -1.45 38.5 -4.8 41.15 -8.15 43.85 -8.15 47.6 -8.15 51.35 -4.8 54 -1.45 56.7 3.25 56.7 7.95 56.7 11.3 54 14.65 51.35 14.65 47.6 Z"/>
</g>

<g id="Duplicate_Items_Folder_____0_Layer0_15_MEMBER_1_FILL">
<path fill="#FFF9CF" stroke="none" d="
M -80.6 70.85
L -71.9 55.8 -89.25 55.8 -80.6 70.85 Z"/>
</g>

<g id="Duplicate_Items_Folder_____0_Layer0_16_MEMBER_0_FILL">
<path fill="#2A83C7" stroke="none" d="
M -4.15 64.8
L -9.8 64.8
Q -10.8 64.8 -10.8 65.8
L -10.8 67.7
Q -10.8 68.7 -9.8 68.7
L -4.15 68.7
Q -3.15 68.7 -3.15 67.7
L -3.15 65.8
Q -3.15 64.8 -4.15 64.8 Z"/>
</g>

<g id="Duplicate_Items_Folder_____0_Layer0_16_MEMBER_1_FILL">
<path fill="#2A83C7" stroke="none" d="
M -4.15 64.8
L -9.8 64.8
Q -10.8 64.8 -10.8 65.8
L -10.8 67.7
Q -10.8 68.7 -9.8 68.7
L -4.15 68.7
Q -3.15 68.7 -3.15 67.7
L -3.15 65.8
Q -3.15 64.8 -4.15 64.8 Z"/>
</g>

<g id="Duplicate_Items_Folder_____0_Layer0_16_MEMBER_2_FILL">
<path fill="#2A83C7" stroke="none" d="
M -4.15 64.8
L -9.8 64.8
Q -10.8 64.8 -10.8 65.8
L -10.8 67.7
Q -10.8 68.7 -9.8 68.7
L -4.15 68.7
Q -3.15 68.7 -3.15 67.7
L -3.15 65.8
Q -3.15 64.8 -4.15 64.8 Z"/>
</g>

<g id="Duplicate_Items_Folder_____0_Layer0_20_FILL">
<path fill="#196399" stroke="none" d="
M -11.05 33.1
Q -11.05 32.4 -11.6 31.85 -12.1 31.35 -12.8 31.35 -13.5 31.35 -14.05 31.85 -14.55 32.4 -14.55 33.1 -14.55 33.8 -14.05 34.3 -13.5 34.85 -12.8 34.85 -12.1 34.85 -11.6 34.3 -11.05 33.8 -11.05 33.1 Z"/>
</g>

<path id="Duplicate_Items_Folder_____0_Layer1_0_1_STROKES" stroke="#FFFFFF" stroke-width="8" stroke-linejoin="miter" stroke-linecap="round" stroke-miterlimit="10" fill="none" d="
M 21.672088623046875 12.548773193359375
L 25.46600341796875 48.720892333984374
Q 25.77783203125 51.423406982421874 25.517974853515625 53.294378662109374 25.362060546875 54.2818359375 25.102203369140625 55.11337890625 23.283203125 60.41446533203125 16.0072021484375 60.41446533203125
L -14.03228759765625 60.41446533203125
Q -21.360260009765625 60.41446533203125 -23.0753173828125 55.11337890625 -23.335174560546875 54.2818359375 -23.4910888671875 53.294378662109374 -23.750946044921875 51.423406982421874 -23.439117431640625 48.720892333984374
L -19.697174072265625 12.548773193359375
Q -19.155940294265747 7.87154700756073 -16.085159301757812 4.337286376953125 -19.697174072265625 2.860566759109497 -19.697174072265625 -2.211114501953125
L -19.697174072265625 -11.877801513671875
Q -19.697174072265625 -18.634088134765626 -14.915802001953125 -23.467431640625 -10.08245849609375 -28.2488037109375 -3.326171875 -28.2488037109375
L 5.71685791015625 -28.2488037109375
Q 12.47314453125 -28.2488037109375 17.306488037109375 -23.467431640625 22.13983154296875 -18.634088134765626 22.13983154296875 -11.877801513671875
L 22.13983154296875 -9.461129760742187
Q 22.170892596244812 -9.165542221069336 22.191802978515625 -8.863458251953125
L 22.191802978515625 -2.211114501953125
Q 22.191802978515625 3.152297043800354 18.164016723632812 4.49320068359375 21.14283263683319 7.974880838394165 21.672088623046875 12.548773193359375 Z"/>

<path id="Duplicate_Items_Folder_____0_Layer0_17_1_STROKES" stroke="#FFB63E" stroke-width="2" stroke-linejoin="miter" stroke-linecap="butt" stroke-miterlimit="10" fill="none" d="
M -10.065487670898436 17.447824096679685
L 11.966033935546873 17.447824096679685
Q 15.329336547851561 17.447824096679685 15.329336547851561 20.84891662597656
L 15.329336547851561 49.380303955078126
Q 15.329336547851561 52.743606567382805 11.966033935546873 52.743606567382805
L -10.065487670898436 52.743606567382805
Q -13.466580200195311 52.743606567382805 -13.466580200195311 49.380303955078126
L -13.466580200195311 20.84891662597656
Q -13.466580200195311 17.447824096679685 -10.065487670898436 17.447824096679685 Z"/>

<path id="Duplicate_Items_Folder_____0_Layer0_18_1_STROKES" stroke="#FFF3C7" stroke-width="2" stroke-linejoin="miter" stroke-linecap="round" stroke-miterlimit="10" fill="none" d="
M -11.554920959472655 -24.27482452392578
Q -10.74492645263672 -24.85982055664062 -9.934931945800782 -25.30981750488281 -9.484934997558595 -25.534815979003902 -9.079937744140624 -25.669815063476562 -8.29156418442726 -26.024539220333097 -7.459948730468751 -26.277310943603517"/>

<path id="Duplicate_Items_Folder_____0_Layer0_19_1_STROKES" stroke="#FFF3C7" stroke-width="2" stroke-linejoin="miter" stroke-linecap="round" stroke-miterlimit="10" fill="none" d="
M -18.09584503173828 18.128042602539065
L -17.88800048828125 16.049597167968752 -17.699050903320312 14.273471069335937
Q -17.453859293460845 12.2304536819458 -16.678723144531247 10.437794494628907
M -18.776063537597658 24.703488159179688
L -18.435954284667964 21.37797546386719"/>
</defs>

<g transform="matrix( 1, 0, 0, 0.999603271484375, 65,60) ">
<g transform="matrix( 1, 0, 0, 1, 0,0) ">
<use xlink:href="#icon_r_box_02_29_Layer3_0_FILL"/>
</g>

<g transform="matrix( 1, 0, 0, 1, -0.05,0.05) ">
<use xlink:href="#icon_r_box_02_29_Layer3_1_FILL"/>
</g>

<g transform="matrix( 1, 0, 0, 1, 0,-2.15) ">
<use xlink:href="#icon_r_box_02_29_Layer3_2_FILL"/>
</g>

<g transform="matrix( 1, 0, 0, 1, 0,0.05) ">
<use xlink:href="#icon_r_box_02_29_Layer3_3_FILL"/>
</g>

<g filter="url(#Filter_1)" transform="matrix( 0.9999847412109375, 0, 0, 1.000396728515625, -65,-60) ">
<g transform="matrix( 0.7499847412109375, 0, 0, 0.7496795654296875, 63.3,28.85) ">
<g transform="matrix( 1.0394287109375, 0, 0, 1.0394287109375, 0,-0.6) ">
<use xlink:href="#Duplicate_Items_Folder_____0_Layer1_0_FILL"/>

<use xlink:href="#Duplicate_Items_Folder_____0_Layer1_0_1_STROKES" transform="matrix( 0.962066650390625, 0, 0, 0.962066650390625, 0,0.55) "/>
</g>

<g transform="matrix( 0.75579833984375, 0, 0, 0.75579833984375, 0.1,-3.45) ">
<use xlink:href="#Duplicate_Items_Folder_____0_Layer0_0_FILL"/>
</g>

<g transform="matrix( 0.75579833984375, 0, 0, 0.75579833984375, -45.4,-32) ">
<use xlink:href="#Duplicate_Items_Folder_____0_Layer0_1_FILL"/>
</g>

<g transform="matrix( 0.75579833984375, 0, 0, 0.75579833984375, -46.65,-20.7) ">
<use xlink:href="#Duplicate_Items_Folder_____0_Layer0_2_FILL"/>
</g>

<g transform="matrix( 0.7180023193359375, 0, 0, 0.7180023193359375, -49.2,-12.35) ">
<use xlink:href="#Duplicate_Items_Folder_____0_Layer0_3_FILL"/>
</g>

<g transform="matrix( 0.94586181640625, 0, 0, 0.94586181640625, -58.3,-14.45) ">
<use xlink:href="#Duplicate_Items_Folder_____0_Layer0_4_FILL"/>
</g>

<g transform="matrix( 0.7935791015625, 0, 0, 0.7935791015625, -48.65,-13.7) ">
<use xlink:href="#Duplicate_Items_Folder_____0_Layer0_5_FILL"/>
</g>

<g transform="matrix( 0.75579833984375, 0, 0, 0.75579833984375, -57.65,-16.75) ">
<use xlink:href="#Duplicate_Items_Folder_____0_Layer0_6_FILL"/>
</g>

<g transform="matrix( 0.75579833984375, 0, 0, 0.75579833984375, -6.85,-8.85) ">
<g transform="matrix( 1, 0, 0, 1, 7.4,4.55) ">
<use xlink:href="#Duplicate_Items_Folder_Symbol_22_0_Layer0_0_FILL"/>
</g>

<g transform="matrix( 0.769989013671875, 0, 0, 0.769989013671875, 5.75,3.55) ">
<use xlink:href="#Duplicate_Items_Folder_Symbol_22_0_Layer0_1_FILL"/>
</g>

<g transform="matrix( 0.6236572265625, 0, 0, 0.6236572265625, 4.6,2.9) ">
<use xlink:href="#Duplicate_Items_Folder_Symbol_22_0_Layer0_2_FILL"/>
</g>

<g transform="matrix( 1, 0, 0, 1, 0.15,-0.45) ">
<use xlink:href="#Duplicate_Items_Folder_Symbol_22_0_Layer0_3_FILL"/>
</g>
</g>

<g transform="matrix( 0.75579833984375, 0, 0, 0.75579833984375, 8.7,-8.85) ">
<g transform="matrix( 1, 0, 0, 1, 7.4,4.55) ">
<use xlink:href="#Duplicate_Items_Folder_Symbol_22_0_Layer0_0_FILL"/>
</g>

<g transform="matrix( 0.769989013671875, 0, 0, 0.769989013671875, 5.75,3.55) ">
<use xlink:href="#Duplicate_Items_Folder_Symbol_22_0_Layer0_1_FILL"/>
</g>

<g transform="matrix( 0.6236572265625, 0, 0, 0.6236572265625, 4.6,2.9) ">
<use xlink:href="#Duplicate_Items_Folder_Symbol_22_0_Layer0_2_FILL"/>
</g>

<g transform="matrix( 1, 0, 0, 1, 0.15,-0.45) ">
<use xlink:href="#Duplicate_Items_Folder_Symbol_22_0_Layer0_3_FILL"/>
</g>
</g>

<g transform="matrix( 0.75579833984375, 0, 0, 0.75579833984375, 0.1,-3.45) ">
<use xlink:href="#Duplicate_Items_Folder_____0_Layer0_9_FILL"/>
</g>

<g transform="matrix( 0.755706787109375, 0, 0, 0.755706787109375, -1.1,-4.7) ">
<use xlink:href="#Duplicate_Items_Folder_____0_Layer0_10_MEMBER_0_FILL"/>
</g>

<g transform="matrix( 0.8999176025390625, 0, 0, 0.8999176025390625, 0.1,1.6) ">
<use xlink:href="#Duplicate_Items_Folder_____0_Layer0_10_MEMBER_1_FILL"/>
</g>

<g transform="matrix( 0.75579833984375, 0, 0, 0.75579833984375, 0.1,-3.45) ">
<use xlink:href="#Duplicate_Items_Folder_____0_Layer0_11_FILL"/>
</g>

<g transform="matrix( 0.75579833984375, 0, 0, 0.75579833984375, 0.1,-3.45) ">
<use xlink:href="#Duplicate_Items_Folder_____0_Layer0_12_FILL"/>
</g>

<g transform="matrix( 0.831268310546875, 0, 0, 0.831268310546875, 2.3,-5.8) ">
<use xlink:href="#Duplicate_Items_Folder_____0_Layer0_13_MEMBER_0_FILL"/>
</g>

<g transform="matrix( 0.831268310546875, 0, 0, 0.831268310546875, 6.8,-5.8) ">
<use xlink:href="#Duplicate_Items_Folder_____0_Layer0_13_MEMBER_1_FILL"/>
</g>

<g transform="matrix( 0.75579833984375, 0, 0, 0.75579833984375, -15.25,-30.35) ">
<use xlink:href="#Duplicate_Items_Folder_____0_Layer0_14_FILL"/>
</g>

<g transform="matrix( 0.829193115234375, 0, 0, 0.829193115234375, -0.6,-8.15) ">
<use xlink:href="#Duplicate_Items_Folder_____0_Layer0_15_MEMBER_0_FILL"/>
</g>

<g transform="matrix( 0.2295684814453125, 0.1324310302734375, -0.198760986328125, 0.3444366455078125, 26.85,26.85) ">
<use xlink:href="#Duplicate_Items_Folder_____0_Layer0_15_MEMBER_1_FILL"/>
</g>

<g transform="matrix( 0.793487548828125, 0, 0, 0.793487548828125, -0.15,-6.7) ">
<use xlink:href="#Duplicate_Items_Folder_____0_Layer0_16_MEMBER_0_FILL"/>
</g>

<g transform="matrix( 0.793487548828125, 0, 0, 0.793487548828125, 6.4,-6.7) ">
<use xlink:href="#Duplicate_Items_Folder_____0_Layer0_16_MEMBER_1_FILL"/>
</g>

<g transform="matrix( 0.793487548828125, 0, 0, 0.793487548828125, 13.55,-6.7) ">
<use xlink:href="#Duplicate_Items_Folder_____0_Layer0_16_MEMBER_2_FILL"/>
</g>

<g transform="matrix( 0.75579833984375, 0, 0, 0.75579833984375, 0.1,-3.45) ">
<use xlink:href="#Duplicate_Items_Folder_____0_Layer0_17_1_STROKES" transform="matrix( 1.323089599609375, 0, 0, 1.323089599609375, -0.1,4.55) "/>
</g>

<g transform="matrix( 0.899993896484375, 0, 0, 0.899993896484375, 0.1,1.6) ">
<use xlink:href="#Duplicate_Items_Folder_____0_Layer0_18_1_STROKES" transform="matrix( 1.111114501953125, 0, 0, 1.111114501953125, -0.1,-1.75) "/>
</g>

<g transform="matrix( 0.75579833984375, 0, 0, 0.75579833984375, 0.1,-3.45) ">
<use xlink:href="#Duplicate_Items_Folder_____0_Layer0_19_1_STROKES" transform="matrix( 1.323089599609375, 0, 0, 1.323089599609375, -0.1,4.55) "/>
</g>

<g transform="matrix( 0.75579833984375, 0, 0, 0.75579833984375, -0.15,-4.25) ">
<use xlink:href="#Duplicate_Items_Folder_____0_Layer0_20_FILL"/>
</g>
</g>
</g>
</g>
</svg>
