
<svg xmlns="http://www.w3.org/2000/svg" version="1.1" xmlns:xlink="http://www.w3.org/1999/xlink" preserveAspectRatio="none" x="0px" y="0px" width="130px" height="115px" viewBox="0 0 130 115">
<defs>
<g id="icon_r_box_02_48_Layer3_0_FILL">
<path fill="#FFFFFF" fill-opacity="0" stroke="none" d="
M 65 -55
L -65 -55 -65 25 65 25 65 -55 Z"/>
</g>

<g id="icon_r_box_02_48_Layer3_1_FILL">
<path fill="#FFFFFF" fill-opacity="0" stroke="none" d="
M 65.05 49.95
L 65.05 24.95 -64.95 24.95 -64.95 49.95 65.05 49.95 Z"/>
</g>

<g id="icon_r_box_02_48_Layer3_2_FILL">
<path fill="#FFFFFF" fill-opacity="0" stroke="none" d="
M 65 -52.85
L 65 -57.85 -65 -57.85 -65 -52.85 65 -52.85 Z"/>
</g>

<g id="icon_r_box_02_48_Layer3_3_FILL">
<path fill="#FFFFFF" fill-opacity="0" stroke="none" d="
M 65 54.95
L 65 49.95 -65 49.95 -65 54.95 65 54.95 Z"/>
</g>

<g id="icon_r_box_02_48_Layer2_0_MEMBER_0_MEMBER_0_MEMBER_0_FILL">
<path fill="#81BE3D" stroke="none" d="
M 33.75 7.9
Q 33.75 5.45 32.25 3.75 30.75 2 28.6 2 26.3 2 24.9 3.15 23.5681640625 4.2353515625 23.55 5.9 23.5296875 4.48125 22.25 3.3 20.8 2 18.45 2 16.3 2 14.8 3.75 13.3 5.45 13.3 7.9 13.3 12.2 16.9 15.95 18 17.15 20.75 20.1 23 22.55 23.5 22.8
L 23.55 22.8
Q 24.05 22.55 26.35 20.1 27.6 18.75 30.2 15.95 33.75 12.15 33.75 7.9 Z"/>
</g>

<g id="icon_r_box_02_48_Layer2_0_MEMBER_0_MEMBER_0_MEMBER_1_FILL">
<path fill="#000000" stroke="none" d="
M 35.75 7.9
Q 35.75 4.65 33.65 2.3 31.55 0 28.6 0 25.5 0 23.5 1.75 21.4 0 18.45 0 15.5 0 13.4 2.3 11.3 4.65 11.3 7.9 11.3 13 15.45 17.35
L 17.6 19.65
Q 21.8 24.2 22.65 24.6
L 22.95 24.75 23.55 24.8 24.1 24.75 24.4 24.6
Q 24.95 24.35 26 23.35 26.85 22.5 29.45 19.7
L 31.6 17.35
Q 35.75 13 35.75 7.9
M 32.25 3.75
Q 33.75 5.45 33.75 7.9 33.75 12.15 30.2 15.95 27.6 18.75 26.35 20.1 24.05 22.55 23.55 22.8
L 23.5 22.8
Q 23 22.55 20.75 20.1 18 17.15 16.9 15.95 13.3 12.2 13.3 7.9 13.3 5.45 14.8 3.75 16.3 2 18.45 2 20.8 2 22.25 3.3 23.5296875 4.48125 23.55 5.9 23.5681640625 4.2353515625 24.9 3.15 26.3 2 28.6 2 30.75 2 32.25 3.75 Z"/>
</g>

<g id="icon_r_box_02_48_Layer2_0_MEMBER_1_MEMBER_0_MEMBER_0_FILL">
<path fill="#81BE3D" stroke="none" d="
M 23.55 24.25
L 23.5 24.25
Q 23 24.5 20.75 26.95 19.45 28.3 16.9 31.1 13.3 34.85 13.3 39.15 13.3 41.6 14.8 43.3 16.3 45.05 18.45 45.05 20.8 45.05 22.25 43.75 23.5296875 42.56875 23.55 41.15 23.5681640625 42.8146484375 24.9 43.9 26.3 45.05 28.6 45.05 30.75 45.05 32.25 43.3 33.75 41.6 33.75 39.15 33.75 34.9 30.2 31.1 27.6 28.3 26.35 26.95 24.05 24.5 23.55 24.25 Z"/>
</g>

<g id="icon_r_box_02_48_Layer2_0_MEMBER_1_MEMBER_0_MEMBER_1_FILL">
<path fill="#000000" stroke="none" d="
M 24.1 22.3
L 23.55 22.25 22.95 22.3 22.65 22.45
Q 21.8 22.85 17.6 27.4
L 15.45 29.7
Q 11.3 34.05 11.3 39.15 11.3 42.4 13.4 44.75 15.5 47.05 18.45 47.05 21.4 47.05 23.5 45.3 25.5 47.05 28.6 47.05 31.55 47.05 33.65 44.75 35.75 42.4 35.75 39.15 35.75 34.05 31.65 29.75
L 29.45 27.35
Q 26.85 24.55 26 23.7 24.95 22.7 24.4 22.45
L 24.1 22.3
M 23.5 24.25
L 23.55 24.25
Q 24.05 24.5 26.35 26.95 27.6 28.3 30.2 31.1 33.75 34.9 33.75 39.15 33.75 41.6 32.25 43.3 30.75 45.05 28.6 45.05 26.3 45.05 24.9 43.9 23.5681640625 42.8146484375 23.55 41.15 23.5296875 42.56875 22.25 43.75 20.8 45.05 18.45 45.05 16.3 45.05 14.8 43.3 13.3 41.6 13.3 39.15 13.3 34.85 16.9 31.1 19.45 28.3 20.75 26.95 23 24.5 23.5 24.25 Z"/>
</g>

<g id="icon_r_box_02_48_Layer2_0_MEMBER_2_MEMBER_0_MEMBER_0_FILL">
<path fill="#81BE3D" stroke="none" d="
M 43.3 32.25
Q 45.05 30.75 45.05 28.6 45.05 26.3 43.9 24.9 42.8146484375 23.5681640625 41.15 23.55 42.56875 23.5296875 43.75 22.25 45.05 20.8 45.05 18.45 45.05 16.3 43.3 14.8 41.6 13.3 39.15 13.3 34.85 13.3 31.1 16.9 28.3 19.45 26.95 20.75 24.5 23 24.25 23.5
L 24.25 23.55
Q 24.5 24.05 26.95 26.35 28.3 27.6 31.1 30.2 34.9 33.75 39.15 33.75 41.6 33.75 43.3 32.25 Z"/>
</g>

<g id="icon_r_box_02_48_Layer2_0_MEMBER_2_MEMBER_0_MEMBER_1_FILL">
<path fill="#000000" stroke="none" d="
M 45.3 23.5
Q 47.05 21.4 47.05 18.45 47.05 15.5 44.75 13.4 42.4 11.3 39.15 11.3 34.05 11.3 29.7 15.45
L 27.4 17.6
Q 22.85 21.8 22.45 22.65
L 22.35 22.95
Q 22.25 23.1 22.25 23.55 22.25 23.95 22.35 24.1
L 22.45 24.4
Q 22.7 24.95 23.7 26 24.55 26.85 27.35 29.45
L 29.7 31.6
Q 34.05 35.75 39.15 35.75 42.4 35.75 44.75 33.65 47.05 31.55 47.05 28.6 47.05 25.5 45.3 23.5
M 43.3 14.8
Q 45.05 16.3 45.05 18.45 45.05 20.8 43.75 22.25 42.56875 23.5296875 41.15 23.55 42.8146484375 23.5681640625 43.9 24.9 45.05 26.3 45.05 28.6 45.05 30.75 43.3 32.25 41.6 33.75 39.15 33.75 34.9 33.75 31.1 30.2 28.3 27.6 26.95 26.35 24.5 24.05 24.25 23.55
L 24.25 23.5
Q 24.5 23 26.95 20.75 28.3 19.45 31.1 16.9 34.85 13.3 39.15 13.3 41.6 13.3 43.3 14.8 Z"/>
</g>

<g id="icon_r_box_02_48_Layer2_0_MEMBER_3_MEMBER_0_MEMBER_0_FILL">
<path fill="#81BE3D" stroke="none" d="
M 22.8 23.55
L 22.8 23.5
Q 22.55 23 20.1 20.75 17.15 18 15.95 16.9 12.2 13.3 7.9 13.3 5.45 13.3 3.75 14.8 2 16.3 2 18.45 2 20.8 3.3 22.25 4.48125 23.5296875 5.9 23.55 4.2353515625 23.5681640625 3.15 24.9 2 26.3 2 28.6 2 30.75 3.75 32.25 5.45 33.75 7.9 33.75 12.15 33.75 15.95 30.2 18.75 27.6 20.1 26.35 22.55 24.05 22.8 23.55 Z"/>
</g>

<g id="icon_r_box_02_48_Layer2_0_MEMBER_3_MEMBER_0_MEMBER_1_FILL">
<path fill="#000000" stroke="none" d="
M 24.6 22.65
Q 24.35 22.1 23.35 21.05 22.45 20.2 19.65 17.6
L 17.35 15.45
Q 13 11.3 7.9 11.3 4.65 11.3 2.3 13.4 0 15.5 0 18.45 0 21.4 1.75 23.5 0 25.5 0 28.6 0 31.55 2.3 33.65 4.65 35.75 7.9 35.75 13 35.75 17.3 31.65
L 19.7 29.45
Q 24.25 25.25 24.6 24.4
L 24.7 24.1
Q 24.8 23.95 24.8 23.55 24.8 23.1 24.7 22.95
L 24.6 22.65
M 22.8 23.5
L 22.8 23.55
Q 22.55 24.05 20.1 26.35 18.75 27.6 15.95 30.2 12.15 33.75 7.9 33.75 5.45 33.75 3.75 32.25 2 30.75 2 28.6 2 26.3 3.15 24.9 4.2353515625 23.5681640625 5.9 23.55 4.48125 23.5296875 3.3 22.25 2 20.8 2 18.45 2 16.3 3.75 14.8 5.45 13.3 7.9 13.3 12.2 13.3 15.95 16.9 17.15 18 20.1 20.75 22.55 23 22.8 23.5 Z"/>
</g>

<path id="icon_r_box_02_48_Layer2_0_MEMBER_0_MEMBER_1_MEMBER_0_1_STROKES" stroke="#000000" stroke-width="2" stroke-linejoin="round" stroke-linecap="round" fill="none" d="
M 23.5 10.7
L 23.5 22.8"/>

<path id="icon_r_box_02_48_Layer2_0_MEMBER_1_MEMBER_1_MEMBER_0_1_STROKES" stroke="#000000" stroke-width="2" stroke-linejoin="round" stroke-linecap="round" fill="none" d="
M 23.5 36.35
L 23.5 24.25"/>

<path id="icon_r_box_02_48_Layer2_0_MEMBER_2_MEMBER_1_MEMBER_0_1_STROKES" stroke="#000000" stroke-width="2" stroke-linejoin="round" stroke-linecap="round" fill="none" d="
M 36.35 23.5
L 24.25 23.5"/>

<path id="icon_r_box_02_48_Layer2_0_MEMBER_3_MEMBER_1_MEMBER_0_1_STROKES" stroke="#000000" stroke-width="2" stroke-linejoin="round" stroke-linecap="round" fill="none" d="
M 10.7 23.5
L 22.8 23.5"/>
</defs>

<g transform="matrix( 1, 0, 0, 0.999603271484375, 65,60) ">
<g transform="matrix( 1, 0, 0, 1, 0,0) ">
<use xlink:href="#icon_r_box_02_48_Layer3_0_FILL"/>
</g>

<g transform="matrix( 1, 0, 0, 1, -0.05,0.05) ">
<use xlink:href="#icon_r_box_02_48_Layer3_1_FILL"/>
</g>

<g transform="matrix( 1, 0, 0, 1, 0,-2.15) ">
<use xlink:href="#icon_r_box_02_48_Layer3_2_FILL"/>
</g>

<g transform="matrix( 1, 0, 0, 1, 0,0.05) ">
<use xlink:href="#icon_r_box_02_48_Layer3_3_FILL"/>
</g>

<g transform="matrix( 1, 0, 0, 1, -23.5,-38.55) ">
<use xlink:href="#icon_r_box_02_48_Layer2_0_MEMBER_0_MEMBER_0_MEMBER_0_FILL"/>
</g>

<g transform="matrix( 1, 0, 0, 1, -23.5,-38.55) ">
<use xlink:href="#icon_r_box_02_48_Layer2_0_MEMBER_0_MEMBER_0_MEMBER_1_FILL"/>
</g>

<g transform="matrix( 1, 0, 0, 1, -23.5,-38.55) ">
<use xlink:href="#icon_r_box_02_48_Layer2_0_MEMBER_0_MEMBER_1_MEMBER_0_1_STROKES"/>
</g>

<g transform="matrix( 1, 0, 0, 1, -23.5,-38.55) ">
<use xlink:href="#icon_r_box_02_48_Layer2_0_MEMBER_1_MEMBER_0_MEMBER_0_FILL"/>
</g>

<g transform="matrix( 1, 0, 0, 1, -23.5,-38.55) ">
<use xlink:href="#icon_r_box_02_48_Layer2_0_MEMBER_1_MEMBER_0_MEMBER_1_FILL"/>
</g>

<g transform="matrix( 1, 0, 0, 1, -23.5,-38.55) ">
<use xlink:href="#icon_r_box_02_48_Layer2_0_MEMBER_1_MEMBER_1_MEMBER_0_1_STROKES"/>
</g>

<g transform="matrix( 1, 0, 0, 1, -23.5,-38.55) ">
<use xlink:href="#icon_r_box_02_48_Layer2_0_MEMBER_2_MEMBER_0_MEMBER_0_FILL"/>
</g>

<g transform="matrix( 1, 0, 0, 1, -23.5,-38.55) ">
<use xlink:href="#icon_r_box_02_48_Layer2_0_MEMBER_2_MEMBER_0_MEMBER_1_FILL"/>
</g>

<g transform="matrix( 1, 0, 0, 1, -23.5,-38.55) ">
<use xlink:href="#icon_r_box_02_48_Layer2_0_MEMBER_2_MEMBER_1_MEMBER_0_1_STROKES"/>
</g>

<g transform="matrix( 1, 0, 0, 1, -23.5,-38.55) ">
<use xlink:href="#icon_r_box_02_48_Layer2_0_MEMBER_3_MEMBER_0_MEMBER_0_FILL"/>
</g>

<g transform="matrix( 1, 0, 0, 1, -23.5,-38.55) ">
<use xlink:href="#icon_r_box_02_48_Layer2_0_MEMBER_3_MEMBER_0_MEMBER_1_FILL"/>
</g>

<g transform="matrix( 1, 0, 0, 1, -23.5,-38.55) ">
<use xlink:href="#icon_r_box_02_48_Layer2_0_MEMBER_3_MEMBER_1_MEMBER_0_1_STROKES"/>
</g>
</g>
</svg>
