
<svg xmlns="http://www.w3.org/2000/svg" version="1.1" xmlns:xlink="http://www.w3.org/1999/xlink" preserveAspectRatio="none" x="0px" y="0px" width="130px" height="115px" viewBox="0 0 130 115">
<defs>
<filter id="Filter_1" x="-24.632574064946148%" y="-20.80957090083058%" width="149.26514812989228%" height="141.61914180166116%" color-interpolation-filters="sRGB">
<feFlood flood-color="#000000" flood-opacity="1" in="SourceGraphic" result="result1"/>

<feGaussianBlur in="SourceGraphic" stdDeviation="1.6666666666666667,1.6666666666666667" result="result2"/>

<feComposite in2="result2" in="result1" operator="in" result="result3"/>

<feComposite in2="result3" in="SourceGraphic" operator="over" result="result4"/>
</filter>

<g id="icon_r_box_02_0_Layer3_0_FILL">
<path fill="#FFFFFF" fill-opacity="0" stroke="none" d="
M 65 -55
L -65 -55 -65 25 65 25 65 -55 Z"/>
</g>

<g id="icon_r_box_02_0_Layer3_1_FILL">
<path fill="#FFFFFF" fill-opacity="0" stroke="none" d="
M 65.05 49.95
L 65.05 24.95 -64.95 24.95 -64.95 49.95 65.05 49.95 Z"/>
</g>

<g id="icon_r_box_02_0_Layer3_2_FILL">
<path fill="#FFFFFF" fill-opacity="0" stroke="none" d="
M 65 -52.85
L 65 -57.85 -65 -57.85 -65 -52.85 65 -52.85 Z"/>
</g>

<g id="icon_r_box_02_0_Layer3_3_FILL">
<path fill="#FFFFFF" fill-opacity="0" stroke="none" d="
M 65 54.95
L 65 49.95 -65 49.95 -65 54.95 65 54.95 Z"/>
</g>

<g id="Duplicate_Items_Folder_Symbol_1_copy_0_Layer1_0_FILL">
<path fill="#FFFFFF" stroke="none" d="
M 11.1 -0.55
Q 10.7 -0.55 10.3 -0.35 9.75 -0.15 9.25 0.15 8.5 0.55 8.3 1.35 8.25 1.45 8.25 1.55 8.1 1.5 8 1.5 7.15 1.35 6.5 1.85 6.1 2.15 5.7 2.45 5.05 2.95 4.95 3.8 4.9 3.95 4.9 4.1 4.85 4.1 4.75 4.1 3.9 4.1 3.35 4.7 2.9 5.15 2.5 5.65 2 6.3 2.15 7.15 2.15 7.2 2.15 7.35 2.1 7.35 2 7.35 1.2 7.55 0.75 8.25 0.45 8.75 0.2 9.35 -0.15 10.1 0.15 10.9 0.15 11 0.25 11.1 0.1 11.15 0 11.2 -0.75 11.6 -0.95 12.4 -1.15 12.95 -1.25 13.55 -1.4 14.35 -0.95 15.05 -0.9 15.2 -0.75 15.3 -0.95 15.4 -1.1 15.55 -1.75 16.1 -1.85 16.9 -1.9 17.4 -1.95 18 -2 18.8 -1.45 19.45 -1.4 19.55 -1.25 19.65 -1.35 19.7 -1.4 19.8 -2 20.35 -2 21.2 -2 21.8 -1.95 22.4 -1.85 23.2 -1.2 23.75 -1.15 23.8 -1.05 23.9 -1.15 24 -1.25 24.15 -1.7 24.85 -1.55 25.65 -1.45 26.15 -1.35 26.65 -1.2 27.45 -0.5 27.95 -0.4 28 -0.35 28.05 -0.4 28.1 -0.45 28.2 -0.9 28.9 -0.75 29.7 -0.65 30.3 -0.45 30.9 -0.25 31.65 0.5 32.05 0.6 32.1 0.7 32.15 0.65 32.2 0.6 32.3 0.2 33.05 0.45 33.85 0.6 34.35 0.75 34.85 0.95 35.6 1.7 36 1.75 36.05 1.8 36.05 1.8 36.1 1.8 36.15 1.45 36.9 1.75 37.65 1.9 38.05 2.05 38.45 2.3 39.25 3.1 39.6 3.2 39.65 3.4 39.7 3.35 39.75 3.3 39.85 3 40.6 3.3 41.35 3.5 41.95 3.8 42.5 4.2 43.25 5 43.5 5.05 43.55 5.15 43.55 5.1 43.65 5.1 43.75 4.85 44.55 5.25 45.3 5.5 45.75 5.75 46.2 6.15 46.9 6.95 47.15 7.05 47.15 7.15 47.2 7.1 47.3 7.1 47.4 6.95 48.2 7.4 48.9 7.7 49.35 8 49.8 8.45 50.5 9.25 50.65 9.3 50.65 9.4 50.7 9.35 50.8 9.35 50.95 9.2 51.75 9.7 52.4 10 52.8 10.3 53.2 10.8 53.85 11.65 54 11.7 54 11.8 54 11.75 54.1 11.75 54.25 11.6 55.05 12.1 55.7 12.4 56.1 12.7 56.5 13.2 57.15 14.05 57.3 14.1 57.3 14.2 57.3 14.2 57.35 14.2 57.4 14.05 58.2 14.55 58.85 14.85 59.25 15.15 59.65 15.6 60.25 16.35 60.4 16.3 61.15 16.85 61.75 17.15 62.1 17.45 62.45 17.95 63.1 18.8 63.15 18.85 63.15 18.95 63.15 18.9 63.25 18.9 63.35 18.85 64.15 19.4 64.8 19.8 65.25 20.2 65.65 20.75 66.2 21.6 66.2
L 21.65 66.2
Q 21.65 66.25 21.65 66.3 21.6 67.1 22.15 67.75 22.55 68.2 22.95 68.6 23.5 69.15 24.35 69.15 24.45 69.15 24.5 69.15 24.5 69.2 24.5 69.25 24.5 70.1 25.1 70.7 25.45 71.05 25.8 71.4 26.35 71.95 27.2 71.95 27.35 71.95 27.45 71.95 27.45 72.05 27.45 72.15 27.5 72.95 28.15 73.5 28.6 73.9 29.05 74.25 29.7 74.75 30.55 74.65 30.6 74.6 30.65 74.6 30.65 74.65 30.7 74.75 30.8 75.55 31.45 76.05 31.9 76.4 32.4 76.7 33.1 77.15 33.9 76.95 34 76.9 34.15 76.9 34.2 77.05 34.25 77.25 34.6 78 35.35 78.3 35.6 78.4 35.85 78.5 36.6 78.8 37.4 78.5 37.45 78.45 37.5 78.45 37.55 78.6 37.65 78.75 38.05 79.5 38.85 79.75 39.3 79.85 39.75 80 40.5 80.25 41.25 79.9 41.4 79.8 41.55 79.7 41.65 79.85 41.75 80 42.2 80.7 43 80.85 43.6 81 44.2 81.05 45.05 81.15 45.7 80.6 45.7 80.55 45.75 80.55 45.85 80.65 45.95 80.75 46.5 81.3 47.35 81.3 47.95 81.3 48.55 81.25 49.3 81.15 49.85 80.55 49.9 80.6 49.95 80.65 50.65 81.05 51.45 80.9 52.05 80.8 52.65 80.65 53.4 80.4 53.8 79.65 53.85 79.5 53.95 79.4 54.05 79.45 54.25 79.55 54.6802734375 79.693359375 55.1 79.65
L 68.1 99.7 73.15 96.45 60.3 76.6
Q 60.818359375 76.15234375 60.95 75.45 60.95 75.25 60.95 75.1 61.15 75.1 61.35 75.1 62.15 75.05 62.7 74.45 63.1 73.95 63.45 73.5 63.95 72.85 63.85 72.05 63.8 72 63.8 71.95 63.9 71.9 64.05 71.9 64.8 71.55 65.15 70.8 65.35 70.25 65.55 69.75 65.8 68.95 65.45 68.2 65.3 68 65.2 67.85 65.35 67.75 65.55 67.6 66.15 67.05 66.25 66.25 66.3 65.65 66.3 65.05 66.3 64.2 65.75 63.65 65.65 63.55 65.6 63.5 65.65 63.4 65.75 63.35 66.3 62.7 66.2 61.85 66.15 61.35 66.1 60.85 66 60.05 65.4 59.5 65.25 59.4 65.1 59.3 65.15 59.25 65.2 59.2 65.6 58.5 65.45 57.7 65.35 57.2 65.3 56.7 65.1 55.9 64.45 55.4 64.3 55.3 64.15 55.25 64.2 55.15 64.25 55.05 64.6 54.3 64.35 53.55 64.2 53.1 64.1 52.65 63.85 51.85 63.1 51.45 63.05 51.4 62.95 51.4 63 51.3 63.05 51.25 63.4 50.5 63.15 49.75 63 49.3 62.9 48.85 62.65 48.05 61.9 47.65 61.75 47.6 61.65 47.55 61.65 47.5 61.7 47.45 62.05 46.7 61.8 45.95 61.6 45.4 61.4 44.85 61.05 44.1 60.3 43.8 60.35 43.7 60.4 43.6 60.65 42.8 60.35 42.05 60.15 41.6 59.95 41.15 59.6 40.4 58.85 40.1
L 58.8 40.05
Q 58.8 40 58.85 39.95 59.1 39.15 58.8 38.4 58.6 37.95 58.4 37.5 58.05 36.75 57.3 36.45
L 57.25 36.4
Q 57.55 35.6 57.25 34.85 57.05 34.3 56.75 33.7 56.35 32.95 55.6 32.7 55.4 32.65 55.2 32.65 55.35 32.4 55.45 32.2 55.7 31.4 55.4 30.65 55.2 30.2 55 29.75 54.65 29 53.9 28.7 53.8 28.65 53.75 28.65 54 27.85 53.7 27.1 53.5 26.65 53.3 26.2 52.95 25.45 52.2 25.15 52.1 25.1 52 25.1 52 25 52.05 24.95 52.25 24.15 51.85 23.45 51.55 22.95 51.3 22.5 50.85 21.8 50.05 21.6 50.1 21.5 50.1 21.4 50.3 20.6 49.85 19.9 49.6 19.5 49.35 19.1 48.9 18.4 48.1 18.2 48.1 18.15 48.1 18.1 48.3 17.3 47.85 16.6 47.6 16.2 47.35 15.8 46.9 15.1 46.1 14.9 45.95 14.85 45.8 14.85 45.85 14.8 45.85 14.7 46.05 13.9 45.6 13.2 45.3 12.75 45.05 12.35 44.55 11.65 43.75 11.55 43.6 11.5 43.5 11.5 43.5 11.4 43.5 11.25 43.55 10.45 43.05 9.8 42.75 9.45 42.45 9.1 41.9 8.45 41.05 8.4 40.95 8.4 40.85 8.4 40.85 8.3 40.85 8.25 40.85 7.4 40.3 6.85 39.85 6.4 39.45 6.1 38.8 5.55 38 5.6 37.95 5.6 37.9 5.6 37.9 5.5 37.9 5.4 37.75 4.55 37.1 4.05 36.65 3.7 36.15 3.4 35.45 2.95 34.7 3.15 34.65 3.05 34.65 2.95 34.4 2.15 33.7 1.75 33.25 1.5 32.8 1.25 32.05 0.85 31.25 1.1 31.05 1.15 30.85 1.25 30.8 1.1 30.8 1 30.45 0.2 29.7 -0.1 29.15 -0.35 28.65 -0.55 27.85 -0.8 27.1 -0.4 27 -0.4 26.95 -0.35 26.9 -0.45 26.85 -0.55 26.35 -1.25 25.55 -1.4 25.05 -1.5 24.55 -1.6 23.75 -1.75 23.05 -1.3 22.9 -1.25 22.8 -1.15 22.7 -1.3 22.6 -1.4 22 -2 21.15 -2 20.65 -2 20.15 -2 19.3 -2 18.75 -1.4 18.65 -1.35 18.65 -1.3 18.55 -1.4 18.5 -1.45 17.85 -2 17 -1.9 16.5 -1.85 16 -1.8 15.2 -1.7 14.65 -1.05 14.55 -0.95 14.45 -0.75 14.3 -0.85 14.15 -0.95 13.4 -1.35 12.65 -1.1 12.15 -0.95 11.65 -0.8 11.3 -0.75 11.1 -0.55 Z"/>
</g>

<g id="Duplicate_Items_Folder_Symbol_1_copy_0_Layer0_1_FILL">
<path fill="#FF7B05" stroke="none" d="
M 53.2 33.55
Q 47.2 20.7 42.2 14.25 36.65 7.1 29.8 4.25 21.6 0.85 12.3 3.8 3.3 8.15 2 17.85 0.8 26.05 5.15 37.55 9 47.65 19.2 59.85 29.1 71.8 36.05 75.05 42.3 78 47.85 77.75 52.35 77.5 56 75.05 60.35 72.15 61.7 69.3 63.95 64.55 61.7 56.05 59.2 46.45 53.2 33.55 Z"/>
</g>

<g id="Duplicate_Items_Folder_Symbol_1_copy_0_Layer0_1_STROKES_1_FILL">
<path fill="#FF7B05" stroke="none" d="
M 43.1 12.25
Q 42.57734375 11.61796875 41.75 11.55
L 41.7 11.55 41.7 11.5
Q 41.76328125 10.6794921875 41.2 10.05 40.8791015625 9.6373046875 40.45 9.2 39.8837890625 8.64453125 39.05 8.65 38.976953125 8.649609375 38.9 8.65 38.9041015625 8.6021484375 38.9 8.55 38.83203125 7.72265625 38.2 7.15 37.85 6.875 37.5 6.55 36.8705078125 6.03671875 36.05 6.1 35.9173828125 6.1107421875 35.8 6.1 35.778125 6.019140625 35.75 5.9 35.5583984375 5.0951171875 34.85 4.65 34.45 4.4 34.05 4.15 33.35078125 3.7130859375 32.55 3.9 32.2974609375 3.9599609375 32.05 4.05 32.0322265625 3.7568359375 31.85 3.45 31.5048828125 2.7109375 30.7 2.45 30.575 2.4 30.4 2.35
L 30.6 2.4
Q 30.25 2.25 29.9 2.1 29.12421875 1.78203125 28.35 2.1 28.21875 2.153125 28.1 2.2 28.0455078125 2.108203125 27.95 2 27.512890625 1.3125 26.7 1.15 26.2 1.05 25.7 0.95 24.8916015625 0.776171875 24.2 1.2 24.0806640625 1.3052734375 23.95 1.4 23.91875 1.308984375 23.85 1.2 23.3212890625 0.583203125 22.5 0.5 21.8998046875 0.444921875 21.3 0.45 20.466015625 0.44453125 19.85 1 19.822265625 1.078515625 19.75 1.1 19.70390625 1.06484375 19.6 1 18.9783203125 0.4712890625 18.15 0.55 17.65 0.6 17.15 0.65 16.328515625 0.733203125 15.8 1.35 15.6916015625 1.5078125 15.6 1.65 15.4671875 1.5388671875 15.3 1.45 14.5685546875 1.046484375 13.75 1.25 13.275 1.425 12.75 1.55 12.513671875 1.65546875 12.3 1.8 11.8970703125 1.7955078125 11.5 1.95 10.9625 2.2080078125 10.4 2.5 9.7021484375 2.9064453125 9.45 3.7 9.4427734375 3.8125 9.4 3.9 9.3029296875 3.8927734375 9.15 3.85 8.362109375 3.75546875 7.7 4.25 7.3 4.55 6.9 4.85 6.240625 5.3541015625 6.1 6.15 6.0923828125 6.395703125 6.1 6.6 5.895703125 6.5923828125 5.65 6.6 4.8541015625 6.740625 4.35 7.4 4.05 7.8 3.75 8.2 3.25546875 8.862109375 3.35 9.65 3.39296875 9.8037109375 3.4 9.9 3.2498046875 9.9583984375 3.05 10 2.30859375 10.3357421875 1.95 11.1 1.775 11.55 1.55 12 1.23203125 12.7591796875 1.5 13.5 1.599609375 13.7103515625 1.7 13.85 1.495703125 13.94765625 1.3 14.05 0.6125 14.537109375 0.45 15.35 0.3375 15.87421875 0.2 16.45 0.0775390625 17.251171875 0.55 17.9 0.585546875 17.976171875 0.6 18 0.5734375 18.0603515625 0.5 18.1 -0.116796875 18.628515625 -0.2 19.45 -0.255078125 20.05 -0.25 20.65 -0.25546875 21.4837890625 0.3 22.05 0.3921875 22.141015625 0.45 22.2 0.3509765625 22.301953125 0.25 22.4 -0.2787109375 23.0716796875 -0.2 23.9 -0.15 24.4 -0.1 24.9 -0.016796875 25.7212890625 0.6 26.25 0.737890625 26.3421875 0.85 26.4 0.759765625 26.5240234375 0.65 26.65 0.226171875 27.3416015625 0.4 28.15 0.5 28.65 0.6 29.15 0.7625 29.962890625 1.45 30.4 1.5658203125 30.500390625 1.65 30.55 1.58359375 30.692578125 1.5 30.85 1.096484375 31.58125 1.3 32.35 1.4748046875 32.851171875 1.6 33.35 1.85078125 34.169140625 2.55 34.55 2.69140625 34.64296875 2.8 34.7 2.77890625 34.7455078125 2.75 34.8 2.346484375 35.53125 2.55 36.3 2.758203125 36.9125 3 37.5 3.312109375 38.270703125 4.05 38.6 4.050390625 38.6619140625 4 38.7 3.73203125 39.4908203125 4.05 40.25 4.275 40.7 4.45 41.15 4.80859375 41.9142578125 5.55 42.2 5.6939453125 42.2703125 5.8 42.3 5.762109375 42.4201171875 5.7 42.55 5.49765625 43.3462890625 5.9 44.05 6.15 44.525 6.4 44.95 6.8064453125 45.69765625 7.6 45.9 7.68828125 45.950390625 7.75 45.95 7.729296875 46.103125 7.7 46.25 7.52578125 47.0572265625 7.95 47.75 8.275 48.2 8.55 48.65 9.0384765625 49.3361328125 9.85 49.5 9.9287109375 49.5169921875 10 49.5 9.9728515625 49.6353515625 9.95 49.75 9.77578125 50.5572265625 10.2 51.25 10.525 51.7 10.8 52.15 11.2884765625 52.8361328125 12.1 53 12.2119140625 53.0240234375 12.3 53 12.2921875 53.151953125 12.25 53.25 12.15546875 54.087890625 12.65 54.75 12.95 55.15 13.25 55.55 13.7541015625 56.2091796875 14.55 56.3 14.6322265625 56.3333984375 14.7 56.35 14.6810546875 56.3814453125 14.65 56.4 14.55546875 57.237890625 15.05 57.9 15.3962890625 58.3625 15.8 58.8 16.3494140625 59.444921875 17.15 59.5
L 17.2 59.5
Q 17.2072265625 59.6111328125 17.2 59.7 17.1494140625 60.5474609375 17.7 61.15 17.9962890625 61.5123046875 18.25 61.85 18.7541015625 62.5091796875 19.55 62.6 19.6953125 62.6427734375 19.8 62.65 19.8041015625 62.71015625 19.8 62.75 19.7494140625 63.5974609375 20.3 64.2 20.65 64.625 21 65 21.5494140625 65.644921875 22.35 65.7 22.4673828125 65.7056640625 22.55 65.7 22.5494140625 65.8001953125 22.55 65.9 22.54453125 66.7337890625 23.1 67.3 23.475 67.675 23.8 68 24.416015625 68.6052734375 25.25 68.6 25.326953125 68.600390625 25.4 68.6 25.399609375 68.6474609375 25.4 68.7 25.39453125 69.5337890625 25.95 70.1 26.325 70.475 26.65 70.8 27.266015625 71.4052734375 28.1 71.4 28.278515625 71.401171875 28.45 71.35 28.4453125 71.44921875 28.45 71.5 28.5048828125 72.3505859375 29.1 72.9 29.5873046875 73.3037109375 30.05 73.65 30.712109375 74.1443359375 31.5 74 31.6427734375 74.00859375 31.75 73.95 31.76796875 74.1138671875 31.8 74.25 31.9916015625 75.0546875 32.7 75.5 33.1748046875 75.805078125 33.65 76.05 34.2375 76.33984375 34.85 76.2 35.18515625 76.910546875 35.9 77.2 36.4 77.4 36.9 77.6 37.6630859375 77.9171875 38.4 77.6 38.51953125 77.5591796875 38.6 77.5 38.6482421875 77.60625 38.7 77.7 39.090234375 78.4328125 39.85 78.65 40.375 78.825 40.85 78.95 41.6685546875 79.203515625 42.4 78.8 42.53515625 78.7283203125 42.65 78.65 42.7380859375 78.7880859375 42.85 78.9 43.378515625 79.566796875 44.2 79.65 44.7 79.7 45.2 79.75 46.0283203125 79.828515625 46.65 79.3 46.7900390625 79.20546875 46.85 79.1 46.9740234375 79.191796875 47.05 79.25 47.7064453125 79.815234375 48.5 79.75 49.1923828125 79.6802734375 49.8 79.55 50.612890625 79.3875 51.05 78.7 51.1455078125 78.591796875 51.2 78.45 51.2951171875 78.5443359375 51.4 78.6 52.13125 79.003515625 52.9 78.75 53.5125 78.591796875 54.1 78.35 54.870703125 78.037890625 55.2 77.25 55.240625 77.177734375 55.25 77.05 56.003125 77.29375 56.7 76.95 56.8 76.9 56.9 76.85 56.9765625 76.801171875 57.05 76.75 57.5158203125 76.4625 57.9 76.15 58.5939453125 75.688671875 58.7 74.85 58.7412109375 74.77734375 58.75 74.65 58.83515625 74.694140625 58.9 74.7 59.7474609375 74.7505859375 60.35 74.2 60.8283203125 73.8125 61.2 73.4 61.8052734375 72.8337890625 61.8 72 61.8013671875 71.7826171875 61.75 71.55 61.85546875 71.5703125 61.95 71.55 62.7615234375 71.3861328125 63.2 70.7 63.3892578125 70.45 63.5 70.2 63.6 70 63.7 69.8 64.0662109375 69.0576171875 63.8 68.25 63.71484375 68.0197265625 63.55 67.8 63.784375 67.7056640625 63.95 67.55 64.616796875 67.0212890625 64.7 66.2 64.75 65.7 64.8 65.2 64.878515625 64.3716796875 64.35 63.7 64.225390625 63.5732421875 64.05 63.45 64.1978515625 63.3494140625 64.3 63.2 64.828515625 62.5783203125 64.75 61.75 64.7 61.25 64.65 60.75 64.566796875 59.928515625 63.9 59.4 63.8228515625 59.3166015625 63.7 59.25 63.7728515625 59.17734375 63.8 59.1 64.2736328125 58.408203125 64.1 57.6 63.9919921875 57.0125 63.8 56.4 63.5828125 55.640234375 62.85 55.25 62.75234375 55.19609375 62.65 55.15 62.7783203125 54.9931640625 62.85 54.8 63.254296875 54.0587890625 63 53.25 62.85 52.825 62.7 52.35 62.4390625 51.5951171875 61.7 51.2 61.652734375 51.20078125 61.6 51.15 61.641796875 51.11640625 61.65 51.05 62.054296875 50.3087890625 61.8 49.5 61.65 49.075 61.5 48.6 61.2390625 47.8451171875 60.5 47.45 60.412890625 47.4302734375 60.3 47.4 60.3509765625 47.3482421875 60.35 47.3 60.754296875 46.5587890625 60.5 45.75 60.317578125 45.2373046875 60.05 44.7 59.74140625 43.9357421875 58.95 43.6
L 58.95 43.6
Q 58.9859375 43.521875 59 43.4 59.31796875 42.6591796875 58.95 41.9 58.775 41.45 58.55 41 58.24140625 40.2357421875 57.45 39.9
L 57.4 39.9
Q 57.7638671875 39.162109375 57.45 38.4 57.303125 37.953125 57.05 37.45 56.74140625 36.6857421875 55.95 36.35 55.9126953125 36.351171875 55.85 36.3 55.8763671875 36.2794921875 55.9 36.2 56.2171875 35.4630859375 55.9 34.7 55.6787109375 34.125 55.4 33.55 55.016796875 32.811328125 54.2 32.55 54.00625 32.47890625 53.8 32.45 53.9298828125 32.26171875 54 32 54.31796875 31.2591796875 53.95 30.5 53.775 30.05 53.55 29.6 53.24140625 28.8357421875 52.45 28.5 52.4029296875 28.4974609375 52.3 28.45 52.61796875 27.7091796875 52.25 26.95 52.0625 26.44765625 51.85 26 51.466796875 25.261328125 50.65 25 50.607421875 24.9779296875 50.55 24.95 50.558984375 24.9064453125 50.55 24.85 50.8021484375 24.053515625 50.4 23.3 50.1248046875 22.8349609375 49.85 22.4 49.4046875 21.6916015625 48.6 21.5 48.6314453125 21.427734375 48.65 21.35 48.83671875 20.54921875 48.4 19.85 48.15 19.45 47.9 19.05 47.4546875 18.3416015625 46.65 18.15 46.583203125 18.1341796875 46.5 18.1 46.53515625 18.0626953125 46.55 18 46.73671875 17.19921875 46.3 16.5 46.05 16.1 45.8 15.7 45.3546875 14.9916015625 44.55 14.8 44.40625 14.7662109375 44.25 14.75 44.3013671875 14.5587890625 44.3 14.35 44.3052734375 13.516015625 43.7 12.9 43.675 12.875 43.6 12.8 43.3728515625 12.5392578125 43.1 12.25
M 42.15 16.35
Q 41.9755859375 17.120703125 42.4 17.8 42.65 18.2 42.9 18.6 43.3451171875 19.3083984375 44.15 19.5 44.216796875 19.5158203125 44.25 19.5 44.26484375 19.5873046875 44.25 19.65 44.0630859375 20.45078125 44.5 21.15 44.75 21.55 45 21.95 45.4451171875 22.6583984375 46.25 22.85 46.218359375 22.9224609375 46.2 23 46.0130859375 23.80078125 46.45 24.5 46.675 24.8650390625 46.9 25.25 47.3064453125 25.99765625 48.1 26.2
L 48.15 26.25 48.15 26.25
Q 47.8837890625 27.0576171875 48.25 27.8 48.4375 28.15234375 48.6 28.55 48.95859375 29.3142578125 49.7 29.6 49.8 29.6537109375 49.85 29.65 49.58203125 30.4408203125 49.9 31.2 50.125 31.65 50.3 32.1 50.65859375 32.8642578125 51.4 33.15 51.6931640625 33.27734375 51.95 33.3 51.7966796875 33.53515625 51.7 33.8 51.4337890625 34.6076171875 51.8 35.35 52.02109375 35.775 52.2 36.2 52.512109375 36.970703125 53.25 37.3 53.3611328125 37.3361328125 53.45 37.35 53.4083984375 37.441796875 53.35 37.5 53.08203125 38.2908203125 53.4 39.05 53.5966796875 39.4466796875 53.7 39.8 54.0197265625 40.5779296875 54.75 40.9 54.84453125 40.956640625 54.9 40.95 54.8939453125 41.028125 54.85 41.05 54.58203125 41.8408203125 54.9 42.6 55.125 43.05 55.3 43.5 55.65859375 44.2642578125 56.4 44.55
L 56.45 44.6
Q 56.4140625 44.6779296875 56.35 44.75 56.08203125 45.5408203125 56.4 46.3 56.582421875 46.6625 56.7 47 56.9609375 47.8048828125 57.7 48.15 57.787109375 48.2197265625 57.85 48.25 57.8490234375 48.3017578125 57.8 48.35 57.4455078125 49.0912109375 57.7 49.85 57.85 50.325 58 50.75 58.2609375 51.5548828125 59 51.9 59.047265625 51.94921875 59.1 51.95 59.058203125 52.03359375 59 52.1 58.6455078125 52.8412109375 58.9 53.6 59.05 54.075 59.2 54.5 59.4609375 55.3048828125 60.2 55.65 60.273046875 55.7123046875 60.35 55.75 60.2380859375 55.8841796875 60.15 56.05 59.746484375 56.78125 59.95 57.55 60.1078125 57.9875 60.2 58.4 60.3625 59.212890625 61.05 59.65
L 61.05 59.7
Q 60.5724609375 60.3349609375 60.65 61.15 60.7 61.65 60.75 62.15 60.833203125 62.9712890625 61.45 63.5 60.8796875 64.013671875 60.8 64.8 60.75 65.3 60.7 65.8 60.631640625 66.5189453125 61 67.1 60.4189453125 67.38515625 60.1 68 60 68.2 59.9 68.4 59.865625 68.4806640625 59.85 68.55 59.433203125 69.2275390625 59.6 70 58.89453125 70.06484375 58.35 70.55 58.0716796875 70.8875 57.7 71.2 57.1048828125 71.7494140625 57.05 72.55 56.2580078125 72.44921875 55.6 72.9 55.364453125 73.0896484375 55.1 73.25 55 73.3 54.9 73.35 54.161328125 73.733203125 53.9 74.5
L 53.85 74.55
Q 53.2439453125 74.382421875 52.6 74.65 52.1873046875 74.808203125 51.75 74.9 50.990234375 75.1669921875 50.6 75.9 50.580859375 75.9345703125 50.55 75.95 50.5322265625 75.9466796875 50.5 75.9 49.808203125 75.476171875 49 75.65 48.6072265625 75.7197265625 48.15 75.75 47.403515625 75.82734375 46.9 76.4 46.3736328125 75.8283203125 45.6 75.75 45.1 75.7 44.6 75.65 43.805078125 75.5744140625 43.15 76.05 42.7873046875 75.36015625 42 75.1 41.525 74.975 41 74.8 40.23125 74.596484375 39.5 75
L 39.5 74.95
Q 39.170703125 74.212109375 38.4 73.9 37.9 73.7 37.4 73.5 36.8724609375 73.2806640625 36.35 73.35 36.0615234375 72.7671875 35.45 72.45 35.125 72.29453125 34.8 72.1 34.10078125 71.6630859375 33.3 71.85 33.26796875 71.8576171875 33.2 71.85 33.2318359375 71.8208984375 33.2 71.75 33.1091796875 70.9541015625 32.45 70.45 32.1123046875 70.1962890625 31.75 69.9 31.1474609375 69.3494140625 30.3 69.4 30.209765625 69.407421875 30.1 69.4
L 30.1 69.4
Q 30.1052734375 68.566015625 29.5 67.95 29.175 67.625 28.8 67.25 28.2337890625 66.69453125 27.4 66.7 27.3232421875 66.6994140625 27.25 66.7 27.250390625 66.6525390625 27.25 66.6 27.2552734375 65.766015625 26.65 65.15 26.325 64.825 25.95 64.45 25.3837890625 63.89453125 24.55 63.9
L 24.5 63.9
Q 24.4974609375 63.8630859375 24.5 63.8 24.5505859375 63.0025390625 24 62.35 23.65 61.975 23.3 61.55 22.7505859375 60.9548828125 21.9 60.9 21.8765625 60.8970703125 21.8 60.9 21.935546875 60.1001953125 21.45 59.45 21.1037109375 58.9873046875 20.7 58.5 20.1505859375 57.9048828125 19.3 57.85
L 19.25 57.85
Q 19.2927734375 57.7388671875 19.3 57.6 19.3505859375 56.8025390625 18.8 56.15 18.5037109375 55.8375 18.25 55.5 17.7458984375 54.840625 16.9 54.7 16.8677734375 54.7166015625 16.8 54.7 16.8189453125 54.6685546875 16.8 54.6 16.9443359375 53.812109375 16.45 53.15 16.15 52.75 15.85 52.35 15.3458984375 51.690625 14.5 51.55 14.4744140625 51.567578125 14.4 51.55 14.438671875 51.5072265625 14.45 51.45 14.6240234375 50.6427734375 14.15 49.95 13.875 49.5 13.55 49.05 13.1115234375 48.363671875 12.3 48.2 12.2212890625 48.1830078125 12.15 48.15 12.1771484375 48.064453125 12.2 47.95 12.3740234375 47.1427734375 11.9 46.45 11.625 46 11.3 45.55 10.8615234375 44.863671875 10.05 44.7
L 10 44.7
Q 10.0537109375 44.624609375 10.05 44.55 10.3021484375 43.753515625 9.9 43 9.65 42.575 9.4 42.1 8.993359375 41.4021484375 8.2 41.15 8.1697265625 41.1662109375 8.15 41.15 8.1578125 41.117578125 8.15 41.05 8.46796875 40.3091796875 8.1 39.55 7.925 39.1 7.7 38.65 7.4009765625 37.9078125 6.65 37.6 6.6849609375 37.559765625 6.7 37.5 7.0171875 36.7630859375 6.7 36 6.541796875 35.5873046875 6.4 35.15 6.1828125 34.390234375 5.45 34 5.342578125 33.9408203125 5.2 33.9 5.2548828125 33.8607421875 5.25 33.8 5.689453125 33.1109375 5.45 32.3 5.325 31.748828125 5.15 31.2 4.9328125 30.440234375 4.2 30.05 4.1560546875 30.02578125 4.1 30 4.1708984375 29.93046875 4.2 29.85 4.6736328125 29.158203125 4.5 28.35 4.4 27.85 4.3 27.35 4.1375 26.537109375 3.45 26.05
L 3.4 26.05
Q 3.42265625 26.0083984375 3.45 25.95 3.978515625 25.3283203125 3.9 24.5 3.85 24 3.8 23.5 3.716796875 22.678515625 3.05 22.15 3.1306640625 22.118359375 3.15 22.05 3.7552734375 21.4837890625 3.75 20.65 3.7548828125 20.25 3.8 19.85 3.8763671875 19.0447265625 3.35 18.4 4.021875 17.9380859375 4.15 17.15 4.2625 16.6259765625 4.35 16.15 4.519140625 15.362109375 4.1 14.65
L 4.1 14.65
Q 4.89140625 14.3642578125 5.2 13.6 5.425 13.15 5.6 12.7 5.92734375 12.030859375 5.7 11.35 6.4802734375 11.2142578125 6.95 10.6 7.25 10.2 7.55 9.8 8.0095703125 9.184375 7.95 8.45 8.684375 8.5095703125 9.3 8.05 9.7 7.75 10.1 7.45 10.737109375 6.962890625 10.85 6.15 11.65390625 6.398046875 12.35 6 12.7375 5.7919921875 13.1 5.6 13.2220703125 5.5716796875 13.3 5.5 13.6240234375 5.51171875 13.9 5.4 14.425 5.275 14.9 5.1 15.683203125 4.891015625 16.05 4.2 16.7216796875 4.728515625 17.55 4.65 18.05 4.6 18.55 4.55 19.3451171875 4.46953125 19.85 3.85 20.466015625 4.4552734375 21.3 4.45 21.6998046875 4.4548828125 22.1 4.5 22.9283203125 4.578515625 23.55 4.05 23.60234375 4.0275390625 23.6 4 24.087109375 4.6875 24.9 4.85 25.4 4.95 25.9 5.05 26.6541015625 5.2119140625 27.3 4.8 27.6171875 5.4984375 28.3 5.8 28.65 5.95 29 6.1 29.087890625 6.1265625 29.15 6.15 29.325 6.2 29.45 6.25 30.2587890625 6.504296875 31 6.1
L 31 6.1
Q 31.0283203125 6.2080078125 31.05 6.3 31.2416015625 7.1046875 31.95 7.55 32.35 7.8 32.75 8.05 33.4298828125 8.474609375 34.2 8.3 34.291015625 9.097265625 34.9 9.6 35.25 9.925 35.6 10.2 36.2294921875 10.76328125 37.05 10.7 37.062109375 11.5015625 37.6 12.05 37.9208984375 12.3625 38.15 12.65 38.72265625 13.28203125 39.55 13.35
L 39.6 13.35 39.6 13.4
Q 39.53671875 14.2205078125 40.05 14.85 40.375 15.2 40.65 15.55 40.7263671875 15.6134765625 40.75 15.65 40.825 15.725 40.85 15.75 41.40859375 16.298828125 42.15 16.35 Z"/>
</g>

<g id="Duplicate_Items_Folder_Symbol_1_copy_0_Layer0_4_FILL">
<path fill="#F66B00" stroke="none" d="
M 49.6 69.8
Q 49.6 70.3 49.95 70.65 50.35 71.05 50.85 71.05 51.35 71.05 51.7 70.65 52.1 70.3 52.1 69.8 52.1 69.3 51.7 68.9 51.35 68.55 50.85 68.55 50.35 68.55 49.95 68.9 49.6 69.3 49.6 69.8
M 50.1 73.7
Q 50.1 73.35 49.8 73.1 49.55 72.85 49.2 72.85 48.85 72.85 48.6 73.1 48.35 73.35 48.35 73.7 48.35 74.05 48.6 74.3 48.85 74.6 49.2 74.6 49.55 74.6 49.8 74.3 50.1 74.05 50.1 73.7
M 27.2 53.65
Q 27.2 53.15 26.8 52.75 26.45 52.4 25.95 52.4 25.45 52.4 25.05 52.75 24.7 53.15 24.7 53.65 24.7 54.15 25.05 54.5 25.45 54.9 25.95 54.9 26.45 54.9 26.8 54.5 27.2 54.15 27.2 53.65
M 31.85 57.65
Q 31.85 57.3 31.55 57.05 31.3 56.8 30.95 56.8 30.6 56.8 30.35 57.05 30.1 57.3 30.1 57.65 30.1 58 30.35 58.25 30.6 58.55 30.95 58.55 31.3 58.55 31.55 58.25 31.85 58 31.85 57.65
M 9.85 38.4
Q 9.6 38.65 9.6 39 9.6 39.35 9.85 39.6 10.1 39.9 10.45 39.9 10.8 39.9 11.05 39.6 11.35 39.35 11.35 39 11.35 38.65 11.05 38.4 10.8 38.15 10.45 38.15 10.1 38.15 9.85 38.4
M 13.65 31.6
Q 14.05 31.25 14.05 30.75 14.05 30.25 13.65 29.85 13.3 29.5 12.8 29.5 12.3 29.5 11.9 29.85 11.55 30.25 11.55 30.75 11.55 31.25 11.9 31.6 12.3 32 12.8 32 13.3 32 13.65 31.6
M 8.7 8.55
Q 8.7 8.05 8.3 7.65 7.95 7.3 7.45 7.3 6.95 7.3 6.55 7.65 6.2 8.05 6.2 8.55 6.2 9.05 6.55 9.4 6.95 9.8 7.45 9.8 7.95 9.8 8.3 9.4 8.7 9.05 8.7 8.55
M 33.3 13.5
Q 33.6 13.25 33.6 12.9 33.6 12.55 33.3 12.3 33.05 12.05 32.7 12.05 32.35 12.05 32.1 12.3 31.85 12.55 31.85 12.9 31.85 13.25 32.1 13.5 32.35 13.8 32.7 13.8 33.05 13.8 33.3 13.5
M 45.75 34.2
Q 45.75 33.7 45.35 33.3 45 32.95 44.5 32.95 44 32.95 43.6 33.3 43.25 33.7 43.25 34.2 43.25 34.7 43.6 35.05 44 35.45 44.5 35.45 45 35.45 45.35 35.05 45.75 34.7 45.75 34.2 Z"/>
</g>

<path id="Duplicate_Items_Folder_Symbol_1_copy_0_Layer1_0_1_STROKES" stroke="#FFFFFF" stroke-width="8" stroke-linejoin="round" stroke-linecap="butt" fill="none" d="
M 11.584968566894533 2.1175010681152346
Q 11.062470245361329 2.307500457763672 10.587471771240235 2.5924995422363284 9.874974060058594 2.9724983215332035 9.684974670410158 3.7324958801269537 9.637474822998048 3.827495574951172 9.637474822998048 3.922495269775391 9.494975280761718 3.8749954223632814 9.3999755859375 3.8749954223632814 8.592478179931641 3.7324958801269537 7.974980163574219 4.207494354248047 7.594981384277343 4.492493438720704 7.214982604980468 4.777492523193359 6.597484588623047 5.252490997314453 6.502484893798828 6.059988403320313 6.454985046386719 6.202487945556641 6.454985046386719 6.344987487792968 6.407485198974609 6.344987487792968 6.3124855041503904 6.344987487792968 5.504988098144532 6.344987487792968 4.982489776611328 6.914985656738281 4.554991149902344 7.342484283447266 4.174992370605469 7.81748275756836 3.699993896484375 8.434980773925782 3.8424934387207035 9.242478179931641 3.8424934387207035 9.28997802734375 3.8424934387207035 9.432477569580078 3.794993591308594 9.432477569580078 3.699993896484375 9.432477569580078 2.939996337890625 9.622476959228516 2.5124977111816404 10.287474822998046 2.2274986267089845 10.76247329711914 1.9899993896484376 11.332471466064455 1.6575004577636718 12.044969177246095 1.9424995422363283 12.804966735839844 1.9424995422363283 12.899966430664062 2.0374992370605467 12.994966125488283 1.8949996948242187 13.042465972900391 1.8 13.0899658203125 1.0875022888183594 13.469964599609376 0.897502899169922 14.229962158203126 0.7075035095214846 14.752460479736328 0.6125038146972657 15.322458648681643 0.4700042724609377 16.082456207275392 0.897502899169922 16.747454071044924 0.9450027465820313 16.88995361328125 1.0875022888183594 16.98495330810547 0.897502899169922 17.079953002929688 0.7550033569335937 17.222452545166018 0.13750534057617192 17.74495086669922 0.042505645751953036 18.504948425292966 -0.004994201660156072 18.97994689941406 -0.052494049072265625 19.549945068359374 -0.09999389648437496 20.309942626953124 0.4225044250488281 20.927440643310547 0.4700042724609377 21.022440338134764 0.6125038146972657 21.11744003295898 0.5175041198730468 21.164939880371094 0.4700042724609377 21.25993957519531 -0.09999389648437496 21.782437896728517 -0.09999389648437496 22.589935302734375 -0.09999389648437496 23.159933471679686 -0.052494049072265625 23.729931640624997 0.042505645751953036 24.48992919921875 0.660003662109375 25.012427520751952 0.7075035095214846 25.05992736816406 0.8025032043457031 25.15492706298828 0.7075035095214846 25.2499267578125 0.6125038146972657 25.392426300048825 0.18500518798828125 26.05742416381836 0.32750473022460946 26.817421722412107 0.4225044250488281 27.2924201965332 0.5175041198730468 27.767418670654294 0.660003662109375 28.527416229248047 1.3250015258789063 29.00241470336914 1.420001220703125 29.04991455078125 1.4675010681152345 29.097414398193358 1.420001220703125 29.14491424560547 1.3725013732910156 29.239913940429688 0.9450027465820313 29.904911804199216 1.0875022888183594 30.66490936279297 1.1825019836425783 31.23490753173828 1.3725013732910156 31.80490570068359 1.5625007629394532 32.51740341186523 2.2749984741210936 32.89740219116211 2.3699981689453127 32.94490203857422 2.4649978637695313 32.992401885986325 2.417498016357422 33.039901733398445 2.3699981689453127 33.134901428222655 1.9899993896484376 33.847399139404295 2.2274986267089845 34.60739669799805 2.3699981689453127 35.08239517211914 2.5124977111816404 35.557393646240236 2.702497100830078 36.269891357421876 3.414994812011719 36.64989013671875 3.462494659423828 36.69738998413086 3.5099945068359375 36.69738998413086 3.5099945068359375 36.74488983154297 3.5099945068359375 36.79238967895508 3.177495574951172 37.50488739013672 3.462494659423828 38.217385101318364 3.604994201660156 38.59738388061523 3.7474937438964844 38.97738265991212 3.9849929809570312 39.73738021850586 4.744990539550781 40.069879150390626 4.8399902343750005 40.11737899780274 5.029989624023438 40.16487884521485 4.982489776611328 40.212378692626956 4.934989929199219 40.30737838745117 4.649990844726562 41.019876098632814 4.934989929199219 41.732373809814455 5.124989318847656 42.30237197875977 5.4099884033203125 42.82487030029297 5.789987182617188 43.53736801147461 6.549984741210937 43.77486724853516 6.597484588623047 43.822367095947264 6.692484283447266 43.822367095947264 6.6449844360351555 43.91736679077149 6.6449844360351555 44.012366485595706 6.407485198974609 44.77236404418945 6.787483978271484 45.48486175537109 7.024983215332031 45.91236038208008 7.262482452392578 46.33985900878907 7.6424812316894535 47.0048568725586 8.402478790283203 47.242356109619145 8.497478485107422 47.242356109619145 8.592478179931641 47.28985595703126 8.54497833251953 47.38485565185547 8.54497833251953 47.47985534667969 8.402478790283203 48.239852905273445 8.829977416992188 48.90485076904297 9.114976501464843 49.332349395751955 9.3999755859375 49.759848022460936 9.827474212646484 50.42484588623047 10.587471771240235 50.5673454284668 10.634971618652346 50.5673454284668 10.729971313476563 50.61484527587891 10.682471466064454 50.709844970703124 10.682471466064454 50.85234451293946 10.539971923828125 51.612342071533206 11.014970397949218 52.22984008789063 11.299969482421876 52.6098388671875 11.584968566894533 52.98983764648438 12.059967041015627 53.6073356628418 12.867464447021485 53.74983520507813 12.914964294433593 53.74983520507813 13.009963989257814 53.74983520507813 12.962464141845704 53.844834899902345 12.962464141845704 53.987334442138675 12.819964599609376 54.74733200073242 13.29496307373047 55.36483001708985 13.579962158203125 55.74482879638672 13.864961242675781 56.1248275756836 14.339959716796875 56.74232559204102 15.147457122802736 56.88482513427734 15.194956970214845 56.88482513427734 15.289956665039062 56.88482513427734 15.289956665039062 56.932324981689455 15.289956665039062 56.97982482910157 15.147457122802736 57.73982238769532 15.62245559692383 58.357320404052736 15.907454681396485 58.73731918334961 16.19245376586914 59.11731796264649 16.619952392578124 59.6873161315918 17.33245010375977 59.82981567382813 17.284950256347656 60.54231338500977 17.807448577880862 61.11231155395508 18.092447662353514 61.444810485839845 18.377446746826173 61.77730941772462 18.852445220947267 62.39480743408203 19.659942626953125 62.442307281494145 19.707442474365237 62.442307281494145 19.802442169189455 62.442307281494145 19.754942321777342 62.53730697631836 19.754942321777342 62.63230667114258 19.707442474365237 63.39230422973634 20.229940795898436 64.00980224609374 20.609939575195312 64.43730087280274 20.98993835449219 64.81729965209962 21.51243667602539 65.33979797363281 22.319934082031253 65.33979797363281
L 22.367433929443358 65.33979797363281
Q 22.367433929443358 65.38729782104492 22.367433929443358 65.43479766845702 22.319934082031253 66.19479522705078 22.84243240356445 66.8122932434082 23.222431182861328 67.23979187011719 23.602429962158205 67.61979064941406 24.124928283691407 68.14228897094728 24.93242568969727 68.14228897094728 25.027425384521486 68.14228897094728 25.074925231933594 68.14228897094728 25.074925231933594 68.18978881835938 25.074925231933594 68.23728866577149 25.074925231933594 69.04478607177734 25.64492340087891 69.61478424072266 25.977422332763673 69.94728317260743 26.309921264648438 70.2797821044922 26.832419586181643 70.80228042602539 27.6399169921875 70.80228042602539 27.78241653442383 70.80228042602539 27.87741622924805 70.80228042602539 27.87741622924805 70.89728012084962 27.87741622924805 70.99227981567384 27.924916076660157 71.75227737426758 28.542414093017577 72.27477569580078 28.969912719726565 72.65477447509767 29.397411346435547 72.98727340698242 30.01490936279297 73.46227188110352 30.822406768798828 73.36727218627931 30.86990661621094 73.31977233886718 30.917406463623045 73.31977233886718 30.917406463623045 73.36727218627931 30.964906311035158 73.46227188110352 31.059906005859375 74.22226943969727 31.6774040222168 74.69726791381837 32.10490264892578 75.02976684570314 32.579901123046874 75.31476593017578 33.24489898681641 75.74226455688478 34.004896545410155 75.55226516723633 34.09989624023437 75.50476531982423 34.2423957824707 75.50476531982423 34.289895629882814 75.64726486206055 34.33739547729492 75.83726425170899 34.66989440917968 76.54976196289063 35.382392120361324 76.83476104736329 35.61989135742187 76.92976074218751 35.85739059448242 77.02476043701172 36.56988830566406 77.30975952148438 37.32988586425781 77.02476043701172 37.37738571166992 76.97726058959961 37.42488555908203 76.97726058959961 37.47238540649413 77.11976013183593 37.56738510131836 77.26225967407227 37.94738388061523 77.97475738525391 38.70738143920898 78.21225662231446 39.13488006591796 78.30725631713867 39.56237869262695 78.449755859375 40.27487640380859 78.68725509643555 40.98737411499023 78.35475616455079 41.12987365722656 78.25975646972657 41.27237319946288 78.16475677490234 41.36737289428711 78.30725631713867 41.462372589111325 78.449755859375 41.889871215820314 79.11475372314453 42.64986877441406 79.25725326538085 43.21986694335937 79.39975280761719 43.78986511230469 79.4472526550293 44.59736251831054 79.54225234985353 45.21486053466797 79.0197540283203 45.21486053466797 78.97225418090821 45.262360382080075 78.97225418090821 45.35736007690429 79.06725387573243 45.45235977172852 79.16225357055664 45.974858093261716 79.68475189208985 46.782355499267574 79.68475189208985 47.35235366821289 79.68475189208985 47.922351837158196 79.63725204467774 48.63484954833984 79.54225234985353 49.15734786987304 78.97225418090821 49.204847717285155 79.0197540283203 49.25234756469727 79.06725387573243 49.917345428466795 79.4472526550293 50.67734298706055 79.30475311279298 51.24734115600585 79.20975341796876 51.81733932495117 79.06725387573243 52.52983703613281 78.82975463867189 52.90983581542968 78.11725692749025 52.95733566284179 77.97475738525391 53.05233535766602 77.8797576904297 53.14733505249023 77.9272575378418 53.33733444213867 78.02225723266602 53.746092894673346 78.15844820141793 54.14483184814453 78.11725692749025
L 66.49479217529296 97.1646957397461 71.29227676391602 94.07720565795898 59.0848159790039 75.24351615905762
Q 59.57725580334663 74.79449416399002 59.70231399536133 74.12726974487305 59.70231399536133 73.93727035522461 59.70231399536133 73.79477081298828 59.892313385009764 73.79477081298828 60.0823127746582 73.79477081298828 60.84231033325195 73.74727096557618 61.36480865478516 73.17727279663086 61.74480743408203 72.70227432250977 62.0773063659668 72.27477569580078 62.55230484008789 71.65727767944335 62.45730514526367 70.89728012084962 62.409805297851555 70.8497802734375 62.409805297851555 70.80228042602539 62.50480499267578 70.75478057861329 62.6473045349121 70.75478057861329 63.35980224609374 70.42228164672852 63.69230117797852 69.70978393554688 63.88230056762694 69.18728561401367 64.07229995727539 68.71228713989258 64.30979919433594 67.95228958129883 63.97730026245117 67.23979187011719 63.83480072021484 67.04979248046875 63.739801025390626 66.90729293823242 63.88230056762694 66.8122932434082 64.07229995727539 66.66979370117187 64.64229812622071 66.14729537963866 64.73729782104492 65.38729782104492 64.78479766845703 64.81729965209962 64.78479766845703 64.24730148315429 64.78479766845703 63.439804077148445 64.26229934692383 62.91730575561524 64.16729965209962 62.822306060791014 64.11979980468749 62.77480621337891 64.16729965209962 62.67980651855469 64.26229934692383 62.63230667114258 64.78479766845703 62.01480865478516 64.68979797363282 61.2073112487793 64.64229812622071 60.732312774658205 64.59479827880858 60.25731430053711 64.49979858398437 59.49731674194336 63.92980041503907 58.97481842041016 63.78730087280273 58.87981872558594 63.644801330566395 58.78481903076172 63.69230117797852 58.73731918334961 63.739801025390626 58.68981933593751 64.11979980468749 58.02482147216797 63.97730026245117 57.264823913574226 63.88230056762694 56.78982543945313 63.83480072021484 56.31482696533204 63.644801330566395 55.554829406738286 63.027303314208986 55.07983093261719 62.88480377197265 54.98483123779297 62.742304229736334 54.93733139038086 62.78980407714844 54.842331695556645 62.837303924560544 54.74733200073242 63.1698028564453 54.03483428955078 62.932303619384754 53.32233657836914 62.78980407714844 52.89483795166016 62.69480438232421 52.467339324951176 62.45730514526367 51.70734176635742 61.74480743408203 51.327342987060554 61.697307586669915 51.27984313964844 61.602307891845705 51.27984313964844 61.64980773925781 51.18484344482422 61.697307586669915 51.13734359741211 62.029806518554686 50.42484588623047 61.79230728149414 49.71234817504883 61.64980773925781 49.28484954833984 61.55480804443359 48.85735092163086 61.317308807373045 48.09735336303711 60.604811096191405 47.71735458374024 60.462311553955075 47.669854736328126 60.36731185913086 47.622354888916014 60.36731185913086 47.57485504150391 60.41481170654297 47.527355194091804 60.74731063842773 46.81485748291016 60.50981140136718 46.10235977172852 60.319812011718746 45.57986145019532 60.12981262207031 45.05736312866211 59.79731369018554 44.34486541748047 59.0848159790039 44.05986633300781 59.13231582641601 43.9648666381836 59.179815673828124 43.869866943359376 59.41731491088867 43.109869384765624 59.13231582641601 42.39737167358398 58.94231643676758 41.969873046875 58.75231704711914 41.54237442016602 58.41981811523437 40.82987670898438 57.70732040405273 40.54487762451172
L 57.65982055664062 40.49737777709961
Q 57.65982055664062 40.4498779296875 57.70732040405273 40.4023780822754 57.94481964111328 39.642380523681645 57.65982055664062 38.929882812500004 57.46982116699218 38.50238418579102 57.27982177734375 38.074885559082034 56.94732284545898 37.36238784790039 56.23482513427734 37.07738876342774
L 56.18732528686523 37.02988891601563
Q 56.47232437133788 36.269891357421876 56.18732528686523 35.557393646240236 55.99732589721679 35.03489532470703 55.71232681274414 34.464897155761726 55.33232803344726 33.752399444580085 54.61983032226562 33.51490020751954 54.429830932617186 33.46740036010742 54.23983154296875 33.46740036010742 54.382331085205074 33.22990112304687 54.4773307800293 33.039901733398445 54.714830017089845 32.279904174804685 54.429830932617186 31.567406463623044 54.23983154296875 31.139907836914062 54.04983215332031 30.712409210205077 53.717333221435545 29.999911499023437 53.004835510253905 29.71491241455078 52.90983581542968 29.66741256713867 52.862335968017575 29.66741256713867 53.09983520507812 28.907415008544923 52.81483612060547 28.194917297363283 52.62483673095703 27.767418670654294 52.43483734130859 27.339920043945312 52.10233840942383 26.627422332763672 51.38984069824219 26.342423248291013 51.294841003417964 26.294923400878908 51.19984130859375 26.294923400878908 51.19984130859375 26.199923706054687 51.24734115600585 26.152423858642578 51.437340545654294 25.392426300048825 51.05734176635742 24.727428436279297 50.77234268188476 24.252429962158203 50.53484344482421 23.824931335449218 50.10734481811523 23.159933471679686 49.34734725952148 22.96993408203125 49.39484710693359 22.87493438720703 49.39484710693359 22.77993469238281 49.584846496582024 22.019937133789064 49.15734786987304 21.35493927001953 48.919848632812496 20.974940490722656 48.68234939575195 20.594941711425783 48.25485076904297 19.929943847656247 47.494853210449214 19.739944458007812 47.494853210449214 19.6924446105957 47.494853210449214 19.644944763183595 47.68485260009765 18.884947204589842 47.25735397338867 18.219949340820314 47.01985473632812 17.839950561523438 46.782355499267574 17.459951782226565 46.35485687255859 16.794953918457033 45.59485931396484 16.604954528808594 45.45235977172852 16.557454681396486 45.30986022949218 16.557454681396486 45.35736007690429 16.509954833984377 45.35736007690429 16.414955139160156 45.54735946655273 15.654957580566407 45.119860839843746 14.989959716796875 44.83486175537109 14.56246109008789 44.59736251831054 14.182462310791017 44.122364044189446 13.517464447021485 43.3623664855957 13.422464752197268 43.21986694335937 13.374964904785156 43.12486724853515 13.374964904785156 43.12486724853515 13.279965209960938 43.12486724853515 13.137465667724609 43.17236709594726 12.37746810913086 42.697368621826165 11.75997009277344 42.41236953735351 11.427471160888672 42.12737045288086 11.094972229003908 41.604872131347655 10.477474212646484 40.79737472534179 10.429974365234376 40.70237503051758 10.429974365234376 40.607375335693355 10.429974365234376 40.607375335693355 10.334974670410158 40.607375335693355 10.287474822998046 40.607375335693355 9.479977416992188 40.08487701416015 8.957479095458984 39.65737838745117 8.52998046875 39.2773796081543 8.244981384277343 38.65988159179687 7.722483062744141 37.89988403320312 7.76998291015625 37.85238418579102 7.76998291015625 37.804884338378905 7.76998291015625 37.804884338378905 7.674983215332031 37.804884338378905 7.579983520507813 37.662384796142575 6.7724861145019535 37.04488677978515 6.29748764038086 36.61738815307617 5.964988708496094 36.14238967895508 5.679989624023438 35.47739181518555 5.252490997314453 34.76489410400391 5.442490386962891 34.717394256591795 5.347490692138672 34.717394256591795 5.252490997314453 34.47989501953125 4.492493438720704 33.81489715576172 4.112494659423828 33.38739852905273 3.8749954223632814 32.95989990234374 3.6374961853027346 32.2474021911621 3.2574974060058595 31.48740463256836 3.494996643066407 31.297405242919922 3.5424964904785154 31.107405853271487 3.6374961853027346 31.059906005859375 3.494996643066407 31.059906005859375 3.3999969482421877 30.72740707397461 2.6399993896484375 30.01490936279297 2.3550003051757815 29.492411041259764 2.1175010681152346 29.01741256713867 1.9275016784667969 28.257415008544925 1.69000244140625 27.544917297363284 2.070001220703125 27.449917602539063 2.070001220703125 27.402417755126955 2.1175010681152346 27.354917907714842 2.022501373291016 27.307418060302737 1.9275016784667969 26.832419586181643 1.2625038146972658 26.07242202758789 1.1200042724609378 25.597423553466797 1.025004577636719 25.122425079345703 0.9300048828125 24.362427520751954 0.787505340576172 23.697429656982422 1.2150039672851565 23.554930114746092 1.2625038146972658 23.459930419921875 1.3575035095214847 23.364930725097658 1.2150039672851565 23.26993103027344 1.1200042724609378 22.699932861328126 0.5500061035156252 21.892435455322264 0.5500061035156252 21.41743698120117 0.5500061035156252 20.942438507080077 0.5500061035156252 20.13494110107422 0.5500061035156252 19.612442779541016 1.1200042724609378 19.517443084716795 1.167504119873047 19.517443084716795 1.2150039672851565 19.422443389892578 1.1200042724609378 19.37494354248047 1.0725044250488283 18.75744552612305 0.5500061035156252 17.949948120117188 0.6450057983398441 17.474949645996094 0.6925056457519532 16.999951171875 0.7400054931640627 16.239953613281248 0.8350051879882814 15.717455291748047 1.4525032043457031 15.62245559692383 1.5475028991699222 15.527455902099609 1.7375022888183596 15.384956359863283 1.642502593994141 15.242456817626953 1.5475028991699222 14.529959106445313 1.167504119873047 13.817461395263672 1.4050033569335938 13.342462921142578 1.5475028991699222 12.867464447021485 1.69000244140625 12.53496551513672 1.7375022888183596 12.344966125488282 1.9275016784667969 11.964967346191406 1.9275016784667969 11.584968566894533 2.1175010681152346 Z"/>

<path id="Duplicate_Items_Folder_Symbol_1_copy_0_Layer0_0_1_STROKES" stroke="#FFE35B" stroke-width="6" stroke-linejoin="round" stroke-linecap="butt" fill="none" d="
M 13.265265655517577 9.722574615478516
L 68.86928329467773 95.53687057495117"/>

<path id="Duplicate_Items_Folder_Symbol_1_copy_0_Layer0_2_1_STROKES" stroke="#D42100" stroke-width="6" stroke-linejoin="round" stroke-linecap="round" fill="none" d="
M 16.3197265625 8.0462158203125
Q 20.209887695312503 6.9347412109375 24.1427978515625 8.1317138671875 27.904711914062503 9.2859375 27.2207275390625 10.82490234375 26.878735351562504 11.5516357421875 21.321362304687504 13.90283203125 15.550244140624999 16.3395263671875 13.9685302734375 18.7334716796875 12.0020751953125 21.768652343750002 13.5410400390625 23.649609375 14.909008789062499 25.274072265624998 18.457177734375 25.5733154296875 20.7228759765625 25.7443115234375 27.348974609375 24.0343505859375 34.017822265625 22.281640624999998 35.98427734375 22.367138671875 38.93395996093751 22.538134765625 40.601171875 24.0343505859375 42.1828857421875 25.53056640625 41.3279052734375 26.8557861328125 41.11416015625 27.24052734375 33.8040771484375 30.745947265625002 26.921484375 34.037622070312494 26.152001953125 36.6880615234375 25.168774414062504 40.065234375 26.878735351562504 42.71567382812499 28.588696289062504 45.366113281249994 31.9231201171875 45.6653564453125 34.4453125 45.8791015625 40.64392089843751 44.938623046874994 47.355517578124996 43.9553955078125 48.5952392578125 43.9553955078125 50.90368652343751 43.9553955078125 52.4426513671875 45.622607421875 53.7251220703125 47.0333251953125 53.7251220703125 48.44404296875 53.7251220703125 49.1707763671875 49.492968749999996 51.2227294921875 44.448583984375 53.659423828125 42.653124999999996 55.369384765625 40.173681640625 57.763330078124994 40.85766601562501 60.2000244140625 41.541650390625 62.551220703125 44.3203369140625 62.7649658203125 45.98754882812501 62.893212890625 50.989184570312496 61.9099853515625 55.39233398437501 61.0550048828125 56.2900634765625 61.4824951171875 57.3587890625 62.038232421875 57.4870361328125 63.406201171875 57.52978515625001 64.09018554687499 57.3587890625 64.688671875"/>

<path id="Duplicate_Items_Folder_Symbol_1_copy_0_Layer0_3_1_STROKES" stroke="#E92400" stroke-width="3" stroke-linejoin="round" stroke-linecap="round" fill="none" d="
M 17.0197265625 6.6462158203125
Q 20.909887695312502 5.534741210937501 24.842797851562498 6.7317138671875005 28.604711914062502 7.885937500000001 27.9207275390625 9.42490234375 27.578735351562504 10.1516357421875 22.021362304687504 12.50283203125 16.250244140625 14.939526367187499 14.6685302734375 17.3334716796875 12.7020751953125 20.36865234375 14.2410400390625 22.249609375 15.6090087890625 23.874072265624996 19.157177734375 24.1733154296875 21.422875976562498 24.344311523437497 28.048974609374998 22.634350585937497 34.717822265625 20.881640625 36.68427734375 20.967138671875 39.6339599609375 21.138134765624997 41.301171874999994 22.634350585937497 42.8828857421875 24.130566406249997 42.0279052734375 25.4557861328125 41.81416015625 25.840527343749997 34.5040771484375 29.345947265625 27.621484374999998 32.637622070312496 26.852001953125 35.2880615234375 25.868774414062504 38.665234375000004 27.578735351562504 41.31567382812499 29.288696289062504 43.966113281249996 32.6231201171875 44.2653564453125 35.1453125 44.4791015625 41.3439208984375 43.538623046874996 48.05551757812499 42.5553955078125 49.2952392578125 42.5553955078125 51.6036865234375 42.5553955078125 53.1426513671875 44.222607421875004 54.4251220703125 45.6333251953125 54.4251220703125 47.04404296875 54.4251220703125 47.7707763671875 50.19296874999999 49.8227294921875 45.148583984374994 52.259423828125 43.35312499999999 53.969384765625 40.873681640624994 56.363330078124996 41.557666015625 58.8000244140625 42.241650390625 61.151220703125 45.0203369140625 61.3649658203125 46.687548828125 61.493212890625 51.68918457031249 60.5099853515625 56.092333984375 59.6550048828125 56.9900634765625 60.0824951171875 58.0587890625 60.638232421875 58.187036132812494 62.006201171875 58.22978515625 62.69018554687499 58.0587890625 63.288671875"/>
</defs>

<g transform="matrix( 1, 0, 0, 0.999603271484375, 65,60) ">
<g transform="matrix( 1, 0, 0, 1, 0,0) ">
<use xlink:href="#icon_r_box_02_0_Layer3_0_FILL"/>
</g>

<g transform="matrix( 1, 0, 0, 1, -0.05,0.05) ">
<use xlink:href="#icon_r_box_02_0_Layer3_1_FILL"/>
</g>

<g transform="matrix( 1, 0, 0, 1, 0,-2.15) ">
<use xlink:href="#icon_r_box_02_0_Layer3_2_FILL"/>
</g>

<g transform="matrix( 1, 0, 0, 1, 0,0.05) ">
<use xlink:href="#icon_r_box_02_0_Layer3_3_FILL"/>
</g>

<g filter="url(#Filter_1)" transform="matrix( 0.9999847412109375, 0, 0, 1.000396728515625, -65,-60) ">
<g transform="matrix( 0.7499847412109375, 0, 0, 0.7496795654296875, 37.3,4.4) ">
<g transform="matrix( 0.9499969482421875, 0, 0, 0.9499969482421875, 1.8,2.45) ">
<use xlink:href="#Duplicate_Items_Folder_Symbol_1_copy_0_Layer1_0_FILL"/>

<use xlink:href="#Duplicate_Items_Folder_Symbol_1_copy_0_Layer1_0_1_STROKES" transform="matrix( 1.0526275634765625, 0, 0, 1.0526275634765625, -1.85,-2.55) "/>
</g>

<g transform="matrix( 0.9498138427734375, 0.016571044921875, -0.016571044921875, 0.9498138427734375, 2.7,2.65) ">
<use xlink:href="#Duplicate_Items_Folder_Symbol_1_copy_0_Layer0_0_1_STROKES" transform="matrix( 1.0525054931640625, -0.0183563232421875, 0.0183563232421875, 1.0525054931640625, -2.85,-2.7) "/>
</g>

<g transform="matrix( 1, 0, 0, 1, 0,0) ">
<use xlink:href="#Duplicate_Items_Folder_Symbol_1_copy_0_Layer0_1_FILL"/>

<use xlink:href="#Duplicate_Items_Folder_Symbol_1_copy_0_Layer0_1_STROKES_1_FILL"/>
</g>

<g transform="matrix( 0.85498046875, 0, 0, 0.85498046875, 4.35,6.55) ">
<use xlink:href="#Duplicate_Items_Folder_Symbol_1_copy_0_Layer0_2_1_STROKES" transform="matrix( 1.16961669921875, 0, 0, 1.16961669921875, -5.05,-7.65) "/>
</g>

<g transform="matrix( 0.85498046875, 0, 0, 0.85498046875, 5.05,5.15) ">
<use xlink:href="#Duplicate_Items_Folder_Symbol_1_copy_0_Layer0_3_1_STROKES" transform="matrix( 1.16961669921875, 0, 0, 1.16961669921875, -5.9,-6) "/>
</g>

<g transform="matrix( 0.9499969482421875, 0, 0, 0.9499969482421875, 1.85,3.3) ">
<use xlink:href="#Duplicate_Items_Folder_Symbol_1_copy_0_Layer0_4_FILL"/>
</g>
</g>
</g>
</g>
</svg>
