
<svg xmlns="http://www.w3.org/2000/svg" version="1.1" xmlns:xlink="http://www.w3.org/1999/xlink" preserveAspectRatio="none" x="0px" y="0px" width="130px" height="115px" viewBox="0 0 130 115">
<defs>
<g id="icon_r_box_02_80_Layer3_0_FILL">
<path fill="#FFFFFF" fill-opacity="0" stroke="none" d="
M 65 -55
L -65 -55 -65 25 65 25 65 -55 Z"/>
</g>

<g id="icon_r_box_02_80_Layer3_1_FILL">
<path fill="#FFFFFF" fill-opacity="0" stroke="none" d="
M 65.05 49.95
L 65.05 24.95 -64.95 24.95 -64.95 49.95 65.05 49.95 Z"/>
</g>

<g id="icon_r_box_02_80_Layer3_2_FILL">
<path fill="#FFFFFF" fill-opacity="0" stroke="none" d="
M 65 -52.85
L 65 -57.85 -65 -57.85 -65 -52.85 65 -52.85 Z"/>
</g>

<g id="icon_r_box_02_80_Layer3_3_FILL">
<path fill="#FFFFFF" fill-opacity="0" stroke="none" d="
M 65 54.95
L 65 49.95 -65 49.95 -65 54.95 65 54.95 Z"/>
</g>

<g id="icon_r_box_02_80_Layer2_0_MEMBER_0_MEMBER_1_MEMBER_0_FILL">
<path fill="#01A732" stroke="none" d="
M 20.4 30
L 20.4 9.05 16.05 9.05 16.05 30 20.4 30 Z"/>
</g>

<g id="icon_r_box_02_80_Layer2_0_MEMBER_0_MEMBER_2_MEMBER_0_FILL">
<path fill="#01A732" stroke="none" d="
M 7.75 21.7
L 28.7 21.7 28.7 17.35 7.75 17.35 7.75 21.7 Z"/>
</g>

<path id="icon_r_box_02_80_Layer2_0_MEMBER_0_MEMBER_0_1_STROKES" stroke="#01A732" stroke-width="3" stroke-linejoin="round" stroke-linecap="round" fill="none" d="
M 34.95 1.5
L 34.95 24.6
Q 34.95 32.5 26.6 37.7 22.45 40.3 18.25 41.35 14.05 40.3 9.9 37.7 1.5 32.5 1.5 24.6
L 1.5 1.5 34.95 1.5 Z"/>

<path id="icon_r_box_02_80_Layer2_0_MEMBER_0_MEMBER_1_MEMBER_0_1_STROKES" stroke="#01A732" stroke-width="3" stroke-linejoin="round" stroke-linecap="round" fill="none" d="
M 20.4 30
L 16.05 30 16.05 9.05 20.4 9.05 20.4 30 Z"/>

<path id="icon_r_box_02_80_Layer2_0_MEMBER_0_MEMBER_2_MEMBER_0_1_STROKES" stroke="#01A732" stroke-width="3" stroke-linejoin="round" stroke-linecap="round" fill="none" d="
M 7.75 21.7
L 7.75 17.35 28.7 17.35 28.7 21.7 7.75 21.7 Z"/>
</defs>

<g transform="matrix( 1, 0, 0, 0.999603271484375, 65,60) ">
<g transform="matrix( 1, 0, 0, 1, 0,0) ">
<use xlink:href="#icon_r_box_02_80_Layer3_0_FILL"/>
</g>

<g transform="matrix( 1, 0, 0, 1, -0.05,0.05) ">
<use xlink:href="#icon_r_box_02_80_Layer3_1_FILL"/>
</g>

<g transform="matrix( 1, 0, 0, 1, 0,-2.15) ">
<use xlink:href="#icon_r_box_02_80_Layer3_2_FILL"/>
</g>

<g transform="matrix( 1, 0, 0, 1, 0,0.05) ">
<use xlink:href="#icon_r_box_02_80_Layer3_3_FILL"/>
</g>

<g transform="matrix( 1, 0, 0, 1, -18.2,-36.45) ">
<use xlink:href="#icon_r_box_02_80_Layer2_0_MEMBER_0_MEMBER_0_1_STROKES"/>
</g>

<g transform="matrix( 1, 0, 0, 1, -18.2,-36.45) ">
<use xlink:href="#icon_r_box_02_80_Layer2_0_MEMBER_0_MEMBER_1_MEMBER_0_FILL"/>

<use xlink:href="#icon_r_box_02_80_Layer2_0_MEMBER_0_MEMBER_1_MEMBER_0_1_STROKES"/>
</g>

<g transform="matrix( 1, 0, 0, 1, -18.2,-36.45) ">
<use xlink:href="#icon_r_box_02_80_Layer2_0_MEMBER_0_MEMBER_2_MEMBER_0_FILL"/>

<use xlink:href="#icon_r_box_02_80_Layer2_0_MEMBER_0_MEMBER_2_MEMBER_0_1_STROKES"/>
</g>
</g>
</svg>
