
<svg xmlns="http://www.w3.org/2000/svg" version="1.1" xmlns:xlink="http://www.w3.org/1999/xlink" preserveAspectRatio="none" x="0px" y="0px" width="130px" height="115px" viewBox="0 0 130 115">
<defs>
<filter id="Filter_1" x="-23.880189937493242%" y="-23.898019729639312%" width="147.76037987498648%" height="147.79603945927863%" color-interpolation-filters="sRGB">
<feFlood flood-color="#000000" flood-opacity="1" in="SourceGraphic" result="result1"/>

<feGaussianBlur in="SourceGraphic" stdDeviation="1.6666666666666667,1.6666666666666667" result="result2"/>

<feComposite in2="result2" in="result1" operator="in" result="result3"/>

<feComposite in2="result3" in="SourceGraphic" operator="over" result="result4"/>
</filter>

<g id="icon_r_box_02_10_Layer3_0_FILL">
<path fill="#FFFFFF" fill-opacity="0" stroke="none" d="
M 65 -55
L -65 -55 -65 25 65 25 65 -55 Z"/>
</g>

<g id="icon_r_box_02_10_Layer3_1_FILL">
<path fill="#FFFFFF" fill-opacity="0" stroke="none" d="
M 65.05 49.95
L 65.05 24.95 -64.95 24.95 -64.95 49.95 65.05 49.95 Z"/>
</g>

<g id="icon_r_box_02_10_Layer3_2_FILL">
<path fill="#FFFFFF" fill-opacity="0" stroke="none" d="
M 65 -52.85
L 65 -57.85 -65 -57.85 -65 -52.85 65 -52.85 Z"/>
</g>

<g id="icon_r_box_02_10_Layer3_3_FILL">
<path fill="#FFFFFF" fill-opacity="0" stroke="none" d="
M 65 54.95
L 65 49.95 -65 49.95 -65 54.95 65 54.95 Z"/>
</g>

<g id="Duplicate_Items_Folder_shdrnrhd_0_Layer0_0_FILL">
<path fill="#E56510" stroke="none" d="
M 33.35 75.2
Q 34.3306640625 76.32578125 35.4 77.4 43.8857421875 85.847265625 55.05 87.75 52.4880859375 84.689453125 50.4 78.95 47.3234375 70.80078125 46.45 60.25 46.2216796875 57.5921875 46.15 54.8 40.8732421875 56.2703125 37.45 61.2 33.6322265625 66.81484375 33.35 75.2
M 30.6 71.65
Q 31.4998046875 64.557421875 35 59.5 39.2873046875 53.2939453125 46.05 51.7 46.049609375 51.321484375 46.05 50.9 46.0474609375 46.9220703125 46.3 43.2 39.987109375 43.917578125 34.65 45.25 25.2041015625 47.676171875 24.45 50.55 24.45 50.7373046875 24.45 50.9 24.45 62.5431640625 30.6 71.65
M 33.1 26.95
Q 33.409375 26.5830078125 33.7 26.2 33.4072265625 26.56796875 33.1 26.9
L 33.1 26.95
M 46.55 40.15
Q 46.9712890625 36.175390625 47.65 32.5 42.457421875 32.5958984375 38.65 31.05
L 38.7 31.05
Q 35.103515625 29.6076171875 33.05 26.95 26.0634765625 35.23046875 24.75 45.85 27.8802734375 43.9033203125 33.9 42.35 39.6666015625 40.89609375 46.55 40.15
M 50.4 22.75
Q 52.484375 17.09609375 55 14 43.8767578125 15.9732421875 35.4 24.45 35.2873046875 24.5626953125 35.15 24.65 36.7390625 27.0296875 39.8 28.25
L 39.8 28.25
Q 43.3591796875 29.664453125 48.3 29.5 49.194921875 25.9689453125 50.4 22.75
M 68.25 22.65
Q 73.5015625 19.5638671875 75.95 18.65
L 75.95 18.65
Q 77.6662109375 17.98359375 79.3 17.65 71.471875 13.45 61.9 13.45 61.662109375 13.45 61.4 13.45 56.7224609375 14.2673828125 53.2 23.8 52.2396484375 26.4025390625 51.5 29.2 59.0412109375 28.0818359375 68.25 22.65
M 88.25 77.55
Q 85.2216796875 75.5796875 81.1 71.55 72.861328125 63.6373046875 71.8 62.75
L 71.8 62.7
Q 60.551171875 53.032421875 49.1 54.25 49.205859375 57.1998046875 49.45 60 50.2763671875 70.0990234375 53.2 77.9 56.7234375 87.528125 61.4 88.35 61.662109375 88.35 61.9 88.35 77.294140625 88.35 88.25 77.55
M 99.35 50.9
Q 99.35 50.7123046875 99.35 50.5 98.5919921875 47.6333984375 89.1 45.25 83.12578125 43.7328125 75.8 43.05 69.319921875 42.4037109375 61.9 42.4 55.19453125 42.4033203125 49.35 42.9 49.0525390625 46.7544921875 49.05 50.9 49.0501953125 51.0767578125 49.05 51.25 61.518359375 49.93203125 73.75 60.45
L 73.75 60.45
Q 74.8388671875 61.3626953125 83.2 69.4 87.400390625 73.501953125 90.3 75.3 99.35 64.962109375 99.35 50.9
M 89.85 42.35
Q 95.923828125 43.877734375 99.05 45.85 97.5216796875 33.5716796875 88.4 24.45 86.1236328125 22.1736328125 83.65 20.35 80.4693359375 20.1072265625 77.05 21.45
L 77 21.45
Q 74.698046875 22.3361328125 69.75 25.25 59.251953125 31.442578125 50.8 32.35 50.0564453125 35.9306640625 49.6 39.85 55.36953125 39.3966796875 61.9 39.4 69.480078125 39.3962890625 76.1 40.05 83.673828125 40.7669921875 89.85 42.35 Z"/>

<path fill="#000000" stroke="none" d="
M 89.1 78.1
Q 88.6880859375 77.8443359375 88.25 77.55 88.6810546875 77.852734375 89.1 78.1 Z"/>

<path fill="#513624" stroke="none" d="
M 99.05 45.85
Q 95.923828125 43.877734375 89.85 42.35 83.673828125 40.7669921875 76.1 40.05 69.480078125 39.3962890625 61.9 39.4 55.36953125 39.3966796875 49.6 39.85 50.0564453125 35.9306640625 50.8 32.35 59.251953125 31.442578125 69.75 25.25 74.698046875 22.3361328125 77 21.45
L 77.05 21.45
Q 80.4693359375 20.1072265625 83.65 20.35 81.558984375 18.8400390625 79.3 17.65 77.6662109375 17.98359375 75.95 18.65
L 75.95 18.65
Q 73.5015625 19.5638671875 68.25 22.65 59.0412109375 28.0818359375 51.5 29.2 52.2396484375 26.4025390625 53.2 23.8 56.7224609375 14.2673828125 61.4 13.45 58.1224609375 13.4884765625 55 14 52.484375 17.09609375 50.4 22.75 49.194921875 25.9689453125 48.3 29.5 43.3591796875 29.664453125 39.8 28.25
L 39.8 28.25
Q 36.7390625 27.0296875 35.15 24.65 34.998046875 24.8615234375 34.8 25.05
L 33.7 26.2
Q 33.409375 26.5830078125 33.1 26.95
L 33.1 26.9 32.9 26.75 33.05 26.95
Q 35.103515625 29.6076171875 38.7 31.05
L 38.65 31.05
Q 42.457421875 32.5958984375 47.65 32.5 46.9712890625 36.175390625 46.55 40.15 39.6666015625 40.89609375 33.9 42.35 27.8802734375 43.9033203125 24.75 45.85 24.4689453125 48.1703125 24.45 50.55 25.2041015625 47.676171875 34.65 45.25 39.987109375 43.917578125 46.3 43.2 46.0474609375 46.9220703125 46.05 50.9 46.049609375 51.321484375 46.05 51.7 39.2873046875 53.2939453125 35 59.5 31.4998046875 64.557421875 30.6 71.65 30.78125 71.8794921875 30.95 72.1 31.3677734375 72.6990234375 31.8 73.25 32.5587890625 74.256640625 33.35 75.2 33.6322265625 66.81484375 37.45 61.2 40.8732421875 56.2703125 46.15 54.8 46.2216796875 57.5921875 46.45 60.25 47.3234375 70.80078125 50.4 78.95 52.4880859375 84.689453125 55.05 87.75 58.13515625 88.311328125 61.4 88.35 56.7234375 87.528125 53.2 77.9 50.2763671875 70.0990234375 49.45 60 49.205859375 57.1998046875 49.1 54.25 60.551171875 53.032421875 71.8 62.7
L 71.8 62.75
Q 72.861328125 63.6373046875 81.1 71.55 85.2216796875 75.5796875 88.25 77.55 88.3248046875 77.4748046875 88.4 77.4 88.4939453125 77.3056640625 88.55 77.2
L 89 76.7
Q 89.7158203125 76.0412109375 90.35 75.3
L 90.3 75.3
Q 87.400390625 73.501953125 83.2 69.4 74.8388671875 61.3626953125 73.75 60.45
L 73.75 60.45
Q 61.518359375 49.93203125 49.05 51.25 49.0501953125 51.0767578125 49.05 50.9 49.0525390625 46.7544921875 49.35 42.9 55.19453125 42.4033203125 61.9 42.4 69.319921875 42.4037109375 75.8 43.05 83.12578125 43.7328125 89.1 45.25 98.5919921875 47.6333984375 99.35 50.5 99.3283203125 48.1333984375 99.05 45.85 Z"/>
</g>

<g id="Duplicate_Items_Folder_shdrnrhd_0_Layer0_1_FILL">
<path fill="#FFFFFF" fill-opacity="0.14901960784313725" stroke="none" d="
M 173.1 64.85
Q 178.25 59.75 178.25 52.5 178.25 45.25 173.1 40.1 168 35 160.75 35 153.5 35 148.35 40.1 143.25 45.25 143.25 52.5 143.25 59.75 148.35 64.85 153.5 70 160.75 70 168 70 173.1 64.85 Z"/>
</g>

<g id="Duplicate_Items_Folder_shdrnrhd_0_Layer0_2_FILL">
<path fill="#6A0000" fill-opacity="0.14901960784313725" stroke="none" d="
M 95.55 42.95
Q 94.8 40.7 93.75 38.6 91.5701171875 33.973046875 88.35 30.25 88.554296875 30.684375 88.75 31.1 89.8 33.2 90.55 35.45 90.6 35.6 90.65 35.8 95.05 49.15 89.7 61.8
L 89.7 61.85
Q 89.3 62.7 88.9 63.55
L 88.6 64.15
Q 88.6 64.25 88.5 64.4 88.45 64.5 88.4 64.55 81.4 78.25 66.75 83.1 66.5 83.15 66.35 83.2 63.15 84.2 60.05 84.65 48.85 86.3 38.15 80.95 36.85 80.3 35.55 79.45 34.45 78.85 33.5 78.15 32.85 77.7 32.25 77.3 32.05 77.15 31.8 76.95 29.03515625 74.792578125 26.75 72.2 30.43828125 79.4857421875 36.8 84.45 37.05 84.65 37.25 84.8 37.85 85.2 38.5 85.65 39.45 86.35 40.55 86.95 41.85 87.8 43.15 88.45 53.85 93.8 65.05 92.15 68.15 91.7 71.35 90.7 71.5 90.65 71.75 90.6 86.4 85.75 93.4 72.05 93.45 72 93.5 71.9 93.6 71.75 93.6 71.65
L 93.9 71.05
Q 94.3 70.2 94.7 69.35
L 94.7 69.3
Q 100.05 56.65 95.65 43.3 95.6 43.1 95.55 42.95 Z"/>
</g>

<path id="Duplicate_Items_Folder_shdrnrhd_0_Layer1_0_1_STROKES" stroke="#FFFFFF" stroke-width="8" stroke-linejoin="round" stroke-linecap="round" fill="none" d="
M 75.05429687500002 37.54993286132813
Q 75.05429687500002 53.116851806640625 64.06278991699217 64.10835876464844 53.07128295898438 75.09986572265626 37.50436401367186 75.09986572265626 21.937445068359366 75.09986572265626 10.945938110351548 64.10835876464844 -0.045568847656241473 53.116851806640625 -0.045568847656241473 37.54993286132813 -0.045568847656241473 21.983013916015622 10.945938110351548 10.991506958007811 21.937445068359366 0 37.50436401367186 0 53.07128295898438 0 64.06278991699217 10.991506958007811 75.05429687500002 21.983013916015622 75.05429687500002 37.54993286132813 Z"/>
</defs>

<g transform="matrix( 1, 0, 0, 0.999603271484375, 65,60) ">
<g transform="matrix( 1, 0, 0, 1, 0,0) ">
<use xlink:href="#icon_r_box_02_10_Layer3_0_FILL"/>
</g>

<g transform="matrix( 1, 0, 0, 1, -0.05,0.05) ">
<use xlink:href="#icon_r_box_02_10_Layer3_1_FILL"/>
</g>

<g transform="matrix( 1, 0, 0, 1, 0,-2.15) ">
<use xlink:href="#icon_r_box_02_10_Layer3_2_FILL"/>
</g>

<g transform="matrix( 1, 0, 0, 1, 0,0.05) ">
<use xlink:href="#icon_r_box_02_10_Layer3_3_FILL"/>
</g>

<g filter="url(#Filter_1)" transform="matrix( 0.9999847412109375, 0, 0, 1.000396728515625, -65,-60) ">
<g transform="matrix( 0.75, 0, 0, 0.74969482421875, 35.85,12.85) ">
<g transform="matrix( 1.05181884765625, 0, 0, 1.05181884765625, -106.7,0) ">
<use xlink:href="#Duplicate_Items_Folder_shdrnrhd_0_Layer1_0_1_STROKES" transform="matrix( 0.9507293701171875, 0, 0, 0.9507293701171875, 101.4,0) "/>
</g>

<g transform="matrix( 0.95001220703125, -0.312164306640625, 0.312164306640625, 0.95001220703125, -37.15,8.5) ">
<use xlink:href="#Duplicate_Items_Folder_shdrnrhd_0_Layer0_0_FILL"/>
</g>

<g transform="matrix( 0.4525146484375, -0.4525146484375, 0.30511474609375, 0.30511474609375, -71.5,76.9) ">
<use xlink:href="#Duplicate_Items_Folder_shdrnrhd_0_Layer0_1_FILL"/>
</g>

<g transform="matrix( 1, 0, 0, 1, -22.5,-17.45) ">
<use xlink:href="#Duplicate_Items_Folder_shdrnrhd_0_Layer0_2_FILL"/>
</g>
</g>
</g>
</g>
</svg>
