
<svg xmlns="http://www.w3.org/2000/svg" version="1.1" xmlns:xlink="http://www.w3.org/1999/xlink" preserveAspectRatio="none" x="0px" y="0px" width="130px" height="115px" viewBox="0 0 130 115">
<defs>
<g id="icon_r_box_02_28_Layer3_0_FILL">
<path fill="#FFFFFF" fill-opacity="0" stroke="none" d="
M 65 -55
L -65 -55 -65 25 65 25 65 -55 Z"/>
</g>

<g id="icon_r_box_02_28_Layer3_1_FILL">
<path fill="#FFFFFF" fill-opacity="0" stroke="none" d="
M 65.05 49.95
L 65.05 24.95 -64.95 24.95 -64.95 49.95 65.05 49.95 Z"/>
</g>

<g id="icon_r_box_02_28_Layer3_2_FILL">
<path fill="#FFFFFF" fill-opacity="0" stroke="none" d="
M 65 -52.85
L 65 -57.85 -65 -57.85 -65 -52.85 65 -52.85 Z"/>
</g>

<g id="icon_r_box_02_28_Layer3_3_FILL">
<path fill="#FFFFFF" fill-opacity="0" stroke="none" d="
M 65 54.95
L 65 49.95 -65 49.95 -65 54.95 65 54.95 Z"/>
</g>

<g id="icon_r_box_02_28_Layer2_0_MEMBER_0_MEMBER_0_FILL">
<path fill="#FFFFFF" stroke="none" d="
M 38.4 20.65
Q 38.4 19.5 37.6 18.65 36.75 17.85 35.6 17.85
L 19.25 17.85
Q 18.1 17.85 17.25 18.65 16.45 19.5 16.45 20.65
L 16.45 34.5 38.4 34.5 38.4 20.65 Z"/>
</g>

<g id="icon_r_box_02_28_Layer2_0_MEMBER_0_MEMBER_1_MEMBER_0_FILL">
<path fill="#FFFFFF" stroke="none" d="
M 10.9 31.45
Q 10.9 40.1 14.05 46 15.1 45.15 15.65 43.85 16.25 45.35 17.6 46.3 19 47.25 20.7 47.25 22.35 47.25 23.75 46.3 25.1 45.35 25.7 43.85 26.35 45.35 27.7 46.3 29.1 47.25 30.75 47.25 32.45 47.25 33.85 46.3 35.2 45.35 35.8 43.85 36.35 45.2 37.5 46.1 38.65 47 40.1 47.2 44.05 41.15 44.05 31.45
L 27.45 27.15 10.9 31.45 Z"/>
</g>

<g id="icon_r_box_02_28_Layer2_0_MEMBER_0_MEMBER_3_FILL">
<path fill="#AEE1DF" stroke="none" d="
M 27.45 27.15
L 27.45 46.1
Q 28.9 47.25 30.75 47.25 32.45 47.25 33.85 46.3 35.2 45.35 35.8 43.85 36.35 45.2 37.5 46.1 38.65 47 40.1 47.2 44.05 41.15 44.05 31.45
L 27.45 27.15 Z"/>
</g>

<g id="icon_r_box_02_28_Layer2_0_MEMBER_0_MEMBER_4_MEMBER_0_MEMBER_1_FILL">
<path fill="#4B6363" stroke="none" d="
M 22.6 34.6
Q 22.6 34.05 22.25 33.7 21.9 33.35 21.4 33.35 20.9 33.35 20.55 33.7 20.2 34.1 20.2 34.6 20.2 35.1 20.55 35.45 20.9 35.8 21.4 35.8 21.9 35.8 22.25 35.45 22.6 35.1 22.6 34.6 Z"/>
</g>

<g id="icon_r_box_02_28_Layer2_0_MEMBER_0_MEMBER_4_MEMBER_1_MEMBER_1_FILL">
<path fill="#4B6363" stroke="none" d="
M 34.75 34.6
Q 34.75 34.1 34.4 33.7 34.05 33.35 33.5 33.35 33 33.35 32.65 33.7 32.3 34.1 32.3 34.6 32.3 35.1 32.65 35.45 33 35.8 33.5 35.8 34 35.8 34.4 35.45 34.75 35.1 34.75 34.6 Z"/>
</g>

<g id="icon_r_box_02_28_Layer2_0_MEMBER_0_MEMBER_5_FILL">
<path fill="#659BFF" stroke="none" d="
M 38.4 20.65
Q 38.4 19.5 37.6 18.65 36.75 17.85 35.6 17.85
L 19.25 17.85
Q 18.1 17.85 17.25 18.65 16.45 19.5 16.45 20.65
L 16.45 20.95 38.4 20.95 38.4 20.65 Z"/>
</g>

<g id="icon_r_box_02_28_Layer2_0_MEMBER_0_MEMBER_6_MEMBER_0_FILL">
<path fill="#6399CD" stroke="none" d="
M 21.55 24.05
Q 21.55 23.55 21.2 23.15 20.85 22.8 20.3 22.8 19.75 22.8 19.4 23.15 19 23.55 19 24.05 19 24.55 19.4 24.95 19.75 25.3 20.3 25.3 20.85 25.3 21.2 24.95 21.55 24.6 21.55 24.05 Z"/>
</g>

<g id="icon_r_box_02_28_Layer2_0_MEMBER_0_MEMBER_6_MEMBER_1_FILL">
<path fill="#6399CD" stroke="none" d="
M 26.35 24.05
Q 26.35 23.55 25.95 23.15 25.6 22.8 25.05 22.8 24.55 22.8 24.2 23.15 23.8 23.55 23.8 24.05 23.8 24.55 24.2 24.95 24.55 25.3 25.05 25.3 25.6 25.3 25.95 24.95 26.35 24.55 26.35 24.05 Z"/>
</g>

<g id="icon_r_box_02_28_Layer2_0_MEMBER_0_MEMBER_6_MEMBER_2_FILL">
<path fill="#6399CD" stroke="none" d="
M 31.1 24.05
Q 31.1 23.55 30.75 23.15 30.4 22.8 29.85 22.8 29.35 22.8 28.95 23.15 28.6 23.55 28.6 24.05 28.6 24.6 28.95 24.95 29.35 25.3 29.85 25.3 30.4 25.3 30.75 24.95 31.1 24.6 31.1 24.05 Z"/>
</g>

<g id="icon_r_box_02_28_Layer2_0_MEMBER_0_MEMBER_6_MEMBER_3_FILL">
<path fill="#6399CD" stroke="none" d="
M 35.9 24.05
Q 35.9 23.55 35.55 23.15 35.2 22.8 34.65 22.8 34.15 22.8 33.75 23.15 33.4 23.55 33.4 24.05 33.4 24.6 33.75 24.95 34.15 25.3 34.65 25.3 35.2 25.3 35.55 24.95 35.9 24.6 35.9 24.05 Z"/>
</g>

<g id="icon_r_box_02_28_Layer2_0_MEMBER_0_MEMBER_7_MEMBER_0_FILL">
<path fill="#FFFFFF" stroke="none" d="
M 34.2 17.85
L 34.2 11.1 30.3 11.1 30.3 17.85 34.2 17.85 Z"/>
</g>

<g id="icon_r_box_02_28_Layer2_0_MEMBER_0_MEMBER_7_MEMBER_1_FILL">
<path fill="#FF3D30" stroke="none" d="
M 34.2 14.05
L 34.2 12.65 30.3 12.65 30.3 14.05 34.2 14.05 Z"/>
</g>

<g id="icon_r_box_02_28_Layer2_0_MEMBER_1_FILL">
<path fill="#FFFFFF" stroke="none" d="
M 38.1 6.95
Q 38.1 6.25 37.6 5.75 37.1 5.25 36.4 5.25 35.7 5.25 35.15 5.75 34.65 6.25 34.65 6.95 34.65 7.7 35.15 8.2 35.7 8.7 36.4 8.7 37.1 8.7 37.6 8.2 38.1 7.7 38.1 6.95 Z"/>
</g>

<g id="icon_r_box_02_28_Layer2_0_MEMBER_2_FILL">
<path fill="#FFFFFF" stroke="none" d="
M 45.15 3.4
Q 45.15 2.2 44.35 1.35 43.5 0.5 42.3 0.5 41.1 0.5 40.25 1.35 39.4 2.2 39.4 3.4 39.4 4.55 40.25 5.4 41.1 6.25 42.3 6.25 43.5 6.25 44.35 5.4 45.15 4.55 45.15 3.4 Z"/>
</g>

<path id="icon_r_box_02_28_Layer2_0_MEMBER_0_MEMBER_0_1_STROKES" stroke="#000000" stroke-width="1" stroke-linejoin="round" stroke-linecap="round" fill="none" d="
M 15.460742187500003 -16.834587860107423
L 15.460742187500003 -0.02316131591796733 -11.182637786865232 -0.02316131591796733 -11.182637786865232 -16.834587860107423
Q -11.182637786865232 -18.230482482910155 -10.211580657958983 -19.262230682373048 -9.17983245849609 -20.233287811279293 -7.783937835693358 -20.233287811279293
L 12.062042236328125 -20.233287811279293
Q 13.45793685913086 -20.233287811279293 14.48968505859375 -19.262230682373048 15.460742187500003 -18.230482482910155 15.460742187500003 -16.834587860107423 Z"/>

<path id="icon_r_box_02_28_Layer2_0_MEMBER_0_MEMBER_1_MEMBER_0_1_STROKES" stroke="#000000" stroke-width="1" stroke-linejoin="round" stroke-linecap="round" fill="none" d="
M 22.312783813476564 -3.729635620117186
Q 22.312783813476564 8.043099975585939 17.518731689453126 15.385888671875001 15.758889770507814 15.143151855468751 14.363153076171876 14.050836181640626 12.967416381835939 12.958520507812501 12.299890136718751 11.320046997070314 11.571679687500001 13.140573120117189 9.933206176757814 14.293572998046876 8.234048461914064 15.446572875976564 6.170785522460939 15.446572875976564 4.168206787109376 15.446572875976564 2.4690490722656264 14.293572998046876 0.8305755615234389 13.140573120117189 0.04168090820312642 11.320046997070314 -0.6865295410156236 13.140573120117189 -2.325003051757811 14.293572998046876 -4.024160766601561 15.446572875976564 -6.026739501953124 15.446572875976564 -8.090002441406249 15.446572875976564 -9.789160156249999 14.293572998046876 -11.427633666992186 13.140573120117189 -12.155844116210936 11.320046997070314 -12.823370361328124 12.897836303710939 -14.097738647460936 13.929467773437501 -17.920843505859374 6.768731689453126 -17.920843505859374 -3.729635620117186
L 2.165628051757814 -8.948477172851561 22.312783813476564 -3.729635620117186 Z"/>

<path id="icon_r_box_02_28_Layer2_0_MEMBER_0_MEMBER_2_1_STROKES" stroke="#000000" stroke-width="1" stroke-linejoin="round" stroke-linecap="round" fill="none" d="
M 30.694200897216803 15.453061676025392
Q 28.691395568847653 15.453061676025392 26.99204559326172 14.299931335449216 25.292695617675783 13.146800994873047 24.564402770996097 11.326068878173828 23.836109924316403 13.146800994873047 22.197451019287115 14.299931335449216 20.49810104370117 15.453061676025392 18.43460464477539 15.453061676025392 16.431799316406256 15.453061676025392 14.73244934082031 14.299931335449216 13.093790435791021 13.146800994873047 12.304806518554685 11.326068878173828 11.576513671875006 13.146800994873047 9.937854766845703 14.299931335449216 8.238504791259771 15.453061676025392 6.175008392333986 15.453061676025392 4.172203063964844 15.453061676025392 2.472853088378905 14.299931335449216 0.8341941833496129 13.146800994873047 0.1059013366699233 11.326068878173828 -0.6830825805664027 13.146800994873047 -2.3217414855957017 14.299931335449216 -4.021091461181637 15.453061676025392 -6.023896789550779 15.453061676025392 -8.087393188476561 15.453061676025392 -9.786743164062496 14.299931335449216 -11.425402069091795 13.146800994873047 -12.153694915771482 11.326068878173828 -12.942678833007811 13.146800994873047 -14.581337738037107 14.299931335449216 -16.280687713623045 15.453061676025392 -18.283493041992188 15.453061676025392 -20.346989440917966 15.453061676025392 -22.046339416503905 14.299931335449216 -23.6849983215332 13.146800994873047 -24.41329116821289 11.326068878173828 -25.202275085449216 13.146800994873047 -26.840933990478515 14.299931335449216 -28.54028396606445 15.453061676025392 -30.543089294433592 15.453061676025392"/>

<path id="icon_r_box_02_28_Layer2_0_MEMBER_0_MEMBER_3_1_STROKES" stroke="#000000" stroke-width="1" stroke-linejoin="round" stroke-linecap="round" fill="none" d="
M 2.1693977355957017 14.057167053222656
Q 3.929438781738284 15.453061676025392 6.175008392333986 15.453061676025392 8.238504791259771 15.453061676025392 9.937854766845703 14.299931335449216 11.576513671875006 13.146800994873047 12.304806518554685 11.326068878173828 12.972408294677734 12.96472778320313 14.36830291748047 14.057167053222656 15.764197540283206 15.149606323242189 17.52423858642578 15.392370605468756 22.318833160400388 8.048751068115237 22.318833160400388 -3.7253166198730483
L 2.1693977355957017 -8.944748687744138 2.1693977355957017 14.057167053222656 Z"/>

<path id="icon_r_box_02_28_Layer2_0_MEMBER_0_MEMBER_4_MEMBER_0_MEMBER_0_MEMBER_0_1_STROKES" stroke="#000000" stroke-width="1" stroke-linejoin="round" stroke-linecap="round" fill="none" d="
M -5.1833648681640625 -2.4646896362304673
L -5.1833648681640625 3.905629730224611"/>

<path id="icon_r_box_02_28_Layer2_0_MEMBER_0_MEMBER_4_MEMBER_0_MEMBER_1_1_STROKES" stroke="#000000" stroke-width="1" stroke-linejoin="round" stroke-linecap="round" fill="none" d="
M -3.724533081054684 0.0876617431640625
Q -3.724533081054684 0.6944198608398438 -4.149263763427733 1.1191505432128963 -4.573994445800782 1.5438812255859347 -5.180752563476563 1.5438812255859347 -5.7875106811523445 1.5438812255859347 -6.21224136352539 1.1191505432128963 -6.636972045898435 0.6944198608398438 -6.636972045898435 0.0876617431640625 -6.636972045898435 -0.5190963745117188 -6.21224136352539 -1.004502868652338 -5.7875106811523445 -1.4292335510253906 -5.180752563476563 -1.4292335510253906 -4.573994445800782 -1.4292335510253906 -4.149263763427733 -1.004502868652338 -3.724533081054684 -0.5797721862792997 -3.724533081054684 0.0876617431640625 Z"/>

<path id="icon_r_box_02_28_Layer2_0_MEMBER_0_MEMBER_4_MEMBER_1_MEMBER_0_MEMBER_0_1_STROKES" stroke="#000000" stroke-width="1" stroke-linejoin="round" stroke-linecap="round" fill="none" d="
M 9.498704528808595 -2.4646896362304673
L 9.498704528808595 3.905629730224611"/>

<path id="icon_r_box_02_28_Layer2_0_MEMBER_0_MEMBER_4_MEMBER_1_MEMBER_1_1_STROKES" stroke="#000000" stroke-width="1" stroke-linejoin="round" stroke-linecap="round" fill="none" d="
M 11.019689178466798 0.0876617431640625
Q 11.019689178466798 0.6944198608398438 10.594958496093753 1.1191505432128963 10.109552001953126 1.5438812255859347 9.502793884277345 1.5438812255859347 8.896035766601564 1.5438812255859347 8.471305084228518 1.1191505432128963 8.046574401855466 0.6944198608398438 8.046574401855466 0.0876617431640625 8.046574401855466 -0.5190963745117188 8.471305084228518 -1.004502868652338 8.896035766601564 -1.4292335510253906 9.502793884277345 -1.4292335510253906 10.1702278137207 -1.4292335510253906 10.594958496093753 -1.004502868652338 11.019689178466798 -0.5190963745117188 11.019689178466798 0.0876617431640625 Z"/>

<path id="icon_r_box_02_28_Layer2_0_MEMBER_0_MEMBER_5_1_STROKES" stroke="#000000" stroke-width="1" stroke-linejoin="round" stroke-linecap="round" fill="none" d="
M 15.460742187500003 -16.834587860107423
L 15.460742187500003 -16.470441436767576 -11.182637786865232 -16.470441436767576 -11.182637786865232 -16.834587860107423
Q -11.182637786865232 -18.230482482910155 -10.211580657958983 -19.262230682373048 -9.17983245849609 -20.233287811279293 -7.783937835693358 -20.233287811279293
L 12.062042236328125 -20.233287811279293
Q 13.45793685913086 -20.233287811279293 14.48968505859375 -19.262230682373048 15.460742187500003 -18.230482482910155 15.460742187500003 -16.834587860107423 Z"/>

<path id="icon_r_box_02_28_Layer2_0_MEMBER_0_MEMBER_6_MEMBER_0_1_STROKES" stroke="#000000" stroke-width="1" stroke-linejoin="round" stroke-linecap="round" fill="none" d="
M -4.995108032226561 -12.710897827148436
Q -4.995108032226561 -12.043371582031249 -5.419897460937499 -11.618582153320311 -5.844686889648436 -11.193792724609374 -6.512213134765624 -11.193792724609374 -7.179739379882811 -11.193792724609374 -7.604528808593749 -11.618582153320311 -8.090002441406249 -12.104055786132811 -8.090002441406249 -12.710897827148436 -8.090002441406249 -13.317739868164061 -7.604528808593749 -13.803213500976561 -7.179739379882811 -14.228002929687499 -6.512213134765624 -14.228002929687499 -5.844686889648436 -14.228002929687499 -5.419897460937499 -13.803213500976561 -4.995108032226561 -13.317739868164061 -4.995108032226561 -12.710897827148436 Z"/>

<path id="icon_r_box_02_28_Layer2_0_MEMBER_0_MEMBER_6_MEMBER_1_1_STROKES" stroke="#000000" stroke-width="1" stroke-linejoin="round" stroke-linecap="round" fill="none" d="
M 0.8305755615234389 -12.710897827148436
Q 0.8305755615234389 -12.104055786132811 0.3451019287109389 -11.618582153320311 -0.07968749999999858 -11.193792724609374 -0.7472137451171861 -11.193792724609374 -1.354055786132811 -11.193792724609374 -1.7788452148437486 -11.618582153320311 -2.2643188476562486 -12.104055786132811 -2.2643188476562486 -12.710897827148436 -2.2643188476562486 -13.317739868164061 -1.7788452148437486 -13.803213500976561 -1.354055786132811 -14.228002929687499 -0.7472137451171861 -14.228002929687499 -0.07968749999999858 -14.228002929687499 0.3451019287109389 -13.803213500976561 0.8305755615234389 -13.317739868164061 0.8305755615234389 -12.710897827148436 Z"/>

<path id="icon_r_box_02_28_Layer2_0_MEMBER_0_MEMBER_6_MEMBER_2_1_STROKES" stroke="#000000" stroke-width="1" stroke-linejoin="round" stroke-linecap="round" fill="none" d="
M 6.595574951171876 -12.710897827148436
Q 6.595574951171876 -12.043371582031249 6.170785522460939 -11.618582153320311 5.745996093750001 -11.193792724609374 5.078469848632814 -11.193792724609374 4.471627807617189 -11.193792724609374 3.986154174804689 -11.618582153320311 3.5613647460937514 -12.043371582031249 3.5613647460937514 -12.710897827148436 3.5613647460937514 -13.317739868164061 3.986154174804689 -13.803213500976561 4.471627807617189 -14.228002929687499 5.078469848632814 -14.228002929687499 5.745996093750001 -14.228002929687499 6.170785522460939 -13.803213500976561 6.595574951171876 -13.317739868164061 6.595574951171876 -12.710897827148436 Z"/>

<path id="icon_r_box_02_28_Layer2_0_MEMBER_0_MEMBER_6_MEMBER_3_1_STROKES" stroke="#000000" stroke-width="1" stroke-linejoin="round" stroke-linecap="round" fill="none" d="
M 12.421258544921876 -12.710897827148436
Q 12.421258544921876 -12.043371582031249 11.996469116210939 -11.618582153320311 11.571679687500001 -11.193792724609374 10.904153442382814 -11.193792724609374 10.297311401367189 -11.193792724609374 9.811837768554689 -11.618582153320311 9.387048339843751 -12.043371582031249 9.387048339843751 -12.710897827148436 9.387048339843751 -13.317739868164061 9.811837768554689 -13.803213500976561 10.297311401367189 -14.228002929687499 10.904153442382814 -14.228002929687499 11.571679687500001 -14.228002929687499 11.996469116210939 -13.803213500976561 12.421258544921876 -13.317739868164061 12.421258544921876 -12.710897827148436 Z"/>

<path id="icon_r_box_02_28_Layer2_0_MEMBER_0_MEMBER_7_MEMBER_2_1_STROKES" stroke="#000000" stroke-width="1" stroke-linejoin="round" stroke-linecap="round" fill="none" d="
M 10.357995605468751 -20.235739135742186
L 5.624627685546876 -20.235739135742186 5.624627685546876 -28.428106689453124 10.357995605468751 -28.428106689453124 10.357995605468751 -20.235739135742186 Z"/>

<path id="icon_r_box_02_28_Layer2_0_MEMBER_1_1_STROKES" stroke="#000000" stroke-width="1" stroke-linejoin="round" stroke-linecap="round" fill="none" d="
M 15.101828002929693 -33.46298675537109
Q 15.101828002929693 -32.55251770019531 14.494848632812506 -31.945538330078122 13.887869262695318 -31.338558959960935 13.038098144531247 -31.338558959960935 12.18832702636719 -31.338558959960935 11.520649719238278 -31.945538330078122 10.913670349121091 -32.55251770019531 10.913670349121091 -33.46298675537109 10.913670349121091 -34.312757873535155 11.520649719238278 -34.91973724365234 12.18832702636719 -35.52671661376953 13.038098144531247 -35.52671661376953 13.887869262695318 -35.52671661376953 14.494848632812506 -34.91973724365234 15.101828002929693 -34.312757873535155 15.101828002929693 -33.46298675537109 Z"/>

<path id="icon_r_box_02_28_Layer2_0_MEMBER_2_1_STROKES" stroke="#000000" stroke-width="1" stroke-linejoin="round" stroke-linecap="round" fill="none" d="
M 23.66023712158203 -37.77254028320312
Q 23.66023712158203 -36.376487731933594 22.689070129394537 -35.34462280273437 21.657205200195314 -34.312757873535155 20.200454711914062 -34.312757873535155 18.743704223632818 -34.312757873535155 17.711839294433595 -35.34462280273437 16.679974365234372 -36.376487731933594 16.679974365234372 -37.77254028320312 16.679974365234372 -39.22929077148437 17.711839294433595 -40.261155700683595 18.743704223632818 -41.29302062988281 20.200454711914062 -41.29302062988281 21.657205200195314 -41.29302062988281 22.689070129394537 -40.261155700683595 23.66023712158203 -39.22929077148437 23.66023712158203 -37.77254028320312 Z"/>
</defs>

<g transform="matrix( 1, 0, 0, 0.999603271484375, 65,60) ">
<g transform="matrix( 1, 0, 0, 1, 0,0) ">
<use xlink:href="#icon_r_box_02_28_Layer3_0_FILL"/>
</g>

<g transform="matrix( 1, 0, 0, 1, -0.05,0.05) ">
<use xlink:href="#icon_r_box_02_28_Layer3_1_FILL"/>
</g>

<g transform="matrix( 1, 0, 0, 1, 0,-2.15) ">
<use xlink:href="#icon_r_box_02_28_Layer3_2_FILL"/>
</g>

<g transform="matrix( 1, 0, 0, 1, 0,0.05) ">
<use xlink:href="#icon_r_box_02_28_Layer3_3_FILL"/>
</g>

<g transform="matrix( 1.2138214111328125, 0, 0, 1.2138214111328125, -31.15,-41.9) ">
<use xlink:href="#icon_r_box_02_28_Layer2_0_MEMBER_0_MEMBER_0_FILL"/>

<use xlink:href="#icon_r_box_02_28_Layer2_0_MEMBER_0_MEMBER_0_1_STROKES" transform="matrix( 0.8238372802734375, 0, 0, 0.8238372802734375, 25.65,34.5) "/>
</g>

<g transform="matrix( 1.21368408203125, 0, 0, 1.21368408203125, -31.15,-41.9) ">
<use xlink:href="#icon_r_box_02_28_Layer2_0_MEMBER_0_MEMBER_1_MEMBER_0_FILL"/>

<use xlink:href="#icon_r_box_02_28_Layer2_0_MEMBER_0_MEMBER_1_MEMBER_0_1_STROKES" transform="matrix( 0.8239288330078125, 0, 0, 0.8239288330078125, 25.65,34.5) "/>
</g>

<g transform="matrix( 1.2138214111328125, 0, 0, 1.2138214111328125, -31.15,-41.9) ">
<use xlink:href="#icon_r_box_02_28_Layer2_0_MEMBER_0_MEMBER_2_1_STROKES" transform="matrix( 0.8238372802734375, 0, 0, 0.8238372802734375, 25.65,34.5) "/>
</g>

<g transform="matrix( 1.2138214111328125, 0, 0, 1.2138214111328125, -31.15,-41.9) ">
<use xlink:href="#icon_r_box_02_28_Layer2_0_MEMBER_0_MEMBER_3_FILL"/>

<use xlink:href="#icon_r_box_02_28_Layer2_0_MEMBER_0_MEMBER_3_1_STROKES" transform="matrix( 0.8238372802734375, 0, 0, 0.8238372802734375, 25.65,34.5) "/>
</g>

<g transform="matrix( 1.2133941650390625, 0, 0, 1.2133941650390625, -31.15,-41.9) ">
<use xlink:href="#icon_r_box_02_28_Layer2_0_MEMBER_0_MEMBER_4_MEMBER_0_MEMBER_0_MEMBER_0_1_STROKES" transform="matrix( 0.824127197265625, 0, 0, 0.824127197265625, 25.65,34.5) "/>
</g>

<g transform="matrix( 1.2135162353515625, 0, 0, 1.2135162353515625, -31.15,-41.9) ">
<use xlink:href="#icon_r_box_02_28_Layer2_0_MEMBER_0_MEMBER_4_MEMBER_0_MEMBER_1_FILL"/>

<use xlink:href="#icon_r_box_02_28_Layer2_0_MEMBER_0_MEMBER_4_MEMBER_0_MEMBER_1_1_STROKES" transform="matrix( 0.8240509033203125, 0, 0, 0.8240509033203125, 25.65,34.5) "/>
</g>

<g transform="matrix( 1.2133941650390625, 0, 0, 1.2133941650390625, -31.15,-41.9) ">
<use xlink:href="#icon_r_box_02_28_Layer2_0_MEMBER_0_MEMBER_4_MEMBER_1_MEMBER_0_MEMBER_0_1_STROKES" transform="matrix( 0.824127197265625, 0, 0, 0.824127197265625, 25.65,34.5) "/>
</g>

<g transform="matrix( 1.2135162353515625, 0, 0, 1.2135162353515625, -31.15,-41.9) ">
<use xlink:href="#icon_r_box_02_28_Layer2_0_MEMBER_0_MEMBER_4_MEMBER_1_MEMBER_1_FILL"/>

<use xlink:href="#icon_r_box_02_28_Layer2_0_MEMBER_0_MEMBER_4_MEMBER_1_MEMBER_1_1_STROKES" transform="matrix( 0.8240509033203125, 0, 0, 0.8240509033203125, 25.65,34.5) "/>
</g>

<g transform="matrix( 1.2138214111328125, 0, 0, 1.2138214111328125, -31.15,-41.9) ">
<use xlink:href="#icon_r_box_02_28_Layer2_0_MEMBER_0_MEMBER_5_FILL"/>

<use xlink:href="#icon_r_box_02_28_Layer2_0_MEMBER_0_MEMBER_5_1_STROKES" transform="matrix( 0.8238372802734375, 0, 0, 0.8238372802734375, 25.65,34.5) "/>
</g>

<g transform="matrix( 1.21368408203125, 0, 0, 1.21368408203125, -31.15,-41.9) ">
<use xlink:href="#icon_r_box_02_28_Layer2_0_MEMBER_0_MEMBER_6_MEMBER_0_FILL"/>

<use xlink:href="#icon_r_box_02_28_Layer2_0_MEMBER_0_MEMBER_6_MEMBER_0_1_STROKES" transform="matrix( 0.8239288330078125, 0, 0, 0.8239288330078125, 25.65,34.5) "/>
</g>

<g transform="matrix( 1.21368408203125, 0, 0, 1.21368408203125, -31.15,-41.9) ">
<use xlink:href="#icon_r_box_02_28_Layer2_0_MEMBER_0_MEMBER_6_MEMBER_1_FILL"/>

<use xlink:href="#icon_r_box_02_28_Layer2_0_MEMBER_0_MEMBER_6_MEMBER_1_1_STROKES" transform="matrix( 0.8239288330078125, 0, 0, 0.8239288330078125, 25.65,34.5) "/>
</g>

<g transform="matrix( 1.21368408203125, 0, 0, 1.21368408203125, -31.15,-41.9) ">
<use xlink:href="#icon_r_box_02_28_Layer2_0_MEMBER_0_MEMBER_6_MEMBER_2_FILL"/>

<use xlink:href="#icon_r_box_02_28_Layer2_0_MEMBER_0_MEMBER_6_MEMBER_2_1_STROKES" transform="matrix( 0.8239288330078125, 0, 0, 0.8239288330078125, 25.65,34.5) "/>
</g>

<g transform="matrix( 1.21368408203125, 0, 0, 1.21368408203125, -31.15,-41.9) ">
<use xlink:href="#icon_r_box_02_28_Layer2_0_MEMBER_0_MEMBER_6_MEMBER_3_FILL"/>

<use xlink:href="#icon_r_box_02_28_Layer2_0_MEMBER_0_MEMBER_6_MEMBER_3_1_STROKES" transform="matrix( 0.8239288330078125, 0, 0, 0.8239288330078125, 25.65,34.5) "/>
</g>

<g transform="matrix( 1.21368408203125, 0, 0, 1.21368408203125, -31.15,-41.9) ">
<use xlink:href="#icon_r_box_02_28_Layer2_0_MEMBER_0_MEMBER_7_MEMBER_0_FILL"/>
</g>

<g transform="matrix( 1.21368408203125, 0, 0, 1.21368408203125, -31.15,-41.9) ">
<use xlink:href="#icon_r_box_02_28_Layer2_0_MEMBER_0_MEMBER_7_MEMBER_1_FILL"/>
</g>

<g transform="matrix( 1.21368408203125, 0, 0, 1.21368408203125, -31.15,-41.9) ">
<use xlink:href="#icon_r_box_02_28_Layer2_0_MEMBER_0_MEMBER_7_MEMBER_2_1_STROKES" transform="matrix( 0.8239288330078125, 0, 0, 0.8239288330078125, 25.65,34.5) "/>
</g>

<g transform="matrix( 1.213958740234375, 0, 0, 1.213958740234375, -31.15,-41.9) ">
<use xlink:href="#icon_r_box_02_28_Layer2_0_MEMBER_1_FILL"/>

<use xlink:href="#icon_r_box_02_28_Layer2_0_MEMBER_1_1_STROKES" transform="matrix( 0.8237457275390625, 0, 0, 0.8237457275390625, 25.65,34.5) "/>
</g>

<g transform="matrix( 1.213958740234375, 0, 0, 1.213958740234375, -31.15,-41.9) ">
<use xlink:href="#icon_r_box_02_28_Layer2_0_MEMBER_2_FILL"/>

<use xlink:href="#icon_r_box_02_28_Layer2_0_MEMBER_2_1_STROKES" transform="matrix( 0.8237457275390625, 0, 0, 0.8237457275390625, 25.65,34.5) "/>
</g>
</g>
</svg>
