
<svg xmlns="http://www.w3.org/2000/svg" version="1.1" xmlns:xlink="http://www.w3.org/1999/xlink" preserveAspectRatio="none" x="0px" y="0px" width="130px" height="115px" viewBox="0 0 130 115">
<defs>
<filter id="Filter_1" x="-23.843372457552945%" y="-23.83663271669921%" width="147.6867449151059%" height="147.67326543339843%" color-interpolation-filters="sRGB">
<feFlood flood-color="#000000" flood-opacity="1" in="SourceGraphic" result="result1"/>

<feGaussianBlur in="SourceGraphic" stdDeviation="1.6666666666666667,1.6666666666666667" result="result2"/>

<feComposite in2="result2" in="result1" operator="in" result="result3"/>

<feComposite in2="result3" in="SourceGraphic" operator="over" result="result4"/>
</filter>

<g id="icon_r_box_02_22_Layer3_0_FILL">
<path fill="#FFFFFF" fill-opacity="0" stroke="none" d="
M 65 -55
L -65 -55 -65 25 65 25 65 -55 Z"/>
</g>

<g id="icon_r_box_02_22_Layer3_1_FILL">
<path fill="#FFFFFF" fill-opacity="0" stroke="none" d="
M 65.05 49.95
L 65.05 24.95 -64.95 24.95 -64.95 49.95 65.05 49.95 Z"/>
</g>

<g id="icon_r_box_02_22_Layer3_2_FILL">
<path fill="#FFFFFF" fill-opacity="0" stroke="none" d="
M 65 -52.85
L 65 -57.85 -65 -57.85 -65 -52.85 65 -52.85 Z"/>
</g>

<g id="icon_r_box_02_22_Layer3_3_FILL">
<path fill="#FFFFFF" fill-opacity="0" stroke="none" d="
M 65 54.95
L 65 49.95 -65 49.95 -65 54.95 65 54.95 Z"/>
</g>

<g id="Duplicate_Items_Folder______0_Layer1_0_FILL">
<path fill="#FFFFFF" stroke="none" d="
M -26.5 -26.75
Q -37.554296875 -15.645703125 -37.55 -0.1 -37.55 2.0294921875 -37.35 4.05 -37.4 4.634765625 -37.4 5.25
L -37.4 22
Q -37.4 28.9 -30.45 28.9
L -24.05 28.9
Q -13.743359375 37.648046875 0.2 37.65 15.7986328125 37.7072265625 26.85 26.6 37.8978515625 15.601953125 37.9 -0.05 37.8982421875 -12.8283203125 30.55 -22.55
L 30.55 -32.1
Q 30.55 -32.35 30.55 -32.55 30.5509765625 -32.7314453125 30.5 -32.95 30.171484375 -36.404296875 26.25 -36.4
L 10.7 -36.4
Q 5.714453125 -37.8001953125 0.15 -37.8 -15.4490234375 -37.7447265625 -26.5 -26.75 Z"/>
</g>

<g id="Duplicate_Items_Folder______0_Layer0_0_FILL">
<path fill="#FFFFFF" stroke="none" d="
M 98.5 74.4
Q 107.95 65 107.95 51.65 107.95 38.3 98.5 28.85 89.1 19.45 75.75 19.45 62.4 19.45 52.95 28.85 43.55 38.3 43.55 51.65 43.55 65 52.95 74.4 62.4 83.85 75.75 83.85 89.1 83.85 98.5 74.4 Z"/>
</g>

<g id="Duplicate_Items_Folder______0_Layer0_1_MEMBER_0_FILL">
<path fill="#FFFFFF" stroke="none" d="
M 55.25 -28.75
Q 55.1501953125 -28.3388671875 55.15 -27.85
L 55.15 12
Q 55.15 16.3 59.45 16.3
L 81.4 16.3
Q 85.7 16.3 85.7 12
L 85.7 -27.85
Q 85.7 -28.1 85.7 -28.3 85.7009765625 -28.4814453125 85.65 -28.7 85.321484375 -32.154296875 81.4 -32.15
L 59.45 -32.15
Q 55.5396484375 -32.1494140625 55.25 -28.75 Z"/>
</g>

<g id="Duplicate_Items_Folder______0_Layer0_1_MEMBER_1_MEMBER_1_FILL">
<path fill="#FFFFFF" stroke="none" d="
M 4.3 -31.2
Q 2.7 -31.2 2.55 -29.85 2.5 -29.65 2.5 -29.4
L 2.5 10.45
Q 2.5 12.25 4.3 12.25
L 26.25 12.25
Q 28.05 12.25 28.05 10.45
L 28.05 -29.4
Q 28.05 -29.65 28.05 -29.85 27.85 -31.2 26.25 -31.2
L 4.3 -31.2 Z"/>
</g>

<g id="Duplicate_Items_Folder______0_Layer0_1_MEMBER_1_MEMBER_2_FILL">
<path fill="#000000" stroke="none" d="
M 11.15 -29.6
Q 9.96953125 -29.609375 10.25 -28.5
L 10.85 -26.15
Q 11.0982421875 -25.26875 12.1 -25.3
L 23.95 -25.3
Q 24.9517578125 -25.26875 25.15 -26.15
L 25.8 -28.5
Q 26.0802734375 -29.609375 24.9 -29.6
L 11.15 -29.6 Z"/>
</g>

<g id="Duplicate_Items_Folder______0_Layer0_2_MEMBER_0_FILL">
<path fill="#FFFFFF" stroke="none" d="
M -34.2 5.25
L -34.2 22
Q -34.2 28.95 -27.25 28.95
L 4.75 28.95
Q 11.7 28.95 11.7 22
L 11.7 5.25
Q 11.7 -1.7 4.75 -1.7
L -27.25 -1.7
Q -34.2 -1.7 -34.2 5.25
M -17.55 -7.55
Q -19.65 -7.55 -19.8 -5.75
L -20.15 -2.75 -2.45 -2.75 -2.75 -5.75
Q -2.95 -7.55 -5.05 -7.55
L -17.55 -7.55
M -22.4 -4.85
L -24.55 -4.85
Q -25.35 -4.85 -25.4 -4.25
L -25.55 -2.75 -21.35 -2.75 -21.5 -4.25
Q -21.65 -4.85 -22.4 -4.85 Z"/>
</g>

<g id="Duplicate_Items_Folder______0_Layer0_2_MEMBER_1_MEMBER_0_FILL">
<path fill="#000000" stroke="none" d="
M -31.6 5.75
L -31.6 21.7
Q -31.6 28.3 -25 28.3
L 5.5 28.3
Q 12.1 28.3 12.1 21.7
L 12.1 5.75
Q 12.1 -0.85 5.5 -0.85
L -25 -0.85
Q -31.6 -0.85 -31.6 5.75 Z"/>
</g>

<g id="Duplicate_Items_Folder______0_Layer0_2_MEMBER_1_MEMBER_1_FILL">
<path fill="#FFFFFF" stroke="none" d="
M 25.7 62.2
Q 25.7 58.2 22.9 55.4 20.1 52.6 16.1 52.6 12.1 52.6 9.3 55.4 6.5 58.2 6.5 62.2 6.5 66.2 9.3 69 12.1 71.8 16.1 71.8 20.1 71.8 22.9 69 25.7 66.2 25.7 62.2 Z"/>
</g>

<g id="Duplicate_Items_Folder______0_Layer0_2_MEMBER_1_MEMBER_2_FILL">
<path fill="#000000" stroke="none" d="
M 25.7 62.2
Q 25.7 58.2 22.9 55.4 20.1 52.6 16.1 52.6 12.1 52.6 9.3 55.4 6.5 58.2 6.5 62.2 6.5 66.2 9.3 69 12.1 71.8 16.1 71.8 20.1 71.8 22.9 69 25.7 66.2 25.7 62.2 Z"/>
</g>

<g id="Duplicate_Items_Folder______0_Layer0_2_MEMBER_1_MEMBER_4_FILL">
<path fill="#000000" stroke="none" d="
M -1.35 -1.85
L -1.65 -4.75
Q -1.85 -6.45 -3.85 -6.45
L -15.75 -6.45
Q -17.75 -6.45 -17.9 -4.75
L -18.2 -1.85 -1.35 -1.85
M -20.35 -3.85
L -22.4 -3.85
Q -23.15 -3.85 -23.2 -3.3
L -23.35 -1.85 -19.35 -1.85 -19.5 -3.3
Q -19.65 -3.85 -20.35 -3.85 Z"/>
</g>

<g id="Duplicate_Items_Folder______0_Layer0_2_MEMBER_1_MEMBER_5_FILL">
<path fill="#FFFFFF" stroke="none" d="
M 25.7 62.2
Q 25.7 58.2 22.9 55.4 20.1 52.6 16.1 52.6 12.1 52.6 9.3 55.4 6.5 58.2 6.5 62.2 6.5 66.2 9.3 69 12.1 71.8 16.1 71.8 20.1 71.8 22.9 69 25.7 66.2 25.7 62.2 Z"/>
</g>

<g id="Duplicate_Items_Folder______0_Layer0_2_MEMBER_1_MEMBER_6_FILL">
<path fill="#FFFFFF" stroke="none" d="
M 25.7 62.2
Q 25.7 58.2 22.9 55.4 20.1 52.6 16.1 52.6 12.1 52.6 9.3 55.4 6.5 58.2 6.5 62.2 6.5 66.2 9.3 69 12.1 71.8 16.1 71.8 20.1 71.8 22.9 69 25.7 66.2 25.7 62.2 Z"/>
</g>

<g id="Duplicate_Items_Folder______0_Layer0_3_FILL">
<path fill="#FFFFFF" stroke="none" d="
M -22.9 -20.35
Q -24.62265625 -18.39453125 -25.95 -16.3
L 16.45 26.1
Q 18.54296875 24.7708984375 20.45 23.05 20.4056640625 22.956640625 20.3 22.85
L -22.75 -20.2
Q -22.8072265625 -20.25625 -22.9 -20.35
M -20.1 -23.15
Q -19.98203125 -23.033203125 -19.9 -22.95
L 23.1 20.05
Q 23.206640625 20.155859375 23.3 20.2 25.0193359375 18.2939453125 26.35 16.2
L -16.05 -26.2
Q -18.1453125 -24.8705078125 -20.1 -23.15 Z"/>
</g>

<g id="Duplicate_Items_Folder______0_Layer0_4_FILL">
<path fill="#FF2626" stroke="none" d="
M -21.5 -26.75
L -26.45 -21.8 21.95 26.6 26.9 21.65 -21.5 -26.75 Z"/>
</g>

<path id="Duplicate_Items_Folder______0_Layer1_0_1_STROKES" stroke="#FFFFFF" stroke-width="8" stroke-linejoin="round" stroke-linecap="round" fill="none" d="
M -30.45 28.9
Q -37.4 28.9 -37.4 22
L -37.4 5.25
Q -37.4 4.634765625 -37.35 4.075 -37.55 2.0294921875 -37.55 -0.1 -37.554296875 -15.645703125 -26.475 -26.725 -15.4490234375 -37.7447265625 0.15 -37.8 5.714453125 -37.8001953125 10.7 -36.4
L 26.25 -36.4
Q 30.171484375 -36.404296875 30.525 -32.925 30.5509765625 -32.7314453125 30.55 -32.55 30.55 -32.35 30.55 -32.1
L 30.55 -22.525
Q 37.8982421875 -12.8283203125 37.9 -0.05 37.8978515625 15.601953125 26.875 26.625 15.7986328125 37.7072265625 0.2 37.65 -13.743359375 37.648046875 -24.025 28.9
L -30.45 28.9 Z"/>

<path id="Duplicate_Items_Folder______0_Layer0_0_1_STROKES" stroke="#FF2626" stroke-width="7" stroke-linejoin="round" stroke-linecap="round" fill="none" d="
M 24.360906982421884 24.143530273437506
Q 14.328036499023444 34.176400756835946 0.16177368164062145 34.13882446289064 -14.004489135742194 34.17640075683592 -24.03735961914062 24.14353027343749 -34.07023010253906 14.110659790039065 -34.07023010253906 -0.0931793212890426 -34.07023010253907 -14.221865844726565 -24.037359619140627 -24.254736328125006 -14.00448913574219 -34.287606811523446 0.16177368164062855 -34.32518310546874 14.328036499023437 -34.28760681152344 24.360906982421877 -24.25473632812499 34.39377746582031 -14.221865844726565 34.39377746582031 -0.09317932128905682 34.39377746582032 14.110659790039065 24.360906982421884 24.143530273437506 Z"/>

<path id="Duplicate_Items_Folder______0_Layer0_1_MEMBER_0_1_STROKES" stroke="#FFFFFF" stroke-width="5" stroke-linejoin="round" stroke-linecap="butt" fill="none" d="
M 81.4 -32.15
L 59.45 -32.15
Q 55.5396484375 -32.1494140625 55.25 -28.75 55.1501953125 -28.3388671875 55.15 -27.85
L 55.15 12
Q 55.15 16.3 59.45 16.3
L 81.4 16.3
Q 85.7 16.3 85.7 12
L 85.7 -27.85
Q 85.7 -28.1 85.7 -28.3 85.7009765625 -28.4814453125 85.675 -28.675 85.321484375 -32.154296875 81.4 -32.15 Z"/>

<path id="Duplicate_Items_Folder______0_Layer0_1_MEMBER_1_MEMBER_0_1_STROKES" stroke="#000000" stroke-width="5" stroke-linejoin="round" stroke-linecap="butt" fill="none" d="
M 4.299591064453125 -33.92007141113282
L 26.259442138671886 -33.92007141113282
Q 27.834431457519543 -33.92007141113282 28.059429931640636 -32.525080871582034 28.059429931640636 -32.34508209228516 28.059429931640636 -32.12008361816407
L 28.059429931640636 7.749645996093747
Q 28.059429931640636 9.549633789062497 26.259442138671886 9.549633789062497
L 4.299591064453125 9.549633789062497
Q 2.499603271484375 9.549633789062497 2.499603271484375 7.749645996093747
L 2.499603271484375 -32.12008361816407
Q 2.499603271484375 -32.34508209228516 2.544602966308588 -32.525080871582034 2.7246017456054688 -33.92007141113282 4.299591064453125 -33.92007141113282 Z"/>

<path id="Duplicate_Items_Folder______0_Layer0_2_MEMBER_0_1_STROKES" stroke="#FFFFFF" stroke-width="5" stroke-linejoin="round" stroke-linecap="butt" fill="none" d="
M -24.55 -4.85
L -22.4 -4.85
Q -21.65 -4.85 -21.5 -4.25
L -21.35 -2.75 -25.55 -2.75 -25.4 -4.25
Q -25.35 -4.85 -24.55 -4.85 Z
M -17.55 -7.55
L -5.05 -7.55
Q -2.95 -7.55 -2.75 -5.75
L -2.45 -2.75 -20.15 -2.75 -19.8 -5.75
Q -19.65 -7.55 -17.55 -7.55 Z
M -27.25 -1.7
L 4.75 -1.7
Q 11.7 -1.7 11.7 5.25
L 11.7 22
Q 11.7 28.95 4.75 28.95
L -27.25 28.95
Q -34.2 28.95 -34.2 22
L -34.2 5.25
Q -34.2 -1.7 -27.25 -1.7 Z"/>

<path id="Duplicate_Items_Folder______0_Layer0_2_MEMBER_1_MEMBER_3_1_STROKES" stroke="#FFFFFF" stroke-width="2" stroke-linejoin="round" stroke-linecap="round" fill="none" d="
M -21.131053161621093 13.007339477539062
Q -21.084911119937896 12.49280444383621 -20.97355499267578 12.009851074218748
M -19.7398193359375 9.48988037109375
Q -19.49434367418289 9.191905319690704 -19.214825439453126 8.912387084960937 -17.788523662090302 7.5234090924262995 -15.959863281249998 7.127407836914062"/>

<path id="Duplicate_Items_Folder______0_Layer0_2_MEMBER_1_MEMBER_7_1_STROKES" stroke="#FFFFFF" stroke-width="3" stroke-linejoin="round" stroke-linecap="round" fill="none" d="
M 4.25 2.1
L 6.8 2.1"/>
</defs>

<g transform="matrix( 1, 0, 0, 0.999603271484375, 65,60) ">
<g transform="matrix( 1, 0, 0, 1, 0,0) ">
<use xlink:href="#icon_r_box_02_22_Layer3_0_FILL"/>
</g>

<g transform="matrix( 1, 0, 0, 1, -0.05,0.05) ">
<use xlink:href="#icon_r_box_02_22_Layer3_1_FILL"/>
</g>

<g transform="matrix( 1, 0, 0, 1, 0,-2.15) ">
<use xlink:href="#icon_r_box_02_22_Layer3_2_FILL"/>
</g>

<g transform="matrix( 1, 0, 0, 1, 0,0.05) ">
<use xlink:href="#icon_r_box_02_22_Layer3_3_FILL"/>
</g>

<g filter="url(#Filter_1)" transform="matrix( 0.9999847412109375, 0, 0, 1.000396728515625, -65,-60) ">
<g transform="matrix( 0.7499847412109375, 0, 0, 0.7496795654296875, 64.9,41) ">
<g transform="matrix( 1, 0, 0, 1, 0,0) ">
<use xlink:href="#Duplicate_Items_Folder______0_Layer1_0_FILL"/>

<use xlink:href="#Duplicate_Items_Folder______0_Layer1_0_1_STROKES"/>
</g>

<g transform="matrix( 0.75152587890625, 0.75152587890625, -0.75152587890625, 0.75152587890625, -17.95,-95.8) ">
<use xlink:href="#Duplicate_Items_Folder______0_Layer0_0_FILL"/>

<use xlink:href="#Duplicate_Items_Folder______0_Layer0_0_1_STROKES" transform="matrix( 0.6652984619140625, -0.6652984619140625, 0.6652984619140625, 0.6652984619140625, 75.65,51.75) "/>
</g>

<g transform="matrix( 1, 0, 0, 1, -55.15,-4.3) ">
<use xlink:href="#Duplicate_Items_Folder______0_Layer0_1_MEMBER_0_FILL"/>

<use xlink:href="#Duplicate_Items_Folder______0_Layer0_1_MEMBER_0_1_STROKES"/>
</g>

<g transform="matrix( 0.899993896484375, 0, 0, 0.899993896484375, -56,-44.45) ">
<use xlink:href="#Duplicate_Items_Folder______0_Layer0_1_MEMBER_1_MEMBER_0_1_STROKES" transform="matrix( 1.111114501953125, 0, 0, 1.111114501953125, 62.2,49.35) "/>
</g>

<g transform="matrix( 1, 0, 0, 1, 0,-2.7) ">
<use xlink:href="#Duplicate_Items_Folder______0_Layer0_1_MEMBER_1_MEMBER_1_FILL"/>
</g>

<g transform="matrix( 0.899993896484375, 0, 0, 0.899993896484375, -1.2,-8.6) ">
<use xlink:href="#Duplicate_Items_Folder______0_Layer0_1_MEMBER_1_MEMBER_2_FILL"/>
</g>

<g transform="matrix( 1, 0, 0, 1, -3.2,0) ">
<use xlink:href="#Duplicate_Items_Folder______0_Layer0_2_MEMBER_0_FILL"/>

<use xlink:href="#Duplicate_Items_Folder______0_Layer0_2_MEMBER_0_1_STROKES"/>
</g>

<g transform="matrix( 1.04998779296875, 0, 0, 1.04998779296875, -4.2,-0.8) ">
<use xlink:href="#Duplicate_Items_Folder______0_Layer0_2_MEMBER_1_MEMBER_0_FILL"/>
</g>

<g transform="matrix( 1.15496826171875, 0, 0, 1.15496826171875, -33,-58.2) ">
<use xlink:href="#Duplicate_Items_Folder______0_Layer0_2_MEMBER_1_MEMBER_1_FILL"/>
</g>

<g transform="matrix( 0.9239501953125, 0, 0, 0.9239501953125, -29.3,-43.85) ">
<use xlink:href="#Duplicate_Items_Folder______0_Layer0_2_MEMBER_1_MEMBER_2_FILL"/>
</g>

<g transform="matrix( 1.04998779296875, 0, 0, 1.04998779296875, -4.2,-0.8) ">
<use xlink:href="#Duplicate_Items_Folder______0_Layer0_2_MEMBER_1_MEMBER_3_1_STROKES" transform="matrix( 0.9523773193359375, 0, 0, 0.9523773193359375, 4,0.75) "/>
</g>

<g transform="matrix( 1.04998779296875, 0, 0, 1.04998779296875, -4.2,0.4) ">
<use xlink:href="#Duplicate_Items_Folder______0_Layer0_2_MEMBER_1_MEMBER_4_FILL"/>
</g>

<g transform="matrix( 0.1732177734375, 0, 0, 0.1732177734375, -35.4,-8) ">
<use xlink:href="#Duplicate_Items_Folder______0_Layer0_2_MEMBER_1_MEMBER_5_FILL"/>
</g>

<g transform="matrix( 0.1039276123046875, 0, 0, 0.1039276123046875, -30.5,-3.7) ">
<use xlink:href="#Duplicate_Items_Folder______0_Layer0_2_MEMBER_1_MEMBER_6_FILL"/>
</g>

<g transform="matrix( 1, 0, 0, 1, -3.2,0.65) ">
<use xlink:href="#Duplicate_Items_Folder______0_Layer0_2_MEMBER_1_MEMBER_7_1_STROKES"/>
</g>

<g transform="matrix( 1, 0, 0, 1, 0,0) ">
<use xlink:href="#Duplicate_Items_Folder______0_Layer0_3_FILL"/>
</g>

<g transform="matrix( 1, 0, 0, 1, 0,0) ">
<use xlink:href="#Duplicate_Items_Folder______0_Layer0_4_FILL"/>
</g>
</g>
</g>
</g>
</svg>
