
<svg xmlns="http://www.w3.org/2000/svg" version="1.1" xmlns:xlink="http://www.w3.org/1999/xlink" preserveAspectRatio="none" x="0px" y="0px" width="130px" height="115px" viewBox="0 0 130 115">
<defs>
<g id="icon_r_box_02_66_Layer3_0_FILL">
<path fill="#FFFFFF" fill-opacity="0" stroke="none" d="
M 65 -55
L -65 -55 -65 25 65 25 65 -55 Z"/>
</g>

<g id="icon_r_box_02_66_Layer3_1_FILL">
<path fill="#FFFFFF" fill-opacity="0" stroke="none" d="
M 65.05 49.95
L 65.05 24.95 -64.95 24.95 -64.95 49.95 65.05 49.95 Z"/>
</g>

<g id="icon_r_box_02_66_Layer3_2_FILL">
<path fill="#FFFFFF" fill-opacity="0" stroke="none" d="
M 65 -52.85
L 65 -57.85 -65 -57.85 -65 -52.85 65 -52.85 Z"/>
</g>

<g id="icon_r_box_02_66_Layer3_3_FILL">
<path fill="#FFFFFF" fill-opacity="0" stroke="none" d="
M 65 54.95
L 65 49.95 -65 49.95 -65 54.95 65 54.95 Z"/>
</g>

<g id="icon_r_box_02_66_Layer2_0_MEMBER_0_FILL">
<path fill="#FFFFFF" stroke="none" d="
M 40.45 20.75
Q 40.45 12.6 34.65 6.8 28.9 1 20.75 1 12.6 1 6.8 6.8 1 12.6 1 20.75 1 28.9 6.8 34.65 12.6 40.45 20.75 40.45 28.9 40.45 34.65 34.65 40.45 28.9 40.45 20.75 Z"/>
</g>

<g id="icon_r_box_02_66_Layer2_0_MEMBER_1_MEMBER_0_FILL">
<path fill="#000000" stroke="none" d="
M 12.25 26
Q 12.6 26 12.85 25.75 13.1 25.5 13.1 25.15
L 13.1 21.05
Q 13.1 20.2 12.25 20.2 11.4 20.2 11.4 21.05
L 11.4 25.15
Q 11.4 25.5 11.65 25.75 11.9 26 12.25 26 Z"/>
</g>

<g id="icon_r_box_02_66_Layer2_0_MEMBER_2_FILL">
<path fill="#000000" stroke="none" d="
M 34.2 23.9
L 22.55 17.55 22.85 9.75
Q 22.85 8.7 22.25 7.95 21.6 7.2 20.75 7.2 19.85 7.2 19.25 8 18.6 8.75 18.6 9.85
L 18.9 17.55 7.25 23.9 7.25 26.7 19.1 23.5 19.3 29.8 16.65 32.05 16.65 34.25 20.75 32.45 24.85 34.25 24.85 32.05 22.15 29.8 22.35 23.5 34.2 26.7 34.2 23.9 Z"/>
</g>

<g id="icon_r_box_02_66_Layer2_0_MEMBER_3_MEMBER_0_FILL">
<path fill="#000000" stroke="none" d="
M 12.25 26
Q 12.6 26 12.85 25.75 13.1 25.5 13.1 25.15
L 13.1 21.05
Q 13.1 20.2 12.25 20.2 11.4 20.2 11.4 21.05
L 11.4 25.15
Q 11.4 25.5 11.65 25.75 11.9 26 12.25 26 Z"/>
</g>

<g id="icon_r_box_02_66_Layer2_0_MEMBER_4_FILL">
<path fill="#000000" stroke="none" d="
M 21.3 33.7
L 21.3 31.55 20.15 31.55 20.15 33.7 21.3 33.7 Z"/>
</g>

<g id="icon_r_box_02_66_Layer2_0_MEMBER_5_MEMBER_0_FILL">
<path fill="#000000" stroke="none" d="
M 28.35 25.15
Q 28.35 26 29.2 26 29.55 26 29.8 25.75 30.05 25.5 30.05 25.15
L 30.05 21.05
Q 30.05 20.2 29.2 20.2 28.35 20.2 28.35 21.05
L 28.35 25.15 Z"/>
</g>

<path id="icon_r_box_02_66_Layer2_0_MEMBER_0_1_STROKES" stroke="#000000" stroke-width="2" stroke-linejoin="round" stroke-linecap="round" fill="none" d="
M 40.45 20.75
Q 40.45 28.9 34.65 34.65 28.9 40.45 20.75 40.45 12.6 40.45 6.8 34.65 1 28.9 1 20.75 1 12.6 6.8 6.8 12.6 1 20.75 1 28.9 1 34.65 6.8 40.45 12.6 40.45 20.75 Z"/>
</defs>

<g transform="matrix( 1, 0, 0, 0.999603271484375, 65,60) ">
<g transform="matrix( 1, 0, 0, 1, 0,0) ">
<use xlink:href="#icon_r_box_02_66_Layer3_0_FILL"/>
</g>

<g transform="matrix( 1, 0, 0, 1, -0.05,0.05) ">
<use xlink:href="#icon_r_box_02_66_Layer3_1_FILL"/>
</g>

<g transform="matrix( 1, 0, 0, 1, 0,-2.15) ">
<use xlink:href="#icon_r_box_02_66_Layer3_2_FILL"/>
</g>

<g transform="matrix( 1, 0, 0, 1, 0,0.05) ">
<use xlink:href="#icon_r_box_02_66_Layer3_3_FILL"/>
</g>

<g transform="matrix( 1, 0, 0, 1, -20.7,-35.75) ">
<use xlink:href="#icon_r_box_02_66_Layer2_0_MEMBER_0_FILL"/>

<use xlink:href="#icon_r_box_02_66_Layer2_0_MEMBER_0_1_STROKES"/>
</g>

<g transform="matrix( 1, 0, 0, 1, -20.7,-35.75) ">
<use xlink:href="#icon_r_box_02_66_Layer2_0_MEMBER_1_MEMBER_0_FILL"/>
</g>

<g transform="matrix( 1, 0, 0, 1, -20.7,-35.75) ">
<use xlink:href="#icon_r_box_02_66_Layer2_0_MEMBER_2_FILL"/>
</g>

<g transform="matrix( 1, 0, 0, 1, -20.7,-35.75) ">
<use xlink:href="#icon_r_box_02_66_Layer2_0_MEMBER_3_MEMBER_0_FILL"/>
</g>

<g transform="matrix( 1, 0, 0, 1, -20.7,-35.75) ">
<use xlink:href="#icon_r_box_02_66_Layer2_0_MEMBER_4_FILL"/>
</g>

<g transform="matrix( 1, 0, 0, 1, -20.7,-35.75) ">
<use xlink:href="#icon_r_box_02_66_Layer2_0_MEMBER_5_MEMBER_0_FILL"/>
</g>
</g>
</svg>
