
<svg xmlns="http://www.w3.org/2000/svg" version="1.1" xmlns:xlink="http://www.w3.org/1999/xlink" preserveAspectRatio="none" x="0px" y="0px" width="130px" height="115px" viewBox="0 0 130 115">
<defs>
<g id="icon_r_box_02_30_Layer3_0_FILL">
<path fill="#FFFFFF" fill-opacity="0" stroke="none" d="
M 65 -55
L -65 -55 -65 25 65 25 65 -55 Z"/>
</g>

<g id="icon_r_box_02_30_Layer3_1_FILL">
<path fill="#FFFFFF" fill-opacity="0" stroke="none" d="
M 65.05 49.95
L 65.05 24.95 -64.95 24.95 -64.95 49.95 65.05 49.95 Z"/>
</g>

<g id="icon_r_box_02_30_Layer3_2_FILL">
<path fill="#FFFFFF" fill-opacity="0" stroke="none" d="
M 65 -52.85
L 65 -57.85 -65 -57.85 -65 -52.85 65 -52.85 Z"/>
</g>

<g id="icon_r_box_02_30_Layer3_3_FILL">
<path fill="#FFFFFF" fill-opacity="0" stroke="none" d="
M 65 54.95
L 65 49.95 -65 49.95 -65 54.95 65 54.95 Z"/>
</g>

<g id="icon_r_box_02_30_Layer2_0_FILL">
<path fill="#C9E1E7" stroke="none" d="
M 57.3 39.95
L 57.3 17.3 23.35 17.3 23.35 39.95 57.3 39.95 Z"/>
</g>

<g id="icon_r_box_02_30_Layer2_1_MEMBER_0_FILL">
<path fill="#C9E1E7" stroke="none" d="
M 65.65 19.1
L 65.65 7.15 40.3 0.5 15 7.15 15 19.1 65.65 19.1 Z"/>
</g>

<g id="icon_r_box_02_30_Layer2_1_MEMBER_1_FILL">
<path fill="#71B4B4" stroke="none" d="
M 63.95 21.9
L 63.95 19.1 16.7 19.1 16.7 21.9 63.95 21.9 Z"/>
</g>

<g id="icon_r_box_02_30_Layer2_1_MEMBER_2_MEMBER_0_MEMBER_0_FILL">
<path fill="#71B4B4" stroke="none" d="
M 26.65 25.3
Q 27.05 25.3 27.35 25 27.65 24.75 27.65 24.35
L 27.65 21.9 19.05 21.9 19.05 24.35
Q 19.05 24.75 19.35 25 19.65 25.3 20.05 25.3
L 26.65 25.3 Z"/>
</g>

<g id="icon_r_box_02_30_Layer2_1_MEMBER_2_MEMBER_0_MEMBER_1_FILL">
<path fill="#71B4B4" stroke="none" d="
M 27.35 34.05
Q 27.05 33.75 26.65 33.75
L 20.05 33.75
Q 19.65 33.75 19.35 34.05 19.05 34.35 19.05 34.75
L 19.05 37.15 27.65 37.15 27.65 34.75
Q 27.65 34.35 27.35 34.05 Z"/>
</g>

<g id="icon_r_box_02_30_Layer2_1_MEMBER_2_MEMBER_0_MEMBER_2_FILL">
<path fill="#71B4B4" stroke="none" d="
M 26.05 33.75
L 26.05 25.3 20.65 25.3 20.65 33.75 26.05 33.75 Z"/>
</g>

<g id="icon_r_box_02_30_Layer2_1_MEMBER_2_MEMBER_1_MEMBER_0_FILL">
<path fill="#71B4B4" stroke="none" d="
M 60.6 25.3
Q 61 25.3 61.3 25 61.6 24.75 61.6 24.35
L 61.6 21.9 53 21.9 53 24.35
Q 53 24.75 53.3 25 53.6 25.3 54 25.3
L 60.6 25.3 Z"/>
</g>

<g id="icon_r_box_02_30_Layer2_1_MEMBER_2_MEMBER_1_MEMBER_1_FILL">
<path fill="#71B4B4" stroke="none" d="
M 61.3 34.05
Q 61 33.75 60.6 33.75
L 54 33.75
Q 53.6 33.75 53.3 34.05 53 34.35 53 34.75
L 53 37.15 61.6 37.15 61.6 34.75
Q 61.6 34.35 61.3 34.05 Z"/>
</g>

<g id="icon_r_box_02_30_Layer2_1_MEMBER_2_MEMBER_1_MEMBER_2_FILL">
<path fill="#71B4B4" stroke="none" d="
M 60 33.75
L 60 25.3 54.6 25.3 54.6 33.75 60 33.75 Z"/>
</g>

<g id="icon_r_box_02_30_Layer2_1_MEMBER_3_FILL">
<path fill="#C9E1E7" stroke="none" d="
M 65.65 39.95
L 65.65 37.15 15 37.15 15 39.95 65.65 39.95 Z"/>
</g>

<g id="icon_r_box_02_30_Layer2_1_MEMBER_4_FILL">
<path fill="#C9E1E7" stroke="none" d="
M 70.55 43.9
L 70.55 39.95 10.1 39.95 10.1 43.9 70.55 43.9 Z"/>
</g>

<g id="icon_r_box_02_30_Layer2_3_FILL">
<path fill="#71B4B4" stroke="none" d="
M 44.85 28.1
Q 43.2 26.45 40.85 26.45
L 39.8 26.45
Q 37.45 26.45 35.8 28.1 34.15 29.75 34.15 32.1
L 34.15 37.15 46.5 37.15 46.5 32.1
Q 46.5 29.75 44.85 28.1 Z"/>
</g>

<g id="icon_r_box_02_30_Layer1_0_FILL">
<path fill="#000000" stroke="none" d="
M 9.7 -19.25
Q 9.7 -20.5 8.8 -21.15 7.85 -21.75 6.25 -21.75 4.65 -21.75 3.7 -21.15 3.25 -20.85 3 -20.35 2.75 -19.9 2.75 -19.25 2.75 -18.7 3 -18.25 3.25 -17.8 3.7 -17.45 4.2 -17.15 4.8 -17 5.45 -16.85 6.25 -16.85 7.05 -16.85 7.65 -17 8.3 -17.15 8.8 -17.45 9.25 -17.8 9.5 -18.25 9.7 -18.7 9.7 -19.25
M 5.5 -20.25
Q 5.85 -20.35 6.25 -20.35 6.7 -20.35 7.05 -20.25 7.35 -20.2 7.65 -20.1 7.9 -19.95 8 -19.75 8.15 -19.55 8.15 -19.25 8.15 -18.75 7.65 -18.5 7.35 -18.4 7.05 -18.35 6.7 -18.25 6.25 -18.25 5.4 -18.25 4.9 -18.5 4.4 -18.75 4.4 -19.25 4.4 -19.55 4.55 -19.75 4.65 -19.95 4.9 -20.1 5.15 -20.2 5.5 -20.25
M 9.95 -27.85
Q 9.9 -28 9.8 -28.05 9.7 -28.1 9.55 -28.1 9.45 -28.15 9.25 -28.15 9.15 -28.15 9 -28.1 8.9 -28.1 8.8 -28.05 8.7 -28 8.65 -27.85 8.6 -27.75 8.6 -27.55
L 8.6 -25.95 7.75 -25.95 7.75 -27.35
Q 7.75 -27.55 7.7 -27.65 7.65 -27.75 7.55 -27.8 7.45 -27.85 7.35 -27.9 7.2 -27.9 7.1 -27.9 6.9 -27.9 6.75 -27.9 6.65 -27.85 6.5 -27.8 6.3 -27.7 6.3 -27.35
L 6.3 -22.9
Q 6.3 -22.75 6.35 -22.65 6.4 -22.5 6.5 -22.45 6.65 -22.4 6.75 -22.35 6.9 -22.35 7.1 -22.35 7.2 -22.35 7.35 -22.35 7.45 -22.4 7.55 -22.45 7.65 -22.5 7.7 -22.65 7.75 -22.75 7.75 -22.9
L 7.75 -24.55 8.6 -24.55 8.6 -22.8
Q 8.6 -22.65 8.65 -22.5 8.7 -22.4 8.8 -22.35 9 -22.25 9.25 -22.25 9.6 -22.25 9.8 -22.35 9.9 -22.4 9.95 -22.5 10 -22.65 10 -22.8
L 10 -27.55
Q 10 -27.75 9.95 -27.85
M 2.3 -25.55
Q 1.9 -25.4 1.6 -25.15 1.3 -24.85 1.1 -24.5 0.95 -24.15 0.95 -23.75 0.95 -23.35 1.1 -23 1.3 -22.65 1.6 -22.4 1.9 -22.15 2.3 -22 2.7 -21.85 3.2 -21.85 3.7 -21.85 4.1 -22 4.5 -22.15 4.8 -22.4 5.05 -22.65 5.2 -23 5.35 -23.35 5.35 -23.75 5.35 -24.15 5.2 -24.5 5.05 -24.85 4.8 -25.15 4.5 -25.4 4.1 -25.55 3.7 -25.7 3.2 -25.7 2.7 -25.7 2.3 -25.55
M 4.1 -23.75
Q 4.1 -23.6 4 -23.5 3.95 -23.35 3.8 -23.25 3.7 -23.15 3.5 -23.1 3.35 -23.05 3.2 -23.05 3 -23.05 2.85 -23.1 2.7 -23.15 2.6 -23.25 2.45 -23.35 2.4 -23.5 2.3 -23.6 2.3 -23.75 2.3 -23.9 2.4 -24.05 2.45 -24.2 2.6 -24.3 2.7 -24.4 2.85 -24.45 3 -24.5 3.2 -24.5 3.35 -24.5 3.5 -24.45 3.7 -24.4 3.8 -24.3 3.95 -24.2 4 -24.05 4.1 -23.9 4.1 -23.75
M 3.8 -27.95
Q 3.8 -28.1 3.7 -28.15 3.6 -28.2 3.5 -28.25 3.35 -28.25 3.2 -28.25 3.05 -28.25 2.95 -28.25 2.8 -28.2 2.75 -28.15 2.55 -28.05 2.55 -27.7
L 2.55 -27.2 1.1 -27.2
Q 0.7 -27.2 0.6 -27.05 0.55 -27 0.55 -26.85 0.5 -26.75 0.5 -26.6 0.5 -26.45 0.55 -26.35 0.55 -26.2 0.6 -26.15 0.65 -26.05 0.8 -26.05 0.9 -26 1.1 -26
L 5.25 -26
Q 5.45 -26 5.55 -26 5.7 -26.05 5.75 -26.15 5.85 -26.2 5.85 -26.3 5.9 -26.45 5.9 -26.6 5.9 -26.9 5.75 -27.05 5.7 -27.1 5.55 -27.15 5.45 -27.2 5.25 -27.2
L 3.85 -27.2 3.85 -27.7
Q 3.85 -27.85 3.8 -27.95
M -0.05 -22.85
Q -0.15 -23.05 -0.5 -23.05
L -10 -23.05
Q -10.2 -23.05 -10.3 -23 -10.4 -22.95 -10.45 -22.85 -10.6 -22.6 -10.6 -22.3 -10.6 -22.15 -10.6 -22.05 -10.55 -21.95 -10.45 -21.85 -10.4 -21.75 -10.3 -21.7 -10.2 -21.65 -10 -21.65
L -0.5 -21.65
Q -0.15 -21.65 -0.05 -21.85 0 -21.95 0.05 -22.05 0.05 -22.15 0.05 -22.3 0.05 -22.6 -0.05 -22.85
M -1.85 -18.75
Q -1.95 -18.85 -2.1 -18.85 -2.3 -18.85 -2.5 -18.85 -2.7 -18.75 -2.85 -18.7 -3.05 -18.65 -3.3 -18.6 -3.45 -18.55 -3.7 -18.55 -3.9 -18.5 -4.15 -18.45 -4.4 -18.45 -4.65 -18.4 -4.9 -18.4 -5.15 -18.4 -5.35 -18.4 -5.6 -18.4 -5.85 -18.4 -6.1 -18.45 -6.6 -18.5 -7 -18.6 -7 -18.7 -7.05 -18.85 -7.1 -18.95 -7.1 -19.05 -7.1 -19.2 -7.1 -19.3 -7.1 -19.45 -7.1 -19.55 -7.1 -19.65 -7.1 -19.75 -7.1 -19.85 -7.1 -19.9 -7.1 -20 -7.05 -20.05
L -7.05 -20.1
Q -7.05 -20.15 -7.05 -20.25 -7.1 -20.35 -7.1 -20.4 -7.1 -20.5 -7.15 -20.55 -7.2 -20.6 -7.25 -20.7 -7.3 -20.7 -7.4 -20.75 -7.45 -20.75 -7.5 -20.8 -7.6 -20.8 -7.65 -20.85 -7.75 -20.85 -7.8 -20.85 -7.95 -20.85 -8.1 -20.8 -8.2 -20.75 -8.35 -20.7 -8.45 -20.65 -8.55 -20.5 -8.6 -20.35 -8.6 -20.2
L -8.6 -20.15
Q -8.65 -20.1 -8.65 -19.9 -8.65 -19.8 -8.65 -19.65 -8.65 -19.55 -8.65 -19.4 -8.65 -19.3 -8.6 -19.15 -8.6 -19.05 -8.6 -18.9 -8.6 -18.8 -8.6 -18.7 -8.55 -18.6 -8.55 -18.55 -8.55 -18.45 -8.5 -18.35 -8.5 -18.25 -8.45 -18.15 -8.4 -18.05 -8.35 -17.95 -8.3 -17.85 -8.25 -17.75 -8.2 -17.7 -8.15 -17.6 -8.05 -17.5 -7.95 -17.4 -7.9 -17.35 -7.8 -17.3 -7.7 -17.25 -7.55 -17.2 -7.3 -17.1 -6.95 -17.05 -6.65 -17 -6.3 -16.95 -5.6 -16.9 -5.1 -16.9 -4.45 -16.9 -3.9 -16.95 -3.6 -17 -3.4 -17.05 -3.15 -17.1 -3 -17.1 -2.55 -17.25 -2.15 -17.35 -2.05 -17.45 -1.95 -17.55 -1.85 -17.65 -1.75 -17.75 -1.7 -17.85 -1.7 -17.95 -1.65 -18.05 -1.65 -18.15 -1.65 -18.35 -1.7 -18.5 -1.75 -18.65 -1.85 -18.75
M -5.25 -28.05
Q -6.05 -28.05 -6.7 -27.95 -7.35 -27.8 -7.8 -27.55 -8.3 -27.25 -8.55 -26.85 -8.8 -26.5 -8.8 -26 -8.8 -25.5 -8.55 -25.1 -8.3 -24.75 -7.85 -24.45 -7.5 -24.25 -7.05 -24.15 -6.6 -24 -6.1 -23.95
L -5.25 -23.9 -4.45 -23.95
Q -3.35 -24.05 -2.65 -24.45 -2.2 -24.75 -1.95 -25.1 -1.7 -25.5 -1.7 -26 -1.7 -26.5 -1.95 -26.85 -2.2 -27.25 -2.65 -27.55 -3.65 -28.05 -5.25 -28.05
M -5.25 -25.35
Q -5.7 -25.35 -6.05 -25.4 -6.4 -25.45 -6.65 -25.55 -6.9 -25.6 -7.05 -25.7 -7.15 -25.85 -7.15 -26 -7.15 -26.15 -7.05 -26.25 -6.9 -26.35 -6.65 -26.45 -6.4 -26.55 -6.05 -26.6 -5.7 -26.65 -5.25 -26.65 -4.8 -26.65 -4.45 -26.6 -4.1 -26.55 -3.85 -26.45 -3.6 -26.35 -3.45 -26.25 -3.3 -26.15 -3.3 -26 -3.3 -25.85 -3.45 -25.7 -3.6 -25.6 -3.85 -25.55 -4.1 -25.45 -4.45 -25.4 -4.8 -25.35 -5.25 -25.35 Z"/>
</g>

<path id="icon_r_box_02_30_Layer2_0_1_STROKES" stroke="#000000" stroke-width="1" stroke-linejoin="round" stroke-linecap="round" fill="none" d="
M 57.3 39.95
L 23.35 39.95 23.35 17.3 57.3 17.3 57.3 39.95 Z"/>

<path id="icon_r_box_02_30_Layer2_1_MEMBER_0_1_STROKES" stroke="#000000" stroke-width="1" stroke-linejoin="round" stroke-linecap="round" fill="none" d="
M 65.65 19.1
L 15 19.1 15 7.15 40.3 0.5 65.65 7.15 65.65 19.1 Z"/>

<path id="icon_r_box_02_30_Layer2_1_MEMBER_1_1_STROKES" stroke="#000000" stroke-width="1" stroke-linejoin="round" stroke-linecap="round" fill="none" d="
M 63.95 21.9
L 16.7 21.9 16.7 19.1 63.95 19.1 63.95 21.9 Z"/>

<path id="icon_r_box_02_30_Layer2_1_MEMBER_2_MEMBER_0_MEMBER_0_1_STROKES" stroke="#000000" stroke-width="1" stroke-linejoin="round" stroke-linecap="round" fill="none" d="
M 26.65 25.3
L 20.05 25.3
Q 19.65 25.3 19.35 25 19.05 24.75 19.05 24.35
L 19.05 21.9 27.65 21.9 27.65 24.35
Q 27.65 24.75 27.35 25 27.05 25.3 26.65 25.3 Z"/>

<path id="icon_r_box_02_30_Layer2_1_MEMBER_2_MEMBER_0_MEMBER_1_1_STROKES" stroke="#000000" stroke-width="1" stroke-linejoin="round" stroke-linecap="round" fill="none" d="
M 26.65 33.75
L 20.05 33.75
Q 19.65 33.75 19.35 34.05 19.05 34.35 19.05 34.75
L 19.05 37.15 27.65 37.15 27.65 34.75
Q 27.65 34.35 27.35 34.05 27.05 33.75 26.65 33.75 Z"/>

<path id="icon_r_box_02_30_Layer2_1_MEMBER_2_MEMBER_0_MEMBER_2_1_STROKES" stroke="#000000" stroke-width="1" stroke-linejoin="round" stroke-linecap="round" fill="none" d="
M 26.05 33.75
L 20.65 33.75 20.65 25.3 26.05 25.3 26.05 33.75 Z"/>

<path id="icon_r_box_02_30_Layer2_1_MEMBER_2_MEMBER_1_MEMBER_0_1_STROKES" stroke="#000000" stroke-width="1" stroke-linejoin="round" stroke-linecap="round" fill="none" d="
M 60.6 25.3
L 54 25.3
Q 53.6 25.3 53.3 25 53 24.75 53 24.35
L 53 21.9 61.6 21.9 61.6 24.35
Q 61.6 24.75 61.3 25 61 25.3 60.6 25.3 Z"/>

<path id="icon_r_box_02_30_Layer2_1_MEMBER_2_MEMBER_1_MEMBER_1_1_STROKES" stroke="#000000" stroke-width="1" stroke-linejoin="round" stroke-linecap="round" fill="none" d="
M 60.6 33.75
L 54 33.75
Q 53.6 33.75 53.3 34.05 53 34.35 53 34.75
L 53 37.15 61.6 37.15 61.6 34.75
Q 61.6 34.35 61.3 34.05 61 33.75 60.6 33.75 Z"/>

<path id="icon_r_box_02_30_Layer2_1_MEMBER_2_MEMBER_1_MEMBER_2_1_STROKES" stroke="#000000" stroke-width="1" stroke-linejoin="round" stroke-linecap="round" fill="none" d="
M 60 33.75
L 54.6 33.75 54.6 25.3 60 25.3 60 33.75 Z"/>

<path id="icon_r_box_02_30_Layer2_1_MEMBER_3_1_STROKES" stroke="#000000" stroke-width="1" stroke-linejoin="round" stroke-linecap="round" fill="none" d="
M 65.65 39.95
L 15 39.95 15 37.15 65.65 37.15 65.65 39.95 Z"/>

<path id="icon_r_box_02_30_Layer2_1_MEMBER_4_1_STROKES" stroke="#000000" stroke-width="1" stroke-linejoin="round" stroke-linecap="round" fill="none" d="
M 70.55 39.95
L 10.1 39.95 10.1 43.9 70.55 43.9 70.55 39.95 Z"/>

<path id="icon_r_box_02_30_Layer2_2_MEMBER_0_1_STROKES" stroke="#000000" stroke-width="1" stroke-linejoin="round" stroke-linecap="round" fill="none" d="
M 0.5 43.9
L 80.15 43.9"/>

<path id="icon_r_box_02_30_Layer2_3_1_STROKES" stroke="#000000" stroke-width="1" stroke-linejoin="round" stroke-linecap="round" fill="none" d="
M 40.85 26.45
L 39.8 26.45
Q 37.45 26.45 35.8 28.1 34.15 29.75 34.15 32.1
L 34.15 37.15 46.5 37.15 46.5 32.1
Q 46.5 29.75 44.85 28.1 43.2 26.45 40.85 26.45 Z"/>

<path id="icon_r_box_02_30_Layer2_4_1_STROKES" stroke="#000000" stroke-width="1" stroke-linejoin="round" stroke-linecap="round" fill="none" d="
M 40.3 26.45
L 40.3 37.15"/>
</defs>

<g transform="matrix( 1, 0, 0, 0.999603271484375, 65,60) ">
<g transform="matrix( 1, 0, 0, 1, 0,0) ">
<use xlink:href="#icon_r_box_02_30_Layer3_0_FILL"/>
</g>

<g transform="matrix( 1, 0, 0, 1, -0.05,0.05) ">
<use xlink:href="#icon_r_box_02_30_Layer3_1_FILL"/>
</g>

<g transform="matrix( 1, 0, 0, 1, 0,-2.15) ">
<use xlink:href="#icon_r_box_02_30_Layer3_2_FILL"/>
</g>

<g transform="matrix( 1, 0, 0, 1, 0,0.05) ">
<use xlink:href="#icon_r_box_02_30_Layer3_3_FILL"/>
</g>

<g transform="matrix( 1, 0, 0, 1, -40.3,-33.45) ">
<use xlink:href="#icon_r_box_02_30_Layer2_0_FILL"/>

<use xlink:href="#icon_r_box_02_30_Layer2_0_1_STROKES"/>
</g>

<g transform="matrix( 1, 0, 0, 1, -40.3,-33.45) ">
<use xlink:href="#icon_r_box_02_30_Layer2_1_MEMBER_0_FILL"/>

<use xlink:href="#icon_r_box_02_30_Layer2_1_MEMBER_0_1_STROKES"/>
</g>

<g transform="matrix( 1, 0, 0, 1, -40.3,-33.45) ">
<use xlink:href="#icon_r_box_02_30_Layer2_1_MEMBER_1_FILL"/>

<use xlink:href="#icon_r_box_02_30_Layer2_1_MEMBER_1_1_STROKES"/>
</g>

<g transform="matrix( 1, 0, 0, 1, -40.3,-33.45) ">
<use xlink:href="#icon_r_box_02_30_Layer2_1_MEMBER_2_MEMBER_0_MEMBER_0_FILL"/>

<use xlink:href="#icon_r_box_02_30_Layer2_1_MEMBER_2_MEMBER_0_MEMBER_0_1_STROKES"/>
</g>

<g transform="matrix( 1, 0, 0, 1, -40.3,-33.45) ">
<use xlink:href="#icon_r_box_02_30_Layer2_1_MEMBER_2_MEMBER_0_MEMBER_1_FILL"/>

<use xlink:href="#icon_r_box_02_30_Layer2_1_MEMBER_2_MEMBER_0_MEMBER_1_1_STROKES"/>
</g>

<g transform="matrix( 1, 0, 0, 1, -40.3,-33.45) ">
<use xlink:href="#icon_r_box_02_30_Layer2_1_MEMBER_2_MEMBER_0_MEMBER_2_FILL"/>

<use xlink:href="#icon_r_box_02_30_Layer2_1_MEMBER_2_MEMBER_0_MEMBER_2_1_STROKES"/>
</g>

<g transform="matrix( 1, 0, 0, 1, -40.3,-33.45) ">
<use xlink:href="#icon_r_box_02_30_Layer2_1_MEMBER_2_MEMBER_1_MEMBER_0_FILL"/>

<use xlink:href="#icon_r_box_02_30_Layer2_1_MEMBER_2_MEMBER_1_MEMBER_0_1_STROKES"/>
</g>

<g transform="matrix( 1, 0, 0, 1, -40.3,-33.45) ">
<use xlink:href="#icon_r_box_02_30_Layer2_1_MEMBER_2_MEMBER_1_MEMBER_1_FILL"/>

<use xlink:href="#icon_r_box_02_30_Layer2_1_MEMBER_2_MEMBER_1_MEMBER_1_1_STROKES"/>
</g>

<g transform="matrix( 1, 0, 0, 1, -40.3,-33.45) ">
<use xlink:href="#icon_r_box_02_30_Layer2_1_MEMBER_2_MEMBER_1_MEMBER_2_FILL"/>

<use xlink:href="#icon_r_box_02_30_Layer2_1_MEMBER_2_MEMBER_1_MEMBER_2_1_STROKES"/>
</g>

<g transform="matrix( 1, 0, 0, 1, -40.3,-33.45) ">
<use xlink:href="#icon_r_box_02_30_Layer2_1_MEMBER_3_FILL"/>

<use xlink:href="#icon_r_box_02_30_Layer2_1_MEMBER_3_1_STROKES"/>
</g>

<g transform="matrix( 1, 0, 0, 1, -40.3,-33.45) ">
<use xlink:href="#icon_r_box_02_30_Layer2_1_MEMBER_4_FILL"/>

<use xlink:href="#icon_r_box_02_30_Layer2_1_MEMBER_4_1_STROKES"/>
</g>

<g transform="matrix( 1, 0, 0, 1, -40.3,-33.45) ">
<use xlink:href="#icon_r_box_02_30_Layer2_2_MEMBER_0_1_STROKES"/>
</g>

<g transform="matrix( 1, 0, 0, 1, -40.3,-33.45) ">
<use xlink:href="#icon_r_box_02_30_Layer2_3_FILL"/>

<use xlink:href="#icon_r_box_02_30_Layer2_3_1_STROKES"/>
</g>

<g transform="matrix( 1, 0, 0, 1, -40.3,-33.45) ">
<use xlink:href="#icon_r_box_02_30_Layer2_4_1_STROKES"/>
</g>

<g transform="matrix( 1, 0, 0, 1, 0,0) ">
<use xlink:href="#icon_r_box_02_30_Layer1_0_FILL"/>
</g>
</g>
</svg>
