
<svg xmlns="http://www.w3.org/2000/svg" version="1.1" xmlns:xlink="http://www.w3.org/1999/xlink" preserveAspectRatio="none" x="0px" y="0px" width="130px" height="115px" viewBox="0 0 130 115">
<defs>
<g id="icon_r_box_02_54_Layer3_0_FILL">
<path fill="#FFFFFF" fill-opacity="0" stroke="none" d="
M 65 -55
L -65 -55 -65 25 65 25 65 -55 Z"/>
</g>

<g id="icon_r_box_02_54_Layer3_1_FILL">
<path fill="#FFFFFF" fill-opacity="0" stroke="none" d="
M 65.05 49.95
L 65.05 24.95 -64.95 24.95 -64.95 49.95 65.05 49.95 Z"/>
</g>

<g id="icon_r_box_02_54_Layer3_2_FILL">
<path fill="#FFFFFF" fill-opacity="0" stroke="none" d="
M 65 -52.85
L 65 -57.85 -65 -57.85 -65 -52.85 65 -52.85 Z"/>
</g>

<g id="icon_r_box_02_54_Layer3_3_FILL">
<path fill="#FFFFFF" fill-opacity="0" stroke="none" d="
M 65 54.95
L 65 49.95 -65 49.95 -65 54.95 65 54.95 Z"/>
</g>

<g id="icon_r_box_02_54_Layer2_0_MEMBER_0_MEMBER_0_FILL">
<path fill="#FFD252" stroke="none" d="
M 35.8 6.95
Q 29.8 1 21.35 1 12.9 1 6.95 6.95 1 12.9 1 21.35 1 29.8 6.95 35.75 12.9 41.75 21.35 41.75 29.8 41.75 35.8 35.75 41.75 29.8 41.75 21.35 41.75 12.9 35.8 6.95 Z"/>
</g>

<g id="icon_r_box_02_54_Layer2_0_MEMBER_0_MEMBER_1_MEMBER_0_FILL">
<path fill="#000000" stroke="none" d="
M 18 18.4
Q 18 16.9 17.2 15.85 16.4 14.8 15.25 14.8 14.15 14.8 13.35 15.85 12.55 16.9 12.55 18.4 12.55 19.95 13.35 21 14.1 22.05 15.25 22.05 16.4 22.05 17.2 21 18 19.95 18 18.4 Z"/>
</g>

<g id="icon_r_box_02_54_Layer2_0_MEMBER_2_MEMBER_0_FILL">
<path fill="#FFD252" stroke="none" d="
M 23.15 25.9
Q 21.65 25.9 21.05 27.35
L 21.05 32.25
Q 21.65 33.7 23.15 33.7 24.05 33.7 24.7 33.05 25.35 32.4 25.35 31.45 25.35 30.45 24.6 29.8 25.35 29.15 25.35 28.15 25.35 27.2 24.7 26.55 24.05 25.9 23.15 25.9 Z"/>
</g>

<g id="icon_r_box_02_54_Layer2_0_MEMBER_3_MEMBER_0_FILL">
<path fill="#FF3F4E" stroke="none" d="
M 45.75 32.45
Q 46.15 31.15 45.55 29.9 44.9 28.6 43.55 28.2 42.35 27.8 41.15 28.3 40 28.8 39.45 29.95 39.7 28.7 39.05 27.6 38.4 26.45 37.15 26.1 35.85 25.65 34.55 26.3 33.3 26.9 32.85 28.25 32.15 30.6 33.65 33.4 35.1 36 36.9 37.55
L 36.95 37.55
Q 39.1 37.45 42.05 36.15 45 34.75 45.75 32.45 Z"/>
</g>

<g id="icon_r_box_02_54_Layer2_0_MEMBER_3_MEMBER_1_FILL">
<path fill="#000000" stroke="none" d="
M 44.2 26.3
Q 43.4 26 42.5 26 41.65 26 40.6 26.35 39.55 24.7 37.8 24.2 37 23.9 36.1 23.9 34.35 23.9 32.95 24.95 31.5 25.95 30.95 27.6 29.9 30.75 31.9 34.35 33.45 37.15 35.6 39.05
L 35.85 39.25 36.3 39.45 36.35 39.5 36.8 39.55 37.1 39.55
Q 39.9 39.35 42.85 37.95 46.6 36.3 47.65 33.1 48.35 30.95 47.3 28.95 46.3 27 44.2 26.3
M 40.7 28.55
Q 41.5 28 42.5 28 43.1 28 43.55 28.2 44.9 28.6 45.55 29.9 46.15 31.15 45.75 32.45 45 34.75 42.05 36.15 39.1 37.45 36.95 37.55
L 36.9 37.55
Q 35.1 36 33.65 33.4 32.15 30.6 32.85 28.25 33.2 27.15 34.1 26.55 35 25.9 36.1 25.9 36.7 25.9 37.15 26.1 38.4 26.45 39.05 27.6 39.7 28.7 39.45 29.95 39.85 29.05 40.7 28.55 Z"/>
</g>

<path id="icon_r_box_02_54_Layer2_0_MEMBER_0_MEMBER_0_1_STROKES" stroke="#000000" stroke-width="2" stroke-linejoin="miter" stroke-linecap="round" stroke-miterlimit="10" fill="none" d="
M 41.75 21.35
Q 41.75 29.8 35.8 35.75 29.8 41.75 21.35 41.75 12.9 41.75 6.95 35.75 1 29.8 1 21.35 1 12.9 6.95 6.95 12.9 1 21.35 1 29.8 1 35.8 6.95 41.75 12.9 41.75 21.35 Z"/>

<path id="icon_r_box_02_54_Layer2_0_MEMBER_1_MEMBER_0_MEMBER_0_1_STROKES" stroke="#000000" stroke-width="2" stroke-linejoin="round" stroke-linecap="round" fill="none" d="
M 30.45 15.45
L 25.35 18.4 29.95 20.85"/>

<path id="icon_r_box_02_54_Layer2_0_MEMBER_2_MEMBER_1_1_STROKES" stroke="#000000" stroke-width="2" stroke-linejoin="miter" stroke-linecap="round" stroke-miterlimit="10" fill="none" d="
M 21.05 27.35
Q 21.65 25.9 23.15 25.9 24.05 25.9 24.7 26.55 25.35 27.2 25.35 28.15 25.35 29.15 24.6 29.8 25.35 30.45 25.35 31.45 25.35 32.4 24.7 33.05 24.05 33.7 23.15 33.7 21.65 33.7 21.05 32.25"/>
</defs>

<g transform="matrix( 1, 0, 0, 0.999603271484375, 65,60) ">
<g transform="matrix( 1, 0, 0, 1, 0,0) ">
<use xlink:href="#icon_r_box_02_54_Layer3_0_FILL"/>
</g>

<g transform="matrix( 1, 0, 0, 1, -0.05,0.05) ">
<use xlink:href="#icon_r_box_02_54_Layer3_1_FILL"/>
</g>

<g transform="matrix( 1, 0, 0, 1, 0,-2.15) ">
<use xlink:href="#icon_r_box_02_54_Layer3_2_FILL"/>
</g>

<g transform="matrix( 1, 0, 0, 1, 0,0.05) ">
<use xlink:href="#icon_r_box_02_54_Layer3_3_FILL"/>
</g>

<g transform="matrix( 1, 0, 0, 1, -21.45,-36.4) ">
<use xlink:href="#icon_r_box_02_54_Layer2_0_MEMBER_0_MEMBER_0_FILL"/>

<use xlink:href="#icon_r_box_02_54_Layer2_0_MEMBER_0_MEMBER_0_1_STROKES"/>
</g>

<g transform="matrix( 1, 0, 0, 1, -21.45,-36.4) ">
<use xlink:href="#icon_r_box_02_54_Layer2_0_MEMBER_0_MEMBER_1_MEMBER_0_FILL"/>
</g>

<g transform="matrix( 1, 0, 0, 1, -21.45,-36.4) ">
<use xlink:href="#icon_r_box_02_54_Layer2_0_MEMBER_1_MEMBER_0_MEMBER_0_1_STROKES"/>
</g>

<g transform="matrix( 1, 0, 0, 1, -21.45,-36.4) ">
<use xlink:href="#icon_r_box_02_54_Layer2_0_MEMBER_2_MEMBER_0_FILL"/>
</g>

<g transform="matrix( 1, 0, 0, 1, -21.45,-36.4) ">
<use xlink:href="#icon_r_box_02_54_Layer2_0_MEMBER_2_MEMBER_1_1_STROKES"/>
</g>

<g transform="matrix( 1, 0, 0, 1, -21.45,-36.4) ">
<use xlink:href="#icon_r_box_02_54_Layer2_0_MEMBER_3_MEMBER_0_FILL"/>
</g>

<g transform="matrix( 1, 0, 0, 1, -21.45,-36.4) ">
<use xlink:href="#icon_r_box_02_54_Layer2_0_MEMBER_3_MEMBER_1_FILL"/>
</g>
</g>
</svg>
