
<svg xmlns="http://www.w3.org/2000/svg" version="1.1" xmlns:xlink="http://www.w3.org/1999/xlink" preserveAspectRatio="none" x="0px" y="0px" width="130px" height="115px" viewBox="0 0 130 115">
<defs>
<g id="icon_r_box_02_19_Layer3_0_FILL">
<path fill="#FFFFFF" fill-opacity="0" stroke="none" d="
M 65 -55
L -65 -55 -65 25 65 25 65 -55 Z"/>
</g>

<g id="icon_r_box_02_19_Layer3_1_FILL">
<path fill="#FFFFFF" fill-opacity="0" stroke="none" d="
M 65.05 49.95
L 65.05 24.95 -64.95 24.95 -64.95 49.95 65.05 49.95 Z"/>
</g>

<g id="icon_r_box_02_19_Layer3_2_FILL">
<path fill="#FFFFFF" fill-opacity="0" stroke="none" d="
M 65 -52.85
L 65 -57.85 -65 -57.85 -65 -52.85 65 -52.85 Z"/>
</g>

<g id="icon_r_box_02_19_Layer3_3_FILL">
<path fill="#FFFFFF" fill-opacity="0" stroke="none" d="
M 65 54.95
L 65 49.95 -65 49.95 -65 54.95 65 54.95 Z"/>
</g>

<g id="icon_r_box_02_19_Layer2_0_MEMBER_0_MEMBER_0_MEMBER_0_MEMBER_0_FILL">
<path fill="#B0B0B0" stroke="none" d="
M 37.2 7.85
Q 35.85 6.85 35.05 9.25 34.3 11.55 34.9 13.35 35.05 14.05 35.65 14.5 36.2 14.95 36.8 14.75 37.25 14.55 37.2 13.6 37 12.45 36.95 12 36.9 11.45 37.1 10.85 37.3 10.15 37.4 9.75 37.8 8.2 37.2 7.85 Z"/>
</g>

<g id="icon_r_box_02_19_Layer2_0_MEMBER_0_MEMBER_0_MEMBER_1_FILL">
<path fill="#B0B0B0" stroke="none" d="
M 27.25 9.25
Q 26.45 6.85 25.1 7.85 24.45 8.15 24.85 9.75 25.35 11.3 25.3 12 25.25 12.45 25.05 13.6 25 14.55 25.45 14.75 26.05 14.95 26.65 14.5 27.2 14.05 27.4 13.35 28 11.55 27.25 9.25 Z"/>
</g>

<g id="icon_r_box_02_19_Layer2_0_MEMBER_0_MEMBER_0_MEMBER_2_FILL">
<path fill="#D4D3D5" stroke="none" d="
M 45.15 21.95
Q 44.85 19.6 42.05 18.6 40.85 18.15 37.7 17.55
L 34.8 17.05 34.55 15.75
Q 35.1 14.25 35.5 12.4 35.95 10.5 35.9 9.6 36.1 6.95 35.35 5.15 34.85 4.05 32.95 3.4
L 31.15 2.95
Q 30.3 3.05 29.35 3.4 27.4 4.05 26.9 5.15 26.15 6.95 26.35 9.6 26.35 10.55 26.75 12.4 27.2 14.3 27.75 15.75
L 27.2 17
Q 22 17.25 19.9 18.3 18.45 19.05 17.65 20.45 17 21.6 16.6 23.7 16.1 26.25 16 33.4
L 14.95 35.8
Q 13.9 38.45 13.75 39.55
L 12.3 41.25 12.25 41.35 10.9 41.55
Q 7.45 42.3 6.45 43.95 5.5 45.5 5.75 47.7 5.95 49.7 6.95 50.65
L 55.05 50.65
Q 55.95 50 56.5 48.8 57.65 46.5 56.05 44.05 54.5 41.6 50.8 40.9
L 47.4 40.65
Q 47.85 39.9 46.95 39.5 46.15 39.1 45.3 39
L 44.65 39
Q 46.75 38.1 46.85 36.45 46.9 35.25 45.15 21.95 Z"/>
</g>

<g id="icon_r_box_02_19_Layer2_0_MEMBER_0_MEMBER_0_MEMBER_3_MEMBER_1_MEMBER_0_MEMBER_0_FILL">
<path fill="#B0B0B0" stroke="none" d="
M 33.65 2.3
Q 33.65 1.55 32.9 1.05 32.15 0.5 31.15 0.5 30.1 0.5 29.4 1.05 28.65 1.55 28.65 2.3 28.65 3.05 29.4 3.6 30.1 4.1 31.15 4.1 32.15 4.1 32.9 3.6 33.65 3.05 33.65 2.3 Z"/>
</g>

<g id="icon_r_box_02_19_Layer2_0_MEMBER_0_MEMBER_0_MEMBER_3_MEMBER_1_MEMBER_0_MEMBER_1_FILL">
<path fill="#B0B0B0" stroke="none" d="
M 35.9 9.6
L 36.3 9.25
Q 36.7 8.6 36.6 7.15 36.5 4.8 35.65 3.6 34.35 1.8 31.15 1.8 27.9 1.8 26.6 3.6 25.75 4.8 25.65 7.15 25.55 8.6 25.95 9.25 26.15 9.6 26.35 9.6 26.35 7.85 26.85 6.25 27.25 5.15 28.25 4.8 29.05 4.5 31.15 4.5 33.2 4.5 34 4.8 35.05 5.15 35.4 6.25 35.9 7.85 35.9 9.6 Z"/>
</g>

<g id="icon_r_box_02_19_Layer2_0_MEMBER_0_MEMBER_0_MEMBER_3_MEMBER_1_MEMBER_1_MEMBER_0_FILL">
<path fill="#FFFFFF" stroke="none" d="
M 33.3 13.85
Q 32.35 14.25 31.15 14.25 29.9 14.25 28.95 13.85 29.6 14.85 31.15 14.85 32.65 14.85 33.3 13.85 Z"/>
</g>

<g id="icon_r_box_02_19_Layer2_0_MEMBER_0_MEMBER_0_MEMBER_3_MEMBER_1_MEMBER_1_MEMBER_1_FILL">
<path fill="#000000" stroke="none" d="
M 31.15 14.85
Q 32.65 14.85 33.3 13.85 32.35 14.25 31.15 14.25 29.9 14.25 28.95 13.85 29.6 14.85 31.15 14.85 Z"/>
</g>

<g id="icon_r_box_02_19_Layer2_0_MEMBER_0_MEMBER_0_MEMBER_3_MEMBER_1_MEMBER_2_MEMBER_0_FILL">
<path fill="#FFFFFF" stroke="none" d="
M 31.45 8.15
L 32.5 7.45
Q 33.7 6.95 34.75 7.8 34.15 6.9 32.95 7 31.8 7.15 31.15 7.95 30.5 7.15 29.35 7 28.1 6.9 27.55 7.8 28.55 6.95 29.8 7.45 30.4 7.7 30.8 8.15
L 30.2 10.65
Q 30 11.2 31.15 11.2 32.3 11.2 32.05 10.65
L 31.45 8.15 Z"/>
</g>

<g id="icon_r_box_02_19_Layer2_0_MEMBER_0_MEMBER_0_MEMBER_3_MEMBER_1_MEMBER_2_MEMBER_1_FILL">
<path fill="#000000" stroke="none" d="
M 34.75 7.8
Q 34.15 7 33.2 7 31.95 7 31.15 7.95 30.3 7 29.05 7 28.05 7 27.55 7.8 28.15 7.25 28.9 7.25 29.95 7.25 30.8 8.15
L 30.2 10.65
Q 29.95 11.2 31.15 11.2 31.55 11.2 31.85 11.05 32.15 10.9 32.05 10.65
L 31.45 8.15 32 7.7
Q 32.7 7.25 33.35 7.25 34.05 7.25 34.75 7.8 Z"/>
</g>

<g id="icon_r_box_02_19_Layer2_0_MEMBER_0_MEMBER_0_MEMBER_3_MEMBER_1_MEMBER_3_MEMBER_0_MEMBER_0_FILL">
<path fill="#FFFFFF" stroke="none" d="
M 32.85 12.15
Q 32.35 11.7 31.85 11.65 31.4 11.6 31.15 11.9 30.9 11.6 30.4 11.65 29.9 11.7 29.4 12.15
L 32.85 12.15 Z"/>
</g>

<g id="icon_r_box_02_19_Layer2_0_MEMBER_0_MEMBER_0_MEMBER_3_MEMBER_1_MEMBER_3_MEMBER_0_MEMBER_1_FILL">
<path fill="#000000" stroke="none" d="
M 31.15 11.9
Q 30.95 11.65 30.55 11.65 29.95 11.65 29.4 12.15
L 32.85 12.15
Q 32.3 11.65 31.7 11.65 31.3 11.65 31.15 11.9 Z"/>
</g>

<g id="icon_r_box_02_19_Layer2_0_MEMBER_0_MEMBER_0_MEMBER_3_MEMBER_1_MEMBER_4_MEMBER_0_FILL">
<path fill="#FFFFFF" stroke="none" d="
M 31.35 6.95
Q 31.35 6.7 31.15 6.7 30.9 6.7 30.9 6.95 30.9 7.15 31.15 7.15 31.35 7.15 31.35 6.95 Z"/>
</g>

<g id="icon_r_box_02_19_Layer2_0_MEMBER_0_MEMBER_0_MEMBER_3_MEMBER_1_MEMBER_4_MEMBER_1_FILL">
<path fill="#000000" stroke="none" d="
M 31.35 6.95
Q 31.35 6.7 31.15 6.7 30.9 6.7 30.9 6.95 30.9 7.15 31.15 7.15 31.35 7.15 31.35 6.95 Z"/>
</g>

<g id="icon_r_box_02_19_Layer2_0_MEMBER_0_MEMBER_0_MEMBER_3_MEMBER_1_MEMBER_5_MEMBER_0_MEMBER_0_FILL">
<path fill="#FFFFFF" stroke="none" d="
M 34.9 8.75
L 32.05 8.75
Q 32.95 9.05 33.45 9.05 34 9.05 34.9 8.75 Z"/>
</g>

<g id="icon_r_box_02_19_Layer2_0_MEMBER_0_MEMBER_0_MEMBER_3_MEMBER_1_MEMBER_5_MEMBER_0_MEMBER_1_FILL">
<path fill="#000000" stroke="none" d="
M 33.45 9.05
Q 34 9.05 34.9 8.75
L 32.05 8.75
Q 32.95 9.05 33.45 9.05 Z"/>
</g>

<g id="icon_r_box_02_19_Layer2_0_MEMBER_0_MEMBER_0_MEMBER_3_MEMBER_1_MEMBER_5_MEMBER_1_MEMBER_0_FILL">
<path fill="#FFFFFF" stroke="none" d="
M 30.2 8.75
L 27.35 8.75
Q 28.25 9.05 28.8 9.05 29.3 9.05 30.2 8.75 Z"/>
</g>

<g id="icon_r_box_02_19_Layer2_0_MEMBER_0_MEMBER_0_MEMBER_3_MEMBER_1_MEMBER_5_MEMBER_1_MEMBER_1_FILL">
<path fill="#000000" stroke="none" d="
M 28.8 9.05
Q 29.3 9.05 30.2 8.75
L 27.35 8.75
Q 28.25 9.05 28.8 9.05 Z"/>
</g>

<g id="icon_r_box_02_19_Layer2_0_MEMBER_0_MEMBER_0_MEMBER_4_MEMBER_0_FILL">
<path fill="#FFFFFF" stroke="none" d="
M 32.85 12.15
L 29.4 12.15
Q 29.85 12.7 31.15 12.7 32.4 12.7 32.85 12.15 Z"/>
</g>

<g id="icon_r_box_02_19_Layer2_0_MEMBER_0_MEMBER_0_MEMBER_4_MEMBER_1_FILL">
<path fill="#000000" stroke="none" d="
M 31.15 12.7
Q 32.4 12.7 32.85 12.15
L 29.4 12.15
Q 29.85 12.7 31.15 12.7 Z"/>
</g>

<g id="icon_r_box_02_19_Layer2_0_MEMBER_0_MEMBER_1_FILL">
<path fill="#B0B0B0" stroke="none" d="
M 4.6 50.65
L 4.6 53.9 58.05 53.9 58.05 50.65 4.6 50.65 Z"/>
</g>

<path id="icon_r_box_02_19_Layer2_0_MEMBER_0_MEMBER_0_MEMBER_0_MEMBER_0_1_STROKES" stroke="#000000" stroke-width="1" stroke-linejoin="round" stroke-linecap="round" fill="none" d="
M 37.2 7.85
Q 37.8 8.2 37.4 9.75 37.3 10.15 37.1 10.85 36.9 11.45 36.95 12 37 12.45 37.2 13.6 37.25 14.55 36.8 14.75 36.2 14.95 35.65 14.5 35.05 14.05 34.9 13.35 34.3 11.55 35.05 9.25 35.85 6.85 37.2 7.85 Z"/>

<path id="icon_r_box_02_19_Layer2_0_MEMBER_0_MEMBER_0_MEMBER_1_1_STROKES" stroke="#000000" stroke-width="1" stroke-linejoin="round" stroke-linecap="round" fill="none" d="
M 25.1 7.85
Q 24.45 8.15 24.85 9.75 25.35 11.3 25.3 12 25.25 12.45 25.05 13.6 25 14.55 25.45 14.75 26.05 14.95 26.65 14.5 27.2 14.05 27.4 13.35 28 11.55 27.25 9.25 26.45 6.85 25.1 7.85 Z"/>

<path id="icon_r_box_02_19_Layer2_0_MEMBER_0_MEMBER_0_MEMBER_2_1_STROKES" stroke="#000000" stroke-width="1" stroke-linejoin="round" stroke-linecap="round" fill="none" d="
M 55.05 50.65
L 6.95 50.65
Q 5.95 49.7 5.75 47.7 5.5 45.5 6.45 43.95 7.45 42.3 10.9 41.55
L 12.25 41.35 12.3 41.25 13.75 39.55
Q 13.9 38.45 14.95 35.8
L 16 33.4
Q 16.1 26.25 16.6 23.7 17 21.6 17.65 20.45 18.45 19.05 19.9 18.3 22 17.25 27.2 17
L 27.75 15.75
Q 27.2 14.3 26.75 12.4 26.35 10.55 26.35 9.6 26.15 6.95 26.9 5.15 27.4 4.05 29.35 3.4 30.3 3.05 31.15 2.95
L 32.95 3.4
Q 34.85 4.05 35.35 5.15 36.1 6.95 35.9 9.6 35.95 10.5 35.5 12.4 35.1 14.25 34.55 15.75
L 34.8 17.05 37.7 17.55
Q 40.85 18.15 42.05 18.6 44.85 19.6 45.15 21.95 46.9 35.25 46.85 36.45 46.75 38.1 44.65 39
L 45.3 39
Q 46.15 39.1 46.95 39.5 47.85 39.9 47.4 40.65
L 50.8 40.9
Q 54.5 41.6 56.05 44.05 57.65 46.5 56.5 48.8 55.95 50 55.05 50.65 Z"/>

<path id="icon_r_box_02_19_Layer2_0_MEMBER_0_MEMBER_0_MEMBER_3_MEMBER_0_1_STROKES" stroke="#000000" stroke-width="1" stroke-linejoin="round" stroke-linecap="butt" fill="none" d="
M 37.4 39.05
L 35.1 36 32.75 37.05
Q 31.1 36.3 30.35 36.35 29.9 36.4 29.55 36.6 29 36.95 28.75 37.05 28.35 37.2 27.9 37.2 27.35 37.2 27.05 37.3 26.6 37.4 26.45 37.75 26.3 38.1 26.6 38.25 27 38.4 29.15 38.5
L 25.75 39.3
Q 24.5 38.85 23.9 38.9 23.45 39 23.35 39.6 23.3 40.25 23.65 40.65 24.3 41.35 26.25 41.6"/>

<path id="icon_r_box_02_19_Layer2_0_MEMBER_0_MEMBER_0_MEMBER_3_MEMBER_1_MEMBER_0_MEMBER_0_1_STROKES" stroke="#000000" stroke-width="1" stroke-linejoin="round" stroke-linecap="round" fill="none" d="
M 33.65 2.3
Q 33.65 3.05 32.9 3.6 32.15 4.1 31.15 4.1 30.1 4.1 29.4 3.6 28.65 3.05 28.65 2.3 28.65 1.55 29.4 1.05 30.1 0.5 31.15 0.5 32.15 0.5 32.9 1.05 33.65 1.55 33.65 2.3 Z"/>

<path id="icon_r_box_02_19_Layer2_0_MEMBER_0_MEMBER_0_MEMBER_3_MEMBER_1_MEMBER_0_MEMBER_1_1_STROKES" stroke="#000000" stroke-width="1" stroke-linejoin="round" stroke-linecap="round" fill="none" d="
M 35.9 9.6
Q 35.9 7.85 35.4 6.25 35.05 5.15 34 4.8 33.2 4.5 31.15 4.5 29.05 4.5 28.25 4.8 27.25 5.15 26.85 6.25 26.35 7.85 26.35 9.6 26.15 9.6 25.95 9.25 25.55 8.6 25.65 7.15 25.75 4.8 26.6 3.6 27.9 1.8 31.15 1.8 34.35 1.8 35.65 3.6 36.5 4.8 36.6 7.15 36.7 8.6 36.3 9.25
L 35.9 9.6 Z"/>

<path id="icon_r_box_02_19_Layer2_0_MEMBER_0_MEMBER_0_MEMBER_5_1_STROKES" stroke="#000000" stroke-width="1" stroke-linejoin="miter" stroke-linecap="round" stroke-miterlimit="10" fill="none" d="
M 18.5 33
L 19.75 32.8
Q 21.15 32.8 22 33.75"/>

<path id="icon_r_box_02_19_Layer2_0_MEMBER_0_MEMBER_0_MEMBER_6_1_STROKES" stroke="#000000" stroke-width="1" stroke-linejoin="miter" stroke-linecap="round" stroke-miterlimit="10" fill="none" d="
M 22 24.7
L 22 35.4
Q 22 36.6 18.5 40.65
L 19.1 41.4
Q 19.7 42.25 19.8 42.85 19.9 43.55 19.35 44.35 18.8 45.15 18.25 45.05 17.8 45 17.9 44.15
L 18.05 43.3 17.1 42.35 16.4 43.3
Q 15.75 44.3 15.95 44.85 16.55 46.5 15.55 46.7 14.85 46.85 14.05 46.5 13.05 46.05 12.45 44.85 11.85 43.75 12 42.45
L 12.25 41.35"/>

<path id="icon_r_box_02_19_Layer2_0_MEMBER_0_MEMBER_0_MEMBER_7_1_STROKES" stroke="#000000" stroke-width="1" stroke-linejoin="round" stroke-linecap="butt" fill="none" d="
M 19.6 42.65
L 37.3 39.95
Q 37.3 39.5 37.4 39 37.7 38.05 38.4 37.9 39.45 37.7 40.3 37.85 41.35 38 41.6 38.65
L 44.65 39"/>

<path id="icon_r_box_02_19_Layer2_0_MEMBER_0_MEMBER_0_MEMBER_8_MEMBER_0_1_STROKES" stroke="#000000" stroke-width="1" stroke-linejoin="miter" stroke-linecap="round" stroke-miterlimit="10" fill="none" d="
M 28.05 41.35
L 34.25 47.7"/>

<path id="icon_r_box_02_19_Layer2_0_MEMBER_0_MEMBER_0_MEMBER_9_MEMBER_0_1_STROKES" stroke="#000000" stroke-width="1" stroke-linejoin="miter" stroke-linecap="round" stroke-miterlimit="10" fill="none" d="
M 25.2 41.85
L 29.75 47.85"/>

<path id="icon_r_box_02_19_Layer2_0_MEMBER_0_MEMBER_0_MEMBER_10_MEMBER_0_1_STROKES" stroke="#000000" stroke-width="1" stroke-linejoin="miter" stroke-linecap="round" stroke-miterlimit="10" fill="none" d="
M 22.95 42.1
L 24.55 47.3"/>

<path id="icon_r_box_02_19_Layer2_0_MEMBER_0_MEMBER_0_MEMBER_11_1_STROKES" stroke="#000000" stroke-width="1" stroke-linejoin="miter" stroke-linecap="round" stroke-miterlimit="10" fill="none" d="
M 32.65 45.95
L 36.6 43.3
Q 41.7 40.65 47.4 40.65"/>

<path id="icon_r_box_02_19_Layer2_0_MEMBER_0_MEMBER_0_MEMBER_12_MEMBER_0_1_STROKES" stroke="#000000" stroke-width="1" stroke-linejoin="miter" stroke-linecap="round" stroke-miterlimit="10" fill="none" d="
M 38.25 47.3
L 40.35 50.65"/>

<path id="icon_r_box_02_19_Layer2_0_MEMBER_0_MEMBER_0_MEMBER_13_MEMBER_0_1_STROKES" stroke="#000000" stroke-width="1" stroke-linejoin="miter" stroke-linecap="round" stroke-miterlimit="10" fill="none" d="
M 41.6 47.7
L 42.95 50.65"/>

<path id="icon_r_box_02_19_Layer2_0_MEMBER_0_MEMBER_0_MEMBER_14_MEMBER_0_1_STROKES" stroke="#000000" stroke-width="1" stroke-linejoin="miter" stroke-linecap="round" stroke-miterlimit="10" fill="none" d="
M 44.05 45.3
L 45 48.7"/>

<path id="icon_r_box_02_19_Layer2_0_MEMBER_0_MEMBER_0_MEMBER_15_1_STROKES" stroke="#000000" stroke-width="1" stroke-linejoin="miter" stroke-linecap="round" stroke-miterlimit="10" fill="none" d="
M 35.1 36
L 40.7 33.75
Q 40.45 32.25 40.45 30.3 40.45 26.45 41.7 24.45"/>

<path id="icon_r_box_02_19_Layer2_0_MEMBER_0_MEMBER_0_MEMBER_16_MEMBER_0_1_STROKES" stroke="#000000" stroke-width="1" stroke-linejoin="miter" stroke-linecap="round" stroke-miterlimit="10" fill="none" d="
M 42.95 27.65
L 42.3 32.3"/>

<path id="icon_r_box_02_19_Layer2_0_MEMBER_0_MEMBER_0_MEMBER_17_1_STROKES" stroke="#000000" stroke-width="1" stroke-linejoin="miter" stroke-linecap="round" stroke-miterlimit="10" fill="none" d="
M 22 32.4
Q 24.4 32.6 26.95 32.2 30.3 31.65 32.1 30.25"/>

<path id="icon_r_box_02_19_Layer2_0_MEMBER_0_MEMBER_0_MEMBER_18_1_STROKES" stroke="#000000" stroke-width="1" stroke-linejoin="miter" stroke-linecap="round" stroke-miterlimit="10" fill="none" d="
M 37.4 17.5
Q 36.25 21.15 34 23.65 30 28.1 22 30.25"/>

<path id="icon_r_box_02_19_Layer2_0_MEMBER_0_MEMBER_1_1_STROKES" stroke="#000000" stroke-width="1" stroke-linejoin="round" stroke-linecap="round" fill="none" d="
M 58.05 53.9
L 4.6 53.9 4.6 50.65 58.05 50.65 58.05 53.9 Z"/>

<path id="icon_r_box_02_19_Layer2_0_MEMBER_0_MEMBER_2_1_STROKES" stroke="#000000" stroke-width="1" stroke-linejoin="round" stroke-linecap="round" fill="none" d="
M 0.5 53.9
L 62.15 53.9"/>

<path id="icon_r_box_02_19_Layer2_0_MEMBER_1_1_STROKES" stroke="#000000" stroke-width="1" stroke-linejoin="round" stroke-linecap="round" fill="none" d="
M 28.4 34.5
Q 31.05 34.15 33.35 33.1 36.45 31.7 37.6 29.5"/>
</defs>

<g transform="matrix( 1, 0, 0, 0.999603271484375, 65,60) ">
<g transform="matrix( 1, 0, 0, 1, 0,0) ">
<use xlink:href="#icon_r_box_02_19_Layer3_0_FILL"/>
</g>

<g transform="matrix( 1, 0, 0, 1, -0.05,0.05) ">
<use xlink:href="#icon_r_box_02_19_Layer3_1_FILL"/>
</g>

<g transform="matrix( 1, 0, 0, 1, 0,-2.15) ">
<use xlink:href="#icon_r_box_02_19_Layer3_2_FILL"/>
</g>

<g transform="matrix( 1, 0, 0, 1, 0,0.05) ">
<use xlink:href="#icon_r_box_02_19_Layer3_3_FILL"/>
</g>

<g transform="matrix( 1, 0, 0, 1, -31.3,-42.2) ">
<use xlink:href="#icon_r_box_02_19_Layer2_0_MEMBER_0_MEMBER_0_MEMBER_0_MEMBER_0_FILL"/>

<use xlink:href="#icon_r_box_02_19_Layer2_0_MEMBER_0_MEMBER_0_MEMBER_0_MEMBER_0_1_STROKES"/>
</g>

<g transform="matrix( 1, 0, 0, 1, -31.3,-42.2) ">
<use xlink:href="#icon_r_box_02_19_Layer2_0_MEMBER_0_MEMBER_0_MEMBER_1_FILL"/>

<use xlink:href="#icon_r_box_02_19_Layer2_0_MEMBER_0_MEMBER_0_MEMBER_1_1_STROKES"/>
</g>

<g transform="matrix( 1, 0, 0, 1, -31.3,-42.2) ">
<use xlink:href="#icon_r_box_02_19_Layer2_0_MEMBER_0_MEMBER_0_MEMBER_2_FILL"/>

<use xlink:href="#icon_r_box_02_19_Layer2_0_MEMBER_0_MEMBER_0_MEMBER_2_1_STROKES"/>
</g>

<g transform="matrix( 1, 0, 0, 1, -31.3,-42.2) ">
<use xlink:href="#icon_r_box_02_19_Layer2_0_MEMBER_0_MEMBER_0_MEMBER_3_MEMBER_0_1_STROKES"/>
</g>

<g transform="matrix( 1, 0, 0, 1, -31.3,-42.2) ">
<use xlink:href="#icon_r_box_02_19_Layer2_0_MEMBER_0_MEMBER_0_MEMBER_3_MEMBER_1_MEMBER_0_MEMBER_0_FILL"/>

<use xlink:href="#icon_r_box_02_19_Layer2_0_MEMBER_0_MEMBER_0_MEMBER_3_MEMBER_1_MEMBER_0_MEMBER_0_1_STROKES"/>
</g>

<g transform="matrix( 1, 0, 0, 1, -31.3,-42.2) ">
<use xlink:href="#icon_r_box_02_19_Layer2_0_MEMBER_0_MEMBER_0_MEMBER_3_MEMBER_1_MEMBER_0_MEMBER_1_FILL"/>

<use xlink:href="#icon_r_box_02_19_Layer2_0_MEMBER_0_MEMBER_0_MEMBER_3_MEMBER_1_MEMBER_0_MEMBER_1_1_STROKES"/>
</g>

<g transform="matrix( 1, 0, 0, 1, -31.3,-42.2) ">
<use xlink:href="#icon_r_box_02_19_Layer2_0_MEMBER_0_MEMBER_0_MEMBER_3_MEMBER_1_MEMBER_1_MEMBER_0_FILL"/>
</g>

<g transform="matrix( 1, 0, 0, 1, -31.3,-42.2) ">
<use xlink:href="#icon_r_box_02_19_Layer2_0_MEMBER_0_MEMBER_0_MEMBER_3_MEMBER_1_MEMBER_1_MEMBER_1_FILL"/>
</g>

<g transform="matrix( 1, 0, 0, 1, -31.3,-42.2) ">
<use xlink:href="#icon_r_box_02_19_Layer2_0_MEMBER_0_MEMBER_0_MEMBER_3_MEMBER_1_MEMBER_2_MEMBER_0_FILL"/>
</g>

<g transform="matrix( 1, 0, 0, 1, -31.3,-42.2) ">
<use xlink:href="#icon_r_box_02_19_Layer2_0_MEMBER_0_MEMBER_0_MEMBER_3_MEMBER_1_MEMBER_2_MEMBER_1_FILL"/>
</g>

<g transform="matrix( 1, 0, 0, 1, -31.3,-42.2) ">
<use xlink:href="#icon_r_box_02_19_Layer2_0_MEMBER_0_MEMBER_0_MEMBER_3_MEMBER_1_MEMBER_3_MEMBER_0_MEMBER_0_FILL"/>
</g>

<g transform="matrix( 1, 0, 0, 1, -31.3,-42.2) ">
<use xlink:href="#icon_r_box_02_19_Layer2_0_MEMBER_0_MEMBER_0_MEMBER_3_MEMBER_1_MEMBER_3_MEMBER_0_MEMBER_1_FILL"/>
</g>

<g transform="matrix( 1, 0, 0, 1, -31.3,-42.2) ">
<use xlink:href="#icon_r_box_02_19_Layer2_0_MEMBER_0_MEMBER_0_MEMBER_3_MEMBER_1_MEMBER_4_MEMBER_0_FILL"/>
</g>

<g transform="matrix( 1, 0, 0, 1, -31.3,-42.2) ">
<use xlink:href="#icon_r_box_02_19_Layer2_0_MEMBER_0_MEMBER_0_MEMBER_3_MEMBER_1_MEMBER_4_MEMBER_1_FILL"/>
</g>

<g transform="matrix( 1, 0, 0, 1, -31.3,-42.2) ">
<use xlink:href="#icon_r_box_02_19_Layer2_0_MEMBER_0_MEMBER_0_MEMBER_3_MEMBER_1_MEMBER_5_MEMBER_0_MEMBER_0_FILL"/>
</g>

<g transform="matrix( 1, 0, 0, 1, -31.3,-42.2) ">
<use xlink:href="#icon_r_box_02_19_Layer2_0_MEMBER_0_MEMBER_0_MEMBER_3_MEMBER_1_MEMBER_5_MEMBER_0_MEMBER_1_FILL"/>
</g>

<g transform="matrix( 1, 0, 0, 1, -31.3,-42.2) ">
<use xlink:href="#icon_r_box_02_19_Layer2_0_MEMBER_0_MEMBER_0_MEMBER_3_MEMBER_1_MEMBER_5_MEMBER_1_MEMBER_0_FILL"/>
</g>

<g transform="matrix( 1, 0, 0, 1, -31.3,-42.2) ">
<use xlink:href="#icon_r_box_02_19_Layer2_0_MEMBER_0_MEMBER_0_MEMBER_3_MEMBER_1_MEMBER_5_MEMBER_1_MEMBER_1_FILL"/>
</g>

<g transform="matrix( 1, 0, 0, 1, -31.3,-42.2) ">
<use xlink:href="#icon_r_box_02_19_Layer2_0_MEMBER_0_MEMBER_0_MEMBER_4_MEMBER_0_FILL"/>
</g>

<g transform="matrix( 1, 0, 0, 1, -31.3,-42.2) ">
<use xlink:href="#icon_r_box_02_19_Layer2_0_MEMBER_0_MEMBER_0_MEMBER_4_MEMBER_1_FILL"/>
</g>

<g transform="matrix( 1, 0, 0, 1, -31.3,-42.2) ">
<use xlink:href="#icon_r_box_02_19_Layer2_0_MEMBER_0_MEMBER_0_MEMBER_5_1_STROKES"/>
</g>

<g transform="matrix( 1, 0, 0, 1, -31.3,-42.2) ">
<use xlink:href="#icon_r_box_02_19_Layer2_0_MEMBER_0_MEMBER_0_MEMBER_6_1_STROKES"/>
</g>

<g transform="matrix( 1, 0, 0, 1, -31.3,-42.2) ">
<use xlink:href="#icon_r_box_02_19_Layer2_0_MEMBER_0_MEMBER_0_MEMBER_7_1_STROKES"/>
</g>

<g transform="matrix( 1, 0, 0, 1, -31.3,-42.2) ">
<use xlink:href="#icon_r_box_02_19_Layer2_0_MEMBER_0_MEMBER_0_MEMBER_8_MEMBER_0_1_STROKES"/>
</g>

<g transform="matrix( 1, 0, 0, 1, -31.3,-42.2) ">
<use xlink:href="#icon_r_box_02_19_Layer2_0_MEMBER_0_MEMBER_0_MEMBER_9_MEMBER_0_1_STROKES"/>
</g>

<g transform="matrix( 1, 0, 0, 1, -31.3,-42.2) ">
<use xlink:href="#icon_r_box_02_19_Layer2_0_MEMBER_0_MEMBER_0_MEMBER_10_MEMBER_0_1_STROKES"/>
</g>

<g transform="matrix( 1, 0, 0, 1, -31.3,-42.2) ">
<use xlink:href="#icon_r_box_02_19_Layer2_0_MEMBER_0_MEMBER_0_MEMBER_11_1_STROKES"/>
</g>

<g transform="matrix( 1, 0, 0, 1, -31.3,-42.2) ">
<use xlink:href="#icon_r_box_02_19_Layer2_0_MEMBER_0_MEMBER_0_MEMBER_12_MEMBER_0_1_STROKES"/>
</g>

<g transform="matrix( 1, 0, 0, 1, -31.3,-42.2) ">
<use xlink:href="#icon_r_box_02_19_Layer2_0_MEMBER_0_MEMBER_0_MEMBER_13_MEMBER_0_1_STROKES"/>
</g>

<g transform="matrix( 1, 0, 0, 1, -31.3,-42.2) ">
<use xlink:href="#icon_r_box_02_19_Layer2_0_MEMBER_0_MEMBER_0_MEMBER_14_MEMBER_0_1_STROKES"/>
</g>

<g transform="matrix( 1, 0, 0, 1, -31.3,-42.2) ">
<use xlink:href="#icon_r_box_02_19_Layer2_0_MEMBER_0_MEMBER_0_MEMBER_15_1_STROKES"/>
</g>

<g transform="matrix( 1, 0, 0, 1, -31.3,-42.2) ">
<use xlink:href="#icon_r_box_02_19_Layer2_0_MEMBER_0_MEMBER_0_MEMBER_16_MEMBER_0_1_STROKES"/>
</g>

<g transform="matrix( 1, 0, 0, 1, -31.3,-42.2) ">
<use xlink:href="#icon_r_box_02_19_Layer2_0_MEMBER_0_MEMBER_0_MEMBER_17_1_STROKES"/>
</g>

<g transform="matrix( 1, 0, 0, 1, -31.3,-42.2) ">
<use xlink:href="#icon_r_box_02_19_Layer2_0_MEMBER_0_MEMBER_0_MEMBER_18_1_STROKES"/>
</g>

<g transform="matrix( 1, 0, 0, 1, -31.3,-42.2) ">
<use xlink:href="#icon_r_box_02_19_Layer2_0_MEMBER_0_MEMBER_1_FILL"/>

<use xlink:href="#icon_r_box_02_19_Layer2_0_MEMBER_0_MEMBER_1_1_STROKES"/>
</g>

<g transform="matrix( 1, 0, 0, 1, -31.3,-42.2) ">
<use xlink:href="#icon_r_box_02_19_Layer2_0_MEMBER_0_MEMBER_2_1_STROKES"/>
</g>

<g transform="matrix( 1, 0, 0, 1, -31.3,-42.2) ">
<use xlink:href="#icon_r_box_02_19_Layer2_0_MEMBER_1_1_STROKES"/>
</g>
</g>
</svg>
