
<svg xmlns="http://www.w3.org/2000/svg" version="1.1" xmlns:xlink="http://www.w3.org/1999/xlink" preserveAspectRatio="none" x="0px" y="0px" width="130px" height="115px" viewBox="0 0 130 115">
<defs>
<g id="icon_r_box_02_22_Layer3_0_FILL">
<path fill="#FFFFFF" fill-opacity="0" stroke="none" d="
M 65 -55
L -65 -55 -65 25 65 25 65 -55 Z"/>
</g>

<g id="icon_r_box_02_22_Layer3_1_FILL">
<path fill="#FFFFFF" fill-opacity="0" stroke="none" d="
M 65.05 49.95
L 65.05 24.95 -64.95 24.95 -64.95 49.95 65.05 49.95 Z"/>
</g>

<g id="icon_r_box_02_22_Layer3_2_FILL">
<path fill="#FFFFFF" fill-opacity="0" stroke="none" d="
M 65 -52.85
L 65 -57.85 -65 -57.85 -65 -52.85 65 -52.85 Z"/>
</g>

<g id="icon_r_box_02_22_Layer3_3_FILL">
<path fill="#FFFFFF" fill-opacity="0" stroke="none" d="
M 65 54.95
L 65 49.95 -65 49.95 -65 54.95 65 54.95 Z"/>
</g>

<g id="icon_r_box_02_22_Layer2_0_MEMBER_0_MEMBER_1_FILL">
<path fill="#F4CDA4" stroke="none" d="
M 73.35 41.85
Q 70.1 29.5 45.95 7.75
L 47.8 1.6
Q 45 0.5 41.15 0.5 38.7 0.5 36.35 1.05
L 34.45 1.6 36.3 7.75
Q 12.15 29.5 8.9 41.85
L 73.35 41.85 Z"/>
</g>

<g id="icon_r_box_02_22_Layer2_0_MEMBER_0_MEMBER_11_MEMBER_0_FILL">
<path fill="#B77459" stroke="none" d="
M 70.15 34.6
Q 70.15 34.1 69.65 34.1
L 12.45 34.1
Q 11.95 34.1 11.95 34.6 11.95 35.1 12.45 35.1
L 69.65 35.1
Q 70.15 35.1 70.15 34.6 Z"/>
</g>

<g id="icon_r_box_02_22_Layer2_0_MEMBER_0_MEMBER_11_MEMBER_1_FILL">
<path fill="#000000" stroke="none" d="
M 70.7 33.55
Q 70.25 33.1 69.65 33.1
L 12.45 33.1
Q 11.8 33.1 11.4 33.55 10.95 33.95 10.95 34.6 10.95 35.2 11.4 35.65 11.8 36.1 12.45 36.1
L 69.65 36.1
Q 70.25 36.1 70.7 35.65 71.15 35.2 71.15 34.6 71.15 33.95 70.7 33.55
M 70.15 34.6
Q 70.15 35.1 69.65 35.1
L 12.45 35.1
Q 11.95 35.1 11.95 34.6 11.95 34.1 12.45 34.1
L 69.65 34.1
Q 70.15 34.1 70.15 34.6 Z"/>
</g>

<g id="icon_r_box_02_22_Layer2_0_MEMBER_0_MEMBER_20_MEMBER_0_FILL">
<path fill="#B77459" stroke="none" d="
M 46.85 8.3
Q 47.4 8.3 47.4 7.75 47.4 7.2 46.85 7.2
L 35.4 7.2
Q 34.9 7.2 34.9 7.75 34.9 8.3 35.4 8.3
L 46.85 8.3 Z"/>
</g>

<g id="icon_r_box_02_22_Layer2_0_MEMBER_0_MEMBER_20_MEMBER_1_FILL">
<path fill="#000000" stroke="none" d="
M 47.95 6.65
Q 47.5 6.2 46.85 6.2
L 35.4 6.2
Q 34.75 6.2 34.35 6.65 33.9 7.1 33.9 7.75 33.9 8.4 34.35 8.85 34.75 9.3 35.4 9.3
L 46.85 9.3
Q 47.5 9.3 47.95 8.85 48.4 8.4 48.4 7.75 48.4 7.1 47.95 6.65
M 47.4 7.75
Q 47.4 8.3 46.85 8.3
L 35.4 8.3
Q 34.9 8.3 34.9 7.75 34.9 7.2 35.4 7.2
L 46.85 7.2
Q 47.4 7.2 47.4 7.75 Z"/>
</g>

<g id="icon_r_box_02_22_Layer2_0_MEMBER_0_MEMBER_21_MEMBER_0_FILL">
<path fill="#B77459" stroke="none" d="
M 59.7 20
Q 59.7 19.5 59.2 19.5
L 22.9 19.5
Q 22.4 19.5 22.4 20 22.4 20.5 22.9 20.5
L 59.2 20.5
Q 59.7 20.5 59.7 20 Z"/>
</g>

<g id="icon_r_box_02_22_Layer2_0_MEMBER_0_MEMBER_21_MEMBER_1_FILL">
<path fill="#000000" stroke="none" d="
M 60.25 18.95
Q 59.8 18.5 59.2 18.5
L 22.9 18.5
Q 22.25 18.5 21.85 18.95 21.4 19.35 21.4 20 21.4 20.65 21.85 21.05 22.25 21.5 22.9 21.5
L 59.2 21.5
Q 59.8 21.5 60.25 21.05 60.7 20.65 60.7 20 60.7 19.35 60.25 18.95
M 59.7 20
Q 59.7 20.5 59.2 20.5
L 22.9 20.5
Q 22.4 20.5 22.4 20 22.4 19.5 22.9 19.5
L 59.2 19.5
Q 59.7 19.5 59.7 20 Z"/>
</g>

<g id="icon_r_box_02_22_Layer2_0_MEMBER_0_MEMBER_22_MEMBER_0_FILL">
<path fill="#997858" stroke="none" d="
M 48.25 41.85
L 48.25 29.1 33.1 29.1 33.1 41.85 48.25 41.85 Z"/>
</g>

<g id="icon_r_box_02_22_Layer2_0_MEMBER_0_MEMBER_22_MEMBER_1_MEMBER_0_MEMBER_0_FILL">
<path fill="#F4CDA4" stroke="none" d="
M 33.4 27.1
Q 31.85 27.25 31.65 28.35 30.65 33.7 30.65 41.85
L 35.25 41.85
Q 35.7 29.65 35.25 28.1 34.95 26.95 33.4 27.1 Z"/>
</g>

<g id="icon_r_box_02_22_Layer2_0_MEMBER_0_MEMBER_22_MEMBER_1_MEMBER_0_MEMBER_1_FILL">
<path fill="#F4CDA4" stroke="none" d="
M 50.65 28.35
Q 50.45 27.25 48.9 27.1 47.3 26.95 47 28.1 46.75 29.05 46.85 35.55 46.9 38.8 47 41.85
L 51.6 41.85
Q 51.6 33.75 50.65 28.35 Z"/>
</g>

<g id="icon_r_box_02_22_Layer2_0_MEMBER_0_MEMBER_22_MEMBER_1_MEMBER_1_FILL">
<path fill="#F4CDA4" stroke="none" d="
M 53 29.9
Q 53 27.9 52.15 27.25 49.75 25.45 41.1 25.45 32.4 25.45 30.05 27.25 29.2 27.9 29.2 29.9 29.2 30.75 32.7 31.4 36.15 32 41.1 32 46 32 49.5 31.4 53 30.75 53 29.9 Z"/>
</g>

<path id="icon_r_box_02_22_Layer2_0_MEMBER_0_MEMBER_0_1_STROKES" stroke="#000000" stroke-width="1" stroke-linejoin="round" stroke-linecap="round" fill="none" d="
M 0.5 41.8
L 81.75 41.8"/>

<path id="icon_r_box_02_22_Layer2_0_MEMBER_0_MEMBER_1_1_STROKES" stroke="#000000" stroke-width="1" stroke-linejoin="round" stroke-linecap="round" fill="none" d="
M 73.35 41.85
L 8.9 41.85
Q 12.15 29.5 36.3 7.75
L 34.45 1.6 36.35 1.05
Q 38.7 0.5 41.15 0.5 45 0.5 47.8 1.6
L 45.95 7.75
Q 70.1 29.5 73.35 41.85 Z"/>

<path id="icon_r_box_02_22_Layer2_0_MEMBER_0_MEMBER_2_1_STROKES" stroke="#E4B78E" stroke-width="1" stroke-linejoin="round" stroke-linecap="round" fill="none" d="
M 35.75 11.45
Q 31.75 15 26.95 20.1 17.4 30.3 13.35 38"/>

<path id="icon_r_box_02_22_Layer2_0_MEMBER_0_MEMBER_3_1_STROKES" stroke="#E4B78E" stroke-width="1" stroke-linejoin="round" stroke-linecap="round" fill="none" d="
M 37.95 11.95
Q 33.8 15.95 29 21.3 19.4 32 16.35 38.7"/>

<path id="icon_r_box_02_22_Layer2_0_MEMBER_0_MEMBER_4_1_STROKES" stroke="#E4B78E" stroke-width="1" stroke-linejoin="round" stroke-linecap="round" fill="none" d="
M 32.35 20.6
Q 29.8 23.6 27 27.4 21.35 34.9 20.05 38.7"/>

<path id="icon_r_box_02_22_Layer2_0_MEMBER_0_MEMBER_5_1_STROKES" stroke="#E4B78E" stroke-width="1" stroke-linejoin="round" stroke-linecap="round" fill="none" d="
M 25.95 32.6
Q 26.1 32.45 24.8 34.75 23.15 37.65 22.9 38.95"/>

<path id="icon_r_box_02_22_Layer2_0_MEMBER_0_MEMBER_6_1_STROKES" stroke="#E4B78E" stroke-width="1" stroke-linejoin="round" stroke-linecap="round" fill="none" d="
M 46.5 12.95
L 51 19.3
Q 56.15 27.1 59.35 34.45"/>

<path id="icon_r_box_02_22_Layer2_0_MEMBER_0_MEMBER_7_1_STROKES" stroke="#E4B78E" stroke-width="1" stroke-linejoin="round" stroke-linecap="round" fill="none" d="
M 56.05 22.9
Q 56.4 22.9 59.35 28.1 62.85 34.1 64.6 38.95"/>

<path id="icon_r_box_02_22_Layer2_0_MEMBER_0_MEMBER_8_1_STROKES" stroke="#E4B78E" stroke-width="1" stroke-linejoin="round" stroke-linecap="round" fill="none" d="
M 63.9 30.2
L 68.1 38"/>

<path id="icon_r_box_02_22_Layer2_0_MEMBER_0_MEMBER_9_1_STROKES" stroke="#E4B78E" stroke-width="1" stroke-linejoin="round" stroke-linecap="round" fill="none" d="
M 56.05 32.6
L 57 35.35
Q 58 38.3 58.2 39.5"/>

<path id="icon_r_box_02_22_Layer2_0_MEMBER_0_MEMBER_10_1_STROKES" stroke="#E4B78E" stroke-width="1" stroke-linejoin="round" stroke-linecap="round" fill="none" d="
M 49.2 22.9
L 51.55 28.4
Q 54.1 34.6 55 38"/>

<path id="icon_r_box_02_22_Layer2_0_MEMBER_0_MEMBER_12_1_STROKES" stroke="#E4B78E" stroke-width="1" stroke-linejoin="round" stroke-linecap="round" fill="none" d="
M 37.95 3.45
L 38.7 6.8"/>

<path id="icon_r_box_02_22_Layer2_0_MEMBER_0_MEMBER_13_1_STROKES" stroke="#E4B78E" stroke-width="1" stroke-linejoin="round" stroke-linecap="round" fill="none" d="
M 40.25 2.95
L 40.4 5.45"/>

<path id="icon_r_box_02_22_Layer2_0_MEMBER_0_MEMBER_14_1_STROKES" stroke="#E4B78E" stroke-width="1" stroke-linejoin="round" stroke-linecap="round" fill="none" d="
M 43.4 3.25
L 42.55 6.55"/>

<path id="icon_r_box_02_22_Layer2_0_MEMBER_0_MEMBER_15_1_STROKES" stroke="#E4B78E" stroke-width="1" stroke-linejoin="round" stroke-linecap="round" fill="none" d="
M 60.85 26
L 62.25 28.1"/>

<path id="icon_r_box_02_22_Layer2_0_MEMBER_0_MEMBER_16_1_STROKES" stroke="#E4B78E" stroke-width="1" stroke-linejoin="round" stroke-linecap="round" fill="none" d="
M 38.35 17.1
Q 37.7 17.95 37 19.1 35.5 21.35 35.05 22.9"/>

<path id="icon_r_box_02_22_Layer2_0_MEMBER_0_MEMBER_17_1_STROKES" stroke="#E4B78E" stroke-width="1" stroke-linejoin="round" stroke-linecap="round" fill="none" d="
M 41.15 15.1
Q 41.1 15.4 40.85 18.55 40.65 21.85 40.7 22.55"/>

<path id="icon_r_box_02_22_Layer2_0_MEMBER_0_MEMBER_18_1_STROKES" stroke="#E4B78E" stroke-width="1" stroke-linejoin="round" stroke-linecap="round" fill="none" d="
M 43.4 14.15
Q 43.55 14.25 44.5 17.75 45.55 21.7 45.9 22.55"/>

<path id="icon_r_box_02_22_Layer2_0_MEMBER_0_MEMBER_19_1_STROKES" stroke="#E4B78E" stroke-width="1" stroke-linejoin="round" stroke-linecap="round" fill="none" d="
M 46.5 17.65
L 47.55 20"/>

<path id="icon_r_box_02_22_Layer2_0_MEMBER_0_MEMBER_22_MEMBER_0_1_STROKES" stroke="#000000" stroke-width="1" stroke-linejoin="round" stroke-linecap="round" fill="none" d="
M 48.25 41.85
L 33.1 41.85 33.1 29.1 48.25 29.1 48.25 41.85 Z"/>

<path id="icon_r_box_02_22_Layer2_0_MEMBER_0_MEMBER_22_MEMBER_1_MEMBER_0_MEMBER_0_1_STROKES" stroke="#000000" stroke-width="1" stroke-linejoin="round" stroke-linecap="round" fill="none" d="
M 31.65 28.35
Q 30.65 33.7 30.65 41.85
L 35.25 41.85
Q 35.7 29.65 35.25 28.1 34.95 26.95 33.4 27.1 31.85 27.25 31.65 28.35 Z"/>

<path id="icon_r_box_02_22_Layer2_0_MEMBER_0_MEMBER_22_MEMBER_1_MEMBER_0_MEMBER_1_1_STROKES" stroke="#000000" stroke-width="1" stroke-linejoin="round" stroke-linecap="round" fill="none" d="
M 50.65 28.35
Q 51.6 33.75 51.6 41.85
L 47 41.85
Q 46.9 38.8 46.85 35.55 46.75 29.05 47 28.1 47.3 26.95 48.9 27.1 50.45 27.25 50.65 28.35 Z"/>

<path id="icon_r_box_02_22_Layer2_0_MEMBER_0_MEMBER_22_MEMBER_1_MEMBER_1_1_STROKES" stroke="#000000" stroke-width="1" stroke-linejoin="round" stroke-linecap="round" fill="none" d="
M 53 29.9
Q 53 30.75 49.5 31.4 46 32 41.1 32 36.15 32 32.7 31.4 29.2 30.75 29.2 29.9 29.2 27.9 30.05 27.25 32.4 25.45 41.1 25.45 49.75 25.45 52.15 27.25 53 27.9 53 29.9 Z"/>

<path id="icon_r_box_02_22_Layer2_0_MEMBER_0_MEMBER_22_MEMBER_2_1_STROKES" stroke="#E4B78E" stroke-width="1" stroke-linejoin="round" stroke-linecap="round" fill="none" d="
M 33.6 27.8
L 33.35 28.35
Q 33.1 29.05 33.05 29.65"/>

<path id="icon_r_box_02_22_Layer2_0_MEMBER_0_MEMBER_22_MEMBER_3_1_STROKES" stroke="#E4B78E" stroke-width="1" stroke-linejoin="round" stroke-linecap="round" fill="none" d="
M 36.7 26.85
Q 36.4 27.25 36.05 27.75 35.45 28.85 35.4 29.65"/>

<path id="icon_r_box_02_22_Layer2_0_MEMBER_0_MEMBER_22_MEMBER_4_1_STROKES" stroke="#E4B78E" stroke-width="1" stroke-linejoin="round" stroke-linecap="round" fill="none" d="
M 37.95 28.25
L 37.65 29.9"/>

<path id="icon_r_box_02_22_Layer2_0_MEMBER_0_MEMBER_22_MEMBER_5_1_STROKES" stroke="#E4B78E" stroke-width="1" stroke-linejoin="round" stroke-linecap="round" fill="none" d="
M 32.85 33.35
Q 32.85 33.45 32.55 36.1 32.25 38.9 32.35 39.85"/>

<path id="icon_r_box_02_22_Layer2_0_MEMBER_0_MEMBER_22_MEMBER_6_1_STROKES" stroke="#E4B78E" stroke-width="1" stroke-linejoin="round" stroke-linecap="round" fill="none" d="
M 48.35 36.95
L 48.55 39.85"/>
</defs>

<g transform="matrix( 1, 0, 0, 0.999603271484375, 65,60) ">
<g transform="matrix( 1, 0, 0, 1, 0,0) ">
<use xlink:href="#icon_r_box_02_22_Layer3_0_FILL"/>
</g>

<g transform="matrix( 1, 0, 0, 1, -0.05,0.05) ">
<use xlink:href="#icon_r_box_02_22_Layer3_1_FILL"/>
</g>

<g transform="matrix( 1, 0, 0, 1, 0,-2.15) ">
<use xlink:href="#icon_r_box_02_22_Layer3_2_FILL"/>
</g>

<g transform="matrix( 1, 0, 0, 1, 0,0.05) ">
<use xlink:href="#icon_r_box_02_22_Layer3_3_FILL"/>
</g>

<g transform="matrix( 1, 0, 0, 1, -41.1,-32.85) ">
<use xlink:href="#icon_r_box_02_22_Layer2_0_MEMBER_0_MEMBER_0_1_STROKES"/>
</g>

<g transform="matrix( 1, 0, 0, 1, -41.1,-32.85) ">
<use xlink:href="#icon_r_box_02_22_Layer2_0_MEMBER_0_MEMBER_1_FILL"/>

<use xlink:href="#icon_r_box_02_22_Layer2_0_MEMBER_0_MEMBER_1_1_STROKES"/>
</g>

<g transform="matrix( 1, 0, 0, 1, -41.1,-32.85) ">
<use xlink:href="#icon_r_box_02_22_Layer2_0_MEMBER_0_MEMBER_2_1_STROKES"/>
</g>

<g transform="matrix( 1, 0, 0, 1, -41.1,-32.85) ">
<use xlink:href="#icon_r_box_02_22_Layer2_0_MEMBER_0_MEMBER_3_1_STROKES"/>
</g>

<g transform="matrix( 1, 0, 0, 1, -41.1,-32.85) ">
<use xlink:href="#icon_r_box_02_22_Layer2_0_MEMBER_0_MEMBER_4_1_STROKES"/>
</g>

<g transform="matrix( 1, 0, 0, 1, -41.1,-32.85) ">
<use xlink:href="#icon_r_box_02_22_Layer2_0_MEMBER_0_MEMBER_5_1_STROKES"/>
</g>

<g transform="matrix( 1, 0, 0, 1, -41.1,-32.85) ">
<use xlink:href="#icon_r_box_02_22_Layer2_0_MEMBER_0_MEMBER_6_1_STROKES"/>
</g>

<g transform="matrix( 1, 0, 0, 1, -41.1,-32.85) ">
<use xlink:href="#icon_r_box_02_22_Layer2_0_MEMBER_0_MEMBER_7_1_STROKES"/>
</g>

<g transform="matrix( 1, 0, 0, 1, -41.1,-32.85) ">
<use xlink:href="#icon_r_box_02_22_Layer2_0_MEMBER_0_MEMBER_8_1_STROKES"/>
</g>

<g transform="matrix( 1, 0, 0, 1, -41.1,-32.85) ">
<use xlink:href="#icon_r_box_02_22_Layer2_0_MEMBER_0_MEMBER_9_1_STROKES"/>
</g>

<g transform="matrix( 1, 0, 0, 1, -41.1,-32.85) ">
<use xlink:href="#icon_r_box_02_22_Layer2_0_MEMBER_0_MEMBER_10_1_STROKES"/>
</g>

<g transform="matrix( 1, 0, 0, 1, -41.1,-32.85) ">
<use xlink:href="#icon_r_box_02_22_Layer2_0_MEMBER_0_MEMBER_11_MEMBER_0_FILL"/>
</g>

<g transform="matrix( 1, 0, 0, 1, -41.1,-32.85) ">
<use xlink:href="#icon_r_box_02_22_Layer2_0_MEMBER_0_MEMBER_11_MEMBER_1_FILL"/>
</g>

<g transform="matrix( 1, 0, 0, 1, -41.1,-32.85) ">
<use xlink:href="#icon_r_box_02_22_Layer2_0_MEMBER_0_MEMBER_12_1_STROKES"/>
</g>

<g transform="matrix( 1, 0, 0, 1, -41.1,-32.85) ">
<use xlink:href="#icon_r_box_02_22_Layer2_0_MEMBER_0_MEMBER_13_1_STROKES"/>
</g>

<g transform="matrix( 1, 0, 0, 1, -41.1,-32.85) ">
<use xlink:href="#icon_r_box_02_22_Layer2_0_MEMBER_0_MEMBER_14_1_STROKES"/>
</g>

<g transform="matrix( 1, 0, 0, 1, -41.1,-32.85) ">
<use xlink:href="#icon_r_box_02_22_Layer2_0_MEMBER_0_MEMBER_15_1_STROKES"/>
</g>

<g transform="matrix( 1, 0, 0, 1, -41.1,-32.85) ">
<use xlink:href="#icon_r_box_02_22_Layer2_0_MEMBER_0_MEMBER_16_1_STROKES"/>
</g>

<g transform="matrix( 1, 0, 0, 1, -41.1,-32.85) ">
<use xlink:href="#icon_r_box_02_22_Layer2_0_MEMBER_0_MEMBER_17_1_STROKES"/>
</g>

<g transform="matrix( 1, 0, 0, 1, -41.1,-32.85) ">
<use xlink:href="#icon_r_box_02_22_Layer2_0_MEMBER_0_MEMBER_18_1_STROKES"/>
</g>

<g transform="matrix( 1, 0, 0, 1, -41.1,-32.85) ">
<use xlink:href="#icon_r_box_02_22_Layer2_0_MEMBER_0_MEMBER_19_1_STROKES"/>
</g>

<g transform="matrix( 1, 0, 0, 1, -41.1,-32.85) ">
<use xlink:href="#icon_r_box_02_22_Layer2_0_MEMBER_0_MEMBER_20_MEMBER_0_FILL"/>
</g>

<g transform="matrix( 1, 0, 0, 1, -41.1,-32.85) ">
<use xlink:href="#icon_r_box_02_22_Layer2_0_MEMBER_0_MEMBER_20_MEMBER_1_FILL"/>
</g>

<g transform="matrix( 1, 0, 0, 1, -41.1,-32.85) ">
<use xlink:href="#icon_r_box_02_22_Layer2_0_MEMBER_0_MEMBER_21_MEMBER_0_FILL"/>
</g>

<g transform="matrix( 1, 0, 0, 1, -41.1,-32.85) ">
<use xlink:href="#icon_r_box_02_22_Layer2_0_MEMBER_0_MEMBER_21_MEMBER_1_FILL"/>
</g>

<g transform="matrix( 1, 0, 0, 1, -41.1,-32.85) ">
<use xlink:href="#icon_r_box_02_22_Layer2_0_MEMBER_0_MEMBER_22_MEMBER_0_FILL"/>

<use xlink:href="#icon_r_box_02_22_Layer2_0_MEMBER_0_MEMBER_22_MEMBER_0_1_STROKES"/>
</g>

<g transform="matrix( 1, 0, 0, 1, -41.1,-32.85) ">
<use xlink:href="#icon_r_box_02_22_Layer2_0_MEMBER_0_MEMBER_22_MEMBER_1_MEMBER_0_MEMBER_0_FILL"/>

<use xlink:href="#icon_r_box_02_22_Layer2_0_MEMBER_0_MEMBER_22_MEMBER_1_MEMBER_0_MEMBER_0_1_STROKES"/>
</g>

<g transform="matrix( 1, 0, 0, 1, -41.1,-32.85) ">
<use xlink:href="#icon_r_box_02_22_Layer2_0_MEMBER_0_MEMBER_22_MEMBER_1_MEMBER_0_MEMBER_1_FILL"/>

<use xlink:href="#icon_r_box_02_22_Layer2_0_MEMBER_0_MEMBER_22_MEMBER_1_MEMBER_0_MEMBER_1_1_STROKES"/>
</g>

<g transform="matrix( 1, 0, 0, 1, -41.1,-32.85) ">
<use xlink:href="#icon_r_box_02_22_Layer2_0_MEMBER_0_MEMBER_22_MEMBER_1_MEMBER_1_FILL"/>

<use xlink:href="#icon_r_box_02_22_Layer2_0_MEMBER_0_MEMBER_22_MEMBER_1_MEMBER_1_1_STROKES"/>
</g>

<g transform="matrix( 1, 0, 0, 1, -41.1,-32.85) ">
<use xlink:href="#icon_r_box_02_22_Layer2_0_MEMBER_0_MEMBER_22_MEMBER_2_1_STROKES"/>
</g>

<g transform="matrix( 1, 0, 0, 1, -41.1,-32.85) ">
<use xlink:href="#icon_r_box_02_22_Layer2_0_MEMBER_0_MEMBER_22_MEMBER_3_1_STROKES"/>
</g>

<g transform="matrix( 1, 0, 0, 1, -41.1,-32.85) ">
<use xlink:href="#icon_r_box_02_22_Layer2_0_MEMBER_0_MEMBER_22_MEMBER_4_1_STROKES"/>
</g>

<g transform="matrix( 1, 0, 0, 1, -41.1,-32.85) ">
<use xlink:href="#icon_r_box_02_22_Layer2_0_MEMBER_0_MEMBER_22_MEMBER_5_1_STROKES"/>
</g>

<g transform="matrix( 1, 0, 0, 1, -41.1,-32.85) ">
<use xlink:href="#icon_r_box_02_22_Layer2_0_MEMBER_0_MEMBER_22_MEMBER_6_1_STROKES"/>
</g>
</g>
</svg>
