
<svg xmlns="http://www.w3.org/2000/svg" version="1.1" xmlns:xlink="http://www.w3.org/1999/xlink" preserveAspectRatio="none" x="0px" y="0px" width="130px" height="115px" viewBox="0 0 130 115">
<defs>
<filter id="Filter_1" x="-26.275316267663598%" y="-25.192112740352577%" width="152.5506325353272%" height="150.38422548070514%" color-interpolation-filters="sRGB">
<feFlood flood-color="#000000" flood-opacity="1" in="SourceGraphic" result="result1"/>

<feGaussianBlur in="SourceGraphic" stdDeviation="1.6666666666666667,1.6666666666666667" result="result2"/>

<feComposite in2="result2" in="result1" operator="in" result="result3"/>

<feComposite in2="result3" in="SourceGraphic" operator="over" result="result4"/>
</filter>

<g id="icon_r_box_02_15_Layer3_0_FILL">
<path fill="#FFFFFF" fill-opacity="0" stroke="none" d="
M 65 -55
L -65 -55 -65 25 65 25 65 -55 Z"/>
</g>

<g id="icon_r_box_02_15_Layer3_1_FILL">
<path fill="#FFFFFF" fill-opacity="0" stroke="none" d="
M 65.05 49.95
L 65.05 24.95 -64.95 24.95 -64.95 49.95 65.05 49.95 Z"/>
</g>

<g id="icon_r_box_02_15_Layer3_2_FILL">
<path fill="#FFFFFF" fill-opacity="0" stroke="none" d="
M 65 -52.85
L 65 -57.85 -65 -57.85 -65 -52.85 65 -52.85 Z"/>
</g>

<g id="icon_r_box_02_15_Layer3_3_FILL">
<path fill="#FFFFFF" fill-opacity="0" stroke="none" d="
M 65 54.95
L 65 49.95 -65 49.95 -65 54.95 65 54.95 Z"/>
</g>

<g id="Duplicate_Items_Folder_sskantdlv_0_Layer1_0_FILL">
<path fill="#FFFFFF" stroke="none" d="
M 67.3 0.4
Q 66.4 0.95 66.2 2 65.053515625 7.2515625 61.5 11.55 48.551953125 6.7765625 34.6 9.75 18.8 13.1 9.65 25 2.4 34.4 0.55 51.7 -1.05 66.8 1.9 74.25 9.9 77.4 24.7 75.85 40.75 74.15 50 67.8 48.5 62.6 49 58.1 49.55 53.1 52.45 50.65 55.75 47.85 58.9 50.25 61.1 51.9 61.8 54.85 65.1 49 66.65 41.8 69.5865234375 28.0208984375 64.95 15.2 69.658984375 9.7880859375 71.1 3.05 71.3 2 70.75 1.15 70.2 0.25 69.2 0.05 68.15 -0.15 67.3 0.4 Z"/>
</g>

<g id="Duplicate_Items_Folder_sskantdlv_0_Layer0_0_FILL">
<path fill="#73B907" stroke="none" d="
M 87.4 8.4
Q 86.524609375 8.9650390625 86.3 9.95 84.7421875 17.098046875 78.75 22.4 78.0052734375 23.1333984375 77.95 24.15 77.900390625 25.2037109375 78.6 25.95 79.2935546875 26.7451171875 80.3 26.8 81.353125 26.859765625 82.1 26.15 89.3576171875 19.701953125 91.2 11 91.415234375 10.018359375 90.85 9.15 90.2849609375 8.273828125 89.25 8.05 88.2685546875 7.833984375 87.4 8.4 Z"/>
</g>

<g id="Duplicate_Items_Folder_sskantdlv_0_Layer0_1_FILL">
<path fill="#73B907" stroke="none" d="
M 81.9 62.85
Q 85.2197265625 57.0171875 86.75 49.8 90 34.55 84 20.5 69.95 14.5 54.7 17.75 38.9 21.1 29.75 33 22.5 42.4 20.65 59.7 19.05 74.8 22 82.25 30 85.4 44.8 83.85 60.8556640625 82.1330078125 70.1 75.75 68.581640625 70.5771484375 69.1 66.1 69.65 61.1 72.55 58.65 75.85 55.85 79 58.25 81.1822265625 59.8955078125 81.9 62.85 Z"/>
</g>

<path id="Duplicate_Items_Folder_sskantdlv_0_Layer1_0_1_STROKES" stroke="#FFFFFF" stroke-width="8" stroke-linejoin="round" stroke-linecap="round" fill="none" d="
M 63.12959594726563 5.59998779296875
Q 62.097767007350924 10.326361989974977 58.89962463378906 14.194929504394533 47.24646147489547 9.898864889144896 34.689788818359375 12.574940490722657 20.469885253906252 15.589920043945312 12.23494110107422 26.299847412109376 5.7099853515625 34.759790039062494 4.044996643066406 50.32968444824219 2.605006408691406 63.91959228515624 5.259988403320312 70.62454681396484 12.459939575195314 73.45952758789063 25.779849243164062 72.06453704833983 40.22475128173828 70.53454742431641 48.54969482421875 64.81958618164062 47.199703979492185 60.139617919921875 47.64970092773437 56.08964538574219 48.14469757080077 51.58967590332031 50.75467987060547 49.38469085693359 53.7246597290039 46.864707946777344 56.55964050292968 49.02469329833984 58.53962707519531 50.50968322753906 59.16962280273437 53.16466522216797 62.139602661132805 47.89970092773437 63.534593200683595 41.41974487304687 66.17744637131692 29.018637567758564 62.02710342407226 17.50240707397461 66.24266077280045 12.609217602014542 67.53956604003906 6.544981384277343 67.71956481933593 5.59998779296875 67.22456817626953 4.834992980957031 66.72957153320313 4.024998474121094 65.82957763671875 3.8449996948242187 64.88458404541016 3.6650009155273438 64.11958923339843 4.15999755859375 63.3095947265625 4.6549942016601555 63.12959594726563 5.59998779296875 Z"/>

<path id="Duplicate_Items_Folder_sskantdlv_0_Layer0_2_1_STROKES" stroke="#64A204" stroke-width="5" stroke-linejoin="round" stroke-linecap="round" fill="none" d="
M 57.86463165283203 18.469900512695315
L 45.84971313476562 30.439819335937504 35.184785461425776 41.05974731445312 40.22475128173828 63.5595947265625
M 35.184785461425776 41.05974731445312
L 29.604823303222656 46.59470977783202 11.154948425292968 64.95458526611328
M 10.209954833984376 43.71472930908203
L 29.604823303222656 46.59470977783202
M 45.84971313476562 30.439819335937504
L 25.23985290527344 23.914863586425785"/>
</defs>

<g transform="matrix( 1, 0, 0, 0.999603271484375, 65,60) ">
<g transform="matrix( 1, 0, 0, 1, 0,0) ">
<use xlink:href="#icon_r_box_02_15_Layer3_0_FILL"/>
</g>

<g transform="matrix( 1, 0, 0, 1, -0.05,0.05) ">
<use xlink:href="#icon_r_box_02_15_Layer3_1_FILL"/>
</g>

<g transform="matrix( 1, 0, 0, 1, 0,-2.15) ">
<use xlink:href="#icon_r_box_02_15_Layer3_2_FILL"/>
</g>

<g transform="matrix( 1, 0, 0, 1, 0,0.05) ">
<use xlink:href="#icon_r_box_02_15_Layer3_3_FILL"/>
</g>

<g filter="url(#Filter_1)" transform="matrix( 0.9999847412109375, 0, 0, 1.000396728515625, -65,-60) ">
<g transform="matrix( 0.75, 0, 0, 0.74969482421875, 37.3,10.4) ">
<g transform="matrix( 0.899993896484375, 0, 0, 0.899993896484375, 3.55,3.8) ">
<use xlink:href="#Duplicate_Items_Folder_sskantdlv_0_Layer1_0_FILL"/>

<use xlink:href="#Duplicate_Items_Folder_sskantdlv_0_Layer1_0_1_STROKES" transform="matrix( 1.111114501953125, 0, 0, 1.111114501953125, -3.9,-4.2) "/>
</g>

<g transform="matrix( 0.899993896484375, 0, 0, 0.899993896484375, -14.5,-3.35) ">
<use xlink:href="#Duplicate_Items_Folder_sskantdlv_0_Layer0_0_FILL"/>
</g>

<g transform="matrix( 0.899993896484375, 0, 0, 0.899993896484375, -14.5,-3.35) ">
<use xlink:href="#Duplicate_Items_Folder_sskantdlv_0_Layer0_1_FILL"/>
</g>

<g transform="matrix( 0.899993896484375, 0, 0, 0.899993896484375, 3.55,3.8) ">
<use xlink:href="#Duplicate_Items_Folder_sskantdlv_0_Layer0_2_1_STROKES" transform="matrix( 1.111114501953125, 0, 0, 1.111114501953125, -3.9,-4.2) "/>
</g>
</g>
</g>
</g>
</svg>
