
<svg xmlns="http://www.w3.org/2000/svg" version="1.1" xmlns:xlink="http://www.w3.org/1999/xlink" preserveAspectRatio="none" x="0px" y="0px" width="130px" height="115px" viewBox="0 0 130 115">
<defs>
<g id="icon_r_box_02_1_Layer3_0_FILL">
<path fill="#FFFFFF" fill-opacity="0" stroke="none" d="
M 65 -55
L -65 -55 -65 25 65 25 65 -55 Z"/>
</g>

<g id="icon_r_box_02_1_Layer3_1_FILL">
<path fill="#FFFFFF" fill-opacity="0" stroke="none" d="
M 65.05 49.95
L 65.05 24.95 -64.95 24.95 -64.95 49.95 65.05 49.95 Z"/>
</g>

<g id="icon_r_box_02_1_Layer3_2_FILL">
<path fill="#FFFFFF" fill-opacity="0" stroke="none" d="
M 65 -52.85
L 65 -57.85 -65 -57.85 -65 -52.85 65 -52.85 Z"/>
</g>

<g id="icon_r_box_02_1_Layer3_3_FILL">
<path fill="#FFFFFF" fill-opacity="0" stroke="none" d="
M 65 54.95
L 65 49.95 -65 49.95 -65 54.95 65 54.95 Z"/>
</g>

<g id="icon_r_box_02_1_Layer2_0_MEMBER_1_MEMBER_0_MEMBER_0_FILL">
<path fill="#94DA71" stroke="none" d="
M 25.95 23.7
Q 25.95 20.45 24.15 15.8 22.1 10.4 19.8 10.4 17.5 10.4 15.45 15.8 13.6 20.5 13.6 23.7 13.6 26.25 15.45 28.05 17.25 29.85 19.8 29.85 22.35 29.85 24.15 28.05 25.95 26.25 25.95 23.7 Z"/>
</g>

<g id="icon_r_box_02_1_Layer2_0_MEMBER_1_MEMBER_1_MEMBER_0_FILL">
<path fill="#94DA71" stroke="none" d="
M 49.2 23.8
Q 49.2 20.55 47.4 15.9 45.35 10.5 43.05 10.5 40.75 10.5 38.7 15.9 36.9 20.55 36.9 23.8 36.9 26.35 38.7 28.15 40.5 29.95 43.05 29.95 45.6 29.95 47.4 28.15 49.2 26.35 49.2 23.8 Z"/>
</g>

<g id="icon_r_box_02_1_Layer2_0_MEMBER_1_MEMBER_2_MEMBER_0_FILL">
<path fill="#94DA71" stroke="none" d="
M 68.85 23.7
Q 68.85 20.45 67.05 15.8 65 10.4 62.7 10.4 60.4 10.4 58.35 15.8 56.55 20.45 56.55 23.7 56.55 26.25 58.35 28.05 60.15 29.85 62.7 29.85 65.25 29.85 67.05 28.05 68.85 26.25 68.85 23.7 Z"/>
</g>

<g id="icon_r_box_02_1_Layer2_0_MEMBER_1_MEMBER_3_MEMBER_0_FILL">
<path fill="#40C871" stroke="none" d="
M 37.9 8.55
Q 34.8 0.5 31.35 0.5 27.9 0.5 24.8 8.55 22.1 15.55 22.1 20.4 22.1 24.25 24.8 26.95 27.55 29.65 31.35 29.65 35.2 29.65 37.9 26.95 40.6 24.25 40.6 20.4 40.6 15.55 37.9 8.55 Z"/>
</g>

<g id="icon_r_box_02_1_Layer2_0_MEMBER_1_MEMBER_4_MEMBER_0_FILL">
<path fill="#319B63" stroke="none" d="
M 17.45 21
Q 17.45 16.85 15.15 10.85 12.55 4 9.6 4 6.65 4 4.05 10.85 1.75 16.85 1.75 21 1.75 24.25 4.05 26.55 6.35 28.85 9.6 28.85 12.85 28.85 15.15 26.55 17.45 24.25 17.45 21 Z"/>
</g>

<g id="icon_r_box_02_1_Layer2_0_MEMBER_1_MEMBER_5_MEMBER_0_FILL">
<path fill="#319B63" stroke="none" d="
M 58.1 22.8
Q 58.1 19.45 56.25 14.6 54.1 9.05 51.7 9.05 49.35 9.05 47.2 14.6 45.35 19.45 45.35 22.8 45.35 25.45 47.2 27.3 49.1 29.15 51.7 29.15 54.35 29.15 56.25 27.3 58.1 25.45 58.1 22.8 Z"/>
</g>

<g id="icon_r_box_02_1_Layer2_0_MEMBER_1_MEMBER_6_MEMBER_0_FILL">
<path fill="#40C871" stroke="none" d="
M 78.7 10.85
Q 76.1 4 73.15 4 70.2 4 67.6 10.85 65.3 16.85 65.3 21 65.3 24.25 67.6 26.55 69.9 28.85 73.15 28.85 76.4 28.85 78.7 26.55 81 24.25 81 21 81 16.85 78.7 10.85 Z"/>
</g>

<path id="icon_r_box_02_1_Layer2_0_MEMBER_0_MEMBER_0_1_STROKES" stroke="#000000" stroke-width="1" stroke-linejoin="round" stroke-linecap="round" fill="none" d="
M 0.5 33.65
L 82.25 33.65"/>

<path id="icon_r_box_02_1_Layer2_0_MEMBER_1_MEMBER_0_MEMBER_0_1_STROKES" stroke="#000000" stroke-width="1" stroke-linejoin="round" stroke-linecap="round" fill="none" d="
M 25.95 23.7
Q 25.95 26.25 24.15 28.05 22.35 29.85 19.8 29.85 17.25 29.85 15.45 28.05 13.6 26.25 13.6 23.7 13.6 20.5 15.45 15.8 17.5 10.4 19.8 10.4 22.1 10.4 24.15 15.8 25.95 20.45 25.95 23.7 Z"/>

<path id="icon_r_box_02_1_Layer2_0_MEMBER_1_MEMBER_0_MEMBER_1_MEMBER_0_1_STROKES" stroke="#000000" stroke-width="1" stroke-linejoin="round" stroke-linecap="round" fill="none" d="
M 19.8 18.05
L 19.8 33.65"/>

<path id="icon_r_box_02_1_Layer2_0_MEMBER_1_MEMBER_0_MEMBER_2_MEMBER_0_1_STROKES" stroke="#000000" stroke-width="1" stroke-linejoin="round" stroke-linecap="round" fill="none" d="
M 16.85 21.55
L 19.8 24.5"/>

<path id="icon_r_box_02_1_Layer2_0_MEMBER_1_MEMBER_1_MEMBER_0_1_STROKES" stroke="#000000" stroke-width="1" stroke-linejoin="round" stroke-linecap="round" fill="none" d="
M 49.2 23.8
Q 49.2 26.35 47.4 28.15 45.6 29.95 43.05 29.95 40.5 29.95 38.7 28.15 36.9 26.35 36.9 23.8 36.9 20.55 38.7 15.9 40.75 10.5 43.05 10.5 45.35 10.5 47.4 15.9 49.2 20.55 49.2 23.8 Z"/>

<path id="icon_r_box_02_1_Layer2_0_MEMBER_1_MEMBER_1_MEMBER_1_MEMBER_0_1_STROKES" stroke="#000000" stroke-width="1" stroke-linejoin="round" stroke-linecap="round" fill="none" d="
M 43.05 18.15
L 43.05 33.75"/>

<path id="icon_r_box_02_1_Layer2_0_MEMBER_1_MEMBER_1_MEMBER_2_MEMBER_0_1_STROKES" stroke="#000000" stroke-width="1" stroke-linejoin="round" stroke-linecap="round" fill="none" d="
M 40.1 21.7
L 43.05 24.6"/>

<path id="icon_r_box_02_1_Layer2_0_MEMBER_1_MEMBER_2_MEMBER_0_1_STROKES" stroke="#000000" stroke-width="1" stroke-linejoin="round" stroke-linecap="round" fill="none" d="
M 68.85 23.7
Q 68.85 26.25 67.05 28.05 65.25 29.85 62.7 29.85 60.15 29.85 58.35 28.05 56.55 26.25 56.55 23.7 56.55 20.45 58.35 15.8 60.4 10.4 62.7 10.4 65 10.4 67.05 15.8 68.85 20.45 68.85 23.7 Z"/>

<path id="icon_r_box_02_1_Layer2_0_MEMBER_1_MEMBER_2_MEMBER_1_MEMBER_0_1_STROKES" stroke="#000000" stroke-width="1" stroke-linejoin="round" stroke-linecap="round" fill="none" d="
M 62.7 18.05
L 62.7 33.65"/>

<path id="icon_r_box_02_1_Layer2_0_MEMBER_1_MEMBER_2_MEMBER_2_MEMBER_0_1_STROKES" stroke="#000000" stroke-width="1" stroke-linejoin="round" stroke-linecap="round" fill="none" d="
M 59.75 21.55
L 62.7 24.5"/>

<path id="icon_r_box_02_1_Layer2_0_MEMBER_1_MEMBER_3_MEMBER_0_1_STROKES" stroke="#000000" stroke-width="1" stroke-linejoin="round" stroke-linecap="round" fill="none" d="
M 40.6 20.4
Q 40.6 24.25 37.9 26.95 35.2 29.65 31.35 29.65 27.55 29.65 24.8 26.95 22.1 24.25 22.1 20.4 22.1 15.55 24.8 8.55 27.9 0.5 31.35 0.5 34.8 0.5 37.9 8.55 40.6 15.55 40.6 20.4 Z"/>

<path id="icon_r_box_02_1_Layer2_0_MEMBER_1_MEMBER_3_MEMBER_1_MEMBER_0_1_STROKES" stroke="#000000" stroke-width="1" stroke-linejoin="round" stroke-linecap="round" fill="none" d="
M 31.35 11.95
L 31.35 33.65"/>

<path id="icon_r_box_02_1_Layer2_0_MEMBER_1_MEMBER_3_MEMBER_2_MEMBER_0_1_STROKES" stroke="#000000" stroke-width="1" stroke-linejoin="round" stroke-linecap="round" fill="none" d="
M 26.95 17.25
L 31.35 21.6"/>

<path id="icon_r_box_02_1_Layer2_0_MEMBER_1_MEMBER_4_MEMBER_0_1_STROKES" stroke="#000000" stroke-width="1" stroke-linejoin="round" stroke-linecap="round" fill="none" d="
M 17.45 21
Q 17.45 24.25 15.15 26.55 12.85 28.85 9.6 28.85 6.35 28.85 4.05 26.55 1.75 24.25 1.75 21 1.75 16.85 4.05 10.85 6.65 4 9.6 4 12.55 4 15.15 10.85 17.45 16.85 17.45 21 Z"/>

<path id="icon_r_box_02_1_Layer2_0_MEMBER_1_MEMBER_4_MEMBER_1_MEMBER_0_1_STROKES" stroke="#000000" stroke-width="1" stroke-linejoin="round" stroke-linecap="round" fill="none" d="
M 9.6 13.8
L 9.6 33.65"/>

<path id="icon_r_box_02_1_Layer2_0_MEMBER_1_MEMBER_4_MEMBER_2_MEMBER_0_1_STROKES" stroke="#000000" stroke-width="1" stroke-linejoin="round" stroke-linecap="round" fill="none" d="
M 5.85 18.3
L 9.6 22"/>

<path id="icon_r_box_02_1_Layer2_0_MEMBER_1_MEMBER_5_MEMBER_0_1_STROKES" stroke="#000000" stroke-width="1" stroke-linejoin="round" stroke-linecap="round" fill="none" d="
M 58.1 22.8
Q 58.1 25.45 56.25 27.3 54.35 29.15 51.7 29.15 49.1 29.15 47.2 27.3 45.35 25.45 45.35 22.8 45.35 19.45 47.2 14.6 49.35 9.05 51.7 9.05 54.1 9.05 56.25 14.6 58.1 19.45 58.1 22.8 Z"/>

<path id="icon_r_box_02_1_Layer2_0_MEMBER_1_MEMBER_5_MEMBER_1_MEMBER_0_1_STROKES" stroke="#000000" stroke-width="1" stroke-linejoin="round" stroke-linecap="round" fill="none" d="
M 51.7 16.95
L 51.7 33.65"/>

<path id="icon_r_box_02_1_Layer2_0_MEMBER_1_MEMBER_5_MEMBER_2_MEMBER_0_1_STROKES" stroke="#000000" stroke-width="1" stroke-linejoin="round" stroke-linecap="round" fill="none" d="
M 48.7 20.6
L 51.7 23.6"/>

<path id="icon_r_box_02_1_Layer2_0_MEMBER_1_MEMBER_6_MEMBER_0_1_STROKES" stroke="#000000" stroke-width="1" stroke-linejoin="round" stroke-linecap="round" fill="none" d="
M 81 21
Q 81 24.25 78.7 26.55 76.4 28.85 73.15 28.85 69.9 28.85 67.6 26.55 65.3 24.25 65.3 21 65.3 16.85 67.6 10.85 70.2 4 73.15 4 76.1 4 78.7 10.85 81 16.85 81 21 Z"/>

<path id="icon_r_box_02_1_Layer2_0_MEMBER_1_MEMBER_6_MEMBER_1_MEMBER_0_1_STROKES" stroke="#000000" stroke-width="1" stroke-linejoin="round" stroke-linecap="round" fill="none" d="
M 73.15 13.8
L 73.15 33.65"/>

<path id="icon_r_box_02_1_Layer2_0_MEMBER_1_MEMBER_6_MEMBER_2_MEMBER_0_1_STROKES" stroke="#000000" stroke-width="1" stroke-linejoin="round" stroke-linecap="round" fill="none" d="
M 69.4 18.3
L 73.15 22"/>
</defs>

<g transform="matrix( 1, 0, 0, 0.999603271484375, 65,60) ">
<g transform="matrix( 1, 0, 0, 1, 0,0) ">
<use xlink:href="#icon_r_box_02_1_Layer3_0_FILL"/>
</g>

<g transform="matrix( 1, 0, 0, 1, -0.05,0.05) ">
<use xlink:href="#icon_r_box_02_1_Layer3_1_FILL"/>
</g>

<g transform="matrix( 1, 0, 0, 1, 0,-2.15) ">
<use xlink:href="#icon_r_box_02_1_Layer3_2_FILL"/>
</g>

<g transform="matrix( 1, 0, 0, 1, 0,0.05) ">
<use xlink:href="#icon_r_box_02_1_Layer3_3_FILL"/>
</g>

<g transform="matrix( 1, 0, 0, 1, -41.35,-22.7) ">
<use xlink:href="#icon_r_box_02_1_Layer2_0_MEMBER_0_MEMBER_0_1_STROKES"/>
</g>

<g transform="matrix( 1, 0, 0, 1, -41.35,-22.7) ">
<use xlink:href="#icon_r_box_02_1_Layer2_0_MEMBER_1_MEMBER_0_MEMBER_0_FILL"/>

<use xlink:href="#icon_r_box_02_1_Layer2_0_MEMBER_1_MEMBER_0_MEMBER_0_1_STROKES"/>
</g>

<g transform="matrix( 1, 0, 0, 1, -41.35,-22.7) ">
<use xlink:href="#icon_r_box_02_1_Layer2_0_MEMBER_1_MEMBER_0_MEMBER_1_MEMBER_0_1_STROKES"/>
</g>

<g transform="matrix( 1, 0, 0, 1, -41.35,-22.7) ">
<use xlink:href="#icon_r_box_02_1_Layer2_0_MEMBER_1_MEMBER_0_MEMBER_2_MEMBER_0_1_STROKES"/>
</g>

<g transform="matrix( 1, 0, 0, 1, -41.35,-22.7) ">
<use xlink:href="#icon_r_box_02_1_Layer2_0_MEMBER_1_MEMBER_1_MEMBER_0_FILL"/>

<use xlink:href="#icon_r_box_02_1_Layer2_0_MEMBER_1_MEMBER_1_MEMBER_0_1_STROKES"/>
</g>

<g transform="matrix( 1, 0, 0, 1, -41.35,-22.7) ">
<use xlink:href="#icon_r_box_02_1_Layer2_0_MEMBER_1_MEMBER_1_MEMBER_1_MEMBER_0_1_STROKES"/>
</g>

<g transform="matrix( 1, 0, 0, 1, -41.35,-22.7) ">
<use xlink:href="#icon_r_box_02_1_Layer2_0_MEMBER_1_MEMBER_1_MEMBER_2_MEMBER_0_1_STROKES"/>
</g>

<g transform="matrix( 1, 0, 0, 1, -41.35,-22.7) ">
<use xlink:href="#icon_r_box_02_1_Layer2_0_MEMBER_1_MEMBER_2_MEMBER_0_FILL"/>

<use xlink:href="#icon_r_box_02_1_Layer2_0_MEMBER_1_MEMBER_2_MEMBER_0_1_STROKES"/>
</g>

<g transform="matrix( 1, 0, 0, 1, -41.35,-22.7) ">
<use xlink:href="#icon_r_box_02_1_Layer2_0_MEMBER_1_MEMBER_2_MEMBER_1_MEMBER_0_1_STROKES"/>
</g>

<g transform="matrix( 1, 0, 0, 1, -41.35,-22.7) ">
<use xlink:href="#icon_r_box_02_1_Layer2_0_MEMBER_1_MEMBER_2_MEMBER_2_MEMBER_0_1_STROKES"/>
</g>

<g transform="matrix( 1, 0, 0, 1, -41.35,-22.7) ">
<use xlink:href="#icon_r_box_02_1_Layer2_0_MEMBER_1_MEMBER_3_MEMBER_0_FILL"/>

<use xlink:href="#icon_r_box_02_1_Layer2_0_MEMBER_1_MEMBER_3_MEMBER_0_1_STROKES"/>
</g>

<g transform="matrix( 1, 0, 0, 1, -41.35,-22.7) ">
<use xlink:href="#icon_r_box_02_1_Layer2_0_MEMBER_1_MEMBER_3_MEMBER_1_MEMBER_0_1_STROKES"/>
</g>

<g transform="matrix( 1, 0, 0, 1, -41.35,-22.7) ">
<use xlink:href="#icon_r_box_02_1_Layer2_0_MEMBER_1_MEMBER_3_MEMBER_2_MEMBER_0_1_STROKES"/>
</g>

<g transform="matrix( 1, 0, 0, 1, -41.35,-22.7) ">
<use xlink:href="#icon_r_box_02_1_Layer2_0_MEMBER_1_MEMBER_4_MEMBER_0_FILL"/>

<use xlink:href="#icon_r_box_02_1_Layer2_0_MEMBER_1_MEMBER_4_MEMBER_0_1_STROKES"/>
</g>

<g transform="matrix( 1, 0, 0, 1, -41.35,-22.7) ">
<use xlink:href="#icon_r_box_02_1_Layer2_0_MEMBER_1_MEMBER_4_MEMBER_1_MEMBER_0_1_STROKES"/>
</g>

<g transform="matrix( 1, 0, 0, 1, -41.35,-22.7) ">
<use xlink:href="#icon_r_box_02_1_Layer2_0_MEMBER_1_MEMBER_4_MEMBER_2_MEMBER_0_1_STROKES"/>
</g>

<g transform="matrix( 1, 0, 0, 1, -41.35,-22.7) ">
<use xlink:href="#icon_r_box_02_1_Layer2_0_MEMBER_1_MEMBER_5_MEMBER_0_FILL"/>

<use xlink:href="#icon_r_box_02_1_Layer2_0_MEMBER_1_MEMBER_5_MEMBER_0_1_STROKES"/>
</g>

<g transform="matrix( 1, 0, 0, 1, -41.35,-22.7) ">
<use xlink:href="#icon_r_box_02_1_Layer2_0_MEMBER_1_MEMBER_5_MEMBER_1_MEMBER_0_1_STROKES"/>
</g>

<g transform="matrix( 1, 0, 0, 1, -41.35,-22.7) ">
<use xlink:href="#icon_r_box_02_1_Layer2_0_MEMBER_1_MEMBER_5_MEMBER_2_MEMBER_0_1_STROKES"/>
</g>

<g transform="matrix( 1, 0, 0, 1, -41.35,-22.7) ">
<use xlink:href="#icon_r_box_02_1_Layer2_0_MEMBER_1_MEMBER_6_MEMBER_0_FILL"/>

<use xlink:href="#icon_r_box_02_1_Layer2_0_MEMBER_1_MEMBER_6_MEMBER_0_1_STROKES"/>
</g>

<g transform="matrix( 1, 0, 0, 1, -41.35,-22.7) ">
<use xlink:href="#icon_r_box_02_1_Layer2_0_MEMBER_1_MEMBER_6_MEMBER_1_MEMBER_0_1_STROKES"/>
</g>

<g transform="matrix( 1, 0, 0, 1, -41.35,-22.7) ">
<use xlink:href="#icon_r_box_02_1_Layer2_0_MEMBER_1_MEMBER_6_MEMBER_2_MEMBER_0_1_STROKES"/>
</g>
</g>
</svg>