
<svg xmlns="http://www.w3.org/2000/svg" version="1.1" xmlns:xlink="http://www.w3.org/1999/xlink" preserveAspectRatio="none" x="0px" y="0px" width="130px" height="115px" viewBox="0 0 130 115">
<defs>
<filter id="Filter_1" x="-20.994981916778357%" y="-24.846510175643132%" width="141.98996383355671%" height="149.69302035128626%" color-interpolation-filters="sRGB">
<feFlood flood-color="#000000" flood-opacity="1" in="SourceGraphic" result="result1"/>

<feGaussianBlur in="SourceGraphic" stdDeviation="1.6666666666666667,1.6666666666666667" result="result2"/>

<feComposite in2="result2" in="result1" operator="in" result="result3"/>

<feComposite in2="result3" in="SourceGraphic" operator="over" result="result4"/>
</filter>

<g id="icon_r_box_02_26_Layer3_0_FILL">
<path fill="#FFFFFF" fill-opacity="0" stroke="none" d="
M 65 -55
L -65 -55 -65 25 65 25 65 -55 Z"/>
</g>

<g id="icon_r_box_02_26_Layer3_1_FILL">
<path fill="#FFFFFF" fill-opacity="0" stroke="none" d="
M 65.05 49.95
L 65.05 24.95 -64.95 24.95 -64.95 49.95 65.05 49.95 Z"/>
</g>

<g id="icon_r_box_02_26_Layer3_2_FILL">
<path fill="#FFFFFF" fill-opacity="0" stroke="none" d="
M 65 -52.85
L 65 -57.85 -65 -57.85 -65 -52.85 65 -52.85 Z"/>
</g>

<g id="icon_r_box_02_26_Layer3_3_FILL">
<path fill="#FFFFFF" fill-opacity="0" stroke="none" d="
M 65 54.95
L 65 49.95 -65 49.95 -65 54.95 65 54.95 Z"/>
</g>

<g id="Duplicate_Items_Folder_______0_Layer1_0_FILL">
<path fill="#FFFFFF" stroke="none" d="
M -163.7 -40.75
Q -165.85 -42.9 -168.9 -42.9 -171.95 -42.9 -174.1 -40.75 -176.25 -38.6 -176.25 -35.55 -176.25 -32.5 -174.1 -30.35 -173.74140625 -29.99140625 -173.35 -29.7 -173.87265625 -29.5701171875 -174.3 -29.2 -174.85546875 -28.583984375 -174.85 -27.75 -174.85546875 -26.9162109375 -174.3 -26.35 -173.683984375 -25.7447265625 -172.85 -25.75
L -171.4 -25.75 -171.4 25.3
Q -174.305078125 25.5736328125 -176.55 26.5 -179.485546875 27.7310546875 -179.65 29.5
L -179.65 30.85
Q -179.6 32.7 -176.55 33.95 -173.4 35.3 -168.95 35.3 -164.45 35.3 -161.35 33.95 -158.3 32.7 -158.2 30.85
L -158.2 29.7
Q -158.2 29.59921875 -158.2 29.5 -158.3671875 27.7310546875 -161.35 26.5 -163.5291015625 25.5861328125 -166.4 25.3
L -166.4 -21.95 -165.8 -21.95
Q -165.6767578125 -21.2048828125 -165.15 -20.6
L -165.1 -20.6
Q -164.3474609375 -19.8888671875 -163.4 -19.85 -163.294921875 -19.77265625 -163.2 -19.7 -163 -19.55 -162.8 -19.4 -124.84375 8.931640625 -90.9 -19.35 -90.79921875 -19.41171875 -90.75 -19.5 -90.525 -19.675 -90.35 -19.9 -89.4787109375 -19.9560546875 -88.8 -20.6
L -88.8 -20.6
Q -88.2234375 -21.2048828125 -88.1 -21.95
L -87.5 -21.95 -87.5 25.3
Q -90.3708984375 25.5861328125 -92.55 26.5 -95.5328125 27.7310546875 -95.7 29.5 -95.7 29.59921875 -95.7 29.7
L -95.7 30.85
Q -95.6 32.7 -92.55 33.95 -89.45 35.3 -84.95 35.3 -80.5 35.3 -77.35 33.95 -74.3 32.7 -74.25 30.85
L -74.25 29.5
Q -74.414453125 27.7310546875 -77.35 26.5 -79.594921875 25.5736328125 -82.5 25.3
L -82.5 -25.75 -81.05 -25.75
Q -80.2162109375 -25.7447265625 -79.65 -26.35 -79.0447265625 -26.9162109375 -79.05 -27.75 -79.0447265625 -28.583984375 -79.65 -29.2 -80.0275390625 -29.5701171875 -80.55 -29.7 -80.15859375 -29.99140625 -79.8 -30.35 -77.65 -32.5 -77.65 -35.55 -77.65 -38.6 -79.8 -40.75 -81.95 -42.9 -85 -42.9 -88.05 -42.9 -90.2 -40.75 -92.35 -38.6 -92.35 -35.55 -92.35 -32.5 -90.2 -30.35 -89.84140625 -29.99140625 -89.45 -29.7 -89.97265625 -29.5701171875 -90.4 -29.2 -90.95546875 -28.583984375 -90.95 -27.75 -90.95546875 -26.9162109375 -90.4 -26.35 -89.783984375 -25.7447265625 -88.95 -25.75
L -87.5 -25.75 -87.5 -22.95 -88.1 -22.95
Q -88.21796875 -23.7390625 -88.8 -24.35
L -88.8 -24.4
Q -89.601953125 -25.1064453125 -90.65 -25.1 -91.7521484375 -25.102734375 -92.55 -24.4
L -92.6 -24.35
Q -93.2517578125 -23.6080078125 -93.3 -22.6 -93.4359375 -22.4640625 -93.6 -22.35 -125.13984375 3.705859375 -160.4 -22.6 -160.507421875 -22.68046875 -160.65 -22.75 -160.7021484375 -23.6669921875 -161.35 -24.35
L -161.35 -24.4
Q -162.1478515625 -25.102734375 -163.25 -25.1 -164.298046875 -25.1064453125 -165.1 -24.4
L -165.15 -24.35
Q -165.6822265625 -23.7390625 -165.8 -22.95
L -166.4 -22.95 -166.4 -25.75 -164.95 -25.75
Q -164.1162109375 -25.7447265625 -163.55 -26.35 -162.9447265625 -26.9162109375 -162.95 -27.75 -162.9447265625 -28.583984375 -163.55 -29.2 -163.9275390625 -29.5701171875 -164.45 -29.7 -164.05859375 -29.99140625 -163.7 -30.35 -161.55 -32.5 -161.55 -35.55 -161.55 -38.6 -163.7 -40.75
M -162.1 -23.65
L -162.05 -23.65
Q -161.9080078125 -23.4677734375 -161.8 -23.3 -162.0365234375 -23.31015625 -162.3 -23.3 -163.096875 -23.160546875 -163.6 -22.5 -164.0955078125 -21.8390625 -164 -21.05 -164.1861328125 -21.12890625 -164.4 -21.3
L -164.4 -21.35
Q -164.8439453125 -21.81484375 -164.85 -22.45 -164.8453125 -23.1322265625 -164.4 -23.65
L -164.4 -23.65
Q -163.8849609375 -24.0939453125 -163.25 -24.1 -162.5701171875 -24.0974609375 -162.1 -23.65
M -89.5 -23.65
Q -89.0548828125 -23.1322265625 -89.05 -22.45 -89.05625 -21.8150390625 -89.5 -21.35
L -89.55 -21.3
Q -89.63671875 -21.198828125 -89.75 -21.15 -89.7494140625 -21.2087890625 -89.75 -21.3 -89.7447265625 -22.133984375 -90.35 -22.75 -90.9162109375 -23.30546875 -91.75 -23.3 -91.9298828125 -23.301171875 -92.1 -23.3 -91.9990234375 -23.46015625 -91.85 -23.65
L -91.85 -23.65
Q -91.3298828125 -24.0974609375 -90.65 -24.1 -90.01484375 -24.0939453125 -89.55 -23.65
L -89.5 -23.65 Z"/>
</g>

<g id="Duplicate_Items_Folder_______0_Layer0_0_MEMBER_0_FILL">
<path fill="#451C1C" stroke="none" d="
M -28.75 35.35
Q -25.675390625 33.934765625 -25.6 31.9
L -25.6 30.4 -26 30.4
Q -26.710546875 29.1888671875 -28.75 28.25 -31.85 26.75 -36.35 26.75 -40.8 26.75 -43.95 28.25 -45.95703125 29.1888671875 -46.7 30.4
L -47.05 30.4 -47.05 31.9
Q -46.97578125 33.934765625 -43.95 35.35 -40.8 36.85 -36.35 36.85 -31.85 36.85 -28.75 35.35 Z"/>
</g>

<g id="Duplicate_Items_Folder_______0_Layer0_0_MEMBER_1_FILL">
<path fill="#593737" stroke="none" d="
M -25.05 30.6
Q -25.05 28.4 -28.35 26.85 -31.65 25.3 -36.35 25.3 -41.05 25.3 -44.35 26.85 -47.65 28.4 -47.65 30.6 -47.65 32.8 -44.35 34.35 -41.05 35.9 -36.35 35.9 -31.65 35.9 -28.35 34.35 -25.05 32.8 -25.05 30.6 Z"/>
</g>

<g id="Duplicate_Items_Folder_______0_Layer0_0_MEMBER_2_FILL">
<path fill="#FFC419" stroke="none" d="
M -38.05 -33.55
Q -38.8 -32.85 -38.8 -31.8
L -38.8 28.05
Q -38.796484375 29.1052734375 -37.95 29.55 -37.0609375 29.983984375 -36 29.95 -34.9392578125 29.9158203125 -34.4 29.5 -33.8037109375 29.09453125 -33.8 28.05
L -33.8 -31.8
Q -33.8 -32.85 -34.5 -33.55 -35.25 -34.3 -36.3 -34.3 -37.35 -34.3 -38.05 -33.55 Z"/>
</g>

<g id="Duplicate_Items_Folder_______0_Layer0_0_MEMBER_4_FILL">
<path fill="#593737" stroke="none" d="
M -38.05 -33.55
Q -38.8 -32.85 -38.8 -31.8
L -38.8 24.35
Q -36.3 25.11796875 -33.8 24.35
L -33.8 -31.8
Q -33.8 -32.85 -34.5 -33.55 -35.25 -34.3 -36.3 -34.3 -37.35 -34.3 -38.05 -33.55 Z"/>
</g>

<g id="Duplicate_Items_Folder_______0_Layer0_0_MEMBER_5_FILL">
<path fill="#FF9700" stroke="none" d="
M -41.5 -32.9
Q -43.65 -30.75 -43.65 -27.7 -43.65 -24.65 -41.5 -22.5 -39.35 -20.35 -36.3 -20.35 -33.25 -20.35 -31.1 -22.5 -28.95 -24.65 -28.95 -27.7 -28.95 -30.75 -31.1 -32.9 -33.25 -35.05 -36.3 -35.05 -39.35 -35.05 -41.5 -32.9 Z"/>
</g>

<g id="Duplicate_Items_Folder_______0_Layer0_0_MEMBER_7_FILL">
<path fill="#FFB956" stroke="none" d="
M -41.5 -32.9
Q -43.65 -30.75 -43.65 -27.7 -43.65 -24.65 -41.5 -22.5 -39.35 -20.35 -36.3 -20.35 -33.25 -20.35 -31.1 -22.5 -28.95 -24.65 -28.95 -27.7 -28.95 -30.75 -31.1 -32.9 -33.25 -35.05 -36.3 -35.05 -39.35 -35.05 -41.5 -32.9 Z"/>
</g>

<g id="Duplicate_Items_Folder_______0_Layer0_1_MEMBER_0_FILL">
<path fill="#451C1C" stroke="none" d="
M -28.75 35.35
Q -25.675390625 33.934765625 -25.6 31.9
L -25.6 30.4 -26 30.4
Q -26.710546875 29.1888671875 -28.75 28.25 -31.85 26.75 -36.35 26.75 -40.8 26.75 -43.95 28.25 -45.95703125 29.1888671875 -46.7 30.4
L -47.05 30.4 -47.05 31.9
Q -46.97578125 33.934765625 -43.95 35.35 -40.8 36.85 -36.35 36.85 -31.85 36.85 -28.75 35.35 Z"/>
</g>

<g id="Duplicate_Items_Folder_______0_Layer0_1_MEMBER_1_FILL">
<path fill="#593737" stroke="none" d="
M -25.05 30.6
Q -25.05 28.4 -28.35 26.85 -31.65 25.3 -36.35 25.3 -41.05 25.3 -44.35 26.85 -47.65 28.4 -47.65 30.6 -47.65 32.8 -44.35 34.35 -41.05 35.9 -36.35 35.9 -31.65 35.9 -28.35 34.35 -25.05 32.8 -25.05 30.6 Z"/>
</g>

<g id="Duplicate_Items_Folder_______0_Layer0_1_MEMBER_2_FILL">
<path fill="#FFC419" stroke="none" d="
M -38.05 -33.55
Q -38.8 -32.85 -38.8 -31.8
L -38.8 28.05
Q -38.796484375 29.1052734375 -37.95 29.55 -37.0609375 29.983984375 -36 29.95 -34.9392578125 29.9158203125 -34.4 29.5 -33.8037109375 29.09453125 -33.8 28.05
L -33.8 -31.8
Q -33.8 -32.85 -34.5 -33.55 -35.25 -34.3 -36.3 -34.3 -37.35 -34.3 -38.05 -33.55 Z"/>
</g>

<g id="Duplicate_Items_Folder_______0_Layer0_1_MEMBER_4_FILL">
<path fill="#593737" stroke="none" d="
M -38.05 -33.55
Q -38.8 -32.85 -38.8 -31.8
L -38.8 24.35
Q -36.3 25.11796875 -33.8 24.35
L -33.8 -31.8
Q -33.8 -32.85 -34.5 -33.55 -35.25 -34.3 -36.3 -34.3 -37.35 -34.3 -38.05 -33.55 Z"/>
</g>

<g id="Duplicate_Items_Folder_______0_Layer0_1_MEMBER_5_FILL">
<path fill="#FF9700" stroke="none" d="
M -41.5 -32.9
Q -43.65 -30.75 -43.65 -27.7 -43.65 -24.65 -41.5 -22.5 -39.35 -20.35 -36.3 -20.35 -33.25 -20.35 -31.1 -22.5 -28.95 -24.65 -28.95 -27.7 -28.95 -30.75 -31.1 -32.9 -33.25 -35.05 -36.3 -35.05 -39.35 -35.05 -41.5 -32.9 Z"/>
</g>

<g id="Duplicate_Items_Folder_______0_Layer0_1_MEMBER_7_FILL">
<path fill="#FFB956" stroke="none" d="
M -41.5 -32.9
Q -43.65 -30.75 -43.65 -27.7 -43.65 -24.65 -41.5 -22.5 -39.35 -20.35 -36.3 -20.35 -33.25 -20.35 -31.1 -22.5 -28.95 -24.65 -28.95 -27.7 -28.95 -30.75 -31.1 -32.9 -33.25 -35.05 -36.3 -35.05 -39.35 -35.05 -41.5 -32.9 Z"/>
</g>

<g id="Mask_Duplicate_Items_Folder_Symbol_4_0_2_MASK_0_FILL">
<path fill="#FFFFFF" stroke="none" d="
M -141.55 -20.95
Q -141.376171875 -19.9263671875 -140.55 -19.3 -101.74765625 9.88359375 -67.2 -19.4 -66.3875 -20.0712890625 -66.3 -21.1 -66.221484375 -22.117578125 -66.9 -22.9 -67.5705078125 -23.70234375 -68.6 -23.8 -69.627734375 -23.877734375 -70.45 -23.2 -102.0525390625 3.41640625 -137.55 -23.3 -138.381640625 -23.921875 -139.4 -23.8 -140.4240234375 -23.6287109375 -141.05 -22.8 -141.672265625 -21.97109375 -141.55 -20.95 Z"/>
</g>

<g id="Duplicate_Items_Folder_Symbol_4_0_Layer2_0_FILL">
<path fill="#EC0000" stroke="none" d="
M -141.55 -20.95
Q -141.376171875 -19.9263671875 -140.55 -19.3 -101.74765625 9.88359375 -67.2 -19.4 -66.3875 -20.0712890625 -66.3 -21.1 -66.221484375 -22.117578125 -66.9 -22.9 -67.5705078125 -23.70234375 -68.6 -23.8 -69.627734375 -23.877734375 -70.45 -23.2 -102.0525390625 3.41640625 -137.55 -23.3 -138.381640625 -23.921875 -139.4 -23.8 -140.4240234375 -23.6287109375 -141.05 -22.8 -141.672265625 -21.97109375 -141.55 -20.95 Z"/>
</g>

<path id="Duplicate_Items_Folder_______0_Layer1_0_1_STROKES" stroke="#FFFFFF" stroke-width="8" stroke-linejoin="round" stroke-linecap="round" fill="none" d="
M -31.914015197753898 30.154792785644535
Q -34.70399627685545 31.369784545898437 -38.753968811035136 31.369784545898437 -42.75894165039064 31.369784545898437 -45.59392242431643 30.154792785644535 -48.33890380859374 29.029800415039066 -48.38390350341798 27.364811706542973
L -48.38390350341798 26.149819946289064
Q -48.23589669466021 24.557779961824416 -45.59392242431643 23.44983825683594 -43.57350643873214 22.616113442182545 -40.95895385742189 22.36984558105469
L -40.95895385742189 -23.574842834472655 -42.26394500732421 -23.574842834472655
Q -43.014525854587546 -23.57009677290916 -43.54643630981447 -24.09233932495117 -44.06885464191437 -24.624425560235977 -44.06393280029296 -25.374830627441405 -44.06885464191437 -26.12541147470474 -43.54643630981447 -26.65732192993164 -43.18432939052583 -27.01292498707771 -42.7139419555664 -27.129818725585935 -43.06620519161227 -27.392082571983337 -43.38893737792968 -27.714814758300783 -45.3239242553711 -29.649801635742186 -45.3239242553711 -32.39478302001953 -45.3239242553711 -35.139764404296876 -43.38893737792968 -37.07475128173828 -41.45395050048826 -39.00973815917968 -38.70896911621095 -39.00973815917968 -35.963987731933585 -39.00973815917968 -34.02900085449217 -37.07475128173828 -32.09401397705081 -35.139764404296876 -32.09401397705081 -32.39478302001953 -32.09401397705081 -29.649801635742186 -34.02900085449217 -27.714814758300783 -34.351733040809634 -27.392082571983337 -34.70399627685545 -27.129818725585935 -34.233784621953944 -27.01292498707771 -33.871501922607436 -26.65732192993164 -33.349259370565406 -26.12541147470474 -33.354005432128886 -25.374830627441405 -33.349259370565406 -24.624425560235977 -33.871501922607436 -24.09233932495117 -34.40358815789223 -23.57009677290916 -35.153993225097636 -23.574842834472655
L -36.458984375000014 -23.574842834472655 -36.458984375000014 -21.054859924316403 -35.9189880371094 -21.054859924316403
Q -35.812992662191405 -21.765011358261106 -35.311492156982425 -22.314851379394533
L -35.288992309570304 -22.33735122680664
Q -34.56723939180377 -22.995647543668746 -33.62400360107422 -22.989846801757814 -32.63207673430442 -22.992307722568512 -31.914015197753898 -22.33735122680664
L -31.891515350341777 -22.314851379394533
Q -31.330952745676043 -21.700148516893385 -31.261519622802737 -20.87486114501953 -31.15570002794267 -20.8122834444046 -31.059020996093764 -20.739862060546876 0.674904417991641 2.935250818729401 29.0830711364746 -20.49236373901367 29.208226537704476 -20.61751914024353 29.330569458007815 -20.739862060546876 29.37398713231086 -21.647062939405437 29.983065032958976 -22.314851379394533
L 30.005564880371097 -22.33735122680664
Q 30.72362641692162 -22.992307722568512 31.715553283691392 -22.989846801757814 32.65878907442094 -22.995647543668746 33.3805419921875 -22.33735122680664
L 33.403041839599595 -22.314851379394533
Q 33.904366564750674 -21.765011358261106 34.01053771972657 -21.054859924316403
L 34.550534057617185 -21.054859924316403 34.550534057617185 -23.574842834472655 33.245542907714835 -23.574842834472655
Q 32.4949620604515 -23.57009677290916 31.963051605224607 -24.09233932495117 31.440633273124703 -24.624425560235977 31.445555114746085 -25.374830627441405 31.440633273124703 -26.12541147470474 31.963051605224607 -26.65732192993164 32.32515852451324 -27.01292498707771 32.79554595947265 -27.129818725585935 32.443282723426805 -27.392082571983337 32.12055053710937 -27.714814758300783 30.185563659667977 -29.649801635742186 30.185563659667977 -32.39478302001953 30.185563659667977 -35.139764404296876 32.12055053710937 -37.07475128173828 34.055537414550784 -39.00973815917968 36.80051879882812 -39.00973815917968 39.54550018310546 -39.00973815917968 41.48048706054688 -37.07475128173828 43.41547393798827 -35.139764404296876 43.41547393798827 -32.39478302001953 43.41547393798827 -29.649801635742186 41.48048706054688 -27.714814758300783 41.15775487422944 -27.392082571983337 40.8054916381836 -27.129818725585935 41.2757032930851 -27.01292498707771 41.63798599243164 -26.65732192993164 42.16022854447364 -26.12541147470474 42.15548248291016 -25.374830627441405 42.16022854447364 -24.624425560235977 41.63798599243164 -24.09233932495117 41.105899757146844 -23.57009677290916 40.35549468994141 -23.574842834472655
L 39.05050354003906 -23.574842834472655 39.05050354003906 22.36984558105469
Q 41.66505612134934 22.616113442182545 43.6854721069336 23.44983825683594 46.32744637727738 24.557779961824416 46.47545318603515 26.149819946289064
L 46.47545318603515 27.364811706542973
Q 46.43045349121094 29.029800415039066 43.6854721069336 30.154792785644535 40.85049133300781 31.369784545898437 36.845518493652335 31.369784545898437 32.79554595947265 31.369784545898437 30.005564880371097 30.154792785644535 27.26058349609376 29.029800415039066 27.170584106445304 27.364811706542973
L 27.170584106445304 26.329818725585938
Q 27.170584106445304 26.23911621570587 27.170584106445304 26.149819946289064 27.32105183601378 24.557779961824416 30.005564880371097 23.44983825683594 31.96674298644065 22.6273633658886 34.550534057617185 22.392345428466797
L 34.550534057617185 -20.15486602783203 34.01053771972657 -20.15486602783203
Q 33.899444723129264 -19.484265106916425 33.403041839599595 -18.939874267578126
L 33.3805419921875 -18.917374420166013
Q 32.769706290960315 -18.3603274166584 32.00805130004882 -18.28737869262695 31.82805252075194 -18.107379913330078 31.648053741455087 -17.927381134033205 31.581257319450387 -17.870428395271297 31.51305465698242 -17.814881896972658 0.9413869857788058 7.638422048091888 -33.219006347656276 -17.85988159179687 -33.39900512695313 -17.99488067626953 -33.57900390624998 -18.129879760742185 -33.664433014392856 -18.19526994228363 -33.73650283813477 -18.264878845214845 -34.61171174645422 -18.299859076738358 -35.288992309570304 -18.917374420166013
L -35.311492156982425 -18.939874267578126
Q -35.808070820569995 -19.484265106916425 -35.9189880371094 -20.15486602783203
L -36.458984375000014 -20.15486602783203 -36.458984375000014 22.392345428466797
Q -33.87519330382345 22.6273633658886 -31.914015197753898 23.44983825683594 -29.22950215339661 24.557779961824416 -29.079034423828105 26.149819946289064 -29.079034423828105 26.23911621570587 -29.079034423828105 26.329818725585938
L -29.079034423828105 27.364811706542973
Q -29.169033813476588 29.029800415039066 -31.914015197753898 30.154792785644535 Z
M -32.74650955200197 -21.347357940673824
Q -33.486192035675074 -21.244350826740266 -33.93900146484374 -20.649862670898436 -34.384955471754054 -20.055022954940796 -34.27649917602538 -19.32237167358398 -34.466517418622985 -19.415886664390563 -34.63649673461914 -19.569869995117188
L -34.658996582031264 -19.592369842529294
Q -35.058544653654124 -20.033226227760316 -35.06399383544921 -20.604862976074216 -35.05977511405946 -21.218862718343736 -34.658996582031264 -21.662355804443358
L -34.63649673461914 -21.684855651855464
Q -34.19546456933024 -22.084403723478317 -33.62400360107422 -22.08985290527344 -33.01211321949957 -22.087567764520642 -32.56651077270506 -21.684855651855464
L -32.544010925292994 -21.662355804443358
Q -32.416218823194484 -21.52085285782814 -32.3190124511719 -21.369857788085938 -32.53188210129737 -21.378998351097103 -32.74650955200197 -21.347357940673824 Z
M 32.52554779052734 -19.569869995117188
Q 32.53029385209082 -20.320450842380524 32.00805130004882 -20.852361297607423 31.475965064764026 -21.374779629707334 30.72555999755859 -21.369857788085938 30.563666564226153 -21.37091246843338 30.41056213378907 -21.347357940673824 30.501440423727033 -21.513997435569763 30.635560607910165 -21.662355804443358
L 30.658060455322257 -21.684855651855464
Q 31.103662902116767 -22.087567764520642 31.715553283691392 -22.08985290527344 32.28719003200531 -22.084403723478317 32.728046417236314 -21.684855651855464
L 32.750546264648435 -21.662355804443358
Q 33.15114901661873 -21.218862718343736 33.15554351806641 -20.604862976074216 33.149918556213365 -20.033402007818218 32.750546264648435 -19.592369842529294
L 32.728046417236314 -19.569869995117188
Q 32.62750022411346 -19.478815925121303 32.52554779052734 -19.41237106323242 32.526075130701074 -19.487780708074567 32.52554779052734 -19.569869995117188 Z"/>

<path id="Duplicate_Items_Folder_______0_Layer0_0_MEMBER_3_1_STROKES" stroke="#FF9700" stroke-width="2" stroke-linejoin="round" stroke-linecap="round" fill="none" d="
M -38.98002319335937 -20.57710189819336
L -36.064416503906244 -20.57710189819336
Q -36.064416503906244 -21.38699264526367 -35.497492980957034 -21.95391616821289 -34.93056945800781 -22.520839691162113 -34.161173248291014 -22.520839691162113 -33.3512825012207 -22.520839691162113 -32.784358978271484 -21.95391616821289 -32.21743545532227 -21.38699264526367 -32.21743545532227 -20.57710189819336 -32.21743545532227 -19.807705688476563 -32.784358978271484 -19.240782165527346 -33.3512825012207 -18.673858642578125 -34.161173248291014 -18.673858642578125 -34.93056945800781 -18.673858642578125 -35.497492980957034 -19.240782165527346 -36.064416503906244 -19.807705688476563 -36.064416503906244 -20.57710189819336"/>

<path id="Duplicate_Items_Folder_______0_Layer0_0_MEMBER_6_1_STROKES" stroke="#FFC419" stroke-width="4" stroke-linejoin="round" stroke-linecap="round" fill="none" d="
M -42.07660522460938 -25.35290298461914
L -34.967256164550776 -25.35290298461914"/>

<path id="Duplicate_Items_Folder_______0_Layer0_1_MEMBER_3_1_STROKES" stroke="#FF9700" stroke-width="2" stroke-linejoin="round" stroke-linecap="round" fill="none" d="
M 36.830023193359374 -20.57710189819336
L 33.914416503906246 -20.57710189819336
Q 33.914416503906246 -21.38699264526367 33.347492980957036 -21.95391616821289 32.78056945800781 -22.520839691162113 32.011173248291016 -22.520839691162113 31.201282501220703 -22.520839691162113 30.634358978271486 -21.95391616821289 30.06743545532227 -21.38699264526367 30.06743545532227 -20.57710189819336 30.06743545532227 -19.807705688476563 30.634358978271486 -19.240782165527346 31.201282501220703 -18.673858642578125 32.011173248291016 -18.673858642578125 32.78056945800781 -18.673858642578125 33.347492980957036 -19.240782165527346 33.914416503906246 -19.807705688476563 33.914416503906246 -20.57710189819336"/>

<path id="Duplicate_Items_Folder_______0_Layer0_1_MEMBER_6_1_STROKES" stroke="#FFC419" stroke-width="4" stroke-linejoin="round" stroke-linecap="round" fill="none" d="
M 40.07660522460938 -25.35290298461914
L 32.967256164550776 -25.35290298461914"/>

<path id="Duplicate_Items_Folder_______0_Layer0_2_1_STROKES" stroke="#EC0000" stroke-width="5" stroke-linejoin="round" stroke-linecap="round" fill="none" d="
M -32.51249542236328 -19.579846191406247
Q 0.9225832015275954 5.564084851741791 30.724324798583982 -19.579846191406247"/>

<path id="Duplicate_Items_Folder_Symbol_4_0_Layer1_0_1_STROKES" stroke="#CE0000" stroke-width="4" stroke-linejoin="round" stroke-linecap="round" fill="none" d="
M -41.8 -2.5
Q -28.3421875 -3.64375 -21.2 -18.05"/>

<path id="Duplicate_Items_Folder_Symbol_4_0_Layer1_1_1_STROKES" stroke="#CE0000" stroke-width="4" stroke-linejoin="round" stroke-linecap="round" fill="none" d="
M -32.05 4.55
Q -18.6 3.4 -11.45 -11"/>

<path id="Duplicate_Items_Folder_Symbol_4_0_Layer1_2_1_STROKES" stroke="#CE0000" stroke-width="4" stroke-linejoin="round" stroke-linecap="round" fill="none" d="
M -18.88529052734375 12.413885498046874
Q -5.803536891937256 9.05506057739258 -1.1484497070312472 -6.335562133789064"/>

<path id="Duplicate_Items_Folder_Symbol_4_0_Layer1_3_1_STROKES" stroke="#CE0000" stroke-width="4" stroke-linejoin="round" stroke-linecap="round" fill="none" d="
M -7.422726440429685 16.752565002441408
Q 5.280549693107606 12.165051174163818 8.451202392578129 -3.5986564636230494"/>

<path id="Duplicate_Items_Folder_Symbol_4_0_Layer1_4_1_STROKES" stroke="#CE0000" stroke-width="4" stroke-linejoin="round" stroke-linecap="round" fill="none" d="
M 23.474688720703124 9.186099243164058
Q 32.18234782218933 -1.1377664566040053 27.047082519531244 -16.37450408935547"/>

<path id="Duplicate_Items_Folder_Symbol_4_0_Layer1_5_1_STROKES" stroke="#CE0000" stroke-width="4" stroke-linejoin="round" stroke-linecap="round" fill="none" d="
M 5.5886077880859375 16.778749084472654
Q 17.69267814159393 10.786882400512695 19.063827514648438 -5.2336296081543"/>
</defs>

<g transform="matrix( 1, 0, 0, 0.999603271484375, 65,60) ">
<g transform="matrix( 1, 0, 0, 1, 0,0) ">
<use xlink:href="#icon_r_box_02_26_Layer3_0_FILL"/>
</g>

<g transform="matrix( 1, 0, 0, 1, -0.05,0.05) ">
<use xlink:href="#icon_r_box_02_26_Layer3_1_FILL"/>
</g>

<g transform="matrix( 1, 0, 0, 1, 0,-2.15) ">
<use xlink:href="#icon_r_box_02_26_Layer3_2_FILL"/>
</g>

<g transform="matrix( 1, 0, 0, 1, 0,0.05) ">
<use xlink:href="#icon_r_box_02_26_Layer3_3_FILL"/>
</g>

<g filter="url(#Filter_1)" transform="matrix( 0.9999847412109375, 0, 0, 1.000396728515625, -65,-60) ">
<g transform="matrix( 0.75, 0, 0, 0.74969482421875, 64.7,43.75) ">
<g transform="matrix( 0.899993896484375, 0, 0, 0.899993896484375, 113.3,-0.4) ">
<use xlink:href="#Duplicate_Items_Folder_______0_Layer1_0_FILL"/>

<use xlink:href="#Duplicate_Items_Folder_______0_Layer1_0_1_STROKES" transform="matrix( 1.111114501953125, 0, 0, 1.111114501953125, -125.85,0.4) "/>
</g>

<g transform="matrix( 0.8999176025390625, 0, 0, 0.8043365478515625, -5.9,1.35) ">
<use xlink:href="#Duplicate_Items_Folder_______0_Layer0_0_MEMBER_0_FILL"/>
</g>

<g transform="matrix( 0.854888916015625, 0, 0, 0.7640838623046875, -7.65,2.55) ">
<use xlink:href="#Duplicate_Items_Folder_______0_Layer0_0_MEMBER_1_FILL"/>
</g>

<g transform="matrix( 0.8999176025390625, 0, 0, 0.8999176025390625, -5.9,-0.4) ">
<use xlink:href="#Duplicate_Items_Folder_______0_Layer0_0_MEMBER_2_FILL"/>
</g>

<g transform="matrix( 0.8098907470703125, 0, 0, 0.8098907470703125, -9.5,-2.8) ">
<use xlink:href="#Duplicate_Items_Folder_______0_Layer0_0_MEMBER_3_1_STROKES" transform="matrix( 1.2347259521484375, 0, 0, 1.2347259521484375, 11.7,3.45) "/>
</g>

<g transform="matrix( 0.8999176025390625, 0, 0, 0.8999176025390625, -5.9,-0.4) ">
<use xlink:href="#Duplicate_Items_Folder_______0_Layer0_0_MEMBER_4_FILL"/>
</g>

<g transform="matrix( 0.8999176025390625, 0, 0, 0.8999176025390625, -5.9,-7.45) ">
<use xlink:href="#Duplicate_Items_Folder_______0_Layer0_0_MEMBER_5_FILL"/>
</g>

<g transform="matrix( 0.8999176025390625, 0, 0, 0.8999176025390625, -5,-2.45) ">
<use xlink:href="#Duplicate_Items_Folder_______0_Layer0_0_MEMBER_6_1_STROKES" transform="matrix( 1.1112060546875, 0, 0, 1.1112060546875, 5.55,2.7) "/>
</g>

<g transform="matrix( 0.1978912353515625, 0, 0, 0.1978912353515625, -33.95,-30.35) ">
<use xlink:href="#Duplicate_Items_Folder_______0_Layer0_0_MEMBER_7_FILL"/>
</g>

<g transform="matrix( -0.8999176025390625, 0, 0, 0.8043365478515625, 3.85,1.35) ">
<use xlink:href="#Duplicate_Items_Folder_______0_Layer0_1_MEMBER_0_FILL"/>
</g>

<g transform="matrix( -0.854888916015625, 0, 0, 0.7640838623046875, 5.5,2.55) ">
<use xlink:href="#Duplicate_Items_Folder_______0_Layer0_1_MEMBER_1_FILL"/>
</g>

<g transform="matrix( -0.8999176025390625, 0, 0, 0.8999176025390625, 3.85,-0.4) ">
<use xlink:href="#Duplicate_Items_Folder_______0_Layer0_1_MEMBER_2_FILL"/>
</g>

<g transform="matrix( -0.8098907470703125, 0, 0, 0.8098907470703125, 7.35,-2.8) ">
<use xlink:href="#Duplicate_Items_Folder_______0_Layer0_1_MEMBER_3_1_STROKES" transform="matrix( -1.2347259521484375, 0, 0, 1.2347259521484375, 9.05,3.45) "/>
</g>

<g transform="matrix( -0.8999176025390625, 0, 0, 0.8999176025390625, 3.85,-0.4) ">
<use xlink:href="#Duplicate_Items_Folder_______0_Layer0_1_MEMBER_4_FILL"/>
</g>

<g transform="matrix( 0.8999176025390625, 0, 0, 0.8999176025390625, 69.25,-7.45) ">
<use xlink:href="#Duplicate_Items_Folder_______0_Layer0_1_MEMBER_5_FILL"/>
</g>

<g transform="matrix( -0.8999176025390625, 0, 0, 0.8999176025390625, 3,-2.45) ">
<use xlink:href="#Duplicate_Items_Folder_______0_Layer0_1_MEMBER_6_1_STROKES" transform="matrix( -1.1112060546875, 0, 0, 1.1112060546875, 3.3,2.7) "/>
</g>

<g transform="matrix( 0.1978912353515625, 0, 0, 0.1978912353515625, 41.1,-30.35) ">
<use xlink:href="#Duplicate_Items_Folder_______0_Layer0_1_MEMBER_7_FILL"/>
</g>

<g transform="matrix( 0.9617767333984375, 0, 0, 0.899993896484375, 2.4,3.1) ">
<use xlink:href="#Duplicate_Items_Folder_______0_Layer0_2_1_STROKES" transform="matrix( 1.03973388671875, 0, 0, 1.111114501953125, -2.45,-3.4) "/>
</g>

<g transform="matrix( 0.899993896484375, 0, 0, 0.899993896484375, -0.8,-13.15) ">
<mask id="Mask_Mask_1">
<g transform="matrix( 1, 0, 0, 1, 103.9,14.25) ">
<use xlink:href="#Mask_Duplicate_Items_Folder_Symbol_4_0_2_MASK_0_FILL"/>
</g>
</mask>

<g mask="url(#Mask_Mask_1)">
<g transform="matrix( 1, 0, 0, 1, 103.9,14.25) ">
<use xlink:href="#Duplicate_Items_Folder_Symbol_4_0_Layer2_0_FILL"/>
</g>
</g>

<g mask="url(#Mask_Mask_1)">
<g transform="matrix( 1, 0, 0, 1, 4.15,1.7) ">
<use xlink:href="#Duplicate_Items_Folder_Symbol_4_0_Layer1_0_1_STROKES"/>
</g>

<g transform="matrix( 1, 0, 0, 1, 1,2.25) ">
<use xlink:href="#Duplicate_Items_Folder_Symbol_4_0_Layer1_1_1_STROKES"/>
</g>

<g transform="matrix( 0.98614501953125, -0.165771484375, 0.165771484375, 0.98614501953125, 22.75,7.95) ">
<use xlink:href="#Duplicate_Items_Folder_Symbol_4_0_Layer1_2_1_STROKES" transform="matrix( 0.986175537109375, 0.165771484375, -0.165771484375, 0.986175537109375, -21.1,-11.6) "/>
</g>

<g transform="matrix( 0.9659271240234375, -0.2587890625, 0.2587890625, 0.9659271240234375, 33.6,8.35) ">
<use xlink:href="#Duplicate_Items_Folder_Symbol_4_0_Layer1_3_1_STROKES" transform="matrix( 0.9659271240234375, 0.2587890625, -0.2587890625, 0.9659271240234375, -30.25,-16.75) "/>
</g>

<g transform="matrix( 0.707122802734375, -0.70703125, 0.70703125, 0.707122802734375, 54.8,-18.6) ">
<use xlink:href="#Duplicate_Items_Folder_Symbol_4_0_Layer1_4_1_STROKES" transform="matrix( 0.7071685791015625, 0.7070770263671875, -0.7070770263671875, 0.7071685791015625, -51.9,-25.55) "/>
</g>

<g transform="matrix( 0.9305267333984375, -0.36614990234375, 0.36614990234375, 0.9305267333984375, 45.4,3.8) ">
<use xlink:href="#Duplicate_Items_Folder_Symbol_4_0_Layer1_5_1_STROKES" transform="matrix( 0.930572509765625, 0.3661651611328125, -0.3661651611328125, 0.930572509765625, -40.85,-20.15) "/>
</g>
</g>
</g>
</g>
</g>
</g>
</svg>
