
<svg xmlns="http://www.w3.org/2000/svg" version="1.1" xmlns:xlink="http://www.w3.org/1999/xlink" preserveAspectRatio="none" x="0px" y="0px" width="130px" height="115px" viewBox="0 0 130 115">
<defs>
<filter id="Filter_1" x="-22.606162841781305%" y="-21.82118357381397%" width="145.2123256835626%" height="143.64236714762794%" color-interpolation-filters="sRGB">
<feFlood flood-color="#000000" flood-opacity="1" in="SourceGraphic" result="result1"/>

<feGaussianBlur in="SourceGraphic" stdDeviation="1.6666666666666667,1.6666666666666667" result="result2"/>

<feComposite in2="result2" in="result1" operator="in" result="result3"/>

<feComposite in2="result3" in="SourceGraphic" operator="over" result="result4"/>
</filter>

<g id="icon_r_box_02_28_Layer3_0_FILL">
<path fill="#FFFFFF" fill-opacity="0" stroke="none" d="
M 65 -55
L -65 -55 -65 25 65 25 65 -55 Z"/>
</g>

<g id="icon_r_box_02_28_Layer3_1_FILL">
<path fill="#FFFFFF" fill-opacity="0" stroke="none" d="
M 65.05 49.95
L 65.05 24.95 -64.95 24.95 -64.95 49.95 65.05 49.95 Z"/>
</g>

<g id="icon_r_box_02_28_Layer3_2_FILL">
<path fill="#FFFFFF" fill-opacity="0" stroke="none" d="
M 65 -52.85
L 65 -57.85 -65 -57.85 -65 -52.85 65 -52.85 Z"/>
</g>

<g id="icon_r_box_02_28_Layer3_3_FILL">
<path fill="#FFFFFF" fill-opacity="0" stroke="none" d="
M 65 54.95
L 65 49.95 -65 49.95 -65 54.95 65 54.95 Z"/>
</g>

<g id="Duplicate_Items_Folder_____0_Layer1_0_FILL">
<path fill="#FFFFFF" stroke="none" d="
M -42.95 -46.55
Q -43.08671875 -47.23671875 -43.6 -47.75 -44.35 -48.5 -45.35 -48.5
L -45.4 -48.5
Q -46.4 -48.5 -47.1 -47.75 -47.85 -47.05 -47.85 -46.05
L -47.85 -34.25
Q -47.85 -33.25 -47.1 -32.55 -46.4 -31.8 -45.4 -31.8
L -45.35 -31.8
Q -44.35 -31.8 -43.6 -32.55 -43.08671875 -33.06328125 -42.95 -33.75
L -42.95 -33.65
Q -42.3560546875 -33.65 -41.8 -33.75
L -41.8 -33.1
Q -41.6986328125 -33.1103515625 -41.6 -33.15
L -41.6 -27.85
Q -41.6 -27 -41 -26.35 -40.8611328125 -26.2111328125 -40.7 -26.1
L -40.7 3.15
Q -40.7 5.1 -38.75 7.85 -38.4041015625 8.2302734375 -37.9 8.45 -38 8.805859375 -38 9.15
L -38 15.75
Q -38 16.75 -37.25 17.55 -36.5908203125 18.2091796875 -35.7 18.3
L -35.7 26.2
Q -35.7 39.9001953125 -22 39.9
L 19.05 39.9
Q 32.7501953125 39.9 32.75 26.2
L 32.75 -18.9
Q 32.8416015625 -18.8509765625 32.95 -18.85 33.1552734375 -18.8517578125 33.3 -19 33.4482421875 -19.1447265625 33.45 -19.35
L 33.45 -21 34.3 -21
Q 34.55 -21 34.75 -21.15 34.95 -21.35 34.95 -21.6
L 34.95 -28.1
Q 34.95 -33.8 29.25 -33.8
L 26.4 -33.8 26.4 -35.4
Q 26.4 -40.5 21.35 -40.5
L -11.5 -40.5
Q -16.6 -40.5 -16.6 -35.4
L -16.6 26.3
Q -16.6 31.4 -11.5 31.4
L 21.35 31.4
Q 26.4 31.4 26.4 26.3
L 26.4 -27.45 28.6 -27.45 28.6 -21.6
Q 28.6 -21.35 28.8 -21.15 29 -21 29.25 -21
L 29.85 -21 29.85 -19.35
Q 29.8517578125 -19.1447265625 30 -19 30.1447265625 -18.8517578125 30.35 -18.85
L 30.75 -18.85 30.75 26.2
Q 30.7498046875 37.9 19.05 37.9
L -22 37.9
Q -33.7 37.8998046875 -33.7 26.2
L -33.7 18.25
Q -32.9029296875 18.1529296875 -32.3 17.55 -31.55 16.75 -31.55 15.75
L -31.55 9.15
Q -31.55 8.82421875 -31.65 8.5 -30.83671875 8.255078125 -30.55 7.9 -28.509765625 6.05625 -28.5 3.15
L -28.5 -16.55
Q -28.2810546875 -16.6689453125 -28.1 -16.85 -27.5 -17.5 -27.5 -18.35
L -27.5 -23.75
Q -26.86171875 -23.533203125 -26.05 -23.45
L -26.05 -24.65
Q -26.032421875 -23.682421875 -25.35 -23 -24.6 -22.25 -23.6 -22.25
L -23.55 -22.25
Q -22.55 -22.25 -21.85 -23 -21.1 -23.7 -21.1 -24.7
L -21.1 -36.5
Q -21.1 -37.5 -21.85 -38.2 -22.55 -38.95 -23.55 -38.95
L -23.6 -38.95
Q -24.6 -38.95 -25.35 -38.2 -26.032421875 -37.517578125 -26.05 -36.55
L -26.05 -37.3
Q -28.7 -37.3 -30.6 -35.4 -32.45 -33.5 -32.45 -30.8 -32.45 -28.916796875 -31.55 -27.45
L -31.55 -18.35
Q -31.55 -17.5 -31 -16.85 -30.7685546875 -16.637890625 -30.5 -16.5
L -30.5 3.15
Q -30.490234375 5.1435546875 -31.9 6.4
L -33.05 6.8
Q -33.5287109375 6.6 -34.1 6.6
L -35.45 6.6
Q -36.057421875 6.6 -36.6 6.85 -36.9 6.75 -37.4 6.4 -38.698828125 5.1775390625 -38.7 3.15
L -38.7 -25.95
Q -38.373828125 -26.0990234375 -38.1 -26.35 -37.55 -27 -37.55 -27.85
L -37.55 -36.65
Q -36.55 -38.165234375 -36.55 -40.15 -36.55 -42.85 -38.4 -44.75 -39.7 -46 -42.95 -46.55 Z"/>
</g>

<g id="Duplicate_Items_Folder_____0_Layer0_1_FILL">
<path fill="#FFCC17" stroke="none" d="
M 33.2 -22.6
Q 33.1 -22.7 32.95 -22.7
L 30.35 -22.7
Q 30.25 -22.7 30.15 -22.6 30.05 -22.5 30.05 -22.35
L 30.05 -19.35
Q 30.05 -19.2 30.15 -19.1 30.25 -19 30.35 -19
L 32.95 -19
Q 33.1 -19 33.2 -19.1 33.3 -19.2 33.3 -19.35
L 33.3 -22.35
Q 33.3 -22.5 33.2 -22.6 Z"/>
</g>

<g id="Duplicate_Items_Folder_____0_Layer0_2_FILL">
<path fill="#FF9F28" stroke="none" d="
M 15.8 -27.4
Q 15.5947265625 -27.3982421875 15.45 -27.25 15.3017578125 -27.1052734375 15.3 -26.9
L 15.3 -22.9
Q 15.3017578125 -22.6947265625 15.45 -22.55 15.5947265625 -22.4017578125 15.8 -22.4
L 20.5 -22.4 20.5 -17.8
Q 20.5 -17.6 20.65 -17.45 20.8 -17.3 21 -17.3
L 25 -17.3
Q 25.2 -17.3 25.35 -17.45 25.5 -17.6 25.5 -17.8
L 25.5 -22.9
Q 25.5 -27.4 21 -27.4
L 15.8 -27.4 Z"/>
</g>

<g id="Duplicate_Items_Folder_____0_Layer0_4_FILL">
<path fill="#FFCC17" stroke="none" d="
M -43.75 -18.25
Q -43.75 -17.4 -43.2 -16.8 -42.6 -16.25 -41.75 -16.25 -40.9 -16.25 -40.35 -16.8 -39.75 -17.4 -39.75 -18.25
L -39.75 -29.05
Q -39.75 -29.9 -40.35 -30.45 -40.9 -31.05 -41.75 -31.05 -42.6 -31.05 -43.2 -30.45 -43.75 -29.9 -43.75 -29.05
L -43.75 -18.25 Z"/>
</g>

<g id="Duplicate_Items_Folder_____0_Layer0_5_FILL">
<path fill="#D097FF" stroke="none" d="
M 19.45 -21.35
Q 19.45 -25.35 15.45 -25.35
L -10.4 -25.35
Q -14.4 -25.35 -14.4 -21.35
L -14.4 25.05
Q -14.4 29.05 -10.4 29.05
L 15.45 29.05
Q 19.45 29.05 19.45 25.05
L 19.45 -21.35 Z"/>
</g>

<g id="Duplicate_Items_Folder_____0_Layer0_6_FILL">
<path fill="#D9AAFF" stroke="none" d="
M 19.45 -21.35
Q 19.45 -25.35 15.45 -25.35
L -10.4 -25.35
Q -14.4 -25.35 -14.4 -21.35
L -14.4 25.05
Q -14.4 29.05 -10.4 29.05
L 15.45 29.05
Q 19.45 29.05 19.45 25.05
L 19.45 -21.35 Z"/>
</g>

<g id="Duplicate_Items_Folder_____0_Layer0_7_FILL">
<path fill="#BA65FF" stroke="none" d="
M 11.75 -24.55
L 12.05 -25.35 -7 -25.35 -6.75 -24.55
Q -5.85 -21.95 -2.95 -21.95
L 7.9 -21.95
Q 10.8 -21.95 11.75 -24.55 Z"/>
</g>

<g id="Mask_Duplicate_Items_Folder_Symbol_20_0_2_MASK_0_FILL">
<path fill="#FFFFFF" stroke="none" d="
M 16.85 -15.55
Q 16.85 -19.15 13.25 -19.15
L -8.2 -19.15
Q -11.8 -19.15 -11.8 -15.55
L -11.8 13.6
Q -11.8 17.2 -8.2 17.2
L 13.25 17.2
Q 16.85 17.2 16.85 13.6
L 16.85 -15.55 Z"/>
</g>

<g id="Duplicate_Items_Folder_Symbol_20_0_Layer2_0_FILL">
<path fill="#3A1487" stroke="none" d="
M 16.85 -15.55
Q 16.85 -19.15 13.25 -19.15
L -8.2 -19.15
Q -11.8 -19.15 -11.8 -15.55
L -11.8 13.6
Q -11.8 17.2 -8.2 17.2
L 13.25 17.2
Q 16.85 17.2 16.85 13.6
L 16.85 -15.55 Z"/>
</g>

<g id="Duplicate_Items_Folder_Symbol_20_0_Layer2_1_FILL">
<path fill="#5222B4" stroke="none" d="
M 99.55 27.6
L 99.55 9.05 79.8 31.2 95.95 31.2
Q 99.55 31.2 99.55 27.6 Z"/>
</g>

<g id="Duplicate_Items_Folder_____0_Layer0_9_FILL">
<path fill="#FFFFFF" fill-opacity="0.4" stroke="none" d="
M -7.85 -21.5
Q -7.85 -22.2 -8.4 -22.75 -8.9 -23.25 -9.6 -23.25 -10.3 -23.25 -10.85 -22.75 -11.35 -22.2 -11.35 -21.5 -11.35 -20.8 -10.85 -20.3 -10.3 -19.75 -9.6 -19.75 -8.9 -19.75 -8.4 -20.3 -7.85 -20.8 -7.85 -21.5 Z"/>
</g>

<g id="Duplicate_Items_Folder_____0_Layer0_10_FILL">
<path fill="#BA65FF" stroke="none" d="
M 11.75 -24.55
L 12.05 -25.35 -7 -25.35 -6.75 -24.55
Q -5.85 -21.95 -2.95 -21.95
L 7.9 -21.95
Q 10.8 -21.95 11.75 -24.55 Z"/>
</g>

<g id="Duplicate_Items_Folder_____0_Layer0_11_FILL">
<path fill="#CE92FF" stroke="none" d="
M -10.75 16.05
Q -11.75 16.05 -12.55 16.8 -13.25 17.5 -13.3 18.45
L -13.3 19.25
Q -13.3 20.2 -12.55 20.95 -11.75 21.7 -10.75 21.7
L -5.2 21.7
Q -4.2 21.7 -3.45 20.95 -2.7 20.2 -2.7 19.25
L -2.7 18.6
Q -2.7 18.55 -2.7 18.45 -2.75 17.5 -3.45 16.8 -4.2 16.05 -5.2 16.05
L -10.75 16.05
M 2.1 16.05
Q 1.05 16.05 0.3 16.8 -0.4 17.5 -0.45 18.45 -0.45 18.55 -0.45 18.6
L -0.45 19.25
Q -0.45 20.2 0.3 20.95 1.05 21.7 2.1 21.7
L 7.6 21.7
Q 8.6 21.7 9.4 20.95 10.15 20.2 10.15 19.25
L 10.15 18.6
Q 10.15 18.55 10.15 18.45 10.1 17.5 9.4 16.8 8.6 16.05 7.6 16.05
L 2.1 16.05
M 22.35 16.8
Q 21.6 16.05 20.55 16.05
L 15.05 16.05
Q 14 16.05 13.25 16.8 12.55 17.5 12.5 18.45 12.5 18.55 12.5 18.6
L 12.5 19.25
Q 12.5 20.2 13.25 20.95 14 21.7 15.05 21.7
L 20.55 21.7
Q 21.6 21.7 22.35 20.95 23.1 20.2 23.1 19.25
L 23.1 18.6
Q 23.1 18.55 23.1 18.45 23.05 17.5 22.35 16.8 Z"/>
</g>

<g id="Duplicate_Items_Folder_____0_Layer0_12_FILL">
<path fill="#C682FF" stroke="none" d="
M -43 27.65
L -43 27.15
Q -43 27.1 -43 27.05 -43.05 26.3 -43.6 25.75 -43.7037109375 25.6462890625 -43.85 25.55 -43.4408203125 26.0390625 -43.4 26.65 -43.4 26.7 -43.4 26.75
L -43.4 27.25
Q -43.4 28 -44 28.6 -44.6 29.2 -45.4 29.2
L -49.75 29.2
Q -50.4146484375 29.2 -50.95 28.75 -50.8548828125 28.8951171875 -50.75 29 -50.15 29.6 -49.35 29.6
L -45 29.6
Q -44.2 29.6 -43.6 29 -43 28.4 -43 27.65
M -32.9 27.65
L -32.9 27.15
Q -32.9 27.1 -32.9 27.05 -32.95 26.3 -33.5 25.75 -33.6037109375 25.6462890625 -33.75 25.55 -33.3408203125 26.0390625 -33.3 26.65 -33.3 26.7 -33.3 26.75
L -33.3 27.25
Q -33.3 28 -33.9 28.6 -34.5 29.2 -35.3 29.2
L -39.65 29.2
Q -40.3146484375 29.2 -40.85 28.75 -40.7548828125 28.8951171875 -40.65 29 -40.05 29.6 -39.25 29.6
L -34.9 29.6
Q -34.1 29.6 -33.5 29 -32.9 28.4 -32.9 27.65
M -22.7 27.65
L -22.7 27.15
Q -22.7 27.1 -22.7 27.05 -22.75 26.3 -23.3 25.75 -23.4037109375 25.6462890625 -23.55 25.55 -23.1408203125 26.0390625 -23.1 26.65 -23.1 26.7 -23.1 26.75
L -23.1 27.25
Q -23.1 28 -23.7 28.6 -24.3 29.2 -25.1 29.2
L -29.45 29.2
Q -30.1146484375 29.2 -30.65 28.75 -30.5548828125 28.8951171875 -30.45 29 -29.85 29.6 -29.05 29.6
L -24.7 29.6
Q -23.9 29.6 -23.3 29 -22.7 28.4 -22.7 27.65 Z"/>
</g>

<g id="Duplicate_Items_Folder_____0_Layer0_13_FILL">
<path fill="#F1BD04" stroke="none" d="
M -41.75 -15.7
L -41.75 -18.6
Q -41.75 -19.25 -42.2 -19.7 -42.65 -20.2 -43.35 -20.2 -44.05 -20.2 -44.45 -19.7 -44.95 -19.25 -44.95 -18.6
L -44.95 -13.7
Q -43.4 -13.85 -42.7 -14.6 -41.95 -15.3 -41.75 -15.7 Z"/>
</g>

<g id="Duplicate_Items_Folder_____0_Layer0_14_FILL">
<path fill="#FFD53E" stroke="none" d="
M -29.35 -35.4
Q -31.2 -33.5 -31.2 -30.8 -31.2 -28.1 -29.35 -26.2 -27.45 -24.3 -24.8 -24.3
L -24.8 -37.3
Q -27.45 -37.3 -29.35 -35.4 Z"/>
</g>

<g id="Duplicate_Items_Folder_____0_Layer0_15_FILL">
<path fill="#FF9F28" stroke="none" d="
M -41.2 -35.1
Q -41.9 -34.4 -41.9 -33.4
L -41.9 -21.8
Q -41.9 -20.8 -41.2 -20.1 -40.5 -19.4 -39.5 -19.4
L -39.45 -19.4
Q -38.45 -19.4 -37.75 -20.1 -37.05 -20.8 -37.05 -21.8
L -37.05 -33.4
Q -37.05 -34.4 -37.75 -35.1 -38.45 -35.8 -39.45 -35.8
L -39.5 -35.8
Q -40.5 -35.8 -41.2 -35.1 Z"/>
</g>

<g id="Duplicate_Items_Folder_____0_Layer0_16_FILL">
<path fill="#FFEAA0" stroke="none" d="
M -31.85 -33.7
Q -31.85 -34.2 -32.25 -34.6 -32.6 -34.95 -33.1 -34.95 -33.6 -34.95 -34 -34.6 -34.35 -34.2 -34.35 -33.7 -34.35 -33.2 -34 -32.85 -33.6 -32.45 -33.1 -32.45 -32.6 -32.45 -32.25 -32.85 -31.85 -33.2 -31.85 -33.7 Z"/>
</g>

<g id="Duplicate_Items_Folder_____0_Layer0_17_FILL">
<path fill="#FF9F28" stroke="none" d="
M -26.2 12.2
L -26.2 7
Q -26.2 6.2 -26.8 5.6 -27.4 5 -28.2 5
L -29.3 5
Q -30.1 5 -30.7 5.6 -31.3 6.2 -31.3 7
L -31.3 12.2
Q -31.3 13 -30.7 13.6 -30.1 14.2 -29.3 14.2
L -28.2 14.2
Q -27.4 14.2 -26.8 13.6 -26.2 13 -26.2 12.2 Z"/>
</g>

<g id="Duplicate_Items_Folder_____0_Layer0_18_MEMBER_0_FILL">
<path fill="#FFCC17" stroke="none" d="
M -43.75 -18.25
Q -43.75 -17.4 -43.2 -16.8 -42.6 -16.25 -41.75 -16.25 -40.9 -16.25 -40.35 -16.8 -39.75 -17.4 -39.75 -18.25
L -39.75 -29.05
Q -39.75 -29.9 -40.35 -30.45 -40.9 -31.05 -41.75 -31.05 -42.6 -31.05 -43.2 -30.45 -43.75 -29.9 -43.75 -29.05
L -43.75 -18.25 Z"/>
</g>

<g id="Duplicate_Items_Folder_____0_Layer0_18_MEMBER_1_FILL">
<path fill="#F1BD04" stroke="none" d="
M -41.75 -15.7
L -41.75 -18.6
Q -41.75 -19.25 -42.2 -19.7 -42.65 -20.2 -43.35 -20.2 -44.05 -20.2 -44.45 -19.7 -44.95 -19.25 -44.95 -18.6
L -44.95 -13.7
Q -43.4 -13.85 -42.7 -14.6 -41.95 -15.3 -41.75 -15.7 Z"/>
</g>

<g id="Duplicate_Items_Folder_____0_Layer0_18_MEMBER_2_FILL">
<path fill="#FFD53E" stroke="none" d="
M -26.3 -24.55
Q -26.3 -26.5 -27.65 -27.85 -28.9826171875 -29.1826171875 -30.9 -29.2
L -30.9 -19.9
Q -28.9826171875 -19.9173828125 -27.65 -21.25 -26.3 -22.6 -26.3 -24.55 Z"/>
</g>

<g id="Duplicate_Items_Folder_____0_Layer0_18_MEMBER_3_FILL">
<path fill="#FF9F28" stroke="none" d="
M -41.2 -35.1
Q -41.9 -34.4 -41.9 -33.4
L -41.9 -21.8
Q -41.9 -20.8 -41.2 -20.1 -40.5 -19.4 -39.5 -19.4
L -39.45 -19.4
Q -38.45 -19.4 -37.75 -20.1 -37.05 -20.8 -37.05 -21.8
L -37.05 -33.4
Q -37.05 -34.4 -37.75 -35.1 -38.45 -35.8 -39.45 -35.8
L -39.5 -35.8
Q -40.5 -35.8 -41.2 -35.1 Z"/>
</g>

<g id="Duplicate_Items_Folder_____0_Layer0_18_MEMBER_4_FILL">
<path fill="#FFEAA0" stroke="none" d="
M -31.85 -33.7
Q -31.85 -34.2 -32.25 -34.6 -32.6 -34.95 -33.1 -34.95 -33.6 -34.95 -34 -34.6 -34.35 -34.2 -34.35 -33.7 -34.35 -33.2 -34 -32.85 -33.6 -32.45 -33.1 -32.45 -32.6 -32.45 -32.25 -32.85 -31.85 -33.2 -31.85 -33.7 Z"/>
</g>

<path id="Duplicate_Items_Folder_____0_Layer1_0_1_STROKES" stroke="#FFFFFF" stroke-width="8" stroke-linejoin="miter" stroke-linecap="butt" stroke-miterlimit="10" fill="none" d="
M -35.45 6.6
L -34.1 6.6
Q -33.5287109375 6.6 -33.05 6.825
L -31.875 6.4
Q -30.490234375 5.1435546875 -30.5 3.15
L -30.5 -16.5
Q -30.7685546875 -16.637890625 -31 -16.85 -31.55 -17.5 -31.55 -18.35
L -31.55 -27.425
Q -32.45 -28.916796875 -32.45 -30.8 -32.45 -33.5 -30.6 -35.4 -28.7 -37.3 -26.05 -37.3
L -26.05 -36.55
Q -26.032421875 -37.517578125 -25.35 -38.2 -24.6 -38.95 -23.6 -38.95
L -23.55 -38.95
Q -22.55 -38.95 -21.85 -38.2 -21.1 -37.5 -21.1 -36.5
L -21.1 -24.7
Q -21.1 -23.7 -21.85 -23 -22.55 -22.25 -23.55 -22.25
L -23.6 -22.25
Q -24.6 -22.25 -25.35 -23 -26.032421875 -23.682421875 -26.05 -24.65
L -26.05 -23.45
Q -26.86171875 -23.533203125 -27.5 -23.75
L -27.5 -18.35
Q -27.5 -17.5 -28.1 -16.85 -28.2810546875 -16.6689453125 -28.5 -16.55
L -28.5 3.15
Q -28.509765625 6.05625 -30.525 7.9 -30.83671875 8.255078125 -31.625 8.525 -31.55 8.82421875 -31.55 9.15
L -31.55 15.75
Q -31.55 16.75 -32.3 17.55 -32.9029296875 18.1529296875 -33.7 18.275
L -33.7 26.2
Q -33.7 37.8998046875 -22 37.9
L 19.05 37.9
Q 30.7498046875 37.9 30.75 26.2
L 30.75 -18.85 30.35 -18.85
Q 30.1447265625 -18.8517578125 30 -19 29.8517578125 -19.1447265625 29.85 -19.35
L 29.85 -21 29.25 -21
Q 29 -21 28.8 -21.15 28.6 -21.35 28.6 -21.6
L 28.6 -27.45 26.4 -27.45 26.4 26.3
Q 26.4 31.4 21.35 31.4
L -11.5 31.4
Q -16.6 31.4 -16.6 26.3
L -16.6 -35.4
Q -16.6 -40.5 -11.5 -40.5
L 21.35 -40.5
Q 26.4 -40.5 26.4 -35.4
L 26.4 -33.8 29.25 -33.8
Q 34.95 -33.8 34.95 -28.1
L 34.95 -21.6
Q 34.95 -21.35 34.75 -21.15 34.55 -21 34.3 -21
L 33.45 -21 33.45 -19.35
Q 33.4482421875 -19.1447265625 33.3 -19 33.1552734375 -18.8517578125 32.95 -18.85 32.8416015625 -18.8509765625 32.75 -18.9
L 32.75 26.2
Q 32.7501953125 39.9 19.05 39.9
L -22 39.9
Q -35.7 39.9001953125 -35.7 26.2
L -35.7 18.3
Q -36.5908203125 18.2091796875 -37.25 17.55 -38 16.75 -38 15.75
L -38 9.15
Q -38 8.805859375 -37.9 8.475 -38.4041015625 8.2302734375 -38.75 7.85 -40.7 5.1 -40.7 3.15
L -40.7 -26.1
Q -40.8611328125 -26.2111328125 -41 -26.35 -41.6 -27 -41.6 -27.85
L -41.6 -33.125
Q -41.6986328125 -33.1103515625 -41.8 -33.1
L -41.8 -33.75
Q -42.3560546875 -33.65 -42.95 -33.65
L -42.95 -33.75
Q -43.08671875 -33.06328125 -43.6 -32.55 -44.35 -31.8 -45.35 -31.8
L -45.4 -31.8
Q -46.4 -31.8 -47.1 -32.55 -47.85 -33.25 -47.85 -34.25
L -47.85 -46.05
Q -47.85 -47.05 -47.1 -47.75 -46.4 -48.5 -45.4 -48.5
L -45.35 -48.5
Q -44.35 -48.5 -43.6 -47.75 -43.08671875 -47.23671875 -42.95 -46.55 -39.7 -46 -38.4 -44.75 -36.55 -42.85 -36.55 -40.15 -36.55 -38.165234375 -37.55 -36.625
L -37.55 -27.85
Q -37.55 -27 -38.1 -26.35 -38.373828125 -26.0990234375 -38.7 -25.95
L -38.7 3.15
Q -38.698828125 5.1775390625 -37.375 6.4 -36.9 6.75 -36.575 6.85 -36.057421875 6.6 -35.45 6.6 Z"/>

<path id="Duplicate_Items_Folder_____0_Layer0_0_1_STROKES" stroke="#1C304A" stroke-width="2" stroke-linejoin="miter" stroke-linecap="butt" stroke-miterlimit="10" fill="none" d="
M 31.75 -25.95
Q 31.75 -25.25 31.75 -24.55
L 31.75 26.2
Q 31.75 38.9 19.05 38.9
L -22 38.9
Q -34.7 38.9 -34.7 26.2
L -34.7 8.8"/>

<path id="Duplicate_Items_Folder_____0_Layer0_3_1_STROKES" stroke="#1C304A" stroke-width="2" stroke-linejoin="miter" stroke-linecap="butt" stroke-miterlimit="10" fill="none" d="
M -29.5 -21.6
L -29.5 3.15
Q -29.5 5.6 -31.2 7.15 -31.65 7.65 -32.55 8.15 -33.7 8.8 -34.7 8.8 -36.35 8.85 -38.05 7.15 -39.7 5.65 -39.7 3.15
L -39.7 -35"/>

<path id="Duplicate_Items_Folder_Symbol_20_0_Layer1_0_1_STROKES" stroke="#5222B4" stroke-width="7" stroke-linejoin="round" stroke-linecap="round" fill="none" d="
M 14.95 -24.45
L -23.7 18.95"/>
</defs>

<g transform="matrix( 1, 0, 0, 0.999603271484375, 65,60) ">
<g transform="matrix( 1, 0, 0, 1, 0,0) ">
<use xlink:href="#icon_r_box_02_28_Layer3_0_FILL"/>
</g>

<g transform="matrix( 1, 0, 0, 1, -0.05,0.05) ">
<use xlink:href="#icon_r_box_02_28_Layer3_1_FILL"/>
</g>

<g transform="matrix( 1, 0, 0, 1, 0,-2.15) ">
<use xlink:href="#icon_r_box_02_28_Layer3_2_FILL"/>
</g>

<g transform="matrix( 1, 0, 0, 1, 0,0.05) ">
<use xlink:href="#icon_r_box_02_28_Layer3_3_FILL"/>
</g>

<g filter="url(#Filter_1)" transform="matrix( 0.9999847412109375, 0, 0, 1.000396728515625, -65,-60) ">
<g transform="matrix( 0.7499847412109375, 0, 0, 0.7496795654296875, 65.6,44.25) ">
<g transform="matrix( 1, 0, 0, 1, 0,0) ">
<use xlink:href="#Duplicate_Items_Folder_____0_Layer1_0_FILL"/>

<use xlink:href="#Duplicate_Items_Folder_____0_Layer1_0_1_STROKES"/>
</g>

<g transform="matrix( 1, 0, 0, 1, 0,0) ">
<use xlink:href="#Duplicate_Items_Folder_____0_Layer0_0_1_STROKES"/>
</g>

<g transform="matrix( 1, 0, 0, 1, 0,0) ">
<use xlink:href="#Duplicate_Items_Folder_____0_Layer0_1_FILL"/>
</g>

<g transform="matrix( 1.27044677734375, 0, 0, 1.27044677734375, 2.55,1) ">
<use xlink:href="#Duplicate_Items_Folder_____0_Layer0_2_FILL"/>
</g>

<g transform="matrix( 1, 0, 0, 1, 0,0) ">
<use xlink:href="#Duplicate_Items_Folder_____0_Layer0_3_1_STROKES"/>
</g>

<g transform="matrix( 1.0163421630859375, 0, 0, 1.0163421630859375, 12.9,0.2) ">
<use xlink:href="#Duplicate_Items_Folder_____0_Layer0_4_FILL"/>
</g>

<g transform="matrix( 1.27044677734375, 0, 0, 1.27044677734375, 1.7,-5.5) ">
<use xlink:href="#Duplicate_Items_Folder_____0_Layer0_5_FILL"/>
</g>

<g transform="matrix( 1.27044677734375, 0, 0, 1.27044677734375, 1.7,-8.3) ">
<use xlink:href="#Duplicate_Items_Folder_____0_Layer0_6_FILL"/>
</g>

<g transform="matrix( 1.27044677734375, 0, 0, 1.27044677734375, 1.7,-8.3) ">
<use xlink:href="#Duplicate_Items_Folder_____0_Layer0_7_FILL"/>
</g>

<g transform="matrix( 1.27044677734375, 0, 0, 1.27044677734375, 4.8,-9.9) ">
<mask id="Mask_Mask_1">
<g transform="matrix( 1, 0, 0, 1, -2.5,0.95) ">
<use xlink:href="#Mask_Duplicate_Items_Folder_Symbol_20_0_2_MASK_0_FILL"/>
</g>
</mask>

<g mask="url(#Mask_Mask_1)">
<g transform="matrix( 1, 0, 0, 1, -2.5,0.95) ">
<use xlink:href="#Duplicate_Items_Folder_Symbol_20_0_Layer2_0_FILL"/>
</g>

<g transform="matrix( 1, 0, 0, 1, -83.75,-11.15) ">
<use xlink:href="#Duplicate_Items_Folder_Symbol_20_0_Layer2_1_FILL"/>
</g>
</g>

<g mask="url(#Mask_Mask_1)">
<g transform="matrix( 1, 0, 0, 1, 5.35,3.05) ">
<use xlink:href="#Duplicate_Items_Folder_Symbol_20_0_Layer1_0_1_STROKES"/>
</g>
</g>
</g>

<g transform="matrix( 1.0163421630859375, 0, 0, 1.0163421630859375, -2.95,-15.3) ">
<use xlink:href="#Duplicate_Items_Folder_____0_Layer0_9_FILL"/>
</g>

<g transform="matrix( -1.27044677734375, 0, 0, -1.27044677734375, 8.1,-3.6) ">
<use xlink:href="#Duplicate_Items_Folder_____0_Layer0_10_FILL"/>
</g>

<g transform="matrix( 1, 0, 0, 1, 0,0) ">
<use xlink:href="#Duplicate_Items_Folder_____0_Layer0_11_FILL"/>
</g>

<g transform="matrix( 1.27044677734375, 0, 0, 1.27044677734375, 51.95,-15.85) ">
<use xlink:href="#Duplicate_Items_Folder_____0_Layer0_12_FILL"/>
</g>

<g transform="matrix( -1.27044677734375, 0, 0, 1.27044677734375, -83.15,-6.05) ">
<use xlink:href="#Duplicate_Items_Folder_____0_Layer0_13_FILL"/>
</g>

<g transform="matrix( 1, 0, 0, 1, -1.25,0) ">
<use xlink:href="#Duplicate_Items_Folder_____0_Layer0_14_FILL"/>
</g>

<g transform="matrix( -1.0163421630859375, 0, 0, 1.0163421630859375, -63.7,-2.55) ">
<use xlink:href="#Duplicate_Items_Folder_____0_Layer0_15_FILL"/>
</g>

<g transform="matrix( 1.14337158203125, 0, 0, 1.14337158203125, 8.8,4.7) ">
<use xlink:href="#Duplicate_Items_Folder_____0_Layer0_16_FILL"/>
</g>

<g transform="matrix( 1.27044677734375, 0, 0, 1.27044677734375, 1.75,0.25) ">
<use xlink:href="#Duplicate_Items_Folder_____0_Layer0_17_FILL"/>
</g>

<g transform="matrix( -1.0163421630859375, 0, 0, 1.0163421630859375, -82,-9.3) ">
<use xlink:href="#Duplicate_Items_Folder_____0_Layer0_18_MEMBER_0_FILL"/>
</g>

<g transform="matrix( 1.27044677734375, 0, 0, 1.27044677734375, 15.3,-15.7) ">
<use xlink:href="#Duplicate_Items_Folder_____0_Layer0_18_MEMBER_1_FILL"/>
</g>

<g transform="matrix( 1.3931732177734375, 0, 0, 1.3931732177734375, 0.1,-5.95) ">
<use xlink:href="#Duplicate_Items_Folder_____0_Layer0_18_MEMBER_2_FILL"/>
</g>

<g transform="matrix( 1.0163421630859375, 0, 0, 1.0163421630859375, -5.25,-12.1) ">
<use xlink:href="#Duplicate_Items_Folder_____0_Layer0_18_MEMBER_3_FILL"/>
</g>

<g transform="matrix( 1.14337158203125, 0, 0, 1.14337158203125, -2.2,-4.4) ">
<use xlink:href="#Duplicate_Items_Folder_____0_Layer0_18_MEMBER_4_FILL"/>
</g>
</g>
</g>
</g>
</svg>
