
<svg xmlns="http://www.w3.org/2000/svg" version="1.1" xmlns:xlink="http://www.w3.org/1999/xlink" preserveAspectRatio="none" x="0px" y="0px" width="130px" height="115px" viewBox="0 0 130 115">
<defs>
<filter id="Filter_1" x="-27.751535430263473%" y="-20.70613003096617%" width="155.50307086052695%" height="141.41226006193233%" color-interpolation-filters="sRGB">
<feFlood flood-color="#000000" flood-opacity="1" in="SourceGraphic" result="result1"/>

<feGaussianBlur in="SourceGraphic" stdDeviation="1.6666666666666667,1.6666666666666667" result="result2"/>

<feComposite in2="result2" in="result1" operator="in" result="result3"/>

<feComposite in2="result3" in="SourceGraphic" operator="over" result="result4"/>
</filter>

<g id="icon_r_box_02_2_Layer3_0_FILL">
<path fill="#FFFFFF" fill-opacity="0" stroke="none" d="
M 65 -55
L -65 -55 -65 25 65 25 65 -55 Z"/>
</g>

<g id="icon_r_box_02_2_Layer3_1_FILL">
<path fill="#FFFFFF" fill-opacity="0" stroke="none" d="
M 65.05 49.95
L 65.05 24.95 -64.95 24.95 -64.95 49.95 65.05 49.95 Z"/>
</g>

<g id="icon_r_box_02_2_Layer3_2_FILL">
<path fill="#FFFFFF" fill-opacity="0" stroke="none" d="
M 65 -52.85
L 65 -57.85 -65 -57.85 -65 -52.85 65 -52.85 Z"/>
</g>

<g id="icon_r_box_02_2_Layer3_3_FILL">
<path fill="#FFFFFF" fill-opacity="0" stroke="none" d="
M 65 54.95
L 65 49.95 -65 49.95 -65 54.95 65 54.95 Z"/>
</g>

<g id="Duplicate_Items_Folder_Symbol_3_copy_0_Layer1_0_FILL">
<path fill="#FFFFFF" stroke="none" d="
M 61.45 16.6
Q 62.15 15.55 61.55 14.95 60.85 14.25 57.8 13.05 54.15 11.6 50.3 10.95 46.7 10.35 43.05 10.4
L 40.15 10.6 39.55 7.85
Q 47.4 4.3 60.15 2.85 61 2.8 61 1.55 61 0.3 60.15 0.2 58.1 -0.05 54.55 0 48.9 0.05 43.65 1.1 37.75 2.3 33 4 28.55 5.65 28.55 6.45
L 28.55 15.85 29.35 15.85 29.3 15.9 21.05 15.9 21.05 16.75
Q 16.0708984375 17.205859375 12.9 18.6 6.9 21.05 4.35 27.6 2.25 32.75 1.95 45.4 1.709375 53.1939453125 2.1 75.2
L 1.3 75.2 0 88.15 9.05 88.15 7.75 75.2 7.1 75.2
Q 6.708984375 53.2634765625 6.95 45.55
L 6.95 45.5
Q 7.25 34.05 9 29.4 10.7 24.95 14.8 23.2
L 14.85 23.2
Q 17.3134765625 22.2 21.05 21.8
L 21.05 22.5 28.1 22.5
Q 26.9 22.8470703125 26.9 24.4
L 26.9 27 26.9 28.45
Q 14.4 28.475 14.4 41
L 14.4 60.45 13.9 60.45
Q 11.9 60.45 11.9 62.45
L 11.9 64.45
Q 11.9 66.45 13.9 66.45
L 14.4 66.45 14.4 85.9
Q 14.4 93.821484375 19.4 96.75
L 19.4 100.65
Q 19.4 102.65 21.4 102.65
L 47.4 102.65
Q 49.4 102.65 49.4 100.65
L 49.4 96.75
Q 54.4 93.8212890625 54.4 85.9
L 54.35 67.85 54.4 67.85 54.4 66.45 54.9 66.45
Q 56.9 66.45 56.9 64.45
L 56.9 62.45
Q 56.9 60.45 54.9 60.45
L 54.35 60.45 54.3 38.9
Q 54.309375 38.803125 54.3 38.7 54.2673828125 38.4083984375 54.2 38.1
L 53.15 34.3
Q 52.3359375 32.5646484375 51 31.3 50.915625 31.2544921875 50.8 31.15 49.548046875 30.062109375 47.8 29.4 45.3177734375 28.4568359375 41.9 28.45
L 41.9 27 41.9 24.4
Q 41.9 22.4 39.9 22.4
L 39.25 22.4
Q 40.35 20.913671875 40.35 19 40.35 18.25 40.2 17.6 39.9568359375 16.6271484375 39.4 15.8
L 39.9 15.8
Q 45.4 14.55 52.7 15.65 57.75 16.4 59.9 17.35 60.75 17.7 61.45 16.6 Z"/>
</g>

<g id="Duplicate_Items_Folder_Symbol_3_copy_0_Layer0_0_MEMBER_0_FILL">
<path fill="#C32509" stroke="none" d="
M 112.55 29.05
L 86.55 29.05
Q 84.55 29.05 84.55 31.05
L 84.55 47.05
Q 84.55 49.05 86.55 49.05
L 112.55 49.05
Q 114.55 49.05 114.55 47.05
L 114.55 31.05
Q 114.55 29.05 112.55 29.05 Z"/>
</g>

<g id="Duplicate_Items_Folder_Symbol_3_copy_0_Layer0_0_MEMBER_1_FILL">
<path fill="#26265C" stroke="none" d="
M 122.05 17.85
Q 127.1 18.6 129.25 19.55 130.1 19.9 130.8 18.8 131.5 17.75 130.9 17.15 130.2 16.45 127.15 15.25 123.5 13.8 119.65 13.15 116.05 12.55 112.4 12.6
L 109.5 12.8 108.9 10.05
Q 116.75 6.5 129.5 5.05 130.35 5 130.35 3.75 130.35 2.5 129.5 2.4 127.45 2.15 123.9 2.2 118.25 2.25 113 3.3 107.1 4.5 102.35 6.2 97.9 7.85 97.9 8.65
L 97.9 18.05 109.25 18
Q 114.75 16.75 122.05 17.85 Z"/>
</g>

<g id="Duplicate_Items_Folder_Symbol_3_copy_0_Layer0_0_MEMBER_3_FILL">
<path fill="#E3F4FF" stroke="none" d="
M 103.5 20.15
L 91.4 20.15 91.4 23.1 103.5 23.1 103.5 20.15 Z"/>

<path fill="#FFFFFF" stroke="none" d="
M 91.4 20.15
L 103.5 20.15 103.5 16.5 91.4 16.5 91.4 20.15 Z"/>
</g>

<g id="Duplicate_Items_Folder_Symbol_3_copy_0_Layer0_0_MEMBER_4_FILL">
<path fill="#E73717" stroke="none" d="
M 97.25 25
L 97.25 27.6 112.25 27.6 112.25 25
Q 112.25 23 110.25 23
L 99.25 23
Q 97.25 23 97.25 25 Z"/>

<path fill="#C32509" stroke="none" d="
M 97.25 42.5
Q 97.25 44.5 99.25 44.5
L 110.25 44.5
Q 112.25 44.5 112.25 42.5
L 112.25 27.6 97.25 27.6 97.25 42.5 Z"/>
</g>

<g id="Duplicate_Items_Folder_Symbol_3_copy_0_Layer0_0_MEMBER_5_FILL">
<path fill="#E73717" stroke="none" d="
M 112 29.05
L 97.1 29.05
Q 84.55 29.05 84.55 41.6
L 84.55 86.5
Q 84.55 99.05 97.1 99.05
L 112 99.05
Q 124.55 99.05 124.55 86.5
L 124.55 41.6
Q 124.55 29.05 112 29.05 Z"/>
</g>

<g id="Duplicate_Items_Folder_Symbol_3_copy_0_Layer0_0_MEMBER_6_FILL">
<path fill="#D62F12" stroke="none" d="
M 124.75 41.6
Q 124.75 40.391796875 124.6 39.3 123.8712890625 32.16796875 118.15 30 124.3763671875 34.1916015625 114.65 39.3
L 114.6 39.3
Q 114.75 40.391796875 114.75 41.6
L 114.75 86.5
Q 114.75 98.7333984375 102.8 99.05
L 112.2 99.05
Q 124.75 99.05 124.75 86.5
L 124.75 41.6 Z"/>
</g>

<g id="Duplicate_Items_Folder_Symbol_3_copy_0_Layer0_0_MEMBER_7_FILL">
<path fill="#C32509" stroke="none" d="
M 84.75 62.45
L 84.75 68.45 124.75 68.45 124.75 62.45 84.75 62.45 Z"/>
</g>

<g id="Duplicate_Items_Folder_Symbol_3_copy_0_Layer0_0_MEMBER_8_FILL">
<path fill="#FFA200" stroke="none" d="
M 117 61.05
L 117 67.05 125.25 67.05
Q 127.25 67.05 127.25 65.05
L 127.25 63.05
Q 127.25 61.05 125.25 61.05
L 117 61.05 Z"/>

<path fill="#FFC500" stroke="none" d="
M 117 61.05
L 84.25 61.05
Q 82.25 61.05 82.25 63.05
L 82.25 65.05
Q 82.25 67.05 84.25 67.05
L 117 67.05 117 61.05 Z"/>
</g>

<g id="Duplicate_Items_Folder_Symbol_3_copy_0_Layer0_0_MEMBER_9_FILL">
<path fill="#FFC500" stroke="none" d="
M 76.9 88.75
L 76 75.8 71.65 75.8 70.35 88.75 76.9 88.75 Z"/>

<path fill="#FFA200" stroke="none" d="
M 76 75.8
L 76.9 88.75 79.4 88.75 78.1 75.8 76 75.8 Z"/>
</g>

<g id="Duplicate_Items_Folder_Symbol_3_copy_0_Layer0_0_MEMBER_10_FILL">
<path fill="#FFFFFF" stroke="none" d="
M 110.05 23
L 104.75 24.35 104.75 18.85
Q 102.5 18.85 100.9 20.45 99.3 22.05 99.3 24.3 99.3 25.1 99.55 25.8 99.85 27.1 100.9 28.15 102.5 29.75 104.75 29.75 107 29.75 108.6 28.15 110.2 26.55 110.2 24.3 110.2 23.6 110.05 23 Z"/>

<path fill="#FFC500" stroke="none" d="
M 104.75 24.35
L 110.05 23
Q 109.7 21.55 108.6 20.45 107 18.85 104.75 18.85
L 104.75 24.35 Z"/>
</g>

<g id="Duplicate_Items_Folder_Symbol_3_copy_0_Layer0_0_MEMBER_11_FILL">
<path fill="#E3F4FF" stroke="none" d="
M 118.05 42.25
L 114.9 42.25 114.9 58.25 118.05 58.25 118.05 42.25 Z"/>

<path fill="#FFFFFF" stroke="none" d="
M 114.9 42.25
L 91.55 42.25 91.55 58.25 114.9 58.25 114.9 42.25 Z"/>
</g>

<g id="Duplicate_Items_Folder_Symbol_3_copy_0_Layer0_0_MEMBER_12_FILL">
<path fill="#454591" stroke="none" d="
M 149.85 32.85
Q 149.85 32.2 149.4 31.75 148.95 31.3 148.3 31.3 147.65 31.3 147.2 31.75 146.75 32.2 146.75 32.85 146.75 33.5 147.2 33.95 147.65 34.4 148.3 34.4 148.95 34.4 149.4 33.95 149.85 33.5 149.85 32.85 Z"/>
</g>

<g id="Duplicate_Items_Folder_Symbol_3_copy_0_Layer0_0_MEMBER_13_FILL">
<path fill="#FF5030" stroke="none" d="
M 160.8 34.8
Q 160.8 33.55 159.9 32.65 159.05 31.8 157.8 31.8 156.55 31.8 155.65 32.65 154.8 33.55 154.8 34.8 154.8 36.05 155.65 36.9 156.55 37.8 157.8 37.8 159.05 37.8 159.9 36.9 160.8 36.05 160.8 34.8 Z"/>
</g>

<path id="Duplicate_Items_Folder_Symbol_3_copy_0_Layer1_0_1_STROKES" stroke="#FFFFFF" stroke-width="8" stroke-linejoin="round" stroke-linecap="round" fill="none" d="
M 2.7849960327148438 73.9897705078125
L 3.5687435150146483 73.9897705078125
Q 3.1739010334014894 53.08408571183681 3.4024940490722657 45.67986145019531 3.6874931335449217 33.66240005493164 5.682486724853515 28.769915771484378 8.104978942871094 22.547435760498047 13.804960632324219 20.21994323730469 16.817304471135138 18.895513898134233 21.547435760498047 18.46244888305664
L 21.547435760498047 17.65495147705078 29.40866050720215 17.65495147705078 29.432410430908206 17.60745162963867 28.672412872314453 17.60745162963867 28.672412872314453 8.677480316162109
Q 28.672412872314453 7.91748275756836 32.899899291992185 6.34998779296875 37.412384796142575 4.734992980957031 43.01736679077148 3.5949966430664064 48.00485076904297 2.5974998474121094 53.37233352661132 2.55 56.74482269287109 2.5025001525878903 58.69231643676758 2.739999389648437 59.499813842773435 2.8349990844726562 59.499813842773435 4.022495269775391 59.499813842773435 5.209991455078125 58.69231643676758 5.257491302490234 46.579855346679686 6.634986877441406 39.12237930297851 10.007476043701171
L 39.69237747192383 12.619967651367187 42.447368621826165 12.429968261718749
Q 45.91485748291016 12.38246841430664 49.334846496582024 12.952466583251951 52.99233474731445 13.569964599609374 56.45982360839843 14.947460174560547 59.357314300537105 16.087456512451173 60.02231216430663 16.7524543762207 60.59231033325195 17.322452545166016 59.92731246948242 18.319949340820315 59.26231460571289 19.36494598388672 58.45481719970703 19.032447052001956 56.412323760986325 18.129949951171874 51.61483917236328 17.417452239990233 44.67986145019531 16.372455596923828 39.45487823486328 17.559951782226562
L 39.003629684448235 17.559951782226562
Q 39.508872202038766 18.345740273594856 39.73987731933594 19.269946289062503 39.88237686157226 19.887444305419923 39.88237686157226 20.599942016601563 39.88237686157226 22.417924457788466 38.86113014221191 23.829931640625
L 39.45487823486328 23.829931640625
Q 41.354872131347655 23.829931640625 41.354872131347655 25.729925537109374
L 41.354872131347655 28.199917602539063 41.354872131347655 29.577413177490236
Q 44.60174646675586 29.58390729725361 46.959854125976555 30.47991027832031 48.62049332261085 31.108912163972853 49.83359489440918 32.166154861450195 49.91968836784363 32.24167219698429 49.99984436035156 32.308654403686525 51.26898090839386 33.48631663620471 52.042337799072264 35.15864524841309
L 53.06358451843261 38.768633651733396
Q 53.10384806096554 39.037861302494996 53.134834289550774 39.31488189697266 53.14374051094055 39.41285033226013 53.15858421325684 39.50488128662109
L 53.20608406066894 59.977315521240236 53.70483245849609 59.977315521240236
Q 55.60482635498047 59.977315521240236 55.60482635498047 61.87730941772461
L 55.60482635498047 63.777303314208986
Q 55.60482635498047 65.67729721069337 53.70483245849609 65.67729721069337
L 53.229833984375 65.67729721069337 53.229833984375 67.00729293823241 53.20608406066894 67.00729293823241 53.229833984375 84.15473785400391
Q 53.229833984375 91.67993828952312 48.47984924316406 94.46220474243164
L 48.47984924316406 98.16719284057618
Q 48.47984924316406 100.06718673706055 46.579855346679686 100.06718673706055
L 21.87993469238281 100.06718673706055
Q 19.979940795898436 100.06718673706055 19.979940795898436 98.16719284057618
L 19.979940795898436 94.46220474243164
Q 15.2299560546875 91.68012383580208 15.2299560546875 84.15473785400391
L 15.2299560546875 65.67729721069337 14.754957580566407 65.67729721069337
Q 12.854963684082032 65.67729721069337 12.854963684082032 63.777303314208986
L 12.854963684082032 61.87730941772461
Q 12.854963684082032 59.977315521240236 14.754957580566407 59.977315521240236
L 15.2299560546875 59.977315521240236 15.2299560546875 41.499874877929685
Q 15.2299560546875 29.601163101196292 27.104917907714842 29.577413177490236
L 27.104917907714842 28.199917602539063 27.104917907714842 25.729925537109374
Q 27.104917907714842 24.254647073149684 28.24491424560547 23.92493133544922
L 21.547435760498047 23.92493133544922 21.547435760498047 23.259933471679688
Q 17.99774989783764 23.639932250976564 15.657454681396485 24.58992919921875
L 15.609954833984377 24.58992919921875
Q 11.714967346191406 26.25242385864258 10.099972534179688 30.47991027832031 8.43747787475586 34.89739608764648 8.152478790283203 45.77486114501953
L 8.152478790283203 45.82236099243163
Q 7.9235146820545195 53.15014018714428 8.318728256225587 73.9897705078125
L 8.912476348876954 73.9897705078125 10.147472381591799 86.29223098754883 1.55 86.29223098754883 2.7849960327148438 73.9897705078125 Z"/>

<path id="Duplicate_Items_Folder_Symbol_3_copy_0_Layer0_0_MEMBER_2_1_STROKES" stroke="#26265C" stroke-width="5" stroke-linejoin="round" stroke-linecap="round" fill="none" d="
M 30.439132690429688 21.256991577148437
Q 19.89670715332032 20.734619140625 14.720471191406247 22.919085693359374 9.924142456054696 24.9135986328125 7.88214111328125 30.137322998046876 6.0775817871093665 34.7911865234375 5.792651367187503 46.23589172363281 5.55520935058594 53.881524658203126 5.98260498046875 76.10609741210938"/>

<path id="Duplicate_Items_Folder_Symbol_3_copy_0_Layer0_0_MEMBER_10_1_STROKES" stroke="#26265C" stroke-width="1" stroke-linejoin="round" stroke-linecap="round" fill="none" d="
M 37.89481201171874 17.472756958007814
Q 38.93955688476562 18.517501831054688 39.271975708007815 19.89466552734375
M 34.23820495605469 15.953128051757815
Q 36.37518310546875 15.953128051757815 37.89481201171874 17.472756958007814
M 30.581597900390634 17.472756958007814
Q 32.101226806640625 15.953128051757815 34.23820495605469 15.953128051757815
M 29.061968994140628 21.129364013671875
Q 29.061968994140628 18.992385864257812 30.581597900390634 17.472756958007814
M 29.29941101074219 22.55401611328125
Q 29.061968994140628 21.889178466796878 29.061968994140628 21.129364013671875
M 30.581597900390634 24.785971069335936
Q 29.584341430664054 23.788714599609378 29.29941101074219 22.55401611328125
M 34.23820495605469 26.305599975585938
Q 32.101226806640625 26.305599975585938 30.581597900390634 24.785971069335936
M 37.89481201171874 24.785971069335936
Q 36.37518310546875 26.305599975585938 34.23820495605469 26.305599975585938
M 39.41444091796875 21.129364013671875
Q 39.41444091796875 23.266342163085938 37.89481201171874 24.785971069335936
M 39.271975708007815 19.89466552734375
Q 39.41444091796875 20.464526367187503 39.41444091796875 21.129364013671875"/>
</defs>

<g transform="matrix( 1, 0, 0, 0.999603271484375, 65,60) ">
<g transform="matrix( 1, 0, 0, 1, 0,0) ">
<use xlink:href="#icon_r_box_02_2_Layer3_0_FILL"/>
</g>

<g transform="matrix( 1, 0, 0, 1, -0.05,0.05) ">
<use xlink:href="#icon_r_box_02_2_Layer3_1_FILL"/>
</g>

<g transform="matrix( 1, 0, 0, 1, 0,-2.15) ">
<use xlink:href="#icon_r_box_02_2_Layer3_2_FILL"/>
</g>

<g transform="matrix( 1, 0, 0, 1, 0,0.05) ">
<use xlink:href="#icon_r_box_02_2_Layer3_3_FILL"/>
</g>

<g filter="url(#Filter_1)" transform="matrix( 0.9999847412109375, 0, 0, 1.000396728515625, -65,-60) ">
<g transform="matrix( 0.75, 0, 0, 0.74969482421875, 40.8,2.55) ">
<g transform="matrix( 0.9499969482421875, 0, 0, 0.9499969482421875, 1.55,2.55) ">
<use xlink:href="#Duplicate_Items_Folder_Symbol_3_copy_0_Layer1_0_FILL"/>

<use xlink:href="#Duplicate_Items_Folder_Symbol_3_copy_0_Layer1_0_1_STROKES" transform="matrix( 1.0526275634765625, 0, 0, 1.0526275634765625, -1.6,-2.65) "/>
</g>

<g transform="matrix( 0.94976806640625, 0, 0, 0.94976806640625, -60.5,52.95) ">
<use xlink:href="#Duplicate_Items_Folder_Symbol_3_copy_0_Layer0_0_MEMBER_0_FILL"/>
</g>

<g transform="matrix( 0.94976806640625, 0, 0, 0.94976806640625, -64.3,0.45) ">
<use xlink:href="#Duplicate_Items_Folder_Symbol_3_copy_0_Layer0_0_MEMBER_1_FILL"/>
</g>

<g transform="matrix( 0.94976806640625, 0, 0, 0.94976806640625, -65.25,-1.3) ">
<use xlink:href="#Duplicate_Items_Folder_Symbol_3_copy_0_Layer0_0_MEMBER_2_1_STROKES" transform="matrix( 1.052886962890625, 0, 0, 1.052886962890625, 68.7,1.35) "/>
</g>

<g transform="matrix( 0.94976806640625, 0, 0, 0.94976806640625, -65.25,1.95) ">
<use xlink:href="#Duplicate_Items_Folder_Symbol_3_copy_0_Layer0_0_MEMBER_3_FILL"/>
</g>

<g transform="matrix( 0.94976806640625, 0, 0, 0.94976806640625, -65.25,1.95) ">
<use xlink:href="#Duplicate_Items_Folder_Symbol_3_copy_0_Layer0_0_MEMBER_4_FILL"/>
</g>

<g transform="matrix( 0.94976806640625, 0, 0, 0.94976806640625, -65.25,1.95) ">
<use xlink:href="#Duplicate_Items_Folder_Symbol_3_copy_0_Layer0_0_MEMBER_5_FILL"/>
</g>

<g transform="matrix( 0.94976806640625, 0, 0, 0.94976806640625, -65.25,1.95) ">
<use xlink:href="#Duplicate_Items_Folder_Symbol_3_copy_0_Layer0_0_MEMBER_6_FILL"/>
</g>

<g transform="matrix( 0.94976806640625, 0, 0, 0.94976806640625, -65.25,1.95) ">
<use xlink:href="#Duplicate_Items_Folder_Symbol_3_copy_0_Layer0_0_MEMBER_7_FILL"/>
</g>

<g transform="matrix( 0.94976806640625, 0, 0, 0.94976806640625, -65.25,1.95) ">
<use xlink:href="#Duplicate_Items_Folder_Symbol_3_copy_0_Layer0_0_MEMBER_8_FILL"/>
</g>

<g transform="matrix( 0.94976806640625, 0, 0, 0.94976806640625, -65.25,1.95) ">
<use xlink:href="#Duplicate_Items_Folder_Symbol_3_copy_0_Layer0_0_MEMBER_9_FILL"/>
</g>

<g transform="matrix( 0.94976806640625, 0, 0, 0.94976806640625, -65.25,-1.95) ">
<use xlink:href="#Duplicate_Items_Folder_Symbol_3_copy_0_Layer0_0_MEMBER_10_FILL"/>

<use xlink:href="#Duplicate_Items_Folder_Symbol_3_copy_0_Layer0_0_MEMBER_10_1_STROKES" transform="matrix( 1.052886962890625, 0, 0, 1.052886962890625, 68.7,2.05) "/>
</g>

<g transform="matrix( 0.94976806640625, 0, 0, 0.94976806640625, -65.25,1.95) ">
<use xlink:href="#Duplicate_Items_Folder_Symbol_3_copy_0_Layer0_0_MEMBER_11_FILL"/>
</g>

<g transform="matrix( 0.7597503662109375, 0, 0, 0.7597503662109375, -76.05,-14.6) ">
<use xlink:href="#Duplicate_Items_Folder_Symbol_3_copy_0_Layer0_0_MEMBER_12_FILL"/>
</g>

<g transform="matrix( 0.94976806640625, 0, 0, 0.94976806640625, -128.55,2.2) ">
<use xlink:href="#Duplicate_Items_Folder_Symbol_3_copy_0_Layer0_0_MEMBER_13_FILL"/>
</g>
</g>
</g>
</g>
</svg>
