
<svg xmlns="http://www.w3.org/2000/svg" version="1.1" xmlns:xlink="http://www.w3.org/1999/xlink" preserveAspectRatio="none" x="0px" y="0px" width="130px" height="115px" viewBox="0 0 130 115">
<defs>
<filter id="Filter_1" x="-25.799045660436306%" y="-20.37976688886912%" width="151.5980913208726%" height="140.75953377773823%" color-interpolation-filters="sRGB">
<feFlood flood-color="#000000" flood-opacity="1" in="SourceGraphic" result="result1"/>

<feGaussianBlur in="SourceGraphic" stdDeviation="1.6666666666666667,1.6666666666666667" result="result2"/>

<feComposite in2="result2" in="result1" operator="in" result="result3"/>

<feComposite in2="result3" in="SourceGraphic" operator="over" result="result4"/>
</filter>

<filter id="Filter_2" x="-20%" y="-20%" width="140%" height="140%" color-interpolation-filters="sRGB">
<feColorMatrix in="SourceGraphic" type="matrix" values="0.45 0 0 0 0.0784313725490196 0 0.45 0 0 0.12941176470588237 0 0 0.45 0 0.21568627450980393 0 0 0 1 0" result="result1"/>
</filter>

<g id="icon_r_box_02_33_Layer3_0_FILL">
<path fill="#FFFFFF" fill-opacity="0" stroke="none" d="
M 65 -55
L -65 -55 -65 25 65 25 65 -55 Z"/>
</g>

<g id="icon_r_box_02_33_Layer3_1_FILL">
<path fill="#FFFFFF" fill-opacity="0" stroke="none" d="
M 65.05 49.95
L 65.05 24.95 -64.95 24.95 -64.95 49.95 65.05 49.95 Z"/>
</g>

<g id="icon_r_box_02_33_Layer3_2_FILL">
<path fill="#FFFFFF" fill-opacity="0" stroke="none" d="
M 65 -52.85
L 65 -57.85 -65 -57.85 -65 -52.85 65 -52.85 Z"/>
</g>

<g id="icon_r_box_02_33_Layer3_3_FILL">
<path fill="#FFFFFF" fill-opacity="0" stroke="none" d="
M 65 54.95
L 65 49.95 -65 49.95 -65 54.95 65 54.95 Z"/>
</g>

<g id="icon_r_box_02_33_Layer2_0_FILL">
<path fill="#000000" stroke="none" d="
M -7.7 22.55
Q -7.5 22.5 -7.25 22.45
L -7.75 22.45
Q -7.75 22.5 -7.7 22.55
M 16.35 22.6
Q 16.15 22.55 16 22.45
L 15.3 22.45
Q 15.8 22.5 16.35 22.6 Z"/>
</g>

<g id="Duplicate_Items_Folder___3_0_Layer1_0_FILL">
<path fill="#FFFFFF" stroke="none" d="
M 28.9 -24.85
Q 28.7 -24.85 28.5 -24.85 25.75 -24.15 23.45 -21.75 21.244921875 -19.446875 20.7 -16.75 20.490234375 -16.4595703125 20.25 -16.2 20.6509765625 -17.7603515625 20.35 -19.6 19.9 -22.35 18.15 -24.05 18.05 -24.2 17.85 -24.3 17.75 -24.15 17.65 -24 16.5 -21.8 16.95 -19.05 17.38984375 -16.3619140625 19.1 -14.7 17.9865234375 -13.151171875 16.9 -11.6 17.3107421875 -13.857421875 16.65 -16.5 15.8 -20.05 13.55 -22.25 13.35 -22.35 13.15 -22.5 13.05 -22.3 13 -22.1 11.9 -19.1 12.75 -15.55 13.6279296875 -12.0384765625 15.85 -9.95 14.7091796875 -8.2373046875 13.65 -6.5 13.770703125 -8.662109375 12.9 -11.1 11.7 -14.55 9.2 -16.5 9 -16.6 8.8 -16.75 8.7 -16.5 8.65 -16.3 7.9 -13.25 9.1 -9.8 10.2875 -6.475 12.6 -4.6 11.32578125 -2.29765625 10.2 0.05 10.4095703125 -2.31328125 9.45 -5 8.25 -8.45 5.75 -10.4 5.55 -10.5 5.35 -10.65 5.25 -10.4 5.2 -10.2 4.45 -7.15 5.65 -3.7 6.9 -0.2 9.4 1.7
L 9.4 1.7
Q 8.991015625 2.68671875 8.55 3.65 7.8533203125 4.041015625 7.15 4.5 6.958984375 3.28515625 6.5 2 5.4556640625 -1.00234375 3.4 -2.9 3.39921875 -3.2615234375 3.35 -3.65 3.35 -3.9 3.2 -4.15 3 -4 2.75 -3.9 2.58671875 -3.768359375 2.4 -3.65
L 2.4 -3.65 2.35 -3.6
Q -0.45390625 -1.148828125 -2.15 2.95 -3.3009765625 5.7634765625 -3.5 8.3 -4.2173828125 5.2013671875 -5.15 2.15 -5.0197265625 2.096484375 -4.95 2.05 -2 0.05 -0.45 -3.8 1.15 -7.65 0.5 -11.2 0.45 -11.45 0.35 -11.7 0.1 -11.55 -0.1 -11.45 -3.05 -9.35 -4.65 -5.5 -5.84453125 -2.5328125 -5.75 0.2 -6.7544921875 -2.9783203125 -8 -6.05 -7.932421875 -6.0783203125 -7.9 -6.1 -4.95 -8.1 -3.4 -11.95 -1.8 -15.8 -2.45 -19.35 -2.5 -19.6 -2.6 -19.85 -2.85 -19.7 -3.05 -19.6 -6 -17.5 -7.6 -13.65 -8.8359375 -10.5798828125 -8.7 -7.8 -9.873046875 -10.636328125 -11.25 -13.45 -8.4845703125 -15.4125 -7 -19.1 -5.4 -22.95 -6.05 -26.5 -6.1 -26.75 -6.2 -27 -6.45 -26.85 -6.65 -26.75 -9.6 -24.65 -11.2 -20.8 -12.3154296875 -18.0294921875 -12.3 -15.5 -13.3998046875 -17.575 -14.6 -19.65 -11.9302734375 -21.9189453125 -10.8 -25.85 -9.65 -29.85 -10.7 -33.3 -10.75 -33.55 -10.8 -33.8 -11.1 -33.65 -11.3 -33.5 -14 -31.1 -15.15 -27.1 -16.027734375 -24.046875 -15.65 -21.4 -16.8173828125 -23.26796875 -18.1 -25.15 -15.9943359375 -26.9765625 -15.35 -30 -14.65 -33.1 -15.85 -35.7 -15.9 -35.9 -16.05 -36.05 -16.25 -35.95 -16.45 -35.85 -18.5 -33.95 -19.2 -30.85 -19.6580078125 -28.70078125 -19.25 -26.8 -19.4927734375 -27.183203125 -19.8 -27.6 -20.19375 -30.7009765625 -22.6 -33.5 -25.05 -36.3 -28.2 -37.15 -28.35 -37.25 -28.65 -37.3 -28.6 -37.05 -28.65 -36.8 -28.15 -33.6 -25.7 -30.8 -23.491015625 -28.2302734375 -20.8 -27.3 -19.475390625 -25.46328125 -18.25 -23.6 -20.1654296875 -24.848046875 -22.75 -25 -26.1 -25.2 -28.65 -23.4 -28.8 -23.3 -29 -23.15 -28.85 -22.9 -28.7 -22.75 -26.4 -20.7 -23.05 -20.5 -19.6978515625 -20.302734375 -17.25 -22 -15.7634765625 -19.70390625 -14.45 -17.35 -16.84609375 -19.1373046875 -20.35 -19.65 -24.5 -20.25 -27.8 -18.75 -28 -18.6 -28.25 -18.5 -28.05 -18.25 -27.9 -18.1 -25.15 -15.75 -21 -15.15 -16.9 -14.55 -13.75 -16.05
L -13.75 -16.05
Q -12.2533203125 -13.3177734375 -10.95 -10.5 -13.30625 -12.1607421875 -16.65 -12.65 -20.8 -13.25 -24.1 -11.75 -24.3 -11.6 -24.55 -11.5 -24.35 -11.25 -24.2 -11.1 -21.45 -8.75 -17.3 -8.15 -13.334375 -7.5697265625 -10.25 -8.95 -9.176171875 -6.483984375 -8.25 -3.95 -10.69375 -5.86484375 -14.35 -6.4 -18.5 -7 -21.8 -5.5 -22 -5.35 -22.25 -5.25 -22.05 -5 -21.9 -4.85 -19.15 -2.5 -15 -1.9 -10.930078125 -1.3044921875 -7.8 -2.8 -6.6318359375 0.478515625 -5.7 3.85 -8.16328125 1.846875 -11.9 1.3 -13.748828125 1.0326171875 -15.45 1.2 -15.4359375 1.17109375 -15.45 1.15 -15.4779296875 1.1685546875 -15.5 1.2 -16.8240234375 1.318359375 -18.05 1.7 -17.855078125 -0.6154296875 -18.75 -2.45 -18.75 -2.6 -18.85 -2.75 -19 -2.65 -19.15 -2.5 -20.6 -0.8 -20.95 1.85 -21.2044921875 3.535546875 -20.9 5 -21.83046875 3.9810546875 -22.8 3 -21.597265625 1.24765625 -21.55 -1.3 -21.4669921875 -3.5 -22.25 -5.25 -22.4046875 -5.6103515625 -22.6 -5.95 -22.7 -6.1 -22.8 -6.2 -22.95 -6.1 -23.05 -5.95 -24.35 -4.05 -24.45 -1.4 -24.4828125 0.3685546875 -24.05 1.8 -24.90390625 0.944921875 -25.85 0.1 -24.953515625 -1.2921875 -25 -3.15 -25.1 -5.2 -26.25 -6.6 -26.3 -6.7 -26.4 -6.8 -26.5 -6.7 -26.6 -6.6 -27.65 -5.1 -27.55 -3.05 -27.522265625 -1.94140625 -27.15 -1.05 -27.369140625 -1.20859375 -27.6 -1.4 -28.3923828125 -2.9546875 -30.1 -4.15 -32.05 -5.5 -34.15 -5.55 -34.3 -5.55 -34.45 -5.6 -34.4 -5.4 -34.35 -5.25 -33.55 -3.35 -31.6 -2 -29.919921875 -0.8240234375 -28.2 -0.6 -27.1662109375 0.2576171875 -26.2 1.15 -27.4037109375 0.840234375 -28.8 1.1 -30.95 1.5 -32.2 3.05 -32.3 3.1 -32.4 3.25 -32.25 3.35 -32.15 3.45 -30.4 4.35 -28.25 3.95 -26.2318359375 3.574609375 -25 2.2 -23.9033203125 3.26484375 -22.9 4.35 -24.4869140625 3.813671875 -26.5 4 -29.15 4.3 -30.9 5.75 -31.05 5.85 -31.15 5.95 -31 6.1 -30.85 6.2 -28.8 7.2 -26.15 6.9 -23.57578125 6.66171875 -21.9 5.35 -20.6677734375 6.7197265625 -19.55 8.1 -21.1248046875 7.6171875 -23.1 7.8 -25.75 8.1 -27.5 9.55 -27.65 9.65 -27.75 9.75 -27.6 9.9 -27.45 10 -25.4 11 -22.75 10.7 -20.81953125 10.5212890625 -19.4 9.75 -19.2265625 9.929296875 -19.05 10.15 -18.0234375 11.052734375 -16.8 11.75 -16.7474609375 11.79296875 -16.75 11.8 -18.4810546875 11.14453125 -20.7 11.35 -23.35 11.65 -25.1 13.1 -25.25 13.2 -25.35 13.3 -25.2 13.45 -25.05 13.55 -23 14.55 -20.35 14.25 -17.77734375 14.01171875 -16.1 12.7 -15.405859375 13.7611328125 -14.75 14.8 -17.13828125 14.63828125 -19.3 15.05 -19.6 15.15 -19.9 15.25 -19.7 15.5 -19.5 15.65 -19.3380859375 15.8017578125 -19.2 15.95 -21.0525390625 16.38359375 -22.4 17.5 -22.55 17.6 -22.65 17.7 -22.5 17.85 -22.35 17.95 -20.3 18.95 -17.65 18.65 -16.6240234375 18.555078125 -15.75 18.3 -14.025 19.198828125 -12 19.85 -11.6396484375 20.5033203125 -11.35 21.15 -13.2580078125 20.3650390625 -15.85 20.45 -18.634375 20.5869140625 -20.65 21.7 -20.713671875 21.73671875 -20.8 21.75 -21.15 21.8 -21.45 21.9 -21.3578125 22.015234375 -21.25 22.1 -21.27734375 22.1349609375 -21.3 22.15 -21.15 22.3 -21 22.4 -20.93359375 22.433203125 -20.9 22.45 -19.4865234375 23.65 -17.8 24.6 -19.19140625 24.8681640625 -20.4 25.4 -20.6 25.5 -20.75 25.65 -20.6 25.75 -20.4 25.85 -17.95 27.2 -14.55 27.25 -12.9626953125 27.2966796875 -11.6 27.05 -10.073828125 27.48828125 -8.65 27.7 -8.2388671875 28.83671875 -7.9 29.95 -10.3669921875 28.940234375 -13.75 28.85 -17.5 28.75 -20.25 29.85 -20.45 29.95 -20.65 30.1 -20.45 30.2 -20.25 30.3 -17.55 31.65 -13.8 31.75 -10.2404296875 31.844921875 -7.65 30.75 -7.234765625 32.046875 -6.9 33.35
L -15.3 33.35
Q -15.916015625 33.3552734375 -16.35 33.8 -16.7947265625 34.233984375 -16.8 34.85 -16.7947265625 35.466015625 -16.35 35.9 -15.93359375 36.3265625 -15.35 36.35
L -15.35 49.05
Q -15.35 53.6455078125 -12.6 56.7 -12.1162109375 57.2583984375 -11.55 57.75
L -11.15 58.05
Q -10.953125 58.243359375 -10.75 58.4 -10.832421875 58.7171875 -10.85 59 -10.85 59.55 -10.8 60.2 -10.7 61 -10.35 61.4 -10.15 61.8 -9.75 61.9 -9.35 62 -8.9 61.8 -8.45 61.6 -7.95 61 -7.6560546875 60.5958984375 -7.5 60.2 -7.22734375 60.2943359375 -7 60.35
L -3.25 61.15
Q -2.7892578125 61.1837890625 -2.35 61.2 -2.1455078125 61.2056640625 -1.95 61.2
L 1.3 60.85
Q 1.531640625 60.8078125 1.75 60.75
L 1.75 60.75
Q 1.8955078125 60.7146484375 2 60.65
L 2.1 60.65
Q 2.500390625 60.5248046875 2.9 60.35 3.0734375 60.6884765625 3.3 61 3.8 61.6 4.25 61.8 4.7 62 5.1 61.9 5.5 61.8 5.7 61.4 6.05 61 6.15 60.2 6.2 59.55 6.2 59 6.1880859375 58.810546875 6.15 58.6 6.55546875 58.2939453125 6.95 57.95 8.05 57 8.8 55.9 9.0333984375 55.5671875 9.2 55.2
L 10.8 49.75
Q 10.85 49.4015625 10.85 49.05
L 10.85 36.35 11.5 36.35
Q 12.1 36.35 12.55 35.9 13 35.45 13 34.85 13 34.25 12.55 33.8 12.1 33.35 11.5 33.35
L 2.5 33.35
Q 2.61953125 32.282421875 2.7 31.2 6.5861328125 32.079296875 11.5 30.9 16.55 29.75 19.85 27.2 20.05 27.05 20.25 26.85 20 26.75 19.7 26.65 15.65 25.85 10.6 27 5.88984375 28.13046875 2.8 30.35 3.1177734375 27.6509765625 3.55 25 6.9474609375 25.79296875 11.25 24.8 15.8 23.75 18.75 21.3 18.95 21.15 19.1 20.95 18.9 20.85 18.6 20.75 14.9 19.85 10.35 20.9 6.3810546875 21.816015625 3.75 23.75 3.788671875 23.5283203125 3.8 23.3 5.61875 22.3783203125 7.4 21 8.3955078125 20.2203125 9.25 19.4 10.455078125 19.37109375 11.75 19.15 15.85 18.5 18.55 16.4 18.7 16.2 18.9 16 18.65 15.9 18.45 15.85 15.86875 14.817578125 12.75 15 13.077734375 14.4400390625 13.35 13.85 13.5 13.6 13.6 13.3 13.3 13.3 12.95 13.35 9.0494140625 14.09296875 5.2 16.95 5.911328125 14.090234375 6.8 11.3 9.501171875 12.6404296875 13.1 12.3 16.75 11.95 19.15 10.05 19.35 9.85 19.55 9.65 19.35 9.5 19.1 9.45 16.35 8 12.7 8.35 9.4220703125 8.66015625 7.15 10.2 7.335546875 9.744140625 7.5 9.25 8.3123046875 6.9255859375 9.25 4.65 11.9716796875 5.9931640625 15.6 5.65 19.25 5.3 21.65 3.4 21.85 3.2 22.05 3 21.85 2.85 21.6 2.8 18.85 1.35 15.2 1.7 11.960546875 2.0064453125 9.7 3.55 10.6333984375 1.4072265625 11.65 -0.7 14.3244140625 0.58359375 17.85 0.25 21.5 -0.1 23.9 -2 24.1 -2.2 24.3 -2.4 24.1 -2.55 23.85 -2.6 21.1 -4.05 17.45 -3.7 14.5302734375 -3.423828125 12.4 -2.15 13.6310546875 -4.47265625 14.95 -6.75 17.724609375 -5.35234375 21.4 -5.7 25.05 -6.05 27.45 -7.95 27.65 -8.15 27.85 -8.35 27.65 -8.5 27.4 -8.55 24.65 -10 21 -9.65 17.9119140625 -9.3578125 15.7 -7.95 16.9611328125 -9.93359375 18.3 -11.85 20.3955078125 -10.25078125 23.3 -10.3 26.3 -10.35 28.4 -12.05 28.55 -12.2 28.7 -12.4 28.5 -12.55 28.35 -12.65 26.25 -14.35 23.25 -14.3 21.05078125 -14.2626953125 19.3 -13.3 20.4853515625 -14.87265625 21.7 -16.45 24.06328125 -17.175 26.05 -19.25 28.35 -21.65 28.9 -24.45 28.9 -24.65 28.9 -24.85
M -5.75 9.35
Q -5.95 9.25 -6.25 9.15 -6.25 9.4 -6.2 9.65 -6.132421875 10.2212890625 -6.05 10.8 -8.026171875 9.7486328125 -10.55 9.2 -11.0392578125 9.1 -11.55 9 -11.5888671875 7.40546875 -12.25 6.05 -12.25 5.9474609375 -12.3 5.85 -8.4005859375 6.3455078125 -5.4 4.95 -4.6390625 7.6765625 -4.05 10.45 -4.8763671875 9.8396484375 -5.75 9.35
M -2.85 11.35
L -2.8 11.35
Q -1.460546875 10.33984375 -0.35 8.9 -0.1583984375 9.79765625 0.15 10.7 0.311328125 11.14921875 0.5 11.55 -0.199609375 12.691796875 -0.75 13.8 -1.7185546875 12.53046875 -2.8 11.5 -2.8138671875 11.4552734375 -2.85 11.35
M -12.45 5.8
Q -12.5455078125 5.8955078125 -12.65 6 -13.6470703125 7.1689453125 -14.15 8.75 -14.815234375 8.76875 -15.5 8.8 -14.921875 7.619921875 -14.7 6.15 -14.6474609375 5.752734375 -14.65 5.35 -13.6349609375 5.64296875 -12.55 5.8 -12.4953125 5.8080078125 -12.45 5.8
M -18.4 3.65
Q -17.8626953125 4.0146484375 -17.3 4.3 -17.451171875 5.0009765625 -17.55 5.75 -17.820703125 7.54453125 -17.5 9.1
L -17.5 9.1
Q -18.5869140625 7.682421875 -19.75 6.3 -18.8546875 5.1666015625 -18.4 3.65
M -18.9 9.5
Q -18.9630859375 9.510546875 -19.05 9.5 -18.81875 9.39453125 -18.65 9.25 -18.574609375 9.31484375 -18.55 9.35 -18.7134765625 9.4369140625 -18.9 9.5
M -12.4 13.45
Q -11.9572265625 13.556640625 -11.5 13.65 -11.3818359375 13.67578125 -11.3 13.7 -11.4451171875 14.4138671875 -11.55 15.2 -11.5578125 15.2525390625 -11.6 15.3 -12.48046875 15.1021484375 -13.35 14.95 -12.7912109375 14.27890625 -12.4 13.45
M -14.4 13.55
Q -14.6998046875 13.07734375 -15 12.6 -14.7697265625 12.708203125 -14.55 12.8 -14.4775390625 13.1802734375 -14.4 13.55
M -10.6 20.45
Q -10.503515625 20.3548828125 -10.45 20.25 -9.63203125 20.46015625 -8.85 20.6 -8.7908203125 20.703125 -8.75 20.8 -9.0498046875 21.9853515625 -9.15 23.1 -9.2724609375 23.0515625 -9.45 23 -9.9736328125 21.7099609375 -10.6 20.45
M -11.5 22.4
Q -11.1853515625 22.26640625 -10.9 22.1 -10.7794921875 22.3658203125 -10.65 22.6 -11.0787109375 22.51484375 -11.5 22.4
M -5 13.9
Q -4.9515625 14.0373046875 -4.9 14.15 -6.0798828125 15.237890625 -7 16.75 -7.8453125 16.3875 -8.8 16.05 -8.7357421875 15.842578125 -8.7 15.6 -8.595703125 14.817578125 -8.6 14.05 -6.7052734375 14.205859375 -5 13.9
M -4.2 15.5
Q -3.71015625 16.413671875 -3.1 17.3 -2.9353515625 17.5390625 -2.8 17.75 -2.6576171875 18.578515625 -2.55 19.4 -3.502734375 18.6173828125 -4.65 17.95 -4.28203125 16.70625 -4.2 15.5
M -5.85 24.1
Q -5.9029296875 24.2376953125 -6 24.35 -6.74921875 23.9859375 -7.6 23.65 -7.28203125 23.3208984375 -7 22.95 -6.4501953125 23.540625 -5.85 24.1
M -1.5 19.8
Q -1.5046875 19.5541015625 -1.55 19.3 -1.3814453125 19.482421875 -1.25 19.65 -1.3572265625 19.7224609375 -1.5 19.8
M -2.85 20.8
Q -3.04375 20.95625 -3.25 21.1 -3.3830078125 21.001953125 -3.55 20.85 -3.19296875 20.84921875 -2.85 20.8
M -0.8 23.3
Q -0.9755859375 23.124609375 -1.15 22.95 -1.1720703125 22.6630859375 -1.2 22.35 -0.7259765625 21.413671875 -0.45 20.45 0.0392578125 20.91953125 0.55 21.3 -0.213671875 22.2927734375 -0.8 23.3
M -0.65 33.35
Q -0.6546875 30.471484375 -0.8 27.65 0.590234375 28.3306640625 2 28.65 1.7146484375 30.987109375 1.5 33.35
L -0.65 33.35
M -5.85 33.35
Q -6.486328125 30.9619140625 -7.25 28.65 -6.655859375 28.39765625 -6.1 28 -3.8361328125 28.1634765625 -1.8 27.8 -1.6619140625 30.5603515625 -1.65 33.35
L -5.85 33.35
M 1.8 5.2
Q 1.937890625 4.92421875 2.05 4.65 2.376171875 3.8615234375 2.6 3.05 2.662890625 3.1931640625 2.7 3.3 3.3875 5.225 4.45 6.65 3.8802734375 7.2140625 3.3 7.8 2.6751953125 6.3685546875 1.8 5.2
M 2.75 15.4
Q 3.4322265625 16.198046875 4.2 16.85 4.0615234375 17.3908203125 3.9 17.9 3.15 18.5658203125 2.45 19.2 1.97421875 17.9638671875 1.2 16.65 2.018359375 16.1005859375 2.75 15.4
M 4.9 14.1
Q 4.9064453125 13.641796875 4.85 13.15 5.1271484375 12.8390625 5.4 12.45 5.1537109375 13.2896484375 4.9 14.1
M 0.35 24.65
Q 1.54609375 24.355859375 2.7 23.85 2.6291015625 24.3171875 2.55 24.8 2.3349609375 26.1265625 2.15 27.45 1.46015625 26.041796875 0.35 24.65 Z"/>
</g>

<g id="Duplicate_Items_Folder_Symbol_28_0_Layer0_0_FILL">
<path fill="#35AF77" stroke="none" d="
M 1.55 -30.9
L 1.55 -19.8
Q 1.7 -20 1.8 -20.15 3.45 -22.3 3.45 -25.35 3.45 -28.4 1.8 -30.6 1.7 -30.75 1.55 -30.9 Z"/>

<path fill="#229B63" stroke="none" d="
M 1.55 -30.9
Q 1.4 -30.75 1.25 -30.6 -0.35 -28.4 -0.35 -25.35 -0.35 -22.3 1.25 -20.15 1.4 -20 1.55 -19.8
L 1.55 -30.9 Z"/>
</g>

<g id="Duplicate_Items_Folder___3_0_Layer0_3_MEMBER_0_FILL">
<path fill="#FF96E9" stroke="none" d="
M -7.95 61
Q -7.55 60.45 -7.35 59.9 -7.05 59.2 -6.85 57.95 -6.6 56.65 -8.15 56.25 -9.7 55.85 -10.2 57.05 -10.8 58.2 -10.85 59 -10.85 59.55 -10.8 60.2 -10.7 61 -10.35 61.4 -10.15 61.8 -9.75 61.9 -9.35 62 -8.9 61.8 -8.45 61.6 -7.95 61
M 2.7 59.9
Q 2.9 60.45 3.3 61 3.8 61.6 4.25 61.8 4.7 62 5.1 61.9 5.5 61.8 5.7 61.4 6.05 61 6.15 60.2 6.2 59.55 6.2 59 6.15 58.2 5.55 57.05 5.05 55.85 3.5 56.25 1.95 56.65 2.2 57.95 2.4 59.2 2.7 59.9 Z"/>
</g>

<g id="Duplicate_Items_Folder___3_0_Layer0_3_MEMBER_1_FILL">
<path fill="#FFADEE" stroke="none" d="
M 13 46.25
L 13 29.6 -16 29.6 -16 46.25
Q -15.9955078125 52.248046875 -11.8 55.85 -7.6138671875 59.50546875 -1.6 59.7 4.413671875 59.8943359375 8.7 56.05 12.9953125 52.2517578125 13 46.25 Z"/>
</g>

<g id="Duplicate_Items_Folder___3_0_Layer0_3_MEMBER_3_FILL">
<path fill="#FF97E9" stroke="none" d="
M 1.25 38.8
Q 0.95 38.4 0.65 38.8
L -2.15 42.35
Q -2.27109375 42.48828125 -2.35 42.6 -2.3462890625 42.48828125 -2.45 42.35
L -5.3 38.8
Q -5.6 38.4 -5.9 38.8
L -8.7 42.35
Q -8.82109375 42.48828125 -8.9 42.6 -8.8962890625 42.48828125 -9 42.35
L -11.85 38.8
Q -12.15 38.4 -12.45 38.8
L -15.25 42.35
Q -15.6 42.75 -15.3 43.1
L -12.45 46.7
Q -12.15 47.05 -11.85 46.65
L -9 43.1
Q -8.908203125 42.99296875 -8.9 42.85 -8.841796875 42.99296875 -8.75 43.1
L -5.9 46.7
Q -5.6 47.05 -5.3 46.65
L -2.45 43.1
Q -2.358203125 42.99296875 -2.35 42.85 -2.291796875 42.99296875 -2.2 43.1
L 0.65 46.7
Q 0.95 47.05 1.25 46.65
L 4.1 43.1
Q 4.4 42.75 4.1 42.35
L 1.25 38.8
M 7.85 38.8
Q 7.55 38.4 7.25 38.8
L 4.45 42.35
Q 4.1 42.75 4.4 43.1
L 7.25 46.7
Q 7.55 47.05 7.85 46.65
L 10.7 43.1
Q 11 42.75 10.7 42.35
L 7.85 38.8 Z"/>
</g>

<g id="Duplicate_Items_Folder___3_0_Layer0_3_MEMBER_4_FILL">
<path fill="#FF97E9" stroke="none" d="
M 1.85 58
Q 1.0341796875 57.680859375 0.05 57.1 -0.885546875 56.514453125 -2.25 56.5 -3.5634765625 56.487890625 -4.6 57.25 -5.65 58.05 -6.3 58.05 -7.3 58.05 -8.15 57.7 -8.7 57.5 -10.3 56.7 -11.75 56 -13 56.2 -12.4 57.05 -11.55 57.75 -7.75 61 -2.35 61.2 3.05 61.35 6.95 57.95 8.05 57 8.8 55.9 8.1798828125 55.76875 6.95 56.05 5.7736328125 56.3306640625 4.2 57.35 2.66640625 58.3666015625 1.85 58 Z"/>
</g>

<g id="Duplicate_Items_Folder___3_0_Layer0_3_MEMBER_6_FILL">
<path fill="#FFFFFF" fill-opacity="0.4" stroke="none" d="
M -34.3 35.6
Q -34.3 35 -34.75 34.55 -35.2 34.1 -35.8 34.1 -36.4 34.1 -36.85 34.55 -37.3 35 -37.3 35.6 -37.3 36.2 -36.85 36.65 -36.4 37.1 -35.8 37.1 -35.2 37.1 -34.75 36.65 -34.3 36.2 -34.3 35.6 Z"/>
</g>

<g id="Duplicate_Items_Folder___3_0_Layer0_3_MEMBER_7_FILL">
<path fill="#D97DA8" fill-opacity="0.2" stroke="none" d="
M 25.25 33.75
L 20.55 33.75 20.55 50.55
Q 20.55 56.65 16.2 60.55 15.85 60.85 15.5 61.15 18.35 60.4 20.7 58.35 24.6 54.85 24.6 49.45
L 24.6 36.75 25.25 36.75
Q 25.85 36.75 26.3 36.3 26.75 35.85 26.75 35.25 26.75 34.65 26.3 34.2 25.85 33.75 25.25 33.75 Z"/>
</g>

<path id="Duplicate_Items_Folder___3_0_Layer1_0_1_STROKES" stroke="#FFFFFF" stroke-width="8" stroke-linejoin="round" stroke-linecap="round" fill="none" d="
M -22.25 -5.25
Q -22 -5.35 -21.8 -5.5 -18.5 -7 -14.35 -6.4 -10.69375 -5.86484375 -8.225 -3.95 -9.176171875 -6.483984375 -10.25 -8.95 -13.334375 -7.5697265625 -17.3 -8.15 -21.45 -8.75 -24.2 -11.1 -24.35 -11.25 -24.55 -11.5 -24.3 -11.6 -24.1 -11.75 -20.8 -13.25 -16.65 -12.65 -13.30625 -12.1607421875 -10.95 -10.5 -12.2533203125 -13.3177734375 -13.725 -16.05
L -13.75 -16.05
Q -16.9 -14.55 -21 -15.15 -25.15 -15.75 -27.9 -18.1 -28.05 -18.25 -28.25 -18.5 -28 -18.6 -27.8 -18.75 -24.5 -20.25 -20.35 -19.65 -16.84609375 -19.1373046875 -14.45 -17.35 -15.7634765625 -19.70390625 -17.225 -22 -19.6978515625 -20.302734375 -23.05 -20.5 -26.4 -20.7 -28.7 -22.75 -28.85 -22.9 -29 -23.15 -28.8 -23.3 -28.65 -23.4 -26.1 -25.2 -22.75 -25 -20.1654296875 -24.848046875 -18.25 -23.6 -19.475390625 -25.46328125 -20.8 -27.275 -23.491015625 -28.2302734375 -25.7 -30.8 -28.15 -33.6 -28.65 -36.8 -28.6 -37.05 -28.65 -37.3 -28.35 -37.25 -28.2 -37.15 -25.05 -36.3 -22.6 -33.5 -20.19375 -30.7009765625 -19.775 -27.575 -19.4927734375 -27.183203125 -19.225 -26.8 -19.6580078125 -28.70078125 -19.2 -30.85 -18.5 -33.95 -16.45 -35.85 -16.25 -35.95 -16.05 -36.05 -15.9 -35.9 -15.85 -35.7 -14.65 -33.1 -15.35 -30 -15.9943359375 -26.9765625 -18.075 -25.125 -16.8173828125 -23.26796875 -15.65 -21.375 -16.027734375 -24.046875 -15.15 -27.1 -14 -31.1 -11.3 -33.5 -11.1 -33.65 -10.8 -33.8 -10.75 -33.55 -10.7 -33.3 -9.65 -29.85 -10.8 -25.85 -11.9302734375 -21.9189453125 -14.6 -19.625 -13.3998046875 -17.575 -12.3 -15.475 -12.3154296875 -18.0294921875 -11.2 -20.8 -9.6 -24.65 -6.65 -26.75 -6.45 -26.85 -6.2 -27 -6.1 -26.75 -6.05 -26.5 -5.4 -22.95 -7 -19.1 -8.4845703125 -15.4125 -11.25 -13.425 -9.873046875 -10.636328125 -8.675 -7.775 -8.8359375 -10.5798828125 -7.6 -13.65 -6 -17.5 -3.05 -19.6 -2.85 -19.7 -2.6 -19.85 -2.5 -19.6 -2.45 -19.35 -1.8 -15.8 -3.4 -11.95 -4.95 -8.1 -7.9 -6.1 -7.932421875 -6.0783203125 -7.975 -6.05 -6.7544921875 -2.9783203125 -5.725 0.2 -5.84453125 -2.5328125 -4.65 -5.5 -3.05 -9.35 -0.1 -11.45 0.1 -11.55 0.35 -11.7 0.45 -11.45 0.5 -11.2 1.15 -7.65 -0.45 -3.8 -2 0.05 -4.95 2.05 -5.0197265625 2.096484375 -5.125 2.175 -4.2173828125 5.2013671875 -3.5 8.3 -3.3009765625 5.7634765625 -2.15 2.95 -0.45390625 -1.148828125 2.375 -3.6
L 2.4 -3.65 2.425 -3.65
Q 2.58671875 -3.768359375 2.75 -3.9 3 -4 3.2 -4.15 3.35 -3.9 3.35 -3.65 3.39921875 -3.2615234375 3.425 -2.875 5.4556640625 -1.00234375 6.5 2 6.958984375 3.28515625 7.15 4.5 7.8533203125 4.041015625 8.575 3.65 8.991015625 2.68671875 9.425 1.725
L 9.4 1.7
Q 6.9 -0.2 5.65 -3.7 4.45 -7.15 5.2 -10.2 5.25 -10.4 5.35 -10.65 5.55 -10.5 5.75 -10.4 8.25 -8.45 9.45 -5 10.4095703125 -2.31328125 10.2 0.075 11.32578125 -2.29765625 12.6 -4.6 10.2875 -6.475 9.1 -9.8 7.9 -13.25 8.65 -16.3 8.7 -16.5 8.8 -16.75 9 -16.6 9.2 -16.5 11.7 -14.55 12.9 -11.1 13.770703125 -8.662109375 13.675 -6.475 14.7091796875 -8.2373046875 15.85 -9.95 13.6279296875 -12.0384765625 12.75 -15.55 11.9 -19.1 13 -22.1 13.05 -22.3 13.15 -22.5 13.35 -22.35 13.55 -22.25 15.8 -20.05 16.65 -16.5 17.3107421875 -13.857421875 16.925 -11.6 17.9865234375 -13.151171875 19.125 -14.675 17.38984375 -16.3619140625 16.95 -19.05 16.5 -21.8 17.65 -24 17.75 -24.15 17.85 -24.3 18.05 -24.2 18.15 -24.05 19.9 -22.35 20.35 -19.6 20.6509765625 -17.7603515625 20.25 -16.175 20.490234375 -16.4595703125 20.725 -16.75 21.244921875 -19.446875 23.45 -21.75 25.75 -24.15 28.5 -24.85 28.7 -24.85 28.9 -24.85 28.9 -24.65 28.9 -24.45 28.35 -21.65 26.05 -19.25 24.06328125 -17.175 21.725 -16.425 20.4853515625 -14.87265625 19.325 -13.275 21.05078125 -14.2626953125 23.25 -14.3 26.25 -14.35 28.35 -12.65 28.5 -12.55 28.7 -12.4 28.55 -12.2 28.4 -12.05 26.3 -10.35 23.3 -10.3 20.3955078125 -10.25078125 18.325 -11.85 16.9611328125 -9.93359375 15.725 -7.95 17.9119140625 -9.3578125 21 -9.65 24.65 -10 27.4 -8.55 27.65 -8.5 27.85 -8.35 27.65 -8.15 27.45 -7.95 25.05 -6.05 21.4 -5.7 17.724609375 -5.35234375 14.975 -6.725 13.6310546875 -4.47265625 12.425 -2.15 14.5302734375 -3.423828125 17.45 -3.7 21.1 -4.05 23.85 -2.6 24.1 -2.55 24.3 -2.4 24.1 -2.2 23.9 -2 21.5 -0.1 17.85 0.25 14.3244140625 0.58359375 11.65 -0.675 10.6333984375 1.4072265625 9.725 3.55 11.960546875 2.0064453125 15.2 1.7 18.85 1.35 21.6 2.8 21.85 2.85 22.05 3 21.85 3.2 21.65 3.4 19.25 5.3 15.6 5.65 11.9716796875 5.9931640625 9.25 4.65 8.3123046875 6.9255859375 7.5 9.275 7.335546875 9.744140625 7.175 10.225 9.4220703125 8.66015625 12.7 8.35 16.35 8 19.1 9.45 19.35 9.5 19.55 9.65 19.35 9.85 19.15 10.05 16.75 11.95 13.1 12.3 9.501171875 12.6404296875 6.8 11.325 5.911328125 14.090234375 5.2 16.95 9.0494140625 14.09296875 12.95 13.35 13.3 13.3 13.6 13.3 13.5 13.6 13.35 13.85 13.077734375 14.4400390625 12.75 15.025 15.86875 14.817578125 18.45 15.85 18.65 15.9 18.9 16 18.7 16.2 18.55 16.4 15.85 18.5 11.75 19.15 10.455078125 19.37109375 9.25 19.4 8.3955078125 20.2203125 7.4 21 5.61875 22.3783203125 3.825 23.3 3.788671875 23.5283203125 3.75 23.75 6.3810546875 21.816015625 10.35 20.9 14.9 19.85 18.6 20.75 18.9 20.85 19.1 20.95 18.95 21.15 18.75 21.3 15.8 23.75 11.25 24.8 6.9474609375 25.79296875 3.55 25 3.1177734375 27.6509765625 2.825 30.375 5.88984375 28.13046875 10.6 27 15.65 25.85 19.7 26.65 20 26.75 20.25 26.85 20.05 27.05 19.85 27.2 16.55 29.75 11.5 30.9 6.5861328125 32.079296875 2.725 31.225 2.61953125 32.282421875 2.525 33.35
L 11.5 33.35
Q 12.1 33.35 12.55 33.8 13 34.25 13 34.85 13 35.45 12.55 35.9 12.1 36.35 11.5 36.35
L 10.85 36.35 10.85 49.05
Q 10.85 49.4015625 10.825 49.75
L 9.225 55.225
Q 9.0333984375 55.5671875 8.8 55.9 8.05 57 6.95 57.95 6.55546875 58.2939453125 6.15 58.6 6.1880859375 58.810546875 6.2 59 6.2 59.55 6.15 60.2 6.05 61 5.7 61.4 5.5 61.8 5.1 61.9 4.7 62 4.25 61.8 3.8 61.6 3.3 61 3.0734375 60.6884765625 2.9 60.375 2.500390625 60.5248046875 2.1 60.65
L 2.025 60.675
Q 1.8955078125 60.7146484375 1.775 60.75
L 1.75 60.75
Q 1.531640625 60.8078125 1.3 60.85
L -1.95 61.2
Q -2.1455078125 61.2056640625 -2.35 61.2 -2.7892578125 61.1837890625 -3.225 61.15
L -6.975 60.375
Q -7.22734375 60.2943359375 -7.475 60.2 -7.6560546875 60.5958984375 -7.95 61 -8.45 61.6 -8.9 61.8 -9.35 62 -9.75 61.9 -10.15 61.8 -10.35 61.4 -10.7 61 -10.8 60.2 -10.85 59.55 -10.85 59 -10.832421875 58.7171875 -10.75 58.4 -10.953125 58.243359375 -11.15 58.075
L -11.55 57.75
Q -12.1162109375 57.2583984375 -12.6 56.725 -15.35 53.6455078125 -15.35 49.05
L -15.35 36.35
Q -15.93359375 36.3265625 -16.35 35.9 -16.7947265625 35.466015625 -16.8 34.85 -16.7947265625 34.233984375 -16.35 33.8 -15.916015625 33.3552734375 -15.3 33.35
L -6.9 33.35
Q -7.234765625 32.046875 -7.625 30.775 -10.2404296875 31.844921875 -13.8 31.75 -17.55 31.65 -20.25 30.3 -20.45 30.2 -20.65 30.1 -20.45 29.95 -20.25 29.85 -17.5 28.75 -13.75 28.85 -10.3669921875 28.940234375 -7.875 29.975 -8.2388671875 28.83671875 -8.625 27.725 -10.073828125 27.48828125 -11.6 27.075 -12.9626953125 27.2966796875 -14.55 27.25 -17.95 27.2 -20.4 25.85 -20.6 25.75 -20.75 25.65 -20.6 25.5 -20.4 25.4 -19.19140625 24.8681640625 -17.775 24.6 -19.4865234375 23.65 -20.875 22.475 -20.93359375 22.433203125 -21 22.4 -21.15 22.3 -21.3 22.15 -21.27734375 22.1349609375 -21.25 22.125 -21.3578125 22.015234375 -21.45 21.9 -21.15 21.8 -20.8 21.75 -20.713671875 21.73671875 -20.625 21.725 -18.634375 20.5869140625 -15.85 20.45 -13.2580078125 20.3650390625 -11.325 21.175 -11.6396484375 20.5033203125 -11.975 19.85 -14.025 19.198828125 -15.75 18.3 -16.6240234375 18.555078125 -17.65 18.65 -20.3 18.95 -22.35 17.95 -22.5 17.85 -22.65 17.7 -22.55 17.6 -22.4 17.5 -21.0525390625 16.38359375 -19.175 15.95 -19.3380859375 15.8017578125 -19.5 15.65 -19.7 15.5 -19.9 15.25 -19.6 15.15 -19.3 15.05 -17.13828125 14.63828125 -14.75 14.825 -15.405859375 13.7611328125 -16.1 12.725 -17.77734375 14.01171875 -20.35 14.25 -23 14.55 -25.05 13.55 -25.2 13.45 -25.35 13.3 -25.25 13.2 -25.1 13.1 -23.35 11.65 -20.7 11.35 -18.4810546875 11.14453125 -16.725 11.825 -16.7474609375 11.79296875 -16.775 11.75 -18.0234375 11.052734375 -19.05 10.15 -19.2265625 9.929296875 -19.4 9.75 -20.81953125 10.5212890625 -22.75 10.7 -25.4 11 -27.45 10 -27.6 9.9 -27.75 9.75 -27.65 9.65 -27.5 9.55 -25.75 8.1 -23.1 7.8 -21.1248046875 7.6171875 -19.525 8.125 -20.6677734375 6.7197265625 -21.9 5.375 -23.57578125 6.66171875 -26.15 6.9 -28.8 7.2 -30.85 6.2 -31 6.1 -31.15 5.95 -31.05 5.85 -30.9 5.75 -29.15 4.3 -26.5 4 -24.4869140625 3.813671875 -22.875 4.35 -23.9033203125 3.26484375 -25 2.225 -26.2318359375 3.574609375 -28.25 3.95 -30.4 4.35 -32.15 3.45 -32.25 3.35 -32.4 3.25 -32.3 3.1 -32.2 3.05 -30.95 1.5 -28.8 1.1 -27.4037109375 0.840234375 -26.175 1.15 -27.1662109375 0.2576171875 -28.2 -0.6 -29.919921875 -0.8240234375 -31.6 -2 -33.55 -3.35 -34.35 -5.25 -34.4 -5.4 -34.45 -5.6 -34.3 -5.55 -34.15 -5.55 -32.05 -5.5 -30.1 -4.15 -28.3923828125 -2.9546875 -27.6 -1.4 -27.369140625 -1.20859375 -27.15 -1.025 -27.522265625 -1.94140625 -27.55 -3.05 -27.65 -5.1 -26.6 -6.6 -26.5 -6.7 -26.4 -6.8 -26.3 -6.7 -26.25 -6.6 -25.1 -5.2 -25 -3.15 -24.953515625 -1.2921875 -25.825 0.125 -24.90390625 0.944921875 -24.025 1.8 -24.4828125 0.3685546875 -24.45 -1.4 -24.35 -4.05 -23.05 -5.95 -22.95 -6.1 -22.8 -6.2 -22.7 -6.1 -22.6 -5.95 -22.4046875 -5.6103515625 -22.25 -5.25 -22.05 -5 -21.9 -4.85 -19.15 -2.5 -15 -1.9 -10.930078125 -1.3044921875 -7.8 -2.775 -6.6318359375 0.478515625 -5.675 3.85 -8.16328125 1.846875 -11.9 1.3 -13.748828125 1.0326171875 -15.425 1.2 -15.4359375 1.17109375 -15.45 1.15 -15.4779296875 1.1685546875 -15.5 1.2 -16.8240234375 1.318359375 -18.05 1.7 -17.855078125 -0.6154296875 -18.75 -2.45 -18.75 -2.6 -18.85 -2.75 -19 -2.65 -19.15 -2.5 -20.6 -0.8 -20.95 1.85 -21.2044921875 3.535546875 -20.9 5 -21.83046875 3.9810546875 -22.8 3 -21.597265625 1.24765625 -21.55 -1.3 -21.4669921875 -3.5 -22.25 -5.25 Z
M -10.55 9.2
Q -11.0392578125 9.1 -11.525 9.025 -11.5888671875 7.40546875 -12.25 6.05 -12.25 5.9474609375 -12.3 5.85 -8.4005859375 6.3455078125 -5.375 4.95 -4.6390625 7.6765625 -4.05 10.475 -4.8763671875 9.8396484375 -5.75 9.35 -5.95 9.25 -6.25 9.15 -6.25 9.4 -6.2 9.65 -6.132421875 10.2212890625 -6.025 10.8 -8.026171875 9.7486328125 -10.55 9.2 Z
M -2.8 11.35
Q -1.460546875 10.33984375 -0.35 8.925 -0.1583984375 9.79765625 0.15 10.7 0.311328125 11.14921875 0.5 11.575 -0.199609375 12.691796875 -0.725 13.8 -1.7185546875 12.53046875 -2.8 11.525 -2.8138671875 11.4552734375 -2.825 11.375
L -2.8 11.35 Z
M -14.7 6.15
Q -14.6474609375 5.752734375 -14.625 5.375 -13.6349609375 5.64296875 -12.55 5.8 -12.4953125 5.8080078125 -12.45 5.825 -12.5455078125 5.8955078125 -12.65 6 -13.6470703125 7.1689453125 -14.125 8.775 -14.815234375 8.76875 -15.475 8.825 -14.921875 7.619921875 -14.7 6.15 Z
M -17.55 5.75
Q -17.451171875 5.0009765625 -17.275 4.325 -17.8626953125 4.0146484375 -18.4 3.65 -18.8546875 5.1666015625 -19.75 6.325 -18.5869140625 7.682421875 -17.5 9.1
L -17.475 9.1
Q -17.820703125 7.54453125 -17.55 5.75 Z
M -18.9 9.5
Q -18.9630859375 9.510546875 -19.025 9.525 -18.81875 9.39453125 -18.625 9.25 -18.574609375 9.31484375 -18.525 9.375 -18.7134765625 9.4369140625 -18.9 9.5 Z
M -11.5 13.65
Q -11.9572265625 13.556640625 -12.4 13.45 -12.7912109375 14.27890625 -13.35 14.975 -12.48046875 15.1021484375 -11.575 15.3 -11.5578125 15.2525390625 -11.55 15.2 -11.4451171875 14.4138671875 -11.275 13.7 -11.3818359375 13.67578125 -11.5 13.65 Z
M -14.4 13.55
Q -14.6998046875 13.07734375 -15 12.6 -14.7697265625 12.708203125 -14.525 12.8 -14.4775390625 13.1802734375 -14.4 13.55 Z
M -10.575 20.45
Q -10.503515625 20.3548828125 -10.425 20.25 -9.63203125 20.46015625 -8.85 20.6 -8.7908203125 20.703125 -8.725 20.8 -9.0498046875 21.9853515625 -9.125 23.1 -9.2724609375 23.0515625 -9.425 23 -9.9736328125 21.7099609375 -10.575 20.45 Z
M -10.9 22.1
Q -10.7794921875 22.3658203125 -10.65 22.625 -11.0787109375 22.51484375 -11.5 22.4 -11.1853515625 22.26640625 -10.9 22.1 Z
M -8.7 15.6
Q -8.595703125 14.817578125 -8.575 14.075 -6.7052734375 14.205859375 -5 13.925 -4.9515625 14.0373046875 -4.9 14.15 -6.0798828125 15.237890625 -7 16.75 -7.8453125 16.3875 -8.775 16.075 -8.7357421875 15.842578125 -8.7 15.6 Z
M -3.1 17.3
Q -3.71015625 16.413671875 -4.2 15.525 -4.28203125 16.70625 -4.625 17.95 -3.502734375 18.6173828125 -2.55 19.4 -2.6576171875 18.578515625 -2.775 17.775 -2.9353515625 17.5390625 -3.1 17.3 Z
M -5.825 24.125
Q -6.4501953125 23.540625 -7 22.95 -7.28203125 23.3208984375 -7.575 23.65 -6.74921875 23.9859375 -5.975 24.35 -5.9029296875 24.2376953125 -5.825 24.125 Z
M -1.475 19.8
Q -1.5046875 19.5541015625 -1.525 19.3 -1.3814453125 19.482421875 -1.225 19.65 -1.3572265625 19.7224609375 -1.475 19.8 Z
M -3.225 21.125
Q -3.04375 20.95625 -2.85 20.8 -3.19296875 20.84921875 -3.55 20.875 -3.3830078125 21.001953125 -3.225 21.125 Z
M -1.2 22.375
Q -0.7259765625 21.413671875 -0.45 20.45 0.0392578125 20.91953125 0.55 21.325 -0.213671875 22.2927734375 -0.8 23.3 -0.9755859375 23.124609375 -1.15 22.95 -1.1720703125 22.6630859375 -1.2 22.375 Z
M 2 28.675
Q 1.7146484375 30.987109375 1.525 33.35
L -0.625 33.35
Q -0.6546875 30.471484375 -0.8 27.65 0.590234375 28.3306640625 2 28.675 Z
M -7.25 28.675
Q -6.655859375 28.39765625 -6.075 28.025 -3.8361328125 28.1634765625 -1.8 27.825 -1.6619140625 30.5603515625 -1.65 33.35
L -5.85 33.35
Q -6.486328125 30.9619140625 -7.25 28.675 Z
M 2.05 4.65
Q 2.376171875 3.8615234375 2.625 3.075 2.662890625 3.1931640625 2.7 3.3 3.3875 5.225 4.45 6.675 3.8802734375 7.2140625 3.325 7.825 2.6751953125 6.3685546875 1.825 5.2 1.937890625 4.92421875 2.05 4.65 Z
M 4.2 16.85
Q 3.4322265625 16.198046875 2.775 15.4 2.018359375 16.1005859375 1.225 16.675 1.97421875 17.9638671875 2.475 19.225 3.15 18.5658203125 3.925 17.925 4.0615234375 17.3908203125 4.2 16.85 Z
M 4.925 14.1
Q 4.9064453125 13.641796875 4.85 13.175 5.1271484375 12.8390625 5.4 12.475 5.1537109375 13.2896484375 4.925 14.1 Z
M 2.55 24.8
Q 2.3349609375 26.1265625 2.15 27.475 1.46015625 26.041796875 0.375 24.675 1.54609375 24.355859375 2.7 23.85 2.6291015625 24.3171875 2.55 24.8 Z"/>

<path id="Duplicate_Items_Folder_Symbol_29_0_Layer0_17_1_STROKES" stroke="#1E875B" stroke-width="1" stroke-linejoin="round" stroke-linecap="round" fill="none" d="
M -21.1 -29.9
Q 4.585546875 3.8791015625 -1.6 52.05"/>

<path id="Duplicate_Items_Folder___3_0_Layer0_3_MEMBER_2_1_STROKES" stroke="#FF7EE4" stroke-width="3" stroke-linejoin="round" stroke-linecap="round" fill="none" d="
M -15.859777832031249 34.86901855468749
L 11.484936523437497 34.86901855468749"/>

<path id="Duplicate_Items_Folder___3_0_Layer0_3_MEMBER_5_1_STROKES" stroke="#FFFFFF" stroke-opacity="0.4" stroke-width="2" stroke-linejoin="round" stroke-linecap="round" fill="none" d="
M -13 38.3
L -13 48.15
Q -13 50.9279296875 -12 53.15"/>
</defs>

<g transform="matrix( 1, 0, 0, 0.999603271484375, 65,60) ">
<g transform="matrix( 1, 0, 0, 1, 0,0) ">
<use xlink:href="#icon_r_box_02_33_Layer3_0_FILL"/>
</g>

<g transform="matrix( 1, 0, 0, 1, -0.05,0.05) ">
<use xlink:href="#icon_r_box_02_33_Layer3_1_FILL"/>
</g>

<g transform="matrix( 1, 0, 0, 1, 0,-2.15) ">
<use xlink:href="#icon_r_box_02_33_Layer3_2_FILL"/>
</g>

<g transform="matrix( 1, 0, 0, 1, 0,0.05) ">
<use xlink:href="#icon_r_box_02_33_Layer3_3_FILL"/>
</g>

<g transform="matrix( 1, 0, 0, 1, 0,0) ">
<use xlink:href="#icon_r_box_02_33_Layer2_0_FILL"/>
</g>

<g filter="url(#Filter_1)" transform="matrix( 0.9999847412109375, 0, 0, 1.000396728515625, -65,-60) ">
<g transform="matrix( 0.75, 0, 0, 0.74969482421875, 65.7,31.7) ">
<g transform="matrix( 1, 0, 0, 1, 0,0) ">
<use xlink:href="#Duplicate_Items_Folder___3_0_Layer1_0_FILL"/>

<use xlink:href="#Duplicate_Items_Folder___3_0_Layer1_0_1_STROKES"/>
</g>

<g transform="matrix( 0.62176513671875, -0.15802001953125, 0.15802001953125, 0.62176513671875, -14.4,18.55) ">
<g transform="matrix( 0.8140869140625, -0.705841064453125, 0.80670166015625, 0.930419921875, -16.55,-39) ">
<g transform="matrix( 1, 0, 0, 1, -1.55,25.35) ">
<use filter="url(#Filter_2)" xlink:href="#Duplicate_Items_Folder_Symbol_28_0_Layer0_0_FILL"/>
</g>
</g>

<g transform="matrix( 1.01776123046875, 0.2169036865234375, -0.2157440185546875, 1.01239013671875, -9.7,-37.3) ">
<g transform="matrix( 1, 0, 0, 1, -1.55,25.35) ">
<use filter="url(#Filter_2)" xlink:href="#Duplicate_Items_Folder_Symbol_28_0_Layer0_0_FILL"/>
</g>
</g>

<g transform="matrix( 0.0744781494140625, -1.1949310302734375, 1.10552978515625, 0.068878173828125, -15.25,-29.6) ">
<g transform="matrix( 1, 0, 0, 1, -1.55,25.35) ">
<use filter="url(#Filter_2)" xlink:href="#Duplicate_Items_Folder_Symbol_28_0_Layer0_0_FILL"/>
</g>
</g>

<g transform="matrix( 1.1494140625, 0.335052490234375, -0.38287353515625, 1.31365966796875, -5.4,-33.3) ">
<g transform="matrix( 1, 0, 0, 1, -1.55,25.35) ">
<use filter="url(#Filter_2)" xlink:href="#Duplicate_Items_Folder_Symbol_28_0_Layer0_0_FILL"/>
</g>
</g>

<g transform="matrix( 1.10833740234375, 0.45269775390625, -0.517333984375, 1.2667236328125, -1.5,-26.8) ">
<g transform="matrix( 1, 0, 0, 1, -1.55,25.35) ">
<use filter="url(#Filter_2)" xlink:href="#Duplicate_Items_Folder_Symbol_28_0_Layer0_0_FILL"/>
</g>
</g>

<g transform="matrix( 0.1727142333984375, -1.1847381591796875, 1.35400390625, 0.197357177734375, -13.1,-24.25) ">
<g transform="matrix( 1, 0, 0, 1, -1.55,25.35) ">
<use filter="url(#Filter_2)" xlink:href="#Duplicate_Items_Folder_Symbol_28_0_Layer0_0_FILL"/>
</g>
</g>

<g transform="matrix( 0.1727142333984375, -1.1847381591796875, 1.35400390625, 0.197357177734375, -9.4,-17.25) ">
<g transform="matrix( 1, 0, 0, 1, -1.55,25.35) ">
<use filter="url(#Filter_2)" xlink:href="#Duplicate_Items_Folder_Symbol_28_0_Layer0_0_FILL"/>
</g>
</g>

<g transform="matrix( 1.10833740234375, 0.45269775390625, -0.517333984375, 1.2667236328125, 2.1,-19.65) ">
<g transform="matrix( 1, 0, 0, 1, -1.55,25.35) ">
<use filter="url(#Filter_2)" xlink:href="#Duplicate_Items_Folder_Symbol_28_0_Layer0_0_FILL"/>
</g>
</g>

<g transform="matrix( 0.1727142333984375, -1.1847381591796875, 1.35400390625, 0.197357177734375, -7.1,-10.95) ">
<g transform="matrix( 1, 0, 0, 1, -1.55,25.35) ">
<use filter="url(#Filter_2)" xlink:href="#Duplicate_Items_Folder_Symbol_28_0_Layer0_0_FILL"/>
</g>
</g>

<g transform="matrix( 1.10833740234375, 0.45269775390625, -0.517333984375, 1.2667236328125, 5.05,-11.5) ">
<g transform="matrix( 1, 0, 0, 1, -1.55,25.35) ">
<use filter="url(#Filter_2)" xlink:href="#Duplicate_Items_Folder_Symbol_28_0_Layer0_0_FILL"/>
</g>
</g>

<g transform="matrix( 0.1727142333984375, -1.1847381591796875, 1.35400390625, 0.197357177734375, -4.65,-3.25) ">
<g transform="matrix( 1, 0, 0, 1, -1.55,25.35) ">
<use filter="url(#Filter_2)" xlink:href="#Duplicate_Items_Folder_Symbol_28_0_Layer0_0_FILL"/>
</g>
</g>

<g transform="matrix( 1.10833740234375, 0.45269775390625, -0.5863037109375, 1.43560791015625, 7.55,-3) ">
<g transform="matrix( 1, 0, 0, 1, -1.55,25.35) ">
<use filter="url(#Filter_2)" xlink:href="#Duplicate_Items_Folder_Symbol_28_0_Layer0_0_FILL"/>
</g>
</g>

<g transform="matrix( 0.247711181640625, -1.1712646484375, 1.51715087890625, 0.3207855224609375, -3.4,4.65) ">
<g transform="matrix( 1, 0, 0, 1, -1.55,25.35) ">
<use filter="url(#Filter_2)" xlink:href="#Duplicate_Items_Folder_Symbol_28_0_Layer0_0_FILL"/>
</g>
</g>

<g transform="matrix( 0.953399658203125, 0.7241058349609375, -1.0528564453125, 1.3863525390625, 11.25,4.15) ">
<g transform="matrix( 1, 0, 0, 1, -1.55,25.35) ">
<use filter="url(#Filter_2)" xlink:href="#Duplicate_Items_Folder_Symbol_28_0_Layer0_0_FILL"/>
</g>
</g>

<g transform="matrix( -0.32659912109375, 1.1517333984375, 1.67474365234375, 0.4749603271484375, -3,11.05) ">
<g transform="matrix( 1, 0, 0, 1, -1.55,25.35) ">
<use filter="url(#Filter_2)" xlink:href="#Duplicate_Items_Folder_Symbol_28_0_Layer0_0_FILL"/>
</g>
</g>

<g transform="matrix( -0.32659912109375, 1.1517333984375, 1.85186767578125, 0.5251922607421875, -3.6,18) ">
<g transform="matrix( 1, 0, 0, 1, -1.55,25.35) ">
<use filter="url(#Filter_2)" xlink:href="#Duplicate_Items_Folder_Symbol_28_0_Layer0_0_FILL"/>
</g>
</g>

<g transform="matrix( 0.7335052490234375, 0.9461669921875, -1.3757781982421875, 1.0666351318359375, 13.55,12.4) ">
<g transform="matrix( 1, 0, 0, 1, -1.55,25.35) ">
<use filter="url(#Filter_2)" xlink:href="#Duplicate_Items_Folder_Symbol_28_0_Layer0_0_FILL"/>
</g>
</g>

<g transform="matrix( 1, 0, 0, 1, 6.85,-6.5) ">
<use filter="url(#Filter_2)" xlink:href="#Duplicate_Items_Folder_Symbol_29_0_Layer0_17_1_STROKES"/>
</g>
</g>

<g transform="matrix( -0.87896728515625, -0.0420684814453125, -0.0420684814453125, 0.87896728515625, 8.65,13.05) ">
<g transform="matrix( 0.8140869140625, -0.705841064453125, 0.80670166015625, 0.930419921875, -16.55,-39) ">
<g transform="matrix( 1, 0, 0, 1, -1.55,25.35) ">
<use filter="url(#Filter_2)" xlink:href="#Duplicate_Items_Folder_Symbol_28_0_Layer0_0_FILL"/>
</g>
</g>

<g transform="matrix( 1.01776123046875, 0.2169036865234375, -0.2157440185546875, 1.01239013671875, -9.7,-37.3) ">
<g transform="matrix( 1, 0, 0, 1, -1.55,25.35) ">
<use filter="url(#Filter_2)" xlink:href="#Duplicate_Items_Folder_Symbol_28_0_Layer0_0_FILL"/>
</g>
</g>

<g transform="matrix( 0.0744781494140625, -1.1949310302734375, 1.10552978515625, 0.068878173828125, -15.25,-29.6) ">
<g transform="matrix( 1, 0, 0, 1, -1.55,25.35) ">
<use filter="url(#Filter_2)" xlink:href="#Duplicate_Items_Folder_Symbol_28_0_Layer0_0_FILL"/>
</g>
</g>

<g transform="matrix( 1.1494140625, 0.335052490234375, -0.38287353515625, 1.31365966796875, -5.4,-33.3) ">
<g transform="matrix( 1, 0, 0, 1, -1.55,25.35) ">
<use filter="url(#Filter_2)" xlink:href="#Duplicate_Items_Folder_Symbol_28_0_Layer0_0_FILL"/>
</g>
</g>

<g transform="matrix( 1.10833740234375, 0.45269775390625, -0.517333984375, 1.2667236328125, -1.5,-26.8) ">
<g transform="matrix( 1, 0, 0, 1, -1.55,25.35) ">
<use filter="url(#Filter_2)" xlink:href="#Duplicate_Items_Folder_Symbol_28_0_Layer0_0_FILL"/>
</g>
</g>

<g transform="matrix( 0.1727142333984375, -1.1847381591796875, 1.35400390625, 0.197357177734375, -13.1,-24.25) ">
<g transform="matrix( 1, 0, 0, 1, -1.55,25.35) ">
<use filter="url(#Filter_2)" xlink:href="#Duplicate_Items_Folder_Symbol_28_0_Layer0_0_FILL"/>
</g>
</g>

<g transform="matrix( 0.1727142333984375, -1.1847381591796875, 1.35400390625, 0.197357177734375, -9.4,-17.25) ">
<g transform="matrix( 1, 0, 0, 1, -1.55,25.35) ">
<use filter="url(#Filter_2)" xlink:href="#Duplicate_Items_Folder_Symbol_28_0_Layer0_0_FILL"/>
</g>
</g>

<g transform="matrix( 1.10833740234375, 0.45269775390625, -0.517333984375, 1.2667236328125, 2.1,-19.65) ">
<g transform="matrix( 1, 0, 0, 1, -1.55,25.35) ">
<use filter="url(#Filter_2)" xlink:href="#Duplicate_Items_Folder_Symbol_28_0_Layer0_0_FILL"/>
</g>
</g>

<g transform="matrix( 0.1727142333984375, -1.1847381591796875, 1.35400390625, 0.197357177734375, -7.1,-10.95) ">
<g transform="matrix( 1, 0, 0, 1, -1.55,25.35) ">
<use filter="url(#Filter_2)" xlink:href="#Duplicate_Items_Folder_Symbol_28_0_Layer0_0_FILL"/>
</g>
</g>

<g transform="matrix( 1.10833740234375, 0.45269775390625, -0.517333984375, 1.2667236328125, 5.05,-11.5) ">
<g transform="matrix( 1, 0, 0, 1, -1.55,25.35) ">
<use filter="url(#Filter_2)" xlink:href="#Duplicate_Items_Folder_Symbol_28_0_Layer0_0_FILL"/>
</g>
</g>

<g transform="matrix( 0.1727142333984375, -1.1847381591796875, 1.35400390625, 0.197357177734375, -4.65,-3.25) ">
<g transform="matrix( 1, 0, 0, 1, -1.55,25.35) ">
<use filter="url(#Filter_2)" xlink:href="#Duplicate_Items_Folder_Symbol_28_0_Layer0_0_FILL"/>
</g>
</g>

<g transform="matrix( 1.10833740234375, 0.45269775390625, -0.5863037109375, 1.43560791015625, 7.55,-3) ">
<g transform="matrix( 1, 0, 0, 1, -1.55,25.35) ">
<use filter="url(#Filter_2)" xlink:href="#Duplicate_Items_Folder_Symbol_28_0_Layer0_0_FILL"/>
</g>
</g>

<g transform="matrix( 0.247711181640625, -1.1712646484375, 1.51715087890625, 0.3207855224609375, -3.4,4.65) ">
<g transform="matrix( 1, 0, 0, 1, -1.55,25.35) ">
<use filter="url(#Filter_2)" xlink:href="#Duplicate_Items_Folder_Symbol_28_0_Layer0_0_FILL"/>
</g>
</g>

<g transform="matrix( 0.953399658203125, 0.7241058349609375, -1.0528564453125, 1.3863525390625, 11.25,4.15) ">
<g transform="matrix( 1, 0, 0, 1, -1.55,25.35) ">
<use filter="url(#Filter_2)" xlink:href="#Duplicate_Items_Folder_Symbol_28_0_Layer0_0_FILL"/>
</g>
</g>

<g transform="matrix( -0.32659912109375, 1.1517333984375, 1.67474365234375, 0.4749603271484375, -3,11.05) ">
<g transform="matrix( 1, 0, 0, 1, -1.55,25.35) ">
<use filter="url(#Filter_2)" xlink:href="#Duplicate_Items_Folder_Symbol_28_0_Layer0_0_FILL"/>
</g>
</g>

<g transform="matrix( -0.32659912109375, 1.1517333984375, 1.85186767578125, 0.5251922607421875, -3.6,18) ">
<g transform="matrix( 1, 0, 0, 1, -1.55,25.35) ">
<use filter="url(#Filter_2)" xlink:href="#Duplicate_Items_Folder_Symbol_28_0_Layer0_0_FILL"/>
</g>
</g>

<g transform="matrix( 0.7335052490234375, 0.9461669921875, -1.3757781982421875, 1.0666351318359375, 13.55,12.4) ">
<g transform="matrix( 1, 0, 0, 1, -1.55,25.35) ">
<use filter="url(#Filter_2)" xlink:href="#Duplicate_Items_Folder_Symbol_28_0_Layer0_0_FILL"/>
</g>
</g>

<g transform="matrix( 1, 0, 0, 1, 6.85,-6.5) ">
<use filter="url(#Filter_2)" xlink:href="#Duplicate_Items_Folder_Symbol_29_0_Layer0_17_1_STROKES"/>
</g>
</g>

<g transform="matrix( 1, 0, 0, 1, -7.6,6.85) ">
<g transform="matrix( 0.8140869140625, -0.705841064453125, 0.80670166015625, 0.930419921875, -16.55,-39) ">
<g transform="matrix( 1, 0, 0, 1, -1.55,25.35) ">
<use xlink:href="#Duplicate_Items_Folder_Symbol_28_0_Layer0_0_FILL"/>
</g>
</g>

<g transform="matrix( 1.01776123046875, 0.2169036865234375, -0.2157440185546875, 1.01239013671875, -9.7,-37.3) ">
<g transform="matrix( 1, 0, 0, 1, -1.55,25.35) ">
<use xlink:href="#Duplicate_Items_Folder_Symbol_28_0_Layer0_0_FILL"/>
</g>
</g>

<g transform="matrix( 0.0744781494140625, -1.1949310302734375, 1.10552978515625, 0.068878173828125, -15.25,-29.6) ">
<g transform="matrix( 1, 0, 0, 1, -1.55,25.35) ">
<use xlink:href="#Duplicate_Items_Folder_Symbol_28_0_Layer0_0_FILL"/>
</g>
</g>

<g transform="matrix( 1.1494140625, 0.335052490234375, -0.38287353515625, 1.31365966796875, -5.4,-33.3) ">
<g transform="matrix( 1, 0, 0, 1, -1.55,25.35) ">
<use xlink:href="#Duplicate_Items_Folder_Symbol_28_0_Layer0_0_FILL"/>
</g>
</g>

<g transform="matrix( 1.10833740234375, 0.45269775390625, -0.517333984375, 1.2667236328125, -1.5,-26.8) ">
<g transform="matrix( 1, 0, 0, 1, -1.55,25.35) ">
<use xlink:href="#Duplicate_Items_Folder_Symbol_28_0_Layer0_0_FILL"/>
</g>
</g>

<g transform="matrix( 0.1727142333984375, -1.1847381591796875, 1.35400390625, 0.197357177734375, -13.1,-24.25) ">
<g transform="matrix( 1, 0, 0, 1, -1.55,25.35) ">
<use xlink:href="#Duplicate_Items_Folder_Symbol_28_0_Layer0_0_FILL"/>
</g>
</g>

<g transform="matrix( 0.1727142333984375, -1.1847381591796875, 1.35400390625, 0.197357177734375, -9.4,-17.25) ">
<g transform="matrix( 1, 0, 0, 1, -1.55,25.35) ">
<use xlink:href="#Duplicate_Items_Folder_Symbol_28_0_Layer0_0_FILL"/>
</g>
</g>

<g transform="matrix( 1.10833740234375, 0.45269775390625, -0.517333984375, 1.2667236328125, 2.1,-19.65) ">
<g transform="matrix( 1, 0, 0, 1, -1.55,25.35) ">
<use xlink:href="#Duplicate_Items_Folder_Symbol_28_0_Layer0_0_FILL"/>
</g>
</g>

<g transform="matrix( 0.1727142333984375, -1.1847381591796875, 1.35400390625, 0.197357177734375, -7.1,-10.95) ">
<g transform="matrix( 1, 0, 0, 1, -1.55,25.35) ">
<use xlink:href="#Duplicate_Items_Folder_Symbol_28_0_Layer0_0_FILL"/>
</g>
</g>

<g transform="matrix( 1.10833740234375, 0.45269775390625, -0.517333984375, 1.2667236328125, 5.05,-11.5) ">
<g transform="matrix( 1, 0, 0, 1, -1.55,25.35) ">
<use xlink:href="#Duplicate_Items_Folder_Symbol_28_0_Layer0_0_FILL"/>
</g>
</g>

<g transform="matrix( 0.1727142333984375, -1.1847381591796875, 1.35400390625, 0.197357177734375, -4.65,-3.25) ">
<g transform="matrix( 1, 0, 0, 1, -1.55,25.35) ">
<use xlink:href="#Duplicate_Items_Folder_Symbol_28_0_Layer0_0_FILL"/>
</g>
</g>

<g transform="matrix( 1.10833740234375, 0.45269775390625, -0.5863037109375, 1.43560791015625, 7.55,-3) ">
<g transform="matrix( 1, 0, 0, 1, -1.55,25.35) ">
<use xlink:href="#Duplicate_Items_Folder_Symbol_28_0_Layer0_0_FILL"/>
</g>
</g>

<g transform="matrix( 0.247711181640625, -1.1712646484375, 1.51715087890625, 0.3207855224609375, -3.4,4.65) ">
<g transform="matrix( 1, 0, 0, 1, -1.55,25.35) ">
<use xlink:href="#Duplicate_Items_Folder_Symbol_28_0_Layer0_0_FILL"/>
</g>
</g>

<g transform="matrix( 0.953399658203125, 0.7241058349609375, -1.0528564453125, 1.3863525390625, 11.25,4.15) ">
<g transform="matrix( 1, 0, 0, 1, -1.55,25.35) ">
<use xlink:href="#Duplicate_Items_Folder_Symbol_28_0_Layer0_0_FILL"/>
</g>
</g>

<g transform="matrix( -0.32659912109375, 1.1517333984375, 1.67474365234375, 0.4749603271484375, -3,11.05) ">
<g transform="matrix( 1, 0, 0, 1, -1.55,25.35) ">
<use xlink:href="#Duplicate_Items_Folder_Symbol_28_0_Layer0_0_FILL"/>
</g>
</g>

<g transform="matrix( -0.32659912109375, 1.1517333984375, 1.85186767578125, 0.5251922607421875, -3.6,18) ">
<g transform="matrix( 1, 0, 0, 1, -1.55,25.35) ">
<use xlink:href="#Duplicate_Items_Folder_Symbol_28_0_Layer0_0_FILL"/>
</g>
</g>

<g transform="matrix( 0.7335052490234375, 0.9461669921875, -1.3757781982421875, 1.0666351318359375, 13.55,12.4) ">
<g transform="matrix( 1, 0, 0, 1, -1.55,25.35) ">
<use xlink:href="#Duplicate_Items_Folder_Symbol_28_0_Layer0_0_FILL"/>
</g>
</g>

<g transform="matrix( 1, 0, 0, 1, 6.85,-6.5) ">
<use xlink:href="#Duplicate_Items_Folder_Symbol_29_0_Layer0_17_1_STROKES"/>
</g>
</g>

<g transform="matrix( 1, 0, 0, 1, 0,0) ">
<use xlink:href="#Duplicate_Items_Folder___3_0_Layer0_3_MEMBER_0_FILL"/>
</g>

<g transform="matrix( 0.9024658203125, 0, 0, 0.9024658203125, -0.9,7.3) ">
<use xlink:href="#Duplicate_Items_Folder___3_0_Layer0_3_MEMBER_1_FILL"/>
</g>

<g transform="matrix( 0.9024658203125, 0, 0, 0.9024658203125, -56.2,-30.65) ">
<use xlink:href="#Duplicate_Items_Folder___3_0_Layer0_3_MEMBER_2_1_STROKES" transform="matrix( 1.108062744140625, 0, 0, 1.108062744140625, 62.25,33.95) "/>
</g>

<g transform="matrix( 0.988525390625, 0, 0, 0.98175048828125, 0,0.85) ">
<use xlink:href="#Duplicate_Items_Folder___3_0_Layer0_3_MEMBER_3_FILL"/>
</g>

<g transform="matrix( 1, 0, 0, 1, 0,0) ">
<use xlink:href="#Duplicate_Items_Folder___3_0_Layer0_3_MEMBER_4_FILL"/>
</g>

<g transform="matrix( 1, 0, 0, 1, 0,0) ">
<use xlink:href="#Duplicate_Items_Folder___3_0_Layer0_3_MEMBER_5_1_STROKES"/>
</g>

<g transform="matrix( 0.4373626708984375, 0, 0, 0.4373626708984375, -0.25,18.9) ">
<use xlink:href="#Duplicate_Items_Folder___3_0_Layer0_3_MEMBER_6_FILL"/>
</g>

<g transform="matrix( 1, 0, 0, 1, -13.75,-0.4) ">
<use xlink:href="#Duplicate_Items_Folder___3_0_Layer0_3_MEMBER_7_FILL"/>
</g>
</g>
</g>
</g>
</svg>
