
<svg xmlns="http://www.w3.org/2000/svg" version="1.1" xmlns:xlink="http://www.w3.org/1999/xlink" preserveAspectRatio="none" x="0px" y="0px" width="130px" height="115px" viewBox="0 0 130 115">
<defs>
<g id="icon_r_box_02_12_Layer3_0_FILL">
<path fill="#FFFFFF" fill-opacity="0" stroke="none" d="
M 65 -55
L -65 -55 -65 25 65 25 65 -55 Z"/>
</g>

<g id="icon_r_box_02_12_Layer3_1_FILL">
<path fill="#FFFFFF" fill-opacity="0" stroke="none" d="
M 65.05 49.95
L 65.05 24.95 -64.95 24.95 -64.95 49.95 65.05 49.95 Z"/>
</g>

<g id="icon_r_box_02_12_Layer3_2_FILL">
<path fill="#FFFFFF" fill-opacity="0" stroke="none" d="
M 65 -52.85
L 65 -57.85 -65 -57.85 -65 -52.85 65 -52.85 Z"/>
</g>

<g id="icon_r_box_02_12_Layer3_3_FILL">
<path fill="#FFFFFF" fill-opacity="0" stroke="none" d="
M 65 54.95
L 65 49.95 -65 49.95 -65 54.95 65 54.95 Z"/>
</g>

<g id="icon_r_box_02_12_Layer2_0_FILL">
<path fill="#FFFFFF" stroke="none" d="
M 80.45 43.85
L 80.45 10.75 4.95 10.75 4.95 43.85 80.45 43.85 Z"/>
</g>

<g id="icon_r_box_02_12_Layer2_1_FILL">
<path fill="#F3DFDF" stroke="none" d="
M 80.45 16.9
L 80.45 14.55 4.95 14.55 4.95 16.9 80.45 16.9 Z"/>
</g>

<g id="icon_r_box_02_12_Layer2_2_FILL">
<path fill="#F3DFDF" stroke="none" d="
M 80.45 28.5
L 80.45 26.15 4.95 26.15 4.95 28.5 80.45 28.5 Z"/>
</g>

<g id="icon_r_box_02_12_Layer2_3_FILL">
<path fill="#F3DFDF" stroke="none" d="
M 80.45 40.05
L 80.45 37.75 4.95 37.75 4.95 40.05 80.45 40.05 Z"/>
</g>

<g id="icon_r_box_02_12_Layer2_5_MEMBER_0_FILL">
<path fill="#65696E" stroke="none" d="
M 23.75 43.85
L 23.75 19.2 9.3 19.2 9.3 43.85 23.75 43.85 Z"/>
</g>

<g id="icon_r_box_02_12_Layer2_5_MEMBER_1_FILL">
<path fill="#65696E" stroke="none" d="
M 23.75 43.85
L 23.75 19.2 9.3 19.2 9.3 43.85 23.75 43.85 Z"/>
</g>

<g id="icon_r_box_02_12_Layer2_5_MEMBER_2_MEMBER_0_FILL">
<path fill="#4B4E52" stroke="none" d="
M 13.95 25.25
L 13.95 22.45 11.25 22.45 11.25 25.25 13.95 25.25 Z"/>
</g>

<g id="icon_r_box_02_12_Layer2_5_MEMBER_2_MEMBER_1_FILL">
<path fill="#4B4E52" stroke="none" d="
M 17.85 25.25
L 17.85 22.45 15.2 22.45 15.2 25.25 17.85 25.25 Z"/>
</g>

<g id="icon_r_box_02_12_Layer2_5_MEMBER_2_MEMBER_2_FILL">
<path fill="#4B4E52" stroke="none" d="
M 21.8 25.25
L 21.8 22.45 19.1 22.45 19.1 25.25 21.8 25.25 Z"/>
</g>

<g id="icon_r_box_02_12_Layer2_5_MEMBER_3_MEMBER_0_FILL">
<path fill="#4B4E52" stroke="none" d="
M 13.95 30.5
L 13.95 27.7 11.25 27.7 11.25 30.5 13.95 30.5 Z"/>
</g>

<g id="icon_r_box_02_12_Layer2_5_MEMBER_3_MEMBER_1_FILL">
<path fill="#4B4E52" stroke="none" d="
M 17.85 30.5
L 17.85 27.7 15.2 27.7 15.2 30.5 17.85 30.5 Z"/>
</g>

<g id="icon_r_box_02_12_Layer2_5_MEMBER_3_MEMBER_2_FILL">
<path fill="#4B4E52" stroke="none" d="
M 21.8 30.5
L 21.8 27.7 19.1 27.7 19.1 30.5 21.8 30.5 Z"/>
</g>

<g id="icon_r_box_02_12_Layer2_5_MEMBER_4_MEMBER_0_FILL">
<path fill="#3E4144" stroke="none" d="
M 23.75 43.85
L 23.75 34.2 9.3 34.2 9.3 43.85 23.75 43.85 Z"/>
</g>

<g id="icon_r_box_02_12_Layer2_6_MEMBER_0_FILL">
<path fill="#65696E" stroke="none" d="
M 41.85 43.85
L 41.85 19.2 27.4 19.2 27.4 43.85 41.85 43.85 Z"/>
</g>

<g id="icon_r_box_02_12_Layer2_6_MEMBER_1_FILL">
<path fill="#65696E" stroke="none" d="
M 41.85 43.85
L 41.85 19.2 27.4 19.2 27.4 43.85 41.85 43.85 Z"/>
</g>

<g id="icon_r_box_02_12_Layer2_6_MEMBER_2_MEMBER_0_FILL">
<path fill="#4B4E52" stroke="none" d="
M 32.05 25.25
L 32.05 22.45 29.35 22.45 29.35 25.25 32.05 25.25 Z"/>
</g>

<g id="icon_r_box_02_12_Layer2_6_MEMBER_2_MEMBER_1_FILL">
<path fill="#4B4E52" stroke="none" d="
M 35.95 25.25
L 35.95 22.45 33.3 22.45 33.3 25.25 35.95 25.25 Z"/>
</g>

<g id="icon_r_box_02_12_Layer2_6_MEMBER_2_MEMBER_2_FILL">
<path fill="#4B4E52" stroke="none" d="
M 39.9 25.25
L 39.9 22.45 37.2 22.45 37.2 25.25 39.9 25.25 Z"/>
</g>

<g id="icon_r_box_02_12_Layer2_6_MEMBER_3_MEMBER_0_FILL">
<path fill="#4B4E52" stroke="none" d="
M 32.05 30.5
L 32.05 27.7 29.35 27.7 29.35 30.5 32.05 30.5 Z"/>
</g>

<g id="icon_r_box_02_12_Layer2_6_MEMBER_3_MEMBER_1_FILL">
<path fill="#4B4E52" stroke="none" d="
M 35.95 30.5
L 35.95 27.7 33.3 27.7 33.3 30.5 35.95 30.5 Z"/>
</g>

<g id="icon_r_box_02_12_Layer2_6_MEMBER_3_MEMBER_2_FILL">
<path fill="#4B4E52" stroke="none" d="
M 39.9 30.5
L 39.9 27.7 37.2 27.7 37.2 30.5 39.9 30.5 Z"/>
</g>

<g id="icon_r_box_02_12_Layer2_6_MEMBER_4_MEMBER_0_FILL">
<path fill="#3E4144" stroke="none" d="
M 41.85 43.85
L 41.85 34.2 27.4 34.2 27.4 43.85 41.85 43.85 Z"/>
</g>

<g id="icon_r_box_02_12_Layer2_8_FILL">
<path fill="#65696E" stroke="none" d="
M 80.45 10.75
L 80.45 8.1 4.95 8.1 4.95 10.75 80.45 10.75 Z"/>
</g>

<g id="icon_r_box_02_12_Layer2_9_MEMBER_0_MEMBER_0_FILL">
<path fill="#638799" stroke="none" d="
M 73.7 8.1
L 78.3 2.7 7.05 2.7 11.7 8.1 73.7 8.1 Z"/>
</g>

<g id="icon_r_box_02_12_Layer2_9_MEMBER_0_MEMBER_1_FILL">
<path fill="#FFFFFF" stroke="none" d="
M 78.3 2.7
L 73.7 0.5 11.7 0.5 7.05 2.7 78.3 2.7 Z"/>
</g>

<g id="icon_r_box_02_12_Layer2_10_MEMBER_0_FILL">
<path fill="#FFFFFF" stroke="none" d="
M 33.45 8.1
L 33.45 2.7 31 2.7 31 8.1 33.45 8.1 Z"/>
</g>

<g id="icon_r_box_02_12_Layer2_10_MEMBER_1_FILL">
<path fill="#FFFFFF" stroke="none" d="
M 54.55 8.1
L 54.55 2.7 52.1 2.7 52.1 8.1 54.55 8.1 Z"/>
</g>

<g id="icon_r_box_02_12_Layer1_0_FILL">
<path fill="#000000" stroke="none" d="
M 33.35 -10.8
Q 33.35 -11.1 33.15 -11.25 32.95 -11.4 32.55 -11.4 32.2 -11.4 32 -11.25 31.8 -11.1 31.8 -10.8
L 31.8 -4.7
Q 31.8 -4.4 32 -4.25 32.2 -4.1 32.55 -4.1 32.95 -4.1 33.15 -4.25 33.35 -4.4 33.35 -4.7
L 33.35 -7.35 34.3 -7.35
Q 34.6 -7.35 34.75 -7.55 34.9 -7.7 34.9 -8 34.9 -8.25 34.75 -8.4 34.6 -8.6 34.3 -8.6
L 33.35 -8.6 33.35 -10.8
M 28.45 -3.1
Q 28.45 -3.3 28.5 -3.55 28.55 -3.8 28.55 -4 28.65 -4.25 28.45 -4.45 28.25 -4.7 27.95 -4.75 27.55 -4.8 27.35 -4.65 27.1 -4.55 27 -4.25 26.85 -3.65 26.85 -2.95 26.85 -2.1 27.5 -1.6 28.15 -1.15 29.5 -1.15 30.1 -1.15 30.6 -1.15 31.15 -1.2 31.6 -1.25 32 -1.3 32.4 -1.4 32.8 -1.5 33.15 -1.6 33.45 -1.75 33.55 -2 33.65 -2.25 33.55 -2.5 33.45 -2.8 33.2 -2.9 32.95 -3 32.6 -2.9 32.05 -2.7 31.35 -2.6 30.6 -2.5 29.7 -2.5 29 -2.5 28.75 -2.6 28.45 -2.75 28.45 -3.1
M 27.6 -8.8
Q 27.3 -8.8 27.1 -8.65 26.85 -8.5 26.85 -8.2
L 26.85 -6.45 25.45 -6.45
Q 25.15 -6.45 25.05 -6.3 24.9 -6.1 24.9 -5.85 24.9 -5.6 25.05 -5.4 25.15 -5.2 25.45 -5.2
L 28.75 -5.2
Q 29.4 -5.2 30.05 -5.3 30.7 -5.35 31.15 -5.5 31.45 -5.6 31.55 -5.85 31.65 -6.05 31.6 -6.25 31.55 -6.5 31.35 -6.6 31.15 -6.75 30.9 -6.65 30.55 -6.6 30.1 -6.5 29.7 -6.45 29.2 -6.45
L 28.4 -6.45 28.4 -8.2
Q 28.4 -8.5 28.15 -8.65 27.95 -8.8 27.6 -8.8
M 28.65 -9.85
Q 29.05 -9.85 29.25 -9.7 29.45 -9.55 29.45 -9.15 29.45 -8.85 29.4 -8.5 29.35 -8.15 29.3 -7.85 29.2 -7.55 29.35 -7.35 29.5 -7.15 29.8 -7.1 30.1 -7 30.35 -7.1 30.6 -7.2 30.65 -7.5 30.85 -8 30.9 -8.55 31 -9.1 31 -9.55 31 -10.35 30.6 -10.75 30.2 -11.15 29.4 -11.15
L 26.2 -11.15
Q 25.9 -11.15 25.75 -10.95 25.6 -10.8 25.6 -10.5 25.6 -10.2 25.75 -10 25.9 -9.85 26.2 -9.85
L 28.65 -9.85
M 16.1 -3.95
Q 15.85 -3.95 15.75 -3.8 15.6 -3.65 15.6 -3.4 15.6 -3.2 15.7 -3.05 15.8 -2.9 16 -2.9 15.95 -2.65 15.95 -2.35 15.95 -2 16.1 -1.75 16.25 -1.5 16.6 -1.35 16.95 -1.2 17.6 -1.1 18.25 -1.05 19.2 -1.05 20.2 -1.05 21.05 -1.15 21.9 -1.25 22.45 -1.4 22.75 -1.45 22.8 -1.65 22.9 -1.8 22.85 -2.05 22.8 -2.3 22.6 -2.4 22.45 -2.5 22.15 -2.45 21.65 -2.3 20.85 -2.25 20.1 -2.2 19.2 -2.2 18.65 -2.2 18.3 -2.2 18 -2.25 17.8 -2.3 17.65 -2.35 17.6 -2.4 17.55 -2.5 17.55 -2.6 17.55 -2.7 17.55 -2.75 17.55 -2.8 17.55 -2.9
L 21.45 -2.9
Q 22.7 -2.9 22.7 -3.95
L 22.7 -4.55
Q 22.7 -5.65 21.45 -5.65
L 16.25 -5.65
Q 16 -5.65 15.9 -5.5 15.75 -5.35 15.75 -5.1 15.75 -4.85 15.9 -4.7 16 -4.55 16.25 -4.55
L 20.85 -4.55
Q 21.1 -4.55 21.1 -4.35
L 21.1 -4.15
Q 21.1 -4.05 21.05 -4 21 -3.95 20.85 -3.95
L 16.1 -3.95
M 18.4 -6.55
L 18.4 -6.3
Q 18.4 -6.1 18.6 -5.95 18.8 -5.85 19.2 -5.85 19.65 -5.85 19.85 -5.95 20.05 -6.1 20.05 -6.3
L 20.05 -6.55 23.45 -6.55
Q 23.75 -6.55 23.9 -6.7 24.05 -6.8 24.05 -7.1 24.05 -7.4 23.9 -7.5 23.75 -7.65 23.45 -7.65
L 15 -7.65
Q 14.7 -7.65 14.55 -7.5 14.4 -7.4 14.4 -7.1 14.4 -6.8 14.55 -6.7 14.7 -6.55 15 -6.55
L 18.4 -6.55
M 15.6 -9.85
Q 15.55 -9.6 15.55 -9.4 15.55 -9.05 15.7 -8.8 15.8 -8.55 16.2 -8.4 16.6 -8.25 17.3 -8.15 18 -8.1 19.2 -8.1 20.35 -8.1 21.05 -8.15 21.8 -8.25 22.15 -8.4 22.55 -8.55 22.7 -8.8 22.8 -9.05 22.8 -9.4
L 22.8 -10.05
Q 22.8 -10.75 22.55 -11 22.25 -11.3 21.6 -11.3
L 16.95 -11.3
Q 16.3 -11.3 16.05 -11.05 15.75 -10.8 15.65 -10.3 15.6 -10.05 15.6 -9.85
M 17.2 -9.9
Q 17.25 -10.05 17.3 -10.1 17.35 -10.15 17.55 -10.15
L 20.9 -10.15
Q 21.05 -10.15 21.15 -10.1 21.2 -10.05 21.2 -9.85
L 21.2 -9.55
Q 21.2 -9.45 21.15 -9.4 21.05 -9.3 20.85 -9.25 20.65 -9.2 20.25 -9.2 19.85 -9.2 19.2 -9.2 18.5 -9.2 18.1 -9.2 17.7 -9.2 17.5 -9.25 17.3 -9.3 17.25 -9.35 17.2 -9.45 17.2 -9.55 17.2 -9.65 17.2 -9.7 17.2 -9.8 17.2 -9.9
M 11 -11.2
Q 10.8 -11.05 10.8 -10.8
L 10.8 -6.35
Q 10.8 -6.05 11 -5.9 11.2 -5.75 11.6 -5.75 11.95 -5.75 12.2 -5.9 12.4 -6.05 12.4 -6.3
L 12.4 -8.15 13.4 -8.15
Q 13.7 -8.15 13.85 -8.3 14 -8.45 14 -8.75 14 -9.05 13.85 -9.2 13.7 -9.4 13.4 -9.4
L 12.4 -9.4 12.4 -10.8
Q 12.4 -11.05 12.2 -11.2 11.95 -11.4 11.6 -11.4 11.2 -11.4 11 -11.2
M 6.6 -5.35
Q 6.3 -5.35 6.15 -5.15 6 -4.95 6 -4.65 6 -4.4 6.15 -4.2 6.3 -4 6.6 -4
L 10.25 -4
Q 10.5 -4 10.65 -3.9 10.75 -3.75 10.75 -3.5 10.75 -3.1 10.7 -2.75 10.65 -2.35 10.55 -2 10.45 -1.7 10.6 -1.45 10.75 -1.25 11.1 -1.2 11.45 -1.1 11.7 -1.2 12 -1.3 12.05 -1.6 12.2 -2.15 12.3 -2.7 12.4 -3.25 12.4 -3.85 12.4 -4.6 12 -4.95 11.65 -5.35 10.8 -5.35
L 6.6 -5.35
M 9.6 -10.6
Q 9.6 -10.9 9.4 -11.05 9.15 -11.2 8.8 -11.2 8.5 -11.2 8.25 -11.05 8.05 -10.9 8.05 -10.6
L 8.05 -9.6 5.95 -9.6
Q 6 -9.85 6.05 -10 6.05 -10.2 6.1 -10.35 6.2 -10.65 6.05 -10.9 5.9 -11.1 5.55 -11.2 5.2 -11.25 4.95 -11.15 4.7 -11.05 4.6 -10.75 4.5 -10.45 4.45 -10.1 4.35 -9.75 4.3 -9.35 4.25 -8.95 4.25 -8.6 4.2 -8.2 4.2 -7.85 4.2 -7.35 4.3 -7 4.4 -6.65 4.75 -6.4 5.05 -6.2 5.55 -6.1 6.1 -6.05 6.9 -6.05 7.75 -6.05 8.25 -6.1 8.8 -6.2 9.1 -6.4 9.4 -6.65 9.5 -7 9.6 -7.35 9.6 -7.85
L 9.6 -10.6
M 7.55 -7.35
Q 7.3 -7.3 6.9 -7.3 6.5 -7.3 6.3 -7.35 6.05 -7.35 5.95 -7.45 5.85 -7.5 5.8 -7.65 5.8 -7.75 5.8 -8 5.8 -8.1 5.8 -8.2 5.8 -8.3 5.8 -8.45
L 8.05 -8.45 8.05 -8
Q 8.05 -7.75 8 -7.65 8 -7.5 7.85 -7.45 7.75 -7.35 7.55 -7.35 Z"/>
</g>

<path id="icon_r_box_02_12_Layer2_0_1_STROKES" stroke="#000000" stroke-width="1" stroke-linejoin="round" stroke-linecap="round" fill="none" d="
M 80.45 43.85
L 4.95 43.85 4.95 10.75 80.45 10.75 80.45 43.85 Z"/>

<path id="icon_r_box_02_12_Layer2_4_MEMBER_0_1_STROKES" stroke="#000000" stroke-width="1" stroke-linejoin="round" stroke-linecap="round" fill="none" d="
M 0.5 43.85
L 84.9 43.85"/>

<path id="icon_r_box_02_12_Layer2_5_MEMBER_0_1_STROKES" stroke="#000000" stroke-width="1" stroke-linejoin="round" stroke-linecap="round" fill="none" d="
M 23.75 43.85
L 9.3 43.85 9.3 19.2 23.75 19.2 23.75 43.85 Z"/>

<path id="icon_r_box_02_12_Layer2_5_MEMBER_1_1_STROKES" stroke="#000000" stroke-width="1" stroke-linejoin="round" stroke-linecap="round" fill="none" d="
M 23.75 43.85
L 9.3 43.85 9.3 19.2 23.75 19.2 23.75 43.85 Z"/>

<path id="icon_r_box_02_12_Layer2_5_MEMBER_4_MEMBER_0_1_STROKES" stroke="#000000" stroke-width="1" stroke-linejoin="round" stroke-linecap="round" fill="none" d="
M 23.75 43.85
L 9.3 43.85 9.3 34.2 23.75 34.2 23.75 43.85 Z"/>

<path id="icon_r_box_02_12_Layer2_5_MEMBER_4_MEMBER_1_1_STROKES" stroke="#000000" stroke-width="1" stroke-linejoin="round" stroke-linecap="round" fill="none" d="
M 14 34.2
L 14 43.85"/>

<path id="icon_r_box_02_12_Layer2_5_MEMBER_4_MEMBER_2_1_STROKES" stroke="#000000" stroke-width="1" stroke-linejoin="round" stroke-linecap="round" fill="none" d="
M 19 34.2
L 19 43.85"/>

<path id="icon_r_box_02_12_Layer2_5_MEMBER_5_MEMBER_0_1_STROKES" stroke="#000000" stroke-width="1" stroke-linejoin="round" stroke-linecap="round" fill="none" d="
M 9.3 39
L 23.75 39"/>

<path id="icon_r_box_02_12_Layer2_6_MEMBER_0_1_STROKES" stroke="#000000" stroke-width="1" stroke-linejoin="round" stroke-linecap="round" fill="none" d="
M 41.85 43.85
L 27.4 43.85 27.4 19.2 41.85 19.2 41.85 43.85 Z"/>

<path id="icon_r_box_02_12_Layer2_6_MEMBER_1_1_STROKES" stroke="#000000" stroke-width="1" stroke-linejoin="round" stroke-linecap="round" fill="none" d="
M 41.85 43.85
L 27.4 43.85 27.4 19.2 41.85 19.2 41.85 43.85 Z"/>

<path id="icon_r_box_02_12_Layer2_6_MEMBER_4_MEMBER_0_1_STROKES" stroke="#000000" stroke-width="1" stroke-linejoin="round" stroke-linecap="round" fill="none" d="
M 41.85 43.85
L 27.4 43.85 27.4 34.2 41.85 34.2 41.85 43.85 Z"/>

<path id="icon_r_box_02_12_Layer2_6_MEMBER_4_MEMBER_1_1_STROKES" stroke="#000000" stroke-width="1" stroke-linejoin="round" stroke-linecap="round" fill="none" d="
M 32.1 34.2
L 32.1 43.85"/>

<path id="icon_r_box_02_12_Layer2_6_MEMBER_4_MEMBER_2_1_STROKES" stroke="#000000" stroke-width="1" stroke-linejoin="round" stroke-linecap="round" fill="none" d="
M 37.1 34.2
L 37.1 43.85"/>

<path id="icon_r_box_02_12_Layer2_6_MEMBER_5_MEMBER_0_1_STROKES" stroke="#000000" stroke-width="1" stroke-linejoin="round" stroke-linecap="round" fill="none" d="
M 27.4 39
L 41.85 39"/>

<path id="icon_r_box_02_12_Layer2_7_1_STROKES" stroke="#000000" stroke-width="1" stroke-linejoin="round" stroke-linecap="round" fill="none" d="
M 80.45 43.85
L 4.95 43.85 4.95 10.75 80.45 10.75 80.45 43.85 Z"/>

<path id="icon_r_box_02_12_Layer2_8_1_STROKES" stroke="#000000" stroke-width="1" stroke-linejoin="round" stroke-linecap="round" fill="none" d="
M 80.45 8.1
L 4.95 8.1 4.95 10.75 80.45 10.75 80.45 8.1 Z"/>

<path id="icon_r_box_02_12_Layer2_9_MEMBER_0_MEMBER_0_1_STROKES" stroke="#000000" stroke-width="1" stroke-linejoin="round" stroke-linecap="round" fill="none" d="
M 78.3 2.7
L 7.05 2.7 11.7 8.1 73.7 8.1 78.3 2.7 Z"/>

<path id="icon_r_box_02_12_Layer2_9_MEMBER_0_MEMBER_1_1_STROKES" stroke="#000000" stroke-width="1" stroke-linejoin="round" stroke-linecap="round" fill="none" d="
M 78.3 2.7
L 7.05 2.7 11.7 0.5 73.7 0.5 78.3 2.7 Z"/>

<path id="icon_r_box_02_12_Layer2_9_MEMBER_0_MEMBER_2_MEMBER_0_1_STROKES" stroke="#000000" stroke-width="1" stroke-linejoin="round" stroke-linecap="round" fill="none" d="
M 9.65 5.75
L 75.7 5.75"/>

<path id="icon_r_box_02_12_Layer2_10_MEMBER_0_1_STROKES" stroke="#000000" stroke-width="1" stroke-linejoin="round" stroke-linecap="round" fill="none" d="
M 33.45 8.1
L 31 8.1 31 2.7 33.45 2.7 33.45 8.1 Z"/>

<path id="icon_r_box_02_12_Layer2_10_MEMBER_1_1_STROKES" stroke="#000000" stroke-width="1" stroke-linejoin="round" stroke-linecap="round" fill="none" d="
M 54.55 8.1
L 52.1 8.1 52.1 2.7 54.55 2.7 54.55 8.1 Z"/>
</defs>

<g transform="matrix( 1, 0, 0, 0.999603271484375, 65,60) ">
<g transform="matrix( 1, 0, 0, 1, 0,0) ">
<use xlink:href="#icon_r_box_02_12_Layer3_0_FILL"/>
</g>

<g transform="matrix( 1, 0, 0, 1, -0.05,0.05) ">
<use xlink:href="#icon_r_box_02_12_Layer3_1_FILL"/>
</g>

<g transform="matrix( 1, 0, 0, 1, 0,-2.15) ">
<use xlink:href="#icon_r_box_02_12_Layer3_2_FILL"/>
</g>

<g transform="matrix( 1, 0, 0, 1, 0,0.05) ">
<use xlink:href="#icon_r_box_02_12_Layer3_3_FILL"/>
</g>

<g transform="matrix( 1, 0, 0, 1, -42.7,-34.7) ">
<use xlink:href="#icon_r_box_02_12_Layer2_0_FILL"/>

<use xlink:href="#icon_r_box_02_12_Layer2_0_1_STROKES"/>
</g>

<g transform="matrix( 1, 0, 0, 1, -42.7,-34.7) ">
<use xlink:href="#icon_r_box_02_12_Layer2_1_FILL"/>
</g>

<g transform="matrix( 1, 0, 0, 1, -42.7,-34.7) ">
<use xlink:href="#icon_r_box_02_12_Layer2_2_FILL"/>
</g>

<g transform="matrix( 1, 0, 0, 1, -42.7,-34.7) ">
<use xlink:href="#icon_r_box_02_12_Layer2_3_FILL"/>
</g>

<g transform="matrix( 1, 0, 0, 1, -42.7,-34.7) ">
<use xlink:href="#icon_r_box_02_12_Layer2_4_MEMBER_0_1_STROKES"/>
</g>

<g transform="matrix( 1, 0, 0, 1, -42.7,-34.7) ">
<use xlink:href="#icon_r_box_02_12_Layer2_5_MEMBER_0_FILL"/>

<use xlink:href="#icon_r_box_02_12_Layer2_5_MEMBER_0_1_STROKES"/>
</g>

<g transform="matrix( 1, 0, 0, 1, -42.7,-34.7) ">
<use xlink:href="#icon_r_box_02_12_Layer2_5_MEMBER_1_FILL"/>

<use xlink:href="#icon_r_box_02_12_Layer2_5_MEMBER_1_1_STROKES"/>
</g>

<g transform="matrix( 1, 0, 0, 1, -42.7,-34.7) ">
<use xlink:href="#icon_r_box_02_12_Layer2_5_MEMBER_2_MEMBER_0_FILL"/>
</g>

<g transform="matrix( 1, 0, 0, 1, -42.7,-34.7) ">
<use xlink:href="#icon_r_box_02_12_Layer2_5_MEMBER_2_MEMBER_1_FILL"/>
</g>

<g transform="matrix( 1, 0, 0, 1, -42.7,-34.7) ">
<use xlink:href="#icon_r_box_02_12_Layer2_5_MEMBER_2_MEMBER_2_FILL"/>
</g>

<g transform="matrix( 1, 0, 0, 1, -42.7,-34.7) ">
<use xlink:href="#icon_r_box_02_12_Layer2_5_MEMBER_3_MEMBER_0_FILL"/>
</g>

<g transform="matrix( 1, 0, 0, 1, -42.7,-34.7) ">
<use xlink:href="#icon_r_box_02_12_Layer2_5_MEMBER_3_MEMBER_1_FILL"/>
</g>

<g transform="matrix( 1, 0, 0, 1, -42.7,-34.7) ">
<use xlink:href="#icon_r_box_02_12_Layer2_5_MEMBER_3_MEMBER_2_FILL"/>
</g>

<g transform="matrix( 1, 0, 0, 1, -42.7,-34.7) ">
<use xlink:href="#icon_r_box_02_12_Layer2_5_MEMBER_4_MEMBER_0_FILL"/>

<use xlink:href="#icon_r_box_02_12_Layer2_5_MEMBER_4_MEMBER_0_1_STROKES"/>
</g>

<g transform="matrix( 1, 0, 0, 1, -42.7,-34.7) ">
<use xlink:href="#icon_r_box_02_12_Layer2_5_MEMBER_4_MEMBER_1_1_STROKES"/>
</g>

<g transform="matrix( 1, 0, 0, 1, -42.7,-34.7) ">
<use xlink:href="#icon_r_box_02_12_Layer2_5_MEMBER_4_MEMBER_2_1_STROKES"/>
</g>

<g transform="matrix( 1, 0, 0, 1, -42.7,-34.7) ">
<use xlink:href="#icon_r_box_02_12_Layer2_5_MEMBER_5_MEMBER_0_1_STROKES"/>
</g>

<g transform="matrix( 1, 0, 0, 1, -42.7,-34.7) ">
<use xlink:href="#icon_r_box_02_12_Layer2_6_MEMBER_0_FILL"/>

<use xlink:href="#icon_r_box_02_12_Layer2_6_MEMBER_0_1_STROKES"/>
</g>

<g transform="matrix( 1, 0, 0, 1, -42.7,-34.7) ">
<use xlink:href="#icon_r_box_02_12_Layer2_6_MEMBER_1_FILL"/>

<use xlink:href="#icon_r_box_02_12_Layer2_6_MEMBER_1_1_STROKES"/>
</g>

<g transform="matrix( 1, 0, 0, 1, -42.7,-34.7) ">
<use xlink:href="#icon_r_box_02_12_Layer2_6_MEMBER_2_MEMBER_0_FILL"/>
</g>

<g transform="matrix( 1, 0, 0, 1, -42.7,-34.7) ">
<use xlink:href="#icon_r_box_02_12_Layer2_6_MEMBER_2_MEMBER_1_FILL"/>
</g>

<g transform="matrix( 1, 0, 0, 1, -42.7,-34.7) ">
<use xlink:href="#icon_r_box_02_12_Layer2_6_MEMBER_2_MEMBER_2_FILL"/>
</g>

<g transform="matrix( 1, 0, 0, 1, -42.7,-34.7) ">
<use xlink:href="#icon_r_box_02_12_Layer2_6_MEMBER_3_MEMBER_0_FILL"/>
</g>

<g transform="matrix( 1, 0, 0, 1, -42.7,-34.7) ">
<use xlink:href="#icon_r_box_02_12_Layer2_6_MEMBER_3_MEMBER_1_FILL"/>
</g>

<g transform="matrix( 1, 0, 0, 1, -42.7,-34.7) ">
<use xlink:href="#icon_r_box_02_12_Layer2_6_MEMBER_3_MEMBER_2_FILL"/>
</g>

<g transform="matrix( 1, 0, 0, 1, -42.7,-34.7) ">
<use xlink:href="#icon_r_box_02_12_Layer2_6_MEMBER_4_MEMBER_0_FILL"/>

<use xlink:href="#icon_r_box_02_12_Layer2_6_MEMBER_4_MEMBER_0_1_STROKES"/>
</g>

<g transform="matrix( 1, 0, 0, 1, -42.7,-34.7) ">
<use xlink:href="#icon_r_box_02_12_Layer2_6_MEMBER_4_MEMBER_1_1_STROKES"/>
</g>

<g transform="matrix( 1, 0, 0, 1, -42.7,-34.7) ">
<use xlink:href="#icon_r_box_02_12_Layer2_6_MEMBER_4_MEMBER_2_1_STROKES"/>
</g>

<g transform="matrix( 1, 0, 0, 1, -42.7,-34.7) ">
<use xlink:href="#icon_r_box_02_12_Layer2_6_MEMBER_5_MEMBER_0_1_STROKES"/>
</g>

<g transform="matrix( 1, 0, 0, 1, -42.7,-34.7) ">
<use xlink:href="#icon_r_box_02_12_Layer2_7_1_STROKES"/>
</g>

<g transform="matrix( 1, 0, 0, 1, -42.7,-34.7) ">
<use xlink:href="#icon_r_box_02_12_Layer2_8_FILL"/>

<use xlink:href="#icon_r_box_02_12_Layer2_8_1_STROKES"/>
</g>

<g transform="matrix( 1, 0, 0, 1, -42.7,-34.7) ">
<use xlink:href="#icon_r_box_02_12_Layer2_9_MEMBER_0_MEMBER_0_FILL"/>

<use xlink:href="#icon_r_box_02_12_Layer2_9_MEMBER_0_MEMBER_0_1_STROKES"/>
</g>

<g transform="matrix( 1, 0, 0, 1, -42.7,-34.7) ">
<use xlink:href="#icon_r_box_02_12_Layer2_9_MEMBER_0_MEMBER_1_FILL"/>

<use xlink:href="#icon_r_box_02_12_Layer2_9_MEMBER_0_MEMBER_1_1_STROKES"/>
</g>

<g transform="matrix( 1, 0, 0, 1, -42.7,-34.7) ">
<use xlink:href="#icon_r_box_02_12_Layer2_9_MEMBER_0_MEMBER_2_MEMBER_0_1_STROKES"/>
</g>

<g transform="matrix( 1, 0, 0, 1, -42.7,-34.7) ">
<use xlink:href="#icon_r_box_02_12_Layer2_10_MEMBER_0_FILL"/>

<use xlink:href="#icon_r_box_02_12_Layer2_10_MEMBER_0_1_STROKES"/>
</g>

<g transform="matrix( 1, 0, 0, 1, -42.7,-34.7) ">
<use xlink:href="#icon_r_box_02_12_Layer2_10_MEMBER_1_FILL"/>

<use xlink:href="#icon_r_box_02_12_Layer2_10_MEMBER_1_1_STROKES"/>
</g>

<g transform="matrix( 1, 0, 0, 1, 0,0) ">
<use xlink:href="#icon_r_box_02_12_Layer1_0_FILL"/>
</g>
</g>
</svg>
