
<svg xmlns="http://www.w3.org/2000/svg" version="1.1" xmlns:xlink="http://www.w3.org/1999/xlink" preserveAspectRatio="none" x="0px" y="0px" width="130px" height="115px" viewBox="0 0 130 115">
<defs>
<filter id="Filter_1" x="-30.17635856893348%" y="-20.742845154529153%" width="160.35271713786696%" height="141.4856903090583%" color-interpolation-filters="sRGB">
<feFlood flood-color="#000000" flood-opacity="1" in="SourceGraphic" result="result1"/>

<feGaussianBlur in="SourceGraphic" stdDeviation="1.6666666666666667,1.6666666666666667" result="result2"/>

<feComposite in2="result2" in="result1" operator="in" result="result3"/>

<feComposite in2="result3" in="SourceGraphic" operator="over" result="result4"/>
</filter>

<g id="icon_r_box_02_8_Layer3_0_FILL">
<path fill="#FFFFFF" fill-opacity="0" stroke="none" d="
M 65 -55
L -65 -55 -65 25 65 25 65 -55 Z"/>
</g>

<g id="icon_r_box_02_8_Layer3_1_FILL">
<path fill="#FFFFFF" fill-opacity="0" stroke="none" d="
M 65.05 49.95
L 65.05 24.95 -64.95 24.95 -64.95 49.95 65.05 49.95 Z"/>
</g>

<g id="icon_r_box_02_8_Layer3_2_FILL">
<path fill="#FFFFFF" fill-opacity="0" stroke="none" d="
M 65 -52.85
L 65 -57.85 -65 -57.85 -65 -52.85 65 -52.85 Z"/>
</g>

<g id="icon_r_box_02_8_Layer3_3_FILL">
<path fill="#FFFFFF" fill-opacity="0" stroke="none" d="
M 65 54.95
L 65 49.95 -65 49.95 -65 54.95 65 54.95 Z"/>
</g>

<g id="Duplicate_Items_Folder_dkdltmzmfla_0_Layer0_0_FILL">
<path fill="#7C372A" stroke="none" d="
M -38.55 31.15
Q -36.05 30.75 -34.7 30.3 -34.69375 30.281640625 -34.7 30.25 -33.25 26.959765625 -33.25 23.05 -33.25 15.6 -38.55 10.35 -43.8 5.05 -51.25 5.05 -58.7 5.05 -63.95 10.35 -69.25 15.6 -69.25 23.05 -69.25 26.959765625 -67.8 30.25 -67.80625 30.281640625 -67.8 30.3 -66.45 30.75 -63.95 31.15 -58.7 31.95 -51.25 31.95 -43.8 31.95 -38.55 31.15 Z"/>

<path fill="#FF94BE" stroke="none" d="
M -28.75 45.5
Q -28.75 36.671875 -34.7 30.3 -36.05 30.75 -38.55 31.15 -43.8 31.95 -51.25 31.95 -58.7 31.95 -63.95 31.15 -66.45 30.75 -67.8 30.3 -73.75 36.6720703125 -73.75 45.5 -73.75 54.8 -67.15 61.4 -60.55 68 -51.25 68 -41.95 68 -35.35 61.4 -28.75 54.8 -28.75 45.5 Z"/>
</g>

<g id="Duplicate_Items_Folder_dkdltmzmfla_0_Layer0_1_FILL">
<path fill="#FF9696" stroke="none" d="
M -37.15 65.55
L -37.1 65.4 -37.2 65.5 -37.15 65.55
M -66.95 65.55
L -66.85 65.5 -67.05 65.35 -66.95 65.55
M -58.65 59.05
L -53.65 55.15 -54.45 54.55 -64.4 54.55 -58.65 59.05
M -49.7 54.55
L -50.45 55.15 -45.45 59.05 -39.75 54.55 -49.7 54.55 Z"/>

<path fill="#FFDD5B" stroke="none" d="
M -35.25 61.4
L -34.05 58.85 -34.05 54.55 -36.5 54.55 -43.85 60.3 -38.85 64.25 -35.25 61.4
M -50.4 75.85
L -45.45 79.75 -42.8 77.6 -45.05 82.55 -45.45 82.25 -50.45 86.2 -47.75 88.3 -48.6 90.2 -52.05 87.5 -55.5 90.2 -56.4 88.3 -53.65 86.2 -58.65 82.25 -59.05 82.55 -61.3 77.65 -58.65 79.75 -53.65 75.85 -58.65 71.95 -62.6 75 -54.8 91.75 -54.75 91.75
Q -54.6 92.3 -54.05 92.75 -53.2 93.4 -52.05 93.4 -50.95 93.4 -50.15 92.75 -49.55 92.3 -49.35 91.75
L -49.3 91.75 -41.1 74.1 -41.55 75 -45.45 71.9 -50.4 75.85
M -66.1 67.45
L -63.45 73.15 -60.25 70.65 -65.25 66.8 -66.1 67.45
M -70.05 58.85
L -68.85 61.4 -65.25 64.25 -60.25 60.3 -67.6 54.55 -70.05 54.55 -70.05 58.85
M -43.8 70.65
L -40.7 73.15 -38.05 67.45 -38.85 66.8 -43.8 70.65
M -52.05 77.15
L -57 81 -52.05 84.95 -47.05 81 -52.05 77.15
M -50.45 65.5
L -45.45 69.4 -40.45 65.5 -45.45 61.55 -50.45 65.5
M -52.05 66.8
L -57 70.65 -52.05 74.6 -47.05 70.65 -52.05 66.8
M -58.65 69.4
L -53.65 65.5 -58.65 61.6 -63.65 65.5 -58.65 69.4
M -52.05 56.45
L -57 60.3 -52.05 64.25 -47.05 60.3 -52.05 56.45 Z"/>

<path fill="#FBCD44" stroke="none" d="
M -50.45 55.15
L -49.7 54.55 -54.45 54.55 -53.65 55.15 -58.65 59.05 -64.4 54.55 -67.6 54.55 -60.25 60.3 -65.25 64.25 -68.85 61.4 -67.05 65.3 -67.55 64.95 -67.05 65.35 -66.85 65.5 -66.95 65.55 -66.1 67.45 -65.25 66.8 -60.25 70.65 -63.45 73.15 -62.6 75 -58.65 71.95 -53.65 75.85 -58.65 79.75 -61.3 77.65 -59.05 82.55 -58.65 82.25 -53.65 86.2 -56.4 88.3 -55.5 90.2 -52.05 87.5 -48.6 90.2 -47.75 88.3 -50.45 86.2 -45.45 82.25 -45.05 82.55 -42.8 77.6 -45.45 79.75 -50.4 75.85 -45.45 71.9 -41.55 75 -41.1 74.1 -40.7 73.15 -43.8 70.65 -38.85 66.8 -38.05 67.45 -37.15 65.55 -37.2 65.5 -37.1 65.4 -35.25 61.4 -38.85 64.25 -43.85 60.3 -36.5 54.55 -39.75 54.55 -45.45 59.05 -50.45 55.15
M -57 60.3
L -52.05 56.45 -47.05 60.3 -52.05 64.25 -57 60.3
M -53.65 65.5
L -58.65 69.4 -63.65 65.5 -58.65 61.6 -53.65 65.5
M -57 70.65
L -52.05 66.8 -47.05 70.65 -52.05 74.6 -57 70.65
M -45.45 69.4
L -50.45 65.5 -45.45 61.55 -40.45 65.5 -45.45 69.4
M -57 81
L -52.05 77.15 -47.05 81 -52.05 84.95 -57 81 Z"/>
</g>

<g id="Duplicate_Items_Folder_dkdltmzmfla_0_Layer0_2_FILL">
<path fill="#FF94BE" stroke="none" d="
M -41.75 50.7
Q -41.9873046875 50.5064453125 -42.25 50.3 -44.2 48.8 -47 48.8 -49.75 48.8 -51.85 50.3 -52.0802734375 50.494921875 -52.3 50.7 -52.501953125 50.494921875 -52.75 50.3 -54.7 48.8 -57.5 48.8 -60.25 48.8 -62.35 50.3 -62.5802734375 50.494921875 -62.8 50.7 -63.001953125 50.494921875 -63.25 50.3 -65.2 48.8 -68 48.8 -70.75 48.8 -72.85 50.3 -74.8 51.95 -74.8 54 -74.8 56.1 -72.85 57.6 -70.75 59.25 -68 59.25 -65.2 59.25 -63.25 57.6 -63.001953125 57.4228515625 -62.8 57.2 -62.5802734375 57.4228515625 -62.35 57.6 -60.25 59.2 -57.5 59.2 -54.7 59.2 -52.75 57.6 -52.501953125 57.4228515625 -52.3 57.2 -52.0802734375 57.4228515625 -51.85 57.6 -49.75 59.2 -47 59.2 -44.2 59.2 -42.25 57.6 -41.9873046875 57.4123046875 -41.75 57.2 -41.5439453125 57.4123046875 -41.3 57.6 -39.2 59.2 -36.45 59.2 -33.65 59.2 -31.7 57.6 -29.6 56.1 -29.6 54 -29.6 51.95 -31.7 50.3 -33.65 48.8 -36.45 48.8 -39.2 48.8 -41.3 50.3 -41.5439453125 50.5064453125 -41.75 50.7 Z"/>
</g>

<g id="Duplicate_Items_Folder_dkdltmzmfla_0_Layer0_3_FILL">
<path fill="#7C372A" stroke="none" d="
M -44.05 30.05
Q -50.458984375 30.0134765625 -50.3 32.1 -49.9 37.6 -46.3 37.6 -44.5 37.6 -43.65 36.65 -42.8 35.75 -42.7 33.8 -38.5 34 -37.85 31.05 -37.9802734375 29.4173828125 -44.05 30.05 Z"/>
</g>

<g id="Duplicate_Items_Folder_dkdltmzmfla_0_Layer0_6_FILL">
<path fill="#FFEE9B" stroke="none" d="
M 42.35 33.9
Q 43.15 32.6 43.15 31.1 43.1 29.55 42.25 28.3 41.35 27 39.9 26.5
L 27.25 21.75 18.8 11.1
Q 17.8 9.9 16.35 9.45 14.85 8.95 13.4 9.45 11.9 9.85 10.95 11.1
L 2.45 21.75 -10.25 26.5
Q -11.7 27 -12.55 28.3 -13.45 29.55 -13.5 31.1 -13.5 32.6 -12.65 33.9
L -5.2 45.25 -4.6 58.8
Q -4.55 60.3 -3.6 61.55 -2.7 62.75 -1.2 63.3 0.25 63.8 1.75 63.4
L 14.85 59.8 27.95 63.4
Q 29.4 63.8 30.9 63.3 32.35 62.75 33.25 61.55 34.2 60.3 34.25 58.8
L 34.85 45.25 42.35 33.9 Z"/>
</g>

<g id="Duplicate_Items_Folder_dkdltmzmfla_0_Layer0_7_FILL">
<path fill="#FFEE9B" stroke="none" d="
M 42.35 33.9
Q 43.15 32.6 43.15 31.1 43.1 29.55 42.25 28.3 41.35 27 39.9 26.5
L 27.25 21.75 18.8 11.1
Q 17.8 9.9 16.35 9.45 14.85 8.95 13.4 9.45 11.9 9.85 10.95 11.1
L 2.45 21.75 -10.25 26.5
Q -11.7 27 -12.55 28.3 -13.45 29.55 -13.5 31.1 -13.5 32.6 -12.65 33.9
L -5.2 45.25 -4.6 58.8
Q -4.55 60.3 -3.6 61.55 -2.7 62.75 -1.2 63.3 0.25 63.8 1.75 63.4
L 14.85 59.8 27.95 63.4
Q 29.4 63.8 30.9 63.3 32.35 62.75 33.25 61.55 34.2 60.3 34.25 58.8
L 34.85 45.25 42.35 33.9 Z"/>
</g>

<g id="Duplicate_Items_Folder_dkdltmzmfla_0_Layer0_8_FILL">
<path fill="#FFEE9B" stroke="none" d="
M 42.35 33.9
Q 43.15 32.6 43.15 31.1 43.1 29.55 42.25 28.3 41.35 27 39.9 26.5
L 27.25 21.75 18.8 11.1
Q 17.8 9.9 16.35 9.45 14.85 8.95 13.4 9.45 11.9 9.85 10.95 11.1
L 2.45 21.75 -10.25 26.5
Q -11.7 27 -12.55 28.3 -13.45 29.55 -13.5 31.1 -13.5 32.6 -12.65 33.9
L -5.2 45.25 -4.6 58.8
Q -4.55 60.3 -3.6 61.55 -2.7 62.75 -1.2 63.3 0.25 63.8 1.75 63.4
L 14.85 59.8 27.95 63.4
Q 29.4 63.8 30.9 63.3 32.35 62.75 33.25 61.55 34.2 60.3 34.25 58.8
L 34.85 45.25 42.35 33.9 Z"/>
</g>

<g id="Duplicate_Items_Folder_dkdltmzmfla_0_Layer0_9_FILL">
<path fill="#FFEE9B" stroke="none" d="
M 42.35 33.9
Q 43.15 32.6 43.15 31.1 43.1 29.55 42.25 28.3 41.35 27 39.9 26.5
L 27.25 21.75 18.8 11.1
Q 17.8 9.9 16.35 9.45 14.85 8.95 13.4 9.45 11.9 9.85 10.95 11.1
L 2.45 21.75 -10.25 26.5
Q -11.7 27 -12.55 28.3 -13.45 29.55 -13.5 31.1 -13.5 32.6 -12.65 33.9
L -5.2 45.25 -4.6 58.8
Q -4.55 60.3 -3.6 61.55 -2.7 62.75 -1.2 63.3 0.25 63.8 1.75 63.4
L 14.85 59.8 27.95 63.4
Q 29.4 63.8 30.9 63.3 32.35 62.75 33.25 61.55 34.2 60.3 34.25 58.8
L 34.85 45.25 42.35 33.9 Z"/>
</g>

<g id="Duplicate_Items_Folder_dkdltmzmfla_0_Layer0_10_FILL">
<path fill="#FFEE9B" stroke="none" d="
M 42.35 33.9
Q 43.15 32.6 43.15 31.1 43.1 29.55 42.25 28.3 41.35 27 39.9 26.5
L 27.25 21.75 18.8 11.1
Q 17.8 9.9 16.35 9.45 14.85 8.95 13.4 9.45 11.9 9.85 10.95 11.1
L 2.45 21.75 -10.25 26.5
Q -11.7 27 -12.55 28.3 -13.45 29.55 -13.5 31.1 -13.5 32.6 -12.65 33.9
L -5.2 45.25 -4.6 58.8
Q -4.55 60.3 -3.6 61.55 -2.7 62.75 -1.2 63.3 0.25 63.8 1.75 63.4
L 14.85 59.8 27.95 63.4
Q 29.4 63.8 30.9 63.3 32.35 62.75 33.25 61.55 34.2 60.3 34.25 58.8
L 34.85 45.25 42.35 33.9 Z"/>
</g>

<g id="Duplicate_Items_Folder_dkdltmzmfla_0_Layer0_11_FILL">
<path fill="#FFEE9B" stroke="none" d="
M 42.35 33.9
Q 43.15 32.6 43.15 31.1 43.1 29.55 42.25 28.3 41.35 27 39.9 26.5
L 27.25 21.75 18.8 11.1
Q 17.8 9.9 16.35 9.45 14.85 8.95 13.4 9.45 11.9 9.85 10.95 11.1
L 2.45 21.75 -10.25 26.5
Q -11.7 27 -12.55 28.3 -13.45 29.55 -13.5 31.1 -13.5 32.6 -12.65 33.9
L -5.2 45.25 -4.6 58.8
Q -4.55 60.3 -3.6 61.55 -2.7 62.75 -1.2 63.3 0.25 63.8 1.75 63.4
L 14.85 59.8 27.95 63.4
Q 29.4 63.8 30.9 63.3 32.35 62.75 33.25 61.55 34.2 60.3 34.25 58.8
L 34.85 45.25 42.35 33.9 Z"/>
</g>

<path id="Duplicate_Items_Folder_dkdltmzmfla_0_Layer1_0_1_STROKES" stroke="#FFFFFF" stroke-width="8" stroke-linejoin="round" stroke-linecap="round" fill="none" d="
M 7.7 27.8
Q 6.15 24.1 6.15 19.8 6.15 11.6 11.95 5.85 17.75 0 25.95 0 34.1 0 39.9 5.85 45.75 11.6 45.75 19.8 45.75 24.1 44.15 27.8
L 44.2 27.8
Q 50.7 34.75 50.7 44.5 50.7 48.658984375 49.5 52.325 51.7 53.723046875 51.7 55.4 51.7 57.25 49.3 58.55 47.61328125 59.599609375 45.4 59.85
L 44.45 62 42.4 66.4 42.3 66.55 41.35 68.65 38.45 74.95 37.95 75.95 36.125 79.875 36.15 79.85 33.6 85.3 30.65 91.6 30.7 91.65 29.7 93.65 28.9 95.35 28.85 95.35
Q 28.65 95.95 28 96.45 27.1 97.2 25.9 97.2 24.65 97.2 23.7 96.45 23.1 95.95 22.95 95.35
L 22.85 95.35 18.2 85.3
Q 17.1146484375 82.949609375 16.025 80.6
L 15.7 79.9 15.725 79.925 6.45 59.925
Q 4.1193359375 59.679296875 2.25 58.55 0 57.25 0 55.4 0 53.65 2.25 52.2 2.2955078125 52.175390625 2.35 52.15 1.2 48.562109375 1.2 44.5 1.2 34.75 7.7 27.8 Z"/>

<path id="Duplicate_Items_Folder_dkdltmzmfla_0_Layer0_4_1_STROKES" stroke="#71EEE1" stroke-width="2" stroke-linejoin="round" stroke-linecap="round" fill="none" d="
M 18.063208007812506 8.47429962158203
L 19.988111877441405 6.274409484863281
M 33.57243347167969 9.46425018310547
L 35.99231262207031 11.004173278808594
M 24.057908630371088 17.21886291503906
L 26.8627685546875 16.33890686035156"/>

<path id="Duplicate_Items_Folder_dkdltmzmfla_0_Layer0_5_1_STROKES" stroke="#71EEE1" stroke-width="2" stroke-linejoin="round" stroke-linecap="round" fill="none" d="
M 43.05 33.85
L 44.4 36.4
M 19.45 42.8
L 17.3 44.7
M 7.65 39.25
L 6.5 36.6
M 25.15 33.95
L 27.95 34.5
M 38.6 46.4
L 41.4 45.55"/>
</defs>

<g transform="matrix( 1, 0, 0, 0.999603271484375, 65,60) ">
<g transform="matrix( 1, 0, 0, 1, 0,0) ">
<use xlink:href="#icon_r_box_02_8_Layer3_0_FILL"/>
</g>

<g transform="matrix( 1, 0, 0, 1, -0.05,0.05) ">
<use xlink:href="#icon_r_box_02_8_Layer3_1_FILL"/>
</g>

<g transform="matrix( 1, 0, 0, 1, 0,-2.15) ">
<use xlink:href="#icon_r_box_02_8_Layer3_2_FILL"/>
</g>

<g transform="matrix( 1, 0, 0, 1, 0,0.05) ">
<use xlink:href="#icon_r_box_02_8_Layer3_3_FILL"/>
</g>

<g filter="url(#Filter_1)" transform="matrix( 0.9999847412109375, 0, 0, 1.000396728515625, -65,-60) ">
<g transform="matrix( 0.75, 0, 0, 0.74969482421875, 44.6,4.55) ">
<g transform="matrix( 1, 0, 0, 1, 0,0) ">
<use xlink:href="#Duplicate_Items_Folder_dkdltmzmfla_0_Layer1_0_1_STROKES"/>
</g>

<g transform="matrix( 1.099945068359375, 0, 0, 1.099945068359375, 82.3,-5.55) ">
<use xlink:href="#Duplicate_Items_Folder_dkdltmzmfla_0_Layer0_0_FILL"/>
</g>

<g transform="matrix( 1.099945068359375, 0, 0, 1.099945068359375, 83.15,-5.55) ">
<use xlink:href="#Duplicate_Items_Folder_dkdltmzmfla_0_Layer0_1_FILL"/>
</g>

<g transform="matrix( 1.1436767578125, 0, 0, 0.873565673828125, 85.55,8.25) ">
<use xlink:href="#Duplicate_Items_Folder_dkdltmzmfla_0_Layer0_2_FILL"/>
</g>

<g transform="matrix( 1.080780029296875, 0.20440673828125, -0.20440673828125, 1.080780029296875, 71.7,4) ">
<use xlink:href="#Duplicate_Items_Folder_dkdltmzmfla_0_Layer0_3_FILL"/>
</g>

<g transform="matrix( 1.099945068359375, 0, 0, 1.099945068359375, 82.3,-5.55) ">
<use xlink:href="#Duplicate_Items_Folder_dkdltmzmfla_0_Layer0_4_1_STROKES" transform="matrix( 0.9091339111328125, 0, 0, 0.9091339111328125, -74.8,5) "/>
</g>

<g transform="matrix( 1, 0, 0, 1, 0,0) ">
<use xlink:href="#Duplicate_Items_Folder_dkdltmzmfla_0_Layer0_5_1_STROKES"/>
</g>

<g transform="matrix( 0.0743865966796875, 0, 0, 0.0743865966796875, 27.35,1.75) ">
<use xlink:href="#Duplicate_Items_Folder_dkdltmzmfla_0_Layer0_6_FILL"/>
</g>

<g transform="matrix( 0.0743865966796875, 0, 0, 0.0743865966796875, 12.25,15.5) ">
<use xlink:href="#Duplicate_Items_Folder_dkdltmzmfla_0_Layer0_7_FILL"/>
</g>

<g transform="matrix( 0.0743865966796875, 0, 0, 0.0743865966796875, 37.55,17.7) ">
<use xlink:href="#Duplicate_Items_Folder_dkdltmzmfla_0_Layer0_8_FILL"/>
</g>

<g transform="matrix( 0.0743865966796875, 0, 0, 0.0743865966796875, 35.9,36.55) ">
<use xlink:href="#Duplicate_Items_Folder_dkdltmzmfla_0_Layer0_9_FILL"/>
</g>

<g transform="matrix( 0.0743865966796875, 0, 0, 0.0743865966796875, 26.45,46.15) ">
<use xlink:href="#Duplicate_Items_Folder_dkdltmzmfla_0_Layer0_10_FILL"/>
</g>

<g transform="matrix( 0.0743865966796875, 0, 0, 0.0743865966796875, 7.1,43.45) ">
<use xlink:href="#Duplicate_Items_Folder_dkdltmzmfla_0_Layer0_11_FILL"/>
</g>
</g>
</g>
</g>
</svg>
