
<svg xmlns="http://www.w3.org/2000/svg" version="1.1" xmlns:xlink="http://www.w3.org/1999/xlink" preserveAspectRatio="none" x="0px" y="0px" width="130px" height="115px" viewBox="0 0 130 115">
<defs>
<filter id="Filter_1" x="-23.904843916067833%" y="-23.91036255355551%" width="147.80968783213567%" height="147.82072510711103%" color-interpolation-filters="sRGB">
<feFlood flood-color="#000000" flood-opacity="1" in="SourceGraphic" result="result1"/>

<feGaussianBlur in="SourceGraphic" stdDeviation="1.6666666666666667,1.6666666666666667" result="result2"/>

<feComposite in2="result2" in="result1" operator="in" result="result3"/>

<feComposite in2="result3" in="SourceGraphic" operator="over" result="result4"/>
</filter>

<g id="icon_r_box_02_25_Layer3_0_FILL">
<path fill="#FFFFFF" fill-opacity="0" stroke="none" d="
M 65 -55
L -65 -55 -65 25 65 25 65 -55 Z"/>
</g>

<g id="icon_r_box_02_25_Layer3_1_FILL">
<path fill="#FFFFFF" fill-opacity="0" stroke="none" d="
M 65.05 49.95
L 65.05 24.95 -64.95 24.95 -64.95 49.95 65.05 49.95 Z"/>
</g>

<g id="icon_r_box_02_25_Layer3_2_FILL">
<path fill="#FFFFFF" fill-opacity="0" stroke="none" d="
M 65 -52.85
L 65 -57.85 -65 -57.85 -65 -52.85 65 -52.85 Z"/>
</g>

<g id="icon_r_box_02_25_Layer3_3_FILL">
<path fill="#FFFFFF" fill-opacity="0" stroke="none" d="
M 65 54.95
L 65 49.95 -65 49.95 -65 54.95 65 54.95 Z"/>
</g>

<g id="Duplicate_Items_Folder____0_Layer1_0_FILL">
<path fill="#FFFFFF" stroke="none" d="
M -29.65 -13.7
Q -29.65 -18.05 -34 -18.05
L -79.4 -18.05
Q -83.75 -18.05 -83.75 -13.7
L -83.75 31.7
Q -83.75 36.05 -79.4 36.05
L -34 36.05
Q -29.65 36.05 -29.65 31.7
L -29.65 -13.7 Z"/>
</g>

<g id="Duplicate_Items_Folder____0_Layer0_0_MEMBER_1_FILL">
<path fill="#000000" stroke="none" d="
M -7.7 -20.5
L -29.05 -20.5 -29.05 0.85 -7.7 0.85 -7.7 -20.5 Z"/>
</g>

<g id="Duplicate_Items_Folder____0_Layer0_0_MEMBER_3_FILL">
<path fill="#000000" stroke="none" d="
M -7.7 -20.5
L -29.05 -20.5 -29.05 0.85 -7.7 0.85 -7.7 -20.5 Z"/>
</g>

<g id="Duplicate_Items_Folder____0_Layer0_0_MEMBER_5_FILL">
<path fill="#000000" stroke="none" d="
M -119.7 18.8
L -119.7 25.8 -112.7 25.8 -112.7 18.8 -119.7 18.8 Z"/>
</g>

<g id="Duplicate_Items_Folder____0_Layer0_0_MEMBER_6_FILL">
<path fill="#000000" stroke="none" d="
M -6.35 -16.15
L -6.35 -12.25 -2.45 -12.25 -2.45 -16.15 -6.35 -16.15 Z"/>
</g>

<g id="Duplicate_Items_Folder____0_Layer0_0_MEMBER_7_FILL">
<path fill="#000000" stroke="none" d="
M -6.35 -16.15
L -6.35 -12.25 -2.45 -12.25 -2.45 -16.15 -6.35 -16.15 Z"/>
</g>

<g id="Duplicate_Items_Folder____0_Layer0_0_MEMBER_8_FILL">
<path fill="#000000" stroke="none" d="
M -6.35 -16.15
L -6.35 -12.25 -2.45 -12.25 -2.45 -16.15 -6.35 -16.15 Z"/>
</g>

<g id="Duplicate_Items_Folder____0_Layer0_0_MEMBER_9_FILL">
<path fill="#000000" stroke="none" d="
M -6.35 -16.15
L -6.35 -12.25 -2.45 -12.25 -2.45 -16.15 -6.35 -16.15 Z"/>
</g>

<g id="Duplicate_Items_Folder____0_Layer0_0_MEMBER_10_FILL">
<path fill="#000000" stroke="none" d="
M -6.35 -16.15
L -6.35 -12.25 -2.45 -12.25 -2.45 -16.15 -6.35 -16.15 Z"/>
</g>

<g id="Duplicate_Items_Folder____0_Layer0_0_MEMBER_11_FILL">
<path fill="#000000" stroke="none" d="
M -6.35 -16.15
L -6.35 -12.25 -2.45 -12.25 -2.45 -16.15 -6.35 -16.15 Z"/>
</g>

<g id="Duplicate_Items_Folder____0_Layer0_0_MEMBER_12_FILL">
<path fill="#000000" stroke="none" d="
M -6.35 -16.15
L -6.35 -12.25 -2.45 -12.25 -2.45 -16.15 -6.35 -16.15 Z"/>
</g>

<g id="Duplicate_Items_Folder____0_Layer0_0_MEMBER_13_FILL">
<path fill="#000000" stroke="none" d="
M -6.35 -16.15
L -6.35 -12.25 -2.45 -12.25 -2.45 -16.15 -6.35 -16.15 Z"/>
</g>

<g id="Duplicate_Items_Folder____0_Layer0_0_MEMBER_14_FILL">
<path fill="#000000" stroke="none" d="
M -6.35 -16.15
L -6.35 -12.25 -2.45 -12.25 -2.45 -16.15 -6.35 -16.15 Z"/>
</g>

<g id="Duplicate_Items_Folder____0_Layer0_0_MEMBER_15_FILL">
<path fill="#000000" stroke="none" d="
M -6.35 -16.15
L -6.35 -12.25 -2.45 -12.25 -2.45 -16.15 -6.35 -16.15 Z"/>
</g>

<g id="Duplicate_Items_Folder____0_Layer0_0_MEMBER_16_FILL">
<path fill="#000000" stroke="none" d="
M -6.35 -16.15
L -6.35 -12.25 -2.45 -12.25 -2.45 -16.15 -6.35 -16.15 Z"/>
</g>

<g id="Duplicate_Items_Folder____0_Layer0_0_MEMBER_17_FILL">
<path fill="#000000" stroke="none" d="
M -6.35 -16.15
L -6.35 -12.25 -2.45 -12.25 -2.45 -16.15 -6.35 -16.15 Z"/>
</g>

<g id="Duplicate_Items_Folder____0_Layer0_0_MEMBER_18_FILL">
<path fill="#000000" stroke="none" d="
M -6.35 -16.15
L -6.35 -12.25 -2.45 -12.25 -2.45 -16.15 -6.35 -16.15 Z"/>
</g>

<g id="Duplicate_Items_Folder____0_Layer0_0_MEMBER_19_FILL">
<path fill="#000000" stroke="none" d="
M -6.35 -16.15
L -6.35 -12.25 -2.45 -12.25 -2.45 -16.15 -6.35 -16.15 Z"/>
</g>

<g id="Duplicate_Items_Folder____0_Layer0_0_MEMBER_20_FILL">
<path fill="#000000" stroke="none" d="
M -6.35 -16.15
L -6.35 -12.25 -2.45 -12.25 -2.45 -16.15 -6.35 -16.15 Z"/>
</g>

<g id="Duplicate_Items_Folder____0_Layer0_0_MEMBER_21_FILL">
<path fill="#000000" stroke="none" d="
M -6.35 -16.15
L -6.35 -12.25 -2.45 -12.25 -2.45 -16.15 -6.35 -16.15 Z"/>
</g>

<g id="Duplicate_Items_Folder____0_Layer0_0_MEMBER_22_FILL">
<path fill="#000000" stroke="none" d="
M -6.35 -16.15
L -6.35 -12.25 -2.45 -12.25 -2.45 -16.15 -6.35 -16.15 Z"/>
</g>

<g id="Duplicate_Items_Folder____0_Layer0_0_MEMBER_23_FILL">
<path fill="#000000" stroke="none" d="
M -6.35 -16.15
L -6.35 -12.25 -2.45 -12.25 -2.45 -16.15 -6.35 -16.15 Z"/>
</g>

<g id="Duplicate_Items_Folder____0_Layer0_0_MEMBER_24_FILL">
<path fill="#000000" stroke="none" d="
M -6.35 -16.15
L -6.35 -12.25 -2.45 -12.25 -2.45 -16.15 -6.35 -16.15 Z"/>
</g>

<g id="Duplicate_Items_Folder____0_Layer0_0_MEMBER_25_FILL">
<path fill="#000000" stroke="none" d="
M 14.9 -5.45
L 14.9 -0.05 21.5 -0.05 21.5 -5.45 14.9 -5.45 Z"/>
</g>

<g id="Duplicate_Items_Folder____0_Layer0_0_MEMBER_26_FILL">
<path fill="#000000" stroke="none" d="
M -6.35 -16.15
L -6.35 -12.25 -2.45 -12.25 -2.45 -16.15 -6.35 -16.15 Z"/>
</g>

<g id="Duplicate_Items_Folder____0_Layer0_0_MEMBER_27_FILL">
<path fill="#000000" stroke="none" d="
M -6.35 -16.15
L -6.35 -12.25 -2.45 -12.25 -2.45 -16.15 -6.35 -16.15 Z"/>
</g>

<g id="Duplicate_Items_Folder____0_Layer0_0_MEMBER_28_FILL">
<path fill="#000000" stroke="none" d="
M -6.35 -16.15
L -6.35 -12.25 -2.45 -12.25 -2.45 -16.15 -6.35 -16.15 Z"/>
</g>

<g id="Duplicate_Items_Folder____0_Layer0_0_MEMBER_29_FILL">
<path fill="#000000" stroke="none" d="
M -6.35 -16.15
L -6.35 -12.25 -2.45 -12.25 -2.45 -16.15 -6.35 -16.15 Z"/>
</g>

<g id="Duplicate_Items_Folder____0_Layer0_0_MEMBER_30_FILL">
<path fill="#000000" stroke="none" d="
M 5.45 5.35
L 0.05 5.35 0.05 12.35 5.45 12.35 5.45 5.35 Z"/>
</g>

<g id="Duplicate_Items_Folder____0_Layer0_0_MEMBER_31_FILL">
<path fill="#000000" stroke="none" d="
M 31.85 -1.6
L 26.45 -1.6 26.45 5.3 31.85 5.3 31.85 -1.6 Z"/>
</g>

<g id="Duplicate_Items_Folder____0_Layer0_0_MEMBER_32_FILL">
<path fill="#000000" stroke="none" d="
M -6.35 -16.15
L -6.35 -12.25 -2.45 -12.25 -2.45 -16.15 -6.35 -16.15 Z"/>
</g>

<g id="Duplicate_Items_Folder____0_Layer0_0_MEMBER_33_FILL">
<path fill="#000000" stroke="none" d="
M 14.65 5.3
L 12 5.3 12 8.7 14.65 8.7 14.65 5.3 Z"/>
</g>

<g id="Duplicate_Items_Folder____0_Layer0_0_MEMBER_34_FILL">
<path fill="#000000" stroke="none" d="
M -6.35 -16.15
L -6.35 -12.25 -2.45 -12.25 -2.45 -16.15 -6.35 -16.15 Z"/>
</g>

<g id="Duplicate_Items_Folder____0_Layer0_0_MEMBER_35_FILL">
<path fill="#000000" stroke="none" d="
M -6.35 -16.15
L -6.35 -12.25 -2.45 -12.25 -2.45 -16.15 -6.35 -16.15 Z"/>
</g>

<g id="Duplicate_Items_Folder____0_Layer0_0_MEMBER_36_FILL">
<path fill="#000000" stroke="none" d="
M -6.35 -16.15
L -6.35 -12.25 -2.45 -12.25 -2.45 -16.15 -6.35 -16.15 Z"/>
</g>

<g id="Duplicate_Items_Folder____0_Layer0_0_MEMBER_37_FILL">
<path fill="#000000" stroke="none" d="
M -102.9 -17.3
L -102.9 -21.75 -105.1 -21.75 -105.1 -17.3 -102.9 -17.3 Z"/>
</g>

<g id="Duplicate_Items_Folder____0_Layer0_0_MEMBER_38_FILL">
<path fill="#000000" stroke="none" d="
M -6.35 -16.15
L -6.35 -12.25 -2.45 -12.25 -2.45 -16.15 -6.35 -16.15 Z"/>
</g>

<g id="Duplicate_Items_Folder____0_Layer0_0_MEMBER_39_FILL">
<path fill="#000000" stroke="none" d="
M -6.35 -16.15
L -6.35 -12.25 -2.45 -12.25 -2.45 -16.15 -6.35 -16.15 Z"/>
</g>

<g id="Duplicate_Items_Folder____0_Layer0_0_MEMBER_40_FILL">
<path fill="#000000" stroke="none" d="
M -6.35 -16.15
L -6.35 -12.25 -2.45 -12.25 -2.45 -16.15 -6.35 -16.15 Z"/>
</g>

<g id="Duplicate_Items_Folder____0_Layer0_0_MEMBER_41_FILL">
<path fill="#000000" stroke="none" d="
M -6.35 -16.15
L -6.35 -12.25 -2.45 -12.25 -2.45 -16.15 -6.35 -16.15 Z"/>
</g>

<g id="Duplicate_Items_Folder____0_Layer0_0_MEMBER_42_FILL">
<path fill="#000000" stroke="none" d="
M -6.35 -16.15
L -6.35 -12.25 -2.45 -12.25 -2.45 -16.15 -6.35 -16.15 Z"/>
</g>

<g id="Duplicate_Items_Folder____0_Layer0_0_MEMBER_43_FILL">
<path fill="#000000" stroke="none" d="
M -6.35 -16.15
L -6.35 -12.25 -2.45 -12.25 -2.45 -16.15 -6.35 -16.15 Z"/>
</g>

<g id="Duplicate_Items_Folder____0_Layer0_0_MEMBER_44_FILL">
<path fill="#000000" stroke="none" d="
M -6.35 -16.15
L -6.35 -12.25 -2.45 -12.25 -2.45 -16.15 -6.35 -16.15 Z"/>
</g>

<g id="Duplicate_Items_Folder____0_Layer0_0_MEMBER_45_FILL">
<path fill="#000000" stroke="none" d="
M -6.35 -16.15
L -6.35 -12.25 -2.45 -12.25 -2.45 -16.15 -6.35 -16.15 Z"/>
</g>

<g id="Duplicate_Items_Folder____0_Layer0_0_MEMBER_46_FILL">
<path fill="#000000" stroke="none" d="
M -6.35 -16.15
L -6.35 -12.25 -2.45 -12.25 -2.45 -16.15 -6.35 -16.15 Z"/>
</g>

<g id="Duplicate_Items_Folder____0_Layer0_0_MEMBER_47_FILL">
<path fill="#000000" stroke="none" d="
M -6.35 -16.15
L -6.35 -12.25 -2.45 -12.25 -2.45 -16.15 -6.35 -16.15 Z"/>
</g>

<g id="Duplicate_Items_Folder____0_Layer0_0_MEMBER_48_FILL">
<path fill="#000000" stroke="none" d="
M -6.35 -16.15
L -6.35 -12.25 -2.45 -12.25 -2.45 -16.15 -6.35 -16.15 Z"/>
</g>

<g id="Duplicate_Items_Folder____0_Layer0_0_MEMBER_49_FILL">
<path fill="#000000" stroke="none" d="
M -6.35 -16.15
L -6.35 -12.25 -2.45 -12.25 -2.45 -16.15 -6.35 -16.15 Z"/>
</g>

<g id="Duplicate_Items_Folder____0_Layer0_0_MEMBER_50_FILL">
<path fill="#000000" stroke="none" d="
M -6.35 -16.15
L -6.35 -12.25 -2.45 -12.25 -2.45 -16.15 -6.35 -16.15 Z"/>
</g>

<g id="Duplicate_Items_Folder____0_Layer0_0_MEMBER_51_FILL">
<path fill="#000000" stroke="none" d="
M -6.35 -16.15
L -6.35 -12.25 -2.45 -12.25 -2.45 -16.15 -6.35 -16.15 Z"/>
</g>

<g id="Duplicate_Items_Folder____0_Layer0_0_MEMBER_52_FILL">
<path fill="#000000" stroke="none" d="
M -6.35 -16.15
L -6.35 -12.25 -2.45 -12.25 -2.45 -16.15 -6.35 -16.15 Z"/>
</g>

<g id="Duplicate_Items_Folder____0_Layer0_0_MEMBER_53_FILL">
<path fill="#000000" stroke="none" d="
M -6.35 -16.15
L -6.35 -12.25 -2.45 -12.25 -2.45 -16.15 -6.35 -16.15 Z"/>
</g>

<g id="Duplicate_Items_Folder____0_Layer0_0_MEMBER_54_FILL">
<path fill="#000000" stroke="none" d="
M -6.35 -16.15
L -6.35 -12.25 -2.45 -12.25 -2.45 -16.15 -6.35 -16.15 Z"/>
</g>

<g id="Duplicate_Items_Folder____0_Layer0_0_MEMBER_55_FILL">
<path fill="#000000" stroke="none" d="
M -6.35 -16.15
L -6.35 -12.25 -2.45 -12.25 -2.45 -16.15 -6.35 -16.15 Z"/>
</g>

<g id="Duplicate_Items_Folder____0_Layer0_0_MEMBER_56_FILL">
<path fill="#000000" stroke="none" d="
M -102.9 22.45
L -102.9 18 -105.1 18 -105.1 22.45 -102.9 22.45 Z"/>
</g>

<g id="Duplicate_Items_Folder____0_Layer0_0_MEMBER_57_FILL">
<path fill="#000000" stroke="none" d="
M -6.35 -16.15
L -6.35 -12.25 -2.45 -12.25 -2.45 -16.15 -6.35 -16.15 Z"/>
</g>

<g id="Duplicate_Items_Folder____0_Layer0_0_MEMBER_58_FILL">
<path fill="#000000" stroke="none" d="
M -6.35 -16.15
L -6.35 -12.25 -2.45 -12.25 -2.45 -16.15 -6.35 -16.15 Z"/>
</g>

<g id="Duplicate_Items_Folder____0_Layer0_0_MEMBER_59_FILL">
<path fill="#000000" stroke="none" d="
M -6.35 -16.15
L -6.35 -12.25 -2.45 -12.25 -2.45 -16.15 -6.35 -16.15 Z"/>
</g>

<g id="Duplicate_Items_Folder____0_Layer0_0_MEMBER_60_FILL">
<path fill="#000000" stroke="none" d="
M -6.35 -16.15
L -6.35 -12.25 -2.45 -12.25 -2.45 -16.15 -6.35 -16.15 Z"/>
</g>

<g id="Duplicate_Items_Folder____0_Layer0_0_MEMBER_61_FILL">
<path fill="#000000" stroke="none" d="
M -6.35 -16.15
L -6.35 -12.25 -2.45 -12.25 -2.45 -16.15 -6.35 -16.15 Z"/>
</g>

<g id="Duplicate_Items_Folder____0_Layer0_0_MEMBER_62_FILL">
<path fill="#000000" stroke="none" d="
M -6.35 -16.15
L -6.35 -12.25 -2.45 -12.25 -2.45 -16.15 -6.35 -16.15 Z"/>
</g>

<g id="Duplicate_Items_Folder____0_Layer0_0_MEMBER_63_FILL">
<path fill="#000000" stroke="none" d="
M -6.35 -16.15
L -6.35 -12.25 -2.45 -12.25 -2.45 -16.15 -6.35 -16.15 Z"/>
</g>

<path id="Duplicate_Items_Folder____0_Layer0_0_MEMBER_0_1_STROKES" stroke="#000000" stroke-width="2.5" stroke-linejoin="miter" stroke-linecap="square" stroke-miterlimit="3" fill="none" d="
M -30.5111572265625 -30.3833251953125
L -12.361730957031249 -30.3833251953125 -12.361730957031249 -12.23389892578125 -30.5111572265625 -12.23389892578125 -30.5111572265625 -30.3833251953125 Z"/>

<path id="Duplicate_Items_Folder____0_Layer0_0_MEMBER_2_1_STROKES" stroke="#000000" stroke-width="2.5" stroke-linejoin="miter" stroke-linecap="square" stroke-miterlimit="3" fill="none" d="
M 12.238842773437504 -30.3833251953125
L 30.38826904296875 -30.3833251953125 30.38826904296875 -12.23389892578125 12.238842773437504 -12.23389892578125 12.238842773437504 -30.3833251953125 Z"/>

<path id="Duplicate_Items_Folder____0_Layer0_0_MEMBER_4_1_STROKES" stroke="#000000" stroke-width="2.5" stroke-linejoin="miter" stroke-linecap="square" stroke-miterlimit="3" fill="none" d="
M -30.5111572265625 12.216674804687496
L -12.361730957031249 12.216674804687496 -12.361730957031249 30.366101074218747 -30.5111572265625 30.366101074218747 -30.5111572265625 12.216674804687496 Z"/>
</defs>

<g transform="matrix( 1, 0, 0, 0.999603271484375, 65,60) ">
<g transform="matrix( 1, 0, 0, 1, 0,0) ">
<use xlink:href="#icon_r_box_02_25_Layer3_0_FILL"/>
</g>

<g transform="matrix( 1, 0, 0, 1, -0.05,0.05) ">
<use xlink:href="#icon_r_box_02_25_Layer3_1_FILL"/>
</g>

<g transform="matrix( 1, 0, 0, 1, 0,-2.15) ">
<use xlink:href="#icon_r_box_02_25_Layer3_2_FILL"/>
</g>

<g transform="matrix( 1, 0, 0, 1, 0,0.05) ">
<use xlink:href="#icon_r_box_02_25_Layer3_3_FILL"/>
</g>

<g filter="url(#Filter_1)" transform="matrix( 0.9999847412109375, 0, 0, 1.000396728515625, -65,-60) ">
<g transform="matrix( 0.7499847412109375, 0, 0, 0.7496795654296875, 64.95,40.8) ">
<g transform="matrix( 1.3866424560546875, 0, 0, 1.3866424560546875, 78.55,-12.4) ">
<use xlink:href="#Duplicate_Items_Folder____0_Layer1_0_FILL"/>
</g>

<g transform="matrix( 1.182373046875, 0, 0, 1.182373046875, 2.95,-7.8) ">
<use xlink:href="#Duplicate_Items_Folder____0_Layer0_0_MEMBER_0_1_STROKES" transform="matrix( 0.8457489013671875, 0, 0, 0.8457489013671875, -2.45,6.55) "/>
</g>

<g transform="matrix( 0.397552490234375, 0, 0, 0.394866943359375, -14.1,-17.4) ">
<use xlink:href="#Duplicate_Items_Folder____0_Layer0_0_MEMBER_1_FILL"/>
</g>

<g transform="matrix( 1.182373046875, 0, 0, 1.182373046875, 45.7,-7.8) ">
<use xlink:href="#Duplicate_Items_Folder____0_Layer0_0_MEMBER_2_1_STROKES" transform="matrix( 0.8457489013671875, 0, 0, 0.8457489013671875, -38.65,6.55) "/>
</g>

<g transform="matrix( 0.39752197265625, 0, 0, 0.394866943359375, 28.65,-17.4) ">
<use xlink:href="#Duplicate_Items_Folder____0_Layer0_0_MEMBER_3_FILL"/>
</g>

<g transform="matrix( 1.182373046875, 0, 0, 1.182373046875, 2.95,34.8) ">
<use xlink:href="#Duplicate_Items_Folder____0_Layer0_0_MEMBER_4_1_STROKES" transform="matrix( 0.8457489013671875, 0, 0, 0.8457489013671875, -2.45,-29.4) "/>
</g>

<g transform="matrix( 1.2099609375, 0, 0, 1.2099609375, 119.05,-5.6) ">
<use xlink:href="#Duplicate_Items_Folder____0_Layer0_0_MEMBER_5_FILL"/>
</g>

<g transform="matrix( 1.369873046875, 0, 0, 1.3804931640625, 8.65,-9.55) ">
<use xlink:href="#Duplicate_Items_Folder____0_Layer0_0_MEMBER_6_FILL"/>
</g>

<g transform="matrix( 0, 1.369873046875, -1.3804931640625, 0, -48.8,3.25) ">
<use xlink:href="#Duplicate_Items_Folder____0_Layer0_0_MEMBER_7_FILL"/>
</g>

<g transform="matrix( 0, 1.369873046875, -1.3804931640625, 0, 9.55,3.25) ">
<use xlink:href="#Duplicate_Items_Folder____0_Layer0_0_MEMBER_8_FILL"/>
</g>

<g transform="matrix( 1.369873046875, 0, 0, 1.3804931640625, 8.65,48.8) ">
<use xlink:href="#Duplicate_Items_Folder____0_Layer0_0_MEMBER_9_FILL"/>
</g>

<g transform="matrix( 1.369873046875, 0, 0, 1.3804931640625, 3.25,-4.15) ">
<use xlink:href="#Duplicate_Items_Folder____0_Layer0_0_MEMBER_10_FILL"/>
</g>

<g transform="matrix( 1.369873046875, 0, 0, 1.3804931640625, 3.25,1.05) ">
<use xlink:href="#Duplicate_Items_Folder____0_Layer0_0_MEMBER_11_FILL"/>
</g>

<g transform="matrix( 1.369873046875, 0, 0, 1.3804931640625, 8.65,1.05) ">
<use xlink:href="#Duplicate_Items_Folder____0_Layer0_0_MEMBER_12_FILL"/>
</g>

<g transform="matrix( 1.369873046875, 0, 0, 1.3804931640625, 14.05,11.5) ">
<use xlink:href="#Duplicate_Items_Folder____0_Layer0_0_MEMBER_13_FILL"/>
</g>

<g transform="matrix( 1.369873046875, 0, 0, 1.3804931640625, 8.65,6.15) ">
<use xlink:href="#Duplicate_Items_Folder____0_Layer0_0_MEMBER_14_FILL"/>
</g>

<g transform="matrix( 1.369873046875, 0, 0, 1.3804931640625, 3.25,11.5) ">
<use xlink:href="#Duplicate_Items_Folder____0_Layer0_0_MEMBER_15_FILL"/>
</g>

<g transform="matrix( 1.369873046875, 0, 0, 1.3804931640625, -2,16.85) ">
<use xlink:href="#Duplicate_Items_Folder____0_Layer0_0_MEMBER_16_FILL"/>
</g>

<g transform="matrix( 0, 1.369873046875, -1.3804931640625, 0, -33.05,8.65) ">
<use xlink:href="#Duplicate_Items_Folder____0_Layer0_0_MEMBER_17_FILL"/>
</g>

<g transform="matrix( 0, 1.369873046875, -1.3804931640625, 0, -27.65,14.05) ">
<use xlink:href="#Duplicate_Items_Folder____0_Layer0_0_MEMBER_18_FILL"/>
</g>

<g transform="matrix( 0, 1.369873046875, -1.3804931640625, 0, -22.25,19.45) ">
<use xlink:href="#Duplicate_Items_Folder____0_Layer0_0_MEMBER_19_FILL"/>
</g>

<g transform="matrix( 0, 1.369873046875, -1.3804931640625, 0, -22.25,30.15) ">
<use xlink:href="#Duplicate_Items_Folder____0_Layer0_0_MEMBER_20_FILL"/>
</g>

<g transform="matrix( 0, 1.369873046875, -1.3804931640625, 0, -16.85,19.45) ">
<use xlink:href="#Duplicate_Items_Folder____0_Layer0_0_MEMBER_21_FILL"/>
</g>

<g transform="matrix( 0, 0.6772308349609375, -0.6824798583984375, 0, -5.6,22.8) ">
<use xlink:href="#Duplicate_Items_Folder____0_Layer0_0_MEMBER_22_FILL"/>
</g>

<g transform="matrix( 0, 1.369873046875, -1.3804931640625, 0, -38.05,3.25) ">
<use xlink:href="#Duplicate_Items_Folder____0_Layer0_0_MEMBER_23_FILL"/>
</g>

<g transform="matrix( 1.369873046875, 0, 0, 1.3804931640625, 19.45,16.85) ">
<use xlink:href="#Duplicate_Items_Folder____0_Layer0_0_MEMBER_24_FILL"/>
</g>

<g transform="matrix( 1, 0, 0, 1, 0,0) ">
<use xlink:href="#Duplicate_Items_Folder____0_Layer0_0_MEMBER_25_FILL"/>
</g>

<g transform="matrix( 1.369873046875, 0, 0, 1.3804931640625, 24.85,22.25) ">
<use xlink:href="#Duplicate_Items_Folder____0_Layer0_0_MEMBER_26_FILL"/>
</g>

<g transform="matrix( 0, 0.6772308349609375, -0.6824798583984375, 0, -6.9,-0.2) ">
<use xlink:href="#Duplicate_Items_Folder____0_Layer0_0_MEMBER_27_FILL"/>
</g>

<g transform="matrix( 0, 1.369873046875, -1.3804931640625, 0, -11.5,8.65) ">
<use xlink:href="#Duplicate_Items_Folder____0_Layer0_0_MEMBER_28_FILL"/>
</g>

<g transform="matrix( 0, 1.369873046875, -1.3804931640625, 0, -22.25,8.65) ">
<use xlink:href="#Duplicate_Items_Folder____0_Layer0_0_MEMBER_29_FILL"/>
</g>

<g transform="matrix( 1, 0, 0, 1, 0,0) ">
<use xlink:href="#Duplicate_Items_Folder____0_Layer0_0_MEMBER_30_FILL"/>
</g>

<g transform="matrix( 1, 0, 0, 1, 0,0) ">
<use xlink:href="#Duplicate_Items_Folder____0_Layer0_0_MEMBER_31_FILL"/>
</g>

<g transform="matrix( 0, 0.6772308349609375, -0.6824798583984375, 0, 13.1,-3.7) ">
<use xlink:href="#Duplicate_Items_Folder____0_Layer0_0_MEMBER_32_FILL"/>
</g>

<g transform="matrix( 1, 0, 0, 1, 0,0) ">
<use xlink:href="#Duplicate_Items_Folder____0_Layer0_0_MEMBER_33_FILL"/>
</g>

<g transform="matrix( 0, 1.369873046875, -1.3804931640625, 0, -43.4,8.65) ">
<use xlink:href="#Duplicate_Items_Folder____0_Layer0_0_MEMBER_34_FILL"/>
</g>

<g transform="matrix( 0, 0.6772308349609375, -0.6824798583984375, 0, -24.05,-3.7) ">
<use xlink:href="#Duplicate_Items_Folder____0_Layer0_0_MEMBER_35_FILL"/>
</g>

<g transform="matrix( 0, 0.6772308349609375, -0.6824798583984375, 0, -19.05,-6.4) ">
<use xlink:href="#Duplicate_Items_Folder____0_Layer0_0_MEMBER_36_FILL"/>
</g>

<g transform="matrix( 1.2099609375, 0, 0, 1.2099609375, 119.05,-5.6) ">
<use xlink:href="#Duplicate_Items_Folder____0_Layer0_0_MEMBER_37_FILL"/>
</g>

<g transform="matrix( 0, 0.6772308349609375, -0.6824798583984375, 0, -2.9,-22.2) ">
<use xlink:href="#Duplicate_Items_Folder____0_Layer0_0_MEMBER_38_FILL"/>
</g>

<g transform="matrix( 0, 0.6772308349609375, -0.6824798583984375, 0, 13.1,9.6) ">
<use xlink:href="#Duplicate_Items_Folder____0_Layer0_0_MEMBER_39_FILL"/>
</g>

<g transform="matrix( 0, 0.6772308349609375, -0.6824798583984375, 0, -27.1,9.6) ">
<use xlink:href="#Duplicate_Items_Folder____0_Layer0_0_MEMBER_40_FILL"/>
</g>

<g transform="matrix( 1.369873046875, 0, 0, 1.3804931640625, 35.25,48.8) ">
<use xlink:href="#Duplicate_Items_Folder____0_Layer0_0_MEMBER_41_FILL"/>
</g>

<g transform="matrix( 1.369873046875, 0, 0, 1.3804931640625, 29.85,48.8) ">
<use xlink:href="#Duplicate_Items_Folder____0_Layer0_0_MEMBER_42_FILL"/>
</g>

<g transform="matrix( 1.369873046875, 0, 0, 1.3804931640625, 35.25,43.8) ">
<use xlink:href="#Duplicate_Items_Folder____0_Layer0_0_MEMBER_43_FILL"/>
</g>

<g transform="matrix( 1.369873046875, 0, 0, 1.3804931640625, 35.25,38.45) ">
<use xlink:href="#Duplicate_Items_Folder____0_Layer0_0_MEMBER_44_FILL"/>
</g>

<g transform="matrix( 1.369873046875, 0, 0, 1.3804931640625, 19.05,48.8) ">
<use xlink:href="#Duplicate_Items_Folder____0_Layer0_0_MEMBER_45_FILL"/>
</g>

<g transform="matrix( 0, 0.6772308349609375, -0.6824798583984375, 0, 7.45,22.8) ">
<use xlink:href="#Duplicate_Items_Folder____0_Layer0_0_MEMBER_46_FILL"/>
</g>

<g transform="matrix( 1.369873046875, 0, 0, 1.3804931640625, 24.85,30.35) ">
<use xlink:href="#Duplicate_Items_Folder____0_Layer0_0_MEMBER_47_FILL"/>
</g>

<g transform="matrix( 0, 0.6772308349609375, -0.6824798583984375, 0, 3.65,12.3) ">
<use xlink:href="#Duplicate_Items_Folder____0_Layer0_0_MEMBER_48_FILL"/>
</g>

<g transform="matrix( 0, 0.6772308349609375, -0.6824798583984375, 0, 4.75,22.8) ">
<use xlink:href="#Duplicate_Items_Folder____0_Layer0_0_MEMBER_49_FILL"/>
</g>

<g transform="matrix( 0, 0.6772308349609375, -0.6824798583984375, 0, 2.1,22.8) ">
<use xlink:href="#Duplicate_Items_Folder____0_Layer0_0_MEMBER_50_FILL"/>
</g>

<g transform="matrix( 0, 0.6772308349609375, -0.6824798583984375, 0, 7.45,25.5) ">
<use xlink:href="#Duplicate_Items_Folder____0_Layer0_0_MEMBER_51_FILL"/>
</g>

<g transform="matrix( 0, 0.6772308349609375, -0.6824798583984375, 0, 13.45,22.75) ">
<use xlink:href="#Duplicate_Items_Folder____0_Layer0_0_MEMBER_52_FILL"/>
</g>

<g transform="matrix( 0, 0.6772308349609375, -0.6824798583984375, 0, 10.1,28.15) ">
<use xlink:href="#Duplicate_Items_Folder____0_Layer0_0_MEMBER_53_FILL"/>
</g>

<g transform="matrix( 0, 0.6772308349609375, -0.6824798583984375, 0, 4.75,20.15) ">
<use xlink:href="#Duplicate_Items_Folder____0_Layer0_0_MEMBER_54_FILL"/>
</g>

<g transform="matrix( 0, 0.6772308349609375, -0.6824798583984375, 0, 13.1,17.7) ">
<use xlink:href="#Duplicate_Items_Folder____0_Layer0_0_MEMBER_55_FILL"/>
</g>

<g transform="matrix( 1.2099609375, 0, 0, 1.2099609375, 119.05,-5.6) ">
<use xlink:href="#Duplicate_Items_Folder____0_Layer0_0_MEMBER_56_FILL"/>
</g>

<g transform="matrix( 0, 0.6772308349609375, -0.6824798583984375, 0, 20.85,-3.7) ">
<use xlink:href="#Duplicate_Items_Folder____0_Layer0_0_MEMBER_57_FILL"/>
</g>

<g transform="matrix( 0, 0.6772308349609375, -0.6824798583984375, 0, -2.9,20.15) ">
<use xlink:href="#Duplicate_Items_Folder____0_Layer0_0_MEMBER_58_FILL"/>
</g>

<g transform="matrix( 0, 0.6772308349609375, -0.6824798583984375, 0, -0.25,17.45) ">
<use xlink:href="#Duplicate_Items_Folder____0_Layer0_0_MEMBER_59_FILL"/>
</g>

<g transform="matrix( 1.369873046875, 0, 0, 1.3804931640625, 6.1,1.05) ">
<use xlink:href="#Duplicate_Items_Folder____0_Layer0_0_MEMBER_60_FILL"/>
</g>

<g transform="matrix( 1.369873046875, 0, 0, 1.3804931640625, 32.8,48.8) ">
<use xlink:href="#Duplicate_Items_Folder____0_Layer0_0_MEMBER_61_FILL"/>
</g>

<g transform="matrix( 0, 0.6772308349609375, -0.6824798583984375, 0, 7.45,24.2) ">
<use xlink:href="#Duplicate_Items_Folder____0_Layer0_0_MEMBER_62_FILL"/>
</g>

<g transform="matrix( 0, 0.6772308349609375, -0.6824798583984375, 0, 5.55,22.8) ">
<use xlink:href="#Duplicate_Items_Folder____0_Layer0_0_MEMBER_63_FILL"/>
</g>
</g>
</g>
</g>
</svg>
