
<svg xmlns="http://www.w3.org/2000/svg" version="1.1" xmlns:xlink="http://www.w3.org/1999/xlink" preserveAspectRatio="none" x="0px" y="0px" width="130px" height="115px" viewBox="0 0 130 115">
<defs>
<filter id="Filter_1" x="-33.83082838583316%" y="-20.56174526992819%" width="167.66165677166632%" height="141.1234905398564%" color-interpolation-filters="sRGB">
<feFlood flood-color="#000000" flood-opacity="1" in="SourceGraphic" result="result1"/>

<feGaussianBlur in="SourceGraphic" stdDeviation="1.6666666666666667,1.6666666666666667" result="result2"/>

<feComposite in2="result2" in="result1" operator="in" result="result3"/>

<feComposite in2="result3" in="SourceGraphic" operator="over" result="result4"/>
</filter>

<g id="icon_r_box_02_3_Layer3_0_FILL">
<path fill="#FFFFFF" fill-opacity="0" stroke="none" d="
M 65 -55
L -65 -55 -65 25 65 25 65 -55 Z"/>
</g>

<g id="icon_r_box_02_3_Layer3_1_FILL">
<path fill="#FFFFFF" fill-opacity="0" stroke="none" d="
M 65.05 49.95
L 65.05 24.95 -64.95 24.95 -64.95 49.95 65.05 49.95 Z"/>
</g>

<g id="icon_r_box_02_3_Layer3_2_FILL">
<path fill="#FFFFFF" fill-opacity="0" stroke="none" d="
M 65 -52.85
L 65 -57.85 -65 -57.85 -65 -52.85 65 -52.85 Z"/>
</g>

<g id="icon_r_box_02_3_Layer3_3_FILL">
<path fill="#FFFFFF" fill-opacity="0" stroke="none" d="
M 65 54.95
L 65 49.95 -65 49.95 -65 54.95 65 54.95 Z"/>
</g>

<g id="Duplicate_Items_Folder_Symbol_2_0_Layer1_0_FILL">
<path fill="#FFFFFF" stroke="none" d="
M 41.25 48.55
Q 43.1 48.6 44.25 47.85 45.55 47 44.55 45.9 41.9 43.05 41.05 37.65 40.75 35.85 41 29.5 41.3 22.65 40.95 18.95 40.5 14.05 39.2 10.7 38.15 7.9 36.7 6.7 35.65 5.85 34.25 5.45
L 33.05 5.25
Q 31.3 2.05 26.05 1.25 20.85 0.45 14.95 2.45 5.7 5.65 4.55 12.7 4.25 14.65 4.8 16.45 5.1 17.4 5.45 17.9
L 4.4 24.15
Q 3.55 29.35 6.05 31.9 7.85 33.7 9.95 34.45
L 9.2 38.7
Q 6.2451171875 40.8048828125 1.65 45.4
L 2.1 45.85
Q 2.0576171875 45.9271484375 2 46 1.1 47.15 1.2 48.7 1.25 50.1 1.95 50.8 2.7 51.55 4.2 51.75 5.95 52 7 51 7.1095703125 50.8904296875 7.2 50.75
L 8 51.5 5.9 62.75 7.75 63.25 7.4 69.85
Q 7.15 77.35 7.5 81.55 9.0486328125 82.158984375 11.05 82.35
L 12.5 94.7
Q 7.6 95.25 8.4 99.55 9.2 100.2 18.95 99.55 19 98.35 18.85 96.4
L 18.1 82.05
Q 19.0953125 81.905859375 20.15 81.7
L 25.4 82.25 26.45 88.5 27.4 94.2
Q 23.65 95.3 24.7 99.35 27.4 100.2 35 99.35 35.15 98.2 34.95 96.7 34.7 95 34.2 93.9
L 33.35 87.5 32.55 81.25
Q 34.2 80.75 35.65 80.1 35.1 75.1 33.3 65.75
L 35.85 65.05
Q 38.5 64.05 39.05 62.65 39.85 60.6 38.45 54.7
L 37.45 51.3
Q 38.51171875 50.9009765625 39.15 50.05 39.221484375 49.9595703125 39.25 49.85 40.28515625 49.3912109375 41.25 48.55 Z"/>
</g>

<g id="Duplicate_Items_Folder_Symbol_2_0_Layer0_0_FILL">
<path fill="#FF96A2" stroke="none" d="
M 34.95 96.7
Q 34.7 95 34.2 93.9 30.7 94.85 27.4 94.2 23.65 95.3 24.7 99.35 27.4 100.2 35 99.35 35.15 98.2 34.95 96.7
M 18.65 94.7
Q 15.75 95.15 12.5 94.7 7.6 95.25 8.4 99.55 9.2 100.2 18.95 99.55 19 98.35 18.85 96.4
L 18.65 94.7
M 33.3 65.75
L 32.65 62.45
Q 27.85 64.35 18.25 64.35 12.65 64.35 7.75 63.25
L 7.4 69.85
Q 7.15 77.35 7.5 81.55 9.0486328125 82.158984375 11.05 82.35 14.0630859375 82.665625 18.1 82.05 19.0953125 81.905859375 20.15 81.7
L 25.4 82.25
Q 27.2 82.35 28.65 82.1 30.4 81.9 32.55 81.25 34.2 80.75 35.65 80.1 35.1 75.1 33.3 65.75
M 20.15 80.7
L 19.35 70.1 20.15 80.7 Z"/>

<path fill="#9F3F61" stroke="none" d="
M 26.45 88.5
L 27.4 94.2
Q 30.7 94.85 34.2 93.9
L 33.35 87.5
Q 30.3 88.5 26.45 88.5
M 12.5 94.7
Q 15.75 95.15 18.65 94.7
L 18.35 88.3
Q 15.24765625 89.0376953125 11.75 88.85
L 12.5 94.7 Z"/>

<path fill="#FFBE8C" stroke="none" d="
M 28.65 82.1
Q 27.2 82.35 25.4 82.25
L 26.45 88.5
Q 30.3 88.5 33.35 87.5
L 32.55 81.25
Q 30.4 81.9 28.65 82.1
M 18.1 82.05
Q 14.0630859375 82.665625 11.05 82.35
L 11.75 88.85
Q 15.24765625 89.0376953125 18.35 88.3
L 18.1 82.05
M 20.35 10.55
L 20.4 8.9
Q 17.85 8.85 14.8 9.55 8.65 10.9 6 14.55
L 5.45 17.9 4.4 24.15
Q 3.55 29.35 6.05 31.9 7.85 33.7 9.95 34.45 10.988671875 34.834375 12.15 35.05 13.0474609375 35.2162109375 14.1 35.3 14.630078125 35.3498046875 15.2 35.35 17.65 35.4 20.25 34.8 22.2 34.3 23.65 33.75
L 24.5 33.4
Q 26.1 32.65 27.25 31.65 27.7 31.3 28.75 30.15
L 29.9 30.45
Q 31.35 30.7 32.7 30.35 34.55 29.9 35.55 28.7 36.75 27.25 36.55 25.1 36.35 22.95 34.65 22.15 33.1 21.45 31.35 22.1
L 30.85 23.85
Q 30.1 25.85 28.75 26.95 29.55 24.4 28.7 21.65 22.7 20.15 20.95 14.4 20.4 12.55 20.35 10.55 Z"/>

<path fill="#FF6300" stroke="none" d="
M 34.25 61.65
Q 33.75 62.05 32.65 62.45
L 33.3 65.75 35.85 65.05
Q 38.5 64.05 39.05 62.65 39.85 60.6 38.45 54.7
L 37.2 50.45 36.85 49.15 31.8 51.9 32.65 55.3 34.25 61.65
M 33.9 36.85
Q 32.8 34.75 30.95 34.15 29.15 33.55 26.65 33.4
L 24.5 33.4 23.65 33.75 23.9 34.55
Q 25.003515625 34.7224609375 26 34.95 28.384765625 35.507421875 30.2 36.4 32.1375 37.3150390625 33.45 38.6 34.1142578125 39.2041015625 34.75 39.9 34.45 37.95 33.9 36.85
M 15.2 35.35
Q 14.630078125 35.3498046875 14.1 35.3 11.8736328125 35.7509765625 10.9 37.65 12.75703125 36.6609375 14.75 36.2 15.0578125 36.1548828125 15.35 36.1
L 15.2 35.35 Z"/>

<path fill="#20D3B2" stroke="none" d="
M 34.75 39.9
Q 34.1142578125 39.2041015625 33.45 38.6 32.1375 37.3150390625 30.2 36.4 27.6 39.65 28.15 44.9 28.75 50.15 31.8 51.9
L 36.85 49.15 40.15 47.4
Q 37.3548828125 42.76796875 34.75 39.9
M 9.4 38.6
Q 9.3021484375 38.666796875 9.2 38.7 6.2451171875 40.8048828125 1.65 45.4
L 8 51.5
Q 8.2060546875 41.6591796875 10.2 38.05 9.7939453125 38.32578125 9.4 38.6
M 15.35 36.1
Q 15.0578125 36.1548828125 14.75 36.2 10.609375 43.962109375 7.65 53.25
L 5.9 62.75 7.75 63.25
Q 12.65 64.35 18.25 64.35 27.85 64.35 32.65 62.45 33.75 62.05 34.25 61.65
L 32.65 55.3
Q 27.1 53.5 25 47.05 22.85 40.55 26 34.95 25.003515625 34.7224609375 23.9 34.55
L 24.15 35.35
Q 21.3 38.05 15.95 38.3
L 15.35 36.1 Z"/>

<path fill="#8F232A" stroke="none" d="
M 30.2 36.4
Q 28.384765625 35.507421875 26 34.95 22.85 40.55 25 47.05 27.1 53.5 32.65 55.3
L 31.8 51.9
Q 28.75 50.15 28.15 44.9 27.6 39.65 30.2 36.4
M 10.9 37.65
Q 10.557421875 37.85546875 10.2 38.05 8.2060546875 41.6591796875 8 51.5
L 7.65 53.25
Q 10.609375 43.962109375 14.75 36.2 12.75703125 36.6609375 10.9 37.65 Z"/>

<path fill="#FBA25D" stroke="none" d="
M 15.2 35.35
L 15.35 36.1 15.95 38.3
Q 21.3 38.05 24.15 35.35
L 23.9 34.55 23.65 33.75
Q 22.2 34.3 20.25 34.8 17.65 35.4 15.2 35.35 Z"/>

<path fill="#6F3830" stroke="none" d="
M 14.1 35.3
Q 13.0474609375 35.2162109375 12.15 35.05 10.988671875 34.834375 9.95 34.45
L 9.2 38.7
Q 9.3021484375 38.666796875 9.4 38.6 9.7939453125 38.32578125 10.2 38.05 10.557421875 37.85546875 10.9 37.65 11.8736328125 35.7509765625 14.1 35.3 Z"/>

<path fill="#76544E" stroke="none" d="
M 30.85 23.85
L 31.35 22.1
Q 30.1 21.95 28.7 21.65 29.55 24.4 28.75 26.95 30.1 25.85 30.85 23.85 Z"/>

<path fill="#412C28" stroke="none" d="
M 41.25 48.55
Q 43.1 48.6 44.25 47.85 45.55 47 44.55 45.9 41.9 43.05 41.05 37.65 40.75 35.85 41 29.5 41.3 22.65 40.95 18.95 40.5 14.05 39.2 10.7 38.15 7.9 36.7 6.7 35.65 5.85 34.25 5.45
L 33.05 5.25
Q 31.3 2.05 26.05 1.25 20.85 0.45 14.95 2.45 5.7 5.65 4.55 12.7 4.25 14.65 4.8 16.45 5.1 17.4 5.45 17.9
L 6 14.55
Q 8.65 10.9 14.8 9.55 17.85 8.85 20.4 8.9
L 20.35 10.55
Q 20.4 12.55 20.95 14.4 22.7 20.15 28.7 21.65 30.1 21.95 31.35 22.1 33.1 21.45 34.65 22.15 36.35 22.95 36.55 25.1 36.75 27.25 35.55 28.7 34.55 29.9 32.7 30.35 31.35 30.7 29.9 30.45
L 28.75 30.15
Q 27.7 31.3 27.25 31.65 26.1 32.65 24.5 33.4
L 26.65 33.4
Q 29.15 33.55 30.95 34.15 32.8 34.75 33.9 36.85 34.45 37.95 34.75 39.9 37.3548828125 42.76796875 40.15 47.4
L 36.85 49.15 37.2 50.45
Q 39.30859375 50.2423828125 41.25 48.55 Z"/>
</g>

<g id="Duplicate_Items_Folder_Symbol_2_0_Layer0_1_FILL">
<path fill="#FFE5E8" stroke="none" d="
M 27.95 47.4
L 30.05 48.9
Q 32.45 50.5 34.25 51.3 35.65 51.9 37.1 51.45 38.4 51.05 39.15 50.05 39.9 49.1 39.8 47.75 39.7 46.4 38.75 45.35 38.2 44.8 30.9 40.95
L 30.55 41.65
Q 30.55 41.7 30.15 43.15 29.55 44.9 28.65 46.3
L 27.95 47.4 Z"/>

<path fill="#FFBE8C" stroke="none" d="
M 30.3 40.75
Q 29.8 39.55 28.75 39
L 28.4 39.6
Q 25.55 38.2 24.05 38.85 22.35 39.6 22.35 42.35 22.35 43.25 22.7 44.25 23.1 45.45 23.8 45.8 24.55 46.2 26.15 46.4 27.75 46.55 28.65 46.3 29.55 44.9 30.15 43.15 30.55 41.7 30.55 41.65 30.501171875 41.2330078125 30.3 40.75 Z"/>
</g>

<g id="Duplicate_Items_Folder_Symbol_2_0_Layer0_2_FILL">
<path fill="#FFBE8C" stroke="none" d="
M 8.4 40
Q 7.85 40.5 7.6 41.45 7.25 42.6 7.35 44.15 7.45 45.45 7.7 45.95 7.95 46.45 8.85 46.6 9.348828125 46.7107421875 9.85 46.65 10.248828125 46.6337890625 10.65 46.5 11.45 46.25 12.4 44.1 13.2 42.2 13.25 41.4 13.3 40.85 12.9 40.25 12.5 39.65 11.9 39.45 11.2 39.2 10.25 39.3 9.15 39.4 8.4 40 Z"/>

<path fill="#FFE5E8" stroke="none" d="
M 7.6 41.45
L 5.35 43
Q 2.95 44.8 2 46 1.1 47.15 1.2 48.7 1.25 50.1 1.95 50.8 2.7 51.55 4.2 51.75 5.95 52 7 51 7.75 50.25 8.9 48.4
L 9.85 46.65
Q 9.348828125 46.7107421875 8.85 46.6 7.95 46.45 7.7 45.95 7.45 45.45 7.35 44.15 7.25 42.6 7.6 41.45 Z"/>
</g>

<g id="Duplicate_Items_Folder_Symbol_2_0_Layer0_3_FILL">
<path fill="#FBA25D" stroke="none" d="
M 31.45 24.15
Q 30.9662109375 26.591015625 29.9 28.45 33.2 29 34.05 27.25 34.75 25.9 34.05 24.8 33.35 23.65 31.45 24.15 Z"/>
</g>

<g id="Duplicate_Items_Folder_Symbol_2_0_Layer0_4_STROKES_1_FILL">
<path fill="#76544E" stroke="none" d="
M 17.95 14.55
L 17.85 14.5 17.7 14.5 17.65 14.45 16.9 14.45 16.6 14.5 16.5 14.55 16.35 14.6 15.9 14.8 15.75 14.95 15.65 15 15.5 15.15 15.45 15.25
Q 15.15 15.75 15.6 16 15.7 16.1 16 16.1
L 16.1 16.05 16.35 16.05 16.5 16 16.55 16 16.65 15.95 16.8 15.9 16.9 15.9 17 15.85 17.15 15.8 17.25 15.8 17.35 15.75 17.8 15.6 18 15.5 18.05 15.5
Q 18.55 15.3 18.35 14.85 18.15 14.55 17.95 14.55 Z"/>
</g>

<g id="Duplicate_Items_Folder_Symbol_2_0_Layer0_5_STROKES_1_FILL">
<path fill="#76544E" stroke="none" d="
M 8.75 15.45
L 8.3 15.45 8.2 15.5 8.1 15.5 8 15.55
Q 7.5 15.65 7.6 16.15 7.7 16.45 7.9 16.5
L 7.95 16.5 8.15 16.6 8.2 16.6 8.2 16.65 8.25 16.65 8.85 16.85 8.9 16.9 9 16.9 9.1 16.95 9.2 16.95 9.2 17 9.4 17 9.45 17.05 9.65 17.05
Q 10.15 17.2 10.35 16.7
L 10.3 16.3 10.25 16.2 10.1 16.05 10.1 16 10 15.95 9.85 15.8 9.45 15.6 9.4 15.6 9.35 15.55 9.25 15.55 8.75 15.45 Z"/>
</g>

<g id="Duplicate_Items_Folder_Symbol_2_0_Layer0_7_FILL">
<path fill="#FF9A7B" stroke="none" d="
M 26.95 26.65
Q 26.95 25.95 26 25.45 25.1 25 23.75 25 22.4 25 21.45 25.45 20.55 25.95 20.55 26.65 20.55 27.35 21.45 27.8 22.4 28.3 23.75 28.3 25.1 28.3 26 27.8 26.95 27.35 26.95 26.65 Z"/>
</g>

<g id="Duplicate_Items_Folder_Symbol_2_0_Layer0_8_FILL">
<path fill="#000000" stroke="none" d="
M 18.9 22.25
Q 18.9 21.3 18.55 20.6 18.2 19.9 17.7 19.9 17.2 19.9 16.85 20.6 16.5 21.3 16.5 22.25 16.5 23.2 16.85 23.9 17.2 24.6 17.7 24.6 18.2 24.6 18.55 23.9 18.9 23.2 18.9 22.25 Z"/>
</g>

<g id="Duplicate_Items_Folder_Symbol_2_0_Layer0_9_FILL">
<path fill="#FF9A7B" stroke="none" d="
M 7.95 25.25
Q 7.95 24.7 7.25 24.35 6.6 24 5.55 24 4.9126953125 24 4.4 24.1
L 4.4 24.15
Q 4.2171875 25.26796875 4.2 26.25 4.787890625 26.5 5.55 26.5 6.6 26.5 7.25 26.1 7.95 25.75 7.95 25.25 Z"/>
</g>

<g id="Duplicate_Items_Folder_Symbol_2_0_Layer0_10_FILL">
<path fill="#000000" stroke="none" d="
M 10.05 22.9
Q 10.05 21.9 9.6 21.15 9.15 20.4 8.55 20.4 7.9 20.4 7.45 21.15 7.05 21.9 7.05 22.9 7.05 23.95 7.45 24.65 7.9 25.4 8.55 25.4 9.15 25.4 9.6 24.65 10.05 23.95 10.05 22.9 Z"/>
</g>

<g id="Duplicate_Items_Folder_Symbol_2_0_Layer0_13_FILL">
<path fill="#76544E" stroke="none" d="
M 9.45 5.15
Q 9.9998046875 5.3857421875 10.6 5.6 14.85 7.05 18.8 6.8 17.75 6.35 16.5 5.3 15.04453125 4.1357421875 14.15 2.75 11.42109375 3.7751953125 9.45 5.15 Z"/>
</g>

<path id="Duplicate_Items_Folder_Symbol_2_0_Layer1_0_1_STROKES" stroke="#FFFFFF" stroke-width="8" stroke-linejoin="round" stroke-linecap="round" fill="none" d="
M 5.45 17.9
Q 5.1 17.4 4.8 16.45 4.25 14.65 4.55 12.7 5.7 5.65 14.95 2.45 20.85 0.45 26.05 1.25 31.3 2.05 33.05 5.25
L 34.25 5.45
Q 35.65 5.85 36.7 6.7 38.15 7.9 39.2 10.7 40.5 14.05 40.95 18.95 41.3 22.65 41 29.5 40.75 35.85 41.05 37.65 41.9 43.05 44.55 45.9 45.55 47 44.25 47.85 43.1 48.6 41.25 48.55 40.28515625 49.3912109375 39.275 49.875 39.221484375 49.9595703125 39.15 50.05 38.51171875 50.9009765625 37.475 51.325
L 38.45 54.7
Q 39.85 60.6 39.05 62.65 38.5 64.05 35.85 65.05
L 33.3 65.75
Q 35.1 75.1 35.65 80.1 34.2 80.75 32.55 81.275
L 33.375 87.5 34.2 93.9
Q 34.7 95 34.95 96.7 35.15 98.2 35 99.35 27.4 100.2 24.7 99.35 23.65 95.3 27.4 94.2
L 26.45 88.5 25.4 82.25 20.15 81.7
Q 19.0953125 81.905859375 18.1 82.05
L 18.85 96.4
Q 19 98.35 18.95 99.55 9.2 100.2 8.4 99.55 7.6 95.25 12.5 94.7
L 11.05 82.35
Q 9.0486328125 82.158984375 7.5 81.55 7.15 77.35 7.4 69.85
L 7.75 63.25 5.9 62.75 8 51.5 7.225 50.75
Q 7.1095703125 50.8904296875 7 51 5.95 52 4.2 51.75 2.7 51.55 1.95 50.8 1.25 50.1 1.2 48.7 1.1 47.15 2 46 2.0576171875 45.9271484375 2.125 45.85
L 1.65 45.4
Q 6.2451171875 40.8048828125 9.2 38.725
L 9.95 34.45
Q 7.85 33.7 6.05 31.9 3.55 29.35 4.4 24.15
L 5.45 17.9 Z"/>

<path id="Duplicate_Items_Folder_Symbol_2_0_Layer0_0_1_STROKES" stroke="#F46979" stroke-width="1" stroke-linejoin="round" stroke-linecap="round" fill="none" d="
M 20.15 80.7
L 19.35 70.1"/>

<path id="Duplicate_Items_Folder_Symbol_2_0_Layer0_6_1_STROKES" stroke="#F40B0B" stroke-width="1" stroke-linejoin="round" stroke-linecap="round" fill="none" d="
M 11.5 29.65
Q 12.7 30.05 14.05 29.7 15.4 29.3 16.25 28.25"/>

<path id="Duplicate_Items_Folder_Symbol_2_0_Layer0_11_1_STROKES" stroke="#F89A52" stroke-width="1" stroke-linejoin="round" stroke-linecap="round" fill="none" d="
M 12.4 23.05
Q 11.35 22.75 10.6 23.35 9.95 23.85 9.95 24.7 9.95 25.55 10.5 26.1 11.05 26.65 11.95 26.55"/>

<path id="Duplicate_Items_Folder_Symbol_2_0_Layer0_12_1_STROKES" stroke="#2D1E1B" stroke-width="1" stroke-linejoin="round" stroke-linecap="round" fill="none" d="
M 22.15 7.5
Q 25.4923828125 5.7228515625 31 5.75"/>
</defs>

<g transform="matrix( 1, 0, 0, 0.999603271484375, 65,60) ">
<g transform="matrix( 1, 0, 0, 1, 0,0) ">
<use xlink:href="#icon_r_box_02_3_Layer3_0_FILL"/>
</g>

<g transform="matrix( 1, 0, 0, 1, -0.05,0.05) ">
<use xlink:href="#icon_r_box_02_3_Layer3_1_FILL"/>
</g>

<g transform="matrix( 1, 0, 0, 1, 0,-2.15) ">
<use xlink:href="#icon_r_box_02_3_Layer3_2_FILL"/>
</g>

<g transform="matrix( 1, 0, 0, 1, 0,0.05) ">
<use xlink:href="#icon_r_box_02_3_Layer3_3_FILL"/>
</g>

<g filter="url(#Filter_1)" transform="matrix( 0.9999847412109375, 0, 0, 1.000396728515625, -65,-60) ">
<g transform="matrix( 0.75, 0, 0, 0.74969482421875, 46.7,3.2) ">
<g transform="matrix( 1, 0, 0, 1, 0,0) ">
<use xlink:href="#Duplicate_Items_Folder_Symbol_2_0_Layer1_0_FILL"/>

<use xlink:href="#Duplicate_Items_Folder_Symbol_2_0_Layer1_0_1_STROKES"/>
</g>

<g transform="matrix( 1, 0, 0, 1, 0,0) ">
<use xlink:href="#Duplicate_Items_Folder_Symbol_2_0_Layer0_0_FILL"/>

<use xlink:href="#Duplicate_Items_Folder_Symbol_2_0_Layer0_0_1_STROKES"/>
</g>

<g transform="matrix( 1, 0, 0, 1, 0,0) ">
<use xlink:href="#Duplicate_Items_Folder_Symbol_2_0_Layer0_1_FILL"/>
</g>

<g transform="matrix( 1, 0, 0, 1, 0,0) ">
<use xlink:href="#Duplicate_Items_Folder_Symbol_2_0_Layer0_2_FILL"/>
</g>

<g transform="matrix( 1, 0, 0, 1, 0,-0.1) ">
<use xlink:href="#Duplicate_Items_Folder_Symbol_2_0_Layer0_3_FILL"/>
</g>

<g transform="matrix( 0.990264892578125, 0.139190673828125, -0.139190673828125, 0.990264892578125, 2.3,-0.95) ">
<use xlink:href="#Duplicate_Items_Folder_Symbol_2_0_Layer0_4_STROKES_1_FILL"/>
</g>

<g transform="matrix( 0.9925537109375, -0.121673583984375, 0.121673583984375, 0.9925537109375, -1.9,1.45) ">
<use xlink:href="#Duplicate_Items_Folder_Symbol_2_0_Layer0_5_STROKES_1_FILL"/>
</g>

<g transform="matrix( 1, 0, 0, 1, 0,0.7) ">
<use xlink:href="#Duplicate_Items_Folder_Symbol_2_0_Layer0_6_1_STROKES"/>
</g>

<g transform="matrix( 0.75, 0, 0, 0.75, 2.75,5.25) ">
<use xlink:href="#Duplicate_Items_Folder_Symbol_2_0_Layer0_7_FILL"/>
</g>

<g transform="matrix( 1.25, 0, 0, 1.063720703125, -4.6,-0.55) ">
<use xlink:href="#Duplicate_Items_Folder_Symbol_2_0_Layer0_8_FILL"/>
</g>

<g transform="matrix( 1, 0, 0, 1, 0,0) ">
<use xlink:href="#Duplicate_Items_Folder_Symbol_2_0_Layer0_9_FILL"/>
</g>

<g transform="matrix( 0.9976043701171875, 0.0691680908203125, -0.0691680908203125, 0.9976043701171875, 1.65,-0.3) ">
<use xlink:href="#Duplicate_Items_Folder_Symbol_2_0_Layer0_10_FILL"/>
</g>

<g transform="matrix( 1, 0, 0, 1, 0,0.7) ">
<use xlink:href="#Duplicate_Items_Folder_Symbol_2_0_Layer0_11_1_STROKES"/>
</g>

<g transform="matrix( 1, 0, 0, 1, 0,0) ">
<use xlink:href="#Duplicate_Items_Folder_Symbol_2_0_Layer0_12_1_STROKES"/>
</g>

<g transform="matrix( 1, 0, 0, 1, 0,0) ">
<use xlink:href="#Duplicate_Items_Folder_Symbol_2_0_Layer0_13_FILL"/>
</g>
</g>
</g>
</g>
</svg>
