
<svg xmlns="http://www.w3.org/2000/svg" version="1.1" xmlns:xlink="http://www.w3.org/1999/xlink" preserveAspectRatio="none" x="0px" y="0px" width="130px" height="115px" viewBox="0 0 130 115">
<defs>
<g id="icon_r_box_02_85_Layer3_0_FILL">
<path fill="#FFFFFF" fill-opacity="0" stroke="none" d="
M 65 -55
L -65 -55 -65 25 65 25 65 -55 Z"/>
</g>

<g id="icon_r_box_02_85_Layer3_1_FILL">
<path fill="#FFFFFF" fill-opacity="0" stroke="none" d="
M 65.05 49.95
L 65.05 24.95 -64.95 24.95 -64.95 49.95 65.05 49.95 Z"/>
</g>

<g id="icon_r_box_02_85_Layer3_2_FILL">
<path fill="#FFFFFF" fill-opacity="0" stroke="none" d="
M 65 -52.85
L 65 -57.85 -65 -57.85 -65 -52.85 65 -52.85 Z"/>
</g>

<g id="icon_r_box_02_85_Layer3_3_FILL">
<path fill="#FFFFFF" fill-opacity="0" stroke="none" d="
M 65 54.95
L 65 49.95 -65 49.95 -65 54.95 65 54.95 Z"/>
</g>

<g id="icon_r_box_02_85_Layer2_0_MEMBER_0_FILL">
<path fill="#0161D2" stroke="none" d="
M 23.85 53.1
Q 17.35 53.9 10.45 56.15 15.8 59.55 22.35 59.4 30 59.15 37.6 53.75 32.1 52.1 23.85 53.1 Z"/>
</g>

<g id="icon_r_box_02_85_Layer2_0_MEMBER_1_FILL">
<path fill="#012288" stroke="none" d="
M 23.55 50.2
Q 33.8 48.95 40.3 51.6 43.1 49.3 45.45 46.6 36.8 42.75 24.05 44.45 14.65 45.7 3.75 49.8 5.5 52.1 7.65 54 15.6 51.15 23.55 50.2 Z"/>
</g>

<g id="icon_r_box_02_85_Layer2_0_MEMBER_2_FILL">
<path fill="#0161D2" stroke="none" d="
M 50 40.8
Q 48.65 39.55 46 38.15 40.7 35.4 34.05 34.85
L 33.85 34.8 33.9 33.95
Q 33.9 31.9 32.55 30.4 31.2 28.95 29.3 28.95 27.4 28.95 26.05 30.4 24.7 31.9 24.7 33.95 24.7 34.5 24.85 35.1 16.55 36.15 7.45 39.8 2.9 41.65 0 43.3
L 0.5 44.45
Q 1.2 45.85 2.05 47.3 14.5 42.5 24.9 41.3 38.2 39.8 47.45 44.25 49.1 42.2 50 40.8 Z"/>
</g>

<g id="icon_r_box_02_85_Layer2_0_MEMBER_3_FILL">
<path fill="#012288" stroke="none" d="
M 11.55 30.55
Q 13 32 15.05 32 17.1 32 18.6 30.55 20.05 29.05 20.05 27 20.05 24.95 18.6 23.5 17.1 22.05 15.05 22.05 13 22.05 11.55 23.5 10.1 24.95 10.1 27 10.1 29.05 11.55 30.55 Z"/>
</g>

<g id="icon_r_box_02_85_Layer2_0_MEMBER_4_FILL">
<path fill="#0161D2" stroke="none" d="
M 3.75 13.85
Q 2.05 16.4 1.5 18.1 0.7 20.6 1.85 22.2
L 2.5 23.1
Q 4.1 25.3 4.5 26.4 5.15 28.25 4.05 29.9 3.95 30.15 4.1 30.3
L 4.3 30.35 4.5 30.3
Q 5.45 29.45 6.2 28.25 7.6 25.9 6.8 23.9 6.35 22.8 5.3 21.3 4.6 20.35 4.4 19.8 4.05 18.9 4.15 17.6
L 4.3 14
Q 4.3 13.8 4.1 13.7 3.9 13.7 3.75 13.85 Z"/>
</g>

<g id="icon_r_box_02_85_Layer2_0_MEMBER_5_FILL">
<path fill="#0161D2" stroke="none" d="
M 34.85 21.55
L 35.6 22.6
Q 37.45 25.1 37.95 26.45 38.7 28.6 37.4 30.55 37.3 30.75 37.45 30.9
L 37.65 31 37.85 30.9
Q 38.95 29.9 39.75 28.55 41.4 25.9 40.5 23.6 40 22.3 38.75 20.6 37.95 19.45 37.7 18.8 37.3 17.75 37.45 16.25 37.7 13.25 37.6 12.1 37.6 11.9 37.4 11.8 37.2 11.8 37.1 11.95 35.15 14.85 34.5 16.85 33.55 19.7 34.85 21.55 Z"/>
</g>

<g id="icon_r_box_02_85_Layer2_0_MEMBER_6_FILL">
<path fill="#0161D2" stroke="none" d="
M 20.8 9.8
L 21.55 10.8
Q 23.4 13.35 23.85 14.65 24.6 16.85 23.35 18.75 23.2 18.95 23.4 19.15
L 23.6 19.2 23.8 19.15
Q 24.9 18.15 25.7 16.8 27.3 14.1 26.4 11.8 25.95 10.45 24.7 8.8 23.9 7.7 23.65 7.05 23.25 6 23.35 4.45 23.6 1.45 23.55 0.3 23.55 0.05 23.35 0.05 23.15 0 23 0.15 21.05 3.05 20.4 5.1 19.5 7.95 20.8 9.8 Z"/>
</g>
</defs>

<g transform="matrix( 1, 0, 0, 0.999603271484375, 65,60) ">
<g transform="matrix( 1, 0, 0, 1, 0,0) ">
<use xlink:href="#icon_r_box_02_85_Layer3_0_FILL"/>
</g>

<g transform="matrix( 1, 0, 0, 1, -0.05,0.05) ">
<use xlink:href="#icon_r_box_02_85_Layer3_1_FILL"/>
</g>

<g transform="matrix( 1, 0, 0, 1, 0,-2.15) ">
<use xlink:href="#icon_r_box_02_85_Layer3_2_FILL"/>
</g>

<g transform="matrix( 1, 0, 0, 1, 0,0.05) ">
<use xlink:href="#icon_r_box_02_85_Layer3_3_FILL"/>
</g>

<g transform="matrix( 1, 0, 0, 1, -25,-44.75) ">
<use xlink:href="#icon_r_box_02_85_Layer2_0_MEMBER_0_FILL"/>
</g>

<g transform="matrix( 1, 0, 0, 1, -25,-44.75) ">
<use xlink:href="#icon_r_box_02_85_Layer2_0_MEMBER_1_FILL"/>
</g>

<g transform="matrix( 1, 0, 0, 1, -25,-44.75) ">
<use xlink:href="#icon_r_box_02_85_Layer2_0_MEMBER_2_FILL"/>
</g>

<g transform="matrix( 1, 0, 0, 1, -25,-44.75) ">
<use xlink:href="#icon_r_box_02_85_Layer2_0_MEMBER_3_FILL"/>
</g>

<g transform="matrix( 1, 0, 0, 1, -25,-44.75) ">
<use xlink:href="#icon_r_box_02_85_Layer2_0_MEMBER_4_FILL"/>
</g>

<g transform="matrix( 1, 0, 0, 1, -25,-44.75) ">
<use xlink:href="#icon_r_box_02_85_Layer2_0_MEMBER_5_FILL"/>
</g>

<g transform="matrix( 1, 0, 0, 1, -25,-44.75) ">
<use xlink:href="#icon_r_box_02_85_Layer2_0_MEMBER_6_FILL"/>
</g>
</g>
</svg>
