
<svg xmlns="http://www.w3.org/2000/svg" version="1.1" xmlns:xlink="http://www.w3.org/1999/xlink" preserveAspectRatio="none" x="0px" y="0px" width="130px" height="115px" viewBox="0 0 130 115">
<defs>
<g id="icon_r_box_02_41_Layer3_0_FILL">
<path fill="#FFFFFF" fill-opacity="0" stroke="none" d="
M 65 -55
L -65 -55 -65 25 65 25 65 -55 Z"/>
</g>

<g id="icon_r_box_02_41_Layer3_1_FILL">
<path fill="#FFFFFF" fill-opacity="0" stroke="none" d="
M 65.05 49.95
L 65.05 24.95 -64.95 24.95 -64.95 49.95 65.05 49.95 Z"/>
</g>

<g id="icon_r_box_02_41_Layer3_2_FILL">
<path fill="#FFFFFF" fill-opacity="0" stroke="none" d="
M 65 -52.85
L 65 -57.85 -65 -57.85 -65 -52.85 65 -52.85 Z"/>
</g>

<g id="icon_r_box_02_41_Layer3_3_FILL">
<path fill="#FFFFFF" fill-opacity="0" stroke="none" d="
M 65 54.95
L 65 49.95 -65 49.95 -65 54.95 65 54.95 Z"/>
</g>

<g id="icon_r_box_02_41_Layer2_0_MEMBER_0_MEMBER_0_FILL">
<path fill="#FFFFFF" stroke="none" d="
M 26.5 1.9
Q 25.1 0.5 23.15 0.5
L 17.8 0.5
Q 15.8 0.5 14.45 1.9 13.05 3.3 13.05 5.25
L 13.05 11.65 27.9 11.65 27.9 5.25
Q 27.9 3.3 26.5 1.9 Z"/>
</g>

<g id="icon_r_box_02_41_Layer2_0_MEMBER_0_MEMBER_1_MEMBER_0_FILL">
<path fill="#FFFFFF" stroke="none" d="
M 34.85 9.45
L 5.8 9.45 5.8 57.6 34.85 57.6 34.85 9.45 Z"/>
</g>

<g id="icon_r_box_02_41_Layer2_0_MEMBER_0_MEMBER_1_MEMBER_1_FILL">
<path fill="#FFFFFF" stroke="none" d="
M 30.25 9.45
L 10.4 9.45 10.4 57.6 30.25 57.6 30.25 9.45 Z"/>
</g>

<g id="icon_r_box_02_41_Layer2_0_MEMBER_0_MEMBER_1_MEMBER_2_FILL">
<path fill="#FFFFFF" stroke="none" d="
M 30.25 49.1
L 10.4 49.1 10.4 57.6 30.25 57.6 30.25 49.1 Z"/>
</g>

<g id="icon_r_box_02_41_Layer2_0_MEMBER_0_MEMBER_1_MEMBER_3_FILL">
<path fill="#CBCFD8" stroke="none" d="
M 27.15 49.1
L 13.5 49.1 13.5 57.6 27.15 57.6 27.15 49.1 Z"/>
</g>

<g id="icon_r_box_02_41_Layer2_0_MEMBER_0_MEMBER_1_MEMBER_5_MEMBER_0_MEMBER_0_FILL">
<path fill="#BAE6FF" stroke="none" d="
M 15.35 14.4
L 15.35 9.45 10.4 9.45 10.4 14.4 15.35 14.4 Z"/>
</g>

<g id="icon_r_box_02_41_Layer2_0_MEMBER_0_MEMBER_1_MEMBER_5_MEMBER_0_MEMBER_1_FILL">
<path fill="#76A4D2" stroke="none" d="
M 20.35 14.4
L 20.35 9.45 15.35 9.45 15.35 14.4 20.35 14.4 Z"/>
</g>

<g id="icon_r_box_02_41_Layer2_0_MEMBER_0_MEMBER_1_MEMBER_5_MEMBER_0_MEMBER_2_FILL">
<path fill="#BAE6FF" stroke="none" d="
M 25.3 14.4
L 25.3 9.45 20.35 9.45 20.35 14.4 25.3 14.4 Z"/>
</g>

<g id="icon_r_box_02_41_Layer2_0_MEMBER_0_MEMBER_1_MEMBER_5_MEMBER_0_MEMBER_3_FILL">
<path fill="#76A4D2" stroke="none" d="
M 30.25 14.4
L 30.25 9.45 25.3 9.45 25.3 14.4 30.25 14.4 Z"/>
</g>

<g id="icon_r_box_02_41_Layer2_0_MEMBER_0_MEMBER_1_MEMBER_5_MEMBER_1_MEMBER_0_FILL">
<path fill="#BAE6FF" stroke="none" d="
M 15.35 19.4
L 15.35 14.4 10.4 14.4 10.4 19.4 15.35 19.4 Z"/>
</g>

<g id="icon_r_box_02_41_Layer2_0_MEMBER_0_MEMBER_1_MEMBER_5_MEMBER_1_MEMBER_1_FILL">
<path fill="#76A4D2" stroke="none" d="
M 20.35 19.4
L 20.35 14.4 15.35 14.4 15.35 19.4 20.35 19.4 Z"/>
</g>

<g id="icon_r_box_02_41_Layer2_0_MEMBER_0_MEMBER_1_MEMBER_5_MEMBER_1_MEMBER_2_FILL">
<path fill="#BAE6FF" stroke="none" d="
M 25.3 19.4
L 25.3 14.4 20.35 14.4 20.35 19.4 25.3 19.4 Z"/>
</g>

<g id="icon_r_box_02_41_Layer2_0_MEMBER_0_MEMBER_1_MEMBER_5_MEMBER_1_MEMBER_3_FILL">
<path fill="#76A4D2" stroke="none" d="
M 30.25 19.4
L 30.25 14.4 25.3 14.4 25.3 19.4 30.25 19.4 Z"/>
</g>

<g id="icon_r_box_02_41_Layer2_0_MEMBER_0_MEMBER_1_MEMBER_5_MEMBER_2_MEMBER_0_FILL">
<path fill="#BAE6FF" stroke="none" d="
M 15.35 24.35
L 15.35 19.4 10.4 19.4 10.4 24.35 15.35 24.35 Z"/>
</g>

<g id="icon_r_box_02_41_Layer2_0_MEMBER_0_MEMBER_1_MEMBER_5_MEMBER_2_MEMBER_1_FILL">
<path fill="#76A4D2" stroke="none" d="
M 20.35 24.35
L 20.35 19.4 15.35 19.4 15.35 24.35 20.35 24.35 Z"/>
</g>

<g id="icon_r_box_02_41_Layer2_0_MEMBER_0_MEMBER_1_MEMBER_5_MEMBER_2_MEMBER_2_FILL">
<path fill="#BAE6FF" stroke="none" d="
M 25.3 24.35
L 25.3 19.4 20.35 19.4 20.35 24.35 25.3 24.35 Z"/>
</g>

<g id="icon_r_box_02_41_Layer2_0_MEMBER_0_MEMBER_1_MEMBER_5_MEMBER_2_MEMBER_3_FILL">
<path fill="#76A4D2" stroke="none" d="
M 30.25 24.35
L 30.25 19.4 25.3 19.4 25.3 24.35 30.25 24.35 Z"/>
</g>

<g id="icon_r_box_02_41_Layer2_0_MEMBER_0_MEMBER_1_MEMBER_5_MEMBER_3_MEMBER_0_FILL">
<path fill="#BAE6FF" stroke="none" d="
M 15.35 29.3
L 15.35 24.35 10.4 24.35 10.4 29.3 15.35 29.3 Z"/>
</g>

<g id="icon_r_box_02_41_Layer2_0_MEMBER_0_MEMBER_1_MEMBER_5_MEMBER_3_MEMBER_1_FILL">
<path fill="#76A4D2" stroke="none" d="
M 20.35 29.3
L 20.35 24.35 15.35 24.35 15.35 29.3 20.35 29.3 Z"/>
</g>

<g id="icon_r_box_02_41_Layer2_0_MEMBER_0_MEMBER_1_MEMBER_5_MEMBER_3_MEMBER_2_FILL">
<path fill="#BAE6FF" stroke="none" d="
M 25.3 29.3
L 25.3 24.35 20.35 24.35 20.35 29.3 25.3 29.3 Z"/>
</g>

<g id="icon_r_box_02_41_Layer2_0_MEMBER_0_MEMBER_1_MEMBER_5_MEMBER_3_MEMBER_3_FILL">
<path fill="#76A4D2" stroke="none" d="
M 30.25 29.3
L 30.25 24.35 25.3 24.35 25.3 29.3 30.25 29.3 Z"/>
</g>

<g id="icon_r_box_02_41_Layer2_0_MEMBER_0_MEMBER_1_MEMBER_5_MEMBER_4_MEMBER_0_FILL">
<path fill="#BAE6FF" stroke="none" d="
M 15.35 34.25
L 15.35 29.3 10.4 29.3 10.4 34.25 15.35 34.25 Z"/>
</g>

<g id="icon_r_box_02_41_Layer2_0_MEMBER_0_MEMBER_1_MEMBER_5_MEMBER_4_MEMBER_1_FILL">
<path fill="#76A4D2" stroke="none" d="
M 20.35 34.25
L 20.35 29.3 15.35 29.3 15.35 34.25 20.35 34.25 Z"/>
</g>

<g id="icon_r_box_02_41_Layer2_0_MEMBER_0_MEMBER_1_MEMBER_5_MEMBER_4_MEMBER_2_FILL">
<path fill="#BAE6FF" stroke="none" d="
M 25.3 34.25
L 25.3 29.3 20.35 29.3 20.35 34.25 25.3 34.25 Z"/>
</g>

<g id="icon_r_box_02_41_Layer2_0_MEMBER_0_MEMBER_1_MEMBER_5_MEMBER_4_MEMBER_3_FILL">
<path fill="#76A4D2" stroke="none" d="
M 30.25 34.25
L 30.25 29.3 25.3 29.3 25.3 34.25 30.25 34.25 Z"/>
</g>

<g id="icon_r_box_02_41_Layer2_0_MEMBER_0_MEMBER_1_MEMBER_5_MEMBER_5_MEMBER_0_FILL">
<path fill="#BAE6FF" stroke="none" d="
M 15.35 39.2
L 15.35 34.25 10.4 34.25 10.4 39.2 15.35 39.2 Z"/>
</g>

<g id="icon_r_box_02_41_Layer2_0_MEMBER_0_MEMBER_1_MEMBER_5_MEMBER_5_MEMBER_1_FILL">
<path fill="#76A4D2" stroke="none" d="
M 20.35 39.2
L 20.35 34.25 15.35 34.25 15.35 39.2 20.35 39.2 Z"/>
</g>

<g id="icon_r_box_02_41_Layer2_0_MEMBER_0_MEMBER_1_MEMBER_5_MEMBER_5_MEMBER_2_FILL">
<path fill="#BAE6FF" stroke="none" d="
M 25.3 39.2
L 25.3 34.25 20.35 34.25 20.35 39.2 25.3 39.2 Z"/>
</g>

<g id="icon_r_box_02_41_Layer2_0_MEMBER_0_MEMBER_1_MEMBER_5_MEMBER_5_MEMBER_3_FILL">
<path fill="#76A4D2" stroke="none" d="
M 30.25 39.2
L 30.25 34.25 25.3 34.25 25.3 39.2 30.25 39.2 Z"/>
</g>

<g id="icon_r_box_02_41_Layer2_0_MEMBER_0_MEMBER_1_MEMBER_5_MEMBER_6_MEMBER_0_FILL">
<path fill="#BAE6FF" stroke="none" d="
M 15.35 44.15
L 15.35 39.2 10.4 39.2 10.4 44.15 15.35 44.15 Z"/>
</g>

<g id="icon_r_box_02_41_Layer2_0_MEMBER_0_MEMBER_1_MEMBER_5_MEMBER_6_MEMBER_1_FILL">
<path fill="#76A4D2" stroke="none" d="
M 20.35 44.15
L 20.35 39.2 15.35 39.2 15.35 44.15 20.35 44.15 Z"/>
</g>

<g id="icon_r_box_02_41_Layer2_0_MEMBER_0_MEMBER_1_MEMBER_5_MEMBER_6_MEMBER_2_FILL">
<path fill="#BAE6FF" stroke="none" d="
M 25.3 44.15
L 25.3 39.2 20.35 39.2 20.35 44.15 25.3 44.15 Z"/>
</g>

<g id="icon_r_box_02_41_Layer2_0_MEMBER_0_MEMBER_1_MEMBER_5_MEMBER_6_MEMBER_3_FILL">
<path fill="#76A4D2" stroke="none" d="
M 30.25 44.15
L 30.25 39.2 25.3 39.2 25.3 44.15 30.25 44.15 Z"/>
</g>

<g id="icon_r_box_02_41_Layer2_0_MEMBER_0_MEMBER_1_MEMBER_5_MEMBER_7_MEMBER_0_FILL">
<path fill="#BAE6FF" stroke="none" d="
M 15.35 49.1
L 15.35 44.15 10.4 44.15 10.4 49.1 15.35 49.1 Z"/>
</g>

<g id="icon_r_box_02_41_Layer2_0_MEMBER_0_MEMBER_1_MEMBER_5_MEMBER_7_MEMBER_1_FILL">
<path fill="#76A4D2" stroke="none" d="
M 20.35 49.1
L 20.35 44.15 15.35 44.15 15.35 49.1 20.35 49.1 Z"/>
</g>

<g id="icon_r_box_02_41_Layer2_0_MEMBER_0_MEMBER_1_MEMBER_5_MEMBER_7_MEMBER_2_FILL">
<path fill="#BAE6FF" stroke="none" d="
M 25.3 49.1
L 25.3 44.15 20.35 44.15 20.35 49.1 25.3 49.1 Z"/>
</g>

<g id="icon_r_box_02_41_Layer2_0_MEMBER_0_MEMBER_1_MEMBER_5_MEMBER_7_MEMBER_3_FILL">
<path fill="#76A4D2" stroke="none" d="
M 30.25 49.1
L 30.25 44.15 25.3 44.15 25.3 49.1 30.25 49.1 Z"/>
</g>

<g id="icon_r_box_02_41_Layer2_0_MEMBER_0_MEMBER_2_FILL">
<path fill="#E14B49" stroke="none" d="
M 22.75 57.6
L 22.75 51.55 17.9 51.55 17.9 57.6 22.75 57.6 Z"/>
</g>

<g id="icon_r_box_02_41_Layer2_0_MEMBER_0_MEMBER_4_FILL">
<path fill="#FF5B5B" stroke="none" d="
M 14.9 1.5
Q 13.65 2.45 13.25 3.95
L 27.7 3.95
Q 27.3 2.45 26.05 1.5 24.75 0.5 23.15 0.5
L 17.8 0.5
Q 16.15 0.5 14.9 1.5 Z"/>
</g>

<path id="icon_r_box_02_41_Layer2_0_MEMBER_0_MEMBER_0_1_STROKES" stroke="#000000" stroke-width="1" stroke-linejoin="round" stroke-linecap="round" fill="none" d="
M 23.15 0.5
L 17.8 0.5
Q 15.8 0.5 14.45 1.9 13.05 3.3 13.05 5.25
L 13.05 11.65 27.9 11.65 27.9 5.25
Q 27.9 3.3 26.5 1.9 25.1 0.5 23.15 0.5 Z"/>

<path id="icon_r_box_02_41_Layer2_0_MEMBER_0_MEMBER_1_MEMBER_0_1_STROKES" stroke="#000000" stroke-width="1" stroke-linejoin="round" stroke-linecap="round" fill="none" d="
M 34.85 57.6
L 5.8 57.6 5.8 9.45 34.85 9.45 34.85 57.6 Z"/>

<path id="icon_r_box_02_41_Layer2_0_MEMBER_0_MEMBER_1_MEMBER_1_1_STROKES" stroke="#000000" stroke-width="1" stroke-linejoin="round" stroke-linecap="round" fill="none" d="
M 30.25 57.6
L 10.4 57.6 10.4 9.45 30.25 9.45 30.25 57.6 Z"/>

<path id="icon_r_box_02_41_Layer2_0_MEMBER_0_MEMBER_1_MEMBER_2_1_STROKES" stroke="#000000" stroke-width="1" stroke-linejoin="round" stroke-linecap="round" fill="none" d="
M 30.25 57.6
L 10.4 57.6 10.4 49.1 30.25 49.1 30.25 57.6 Z"/>

<path id="icon_r_box_02_41_Layer2_0_MEMBER_0_MEMBER_1_MEMBER_3_1_STROKES" stroke="#000000" stroke-width="1" stroke-linejoin="round" stroke-linecap="round" fill="none" d="
M 27.15 57.6
L 13.5 57.6 13.5 49.1 27.15 49.1 27.15 57.6 Z"/>

<path id="icon_r_box_02_41_Layer2_0_MEMBER_0_MEMBER_1_MEMBER_4_MEMBER_0_1_STROKES" stroke="#000000" stroke-width="1" stroke-linejoin="round" stroke-linecap="round" fill="none" d="
M 0.5 57.6
L 40.15 57.6"/>

<path id="icon_r_box_02_41_Layer2_0_MEMBER_0_MEMBER_1_MEMBER_5_MEMBER_0_MEMBER_0_1_STROKES" stroke="#000000" stroke-width="1" stroke-linejoin="round" stroke-linecap="round" fill="none" d="
M 15.35 14.4
L 10.4 14.4 10.4 9.45 15.35 9.45 15.35 14.4 Z"/>

<path id="icon_r_box_02_41_Layer2_0_MEMBER_0_MEMBER_1_MEMBER_5_MEMBER_0_MEMBER_1_1_STROKES" stroke="#000000" stroke-width="1" stroke-linejoin="round" stroke-linecap="round" fill="none" d="
M 20.35 14.4
L 15.35 14.4 15.35 9.45 20.35 9.45 20.35 14.4 Z"/>

<path id="icon_r_box_02_41_Layer2_0_MEMBER_0_MEMBER_1_MEMBER_5_MEMBER_0_MEMBER_2_1_STROKES" stroke="#000000" stroke-width="1" stroke-linejoin="round" stroke-linecap="round" fill="none" d="
M 25.3 14.4
L 20.35 14.4 20.35 9.45 25.3 9.45 25.3 14.4 Z"/>

<path id="icon_r_box_02_41_Layer2_0_MEMBER_0_MEMBER_1_MEMBER_5_MEMBER_0_MEMBER_3_1_STROKES" stroke="#000000" stroke-width="1" stroke-linejoin="round" stroke-linecap="round" fill="none" d="
M 30.25 14.4
L 25.3 14.4 25.3 9.45 30.25 9.45 30.25 14.4 Z"/>

<path id="icon_r_box_02_41_Layer2_0_MEMBER_0_MEMBER_1_MEMBER_5_MEMBER_1_MEMBER_0_1_STROKES" stroke="#000000" stroke-width="1" stroke-linejoin="round" stroke-linecap="round" fill="none" d="
M 15.35 19.4
L 10.4 19.4 10.4 14.4 15.35 14.4 15.35 19.4 Z"/>

<path id="icon_r_box_02_41_Layer2_0_MEMBER_0_MEMBER_1_MEMBER_5_MEMBER_1_MEMBER_1_1_STROKES" stroke="#000000" stroke-width="1" stroke-linejoin="round" stroke-linecap="round" fill="none" d="
M 20.35 19.4
L 15.35 19.4 15.35 14.4 20.35 14.4 20.35 19.4 Z"/>

<path id="icon_r_box_02_41_Layer2_0_MEMBER_0_MEMBER_1_MEMBER_5_MEMBER_1_MEMBER_2_1_STROKES" stroke="#000000" stroke-width="1" stroke-linejoin="round" stroke-linecap="round" fill="none" d="
M 25.3 19.4
L 20.35 19.4 20.35 14.4 25.3 14.4 25.3 19.4 Z"/>

<path id="icon_r_box_02_41_Layer2_0_MEMBER_0_MEMBER_1_MEMBER_5_MEMBER_1_MEMBER_3_1_STROKES" stroke="#000000" stroke-width="1" stroke-linejoin="round" stroke-linecap="round" fill="none" d="
M 30.25 19.4
L 25.3 19.4 25.3 14.4 30.25 14.4 30.25 19.4 Z"/>

<path id="icon_r_box_02_41_Layer2_0_MEMBER_0_MEMBER_1_MEMBER_5_MEMBER_2_MEMBER_0_1_STROKES" stroke="#000000" stroke-width="1" stroke-linejoin="round" stroke-linecap="round" fill="none" d="
M 15.35 24.35
L 10.4 24.35 10.4 19.4 15.35 19.4 15.35 24.35 Z"/>

<path id="icon_r_box_02_41_Layer2_0_MEMBER_0_MEMBER_1_MEMBER_5_MEMBER_2_MEMBER_1_1_STROKES" stroke="#000000" stroke-width="1" stroke-linejoin="round" stroke-linecap="round" fill="none" d="
M 20.35 24.35
L 15.35 24.35 15.35 19.4 20.35 19.4 20.35 24.35 Z"/>

<path id="icon_r_box_02_41_Layer2_0_MEMBER_0_MEMBER_1_MEMBER_5_MEMBER_2_MEMBER_2_1_STROKES" stroke="#000000" stroke-width="1" stroke-linejoin="round" stroke-linecap="round" fill="none" d="
M 25.3 24.35
L 20.35 24.35 20.35 19.4 25.3 19.4 25.3 24.35 Z"/>

<path id="icon_r_box_02_41_Layer2_0_MEMBER_0_MEMBER_1_MEMBER_5_MEMBER_2_MEMBER_3_1_STROKES" stroke="#000000" stroke-width="1" stroke-linejoin="round" stroke-linecap="round" fill="none" d="
M 30.25 24.35
L 25.3 24.35 25.3 19.4 30.25 19.4 30.25 24.35 Z"/>

<path id="icon_r_box_02_41_Layer2_0_MEMBER_0_MEMBER_1_MEMBER_5_MEMBER_3_MEMBER_0_1_STROKES" stroke="#000000" stroke-width="1" stroke-linejoin="round" stroke-linecap="round" fill="none" d="
M 15.35 29.3
L 10.4 29.3 10.4 24.35 15.35 24.35 15.35 29.3 Z"/>

<path id="icon_r_box_02_41_Layer2_0_MEMBER_0_MEMBER_1_MEMBER_5_MEMBER_3_MEMBER_1_1_STROKES" stroke="#000000" stroke-width="1" stroke-linejoin="round" stroke-linecap="round" fill="none" d="
M 20.35 29.3
L 15.35 29.3 15.35 24.35 20.35 24.35 20.35 29.3 Z"/>

<path id="icon_r_box_02_41_Layer2_0_MEMBER_0_MEMBER_1_MEMBER_5_MEMBER_3_MEMBER_2_1_STROKES" stroke="#000000" stroke-width="1" stroke-linejoin="round" stroke-linecap="round" fill="none" d="
M 25.3 29.3
L 20.35 29.3 20.35 24.35 25.3 24.35 25.3 29.3 Z"/>

<path id="icon_r_box_02_41_Layer2_0_MEMBER_0_MEMBER_1_MEMBER_5_MEMBER_3_MEMBER_3_1_STROKES" stroke="#000000" stroke-width="1" stroke-linejoin="round" stroke-linecap="round" fill="none" d="
M 30.25 29.3
L 25.3 29.3 25.3 24.35 30.25 24.35 30.25 29.3 Z"/>

<path id="icon_r_box_02_41_Layer2_0_MEMBER_0_MEMBER_1_MEMBER_5_MEMBER_4_MEMBER_0_1_STROKES" stroke="#000000" stroke-width="1" stroke-linejoin="round" stroke-linecap="round" fill="none" d="
M 15.35 34.25
L 10.4 34.25 10.4 29.3 15.35 29.3 15.35 34.25 Z"/>

<path id="icon_r_box_02_41_Layer2_0_MEMBER_0_MEMBER_1_MEMBER_5_MEMBER_4_MEMBER_1_1_STROKES" stroke="#000000" stroke-width="1" stroke-linejoin="round" stroke-linecap="round" fill="none" d="
M 20.35 34.25
L 15.35 34.25 15.35 29.3 20.35 29.3 20.35 34.25 Z"/>

<path id="icon_r_box_02_41_Layer2_0_MEMBER_0_MEMBER_1_MEMBER_5_MEMBER_4_MEMBER_2_1_STROKES" stroke="#000000" stroke-width="1" stroke-linejoin="round" stroke-linecap="round" fill="none" d="
M 25.3 34.25
L 20.35 34.25 20.35 29.3 25.3 29.3 25.3 34.25 Z"/>

<path id="icon_r_box_02_41_Layer2_0_MEMBER_0_MEMBER_1_MEMBER_5_MEMBER_4_MEMBER_3_1_STROKES" stroke="#000000" stroke-width="1" stroke-linejoin="round" stroke-linecap="round" fill="none" d="
M 30.25 34.25
L 25.3 34.25 25.3 29.3 30.25 29.3 30.25 34.25 Z"/>

<path id="icon_r_box_02_41_Layer2_0_MEMBER_0_MEMBER_1_MEMBER_5_MEMBER_5_MEMBER_0_1_STROKES" stroke="#000000" stroke-width="1" stroke-linejoin="round" stroke-linecap="round" fill="none" d="
M 15.35 39.2
L 10.4 39.2 10.4 34.25 15.35 34.25 15.35 39.2 Z"/>

<path id="icon_r_box_02_41_Layer2_0_MEMBER_0_MEMBER_1_MEMBER_5_MEMBER_5_MEMBER_1_1_STROKES" stroke="#000000" stroke-width="1" stroke-linejoin="round" stroke-linecap="round" fill="none" d="
M 20.35 39.2
L 15.35 39.2 15.35 34.25 20.35 34.25 20.35 39.2 Z"/>

<path id="icon_r_box_02_41_Layer2_0_MEMBER_0_MEMBER_1_MEMBER_5_MEMBER_5_MEMBER_2_1_STROKES" stroke="#000000" stroke-width="1" stroke-linejoin="round" stroke-linecap="round" fill="none" d="
M 25.3 39.2
L 20.35 39.2 20.35 34.25 25.3 34.25 25.3 39.2 Z"/>

<path id="icon_r_box_02_41_Layer2_0_MEMBER_0_MEMBER_1_MEMBER_5_MEMBER_5_MEMBER_3_1_STROKES" stroke="#000000" stroke-width="1" stroke-linejoin="round" stroke-linecap="round" fill="none" d="
M 30.25 39.2
L 25.3 39.2 25.3 34.25 30.25 34.25 30.25 39.2 Z"/>

<path id="icon_r_box_02_41_Layer2_0_MEMBER_0_MEMBER_1_MEMBER_5_MEMBER_6_MEMBER_0_1_STROKES" stroke="#000000" stroke-width="1" stroke-linejoin="round" stroke-linecap="round" fill="none" d="
M 15.35 44.15
L 10.4 44.15 10.4 39.2 15.35 39.2 15.35 44.15 Z"/>

<path id="icon_r_box_02_41_Layer2_0_MEMBER_0_MEMBER_1_MEMBER_5_MEMBER_6_MEMBER_1_1_STROKES" stroke="#000000" stroke-width="1" stroke-linejoin="round" stroke-linecap="round" fill="none" d="
M 20.35 44.15
L 15.35 44.15 15.35 39.2 20.35 39.2 20.35 44.15 Z"/>

<path id="icon_r_box_02_41_Layer2_0_MEMBER_0_MEMBER_1_MEMBER_5_MEMBER_6_MEMBER_2_1_STROKES" stroke="#000000" stroke-width="1" stroke-linejoin="round" stroke-linecap="round" fill="none" d="
M 25.3 44.15
L 20.35 44.15 20.35 39.2 25.3 39.2 25.3 44.15 Z"/>

<path id="icon_r_box_02_41_Layer2_0_MEMBER_0_MEMBER_1_MEMBER_5_MEMBER_6_MEMBER_3_1_STROKES" stroke="#000000" stroke-width="1" stroke-linejoin="round" stroke-linecap="round" fill="none" d="
M 30.25 44.15
L 25.3 44.15 25.3 39.2 30.25 39.2 30.25 44.15 Z"/>

<path id="icon_r_box_02_41_Layer2_0_MEMBER_0_MEMBER_1_MEMBER_5_MEMBER_7_MEMBER_0_1_STROKES" stroke="#000000" stroke-width="1" stroke-linejoin="round" stroke-linecap="round" fill="none" d="
M 15.35 49.1
L 10.4 49.1 10.4 44.15 15.35 44.15 15.35 49.1 Z"/>

<path id="icon_r_box_02_41_Layer2_0_MEMBER_0_MEMBER_1_MEMBER_5_MEMBER_7_MEMBER_1_1_STROKES" stroke="#000000" stroke-width="1" stroke-linejoin="round" stroke-linecap="round" fill="none" d="
M 20.35 49.1
L 15.35 49.1 15.35 44.15 20.35 44.15 20.35 49.1 Z"/>

<path id="icon_r_box_02_41_Layer2_0_MEMBER_0_MEMBER_1_MEMBER_5_MEMBER_7_MEMBER_2_1_STROKES" stroke="#000000" stroke-width="1" stroke-linejoin="round" stroke-linecap="round" fill="none" d="
M 25.3 49.1
L 20.35 49.1 20.35 44.15 25.3 44.15 25.3 49.1 Z"/>

<path id="icon_r_box_02_41_Layer2_0_MEMBER_0_MEMBER_1_MEMBER_5_MEMBER_7_MEMBER_3_1_STROKES" stroke="#000000" stroke-width="1" stroke-linejoin="round" stroke-linecap="round" fill="none" d="
M 30.25 49.1
L 25.3 49.1 25.3 44.15 30.25 44.15 30.25 49.1 Z"/>

<path id="icon_r_box_02_41_Layer2_0_MEMBER_0_MEMBER_2_1_STROKES" stroke="#000000" stroke-width="1" stroke-linejoin="round" stroke-linecap="round" fill="none" d="
M 22.75 57.6
L 17.9 57.6 17.9 51.55 22.75 51.55 22.75 57.6 Z"/>

<path id="icon_r_box_02_41_Layer2_0_MEMBER_0_MEMBER_3_MEMBER_0_MEMBER_0_1_STROKES" stroke="#000000" stroke-width="1" stroke-linejoin="round" stroke-linecap="round" fill="none" d="
M 15.95 5.9
L 15.95 7.05"/>

<path id="icon_r_box_02_41_Layer2_0_MEMBER_0_MEMBER_3_MEMBER_1_MEMBER_0_1_STROKES" stroke="#000000" stroke-width="1" stroke-linejoin="round" stroke-linecap="round" fill="none" d="
M 18.85 5.9
L 18.85 7.05"/>

<path id="icon_r_box_02_41_Layer2_0_MEMBER_0_MEMBER_3_MEMBER_2_MEMBER_0_1_STROKES" stroke="#000000" stroke-width="1" stroke-linejoin="round" stroke-linecap="round" fill="none" d="
M 21.8 5.9
L 21.8 7.05"/>

<path id="icon_r_box_02_41_Layer2_0_MEMBER_0_MEMBER_3_MEMBER_3_MEMBER_0_1_STROKES" stroke="#000000" stroke-width="1" stroke-linejoin="round" stroke-linecap="round" fill="none" d="
M 24.7 5.9
L 24.7 7.05"/>

<path id="icon_r_box_02_41_Layer2_0_MEMBER_0_MEMBER_4_1_STROKES" stroke="#000000" stroke-width="1" stroke-linejoin="round" stroke-linecap="butt" fill="none" d="
M 13.25 3.95
L 27.7 3.95
Q 27.3 2.45 26.05 1.5 24.75 0.5 23.15 0.5
L 17.8 0.5
Q 16.15 0.5 14.9 1.5 13.65 2.45 13.25 3.95 Z"/>
</defs>

<g transform="matrix( 1, 0, 0, 0.999603271484375, 65,60) ">
<g transform="matrix( 1, 0, 0, 1, 0,0) ">
<use xlink:href="#icon_r_box_02_41_Layer3_0_FILL"/>
</g>

<g transform="matrix( 1, 0, 0, 1, -0.05,0.05) ">
<use xlink:href="#icon_r_box_02_41_Layer3_1_FILL"/>
</g>

<g transform="matrix( 1, 0, 0, 1, 0,-2.15) ">
<use xlink:href="#icon_r_box_02_41_Layer3_2_FILL"/>
</g>

<g transform="matrix( 1, 0, 0, 1, 0,0.05) ">
<use xlink:href="#icon_r_box_02_41_Layer3_3_FILL"/>
</g>

<g transform="matrix( 1, 0, 0, 1, -20.3,-42.8) ">
<use xlink:href="#icon_r_box_02_41_Layer2_0_MEMBER_0_MEMBER_0_FILL"/>

<use xlink:href="#icon_r_box_02_41_Layer2_0_MEMBER_0_MEMBER_0_1_STROKES"/>
</g>

<g transform="matrix( 1, 0, 0, 1, -20.3,-42.8) ">
<use xlink:href="#icon_r_box_02_41_Layer2_0_MEMBER_0_MEMBER_1_MEMBER_0_FILL"/>

<use xlink:href="#icon_r_box_02_41_Layer2_0_MEMBER_0_MEMBER_1_MEMBER_0_1_STROKES"/>
</g>

<g transform="matrix( 1, 0, 0, 1, -20.3,-42.8) ">
<use xlink:href="#icon_r_box_02_41_Layer2_0_MEMBER_0_MEMBER_1_MEMBER_1_FILL"/>

<use xlink:href="#icon_r_box_02_41_Layer2_0_MEMBER_0_MEMBER_1_MEMBER_1_1_STROKES"/>
</g>

<g transform="matrix( 1, 0, 0, 1, -20.3,-42.8) ">
<use xlink:href="#icon_r_box_02_41_Layer2_0_MEMBER_0_MEMBER_1_MEMBER_2_FILL"/>

<use xlink:href="#icon_r_box_02_41_Layer2_0_MEMBER_0_MEMBER_1_MEMBER_2_1_STROKES"/>
</g>

<g transform="matrix( 1, 0, 0, 1, -20.3,-42.8) ">
<use xlink:href="#icon_r_box_02_41_Layer2_0_MEMBER_0_MEMBER_1_MEMBER_3_FILL"/>

<use xlink:href="#icon_r_box_02_41_Layer2_0_MEMBER_0_MEMBER_1_MEMBER_3_1_STROKES"/>
</g>

<g transform="matrix( 1, 0, 0, 1, -20.3,-42.8) ">
<use xlink:href="#icon_r_box_02_41_Layer2_0_MEMBER_0_MEMBER_1_MEMBER_4_MEMBER_0_1_STROKES"/>
</g>

<g transform="matrix( 1, 0, 0, 1, -20.3,-42.8) ">
<use xlink:href="#icon_r_box_02_41_Layer2_0_MEMBER_0_MEMBER_1_MEMBER_5_MEMBER_0_MEMBER_0_FILL"/>

<use xlink:href="#icon_r_box_02_41_Layer2_0_MEMBER_0_MEMBER_1_MEMBER_5_MEMBER_0_MEMBER_0_1_STROKES"/>
</g>

<g transform="matrix( 1, 0, 0, 1, -20.3,-42.8) ">
<use xlink:href="#icon_r_box_02_41_Layer2_0_MEMBER_0_MEMBER_1_MEMBER_5_MEMBER_0_MEMBER_1_FILL"/>

<use xlink:href="#icon_r_box_02_41_Layer2_0_MEMBER_0_MEMBER_1_MEMBER_5_MEMBER_0_MEMBER_1_1_STROKES"/>
</g>

<g transform="matrix( 1, 0, 0, 1, -20.3,-42.8) ">
<use xlink:href="#icon_r_box_02_41_Layer2_0_MEMBER_0_MEMBER_1_MEMBER_5_MEMBER_0_MEMBER_2_FILL"/>

<use xlink:href="#icon_r_box_02_41_Layer2_0_MEMBER_0_MEMBER_1_MEMBER_5_MEMBER_0_MEMBER_2_1_STROKES"/>
</g>

<g transform="matrix( 1, 0, 0, 1, -20.3,-42.8) ">
<use xlink:href="#icon_r_box_02_41_Layer2_0_MEMBER_0_MEMBER_1_MEMBER_5_MEMBER_0_MEMBER_3_FILL"/>

<use xlink:href="#icon_r_box_02_41_Layer2_0_MEMBER_0_MEMBER_1_MEMBER_5_MEMBER_0_MEMBER_3_1_STROKES"/>
</g>

<g transform="matrix( 1, 0, 0, 1, -20.3,-42.8) ">
<use xlink:href="#icon_r_box_02_41_Layer2_0_MEMBER_0_MEMBER_1_MEMBER_5_MEMBER_1_MEMBER_0_FILL"/>

<use xlink:href="#icon_r_box_02_41_Layer2_0_MEMBER_0_MEMBER_1_MEMBER_5_MEMBER_1_MEMBER_0_1_STROKES"/>
</g>

<g transform="matrix( 1, 0, 0, 1, -20.3,-42.8) ">
<use xlink:href="#icon_r_box_02_41_Layer2_0_MEMBER_0_MEMBER_1_MEMBER_5_MEMBER_1_MEMBER_1_FILL"/>

<use xlink:href="#icon_r_box_02_41_Layer2_0_MEMBER_0_MEMBER_1_MEMBER_5_MEMBER_1_MEMBER_1_1_STROKES"/>
</g>

<g transform="matrix( 1, 0, 0, 1, -20.3,-42.8) ">
<use xlink:href="#icon_r_box_02_41_Layer2_0_MEMBER_0_MEMBER_1_MEMBER_5_MEMBER_1_MEMBER_2_FILL"/>

<use xlink:href="#icon_r_box_02_41_Layer2_0_MEMBER_0_MEMBER_1_MEMBER_5_MEMBER_1_MEMBER_2_1_STROKES"/>
</g>

<g transform="matrix( 1, 0, 0, 1, -20.3,-42.8) ">
<use xlink:href="#icon_r_box_02_41_Layer2_0_MEMBER_0_MEMBER_1_MEMBER_5_MEMBER_1_MEMBER_3_FILL"/>

<use xlink:href="#icon_r_box_02_41_Layer2_0_MEMBER_0_MEMBER_1_MEMBER_5_MEMBER_1_MEMBER_3_1_STROKES"/>
</g>

<g transform="matrix( 1, 0, 0, 1, -20.3,-42.8) ">
<use xlink:href="#icon_r_box_02_41_Layer2_0_MEMBER_0_MEMBER_1_MEMBER_5_MEMBER_2_MEMBER_0_FILL"/>

<use xlink:href="#icon_r_box_02_41_Layer2_0_MEMBER_0_MEMBER_1_MEMBER_5_MEMBER_2_MEMBER_0_1_STROKES"/>
</g>

<g transform="matrix( 1, 0, 0, 1, -20.3,-42.8) ">
<use xlink:href="#icon_r_box_02_41_Layer2_0_MEMBER_0_MEMBER_1_MEMBER_5_MEMBER_2_MEMBER_1_FILL"/>

<use xlink:href="#icon_r_box_02_41_Layer2_0_MEMBER_0_MEMBER_1_MEMBER_5_MEMBER_2_MEMBER_1_1_STROKES"/>
</g>

<g transform="matrix( 1, 0, 0, 1, -20.3,-42.8) ">
<use xlink:href="#icon_r_box_02_41_Layer2_0_MEMBER_0_MEMBER_1_MEMBER_5_MEMBER_2_MEMBER_2_FILL"/>

<use xlink:href="#icon_r_box_02_41_Layer2_0_MEMBER_0_MEMBER_1_MEMBER_5_MEMBER_2_MEMBER_2_1_STROKES"/>
</g>

<g transform="matrix( 1, 0, 0, 1, -20.3,-42.8) ">
<use xlink:href="#icon_r_box_02_41_Layer2_0_MEMBER_0_MEMBER_1_MEMBER_5_MEMBER_2_MEMBER_3_FILL"/>

<use xlink:href="#icon_r_box_02_41_Layer2_0_MEMBER_0_MEMBER_1_MEMBER_5_MEMBER_2_MEMBER_3_1_STROKES"/>
</g>

<g transform="matrix( 1, 0, 0, 1, -20.3,-42.8) ">
<use xlink:href="#icon_r_box_02_41_Layer2_0_MEMBER_0_MEMBER_1_MEMBER_5_MEMBER_3_MEMBER_0_FILL"/>

<use xlink:href="#icon_r_box_02_41_Layer2_0_MEMBER_0_MEMBER_1_MEMBER_5_MEMBER_3_MEMBER_0_1_STROKES"/>
</g>

<g transform="matrix( 1, 0, 0, 1, -20.3,-42.8) ">
<use xlink:href="#icon_r_box_02_41_Layer2_0_MEMBER_0_MEMBER_1_MEMBER_5_MEMBER_3_MEMBER_1_FILL"/>

<use xlink:href="#icon_r_box_02_41_Layer2_0_MEMBER_0_MEMBER_1_MEMBER_5_MEMBER_3_MEMBER_1_1_STROKES"/>
</g>

<g transform="matrix( 1, 0, 0, 1, -20.3,-42.8) ">
<use xlink:href="#icon_r_box_02_41_Layer2_0_MEMBER_0_MEMBER_1_MEMBER_5_MEMBER_3_MEMBER_2_FILL"/>

<use xlink:href="#icon_r_box_02_41_Layer2_0_MEMBER_0_MEMBER_1_MEMBER_5_MEMBER_3_MEMBER_2_1_STROKES"/>
</g>

<g transform="matrix( 1, 0, 0, 1, -20.3,-42.8) ">
<use xlink:href="#icon_r_box_02_41_Layer2_0_MEMBER_0_MEMBER_1_MEMBER_5_MEMBER_3_MEMBER_3_FILL"/>

<use xlink:href="#icon_r_box_02_41_Layer2_0_MEMBER_0_MEMBER_1_MEMBER_5_MEMBER_3_MEMBER_3_1_STROKES"/>
</g>

<g transform="matrix( 1, 0, 0, 1, -20.3,-42.8) ">
<use xlink:href="#icon_r_box_02_41_Layer2_0_MEMBER_0_MEMBER_1_MEMBER_5_MEMBER_4_MEMBER_0_FILL"/>

<use xlink:href="#icon_r_box_02_41_Layer2_0_MEMBER_0_MEMBER_1_MEMBER_5_MEMBER_4_MEMBER_0_1_STROKES"/>
</g>

<g transform="matrix( 1, 0, 0, 1, -20.3,-42.8) ">
<use xlink:href="#icon_r_box_02_41_Layer2_0_MEMBER_0_MEMBER_1_MEMBER_5_MEMBER_4_MEMBER_1_FILL"/>

<use xlink:href="#icon_r_box_02_41_Layer2_0_MEMBER_0_MEMBER_1_MEMBER_5_MEMBER_4_MEMBER_1_1_STROKES"/>
</g>

<g transform="matrix( 1, 0, 0, 1, -20.3,-42.8) ">
<use xlink:href="#icon_r_box_02_41_Layer2_0_MEMBER_0_MEMBER_1_MEMBER_5_MEMBER_4_MEMBER_2_FILL"/>

<use xlink:href="#icon_r_box_02_41_Layer2_0_MEMBER_0_MEMBER_1_MEMBER_5_MEMBER_4_MEMBER_2_1_STROKES"/>
</g>

<g transform="matrix( 1, 0, 0, 1, -20.3,-42.8) ">
<use xlink:href="#icon_r_box_02_41_Layer2_0_MEMBER_0_MEMBER_1_MEMBER_5_MEMBER_4_MEMBER_3_FILL"/>

<use xlink:href="#icon_r_box_02_41_Layer2_0_MEMBER_0_MEMBER_1_MEMBER_5_MEMBER_4_MEMBER_3_1_STROKES"/>
</g>

<g transform="matrix( 1, 0, 0, 1, -20.3,-42.8) ">
<use xlink:href="#icon_r_box_02_41_Layer2_0_MEMBER_0_MEMBER_1_MEMBER_5_MEMBER_5_MEMBER_0_FILL"/>

<use xlink:href="#icon_r_box_02_41_Layer2_0_MEMBER_0_MEMBER_1_MEMBER_5_MEMBER_5_MEMBER_0_1_STROKES"/>
</g>

<g transform="matrix( 1, 0, 0, 1, -20.3,-42.8) ">
<use xlink:href="#icon_r_box_02_41_Layer2_0_MEMBER_0_MEMBER_1_MEMBER_5_MEMBER_5_MEMBER_1_FILL"/>

<use xlink:href="#icon_r_box_02_41_Layer2_0_MEMBER_0_MEMBER_1_MEMBER_5_MEMBER_5_MEMBER_1_1_STROKES"/>
</g>

<g transform="matrix( 1, 0, 0, 1, -20.3,-42.8) ">
<use xlink:href="#icon_r_box_02_41_Layer2_0_MEMBER_0_MEMBER_1_MEMBER_5_MEMBER_5_MEMBER_2_FILL"/>

<use xlink:href="#icon_r_box_02_41_Layer2_0_MEMBER_0_MEMBER_1_MEMBER_5_MEMBER_5_MEMBER_2_1_STROKES"/>
</g>

<g transform="matrix( 1, 0, 0, 1, -20.3,-42.8) ">
<use xlink:href="#icon_r_box_02_41_Layer2_0_MEMBER_0_MEMBER_1_MEMBER_5_MEMBER_5_MEMBER_3_FILL"/>

<use xlink:href="#icon_r_box_02_41_Layer2_0_MEMBER_0_MEMBER_1_MEMBER_5_MEMBER_5_MEMBER_3_1_STROKES"/>
</g>

<g transform="matrix( 1, 0, 0, 1, -20.3,-42.8) ">
<use xlink:href="#icon_r_box_02_41_Layer2_0_MEMBER_0_MEMBER_1_MEMBER_5_MEMBER_6_MEMBER_0_FILL"/>

<use xlink:href="#icon_r_box_02_41_Layer2_0_MEMBER_0_MEMBER_1_MEMBER_5_MEMBER_6_MEMBER_0_1_STROKES"/>
</g>

<g transform="matrix( 1, 0, 0, 1, -20.3,-42.8) ">
<use xlink:href="#icon_r_box_02_41_Layer2_0_MEMBER_0_MEMBER_1_MEMBER_5_MEMBER_6_MEMBER_1_FILL"/>

<use xlink:href="#icon_r_box_02_41_Layer2_0_MEMBER_0_MEMBER_1_MEMBER_5_MEMBER_6_MEMBER_1_1_STROKES"/>
</g>

<g transform="matrix( 1, 0, 0, 1, -20.3,-42.8) ">
<use xlink:href="#icon_r_box_02_41_Layer2_0_MEMBER_0_MEMBER_1_MEMBER_5_MEMBER_6_MEMBER_2_FILL"/>

<use xlink:href="#icon_r_box_02_41_Layer2_0_MEMBER_0_MEMBER_1_MEMBER_5_MEMBER_6_MEMBER_2_1_STROKES"/>
</g>

<g transform="matrix( 1, 0, 0, 1, -20.3,-42.8) ">
<use xlink:href="#icon_r_box_02_41_Layer2_0_MEMBER_0_MEMBER_1_MEMBER_5_MEMBER_6_MEMBER_3_FILL"/>

<use xlink:href="#icon_r_box_02_41_Layer2_0_MEMBER_0_MEMBER_1_MEMBER_5_MEMBER_6_MEMBER_3_1_STROKES"/>
</g>

<g transform="matrix( 1, 0, 0, 1, -20.3,-42.8) ">
<use xlink:href="#icon_r_box_02_41_Layer2_0_MEMBER_0_MEMBER_1_MEMBER_5_MEMBER_7_MEMBER_0_FILL"/>

<use xlink:href="#icon_r_box_02_41_Layer2_0_MEMBER_0_MEMBER_1_MEMBER_5_MEMBER_7_MEMBER_0_1_STROKES"/>
</g>

<g transform="matrix( 1, 0, 0, 1, -20.3,-42.8) ">
<use xlink:href="#icon_r_box_02_41_Layer2_0_MEMBER_0_MEMBER_1_MEMBER_5_MEMBER_7_MEMBER_1_FILL"/>

<use xlink:href="#icon_r_box_02_41_Layer2_0_MEMBER_0_MEMBER_1_MEMBER_5_MEMBER_7_MEMBER_1_1_STROKES"/>
</g>

<g transform="matrix( 1, 0, 0, 1, -20.3,-42.8) ">
<use xlink:href="#icon_r_box_02_41_Layer2_0_MEMBER_0_MEMBER_1_MEMBER_5_MEMBER_7_MEMBER_2_FILL"/>

<use xlink:href="#icon_r_box_02_41_Layer2_0_MEMBER_0_MEMBER_1_MEMBER_5_MEMBER_7_MEMBER_2_1_STROKES"/>
</g>

<g transform="matrix( 1, 0, 0, 1, -20.3,-42.8) ">
<use xlink:href="#icon_r_box_02_41_Layer2_0_MEMBER_0_MEMBER_1_MEMBER_5_MEMBER_7_MEMBER_3_FILL"/>

<use xlink:href="#icon_r_box_02_41_Layer2_0_MEMBER_0_MEMBER_1_MEMBER_5_MEMBER_7_MEMBER_3_1_STROKES"/>
</g>

<g transform="matrix( 1, 0, 0, 1, -20.3,-42.8) ">
<use xlink:href="#icon_r_box_02_41_Layer2_0_MEMBER_0_MEMBER_2_FILL"/>

<use xlink:href="#icon_r_box_02_41_Layer2_0_MEMBER_0_MEMBER_2_1_STROKES"/>
</g>

<g transform="matrix( 1, 0, 0, 1, -20.3,-42.8) ">
<use xlink:href="#icon_r_box_02_41_Layer2_0_MEMBER_0_MEMBER_3_MEMBER_0_MEMBER_0_1_STROKES"/>
</g>

<g transform="matrix( 1, 0, 0, 1, -20.3,-42.8) ">
<use xlink:href="#icon_r_box_02_41_Layer2_0_MEMBER_0_MEMBER_3_MEMBER_1_MEMBER_0_1_STROKES"/>
</g>

<g transform="matrix( 1, 0, 0, 1, -20.3,-42.8) ">
<use xlink:href="#icon_r_box_02_41_Layer2_0_MEMBER_0_MEMBER_3_MEMBER_2_MEMBER_0_1_STROKES"/>
</g>

<g transform="matrix( 1, 0, 0, 1, -20.3,-42.8) ">
<use xlink:href="#icon_r_box_02_41_Layer2_0_MEMBER_0_MEMBER_3_MEMBER_3_MEMBER_0_1_STROKES"/>
</g>

<g transform="matrix( 1, 0, 0, 1, -20.3,-42.8) ">
<use xlink:href="#icon_r_box_02_41_Layer2_0_MEMBER_0_MEMBER_4_FILL"/>

<use xlink:href="#icon_r_box_02_41_Layer2_0_MEMBER_0_MEMBER_4_1_STROKES"/>
</g>
</g>
</svg>
