
<svg xmlns="http://www.w3.org/2000/svg" version="1.1" xmlns:xlink="http://www.w3.org/1999/xlink" preserveAspectRatio="none" x="0px" y="0px" width="130px" height="115px" viewBox="0 0 130 115">
<defs>
<g id="icon_r_box_02_53_Layer3_0_FILL">
<path fill="#FFFFFF" fill-opacity="0" stroke="none" d="
M 65 -55
L -65 -55 -65 25 65 25 65 -55 Z"/>
</g>

<g id="icon_r_box_02_53_Layer3_1_FILL">
<path fill="#FFFFFF" fill-opacity="0" stroke="none" d="
M 65.05 49.95
L 65.05 24.95 -64.95 24.95 -64.95 49.95 65.05 49.95 Z"/>
</g>

<g id="icon_r_box_02_53_Layer3_2_FILL">
<path fill="#FFFFFF" fill-opacity="0" stroke="none" d="
M 65 -52.85
L 65 -57.85 -65 -57.85 -65 -52.85 65 -52.85 Z"/>
</g>

<g id="icon_r_box_02_53_Layer3_3_FILL">
<path fill="#FFFFFF" fill-opacity="0" stroke="none" d="
M 65 54.95
L 65 49.95 -65 49.95 -65 54.95 65 54.95 Z"/>
</g>

<g id="icon_r_box_02_53_Layer2_0_MEMBER_0_MEMBER_0_FILL">
<path fill="#FFD252" stroke="none" d="
M 35.8 7
Q 29.85 1 21.4 1 12.95 1 7 7 1 12.95 1 21.4 1 29.85 7 35.8 12.95 41.75 21.4 41.75 29.85 41.75 35.8 35.8 41.8 29.85 41.8 21.4 41.8 12.95 35.8 7 Z"/>
</g>

<path id="icon_r_box_02_53_Layer2_0_MEMBER_0_MEMBER_0_1_STROKES" stroke="#000000" stroke-width="2" stroke-linejoin="miter" stroke-linecap="round" stroke-miterlimit="10" fill="none" d="
M 41.8 21.4
Q 41.8 29.85 35.8 35.8 29.85 41.75 21.4 41.75 12.95 41.75 7 35.8 1 29.85 1 21.4 1 12.95 7 7 12.95 1 21.4 1 29.85 1 35.8 7 41.8 12.95 41.8 21.4 Z"/>

<path id="icon_r_box_02_53_Layer2_0_MEMBER_0_MEMBER_1_1_STROKES" stroke="#000000" stroke-width="2" stroke-linejoin="miter" stroke-linecap="round" stroke-miterlimit="10" fill="none" d="
M 31.9 31.2
Q 30.6 28.95 27.8 27.6 24.9 26.2 21.4 26.2 17.9 26.2 15 27.6 12.2 28.95 10.95 31.2"/>

<path id="icon_r_box_02_53_Layer2_0_MEMBER_1_1_STROKES" stroke="#000000" stroke-width="2" stroke-linejoin="round" stroke-linecap="round" fill="none" d="
M 12.35 15.5
L 17.45 18.45 12.8 20.9"/>

<path id="icon_r_box_02_53_Layer2_0_MEMBER_2_MEMBER_0_1_STROKES" stroke="#000000" stroke-width="2" stroke-linejoin="round" stroke-linecap="round" fill="none" d="
M 30.45 15.5
L 25.4 18.45 30 20.9"/>
</defs>

<g transform="matrix( 1, 0, 0, 0.999603271484375, 65,60) ">
<g transform="matrix( 1, 0, 0, 1, 0,0) ">
<use xlink:href="#icon_r_box_02_53_Layer3_0_FILL"/>
</g>

<g transform="matrix( 1, 0, 0, 1, -0.05,0.05) ">
<use xlink:href="#icon_r_box_02_53_Layer3_1_FILL"/>
</g>

<g transform="matrix( 1, 0, 0, 1, 0,-2.15) ">
<use xlink:href="#icon_r_box_02_53_Layer3_2_FILL"/>
</g>

<g transform="matrix( 1, 0, 0, 1, 0,0.05) ">
<use xlink:href="#icon_r_box_02_53_Layer3_3_FILL"/>
</g>

<g transform="matrix( 1, 0, 0, 1, -21.4,-36.4) ">
<use xlink:href="#icon_r_box_02_53_Layer2_0_MEMBER_0_MEMBER_0_FILL"/>

<use xlink:href="#icon_r_box_02_53_Layer2_0_MEMBER_0_MEMBER_0_1_STROKES"/>
</g>

<g transform="matrix( 1, 0, 0, 1, -21.4,-36.4) ">
<use xlink:href="#icon_r_box_02_53_Layer2_0_MEMBER_0_MEMBER_1_1_STROKES"/>
</g>

<g transform="matrix( 1, 0, 0, 1, -21.4,-36.4) ">
<use xlink:href="#icon_r_box_02_53_Layer2_0_MEMBER_1_1_STROKES"/>
</g>

<g transform="matrix( 1, 0, 0, 1, -21.4,-36.4) ">
<use xlink:href="#icon_r_box_02_53_Layer2_0_MEMBER_2_MEMBER_0_1_STROKES"/>
</g>
</g>
</svg>
