
<svg xmlns="http://www.w3.org/2000/svg" version="1.1" xmlns:xlink="http://www.w3.org/1999/xlink" preserveAspectRatio="none" x="0px" y="0px" width="130px" height="115px" viewBox="0 0 130 115">
<defs>
<g id="icon_r_box_02_39_Layer3_0_FILL">
<path fill="#FFFFFF" fill-opacity="0" stroke="none" d="
M 65 -55
L -65 -55 -65 25 65 25 65 -55 Z"/>
</g>

<g id="icon_r_box_02_39_Layer3_1_FILL">
<path fill="#FFFFFF" fill-opacity="0" stroke="none" d="
M 65.05 49.95
L 65.05 24.95 -64.95 24.95 -64.95 49.95 65.05 49.95 Z"/>
</g>

<g id="icon_r_box_02_39_Layer3_2_FILL">
<path fill="#FFFFFF" fill-opacity="0" stroke="none" d="
M 65 -52.85
L 65 -57.85 -65 -57.85 -65 -52.85 65 -52.85 Z"/>
</g>

<g id="icon_r_box_02_39_Layer3_3_FILL">
<path fill="#FFFFFF" fill-opacity="0" stroke="none" d="
M 65 54.95
L 65 49.95 -65 49.95 -65 54.95 65 54.95 Z"/>
</g>

<g id="icon_r_box_02_39_Layer2_0_MEMBER_0_MEMBER_1_MEMBER_0_FILL">
<path fill="#CBCFD8" stroke="none" d="
M 50.7 10.15
L 50.7 6.8 3.45 6.8 3.45 10.15 50.7 10.15 Z"/>
</g>

<g id="icon_r_box_02_39_Layer2_0_MEMBER_0_MEMBER_1_MEMBER_1_FILL">
<path fill="#E14B49" stroke="none" d="
M 48.8 46.65
L 48.8 10.15 5.35 10.15 5.35 46.65 48.8 46.65 Z"/>
</g>

<g id="icon_r_box_02_39_Layer2_0_MEMBER_0_MEMBER_1_MEMBER_2_MEMBER_0_MEMBER_0_FILL">
<path fill="#CBCFD8" stroke="none" d="
M 39.4 3.8
L 39.4 0.5 14.75 0.5 14.75 3.8 39.4 3.8 Z"/>
</g>

<g id="icon_r_box_02_39_Layer2_0_MEMBER_0_MEMBER_1_MEMBER_2_MEMBER_0_MEMBER_1_FILL">
<path fill="#E14B49" stroke="none" d="
M 38.05 46.65
L 38.05 3.8 16.1 3.8 16.1 46.65 38.05 46.65 Z"/>
</g>

<g id="icon_r_box_02_39_Layer2_0_MEMBER_0_MEMBER_1_MEMBER_2_MEMBER_1_MEMBER_0_FILL">
<path fill="#BAE6FF" stroke="none" d="
M 25.05 12.85
L 25.05 6.7 20.1 6.7 20.1 12.85 25.05 12.85 Z"/>
</g>

<g id="icon_r_box_02_39_Layer2_0_MEMBER_0_MEMBER_1_MEMBER_2_MEMBER_1_MEMBER_1_FILL">
<path fill="#BAE6FF" stroke="none" d="
M 34.05 12.85
L 34.05 6.7 29.1 6.7 29.1 12.85 34.05 12.85 Z"/>
</g>

<g id="icon_r_box_02_39_Layer2_0_MEMBER_0_MEMBER_1_MEMBER_2_MEMBER_2_MEMBER_0_FILL">
<path fill="#BAE6FF" stroke="none" d="
M 25.05 23
L 25.05 16.9 20.1 16.9 20.1 23 25.05 23 Z"/>
</g>

<g id="icon_r_box_02_39_Layer2_0_MEMBER_0_MEMBER_1_MEMBER_2_MEMBER_2_MEMBER_1_FILL">
<path fill="#BAE6FF" stroke="none" d="
M 34.05 23
L 34.05 16.9 29.1 16.9 29.1 23 34.05 23 Z"/>
</g>

<g id="icon_r_box_02_39_Layer2_0_MEMBER_0_MEMBER_1_MEMBER_2_MEMBER_3_MEMBER_0_FILL">
<path fill="#BAE6FF" stroke="none" d="
M 25.05 33.2
L 25.05 27.05 20.1 27.05 20.1 33.2 25.05 33.2 Z"/>
</g>

<g id="icon_r_box_02_39_Layer2_0_MEMBER_0_MEMBER_1_MEMBER_2_MEMBER_3_MEMBER_1_FILL">
<path fill="#BAE6FF" stroke="none" d="
M 34.05 33.2
L 34.05 27.05 29.1 27.05 29.1 33.2 34.05 33.2 Z"/>
</g>

<g id="icon_r_box_02_39_Layer2_0_MEMBER_0_MEMBER_1_MEMBER_2_MEMBER_4_FILL">
<path fill="#FFB299" stroke="none" d="
M 31.35 46.65
L 31.35 37 22.8 37 22.8 46.65 31.35 46.65 Z"/>
</g>

<g id="icon_r_box_02_39_Layer2_0_MEMBER_0_MEMBER_1_MEMBER_3_MEMBER_0_FILL">
<path fill="#BAE6FF" stroke="none" d="
M 13.05 20.75
L 13.05 14.65 8.1 14.65 8.1 20.75 13.05 20.75 Z"/>
</g>

<g id="icon_r_box_02_39_Layer2_0_MEMBER_0_MEMBER_1_MEMBER_3_MEMBER_1_FILL">
<path fill="#BAE6FF" stroke="none" d="
M 13.05 30.95
L 13.05 24.8 8.1 24.8 8.1 30.95 13.05 30.95 Z"/>
</g>

<g id="icon_r_box_02_39_Layer2_0_MEMBER_0_MEMBER_1_MEMBER_3_MEMBER_2_FILL">
<path fill="#BAE6FF" stroke="none" d="
M 13.05 41.1
L 13.05 35 8.1 35 8.1 41.1 13.05 41.1 Z"/>
</g>

<g id="icon_r_box_02_39_Layer2_0_MEMBER_0_MEMBER_1_MEMBER_4_MEMBER_0_FILL">
<path fill="#BAE6FF" stroke="none" d="
M 41.1 14.65
L 41.1 20.75 46.05 20.75 46.05 14.65 41.1 14.65 Z"/>
</g>

<g id="icon_r_box_02_39_Layer2_0_MEMBER_0_MEMBER_1_MEMBER_4_MEMBER_1_FILL">
<path fill="#BAE6FF" stroke="none" d="
M 41.1 24.8
L 41.1 30.95 46.05 30.95 46.05 24.8 41.1 24.8 Z"/>
</g>

<g id="icon_r_box_02_39_Layer2_0_MEMBER_0_MEMBER_1_MEMBER_4_MEMBER_2_FILL">
<path fill="#BAE6FF" stroke="none" d="
M 41.1 35
L 41.1 41.1 46.05 41.1 46.05 35 41.1 35 Z"/>
</g>

<path id="icon_r_box_02_39_Layer2_0_MEMBER_0_MEMBER_0_MEMBER_0_1_STROKES" stroke="#000000" stroke-width="1" stroke-linejoin="round" stroke-linecap="round" fill="none" d="
M 0.5 46.65
L 53.65 46.65"/>

<path id="icon_r_box_02_39_Layer2_0_MEMBER_0_MEMBER_1_MEMBER_0_1_STROKES" stroke="#000000" stroke-width="1" stroke-linejoin="round" stroke-linecap="round" fill="none" d="
M 50.7 10.15
L 3.45 10.15 3.45 6.8 50.7 6.8 50.7 10.15 Z"/>

<path id="icon_r_box_02_39_Layer2_0_MEMBER_0_MEMBER_1_MEMBER_1_1_STROKES" stroke="#000000" stroke-width="1" stroke-linejoin="round" stroke-linecap="round" fill="none" d="
M 48.8 10.15
L 5.35 10.15 5.35 46.65 48.8 46.65 48.8 10.15 Z"/>

<path id="icon_r_box_02_39_Layer2_0_MEMBER_0_MEMBER_1_MEMBER_2_MEMBER_0_MEMBER_0_1_STROKES" stroke="#000000" stroke-width="1" stroke-linejoin="round" stroke-linecap="round" fill="none" d="
M 39.4 3.8
L 14.75 3.8 14.75 0.5 39.4 0.5 39.4 3.8 Z"/>

<path id="icon_r_box_02_39_Layer2_0_MEMBER_0_MEMBER_1_MEMBER_2_MEMBER_0_MEMBER_1_1_STROKES" stroke="#000000" stroke-width="1" stroke-linejoin="round" stroke-linecap="round" fill="none" d="
M 38.05 3.8
L 16.1 3.8 16.1 46.65 38.05 46.65 38.05 3.8 Z"/>

<path id="icon_r_box_02_39_Layer2_0_MEMBER_0_MEMBER_1_MEMBER_2_MEMBER_1_MEMBER_0_1_STROKES" stroke="#000000" stroke-width="1" stroke-linejoin="round" stroke-linecap="round" fill="none" d="
M 25.05 12.85
L 20.1 12.85 20.1 6.7 25.05 6.7 25.05 12.85 Z"/>

<path id="icon_r_box_02_39_Layer2_0_MEMBER_0_MEMBER_1_MEMBER_2_MEMBER_1_MEMBER_1_1_STROKES" stroke="#000000" stroke-width="1" stroke-linejoin="round" stroke-linecap="round" fill="none" d="
M 34.05 12.85
L 29.1 12.85 29.1 6.7 34.05 6.7 34.05 12.85 Z"/>

<path id="icon_r_box_02_39_Layer2_0_MEMBER_0_MEMBER_1_MEMBER_2_MEMBER_2_MEMBER_0_1_STROKES" stroke="#000000" stroke-width="1" stroke-linejoin="round" stroke-linecap="round" fill="none" d="
M 25.05 23
L 20.1 23 20.1 16.9 25.05 16.9 25.05 23 Z"/>

<path id="icon_r_box_02_39_Layer2_0_MEMBER_0_MEMBER_1_MEMBER_2_MEMBER_2_MEMBER_1_1_STROKES" stroke="#000000" stroke-width="1" stroke-linejoin="round" stroke-linecap="round" fill="none" d="
M 34.05 23
L 29.1 23 29.1 16.9 34.05 16.9 34.05 23 Z"/>

<path id="icon_r_box_02_39_Layer2_0_MEMBER_0_MEMBER_1_MEMBER_2_MEMBER_3_MEMBER_0_1_STROKES" stroke="#000000" stroke-width="1" stroke-linejoin="round" stroke-linecap="round" fill="none" d="
M 25.05 33.2
L 20.1 33.2 20.1 27.05 25.05 27.05 25.05 33.2 Z"/>

<path id="icon_r_box_02_39_Layer2_0_MEMBER_0_MEMBER_1_MEMBER_2_MEMBER_3_MEMBER_1_1_STROKES" stroke="#000000" stroke-width="1" stroke-linejoin="round" stroke-linecap="round" fill="none" d="
M 34.05 33.2
L 29.1 33.2 29.1 27.05 34.05 27.05 34.05 33.2 Z"/>

<path id="icon_r_box_02_39_Layer2_0_MEMBER_0_MEMBER_1_MEMBER_2_MEMBER_4_1_STROKES" stroke="#000000" stroke-width="1" stroke-linejoin="round" stroke-linecap="round" fill="none" d="
M 31.35 46.65
L 22.8 46.65 22.8 37 31.35 37 31.35 46.65 Z"/>

<path id="icon_r_box_02_39_Layer2_0_MEMBER_0_MEMBER_1_MEMBER_2_MEMBER_5_MEMBER_0_1_STROKES" stroke="#000000" stroke-width="1" stroke-linejoin="round" stroke-linecap="round" fill="none" d="
M 27.1 37
L 27.1 46.65"/>

<path id="icon_r_box_02_39_Layer2_0_MEMBER_0_MEMBER_1_MEMBER_2_MEMBER_6_MEMBER_0_MEMBER_0_1_STROKES" stroke="#000000" stroke-width="1" stroke-linejoin="round" stroke-linecap="round" fill="none" d="
M 19.6 40.2
L 19.6 42.5"/>

<path id="icon_r_box_02_39_Layer2_0_MEMBER_0_MEMBER_1_MEMBER_2_MEMBER_6_MEMBER_1_MEMBER_0_1_STROKES" stroke="#000000" stroke-width="1" stroke-linejoin="round" stroke-linecap="round" fill="none" d="
M 34.55 40.2
L 34.55 42.5"/>

<path id="icon_r_box_02_39_Layer2_0_MEMBER_0_MEMBER_1_MEMBER_3_MEMBER_0_1_STROKES" stroke="#000000" stroke-width="1" stroke-linejoin="round" stroke-linecap="round" fill="none" d="
M 13.05 20.75
L 8.1 20.75 8.1 14.65 13.05 14.65 13.05 20.75 Z"/>

<path id="icon_r_box_02_39_Layer2_0_MEMBER_0_MEMBER_1_MEMBER_3_MEMBER_1_1_STROKES" stroke="#000000" stroke-width="1" stroke-linejoin="round" stroke-linecap="round" fill="none" d="
M 13.05 30.95
L 8.1 30.95 8.1 24.8 13.05 24.8 13.05 30.95 Z"/>

<path id="icon_r_box_02_39_Layer2_0_MEMBER_0_MEMBER_1_MEMBER_3_MEMBER_2_1_STROKES" stroke="#000000" stroke-width="1" stroke-linejoin="round" stroke-linecap="round" fill="none" d="
M 13.05 41.1
L 8.1 41.1 8.1 35 13.05 35 13.05 41.1 Z"/>

<path id="icon_r_box_02_39_Layer2_0_MEMBER_0_MEMBER_1_MEMBER_4_MEMBER_0_1_STROKES" stroke="#000000" stroke-width="1" stroke-linejoin="round" stroke-linecap="round" fill="none" d="
M 41.1 20.75
L 46.05 20.75 46.05 14.65 41.1 14.65 41.1 20.75 Z"/>

<path id="icon_r_box_02_39_Layer2_0_MEMBER_0_MEMBER_1_MEMBER_4_MEMBER_1_1_STROKES" stroke="#000000" stroke-width="1" stroke-linejoin="round" stroke-linecap="round" fill="none" d="
M 41.1 30.95
L 46.05 30.95 46.05 24.8 41.1 24.8 41.1 30.95 Z"/>

<path id="icon_r_box_02_39_Layer2_0_MEMBER_0_MEMBER_1_MEMBER_4_MEMBER_2_1_STROKES" stroke="#000000" stroke-width="1" stroke-linejoin="round" stroke-linecap="round" fill="none" d="
M 41.1 41.1
L 46.05 41.1 46.05 35 41.1 35 41.1 41.1 Z"/>
</defs>

<g transform="matrix( 1, 0, 0, 0.999603271484375, 65,60) ">
<g transform="matrix( 1, 0, 0, 1, 0,0) ">
<use xlink:href="#icon_r_box_02_39_Layer3_0_FILL"/>
</g>

<g transform="matrix( 1, 0, 0, 1, -0.05,0.05) ">
<use xlink:href="#icon_r_box_02_39_Layer3_1_FILL"/>
</g>

<g transform="matrix( 1, 0, 0, 1, 0,-2.15) ">
<use xlink:href="#icon_r_box_02_39_Layer3_2_FILL"/>
</g>

<g transform="matrix( 1, 0, 0, 1, 0,0.05) ">
<use xlink:href="#icon_r_box_02_39_Layer3_3_FILL"/>
</g>

<g transform="matrix( 1, 0, 0, 1, -27.05,-36.3) ">
<use xlink:href="#icon_r_box_02_39_Layer2_0_MEMBER_0_MEMBER_0_MEMBER_0_1_STROKES"/>
</g>

<g transform="matrix( 1, 0, 0, 1, -27.05,-36.3) ">
<use xlink:href="#icon_r_box_02_39_Layer2_0_MEMBER_0_MEMBER_1_MEMBER_0_FILL"/>

<use xlink:href="#icon_r_box_02_39_Layer2_0_MEMBER_0_MEMBER_1_MEMBER_0_1_STROKES"/>
</g>

<g transform="matrix( 1, 0, 0, 1, -27.05,-36.3) ">
<use xlink:href="#icon_r_box_02_39_Layer2_0_MEMBER_0_MEMBER_1_MEMBER_1_FILL"/>

<use xlink:href="#icon_r_box_02_39_Layer2_0_MEMBER_0_MEMBER_1_MEMBER_1_1_STROKES"/>
</g>

<g transform="matrix( 1, 0, 0, 1, -27.05,-36.3) ">
<use xlink:href="#icon_r_box_02_39_Layer2_0_MEMBER_0_MEMBER_1_MEMBER_2_MEMBER_0_MEMBER_0_FILL"/>

<use xlink:href="#icon_r_box_02_39_Layer2_0_MEMBER_0_MEMBER_1_MEMBER_2_MEMBER_0_MEMBER_0_1_STROKES"/>
</g>

<g transform="matrix( 1, 0, 0, 1, -27.05,-36.3) ">
<use xlink:href="#icon_r_box_02_39_Layer2_0_MEMBER_0_MEMBER_1_MEMBER_2_MEMBER_0_MEMBER_1_FILL"/>

<use xlink:href="#icon_r_box_02_39_Layer2_0_MEMBER_0_MEMBER_1_MEMBER_2_MEMBER_0_MEMBER_1_1_STROKES"/>
</g>

<g transform="matrix( 1, 0, 0, 1, -27.05,-36.3) ">
<use xlink:href="#icon_r_box_02_39_Layer2_0_MEMBER_0_MEMBER_1_MEMBER_2_MEMBER_1_MEMBER_0_FILL"/>

<use xlink:href="#icon_r_box_02_39_Layer2_0_MEMBER_0_MEMBER_1_MEMBER_2_MEMBER_1_MEMBER_0_1_STROKES"/>
</g>

<g transform="matrix( 1, 0, 0, 1, -27.05,-36.3) ">
<use xlink:href="#icon_r_box_02_39_Layer2_0_MEMBER_0_MEMBER_1_MEMBER_2_MEMBER_1_MEMBER_1_FILL"/>

<use xlink:href="#icon_r_box_02_39_Layer2_0_MEMBER_0_MEMBER_1_MEMBER_2_MEMBER_1_MEMBER_1_1_STROKES"/>
</g>

<g transform="matrix( 1, 0, 0, 1, -27.05,-36.3) ">
<use xlink:href="#icon_r_box_02_39_Layer2_0_MEMBER_0_MEMBER_1_MEMBER_2_MEMBER_2_MEMBER_0_FILL"/>

<use xlink:href="#icon_r_box_02_39_Layer2_0_MEMBER_0_MEMBER_1_MEMBER_2_MEMBER_2_MEMBER_0_1_STROKES"/>
</g>

<g transform="matrix( 1, 0, 0, 1, -27.05,-36.3) ">
<use xlink:href="#icon_r_box_02_39_Layer2_0_MEMBER_0_MEMBER_1_MEMBER_2_MEMBER_2_MEMBER_1_FILL"/>

<use xlink:href="#icon_r_box_02_39_Layer2_0_MEMBER_0_MEMBER_1_MEMBER_2_MEMBER_2_MEMBER_1_1_STROKES"/>
</g>

<g transform="matrix( 1, 0, 0, 1, -27.05,-36.3) ">
<use xlink:href="#icon_r_box_02_39_Layer2_0_MEMBER_0_MEMBER_1_MEMBER_2_MEMBER_3_MEMBER_0_FILL"/>

<use xlink:href="#icon_r_box_02_39_Layer2_0_MEMBER_0_MEMBER_1_MEMBER_2_MEMBER_3_MEMBER_0_1_STROKES"/>
</g>

<g transform="matrix( 1, 0, 0, 1, -27.05,-36.3) ">
<use xlink:href="#icon_r_box_02_39_Layer2_0_MEMBER_0_MEMBER_1_MEMBER_2_MEMBER_3_MEMBER_1_FILL"/>

<use xlink:href="#icon_r_box_02_39_Layer2_0_MEMBER_0_MEMBER_1_MEMBER_2_MEMBER_3_MEMBER_1_1_STROKES"/>
</g>

<g transform="matrix( 1, 0, 0, 1, -27.05,-36.3) ">
<use xlink:href="#icon_r_box_02_39_Layer2_0_MEMBER_0_MEMBER_1_MEMBER_2_MEMBER_4_FILL"/>

<use xlink:href="#icon_r_box_02_39_Layer2_0_MEMBER_0_MEMBER_1_MEMBER_2_MEMBER_4_1_STROKES"/>
</g>

<g transform="matrix( 1, 0, 0, 1, -27.05,-36.3) ">
<use xlink:href="#icon_r_box_02_39_Layer2_0_MEMBER_0_MEMBER_1_MEMBER_2_MEMBER_5_MEMBER_0_1_STROKES"/>
</g>

<g transform="matrix( 1, 0, 0, 1, -27.05,-36.3) ">
<use xlink:href="#icon_r_box_02_39_Layer2_0_MEMBER_0_MEMBER_1_MEMBER_2_MEMBER_6_MEMBER_0_MEMBER_0_1_STROKES"/>
</g>

<g transform="matrix( 1, 0, 0, 1, -27.05,-36.3) ">
<use xlink:href="#icon_r_box_02_39_Layer2_0_MEMBER_0_MEMBER_1_MEMBER_2_MEMBER_6_MEMBER_1_MEMBER_0_1_STROKES"/>
</g>

<g transform="matrix( 1, 0, 0, 1, -27.05,-36.3) ">
<use xlink:href="#icon_r_box_02_39_Layer2_0_MEMBER_0_MEMBER_1_MEMBER_3_MEMBER_0_FILL"/>

<use xlink:href="#icon_r_box_02_39_Layer2_0_MEMBER_0_MEMBER_1_MEMBER_3_MEMBER_0_1_STROKES"/>
</g>

<g transform="matrix( 1, 0, 0, 1, -27.05,-36.3) ">
<use xlink:href="#icon_r_box_02_39_Layer2_0_MEMBER_0_MEMBER_1_MEMBER_3_MEMBER_1_FILL"/>

<use xlink:href="#icon_r_box_02_39_Layer2_0_MEMBER_0_MEMBER_1_MEMBER_3_MEMBER_1_1_STROKES"/>
</g>

<g transform="matrix( 1, 0, 0, 1, -27.05,-36.3) ">
<use xlink:href="#icon_r_box_02_39_Layer2_0_MEMBER_0_MEMBER_1_MEMBER_3_MEMBER_2_FILL"/>

<use xlink:href="#icon_r_box_02_39_Layer2_0_MEMBER_0_MEMBER_1_MEMBER_3_MEMBER_2_1_STROKES"/>
</g>

<g transform="matrix( 1, 0, 0, 1, -27.05,-36.3) ">
<use xlink:href="#icon_r_box_02_39_Layer2_0_MEMBER_0_MEMBER_1_MEMBER_4_MEMBER_0_FILL"/>

<use xlink:href="#icon_r_box_02_39_Layer2_0_MEMBER_0_MEMBER_1_MEMBER_4_MEMBER_0_1_STROKES"/>
</g>

<g transform="matrix( 1, 0, 0, 1, -27.05,-36.3) ">
<use xlink:href="#icon_r_box_02_39_Layer2_0_MEMBER_0_MEMBER_1_MEMBER_4_MEMBER_1_FILL"/>

<use xlink:href="#icon_r_box_02_39_Layer2_0_MEMBER_0_MEMBER_1_MEMBER_4_MEMBER_1_1_STROKES"/>
</g>

<g transform="matrix( 1, 0, 0, 1, -27.05,-36.3) ">
<use xlink:href="#icon_r_box_02_39_Layer2_0_MEMBER_0_MEMBER_1_MEMBER_4_MEMBER_2_FILL"/>

<use xlink:href="#icon_r_box_02_39_Layer2_0_MEMBER_0_MEMBER_1_MEMBER_4_MEMBER_2_1_STROKES"/>
</g>
</g>
</svg>
