
<svg xmlns="http://www.w3.org/2000/svg" version="1.1" xmlns:xlink="http://www.w3.org/1999/xlink" preserveAspectRatio="none" x="0px" y="0px" width="130px" height="115px" viewBox="0 0 130 115">
<defs>
<filter id="Filter_1" x="-20.010776374355743%" y="-23.009192886464703%" width="140.02155274871149%" height="146.0183857729294%" color-interpolation-filters="sRGB">
<feFlood flood-color="#000000" flood-opacity="1" in="SourceGraphic" result="result1"/>

<feGaussianBlur in="SourceGraphic" stdDeviation="1.6666666666666667,1.6666666666666667" result="result2"/>

<feComposite in2="result2" in="result1" operator="in" result="result3"/>

<feComposite in2="result3" in="SourceGraphic" operator="over" result="result4"/>
</filter>

<g id="icon_r_box_02_14_Layer3_0_FILL">
<path fill="#FFFFFF" fill-opacity="0" stroke="none" d="
M 65 -55
L -65 -55 -65 25 65 25 65 -55 Z"/>
</g>

<g id="icon_r_box_02_14_Layer3_1_FILL">
<path fill="#FFFFFF" fill-opacity="0" stroke="none" d="
M 65.05 49.95
L 65.05 24.95 -64.95 24.95 -64.95 49.95 65.05 49.95 Z"/>
</g>

<g id="icon_r_box_02_14_Layer3_2_FILL">
<path fill="#FFFFFF" fill-opacity="0" stroke="none" d="
M 65 -52.85
L 65 -57.85 -65 -57.85 -65 -52.85 65 -52.85 Z"/>
</g>

<g id="icon_r_box_02_14_Layer3_3_FILL">
<path fill="#FFFFFF" fill-opacity="0" stroke="none" d="
M 65 54.95
L 65 49.95 -65 49.95 -65 54.95 65 54.95 Z"/>
</g>

<g id="Duplicate_Items_Folder_dntks_0_Layer1_0_FILL">
<path fill="#FFFFFF" stroke="none" d="
M 104.25 41.05
Q 100.15 30.5 91.5 21.85 75.790234375 6.140234375 53.8 5.55 53.7349609375 4.3970703125 53.55 3.25 53.05 0 52.1 0 51.2 0 50.7 3.25
L 50.45 5.55
Q 28.45546875 6.1427734375 12.7 21.85 4.05 30.5 0 41.05 15.85 39.35 31.7 45.8 41.3138671875 43.618359375 51.1 43.5
L 51.1 64.85 50.6 64.85
Q 50.4 64.85 50.25 65 50.1 65.15 50.1 65.35
L 50.1 74.75
Q 50.1 75.35 49.7 75.8
L 49.7 75.75
Q 49.65 75.8 49.6 75.85
L 49.65 75.85
Q 49.2 76.25 48.6 76.25 47.95 76.25 47.5 75.8 47.1 75.35 47.1 74.75
L 47.1 70.35
Q 47.1 70.15 46.95 70 46.8 69.85 46.6 69.85
L 43.6 69.85
Q 43.4 69.85 43.25 70 43.1 70.15 43.1 70.35
L 43.1 74.75
Q 43.1 77.05 44.7 78.6 46.35 80.25 48.6 80.25 50.85 80.25 52.45 78.65 52.45 78.6 52.5 78.6 54.1 77 54.1 74.75
L 54.1 65.35
Q 54.1 65.15 53.95 65 53.8 64.85 53.6 64.85
L 53.1 64.85 53.1 43.5
Q 62.741796875 43.6544921875 72.55 45.8 88.4 40.4 104.25 41.05 Z"/>
</g>

<g id="Duplicate_Items_Folder_dntks_0_Layer0_0_MEMBER_0_FILL">
<path fill="#72B9EC" stroke="none" d="
M 53.1 27.45
L 51.1 27.45 51.1 74.95 53.1 74.95 53.1 27.45 Z"/>
</g>

<g id="Duplicate_Items_Folder_dntks_0_Layer0_0_MEMBER_1_FILL">
<path fill="#D6240C" stroke="none" d="
M 57.95 78.2
Q 57.7447265625 78.2017578125 57.6 78.35 57.4517578125 78.4947265625 57.45 78.7
L 57.45 88.1
Q 57.4529296875 88.7046875 57 89.1
L 57 89.1
Q 56.986328125 89.136328125 56.95 89.15
L 56.95 89.15
Q 56.5546875 89.6029296875 55.95 89.6 55.3134765625 89.601953125 54.85 89.15 54.4357421875 88.7208984375 54.45 88.1
L 54.45 83.7
Q 54.4482421875 83.4947265625 54.3 83.35 54.1552734375 83.2017578125 53.95 83.2
L 50.95 83.2
Q 50.7447265625 83.2017578125 50.6 83.35 50.4517578125 83.4947265625 50.45 83.7
L 50.45 88.1
Q 50.464453125 90.378515625 52.05 91.95 53.68515625 93.60078125 55.95 93.6 58.208984375 93.5953125 59.75 91.95
L 59.75 92
Q 59.8134765625 91.96328125 59.85 91.9
L 59.8 91.9
Q 61.4453125 90.358984375 61.45 88.1
L 61.45 78.7
Q 61.4482421875 78.4947265625 61.3 78.35 61.1552734375 78.2017578125 60.95 78.2
L 57.95 78.2 Z"/>
</g>

<g id="Duplicate_Items_Folder_dntks_0_Layer0_0_MEMBER_2_FILL">
<path fill="#FF930B" stroke="none" d="
M 153.1 23.8
Q 150.15 23.8 148.6 26.55
L 147.65 29.25 158.55 29.25
Q 158.4 27.9 157.6 26.55 156.05 23.8 153.1 23.8 Z"/>
</g>

<g id="Duplicate_Items_Folder_dntks_0_Layer0_0_MEMBER_3_FILL">
<path fill="#FF5C2A" stroke="none" d="
M 72.55 45.8
Q 70.95 33.85 67.55 24.05 61.15 5.6 52.15 5.6
L 52.1 5.6
Q 43.1 5.6 36.7 24.05 33.3 33.85 31.65 45.8 31.6912109375 45.796484375 31.7 45.8 51.75 41.25 72.55 45.8 72.557421875 45.7974609375 72.55 45.8 Z"/>

<path fill="#FF3419" stroke="none" d="
M 104.25 41.05
Q 100.15 30.5 91.5 21.85 75.2 5.55 52.15 5.55
L 52.1 5.55
Q 29.0322265625 5.567578125 12.7 21.85 4.05 30.5 0 41.05 15.8412109375 39.3509765625 31.65 45.8 33.3 33.85 36.7 24.05 43.1 5.6 52.1 5.6
L 52.15 5.6
Q 61.15 5.6 67.55 24.05 70.95 33.85 72.55 45.8 88.407421875 40.400390625 104.25 41.05 Z"/>
</g>

<path id="Duplicate_Items_Folder_dntks_0_Layer1_0_1_STROKES" stroke="#FFFFFF" stroke-width="8" stroke-linejoin="round" stroke-linecap="round" fill="none" d="
M 52.1 0
Q 53.05 0 53.55 3.25 53.7349609375 4.3970703125 53.8 5.575 75.790234375 6.140234375 91.5 21.85 100.15 30.5 104.25 41.05 88.4 40.4 72.55 45.8 62.741796875 43.6544921875 53.1 43.525
L 53.1 64.85 53.6 64.85
Q 53.8 64.85 53.95 65 54.1 65.15 54.1 65.35
L 54.1 74.75
Q 54.1 77 52.5 78.6 52.45 78.6 52.45 78.65 50.85 80.25 48.6 80.25 46.35 80.25 44.7 78.6 43.1 77.05 43.1 74.75
L 43.1 70.35
Q 43.1 70.15 43.25 70 43.4 69.85 43.6 69.85
L 46.6 69.85
Q 46.8 69.85 46.95 70 47.1 70.15 47.1 70.35
L 47.1 74.75
Q 47.1 75.35 47.5 75.8 47.95 76.25 48.6 76.25 49.2 76.25 49.65 75.85
L 49.6 75.85
Q 49.65 75.8 49.7 75.75
L 49.7 75.8
Q 50.1 75.35 50.1 74.75
L 50.1 65.35
Q 50.1 65.15 50.25 65 50.4 64.85 50.6 64.85
L 51.1 64.85 51.1 43.525
Q 41.3138671875 43.618359375 31.7 45.8 15.85 39.35 0 41.05 4.05 30.5 12.7 21.85 28.45546875 6.1427734375 50.475 5.575
L 50.7 3.25
Q 51.2 0 52.1 0 Z"/>
</defs>

<g transform="matrix( 1, 0, 0, 0.999603271484375, 65,60) ">
<g transform="matrix( 1, 0, 0, 1, 0,0) ">
<use xlink:href="#icon_r_box_02_14_Layer3_0_FILL"/>
</g>

<g transform="matrix( 1, 0, 0, 1, -0.05,0.05) ">
<use xlink:href="#icon_r_box_02_14_Layer3_1_FILL"/>
</g>

<g transform="matrix( 1, 0, 0, 1, 0,-2.15) ">
<use xlink:href="#icon_r_box_02_14_Layer3_2_FILL"/>
</g>

<g transform="matrix( 1, 0, 0, 1, 0,0.05) ">
<use xlink:href="#icon_r_box_02_14_Layer3_3_FILL"/>
</g>

<g filter="url(#Filter_1)" transform="matrix( 0.9999847412109375, 0, 0, 1.000396728515625, -65,-60) ">
<g transform="matrix( 0.75, 0, 0, 0.74969482421875, 24.9,10.9) ">
<g transform="matrix( 1, 0, 0, 1, 0,0) ">
<use xlink:href="#Duplicate_Items_Folder_dntks_0_Layer1_0_FILL"/>

<use xlink:href="#Duplicate_Items_Folder_dntks_0_Layer1_0_1_STROKES"/>
</g>

<g transform="matrix( 1, 0, 0, 1, 0,0) ">
<use xlink:href="#Duplicate_Items_Folder_dntks_0_Layer0_0_MEMBER_0_FILL"/>
</g>

<g transform="matrix( 1, 0, 0, 1, -7.35,-13.35) ">
<use xlink:href="#Duplicate_Items_Folder_dntks_0_Layer0_0_MEMBER_1_FILL"/>
</g>

<g transform="matrix( 0.315948486328125, 0, 0, 1.17425537109375, 3.75,-27.95) ">
<use xlink:href="#Duplicate_Items_Folder_dntks_0_Layer0_0_MEMBER_2_FILL"/>
</g>

<g transform="matrix( 1, 0, 0, 1, 0,0) ">
<use xlink:href="#Duplicate_Items_Folder_dntks_0_Layer0_0_MEMBER_3_FILL"/>
</g>
</g>
</g>
</g>
</svg>
