
<svg xmlns="http://www.w3.org/2000/svg" version="1.1" xmlns:xlink="http://www.w3.org/1999/xlink" preserveAspectRatio="none" x="0px" y="0px" width="130px" height="115px" viewBox="0 0 130 115">
<defs>
<g id="icon_r_box_02_4_Layer3_0_FILL">
<path fill="#FFFFFF" fill-opacity="0" stroke="none" d="
M 65 -55
L -65 -55 -65 25 65 25 65 -55 Z"/>
</g>

<g id="icon_r_box_02_4_Layer3_1_FILL">
<path fill="#FFFFFF" fill-opacity="0" stroke="none" d="
M 65.05 49.95
L 65.05 24.95 -64.95 24.95 -64.95 49.95 65.05 49.95 Z"/>
</g>

<g id="icon_r_box_02_4_Layer3_2_FILL">
<path fill="#FFFFFF" fill-opacity="0" stroke="none" d="
M 65 -52.85
L 65 -57.85 -65 -57.85 -65 -52.85 65 -52.85 Z"/>
</g>

<g id="icon_r_box_02_4_Layer3_3_FILL">
<path fill="#FFFFFF" fill-opacity="0" stroke="none" d="
M 65 54.95
L 65 49.95 -65 49.95 -65 54.95 65 54.95 Z"/>
</g>

<g id="icon_r_box_02_4_Layer2_0_MEMBER_0_MEMBER_0_MEMBER_0_FILL">
<path fill="#E4DAD5" stroke="none" d="
M 4.7 22.75
L 4.7 52.55 75.85 52.55 75.85 22.75 4.7 22.75 Z"/>
</g>

<g id="icon_r_box_02_4_Layer2_0_MEMBER_0_MEMBER_0_MEMBER_1_FILL">
<path fill="#FFFFFF" stroke="none" d="
M 75.85 52.55
L 75.85 45.25 4.7 45.25 4.7 52.55 75.85 52.55 Z"/>
</g>

<g id="icon_r_box_02_4_Layer2_0_MEMBER_0_MEMBER_0_MEMBER_2_FILL">
<path fill="#E4DAD5" stroke="none" d="
M 75.85 27.9
L 75.85 22.75 4.7 22.75 4.7 27.9 75.85 27.9 Z"/>
</g>

<g id="icon_r_box_02_4_Layer2_0_MEMBER_0_MEMBER_1_MEMBER_0_MEMBER_0_FILL">
<path fill="#E4DAD5" stroke="none" d="
M 51.6 47.9
L 51.6 18.2 28.95 18.2 28.95 47.9 51.6 47.9 Z"/>
</g>

<g id="icon_r_box_02_4_Layer2_0_MEMBER_0_MEMBER_1_MEMBER_0_MEMBER_1_FILL">
<path fill="#E4DAD5" stroke="none" d="
M 49.8 18.2
L 49.8 11.4 30.75 11.4 30.75 18.2 49.8 18.2 Z"/>
</g>

<g id="icon_r_box_02_4_Layer2_0_MEMBER_0_MEMBER_1_MEMBER_0_MEMBER_2_FILL">
<path fill="#5E80B2" stroke="none" d="
M 49.8 11.4
L 43.65 6.15 36.9 6.15 30.75 11.4 49.8 11.4 Z"/>
</g>

<g id="icon_r_box_02_4_Layer2_0_MEMBER_0_MEMBER_1_MEMBER_0_MEMBER_3_FILL">
<path fill="#2B4B73" stroke="none" d="
M 41.2 6.15
L 41 0.5 39.55 0.5 39.35 6.15 41.2 6.15 Z"/>
</g>

<g id="icon_r_box_02_4_Layer2_0_MEMBER_0_MEMBER_1_MEMBER_0_MEMBER_4_MEMBER_0_FILL">
<path fill="#BAE6FF" stroke="none" d="
M 47 18.2
L 47 13.65 33.55 13.65 33.55 18.2 47 18.2 Z"/>
</g>

<g id="icon_r_box_02_4_Layer2_0_MEMBER_0_MEMBER_1_MEMBER_0_MEMBER_5_MEMBER_0_FILL">
<path fill="#E4DAD5" stroke="none" d="
M 51.6 27.25
L 51.6 18.2 28.95 18.2 28.95 27.25 51.6 27.25 Z"/>
</g>

<g id="icon_r_box_02_4_Layer2_0_MEMBER_0_MEMBER_1_MEMBER_0_MEMBER_5_MEMBER_1_MEMBER_0_FILL">
<path fill="#FFFFFF" stroke="none" d="
M 43.15 22.75
Q 43.15 21.55 42.3 20.7 41.45 19.85 40.3 19.85 39.1 19.85 38.25 20.7 37.4 21.55 37.4 22.75 37.4 23.95 38.25 24.8 39.1 25.65 40.3 25.65 41.45 25.65 42.3 24.8 43.15 23.95 43.15 22.75 Z"/>
</g>

<g id="icon_r_box_02_4_Layer2_0_MEMBER_0_MEMBER_1_MEMBER_0_MEMBER_5_MEMBER_1_MEMBER_1_MEMBER_0_FILL">
<path fill="#FFFFFF" stroke="none" d="
M 40.3 21.15
L 40.3 22.75 41.25 22.75 40.3 21.15 Z"/>
</g>

<g id="icon_r_box_02_4_Layer2_0_MEMBER_0_MEMBER_1_MEMBER_1_MEMBER_0_MEMBER_0_FILL">
<path fill="#E4DAD5" stroke="none" d="
M 56.95 52.55
L 56.95 36.45 23.6 36.45 23.6 52.55 56.95 52.55 Z"/>
</g>

<g id="icon_r_box_02_4_Layer2_0_MEMBER_0_MEMBER_1_MEMBER_1_MEMBER_0_MEMBER_1_MEMBER_0_FILL">
<path fill="#E4DAD5" stroke="none" d="
M 47.85 52.55
L 47.85 39.3 32.7 39.3 32.7 52.55 47.85 52.55 Z"/>
</g>

<g id="icon_r_box_02_4_Layer2_0_MEMBER_0_MEMBER_1_MEMBER_1_MEMBER_0_MEMBER_1_MEMBER_1_FILL">
<path fill="#E4A08F" stroke="none" d="
M 45.1 52.55
L 45.1 45.3 35.45 45.3 35.45 52.55 45.1 52.55 Z"/>
</g>

<g id="icon_r_box_02_4_Layer2_0_MEMBER_0_MEMBER_1_MEMBER_1_MEMBER_0_MEMBER_1_MEMBER_2_FILL">
<path fill="#FFFFFF" stroke="none" d="
M 47.85 43.25
L 47.85 39.3 32.7 39.3 32.7 43.25 47.85 43.25 Z"/>
</g>

<g id="icon_r_box_02_4_Layer2_0_MEMBER_0_MEMBER_1_MEMBER_1_MEMBER_1_MEMBER_0_FILL">
<path fill="#BAE6FF" stroke="none" d="
M 29.4 47.1
L 29.4 42 27.05 42 27.05 47.1 29.4 47.1 Z"/>
</g>

<g id="icon_r_box_02_4_Layer2_0_MEMBER_0_MEMBER_1_MEMBER_1_MEMBER_1_MEMBER_1_FILL">
<path fill="#BAE6FF" stroke="none" d="
M 53.5 47.1
L 53.5 42 51.15 42 51.15 47.1 53.5 47.1 Z"/>
</g>

<g id="icon_r_box_02_4_Layer2_0_MEMBER_0_MEMBER_1_MEMBER_2_MEMBER_0_FILL">
<path fill="#BAE6FF" stroke="none" d="
M 34.1 33.75
L 34.1 29.9 31.75 29.9 31.75 33.75 34.1 33.75 Z"/>
</g>

<g id="icon_r_box_02_4_Layer2_0_MEMBER_0_MEMBER_1_MEMBER_2_MEMBER_1_FILL">
<path fill="#BAE6FF" stroke="none" d="
M 39 33.75
L 39 29.9 36.65 29.9 36.65 33.75 39 33.75 Z"/>
</g>

<g id="icon_r_box_02_4_Layer2_0_MEMBER_0_MEMBER_1_MEMBER_2_MEMBER_2_FILL">
<path fill="#BAE6FF" stroke="none" d="
M 43.9 33.75
L 43.9 29.9 41.55 29.9 41.55 33.75 43.9 33.75 Z"/>
</g>

<g id="icon_r_box_02_4_Layer2_0_MEMBER_0_MEMBER_1_MEMBER_2_MEMBER_3_FILL">
<path fill="#BAE6FF" stroke="none" d="
M 48.8 33.75
L 48.8 29.9 46.45 29.9 46.45 33.75 48.8 33.75 Z"/>
</g>

<path id="icon_r_box_02_4_Layer2_0_MEMBER_0_MEMBER_0_MEMBER_0_1_STROKES" stroke="#000000" stroke-width="1" stroke-linejoin="round" stroke-linecap="round" fill="none" d="
M 4.7 52.55
L 75.85 52.55 75.85 22.75 4.7 22.75 4.7 52.55 Z"/>

<path id="icon_r_box_02_4_Layer2_0_MEMBER_0_MEMBER_0_MEMBER_1_1_STROKES" stroke="#000000" stroke-width="1" stroke-linejoin="round" stroke-linecap="round" fill="none" d="
M 75.85 52.55
L 4.7 52.55 4.7 45.25 75.85 45.25 75.85 52.55 Z"/>

<path id="icon_r_box_02_4_Layer2_0_MEMBER_0_MEMBER_0_MEMBER_2_1_STROKES" stroke="#000000" stroke-width="1" stroke-linejoin="round" stroke-linecap="round" fill="none" d="
M 75.85 27.9
L 4.7 27.9 4.7 22.75 75.85 22.75 75.85 27.9 Z"/>

<path id="icon_r_box_02_4_Layer2_0_MEMBER_0_MEMBER_0_MEMBER_3_MEMBER_0_1_STROKES" stroke="#000000" stroke-width="1" stroke-linejoin="round" stroke-linecap="round" fill="none" d="
M 0.5 52.55
L 80.05 52.55"/>

<path id="icon_r_box_02_4_Layer2_0_MEMBER_0_MEMBER_1_MEMBER_0_MEMBER_0_1_STROKES" stroke="#000000" stroke-width="1" stroke-linejoin="round" stroke-linecap="round" fill="none" d="
M 51.6 47.9
L 28.95 47.9 28.95 18.2 51.6 18.2 51.6 47.9 Z"/>

<path id="icon_r_box_02_4_Layer2_0_MEMBER_0_MEMBER_1_MEMBER_0_MEMBER_1_1_STROKES" stroke="#000000" stroke-width="1" stroke-linejoin="round" stroke-linecap="round" fill="none" d="
M 49.8 11.4
L 30.75 11.4 30.75 18.2 49.8 18.2 49.8 11.4 Z"/>

<path id="icon_r_box_02_4_Layer2_0_MEMBER_0_MEMBER_1_MEMBER_0_MEMBER_2_1_STROKES" stroke="#000000" stroke-width="1" stroke-linejoin="round" stroke-linecap="round" fill="none" d="
M 49.8 11.4
L 30.75 11.4 36.9 6.15 43.65 6.15 49.8 11.4 Z"/>

<path id="icon_r_box_02_4_Layer2_0_MEMBER_0_MEMBER_1_MEMBER_0_MEMBER_3_1_STROKES" stroke="#000000" stroke-width="1" stroke-linejoin="round" stroke-linecap="round" fill="none" d="
M 41 0.5
L 39.55 0.5 39.35 6.15 41.2 6.15 41 0.5 Z"/>

<path id="icon_r_box_02_4_Layer2_0_MEMBER_0_MEMBER_1_MEMBER_0_MEMBER_4_MEMBER_0_1_STROKES" stroke="#000000" stroke-width="1" stroke-linejoin="round" stroke-linecap="round" fill="none" d="
M 47 13.65
L 33.55 13.65 33.55 18.2 47 18.2 47 13.65 Z"/>

<path id="icon_r_box_02_4_Layer2_0_MEMBER_0_MEMBER_1_MEMBER_0_MEMBER_4_MEMBER_1_MEMBER_0_1_STROKES" stroke="#000000" stroke-width="1" stroke-linejoin="round" stroke-linecap="round" fill="none" d="
M 36.9 13.65
L 36.9 18.2"/>

<path id="icon_r_box_02_4_Layer2_0_MEMBER_0_MEMBER_1_MEMBER_0_MEMBER_4_MEMBER_1_MEMBER_1_1_STROKES" stroke="#000000" stroke-width="1" stroke-linejoin="round" stroke-linecap="round" fill="none" d="
M 40.25 13.65
L 40.25 18.2"/>

<path id="icon_r_box_02_4_Layer2_0_MEMBER_0_MEMBER_1_MEMBER_0_MEMBER_4_MEMBER_1_MEMBER_2_1_STROKES" stroke="#000000" stroke-width="1" stroke-linejoin="round" stroke-linecap="round" fill="none" d="
M 43.65 13.65
L 43.65 18.2"/>

<path id="icon_r_box_02_4_Layer2_0_MEMBER_0_MEMBER_1_MEMBER_0_MEMBER_5_MEMBER_0_1_STROKES" stroke="#000000" stroke-width="1" stroke-linejoin="round" stroke-linecap="round" fill="none" d="
M 51.6 27.25
L 28.95 27.25 28.95 18.2 51.6 18.2 51.6 27.25 Z"/>

<path id="icon_r_box_02_4_Layer2_0_MEMBER_0_MEMBER_1_MEMBER_0_MEMBER_5_MEMBER_1_MEMBER_0_1_STROKES" stroke="#000000" stroke-width="1" stroke-linejoin="round" stroke-linecap="round" fill="none" d="
M 43.15 22.75
Q 43.15 23.95 42.3 24.8 41.45 25.65 40.3 25.65 39.1 25.65 38.25 24.8 37.4 23.95 37.4 22.75 37.4 21.55 38.25 20.7 39.1 19.85 40.3 19.85 41.45 19.85 42.3 20.7 43.15 21.55 43.15 22.75 Z"/>

<path id="icon_r_box_02_4_Layer2_0_MEMBER_0_MEMBER_1_MEMBER_0_MEMBER_5_MEMBER_1_MEMBER_1_MEMBER_1_1_STROKES" stroke="#000000" stroke-width="1" stroke-linejoin="round" stroke-linecap="round" fill="none" d="
M 40.3 21.15
L 40.3 22.75 41.25 22.75"/>

<path id="icon_r_box_02_4_Layer2_0_MEMBER_0_MEMBER_1_MEMBER_1_MEMBER_0_MEMBER_0_1_STROKES" stroke="#000000" stroke-width="1" stroke-linejoin="round" stroke-linecap="round" fill="none" d="
M 56.95 52.55
L 23.6 52.55 23.6 36.45 56.95 36.45 56.95 52.55 Z"/>

<path id="icon_r_box_02_4_Layer2_0_MEMBER_0_MEMBER_1_MEMBER_1_MEMBER_0_MEMBER_1_MEMBER_0_1_STROKES" stroke="#000000" stroke-width="1" stroke-linejoin="round" stroke-linecap="round" fill="none" d="
M 47.85 52.55
L 32.7 52.55 32.7 39.3 47.85 39.3 47.85 52.55 Z"/>

<path id="icon_r_box_02_4_Layer2_0_MEMBER_0_MEMBER_1_MEMBER_1_MEMBER_0_MEMBER_1_MEMBER_1_1_STROKES" stroke="#000000" stroke-width="1" stroke-linejoin="round" stroke-linecap="round" fill="none" d="
M 45.1 52.55
L 35.45 52.55 35.45 45.3 45.1 45.3 45.1 52.55 Z"/>

<path id="icon_r_box_02_4_Layer2_0_MEMBER_0_MEMBER_1_MEMBER_1_MEMBER_0_MEMBER_1_MEMBER_2_1_STROKES" stroke="#000000" stroke-width="1" stroke-linejoin="round" stroke-linecap="round" fill="none" d="
M 47.85 43.25
L 32.7 43.25 32.7 39.3 47.85 39.3 47.85 43.25 Z"/>

<path id="icon_r_box_02_4_Layer2_0_MEMBER_0_MEMBER_1_MEMBER_1_MEMBER_0_MEMBER_2_1_STROKES" stroke="#000000" stroke-width="1" stroke-linejoin="round" stroke-linecap="round" fill="none" d="
M 40.3 45.3
L 40.3 52.55"/>

<path id="icon_r_box_02_4_Layer2_0_MEMBER_0_MEMBER_1_MEMBER_1_MEMBER_1_MEMBER_0_1_STROKES" stroke="#000000" stroke-width="1" stroke-linejoin="round" stroke-linecap="round" fill="none" d="
M 29.4 47.1
L 27.05 47.1 27.05 42 29.4 42 29.4 47.1 Z"/>

<path id="icon_r_box_02_4_Layer2_0_MEMBER_0_MEMBER_1_MEMBER_1_MEMBER_1_MEMBER_1_1_STROKES" stroke="#000000" stroke-width="1" stroke-linejoin="round" stroke-linecap="round" fill="none" d="
M 53.5 47.1
L 51.15 47.1 51.15 42 53.5 42 53.5 47.1 Z"/>

<path id="icon_r_box_02_4_Layer2_0_MEMBER_0_MEMBER_1_MEMBER_2_MEMBER_0_1_STROKES" stroke="#000000" stroke-width="1" stroke-linejoin="round" stroke-linecap="round" fill="none" d="
M 34.1 33.75
L 31.75 33.75 31.75 29.9 34.1 29.9 34.1 33.75 Z"/>

<path id="icon_r_box_02_4_Layer2_0_MEMBER_0_MEMBER_1_MEMBER_2_MEMBER_1_1_STROKES" stroke="#000000" stroke-width="1" stroke-linejoin="round" stroke-linecap="round" fill="none" d="
M 39 33.75
L 36.65 33.75 36.65 29.9 39 29.9 39 33.75 Z"/>

<path id="icon_r_box_02_4_Layer2_0_MEMBER_0_MEMBER_1_MEMBER_2_MEMBER_2_1_STROKES" stroke="#000000" stroke-width="1" stroke-linejoin="round" stroke-linecap="round" fill="none" d="
M 43.9 33.75
L 41.55 33.75 41.55 29.9 43.9 29.9 43.9 33.75 Z"/>

<path id="icon_r_box_02_4_Layer2_0_MEMBER_0_MEMBER_1_MEMBER_2_MEMBER_3_1_STROKES" stroke="#000000" stroke-width="1" stroke-linejoin="round" stroke-linecap="round" fill="none" d="
M 48.8 33.75
L 46.45 33.75 46.45 29.9 48.8 29.9 48.8 33.75 Z"/>

<path id="icon_r_box_02_4_Layer2_0_MEMBER_0_MEMBER_2_MEMBER_0_MEMBER_0_MEMBER_0_1_STROKES" stroke="#000000" stroke-width="1" stroke-linejoin="round" stroke-linecap="round" fill="none" d="
M 8.4 32.2
L 8.4 34.2"/>

<path id="icon_r_box_02_4_Layer2_0_MEMBER_0_MEMBER_2_MEMBER_0_MEMBER_1_MEMBER_0_1_STROKES" stroke="#000000" stroke-width="1" stroke-linejoin="round" stroke-linecap="round" fill="none" d="
M 11.8 32.2
L 11.8 34.2"/>

<path id="icon_r_box_02_4_Layer2_0_MEMBER_0_MEMBER_2_MEMBER_0_MEMBER_2_MEMBER_0_1_STROKES" stroke="#000000" stroke-width="1" stroke-linejoin="round" stroke-linecap="round" fill="none" d="
M 15.15 32.2
L 15.15 34.2"/>

<path id="icon_r_box_02_4_Layer2_0_MEMBER_0_MEMBER_2_MEMBER_0_MEMBER_3_MEMBER_0_1_STROKES" stroke="#000000" stroke-width="1" stroke-linejoin="round" stroke-linecap="round" fill="none" d="
M 18.55 32.2
L 18.55 34.2"/>

<path id="icon_r_box_02_4_Layer2_0_MEMBER_0_MEMBER_2_MEMBER_0_MEMBER_4_MEMBER_0_1_STROKES" stroke="#000000" stroke-width="1" stroke-linejoin="round" stroke-linecap="round" fill="none" d="
M 21.9 32.2
L 21.9 34.2"/>

<path id="icon_r_box_02_4_Layer2_0_MEMBER_0_MEMBER_2_MEMBER_0_MEMBER_5_MEMBER_0_1_STROKES" stroke="#000000" stroke-width="1" stroke-linejoin="round" stroke-linecap="round" fill="none" d="
M 25.3 32.2
L 25.3 34.2"/>

<path id="icon_r_box_02_4_Layer2_0_MEMBER_0_MEMBER_2_MEMBER_1_MEMBER_0_MEMBER_0_1_STROKES" stroke="#000000" stroke-width="1" stroke-linejoin="round" stroke-linecap="round" fill="none" d="
M 8.4 38.7
L 8.4 40.7"/>

<path id="icon_r_box_02_4_Layer2_0_MEMBER_0_MEMBER_2_MEMBER_1_MEMBER_1_MEMBER_0_1_STROKES" stroke="#000000" stroke-width="1" stroke-linejoin="round" stroke-linecap="round" fill="none" d="
M 11.8 38.7
L 11.8 40.7"/>

<path id="icon_r_box_02_4_Layer2_0_MEMBER_0_MEMBER_2_MEMBER_1_MEMBER_2_MEMBER_0_1_STROKES" stroke="#000000" stroke-width="1" stroke-linejoin="round" stroke-linecap="round" fill="none" d="
M 15.15 38.7
L 15.15 40.7"/>

<path id="icon_r_box_02_4_Layer2_0_MEMBER_0_MEMBER_2_MEMBER_1_MEMBER_3_MEMBER_0_1_STROKES" stroke="#000000" stroke-width="1" stroke-linejoin="round" stroke-linecap="round" fill="none" d="
M 18.55 38.7
L 18.55 40.7"/>

<path id="icon_r_box_02_4_Layer2_0_MEMBER_0_MEMBER_2_MEMBER_1_MEMBER_4_MEMBER_0_1_STROKES" stroke="#000000" stroke-width="1" stroke-linejoin="round" stroke-linecap="round" fill="none" d="
M 21.9 38.7
L 21.9 40.7"/>

<path id="icon_r_box_02_4_Layer2_0_MEMBER_0_MEMBER_3_MEMBER_0_MEMBER_0_MEMBER_0_1_STROKES" stroke="#000000" stroke-width="1" stroke-linejoin="round" stroke-linecap="round" fill="none" d="
M 72.15 32.2
L 72.15 34.2"/>

<path id="icon_r_box_02_4_Layer2_0_MEMBER_0_MEMBER_3_MEMBER_0_MEMBER_1_MEMBER_0_1_STROKES" stroke="#000000" stroke-width="1" stroke-linejoin="round" stroke-linecap="round" fill="none" d="
M 68.75 32.2
L 68.75 34.2"/>

<path id="icon_r_box_02_4_Layer2_0_MEMBER_0_MEMBER_3_MEMBER_0_MEMBER_2_MEMBER_0_1_STROKES" stroke="#000000" stroke-width="1" stroke-linejoin="round" stroke-linecap="round" fill="none" d="
M 65.4 32.2
L 65.4 34.2"/>

<path id="icon_r_box_02_4_Layer2_0_MEMBER_0_MEMBER_3_MEMBER_0_MEMBER_3_MEMBER_0_1_STROKES" stroke="#000000" stroke-width="1" stroke-linejoin="round" stroke-linecap="round" fill="none" d="
M 62 32.2
L 62 34.2"/>

<path id="icon_r_box_02_4_Layer2_0_MEMBER_0_MEMBER_3_MEMBER_0_MEMBER_4_MEMBER_0_1_STROKES" stroke="#000000" stroke-width="1" stroke-linejoin="round" stroke-linecap="round" fill="none" d="
M 58.65 32.2
L 58.65 34.2"/>

<path id="icon_r_box_02_4_Layer2_0_MEMBER_0_MEMBER_3_MEMBER_0_MEMBER_5_MEMBER_0_1_STROKES" stroke="#000000" stroke-width="1" stroke-linejoin="round" stroke-linecap="round" fill="none" d="
M 55.25 32.2
L 55.25 34.2"/>

<path id="icon_r_box_02_4_Layer2_0_MEMBER_0_MEMBER_3_MEMBER_1_MEMBER_0_MEMBER_0_1_STROKES" stroke="#000000" stroke-width="1" stroke-linejoin="round" stroke-linecap="round" fill="none" d="
M 72.15 38.7
L 72.15 40.7"/>

<path id="icon_r_box_02_4_Layer2_0_MEMBER_0_MEMBER_3_MEMBER_1_MEMBER_1_MEMBER_0_1_STROKES" stroke="#000000" stroke-width="1" stroke-linejoin="round" stroke-linecap="round" fill="none" d="
M 68.75 38.7
L 68.75 40.7"/>

<path id="icon_r_box_02_4_Layer2_0_MEMBER_0_MEMBER_3_MEMBER_1_MEMBER_2_MEMBER_0_1_STROKES" stroke="#000000" stroke-width="1" stroke-linejoin="round" stroke-linecap="round" fill="none" d="
M 65.4 38.7
L 65.4 40.7"/>

<path id="icon_r_box_02_4_Layer2_0_MEMBER_0_MEMBER_3_MEMBER_1_MEMBER_3_MEMBER_0_1_STROKES" stroke="#000000" stroke-width="1" stroke-linejoin="round" stroke-linecap="round" fill="none" d="
M 62 38.7
L 62 40.7"/>

<path id="icon_r_box_02_4_Layer2_0_MEMBER_0_MEMBER_3_MEMBER_1_MEMBER_4_MEMBER_0_1_STROKES" stroke="#000000" stroke-width="1" stroke-linejoin="round" stroke-linecap="round" fill="none" d="
M 58.65 38.7
L 58.65 40.7"/>
</defs>

<g transform="matrix( 1, 0, 0, 0.999603271484375, 65,60) ">
<g transform="matrix( 1, 0, 0, 1, 0,0) ">
<use xlink:href="#icon_r_box_02_4_Layer3_0_FILL"/>
</g>

<g transform="matrix( 1, 0, 0, 1, -0.05,0.05) ">
<use xlink:href="#icon_r_box_02_4_Layer3_1_FILL"/>
</g>

<g transform="matrix( 1, 0, 0, 1, 0,-2.15) ">
<use xlink:href="#icon_r_box_02_4_Layer3_2_FILL"/>
</g>

<g transform="matrix( 1, 0, 0, 1, 0,0.05) ">
<use xlink:href="#icon_r_box_02_4_Layer3_3_FILL"/>
</g>

<g transform="matrix( 1, 0, 0, 1, -40.25,-37.75) ">
<use xlink:href="#icon_r_box_02_4_Layer2_0_MEMBER_0_MEMBER_0_MEMBER_0_FILL"/>

<use xlink:href="#icon_r_box_02_4_Layer2_0_MEMBER_0_MEMBER_0_MEMBER_0_1_STROKES"/>
</g>

<g transform="matrix( 1, 0, 0, 1, -40.25,-37.75) ">
<use xlink:href="#icon_r_box_02_4_Layer2_0_MEMBER_0_MEMBER_0_MEMBER_1_FILL"/>

<use xlink:href="#icon_r_box_02_4_Layer2_0_MEMBER_0_MEMBER_0_MEMBER_1_1_STROKES"/>
</g>

<g transform="matrix( 1, 0, 0, 1, -40.25,-37.75) ">
<use xlink:href="#icon_r_box_02_4_Layer2_0_MEMBER_0_MEMBER_0_MEMBER_2_FILL"/>

<use xlink:href="#icon_r_box_02_4_Layer2_0_MEMBER_0_MEMBER_0_MEMBER_2_1_STROKES"/>
</g>

<g transform="matrix( 1, 0, 0, 1, -40.25,-37.75) ">
<use xlink:href="#icon_r_box_02_4_Layer2_0_MEMBER_0_MEMBER_0_MEMBER_3_MEMBER_0_1_STROKES"/>
</g>

<g transform="matrix( 1, 0, 0, 1, -40.25,-37.75) ">
<use xlink:href="#icon_r_box_02_4_Layer2_0_MEMBER_0_MEMBER_1_MEMBER_0_MEMBER_0_FILL"/>

<use xlink:href="#icon_r_box_02_4_Layer2_0_MEMBER_0_MEMBER_1_MEMBER_0_MEMBER_0_1_STROKES"/>
</g>

<g transform="matrix( 1, 0, 0, 1, -40.25,-37.75) ">
<use xlink:href="#icon_r_box_02_4_Layer2_0_MEMBER_0_MEMBER_1_MEMBER_0_MEMBER_1_FILL"/>

<use xlink:href="#icon_r_box_02_4_Layer2_0_MEMBER_0_MEMBER_1_MEMBER_0_MEMBER_1_1_STROKES"/>
</g>

<g transform="matrix( 1, 0, 0, 1, -40.25,-37.75) ">
<use xlink:href="#icon_r_box_02_4_Layer2_0_MEMBER_0_MEMBER_1_MEMBER_0_MEMBER_2_FILL"/>

<use xlink:href="#icon_r_box_02_4_Layer2_0_MEMBER_0_MEMBER_1_MEMBER_0_MEMBER_2_1_STROKES"/>
</g>

<g transform="matrix( 1, 0, 0, 1, -40.25,-37.75) ">
<use xlink:href="#icon_r_box_02_4_Layer2_0_MEMBER_0_MEMBER_1_MEMBER_0_MEMBER_3_FILL"/>

<use xlink:href="#icon_r_box_02_4_Layer2_0_MEMBER_0_MEMBER_1_MEMBER_0_MEMBER_3_1_STROKES"/>
</g>

<g transform="matrix( 1, 0, 0, 1, -40.25,-37.75) ">
<use xlink:href="#icon_r_box_02_4_Layer2_0_MEMBER_0_MEMBER_1_MEMBER_0_MEMBER_4_MEMBER_0_FILL"/>

<use xlink:href="#icon_r_box_02_4_Layer2_0_MEMBER_0_MEMBER_1_MEMBER_0_MEMBER_4_MEMBER_0_1_STROKES"/>
</g>

<g transform="matrix( 1, 0, 0, 1, -40.25,-37.75) ">
<use xlink:href="#icon_r_box_02_4_Layer2_0_MEMBER_0_MEMBER_1_MEMBER_0_MEMBER_4_MEMBER_1_MEMBER_0_1_STROKES"/>
</g>

<g transform="matrix( 1, 0, 0, 1, -40.25,-37.75) ">
<use xlink:href="#icon_r_box_02_4_Layer2_0_MEMBER_0_MEMBER_1_MEMBER_0_MEMBER_4_MEMBER_1_MEMBER_1_1_STROKES"/>
</g>

<g transform="matrix( 1, 0, 0, 1, -40.25,-37.75) ">
<use xlink:href="#icon_r_box_02_4_Layer2_0_MEMBER_0_MEMBER_1_MEMBER_0_MEMBER_4_MEMBER_1_MEMBER_2_1_STROKES"/>
</g>

<g transform="matrix( 1, 0, 0, 1, -40.25,-37.75) ">
<use xlink:href="#icon_r_box_02_4_Layer2_0_MEMBER_0_MEMBER_1_MEMBER_0_MEMBER_5_MEMBER_0_FILL"/>

<use xlink:href="#icon_r_box_02_4_Layer2_0_MEMBER_0_MEMBER_1_MEMBER_0_MEMBER_5_MEMBER_0_1_STROKES"/>
</g>

<g transform="matrix( 1, 0, 0, 1, -40.25,-37.75) ">
<use xlink:href="#icon_r_box_02_4_Layer2_0_MEMBER_0_MEMBER_1_MEMBER_0_MEMBER_5_MEMBER_1_MEMBER_0_FILL"/>

<use xlink:href="#icon_r_box_02_4_Layer2_0_MEMBER_0_MEMBER_1_MEMBER_0_MEMBER_5_MEMBER_1_MEMBER_0_1_STROKES"/>
</g>

<g transform="matrix( 1, 0, 0, 1, -40.25,-37.75) ">
<use xlink:href="#icon_r_box_02_4_Layer2_0_MEMBER_0_MEMBER_1_MEMBER_0_MEMBER_5_MEMBER_1_MEMBER_1_MEMBER_0_FILL"/>
</g>

<g transform="matrix( 1, 0, 0, 1, -40.25,-37.75) ">
<use xlink:href="#icon_r_box_02_4_Layer2_0_MEMBER_0_MEMBER_1_MEMBER_0_MEMBER_5_MEMBER_1_MEMBER_1_MEMBER_1_1_STROKES"/>
</g>

<g transform="matrix( 1, 0, 0, 1, -40.25,-37.75) ">
<use xlink:href="#icon_r_box_02_4_Layer2_0_MEMBER_0_MEMBER_1_MEMBER_1_MEMBER_0_MEMBER_0_FILL"/>

<use xlink:href="#icon_r_box_02_4_Layer2_0_MEMBER_0_MEMBER_1_MEMBER_1_MEMBER_0_MEMBER_0_1_STROKES"/>
</g>

<g transform="matrix( 1, 0, 0, 1, -40.25,-37.75) ">
<use xlink:href="#icon_r_box_02_4_Layer2_0_MEMBER_0_MEMBER_1_MEMBER_1_MEMBER_0_MEMBER_1_MEMBER_0_FILL"/>

<use xlink:href="#icon_r_box_02_4_Layer2_0_MEMBER_0_MEMBER_1_MEMBER_1_MEMBER_0_MEMBER_1_MEMBER_0_1_STROKES"/>
</g>

<g transform="matrix( 1, 0, 0, 1, -40.25,-37.75) ">
<use xlink:href="#icon_r_box_02_4_Layer2_0_MEMBER_0_MEMBER_1_MEMBER_1_MEMBER_0_MEMBER_1_MEMBER_1_FILL"/>

<use xlink:href="#icon_r_box_02_4_Layer2_0_MEMBER_0_MEMBER_1_MEMBER_1_MEMBER_0_MEMBER_1_MEMBER_1_1_STROKES"/>
</g>

<g transform="matrix( 1, 0, 0, 1, -40.25,-37.75) ">
<use xlink:href="#icon_r_box_02_4_Layer2_0_MEMBER_0_MEMBER_1_MEMBER_1_MEMBER_0_MEMBER_1_MEMBER_2_FILL"/>

<use xlink:href="#icon_r_box_02_4_Layer2_0_MEMBER_0_MEMBER_1_MEMBER_1_MEMBER_0_MEMBER_1_MEMBER_2_1_STROKES"/>
</g>

<g transform="matrix( 1, 0, 0, 1, -40.25,-37.75) ">
<use xlink:href="#icon_r_box_02_4_Layer2_0_MEMBER_0_MEMBER_1_MEMBER_1_MEMBER_0_MEMBER_2_1_STROKES"/>
</g>

<g transform="matrix( 1, 0, 0, 1, -40.25,-37.75) ">
<use xlink:href="#icon_r_box_02_4_Layer2_0_MEMBER_0_MEMBER_1_MEMBER_1_MEMBER_1_MEMBER_0_FILL"/>

<use xlink:href="#icon_r_box_02_4_Layer2_0_MEMBER_0_MEMBER_1_MEMBER_1_MEMBER_1_MEMBER_0_1_STROKES"/>
</g>

<g transform="matrix( 1, 0, 0, 1, -40.25,-37.75) ">
<use xlink:href="#icon_r_box_02_4_Layer2_0_MEMBER_0_MEMBER_1_MEMBER_1_MEMBER_1_MEMBER_1_FILL"/>

<use xlink:href="#icon_r_box_02_4_Layer2_0_MEMBER_0_MEMBER_1_MEMBER_1_MEMBER_1_MEMBER_1_1_STROKES"/>
</g>

<g transform="matrix( 1, 0, 0, 1, -40.25,-37.75) ">
<use xlink:href="#icon_r_box_02_4_Layer2_0_MEMBER_0_MEMBER_1_MEMBER_2_MEMBER_0_FILL"/>

<use xlink:href="#icon_r_box_02_4_Layer2_0_MEMBER_0_MEMBER_1_MEMBER_2_MEMBER_0_1_STROKES"/>
</g>

<g transform="matrix( 1, 0, 0, 1, -40.25,-37.75) ">
<use xlink:href="#icon_r_box_02_4_Layer2_0_MEMBER_0_MEMBER_1_MEMBER_2_MEMBER_1_FILL"/>

<use xlink:href="#icon_r_box_02_4_Layer2_0_MEMBER_0_MEMBER_1_MEMBER_2_MEMBER_1_1_STROKES"/>
</g>

<g transform="matrix( 1, 0, 0, 1, -40.25,-37.75) ">
<use xlink:href="#icon_r_box_02_4_Layer2_0_MEMBER_0_MEMBER_1_MEMBER_2_MEMBER_2_FILL"/>

<use xlink:href="#icon_r_box_02_4_Layer2_0_MEMBER_0_MEMBER_1_MEMBER_2_MEMBER_2_1_STROKES"/>
</g>

<g transform="matrix( 1, 0, 0, 1, -40.25,-37.75) ">
<use xlink:href="#icon_r_box_02_4_Layer2_0_MEMBER_0_MEMBER_1_MEMBER_2_MEMBER_3_FILL"/>

<use xlink:href="#icon_r_box_02_4_Layer2_0_MEMBER_0_MEMBER_1_MEMBER_2_MEMBER_3_1_STROKES"/>
</g>

<g transform="matrix( 1, 0, 0, 1, -40.25,-37.75) ">
<use xlink:href="#icon_r_box_02_4_Layer2_0_MEMBER_0_MEMBER_2_MEMBER_0_MEMBER_0_MEMBER_0_1_STROKES"/>
</g>

<g transform="matrix( 1, 0, 0, 1, -40.25,-37.75) ">
<use xlink:href="#icon_r_box_02_4_Layer2_0_MEMBER_0_MEMBER_2_MEMBER_0_MEMBER_1_MEMBER_0_1_STROKES"/>
</g>

<g transform="matrix( 1, 0, 0, 1, -40.25,-37.75) ">
<use xlink:href="#icon_r_box_02_4_Layer2_0_MEMBER_0_MEMBER_2_MEMBER_0_MEMBER_2_MEMBER_0_1_STROKES"/>
</g>

<g transform="matrix( 1, 0, 0, 1, -40.25,-37.75) ">
<use xlink:href="#icon_r_box_02_4_Layer2_0_MEMBER_0_MEMBER_2_MEMBER_0_MEMBER_3_MEMBER_0_1_STROKES"/>
</g>

<g transform="matrix( 1, 0, 0, 1, -40.25,-37.75) ">
<use xlink:href="#icon_r_box_02_4_Layer2_0_MEMBER_0_MEMBER_2_MEMBER_0_MEMBER_4_MEMBER_0_1_STROKES"/>
</g>

<g transform="matrix( 1, 0, 0, 1, -40.25,-37.75) ">
<use xlink:href="#icon_r_box_02_4_Layer2_0_MEMBER_0_MEMBER_2_MEMBER_0_MEMBER_5_MEMBER_0_1_STROKES"/>
</g>

<g transform="matrix( 1, 0, 0, 1, -40.25,-37.75) ">
<use xlink:href="#icon_r_box_02_4_Layer2_0_MEMBER_0_MEMBER_2_MEMBER_1_MEMBER_0_MEMBER_0_1_STROKES"/>
</g>

<g transform="matrix( 1, 0, 0, 1, -40.25,-37.75) ">
<use xlink:href="#icon_r_box_02_4_Layer2_0_MEMBER_0_MEMBER_2_MEMBER_1_MEMBER_1_MEMBER_0_1_STROKES"/>
</g>

<g transform="matrix( 1, 0, 0, 1, -40.25,-37.75) ">
<use xlink:href="#icon_r_box_02_4_Layer2_0_MEMBER_0_MEMBER_2_MEMBER_1_MEMBER_2_MEMBER_0_1_STROKES"/>
</g>

<g transform="matrix( 1, 0, 0, 1, -40.25,-37.75) ">
<use xlink:href="#icon_r_box_02_4_Layer2_0_MEMBER_0_MEMBER_2_MEMBER_1_MEMBER_3_MEMBER_0_1_STROKES"/>
</g>

<g transform="matrix( 1, 0, 0, 1, -40.25,-37.75) ">
<use xlink:href="#icon_r_box_02_4_Layer2_0_MEMBER_0_MEMBER_2_MEMBER_1_MEMBER_4_MEMBER_0_1_STROKES"/>
</g>

<g transform="matrix( 1, 0, 0, 1, -40.25,-37.75) ">
<use xlink:href="#icon_r_box_02_4_Layer2_0_MEMBER_0_MEMBER_3_MEMBER_0_MEMBER_0_MEMBER_0_1_STROKES"/>
</g>

<g transform="matrix( 1, 0, 0, 1, -40.25,-37.75) ">
<use xlink:href="#icon_r_box_02_4_Layer2_0_MEMBER_0_MEMBER_3_MEMBER_0_MEMBER_1_MEMBER_0_1_STROKES"/>
</g>

<g transform="matrix( 1, 0, 0, 1, -40.25,-37.75) ">
<use xlink:href="#icon_r_box_02_4_Layer2_0_MEMBER_0_MEMBER_3_MEMBER_0_MEMBER_2_MEMBER_0_1_STROKES"/>
</g>

<g transform="matrix( 1, 0, 0, 1, -40.25,-37.75) ">
<use xlink:href="#icon_r_box_02_4_Layer2_0_MEMBER_0_MEMBER_3_MEMBER_0_MEMBER_3_MEMBER_0_1_STROKES"/>
</g>

<g transform="matrix( 1, 0, 0, 1, -40.25,-37.75) ">
<use xlink:href="#icon_r_box_02_4_Layer2_0_MEMBER_0_MEMBER_3_MEMBER_0_MEMBER_4_MEMBER_0_1_STROKES"/>
</g>

<g transform="matrix( 1, 0, 0, 1, -40.25,-37.75) ">
<use xlink:href="#icon_r_box_02_4_Layer2_0_MEMBER_0_MEMBER_3_MEMBER_0_MEMBER_5_MEMBER_0_1_STROKES"/>
</g>

<g transform="matrix( 1, 0, 0, 1, -40.25,-37.75) ">
<use xlink:href="#icon_r_box_02_4_Layer2_0_MEMBER_0_MEMBER_3_MEMBER_1_MEMBER_0_MEMBER_0_1_STROKES"/>
</g>

<g transform="matrix( 1, 0, 0, 1, -40.25,-37.75) ">
<use xlink:href="#icon_r_box_02_4_Layer2_0_MEMBER_0_MEMBER_3_MEMBER_1_MEMBER_1_MEMBER_0_1_STROKES"/>
</g>

<g transform="matrix( 1, 0, 0, 1, -40.25,-37.75) ">
<use xlink:href="#icon_r_box_02_4_Layer2_0_MEMBER_0_MEMBER_3_MEMBER_1_MEMBER_2_MEMBER_0_1_STROKES"/>
</g>

<g transform="matrix( 1, 0, 0, 1, -40.25,-37.75) ">
<use xlink:href="#icon_r_box_02_4_Layer2_0_MEMBER_0_MEMBER_3_MEMBER_1_MEMBER_3_MEMBER_0_1_STROKES"/>
</g>

<g transform="matrix( 1, 0, 0, 1, -40.25,-37.75) ">
<use xlink:href="#icon_r_box_02_4_Layer2_0_MEMBER_0_MEMBER_3_MEMBER_1_MEMBER_4_MEMBER_0_1_STROKES"/>
</g>
</g>
</svg>
