
<svg xmlns="http://www.w3.org/2000/svg" version="1.1" xmlns:xlink="http://www.w3.org/1999/xlink" preserveAspectRatio="none" x="0px" y="0px" width="130px" height="115px" viewBox="0 0 130 115">
<defs>
<g id="icon_r_box_02_13_Layer3_0_FILL">
<path fill="#FFFFFF" fill-opacity="0" stroke="none" d="
M 65 -55
L -65 -55 -65 25 65 25 65 -55 Z"/>
</g>

<g id="icon_r_box_02_13_Layer3_1_FILL">
<path fill="#FFFFFF" fill-opacity="0" stroke="none" d="
M 65.05 49.95
L 65.05 24.95 -64.95 24.95 -64.95 49.95 65.05 49.95 Z"/>
</g>

<g id="icon_r_box_02_13_Layer3_2_FILL">
<path fill="#FFFFFF" fill-opacity="0" stroke="none" d="
M 65 -52.85
L 65 -57.85 -65 -57.85 -65 -52.85 65 -52.85 Z"/>
</g>

<g id="icon_r_box_02_13_Layer3_3_FILL">
<path fill="#FFFFFF" fill-opacity="0" stroke="none" d="
M 65 54.95
L 65 49.95 -65 49.95 -65 54.95 65 54.95 Z"/>
</g>

<g id="icon_r_box_02_13_Layer2_0_FILL">
<path fill="#994747" stroke="none" d="
M 68.7 44.25
L 68.7 29.45 5.25 29.45 5.25 44.25 68.7 44.25 Z"/>
</g>

<g id="icon_r_box_02_13_Layer2_1_FILL">
<path fill="#A4574D" stroke="none" d="
M 68.7 44.25
L 68.7 36.55 5.25 36.55 5.25 44.25 68.7 44.25 Z"/>
</g>

<g id="icon_r_box_02_13_Layer2_2_FILL">
<path fill="#336290" stroke="none" d="
M 40.85 36.55
L 40.85 29.45 18.75 29.45 18.75 36.55 40.85 36.55 Z"/>
</g>

<g id="icon_r_box_02_13_Layer2_3_MEMBER_0_FILL">
<path fill="#336290" stroke="none" d="
M 68.7 33.6
L 68.7 29.45 46.9 29.45 46.9 33.6 68.7 33.6 Z"/>
</g>

<g id="icon_r_box_02_13_Layer2_4_FILL">
<path fill="#E4A08F" stroke="none" d="
M 68.7 29.45
L 68.7 0.5 5.25 0.5 5.25 29.45 68.7 29.45 Z"/>
</g>

<g id="icon_r_box_02_13_Layer2_5_MEMBER_0_FILL">
<path fill="#BAE6FF" stroke="none" d="
M 65.7 13.35
L 65.7 3.5 8.25 3.5 8.25 13.35 65.7 13.35 Z"/>
</g>

<g id="icon_r_box_02_13_Layer2_6_MEMBER_0_FILL">
<path fill="#BAE6FF" stroke="none" d="
M 28.65 25.7
L 28.65 21.4 5.25 21.4 5.25 25.7 28.65 25.7 Z"/>
</g>

<g id="icon_r_box_02_13_Layer2_8_MEMBER_0_FILL">
<path fill="#FFFFFF" stroke="none" d="
M 10.75 36.55
L 10.75 29.45 8.35 29.45 8.35 36.55 10.75 36.55 Z"/>
</g>

<g id="icon_r_box_02_13_Layer2_8_MEMBER_1_FILL">
<path fill="#FFFFFF" stroke="none" d="
M 24.45 36.55
L 24.45 29.45 22.05 29.45 22.05 36.55 24.45 36.55 Z"/>
</g>

<g id="icon_r_box_02_13_Layer2_8_MEMBER_2_FILL">
<path fill="#FFFFFF" stroke="none" d="
M 38.2 41.25
L 38.2 29.45 35.75 29.45 35.75 41.25 38.2 41.25 Z"/>
</g>

<g id="icon_r_box_02_13_Layer2_8_MEMBER_3_FILL">
<path fill="#FFFFFF" stroke="none" d="
M 51.9 42.6
L 51.9 29.45 49.5 29.45 49.5 42.6 51.9 42.6 Z"/>
</g>

<g id="icon_r_box_02_13_Layer2_8_MEMBER_4_FILL">
<path fill="#FFFFFF" stroke="none" d="
M 65.6 44.25
L 65.6 29.45 63.2 29.45 63.2 44.25 65.6 44.25 Z"/>
</g>

<g id="icon_r_box_02_13_Layer2_9_FILL">
<path fill="#E4A08F" stroke="none" d="
M 27 36.55
L 5.25 36.55 5.25 44.25 68.7 44.25 27 36.55 Z"/>
</g>

<g id="icon_r_box_02_13_Layer2_10_FILL">
<path fill="#336290" stroke="none" d="
M 15.95 36.55
L 15.95 31.55 12.5 31.55 12.5 36.55 15.95 36.55 Z"/>
</g>

<g id="icon_r_box_02_13_Layer1_0_FILL">
<path fill="#000000" stroke="none" d="
M 24.85 -16.65
Q 24.65 -16.5 24.65 -16.2
L 24.65 -10.1
Q 24.65 -9.8 24.85 -9.65 25.05 -9.5 25.4 -9.5 25.8 -9.5 26 -9.65 26.2 -9.8 26.2 -10.1
L 26.2 -12.75 27.15 -12.75
Q 27.45 -12.75 27.6 -12.95 27.75 -13.1 27.75 -13.4 27.75 -13.65 27.6 -13.8 27.45 -14 27.15 -14
L 26.2 -14 26.2 -16.2
Q 26.2 -16.5 26 -16.65 25.8 -16.8 25.4 -16.8 25.05 -16.8 24.85 -16.65
M 20.2 -10.05
Q 19.95 -9.95 19.85 -9.65 19.7 -9.05 19.7 -8.35 19.7 -7.5 20.35 -7 21 -6.55 22.35 -6.55 22.95 -6.55 23.45 -6.55 24 -6.6 24.45 -6.65 24.85 -6.7 25.25 -6.8 25.65 -6.9 26 -7 26.3 -7.15 26.4 -7.4 26.5 -7.65 26.4 -7.9 26.3 -8.2 26.05 -8.3 25.8 -8.4 25.45 -8.3 24.9 -8.1 24.2 -8 23.45 -7.9 22.55 -7.9 21.85 -7.9 21.6 -8 21.3 -8.15 21.3 -8.5 21.3 -8.7 21.35 -8.95 21.4 -9.2 21.4 -9.4 21.5 -9.65 21.3 -9.85 21.1 -10.1 20.8 -10.15 20.4 -10.2 20.2 -10.05
M 19.95 -14.05
Q 19.7 -13.9 19.7 -13.6
L 19.7 -11.85 18.3 -11.85
Q 18 -11.85 17.9 -11.7 17.75 -11.5 17.75 -11.25 17.75 -11 17.9 -10.8 18 -10.6 18.3 -10.6
L 21.6 -10.6
Q 22.25 -10.6 22.9 -10.7 23.55 -10.75 24 -10.9 24.3 -11 24.4 -11.25 24.5 -11.45 24.45 -11.65 24.4 -11.9 24.2 -12 24 -12.15 23.75 -12.05 23.4 -12 22.95 -11.9 22.55 -11.85 22.05 -11.85
L 21.25 -11.85 21.25 -13.6
Q 21.25 -13.9 21 -14.05 20.8 -14.2 20.45 -14.2 20.15 -14.2 19.95 -14.05
M 19.05 -16.55
Q 18.75 -16.55 18.6 -16.35 18.45 -16.2 18.45 -15.9 18.45 -15.6 18.6 -15.4 18.75 -15.25 19.05 -15.25
L 21.5 -15.25
Q 21.9 -15.25 22.1 -15.1 22.3 -14.95 22.3 -14.55 22.3 -14.25 22.25 -13.9 22.2 -13.55 22.15 -13.25 22.05 -12.95 22.2 -12.75 22.35 -12.55 22.65 -12.5 22.95 -12.4 23.2 -12.5 23.45 -12.6 23.5 -12.9 23.7 -13.4 23.75 -13.95 23.85 -14.5 23.85 -14.95 23.85 -15.75 23.45 -16.15 23.05 -16.55 22.25 -16.55
L 19.05 -16.55
M 11.55 -15.8
Q 11.55 -16.1 11.35 -16.25 11.1 -16.4 10.75 -16.4 10.35 -16.4 10.15 -16.25 9.9 -16.1 9.9 -15.8
L 9.9 -14.6
Q 9.9 -13.55 9.35 -12.6 8.85 -11.65 7.8 -10.85 7.5 -10.65 7.5 -10.3 7.5 -10 7.7 -9.8 7.9 -9.55 8.2 -9.55 8.5 -9.55 8.8 -9.75 9.35 -10.15 9.85 -10.65 10.35 -11.2 10.7 -11.8
L 12.45 -9.9
Q 12.7 -9.65 13.05 -9.65 13.35 -9.7 13.55 -9.95 13.8 -10.2 13.8 -10.5 13.75 -10.8 13.5 -11.05
L 11.3 -13.15
Q 11.55 -13.85 11.55 -14.6
L 11.55 -15.8
M 14.85 -16.6
Q 14.6 -16.45 14.6 -16.2
L 14.6 -14.15 13.05 -14.15
Q 12.8 -14.15 12.65 -13.95 12.5 -13.8 12.5 -13.5 12.5 -13.2 12.65 -13 12.8 -12.85 13.05 -12.85
L 14.6 -12.85 14.6 -8.55
Q 14.6 -8.25 14.85 -8.1 15.05 -7.95 15.45 -7.95 15.8 -7.95 16 -8.1 16.2 -8.25 16.2 -8.55
L 16.2 -16.2
Q 16.2 -16.45 16 -16.6 15.8 -16.8 15.45 -16.8 15.05 -16.8 14.85 -16.6
M -2.6 -9.85
Q -2.85 -9.85 -3.05 -9.7 -3.2 -9.5 -3.2 -9.2 -3.2 -8.9 -3.05 -8.7 -2.85 -8.55 -2.6 -8.55
L 5.85 -8.55
Q 6.1 -8.55 6.25 -8.7 6.45 -8.9 6.45 -9.2 6.45 -9.5 6.25 -9.7 6.1 -9.85 5.85 -9.85
L 2.45 -9.85 2.45 -10.75
Q 2.45 -11 2.2 -11.15 2 -11.35 1.6 -11.35 1.25 -11.35 1.05 -11.15 0.8 -11 0.8 -10.75
L 0.8 -9.85 -2.6 -9.85
M -1.5 -16.4
Q -1.8 -16.4 -1.95 -16.2 -2.1 -16 -2.1 -15.75 -2.1 -15.5 -1.95 -15.35 -1.85 -15.2 -1.6 -15.15 -1.75 -14.8 -1.8 -14.4 -1.85 -14.05 -1.85 -13.6 -1.85 -13.05 -1.7 -12.7 -1.55 -12.3 -1.15 -12.05 -0.75 -11.8 -0.05 -11.7 0.6 -11.6 1.6 -11.6 2.45 -11.6 3.25 -11.7 4 -11.8 4.65 -12 4.95 -12.1 5.05 -12.3 5.2 -12.55 5.1 -12.85 5.05 -13.15 4.8 -13.25 4.6 -13.4 4.3 -13.3 3.75 -13.15 3.05 -13.05 2.35 -12.95 1.6 -12.95 1.05 -12.95 0.7 -13 0.35 -13.05 0.15 -13.15 -0.05 -13.25 -0.15 -13.4 -0.25 -13.55 -0.25 -13.75 -0.25 -14.1 -0.2 -14.45 -0.15 -14.8 -0.05 -15.15
L 4.4 -15.15
Q 4.7 -15.15 4.85 -15.35 5 -15.5 5 -15.75 5 -16 4.85 -16.2 4.7 -16.4 4.4 -16.4
L -1.5 -16.4 Z"/>
</g>

<path id="icon_r_box_02_13_Layer2_0_1_STROKES" stroke="#000000" stroke-width="1" stroke-linejoin="round" stroke-linecap="round" fill="none" d="
M 68.7 29.45
L 5.25 29.45 5.25 44.25 68.7 44.25 68.7 29.45 Z"/>

<path id="icon_r_box_02_13_Layer2_1_1_STROKES" stroke="#000000" stroke-width="1" stroke-linejoin="round" stroke-linecap="round" fill="none" d="
M 68.7 36.55
L 5.25 36.55 5.25 44.25 68.7 44.25 68.7 36.55 Z"/>

<path id="icon_r_box_02_13_Layer2_2_1_STROKES" stroke="#000000" stroke-width="1" stroke-linejoin="round" stroke-linecap="butt" fill="none" d="
M 40.85 36.55
L 18.75 36.55 18.75 29.45 40.85 29.45 40.85 36.55 Z"/>

<path id="icon_r_box_02_13_Layer2_3_MEMBER_1_1_STROKES" stroke="#000000" stroke-width="1" stroke-linejoin="round" stroke-linecap="butt" fill="none" d="
M 68.7 33.6
L 46.9 33.6 46.9 29.45 68.7 29.45 68.7 33.6 Z"/>

<path id="icon_r_box_02_13_Layer2_4_1_STROKES" stroke="#000000" stroke-width="1" stroke-linejoin="round" stroke-linecap="round" fill="none" d="
M 68.7 29.45
L 5.25 29.45 5.25 0.5 68.7 0.5 68.7 29.45 Z"/>

<path id="icon_r_box_02_13_Layer2_5_MEMBER_0_1_STROKES" stroke="#000000" stroke-width="1" stroke-linejoin="round" stroke-linecap="round" fill="none" d="
M 65.7 3.5
L 8.25 3.5 8.25 13.35 65.7 13.35 65.7 3.5 Z"/>

<path id="icon_r_box_02_13_Layer2_5_MEMBER_1_1_STROKES" stroke="#FFFFFF" stroke-width="1" stroke-linejoin="round" stroke-linecap="round" fill="none" d="
M 8.25 8.55
L 65.7 8.55"/>

<path id="icon_r_box_02_13_Layer2_5_MEMBER_2_MEMBER_0_1_STROKES" stroke="#000000" stroke-width="1" stroke-linejoin="round" stroke-linecap="round" fill="none" d="
M 13.55 3.5
L 13.55 13.35"/>

<path id="icon_r_box_02_13_Layer2_5_MEMBER_2_MEMBER_1_1_STROKES" stroke="#000000" stroke-width="1" stroke-linejoin="round" stroke-linecap="round" fill="none" d="
M 18.75 3.5
L 18.75 13.35"/>

<path id="icon_r_box_02_13_Layer2_5_MEMBER_2_MEMBER_2_1_STROKES" stroke="#000000" stroke-width="1" stroke-linejoin="round" stroke-linecap="round" fill="none" d="
M 23.95 3.5
L 23.95 13.35"/>

<path id="icon_r_box_02_13_Layer2_5_MEMBER_2_MEMBER_3_1_STROKES" stroke="#000000" stroke-width="1" stroke-linejoin="round" stroke-linecap="round" fill="none" d="
M 29.15 3.5
L 29.15 13.35"/>

<path id="icon_r_box_02_13_Layer2_5_MEMBER_2_MEMBER_4_1_STROKES" stroke="#000000" stroke-width="1" stroke-linejoin="round" stroke-linecap="round" fill="none" d="
M 34.35 3.5
L 34.35 13.35"/>

<path id="icon_r_box_02_13_Layer2_5_MEMBER_2_MEMBER_5_1_STROKES" stroke="#000000" stroke-width="1" stroke-linejoin="round" stroke-linecap="round" fill="none" d="
M 39.6 3.5
L 39.6 13.35"/>

<path id="icon_r_box_02_13_Layer2_5_MEMBER_2_MEMBER_6_1_STROKES" stroke="#000000" stroke-width="1" stroke-linejoin="round" stroke-linecap="round" fill="none" d="
M 44.8 3.5
L 44.8 13.35"/>

<path id="icon_r_box_02_13_Layer2_5_MEMBER_2_MEMBER_7_1_STROKES" stroke="#000000" stroke-width="1" stroke-linejoin="round" stroke-linecap="round" fill="none" d="
M 50 3.5
L 50 13.35"/>

<path id="icon_r_box_02_13_Layer2_5_MEMBER_2_MEMBER_8_1_STROKES" stroke="#000000" stroke-width="1" stroke-linejoin="round" stroke-linecap="round" fill="none" d="
M 55.2 3.5
L 55.2 13.35"/>

<path id="icon_r_box_02_13_Layer2_5_MEMBER_2_MEMBER_9_1_STROKES" stroke="#000000" stroke-width="1" stroke-linejoin="round" stroke-linecap="round" fill="none" d="
M 60.4 3.5
L 60.4 13.35"/>

<path id="icon_r_box_02_13_Layer2_5_MEMBER_3_1_STROKES" stroke="#000000" stroke-width="1" stroke-linejoin="round" stroke-linecap="round" fill="none" d="
M 65.7 3.5
L 8.25 3.5 8.25 13.35 65.7 13.35 65.7 3.5 Z"/>

<path id="icon_r_box_02_13_Layer2_6_MEMBER_0_1_STROKES" stroke="#000000" stroke-width="1" stroke-linejoin="round" stroke-linecap="round" fill="none" d="
M 28.65 25.7
L 5.25 25.7 5.25 21.4 28.65 21.4 28.65 25.7 Z"/>

<path id="icon_r_box_02_13_Layer2_6_MEMBER_1_MEMBER_0_1_STROKES" stroke="#000000" stroke-width="1" stroke-linejoin="round" stroke-linecap="round" fill="none" d="
M 9.5 21.4
L 9.5 25.7"/>

<path id="icon_r_box_02_13_Layer2_6_MEMBER_1_MEMBER_1_1_STROKES" stroke="#000000" stroke-width="1" stroke-linejoin="round" stroke-linecap="round" fill="none" d="
M 13.35 21.4
L 13.35 25.7"/>

<path id="icon_r_box_02_13_Layer2_6_MEMBER_1_MEMBER_2_1_STROKES" stroke="#000000" stroke-width="1" stroke-linejoin="round" stroke-linecap="round" fill="none" d="
M 17.15 21.4
L 17.15 25.7"/>

<path id="icon_r_box_02_13_Layer2_6_MEMBER_1_MEMBER_3_1_STROKES" stroke="#000000" stroke-width="1" stroke-linejoin="round" stroke-linecap="round" fill="none" d="
M 21 21.4
L 21 25.7"/>

<path id="icon_r_box_02_13_Layer2_6_MEMBER_1_MEMBER_4_1_STROKES" stroke="#000000" stroke-width="1" stroke-linejoin="round" stroke-linecap="round" fill="none" d="
M 24.8 21.4
L 24.8 25.7"/>

<path id="icon_r_box_02_13_Layer2_6_MEMBER_1_MEMBER_5_1_STROKES" stroke="#000000" stroke-width="1" stroke-linejoin="round" stroke-linecap="round" fill="none" d="
M 28.65 21.4
L 28.65 25.7"/>

<path id="icon_r_box_02_13_Layer2_7_1_STROKES" stroke="#000000" stroke-width="1" stroke-linejoin="round" stroke-linecap="round" fill="none" d="
M 68.7 29.45
L 5.25 29.45 5.25 0.5 68.7 0.5 68.7 29.45 Z"/>

<path id="icon_r_box_02_13_Layer2_8_MEMBER_0_1_STROKES" stroke="#000000" stroke-width="1" stroke-linejoin="round" stroke-linecap="round" fill="none" d="
M 10.75 36.55
L 8.35 36.55 8.35 29.45 10.75 29.45 10.75 36.55 Z"/>

<path id="icon_r_box_02_13_Layer2_8_MEMBER_1_1_STROKES" stroke="#000000" stroke-width="1" stroke-linejoin="round" stroke-linecap="round" fill="none" d="
M 24.45 36.55
L 22.05 36.55 22.05 29.45 24.45 29.45 24.45 36.55 Z"/>

<path id="icon_r_box_02_13_Layer2_8_MEMBER_2_1_STROKES" stroke="#000000" stroke-width="1" stroke-linejoin="round" stroke-linecap="round" fill="none" d="
M 38.2 41.25
L 35.75 41.25 35.75 29.45 38.2 29.45 38.2 41.25 Z"/>

<path id="icon_r_box_02_13_Layer2_8_MEMBER_3_1_STROKES" stroke="#000000" stroke-width="1" stroke-linejoin="round" stroke-linecap="round" fill="none" d="
M 51.9 42.6
L 49.5 42.6 49.5 29.45 51.9 29.45 51.9 42.6 Z"/>

<path id="icon_r_box_02_13_Layer2_8_MEMBER_4_1_STROKES" stroke="#000000" stroke-width="1" stroke-linejoin="round" stroke-linecap="round" fill="none" d="
M 65.6 44.25
L 63.2 44.25 63.2 29.45 65.6 29.45 65.6 44.25 Z"/>

<path id="icon_r_box_02_13_Layer2_9_1_STROKES" stroke="#000000" stroke-width="1" stroke-linejoin="round" stroke-linecap="round" fill="none" d="
M 68.7 44.25
L 5.25 44.25 5.25 36.55 27 36.55 68.7 44.25 Z"/>

<path id="icon_r_box_02_13_Layer2_10_1_STROKES" stroke="#000000" stroke-width="1" stroke-linejoin="round" stroke-linecap="butt" fill="none" d="
M 15.95 36.55
L 12.5 36.55 12.5 31.55 15.95 31.55 15.95 36.55 Z"/>

<path id="icon_r_box_02_13_Layer2_11_1_STROKES" stroke="#000000" stroke-width="1" stroke-linejoin="round" stroke-linecap="round" fill="none" d="
M 0.5 44.25
L 73.45 44.25"/>
</defs>

<g transform="matrix( 1, 0, 0, 0.999603271484375, 65,60) ">
<g transform="matrix( 1, 0, 0, 1, 0,0) ">
<use xlink:href="#icon_r_box_02_13_Layer3_0_FILL"/>
</g>

<g transform="matrix( 1, 0, 0, 1, -0.05,0.05) ">
<use xlink:href="#icon_r_box_02_13_Layer3_1_FILL"/>
</g>

<g transform="matrix( 1, 0, 0, 1, 0,-2.15) ">
<use xlink:href="#icon_r_box_02_13_Layer3_2_FILL"/>
</g>

<g transform="matrix( 1, 0, 0, 1, 0,0.05) ">
<use xlink:href="#icon_r_box_02_13_Layer3_3_FILL"/>
</g>

<g transform="matrix( 1, 0, 0, 1, -36.95,-33.5) ">
<use xlink:href="#icon_r_box_02_13_Layer2_0_FILL"/>

<use xlink:href="#icon_r_box_02_13_Layer2_0_1_STROKES"/>
</g>

<g transform="matrix( 1, 0, 0, 1, -36.95,-33.5) ">
<use xlink:href="#icon_r_box_02_13_Layer2_1_FILL"/>

<use xlink:href="#icon_r_box_02_13_Layer2_1_1_STROKES"/>
</g>

<g transform="matrix( 1, 0, 0, 1, -36.95,-33.5) ">
<use xlink:href="#icon_r_box_02_13_Layer2_2_FILL"/>

<use xlink:href="#icon_r_box_02_13_Layer2_2_1_STROKES"/>
</g>

<g transform="matrix( 1, 0, 0, 1, -36.95,-33.5) ">
<use xlink:href="#icon_r_box_02_13_Layer2_3_MEMBER_0_FILL"/>
</g>

<g transform="matrix( 1, 0, 0, 1, -36.95,-33.5) ">
<use xlink:href="#icon_r_box_02_13_Layer2_3_MEMBER_1_1_STROKES"/>
</g>

<g transform="matrix( 1, 0, 0, 1, -36.95,-33.5) ">
<use xlink:href="#icon_r_box_02_13_Layer2_4_FILL"/>

<use xlink:href="#icon_r_box_02_13_Layer2_4_1_STROKES"/>
</g>

<g transform="matrix( 1, 0, 0, 1, -36.95,-33.5) ">
<use xlink:href="#icon_r_box_02_13_Layer2_5_MEMBER_0_FILL"/>

<use xlink:href="#icon_r_box_02_13_Layer2_5_MEMBER_0_1_STROKES"/>
</g>

<g transform="matrix( 1, 0, 0, 1, -36.95,-33.5) ">
<use xlink:href="#icon_r_box_02_13_Layer2_5_MEMBER_1_1_STROKES"/>
</g>

<g transform="matrix( 1, 0, 0, 1, -36.95,-33.5) ">
<use xlink:href="#icon_r_box_02_13_Layer2_5_MEMBER_2_MEMBER_0_1_STROKES"/>
</g>

<g transform="matrix( 1, 0, 0, 1, -36.95,-33.5) ">
<use xlink:href="#icon_r_box_02_13_Layer2_5_MEMBER_2_MEMBER_1_1_STROKES"/>
</g>

<g transform="matrix( 1, 0, 0, 1, -36.95,-33.5) ">
<use xlink:href="#icon_r_box_02_13_Layer2_5_MEMBER_2_MEMBER_2_1_STROKES"/>
</g>

<g transform="matrix( 1, 0, 0, 1, -36.95,-33.5) ">
<use xlink:href="#icon_r_box_02_13_Layer2_5_MEMBER_2_MEMBER_3_1_STROKES"/>
</g>

<g transform="matrix( 1, 0, 0, 1, -36.95,-33.5) ">
<use xlink:href="#icon_r_box_02_13_Layer2_5_MEMBER_2_MEMBER_4_1_STROKES"/>
</g>

<g transform="matrix( 1, 0, 0, 1, -36.95,-33.5) ">
<use xlink:href="#icon_r_box_02_13_Layer2_5_MEMBER_2_MEMBER_5_1_STROKES"/>
</g>

<g transform="matrix( 1, 0, 0, 1, -36.95,-33.5) ">
<use xlink:href="#icon_r_box_02_13_Layer2_5_MEMBER_2_MEMBER_6_1_STROKES"/>
</g>

<g transform="matrix( 1, 0, 0, 1, -36.95,-33.5) ">
<use xlink:href="#icon_r_box_02_13_Layer2_5_MEMBER_2_MEMBER_7_1_STROKES"/>
</g>

<g transform="matrix( 1, 0, 0, 1, -36.95,-33.5) ">
<use xlink:href="#icon_r_box_02_13_Layer2_5_MEMBER_2_MEMBER_8_1_STROKES"/>
</g>

<g transform="matrix( 1, 0, 0, 1, -36.95,-33.5) ">
<use xlink:href="#icon_r_box_02_13_Layer2_5_MEMBER_2_MEMBER_9_1_STROKES"/>
</g>

<g transform="matrix( 1, 0, 0, 1, -36.95,-33.5) ">
<use xlink:href="#icon_r_box_02_13_Layer2_5_MEMBER_3_1_STROKES"/>
</g>

<g transform="matrix( 1, 0, 0, 1, -36.95,-33.5) ">
<use xlink:href="#icon_r_box_02_13_Layer2_6_MEMBER_0_FILL"/>

<use xlink:href="#icon_r_box_02_13_Layer2_6_MEMBER_0_1_STROKES"/>
</g>

<g transform="matrix( 1, 0, 0, 1, -36.95,-33.5) ">
<use xlink:href="#icon_r_box_02_13_Layer2_6_MEMBER_1_MEMBER_0_1_STROKES"/>
</g>

<g transform="matrix( 1, 0, 0, 1, -36.95,-33.5) ">
<use xlink:href="#icon_r_box_02_13_Layer2_6_MEMBER_1_MEMBER_1_1_STROKES"/>
</g>

<g transform="matrix( 1, 0, 0, 1, -36.95,-33.5) ">
<use xlink:href="#icon_r_box_02_13_Layer2_6_MEMBER_1_MEMBER_2_1_STROKES"/>
</g>

<g transform="matrix( 1, 0, 0, 1, -36.95,-33.5) ">
<use xlink:href="#icon_r_box_02_13_Layer2_6_MEMBER_1_MEMBER_3_1_STROKES"/>
</g>

<g transform="matrix( 1, 0, 0, 1, -36.95,-33.5) ">
<use xlink:href="#icon_r_box_02_13_Layer2_6_MEMBER_1_MEMBER_4_1_STROKES"/>
</g>

<g transform="matrix( 1, 0, 0, 1, -36.95,-33.5) ">
<use xlink:href="#icon_r_box_02_13_Layer2_6_MEMBER_1_MEMBER_5_1_STROKES"/>
</g>

<g transform="matrix( 1, 0, 0, 1, -36.95,-33.5) ">
<use xlink:href="#icon_r_box_02_13_Layer2_7_1_STROKES"/>
</g>

<g transform="matrix( 1, 0, 0, 1, -36.95,-33.5) ">
<use xlink:href="#icon_r_box_02_13_Layer2_8_MEMBER_0_FILL"/>

<use xlink:href="#icon_r_box_02_13_Layer2_8_MEMBER_0_1_STROKES"/>
</g>

<g transform="matrix( 1, 0, 0, 1, -36.95,-33.5) ">
<use xlink:href="#icon_r_box_02_13_Layer2_8_MEMBER_1_FILL"/>

<use xlink:href="#icon_r_box_02_13_Layer2_8_MEMBER_1_1_STROKES"/>
</g>

<g transform="matrix( 1, 0, 0, 1, -36.95,-33.5) ">
<use xlink:href="#icon_r_box_02_13_Layer2_8_MEMBER_2_FILL"/>

<use xlink:href="#icon_r_box_02_13_Layer2_8_MEMBER_2_1_STROKES"/>
</g>

<g transform="matrix( 1, 0, 0, 1, -36.95,-33.5) ">
<use xlink:href="#icon_r_box_02_13_Layer2_8_MEMBER_3_FILL"/>

<use xlink:href="#icon_r_box_02_13_Layer2_8_MEMBER_3_1_STROKES"/>
</g>

<g transform="matrix( 1, 0, 0, 1, -36.95,-33.5) ">
<use xlink:href="#icon_r_box_02_13_Layer2_8_MEMBER_4_FILL"/>

<use xlink:href="#icon_r_box_02_13_Layer2_8_MEMBER_4_1_STROKES"/>
</g>

<g transform="matrix( 1, 0, 0, 1, -36.95,-33.5) ">
<use xlink:href="#icon_r_box_02_13_Layer2_9_FILL"/>

<use xlink:href="#icon_r_box_02_13_Layer2_9_1_STROKES"/>
</g>

<g transform="matrix( 1, 0, 0, 1, -36.95,-33.5) ">
<use xlink:href="#icon_r_box_02_13_Layer2_10_FILL"/>

<use xlink:href="#icon_r_box_02_13_Layer2_10_1_STROKES"/>
</g>

<g transform="matrix( 1, 0, 0, 1, -36.95,-33.5) ">
<use xlink:href="#icon_r_box_02_13_Layer2_11_1_STROKES"/>
</g>

<g transform="matrix( 1, 0, 0, 1, 0,0) ">
<use xlink:href="#icon_r_box_02_13_Layer1_0_FILL"/>
</g>
</g>
</svg>
