
<svg xmlns="http://www.w3.org/2000/svg" version="1.1" xmlns:xlink="http://www.w3.org/1999/xlink" preserveAspectRatio="none" x="0px" y="0px" width="130px" height="115px" viewBox="0 0 130 115">
<defs>
<filter id="Filter_1" x="-27.552527185529577%" y="-20.839493588445333%" width="155.10505437105917%" height="141.67898717689067%" color-interpolation-filters="sRGB">
<feFlood flood-color="#000000" flood-opacity="1" in="SourceGraphic" result="result1"/>

<feGaussianBlur in="SourceGraphic" stdDeviation="1.6666666666666667,1.6666666666666667" result="result2"/>

<feComposite in2="result2" in="result1" operator="in" result="result3"/>

<feComposite in2="result3" in="SourceGraphic" operator="over" result="result4"/>
</filter>

<g id="icon_r_box_02_17_Layer3_0_FILL">
<path fill="#FFFFFF" fill-opacity="0" stroke="none" d="
M 65 -55
L -65 -55 -65 25 65 25 65 -55 Z"/>
</g>

<g id="icon_r_box_02_17_Layer3_1_FILL">
<path fill="#FFFFFF" fill-opacity="0" stroke="none" d="
M 65.05 49.95
L 65.05 24.95 -64.95 24.95 -64.95 49.95 65.05 49.95 Z"/>
</g>

<g id="icon_r_box_02_17_Layer3_2_FILL">
<path fill="#FFFFFF" fill-opacity="0" stroke="none" d="
M 65 -52.85
L 65 -57.85 -65 -57.85 -65 -52.85 65 -52.85 Z"/>
</g>

<g id="icon_r_box_02_17_Layer3_3_FILL">
<path fill="#FFFFFF" fill-opacity="0" stroke="none" d="
M 65 54.95
L 65 49.95 -65 49.95 -65 54.95 65 54.95 Z"/>
</g>

<g id="Duplicate_Items_Folder_vxcvdfdf_0_Layer1_0_FILL">
<path fill="#FFFFFF" stroke="none" d="
M -23.1 -50.2
L -24.15 -50
Q -25.45 -49.65 -26.35 -48.85 -27.95 -47.5 -29.05 -44.15
L -29.5 -42.2
Q -29.95 -39.85 -29.45 -37.45 -29 -35.05 -27.55 -33.35 -26.9 -32.55 -26.25 -32.1 -26.35 -30.25 -25.35 -28.95 -24.45 -27.85 -22.7 -27.55 -21.55 -27.15 -20.2 -27.4
L -20 -27.5
Q -19.8501953125 -27.3734375 -19.75 -27.3
L -19.7 -27.25
Q -19.303125 -26.9220703125 -18.8 -26.7
L -18.85 -26.7
Q -18.389453125 -26.4861328125 -17.9 -26.35
L -17.85 -26.3
Q -17.470703125 -25.9896484375 -17.05 -25.7
L -17.05 -21.95
Q -17.125 -22.025 -17.2 -22.1 -17.3447265625 -22.2482421875 -17.55 -22.25 -17.7552734375 -22.2482421875 -17.9 -22.1 -18.0482421875 -21.9552734375 -18.05 -21.75 -18.0494140625 -21.6904296875 -18.05 -21.65 -18.93203125 -21.4162109375 -19.85 -21.15 -19.856640625 -21.1685546875 -19.9 -21.2 -20.75 -20.9 -21.55 -20.55 -24.0236328125 -19.5259765625 -26.5 -17.95
L -26.5 -17.9
Q -26.77578125 -17.7189453125 -27 -17.45 -27.95 -16.25 -28 -14.85
L -27.7 -0.95
Q -27.663671875 0.209765625 -27 1.2
L -27.25 10.95
Q -25.141796875 11.4419921875 -23.05 11.8
L -22.7 39.65
Q -22.48046875 39.67578125 -22.25 39.7
L -22.6 41.6
Q -23.05 44.8 -22.95 46.7 -8.2552734375 47.654296875 -6.4 46.75 -6.3107421875 46.840234375 -6.2 46.85 -5.9900390625 46.8634765625 -5.85 46.7 -5.6677734375 46.5990234375 -5.65 46.4
L -5.65 46.35
Q 5.40625 46.94140625 6.5 46.1 7.05 43.2 5.95 41.8 4.9 40.5 1.9 40.1 0.431640625 39.88515625 -0.85 39 -0.4654296875 38.992578125 -0.1 38.95
L -0.3 10.95
Q 1.26328125 10.683984375 2.85 10.35 3 10.3 3.1 10.15 3.2 10 3.2 9.85
L 1.55 -0.75
Q 2.7283203125 -0.6162109375 3.75 -1.2
L 14.4 -6.6 13 -9.1 13.65 -8.8 13.7 -8.75
Q 14.95 -8.3 16.05 -8.7 16.1552734375 -8.752734375 16.3 -8.85
L 26.75 -6.05
Q 26.86875 -6.0103515625 27 -6
L 27.4 -5.9
Q 27.7 -5.8 28 -5.95 28.25 -6.15 28.35 -6.45
L 32.9 -23.45
Q 32.95 -23.75 32.85 -23.95 32.65 -24.25 32.35 -24.35
L 28.15 -25.5 28.1 -25.55
Q 27.9 -25.95 27.5 -26.05
L 26.65 -26.3 26.7 -26.85
Q 26.8671875 -26.850390625 27 -26.95
L 27 -26.9
Q 27.2 -27.05 27.25 -27.3 27.3 -27.5 27.2 -27.65
L 27.2 -27.75
Q 27.1 -27.85 26.85 -27.95
L 24.75 -28.5
Q 24.55 -28.55 24.35 -28.5
L 24.35 -28.45
Q 24.1 -28.35 24.05 -28.15 24 -27.9 24.15 -27.7 24.2232421875 -27.553515625 24.35 -27.5
L 24.1 -27 23.25 -27.2
Q 22.85 -27.3 22.4 -27.1
L 22.4 -27.05
Q 22.376953125 -27.035546875 22.35 -27.05
L 19.25 -27.85
Q 19.1408203125 -27.886328125 19.05 -27.9
L 18.6 -28
Q 18.3 -28.1 18.05 -27.9 17.7 -27.8 17.65 -27.5
L 15.35 -19
Q 15.29296875 -18.9619140625 15.2 -18.95 15.15625 -18.904296875 15.1 -18.9 15.07265625 -18.8626953125 15.05 -18.85 14.8 -18.7 14.3 -17.7 13.75 -16.75 12.6 -16.1 12.5 -15.95 12.4 -15.8 11.9220703125 -15.0853515625 11.55 -14.3 11.186328125 -13.5724609375 11.1 -13.15
L 10.8 -13 10 -14.45 3.35 -10.5
Q 1.9 -13.7 0.1 -16.65
L -1.25 -18.85 -1.25 -18.9
Q -1.35 -19 -1.45 -19.05 -3.367578125 -20.155078125 -5.3 -20.9 -5.0048828125 -21.24921875 -5.05 -21.7
L -5.15 -22.95
Q -5.1580078125 -23.030859375 -5.2 -23.1 -4.6533203125 -23.1611328125 -4.15 -23.25 -3.15 -23.4 -2.15 -23.8 -0.3 -24.45 1.3 -26.05 3.5708984375 -28.41953125 2.85 -33.05 2.839453125 -33.287109375 2.8 -33.55
L 2.75 -33.55 1.9 -38.75 3.35 -41
Q 4.8 -43.5 4.5 -45.25 4.15 -47.4 1.65 -49.25 -1.15 -51.2 -6.7 -52.95 -12.05 -54.65 -16.75 -53.85 -21.45 -53 -23.1 -50.2
M -9 -21.95
Q -9.07890625 -21.9322265625 -9.2 -21.95
L -9.05 -23.1
Q -8.347265625 -22.991796875 -7.65 -23 -7.6609375 -22.859375 -7.65 -22.75
L -7.55 -21.6
Q -7.734765625 -21.6435546875 -7.95 -21.7 -7.97109375 -21.83046875 -8.05 -22 -8.1046875 -22.1658203125 -8.3 -22.25 -8.4849609375 -22.3419921875 -8.7 -22.3 -8.8658203125 -22.1955078125 -8.95 -22 -8.9712890625 -21.9572265625 -9 -21.95
M -10.85 40.7
Q -12.20546875 40.5015625 -13.4 39.75 -12.86875 39.709375 -12.35 39.65
L -11.55 25.3 -10.45 38.95
Q -9.9751953125 39.0048828125 -9.5 39.05
L -9.85 40.85
Q -10.306640625 40.7724609375 -10.85 40.7 Z"/>
</g>

<g id="Duplicate_Items_Folder_vxcvdfdf_0_Layer0_0_FILL">
<path fill="#59322A" stroke="none" d="
M 56.45 88.9
Q 55 90.3 53.15 90.55 50.5 90.9 49.55 92.05 48.55 93.3 49.05 95.9 50.2 96.8 63.95 95.9 64.05 94.2 63.65 91.35
L 63.2 88.85
Q 59.8720703125 89.674609375 56.45 88.9 Z"/>
</g>

<g id="Duplicate_Items_Folder_vxcvdfdf_0_Layer0_1_FILL">
<path fill="#65382F" stroke="none" d="
M 56.45 88.9
Q 55 90.3 53.15 90.55 50.5 90.9 49.55 92.05 48.55 93.3 49.05 95.9 50.2 96.8 63.95 95.9 64.05 94.2 63.65 91.35
L 63.2 88.85
Q 59.8720703125 89.674609375 56.45 88.9 Z"/>
</g>

<g id="Duplicate_Items_Folder_vxcvdfdf_0_Layer0_3_FILL">
<path fill="#E99E43" stroke="none" d="
M -23.2 0.7
L -22.7 39.65
Q -17.6 40.25 -12.35 39.65
L -10.1 0.7 -23.2 0.7 Z"/>
</g>

<g id="Duplicate_Items_Folder_vxcvdfdf_0_Layer0_4_FILL">
<path fill="#E99E43" stroke="none" d="
M -13.45 0.7
L -10.45 38.95
Q -5.25 39.55 -0.1 38.95
L -0.35 0.7 -13.45 0.7 Z"/>
</g>

<g id="Duplicate_Items_Folder_vxcvdfdf_0_Layer0_5_MEMBER_0_FILL">
<path fill="#FFBE8C" stroke="none" d="
M 12.05 -8.75
Q 12.45 -8.75 12.75 -9.05 17 -13.25 23.6 -12.9 24 -12.9 24.35 -13.15 24.65 -13.45 24.65 -13.85 24.65 -14.25 24.4 -14.55 24.1 -14.9 23.7 -14.9 16.2 -15.25 11.35 -10.45 11.05 -10.15 11.05 -9.75 11.05 -9.35 11.35 -9.05 11.65 -8.75 12.05 -8.75
M 16.85 -11.6
Q 16.5154296875 -11.3734375 16.4 -11 16.279296875 -10.583984375 16.45 -10.25 16.6765625 -9.8640625 17.05 -9.75 17.133984375 -9.731640625 17.2 -9.75 17.0126953125 -9.4427734375 17.1 -9.05 17.25 -8.7 17.6 -8.45 17.7033203125 -8.376171875 17.8 -8.35 17.735546875 -8.2513671875 17.65 -8.15 17.4673828125 -7.7951171875 17.55 -7.4 17.6865234375 -6.9923828125 18.05 -6.8 18.40546875 -6.5677734375 18.8 -6.7 21.152734375 -7.2896484375 23.55 -6.4 23.9419921875 -6.26640625 24.3 -6.45 24.691015625 -6.6181640625 24.8 -7 24.971484375 -7.392578125 24.8 -7.8 24.6322265625 -8.153125 24.25 -8.3 24.1080078125 -8.3525390625 23.95 -8.4 24.3439453125 -8.29375 24.7 -8.15 25.05 -8 25.45 -8.1 25.85 -8.35 26 -8.65 26.15 -9.05 26 -9.4 25.8 -9.85 25.45 -10 25.4013671875 -10.0203125 25.35 -10.05 25.582421875 -10.0529296875 25.8 -10.2 26.162109375 -10.3783203125 26.25 -10.8 26.3828125 -11.18046875 26.15 -11.55 25.972265625 -11.91171875 25.55 -12.05 20.266015625 -13.4958984375 16.85 -11.6 Z"/>
</g>

<g id="Duplicate_Items_Folder_vxcvdfdf_0_Layer0_5_MEMBER_1_FILL">
<path fill="#FFBE8C" stroke="none" d="
M 17.75 -13.55
Q 17.5935546875 -13.581640625 17.4 -13.5
L 8.65 -9.1
Q 8.5201171875 -9.015234375 8.45 -8.85 8.37890625 -8.692578125 8.4 -8.55
L 9.5 -4.2
Q 9.562109375 -4.0279296875 9.65 -3.95 9.7814453125 -3.8224609375 9.9 -3.8 10.081640625 -3.7814453125 10.2 -3.85
L 12.45 -4.95 13.4 -4.45
Q 13.4369140625 -4.4349609375 13.45 -4.45 15.0669921875 -3.85390625 16.35 -4.4 17.0541015625 -4.629296875 19 -5.95
L 19 -5.95
Q 20.2966796875 -6.8171875 21.05 -6.8 21.2076171875 -6.7904296875 21.3 -6.85 21.4486328125 -6.9109375 21.5 -7.05 21.5966796875 -7.1404296875 21.6 -7.3 21.70625 -10.3595703125 19.8 -12.25 18.7900390625 -13.2556640625 17.75 -13.55 Z"/>
</g>

<g id="Duplicate_Items_Folder_vxcvdfdf_0_Layer0_5_MEMBER_2_FILL">
<path fill="#FFBE8C" stroke="none" d="
M 14.55 -12.45
Q 15.25 -10.75 18.5 -12.55 20.1 -14 19.15 -16.1 20.75 -17.75 20.3 -18.95 19.85 -19.95 18.95 -19.45 18.7 -19.3 18.1 -18.15 17.5 -17.1 16.2 -16.35 15.5 -15.4 15 -14.35 14.35 -13 14.55 -12.45 Z"/>
</g>

<g id="Duplicate_Items_Folder_vxcvdfdf_0_Layer0_6_FILL">
<path fill="#1E649B" stroke="none" d="
M 3.35 -10.5
Q 1.9 -13.7 0.1 -16.65
L -1.25 -18.9 -8.55 -16 -1.4 -2.6
Q -0.7 -1.3 0.7 -0.95 2.35 -0.4 3.75 -1.2
L 14.4 -6.6 10 -14.45 3.35 -10.5 Z"/>
</g>

<g id="Duplicate_Items_Folder_vxcvdfdf_0_Layer0_7_FILL">
<path fill="#C7E7FF" stroke="none" d="
M -1.45 -19
Q -7.75 -22.65 -14 -22.25 -20.25 -21.9 -26.5 -17.9
L -27 9.5 -26.85 9.85 -26.55 10
Q -25.25 10.2 -22.95 10.3 -20.1 10.4 -18.35 10.5 -10.55 10.9 -5.6 10.3 -1.65 9.85 2.25 8.4
L 2.5 8.2 2.6 7.9 -1.2 -18.65
Q -1.2 -18.8 -1.25 -18.85 -1.35 -18.95 -1.45 -19 Z"/>
</g>

<g id="Duplicate_Items_Folder_vxcvdfdf_0_Layer0_8_FILL">
<path fill="#FBA25D" stroke="none" d="
M -17.05 -28.35
L -17.05 -21.2
Q -16.25 -20.6 -14.9 -20.2 -12.2 -19.4 -9.35 -20.3
L -8.45 -28.35 -17.05 -28.35 Z"/>
</g>

<g id="Duplicate_Items_Folder_vxcvdfdf_0_Layer0_9_FILL">
<path fill="#2E3354" stroke="none" d="
M 2.9 -54.15
L 3.4 -50.95 4.95 -53.3
Q 6.45 -55.95 6.15 -57.8 5.8 -60.05 3.15 -62 0.2 -64.05 -5.65 -65.9 -11.25 -67.7 -16.2 -66.85 -21.15 -65.95 -22.9 -63
L -24 -62.8
Q -25.35 -62.4 -26.3 -61.6 -28 -60.15 -29.15 -56.65
L -29.65 -54.6
Q -30.1 -52.1 -29.6 -49.6 -29.1 -47.05 -27.6 -45.25 -26.9 -44.4 -26.2 -43.95
L -26.2 -44.1
Q -26 -46.2 -24.4 -46.95 -22.9 -47.6 -21.25 -46.95
L -21 -46.35
Q -20.6 -45.65 -20.35 -45.4 -19.25 -44.15 -19.15 -44.8 -19 -46.5 -18.7 -47.4 -14.65 -50.2 -12.3 -55.15 -11.15 -57.6 -10.85 -59.5 -8.4 -59.55 -5.5 -58.95 0.35 -57.6 2.9 -54.15 Z"/>

<path fill="#FFBE8C" stroke="none" d="
M 3.4 -50.95
L 2.9 -54.15
Q 0.35 -57.6 -5.5 -58.95 -8.4 -59.55 -10.85 -59.5 -11.15 -57.6 -12.3 -55.15 -14.65 -50.2 -18.7 -47.4 -19 -46.5 -19.15 -44.8 -19.25 -44.15 -20.35 -45.4 -20.6 -45.65 -21 -46.35
L -21.25 -46.95
Q -22.9 -47.6 -24.4 -46.95 -26 -46.2 -26.2 -44.1
L -26.2 -43.95
Q -26.3 -42 -25.25 -40.65 -24.3 -39.5 -22.5 -39.15 -21.25 -38.75 -19.85 -39
L -18.75 -39.35
Q -17.75 -38.2 -17.35 -37.85 -16.2 -36.9 -14.7 -36.2
L -13.95 -35.85
Q -12.55 -35.35 -10.7 -34.9 -8.25 -34.3 -5.9 -34.3 -5.35 -34.4 -4.8 -34.4 -3.85 -34.5 -2.95 -34.65 -1.9 -34.8 -0.85 -35.2 1.1 -35.9 2.8 -37.6 5.2 -40.1 4.4 -45.05
L 3.4 -50.95 Z"/>
</g>

<g id="Duplicate_Items_Folder_vxcvdfdf_0_Layer0_10_MEMBER_0_STROKES_1_FILL">
<path fill="#262C52" stroke="none" d="
M 17.95 14.55
L 17.85 14.5 17.7 14.5 17.65 14.45 16.9 14.45 16.6 14.5 16.5 14.55 16.35 14.6 15.9 14.8 15.75 14.95 15.65 15 15.5 15.15 15.45 15.25
Q 15.15 15.75 15.6 16 15.7 16.1 16 16.1
L 16.1 16.05 16.35 16.05 16.5 16 16.55 16 16.65 15.95 16.8 15.9 16.9 15.9 17 15.85 17.15 15.8 17.25 15.8 17.35 15.75 17.8 15.6 18 15.5 18.05 15.5
Q 18.55 15.3 18.35 14.85 18.15 14.55 17.95 14.55 Z"/>
</g>

<g id="Duplicate_Items_Folder_vxcvdfdf_0_Layer0_10_MEMBER_1_STROKES_1_FILL">
<path fill="#262C52" stroke="none" d="
M 8.75 15.45
L 8.3 15.45 8.2 15.5 8.1 15.5 8 15.55
Q 7.5 15.65 7.6 16.15 7.7 16.45 7.9 16.5
L 7.95 16.5 8.15 16.6 8.2 16.6 8.2 16.65 8.25 16.65 8.85 16.85 8.9 16.9 9 16.9 9.1 16.95 9.2 16.95 9.2 17 9.4 17 9.45 17.05 9.65 17.05
Q 10.15 17.2 10.35 16.7
L 10.3 16.3 10.25 16.2 10.1 16.05 10.1 16 10 15.95 9.85 15.8 9.45 15.6 9.4 15.6 9.35 15.55 9.25 15.55 8.75 15.45 Z"/>
</g>

<g id="Duplicate_Items_Folder_vxcvdfdf_0_Layer0_10_MEMBER_2_FILL">
<path fill="#FF9A7B" stroke="none" d="
M 26.95 26.65
Q 26.95 25.95 26 25.45 25.1 25 23.75 25 22.4 25 21.45 25.45 20.55 25.95 20.55 26.65 20.55 27.35 21.45 27.8 22.4 28.3 23.75 28.3 25.1 28.3 26 27.8 26.95 27.35 26.95 26.65 Z"/>
</g>

<g id="Duplicate_Items_Folder_vxcvdfdf_0_Layer0_10_MEMBER_3_FILL">
<path fill="#000000" stroke="none" d="
M 18.9 22.25
Q 18.9 21.3 18.55 20.6 18.2 19.9 17.7 19.9 17.2 19.9 16.85 20.6 16.5 21.3 16.5 22.25 16.5 23.2 16.85 23.9 17.2 24.6 17.7 24.6 18.2 24.6 18.55 23.9 18.9 23.2 18.9 22.25 Z"/>
</g>

<g id="Duplicate_Items_Folder_vxcvdfdf_0_Layer0_10_MEMBER_4_FILL">
<path fill="#FF9A7B" stroke="none" d="
M 41.8 24.1
Q 41.2951171875 24 40.65 24 39.6 24 38.95 24.35 38.25 24.7 38.25 25.25 38.25 25.75 38.95 26.1 39.6 26.5 40.65 26.5 41.4 26.5 42 26.3 42 25.25 41.8 24.15
L 41.8 24.1 Z"/>
</g>

<g id="Duplicate_Items_Folder_vxcvdfdf_0_Layer0_10_MEMBER_5_FILL">
<path fill="#000000" stroke="none" d="
M 10.05 22.9
Q 10.05 21.9 9.6 21.15 9.15 20.4 8.55 20.4 7.9 20.4 7.45 21.15 7.05 21.9 7.05 22.9 7.05 23.95 7.45 24.65 7.9 25.4 8.55 25.4 9.15 25.4 9.6 24.65 10.05 23.95 10.05 22.9 Z"/>
</g>

<g id="Duplicate_Items_Folder_vxcvdfdf_0_Layer0_10_MEMBER_7_FILL">
<path fill="#E71818" stroke="none" d="
M 60.95 21.25
Q 60.9 21.1 60.8 21.05 60.65 20.95 60.5 20.95 60.35 20.95 60.25 21.05 60 21.15 58.75 21.75 57.55 22.25 55.95 22.3 55.8 22.3 55.7 22.4 55.55 22.45 55.5 22.6 55.45 22.7 55.45 22.85 55.55 23.9 56.3 24.6 57.15 25.5 58.35 25.5 59.55 25.5 60.45 24.6
L 60.4 24.6
Q 61.25 23.75 61.25 22.55 61.25 21.85 60.95 21.25 Z"/>
</g>

<g id="Duplicate_Items_Folder_vxcvdfdf_0_Layer0_10_MEMBER_8_FILL">
<path fill="#FF5454" stroke="none" d="
M 13.55 18.8
Q 14.25 19.4 15.25 19.4 16.45 19.4 17.35 18.5
L 17.3 18.5
Q 17.7 18.1 17.9 17.65 15.3 16.8 13.55 18.8 Z"/>
</g>

<g id="Duplicate_Items_Folder_vxcvdfdf_0_Layer0_11_FILL">
<path fill="#FBA25D" stroke="none" d="
M 195.15 15.85
Q 194.65 18.3 193.6 20.15 196.9 20.7 197.75 18.95 198.45 17.6 197.75 16.5 197.05 15.35 195.15 15.85 Z"/>
</g>

<g id="Duplicate_Items_Folder_vxcvdfdf_0_Layer0_12_MEMBER_1_FILL">
<path fill="#363636" stroke="none" d="
M 105.95 20.65
Q 105.3 20 104.4 20 103.5 20 102.85 20.65 102.2 21.3 102.2 22.2
L 102.2 23.85
Q 102.2 24.75 102.85 25.4 103.5 26.05 104.4 26.05 105.3 26.05 105.95 25.4 106.6 24.75 106.6 23.85
L 106.6 22.2
Q 106.6 21.3 105.95 20.65 Z"/>
</g>

<g id="Duplicate_Items_Folder_vxcvdfdf_0_Layer0_12_MEMBER_2_FILL">
<path fill="#4B4B4B" stroke="none" d="
M 105.95 20.65
Q 105.3 20 104.4 20 103.5 20 102.85 20.65 102.2 21.3 102.2 22.2
L 102.2 23.85
Q 102.2 24.75 102.85 25.4 103.5 26.05 104.4 26.05 105.3 26.05 105.95 25.4 106.6 24.75 106.6 23.85
L 106.6 22.2
Q 106.6 21.3 105.95 20.65 Z"/>
</g>

<g id="Duplicate_Items_Folder_vxcvdfdf_0_Layer0_12_MEMBER_3_FILL">
<path fill="#363636" stroke="none" d="
M 65.3 23.1
Q 64.9 23.1 64.6 23.4 64.3 23.7 64.3 24.1 64.3 24.5 64.6 24.8 64.9 25.1 65.3 25.1
L 66.8 25.1
Q 67.014453125 25.1 67.2 25 67.3607421875 24.9392578125 67.5 24.8 67.8 24.5 67.8 24.1 67.8 23.7 67.5 23.4 67.4736328125 23.3736328125 67.45 23.35 67.1740234375 23.1078125 66.8 23.1
L 65.3 23.1 Z"/>
</g>

<g id="Duplicate_Items_Folder_vxcvdfdf_0_Layer0_13_FILL">
<path fill="#276EA5" stroke="none" d="
M -1.45 -19.05
Q -4.4 -20.75 -7.35 -21.55 -3.45 -15.5 -0.9 11.05 0.95 10.75 2.85 10.35 3 10.3 3.1 10.15 3.2 10 3.2 9.85
L -1.2 -18.7
Q -1.2 -18.85 -1.25 -18.9 -1.35 -19 -1.45 -19.05
M -19.9 -21.15
Q -23.2 -20.05 -26.5 -17.95
L -27.25 10.95
Q -22.75 12 -18.35 12.45 -14 12.5 -9.65 12.15 -11.45 -15.05 -19.9 -21.15 Z"/>
</g>

<g id="Duplicate_Items_Folder_vxcvdfdf_0_Layer0_14_FILL">
<path fill="#5C6396" stroke="none" d="
M 35.6 5.6
Q 37.0654296875 5.1419921875 37.75 4.7 35.59765625 3.6322265625 32.55 2.6 31.559375 4.290625 29.45 5.65 28.3 6.4 27.4 6.8 30.9 7 35.6 5.6 Z"/>
</g>

<g id="Duplicate_Items_Folder_vxcvdfdf_0_Layer0_17_FILL">
<path fill="#3380BD" stroke="none" d="
M -42.95 -20.15
Q -45.65 -33.7 -51.3 -37.8 -52.15 -37.5 -52.95 -37.15 -51.8 -32.7 -50.25 -28.45
L -46.85 -27.4 -48 -24.6
Q -44.65 -22.6 -42.95 -20.15 Z"/>
</g>

<g id="Duplicate_Items_Folder_vxcvdfdf_0_Layer0_18_FILL">
<path fill="#3380BD" stroke="none" d="
M -66.8 -21.55
Q -68.05 -22 -69.25 -22.35 -66.55 -18.2 -64.5 -4.35 -64.1 -6.9 -62.55 -9.65
L -65.05 -12.55 -63.4 -14.1
Q -63.85 -15.75 -64.6 -17.45 -64.9 -18.05 -65.2 -18.7 -65.7 -19.65 -66.8 -21.55 Z"/>
</g>

<g id="Duplicate_Items_Folder_vxcvdfdf_0_Layer0_19_FILL">
<path fill="#ACD9FF" stroke="none" d="
M -8.35 -15.8
Q -8.35 -16.1 -8.6 -16.35 -8.8 -16.6 -9.15 -16.6 -9.45 -16.6 -9.7 -16.35 -9.9 -16.1 -9.9 -15.8 -9.9 -15.5 -9.7 -15.25 -9.45 -15 -9.15 -15 -8.8 -15 -8.6 -15.25 -8.35 -15.5 -8.35 -15.8 Z"/>
</g>

<g id="Duplicate_Items_Folder_vxcvdfdf_0_Layer0_20_FILL">
<path fill="#E0F1FF" stroke="none" d="
M -8 -15.8
Q -8 -16.25 -8.35 -16.6 -8.65 -16.95 -9.15 -16.95 -9.6 -16.95 -9.95 -16.6 -10.25 -16.25 -10.25 -15.8 -10.25 -15.35 -9.95 -15 -9.6 -14.65 -9.15 -14.65 -8.65 -14.65 -8.35 -15 -8 -15.35 -8 -15.8 Z"/>
</g>

<g id="Duplicate_Items_Folder_vxcvdfdf_0_Layer0_22_FILL">
<path fill="#FFFFFF" stroke="none" d="
M 7.35 0.85
Q 6.9232421875 0.7951171875 6.9 1.25
L 6.9 7.6
Q 6.9232421875 7.9951171875 7.35 8.05
L 11.8 8.65
Q 12.2515625 8.7046875 12.25 8.3
L 12.25 1.95
Q 12.2515625 1.5046875 11.8 1.45
L 7.35 0.85 Z"/>
</g>

<g id="Duplicate_Items_Folder_vxcvdfdf_0_Layer0_24_FILL">
<path fill="#DBF0F3" stroke="none" d="
M 7.95 1.95
Q 7.6236328125 1.9017578125 7.6 2.25
L 7.6 4.9
Q 7.6236328125 5.2017578125 7.95 5.25
L 11.2 5.65
Q 11.501171875 5.707421875 11.5 5.4
L 11.5 2.75
Q 11.501171875 2.407421875 11.2 2.35
L 7.95 1.95 Z"/>
</g>

<g id="Duplicate_Items_Folder_vxcvdfdf_0_Layer0_25_MEMBER_0_MEMBER_1_MEMBER_0_FILL">
<path fill="#373737" stroke="none" d="
M 78.45 16.55
Q 78.45 6.55 68.45 6.55
L 32.65 6.55
Q 22.65 6.55 22.65 16.55
L 22.65 72.65
Q 22.65 82.65 32.65 82.65
L 68.45 82.65
Q 78.45 82.65 78.45 72.65
L 78.45 16.55 Z"/>
</g>

<g id="Duplicate_Items_Folder_vxcvdfdf_0_Layer0_25_MEMBER_0_MEMBER_1_MEMBER_1_FILL">
<path fill="#4B4B4B" stroke="none" d="
M 78.45 16.55
Q 78.45 6.55 68.45 6.55
L 32.65 6.55
Q 22.65 6.55 22.65 16.55
L 22.65 72.65
Q 22.65 82.65 32.65 82.65
L 68.45 82.65
Q 78.45 82.65 78.45 72.65
L 78.45 16.55 Z"/>
</g>

<g id="Duplicate_Items_Folder_vxcvdfdf_0_Layer0_25_MEMBER_0_MEMBER_1_MEMBER_2_FILL">
<path fill="#A7A7A7" stroke="none" d="
M 35.2 5.25
Q 34.766015625 4.8052734375 34.15 4.8
L 27.35 4.8
Q 26.733984375 4.8052734375 26.3 5.25 25.8552734375 5.683984375 25.85 6.3 25.8552734375 6.916015625 26.3 7.35 26.733984375 7.7947265625 27.35 7.8
L 34.15 7.8
Q 34.766015625 7.7947265625 35.2 7.35 35.6447265625 6.916015625 35.65 6.3 35.6447265625 5.683984375 35.2 5.25 Z"/>
</g>

<g id="Duplicate_Items_Folder_vxcvdfdf_0_Layer0_25_MEMBER_0_MEMBER_1_MEMBER_3_FILL">
<path fill="#414141" stroke="none" d="
M 27.15 8.75
Q 26.6 8.75 26.2 9.1 25.85 9.5 25.85 10.05 25.85 10.55 26.2 10.95 26.6 11.35 27.15 11.35 27.7 11.35 28.05 10.95 28.45 10.55 28.45 10.05 28.45 9.5 28.05 9.1 27.7 8.75 27.15 8.75
M 31.65 9.1
Q 31.3 8.75 30.75 8.75 30.2 8.75 29.8 9.1 29.45 9.5 29.45 10.05 29.45 10.55 29.8 10.95 30.2 11.35 30.75 11.35 31.3 11.35 31.65 10.95 32.05 10.55 32.05 10.05 32.05 9.5 31.65 9.1
M 35.25 9.1
Q 34.9 8.75 34.35 8.75 33.8 8.75 33.4 9.1 33.05 9.5 33.05 10.05 33.05 10.55 33.4 10.95 33.8 11.35 34.35 11.35 34.9 11.35 35.25 10.95 35.65 10.55 35.65 10.05 35.65 9.5 35.25 9.1 Z"/>
</g>

<g id="Duplicate_Items_Folder_vxcvdfdf_0_Layer0_25_MEMBER_0_MEMBER_2_FILL">
<path fill="#4B4B4B" stroke="none" d="
M -1.85 -16.85
Q -1.8544921875 -17.36328125 -2.25 -17.75 -2.58671875 -18.0955078125 -3.1 -18.1 -3.61328125 -18.0955078125 -4 -17.75 -4.3455078125 -17.36328125 -4.35 -16.85
L -4.35 -15.6
Q -4.3455078125 -15.08671875 -4 -14.75 -3.61328125 -14.3544921875 -3.1 -14.35 -2.58671875 -14.3544921875 -2.25 -14.75 -1.8544921875 -15.08671875 -1.85 -15.6
L -1.85 -16.85 Z"/>
</g>

<g id="Duplicate_Items_Folder_vxcvdfdf_0_Layer0_25_MEMBER_1_MEMBER_0_FILL">
<path fill="#FFBE8C" stroke="none" d="
M -13.8 -4.9
L -16.6 -3.55 -16.6 1.5
Q -12.7 0.6 -12.15 0 -9.7 -0.1 -9.1 -0.2 -8.2 -0.45 -7.4 -1.3
L -5.85 -2.7
Q -5.5 -3.05 -5.35 -3.25 -5 -3.55 -4.7 -3.65 -4.1 -3.95 -4.05 -4.4 -3.95 -4.65 -4.1 -5 -4.2 -5.35 -4.45 -5.35 -4 -6 -4.25 -6.7 -4.5 -7.35 -5.05 -7.25 -4.6 -7.65 -4.7 -8.3 -4.85 -9 -5.4 -8.75 -4.95 -9.2 -5.1 -9.55 -5.15 -9.75 -5.5 -10.1 -6.5 -10.45 -7.45 -10.3 -8 -10.25 -8.9 -9.85 -9.65 -9.5 -10.35 -9
L -13.8 -4.9 Z"/>
</g>

<g id="Duplicate_Items_Folder_vxcvdfdf_0_Layer0_25_MEMBER_2_FILL">
<path fill="#1E649B" stroke="none" d="
M -27 -17.45
Q -27.95 -16.25 -28 -14.85
L -27.7 -0.95
Q -27.65 0.65 -26.4 1.95 -25.05 3.05 -23.4 3 -23.0328125 2.9541015625 -22.75 2.9 -22.41640625 2.83125 -22.2 2.75
L -19.6 1.8 -9.65 -1.8 -12.9 -9.45 -21.1 -5.9
Q -22.55 -14.95 -22.8 -15.8 -23.1453125 -16.9962890625 -24.4 -17.95 -25 -18.4 -25.75 -18.2 -26.5 -18.05 -27 -17.45 Z"/>
</g>

<g id="Duplicate_Items_Folder_vxcvdfdf_0_Layer0_26_MEMBER_0_FILL">
<path fill="#44B900" stroke="none" d="
M 19.25 -27.85
Q 18.95 -27.95 18.7 -27.75 18.35 -27.65 18.3 -27.35
L 13.75 -10.35
Q 13.65 -10.05 13.85 -9.75 14 -9.5 14.3 -9.4
L 27.4 -5.9
Q 27.7 -5.8 28 -5.95 28.25 -6.15 28.35 -6.45
L 32.9 -23.45
Q 32.95 -23.75 32.85 -23.95 32.65 -24.25 32.35 -24.35
L 19.25 -27.85 Z"/>
</g>

<g id="Duplicate_Items_Folder_vxcvdfdf_0_Layer0_26_MEMBER_1_FILL">
<path fill="#60E512" stroke="none" d="
M 18.6 -28
Q 18.3 -28.1 18.05 -27.9 17.7 -27.8 17.65 -27.5
L 13.1 -10.5
Q 13 -10.2 13.2 -9.9 13.35 -9.65 13.65 -9.55
L 26.75 -6.05
Q 27.05 -5.95 27.35 -6.1 27.6 -6.3 27.7 -6.6
L 32.25 -23.6
Q 32.3 -23.9 32.2 -24.1 32 -24.4 31.7 -24.5
L 18.6 -28 Z"/>
</g>

<g id="Duplicate_Items_Folder_vxcvdfdf_0_Layer0_26_MEMBER_2_FILL">
<path fill="#CFE7F6" stroke="none" d="
M 18.85 -23.9
Q 18.747265625 -23.89921875 18.65 -23.85 18.60078125 -23.752734375 18.6 -23.65
L 18.6 -6.65
Q 18.60078125 -6.5474609375 18.65 -6.5 18.747265625 -6.4009765625 18.85 -6.4
L 31.8 -6.4
Q 31.9025390625 -6.4009765625 31.95 -6.5 32.0490234375 -6.5474609375 32.05 -6.65
L 32.05 -23.65
Q 32.0490234375 -23.752734375 31.95 -23.85 31.9025390625 -23.89921875 31.8 -23.9
L 18.85 -23.9 Z"/>
</g>

<g id="Duplicate_Items_Folder_vxcvdfdf_0_Layer0_26_MEMBER_3_FILL">
<path fill="#E0F3FF" stroke="none" d="
M 18.85 -23.9
Q 18.747265625 -23.89921875 18.65 -23.85 18.60078125 -23.752734375 18.6 -23.65
L 18.6 -6.65
Q 18.60078125 -6.5474609375 18.65 -6.5 18.747265625 -6.4009765625 18.85 -6.4
L 31.8 -6.4
Q 31.9025390625 -6.4009765625 31.95 -6.5 32.0490234375 -6.5474609375 32.05 -6.65
L 32.05 -23.65
Q 32.0490234375 -23.752734375 31.95 -23.85 31.9025390625 -23.89921875 31.8 -23.9
L 18.85 -23.9 Z"/>
</g>

<g id="Duplicate_Items_Folder_vxcvdfdf_0_Layer0_26_MEMBER_4_MEMBER_0_FILL">
<path fill="#ADD6EF" stroke="none" d="
M 30.05 -22.6
L 25.55 -22.6
Q 25.5 -22.6 25.5 -22.55 25.45 -22.55 25.45 -22.5
L 25.45 -17.1
Q 25.45 -17.05 25.5 -17
L 30.1 -17
Q 30.1 -17.05 30.1 -17.1
L 30.1 -22.55 30.05 -22.6 Z"/>
</g>

<g id="Duplicate_Items_Folder_vxcvdfdf_0_Layer0_26_MEMBER_4_MEMBER_1_FILL">
<path fill="#ADD6EF" stroke="none" d="
M 19.05 -14.8
Q 19 -14.8 19 -14.75 18.9 -14.75 18.9 -14.7
L 18.9 -7.65
Q 18.9 -7.6 19 -7.55
L 30.25 -7.55
Q 30.25 -7.6 30.25 -7.65
L 30.25 -14.75 30.2 -14.8 19.05 -14.8 Z"/>
</g>

<g id="Duplicate_Items_Folder_vxcvdfdf_0_Layer0_26_MEMBER_4_MEMBER_7_FILL">
<path fill="#7A879B" stroke="none" d="
M 24.75 -26.25
L 24.35 -24.25 27.35 -24.25 26.95 -26.25 24.75 -26.25 Z"/>
</g>

<g id="Duplicate_Items_Folder_vxcvdfdf_0_Layer0_26_MEMBER_4_MEMBER_8_FILL">
<path fill="#7A879B" stroke="none" d="
M 27.6 -24.8
Q 27.3 -25.1 26.85 -25.1
L 22.45 -25.1
Q 22.05 -25.1 21.7 -24.8
L 21.7 -24.75
Q 21.35 -24.45 21.35 -24 21.35 -23.55 21.7 -23.2 22.05 -22.9 22.45 -22.9
L 26.85 -22.9
Q 27.3 -22.9 27.6 -23.2
L 27.65 -23.2
Q 28 -23.55 28 -24 28 -24.45 27.65 -24.75
L 27.6 -24.8 Z"/>
</g>

<g id="Duplicate_Items_Folder_vxcvdfdf_0_Layer0_26_MEMBER_4_MEMBER_9_FILL">
<path fill="#60E512" stroke="none" d="
M 27.6 -24.8
Q 27.3 -25.1 26.85 -25.1
L 22.45 -25.1
Q 22.05 -25.1 21.7 -24.8
L 21.7 -24.75
Q 21.35 -24.45 21.35 -24 21.35 -23.55 21.7 -23.2 22.05 -22.9 22.45 -22.9
L 26.85 -22.9
Q 27.3 -22.9 27.6 -23.2
L 27.65 -23.2
Q 28 -23.55 28 -24 28 -24.45 27.65 -24.75
L 27.6 -24.8 Z"/>
</g>

<g id="Duplicate_Items_Folder_vxcvdfdf_0_Layer0_27_FILL">
<path fill="#FFBE8C" stroke="none" d="
M 14.55 -15.3
Q 14.4453125 -15.1515625 14.35 -15
L 15.7 -14.2
Q 16.75 -14.75 16.75 -14.8 18.15 -16.25 17.95 -17.4 17.8 -18.5 17 -18.05 16.75 -17.9 16.25 -16.9 15.7 -15.95 14.55 -15.3 Z"/>
</g>

<path id="Duplicate_Items_Folder_vxcvdfdf_0_Layer1_0_1_STROKES" stroke="#FFFFFF" stroke-width="8" stroke-linejoin="round" stroke-linecap="round" fill="none" d="
M 6.274980163574218 43.644859313964844
Q 6.797478485107422 40.889868164062506 5.752481842041015 39.559872436523435 4.754985046386719 38.324876403808595 1.9049942016601562 37.94487762451172 0.5100572764873504 37.74077671766281 -0.6837474822998046 36.92363090515137 -0.342156782746315 36.89283022284508 0.005000305175781247 36.85238113403321
L -0.18499908447265626 10.252466583251952
Q 1.3001133322715759 9.999752551317215 2.8074913024902344 9.68246841430664 2.9499908447265626 9.634968566894532 3.0449905395507812 9.492469024658202 3.1399902343750004 9.349969482421875 3.1399902343750004 9.207469940185547
L 1.5962451934814454 -0.8624977111816406
Q 2.6918959707021717 -0.7353985100984574 3.662488555908203 -1.289996337890625
L 13.7799560546875 -6.419979858398437 12.449960327148437 -8.794972229003907 13.067458343505859 -8.509973144531251 13.114958190917967 -8.462473297119141
Q 14.302454376220702 -8.034974670410158 15.34745101928711 -8.41497344970703 15.447460463643074 -8.46507094502449 15.584950256347657 -8.55747299194336
L 25.512418365478517 -5.897481536865235
Q 25.625230503082275 -5.859815642237664 25.749917602539064 -5.849981689453125
L 26.129916381835937 -5.754981994628907
Q 26.414915466308596 -5.659982299804688 26.69991455078125 -5.802481842041016 26.9374137878418 -5.992481231689454 27.03241348266602 -6.2774803161621096
L 31.354899597167968 -22.427428436279296
Q 31.402399444580084 -22.71242752075195 31.307399749755863 -22.90242691040039 31.11740036010742 -23.187425994873045 30.83240127563477 -23.282425689697266
L 26.866164016723634 -24.351172256469727 26.794914245605472 -24.42242202758789
Q 26.60491485595703 -24.802420806884765 26.224916076660158 -24.897420501708982
L 25.441168594360352 -25.111169815063473 25.488668441772464 -25.657418060302735
Q 25.62374613285065 -25.65778915286064 25.749917602539064 -25.752417755126952
L 25.749917602539064 -25.70491790771484
Q 25.939916992187502 -25.84741744995117 25.98741683959961 -26.084916687011717 26.03491668701172 -26.274916076660155 25.939916992187502 -26.41741561889648
L 25.939916992187502 -26.5124153137207
Q 25.844917297363285 -26.607415008544923 25.607418060302738 -26.70241470336914
L 23.612424468994142 -27.224913024902342
Q 23.422425079345704 -27.27241287231445 23.23242568969727 -27.224913024902342
L 23.23242568969727 -27.177413177490234
Q 22.994926452636722 -27.082413482666016 22.94742660522461 -26.892414093017575 22.8999267578125 -26.654914855957028 23.042426300048827 -26.464915466308593 23.11200615465641 -26.32575575709343 23.23242568969727 -26.251166152954102
L 22.994926452636722 -25.77616767883301 22.18742904663086 -25.9899169921875
Q 21.807430267333988 -26.084916687011717 21.379931640625 -25.894917297363282
L 21.379931640625 -25.84741744995117
Q 21.358037179708482 -25.83368702530861 21.332431793212894 -25.823667526245114
L 18.38744125366211 -26.607415008544923
Q 18.283720883727074 -26.64192661643028 18.197441864013673 -26.631164932250975
L 17.76994323730469 -26.74991455078125
Q 17.484944152832032 -26.84491424560547 17.247444915771485 -26.654914855957028 16.91494598388672 -26.55991516113281 16.86744613647461 -26.274916076660155
L 14.706203079223632 -18.17619209289551
Q 14.62827364206314 -18.16376049220562 14.539953613281249 -18.128692245483396 14.498391246795654 -18.10902433991432 14.444953918457031 -18.081192398071288 14.418977439403534 -18.069502982497216 14.397454071044923 -18.057442474365235 14.159954833984376 -17.914942932128906 13.684956359863282 -16.964945983886718 13.162458038330078 -16.06244888305664 12.069961547851562 -15.444950866699221 11.974961853027343 -15.30245132446289 11.879962158203124 -15.159951782226564 11.425930413603783 -14.481037947535516 11.072464752197266 -13.734956359863283 10.72697758078575 -13.0437964707613 10.668716049194336 -12.618709945678711
L 10.383716964721678 -12.476210403442384 9.599969482421875 -13.877455902099609 3.282489776611328 -10.124967956542969
Q 1.9049942016601562 -13.164958190917968 0.21874961853027344 -15.96744918823242
L -1.0637462615966797 -18.057442474365235 -1.0874961853027343 -18.10494232177734
Q -1.1824958801269532 -18.19994201660156 -1.2774955749511718 -18.24744186401367 -3.0991889417171476 -19.29726271033287 -4.91123390197754 -19.981186294555663 -4.654623398184777 -20.336692965030668 -4.697484588623047 -20.764933776855468
L -4.7924842834472665 -21.952429962158202
Q -4.8000916808843614 -22.02924612164497 -4.816234207153321 -22.094929504394532 -4.320640096068383 -22.15300548970699 -3.8424873352050786 -22.237429046630858 -2.8924903869628906 -22.379928588867184 -1.9424934387207031 -22.75992736816406 -0.18499908447265626 -23.377425384521484 1.3349960327148438 -24.897420501708982 3.492342618107796 -27.148467957973477 2.831241226196289 -31.52364921569824 2.7974718034267427 -31.772652322053908 2.759991455078125 -32.022397613525385
L 2.7362415313720705 -32.022397613525385 1.9049942016601562 -36.962381744384764 3.282489776611328 -39.099874877929686
Q 4.6599853515625 -41.474867248535155 4.374986267089843 -43.13736190795898 4.042487335205078 -45.17985534667969 1.6674949645996093 -46.93734970092773 -0.9924964904785155 -48.78984375 -6.264979553222656 -50.45233840942383 -11.34746322631836 -52.06733322143555 -15.812448883056641 -51.307335662841794 -20.27743453979492 -50.499838256835936 -21.844929504394532 -47.839846801757815
L -22.842426300048825 -47.649847412109374
Q -24.07742233276367 -47.31734848022461 -24.93241958618164 -46.55735092163086 -26.45241470336914 -45.274855041503905 -27.497411346435545 -42.09236526489258
L -27.92490997314453 -40.239871215820315
Q -28.352408599853515 -38.00737838745117 -27.87741012573242 -35.727385711669925 -27.449911499023436 -33.447393035888666 -26.072415924072263 -31.832398223876954 -25.45491790771484 -31.072400665283197 -24.83741989135742 -30.64490203857422 -24.93241958618164 -28.88740768432617 -23.982422637939454 -27.652411651611327 -23.127425384521484 -26.607415008544923 -21.464930725097656 -26.322415924072263 -20.37243423461914 -25.942417144775387 -19.089938354492187 -26.179916381835934
L -18.876189041137696 -26.251166152954102
Q -18.757624968886372 -26.154682087898255 -18.63868980407715 -26.06116676330566
L -18.614939880371093 -26.037416839599608
Q -18.237909841537476 -25.725884637236593 -17.759942626953123 -25.514918518066406
L -17.78369255065918 -25.514918518066406
Q -17.369924348592757 -25.311745342612266 -16.8811954498291 -25.158669662475585
L -16.857445526123048 -25.13491973876953
Q -16.497114652395247 -24.840086701512337 -16.097447967529295 -24.564921569824218
L -16.097447967529295 -21.002433013916015
Q -16.16869773864746 -21.073682785034176 -16.239947509765624 -21.144932556152344 -16.377437302470206 -21.285762181878088 -16.57244644165039 -21.28743209838867 -16.767455580830575 -21.285762181878088 -16.904945373535153 -21.144932556152344 -17.045774999260903 -21.00744276344776 -17.047444915771482 -20.812433624267577 -17.04688827693462 -20.755842009186743 -17.023694992065426 -20.693684005737303 -17.885371911525727 -20.495335033535955 -18.733689498901366 -20.21868553161621 -18.76374799609184 -20.26006235182285 -18.804939270019528 -20.289935302734374 -19.61243667602539 -20.004936218261715 -20.37243423461914 -19.67243728637695 -22.722377857565878 -18.699618145823475 -25.074919128417967 -17.202445220947265
L -25.074919128417967 -17.154945373535153
Q -25.336910474300385 -16.98294397294521 -25.54991760253906 -16.72744674682617 -26.45241470336914 -15.587450408935547 -26.49991455078125 -14.257454681396485
L -26.214915466308593 -1.052497100830078
Q -26.18040385842323 0.049276703596115135 -25.54991760253906 0.989996337890625
L -25.787416839599608 10.252466583251952
Q -23.784630304574964 10.71985765993595 -21.79742965698242 11.059963989257813
L -21.464930725097656 37.51737899780274
Q -21.256376707553862 37.541871106624605 -21.03743209838867 37.56487884521485
L -21.369931030273438 39.369873046875
Q -21.79742965698242 42.40986328125 -21.702429962158202 44.21485748291016 -7.742484572529793 45.121436601877214 -5.979980468750001 44.28610725402832 -5.895185819268227 44.34807971119881 -5.789981079101563 44.357357025146484 -5.590518829226494 44.37015971839428 -5.433732223510742 44.23860740661621 -5.284367468953133 44.11893005669117 -5.26748275756836 43.9298583984375
L -5.26748275756836 43.90610847473145
Q 5.235921001434326 44.44419268369675 6.274980163574218 43.644859313964844 Z
M -7.167476654052735 -21.762430572509764
L -7.072476959228516 -20.66993408203125
Q -7.248003739118576 -20.71131090223789 -7.4287258148193365 -20.741183853149412 -7.472514736652374 -20.888878691196442 -7.523725509643556 -21.02618293762207 -7.599428391456605 -21.20746165215969 -7.784974670410158 -21.28743209838867 -7.96068699657917 -21.374824395775793 -8.141223526000978 -21.311182022094723 -8.322502240538597 -21.23566468656063 -8.402472686767577 -21.049932861328124 -8.422697231173515 -21.009298226237295 -8.426222610473634 -20.97868309020996 -8.524933230876922 -20.98554830253124 -8.616222000122072 -21.002433013916015
L -8.497472381591798 -22.071179580688476
Q -7.829876869916917 -21.99213686585426 -7.167476654052735 -21.97617988586426 -7.1778672456741335 -21.866336488723753 -7.167476654052735 -21.762430572509764 Z
M -10.207466888427735 38.51487579345704
Q -11.495158064365388 38.326360774040225 -12.606209182739258 37.612378692626955 -12.12527322769165 37.573785066604614 -11.632462310791016 37.51737899780274
L -10.848714828491211 23.884922790527344 -9.827468109130859 36.85238113403321
Q -9.376405104994774 36.90451963841915 -8.924971008300782 36.94738082885742
L -9.233720016479491 38.681125259399415
Q -9.691277140378952 38.5837134629488 -10.207466888427735 38.51487579345704 Z"/>

<path id="Duplicate_Items_Folder_vxcvdfdf_0_Layer0_2_1_STROKES" stroke="#512D26" stroke-width="1" stroke-linejoin="round" stroke-linecap="round" fill="none" d="
M -8.684968566894533 39.13237380981445
Q -7.449972534179688 39.51237258911133 -6.689974975585937 40.557369232177734 -5.692478179931641 41.79236526489258 -5.692478179931641 43.78735885620117"/>

<path id="Duplicate_Items_Folder_vxcvdfdf_0_Layer0_5_MEMBER_3_1_STROKES" stroke="#F89A52" stroke-width="0.5" stroke-linejoin="round" stroke-linecap="round" fill="none" d="
M 14.688232421875 -15.949596405029297
Q 15.199562042951584 -13.945184290409088 13.60612258911133 -12.249478912353515"/>

<path id="Duplicate_Items_Folder_vxcvdfdf_0_Layer0_5_MEMBER_4_1_STROKES" stroke="#F89A52" stroke-width="0.5" stroke-linejoin="round" stroke-linecap="round" fill="none" d="
M 16.789910888671876 -13.6338623046875
Q 18.48759514093399 -13.806530055403709 21.125694274902344 -13.156191253662108"/>

<path id="Duplicate_Items_Folder_vxcvdfdf_0_Layer0_5_MEMBER_5_1_STROKES" stroke="#F89A52" stroke-width="0.5" stroke-linejoin="round" stroke-linecap="round" fill="none" d="
M 16.139910888671874 -12.433862304687501
Q 17.837595140933992 -12.60653005540371 20.475694274902345 -11.956191253662109"/>

<path id="Duplicate_Items_Folder_vxcvdfdf_0_Layer0_10_MEMBER_6_1_STROKES" stroke="#F89A52" stroke-width="1" stroke-linejoin="round" stroke-linecap="round" fill="none" d="
M -4.697357177734376 -32.15793685913086
Q -3.795766448974608 -32.41553421020508 -3.1517730712890613 -31.900339508056643 -2.5936454772949213 -31.47101058959961 -2.5936454772949213 -30.74115142822266 -2.5936454772949213 -30.011292266845704 -3.065907287597656 -29.53903045654297 -3.538169097900391 -29.066768646240238 -4.310961151123046 -29.15263442993164"/>

<path id="Duplicate_Items_Folder_vxcvdfdf_0_Layer0_12_MEMBER_0_1_STROKES" stroke="#4B4B4B" stroke-width="1" stroke-linejoin="round" stroke-linecap="round" fill="none" d="
M -12.447764587402347 -25.324081420898438
Q -19.175916504859927 -24.64165548980236 -19.999331665039065 -29.262264251708984"/>

<path id="Duplicate_Items_Folder_vxcvdfdf_0_Layer0_15_1_STROKES" stroke="#D8913A" stroke-width="1" stroke-linejoin="round" stroke-linecap="round" fill="none" d="
M -10.777465057373046 22.55492706298828
L -10.49246597290039 12.722458648681641"/>

<path id="Duplicate_Items_Folder_vxcvdfdf_0_Layer0_16_1_STROKES" stroke="#8ACDFF" stroke-width="0.5" stroke-linejoin="round" stroke-linecap="round" fill="none" d="
M -18.60493927001953 -19.239935302734377
Q -14.702158838510512 -15.582447052001955 -11.622461700439453 -14.109951782226563
L -9.674967956542968 -18.242438507080077
Q -7.71671252846718 -17.279082226753236 -5.73248062133789 -15.914945983886719
L -5.637480926513672 -19.429934692382812"/>

<path id="Duplicate_Items_Folder_vxcvdfdf_0_Layer0_21_1_STROKES" stroke="#FF862B" stroke-width="1" stroke-linejoin="round" stroke-linecap="round" fill="none" d="
M -16.557506561279297 -20.729965209960938
Q -12.092520904541018 -16.731813991069792 -6.820037841796877 -9.330001831054688 -5.745724886655809 -15.223322743177414 -8.007534027099611 -20.68246536254883"/>

<path id="Duplicate_Items_Folder_vxcvdfdf_0_Layer0_23_1_STROKES" stroke="#858585" stroke-width="1" stroke-linejoin="round" stroke-linecap="round" fill="none" d="
M -6.970324707031251 -9.858339691162108
L -6.626156616210938 -8.57369613647461"/>

<path id="Duplicate_Items_Folder_vxcvdfdf_0_Layer0_25_MEMBER_0_MEMBER_0_1_STROKES" stroke="#282828" stroke-width="1" stroke-linejoin="round" stroke-linecap="round" fill="none" d="
M -5.386065673828124 -20.466729736328126
L -5.055035400390625 -16.158684539794923"/>

<path id="Duplicate_Items_Folder_vxcvdfdf_0_Layer0_25_MEMBER_1_MEMBER_1_1_STROKES" stroke="#F89A52" stroke-width="0.5" stroke-linejoin="round" stroke-linecap="round" fill="none" d="
M -9.889631652832032 -10.192650604248048
Q -8.841818326711655 -11.701422002911567 -6.4583488464355465 -12.188867950439453"/>

<path id="Duplicate_Items_Folder_vxcvdfdf_0_Layer0_25_MEMBER_1_MEMBER_2_1_STROKES" stroke="#F89A52" stroke-width="0.5" stroke-linejoin="round" stroke-linecap="round" fill="none" d="
M -9.239631652832031 -8.942650604248048
Q -8.191818326711655 -10.451422002911567 -5.808348846435547 -10.938867950439453"/>

<path id="Duplicate_Items_Folder_vxcvdfdf_0_Layer0_25_MEMBER_1_MEMBER_3_1_STROKES" stroke="#F89A52" stroke-width="0.5" stroke-linejoin="round" stroke-linecap="round" fill="none" d="
M -8.639631652832032 -7.292650604248047
Q -7.591818326711655 -8.801422002911568 -5.2083488464355465 -9.288867950439453"/>

<path id="Duplicate_Items_Folder_vxcvdfdf_0_Layer0_26_MEMBER_4_MEMBER_2_1_STROKES" stroke="#C0DDEF" stroke-width="0.5" stroke-linejoin="round" stroke-linecap="round" fill="none" d="
M 18.872846984863283 -23.187398529052736
L 22.86355514526367 -22.11874923706055"/>

<path id="Duplicate_Items_Folder_vxcvdfdf_0_Layer0_26_MEMBER_4_MEMBER_3_1_STROKES" stroke="#C0DDEF" stroke-width="0.5" stroke-linejoin="round" stroke-linecap="round" fill="none" d="
M 18.622846984863283 -22.237398529052737
L 22.61355514526367 -21.16874923706055"/>

<path id="Duplicate_Items_Folder_vxcvdfdf_0_Layer0_26_MEMBER_4_MEMBER_4_1_STROKES" stroke="#C0DDEF" stroke-width="0.5" stroke-linejoin="round" stroke-linecap="round" fill="none" d="
M 18.272846984863286 -21.287398529052737
L 22.263555145263673 -20.21874923706055"/>

<path id="Duplicate_Items_Folder_vxcvdfdf_0_Layer0_26_MEMBER_4_MEMBER_5_1_STROKES" stroke="#C0DDEF" stroke-width="0.5" stroke-linejoin="round" stroke-linecap="round" fill="none" d="
M 17.97284698486328 -20.337398529052734
L 21.96355514526367 -19.268749237060547"/>

<path id="Duplicate_Items_Folder_vxcvdfdf_0_Layer0_26_MEMBER_4_MEMBER_6_1_STROKES" stroke="#C0DDEF" stroke-width="0.5" stroke-linejoin="round" stroke-linecap="round" fill="none" d="
M 17.73049774169922 -18.921469116210936
L 20.069878387451173 -18.29501953125"/>
</defs>

<g transform="matrix( 1, 0, 0, 0.999603271484375, 65,60) ">
<g transform="matrix( 1, 0, 0, 1, 0,0) ">
<use xlink:href="#icon_r_box_02_17_Layer3_0_FILL"/>
</g>

<g transform="matrix( 1, 0, 0, 1, -0.05,0.05) ">
<use xlink:href="#icon_r_box_02_17_Layer3_1_FILL"/>
</g>

<g transform="matrix( 1, 0, 0, 1, 0,-2.15) ">
<use xlink:href="#icon_r_box_02_17_Layer3_2_FILL"/>
</g>

<g transform="matrix( 1, 0, 0, 1, 0,0.05) ">
<use xlink:href="#icon_r_box_02_17_Layer3_3_FILL"/>
</g>

<g filter="url(#Filter_1)" transform="matrix( 0.9999847412109375, 0, 0, 1.000396728515625, -65,-60) ">
<g transform="matrix( 0.75, 0, 0, 0.74969482421875, 68.8,43.6) ">
<g transform="matrix( 0.9499969482421875, 0, 0, 0.9499969482421875, 0.1,-0.15) ">
<use xlink:href="#Duplicate_Items_Folder_vxcvdfdf_0_Layer1_0_FILL"/>

<use xlink:href="#Duplicate_Items_Folder_vxcvdfdf_0_Layer1_0_1_STROKES" transform="matrix( 1.0526275634765625, 0, 0, 1.0526275634765625, -0.1,0.15) "/>
</g>

<g transform="matrix( -1.06591796875, 0, 0, 1.06591796875, 58.55,-58.55) ">
<use xlink:href="#Duplicate_Items_Folder_vxcvdfdf_0_Layer0_0_FILL"/>
</g>

<g transform="matrix( -1.06591796875, 0, 0, 1.06591796875, 46.45,-58) ">
<use xlink:href="#Duplicate_Items_Folder_vxcvdfdf_0_Layer0_1_FILL"/>
</g>

<g transform="matrix( 0.9499969482421875, 0, 0, 0.9499969482421875, 1.1,-0.15) ">
<use xlink:href="#Duplicate_Items_Folder_vxcvdfdf_0_Layer0_2_1_STROKES" transform="matrix( 1.0526275634765625, 0, 0, 1.0526275634765625, -1.15,0.15) "/>
</g>

<g transform="matrix( 0.9499969482421875, 0, 0, 0.9499969482421875, 0.1,-0.15) ">
<use xlink:href="#Duplicate_Items_Folder_vxcvdfdf_0_Layer0_3_FILL"/>
</g>

<g transform="matrix( 0.9499969482421875, 0, 0, 0.9499969482421875, 0.1,-0.15) ">
<use xlink:href="#Duplicate_Items_Folder_vxcvdfdf_0_Layer0_4_FILL"/>
</g>

<g transform="matrix( 0.7574005126953125, 0, 0, 0.7574005126953125, 1.95,-5.05) ">
<use xlink:href="#Duplicate_Items_Folder_vxcvdfdf_0_Layer0_5_MEMBER_0_FILL"/>
</g>

<g transform="matrix( 0.7574005126953125, 0, 0, 0.7574005126953125, 2.55,-5.1) ">
<use xlink:href="#Duplicate_Items_Folder_vxcvdfdf_0_Layer0_5_MEMBER_1_FILL"/>
</g>

<g transform="matrix( 0.8415374755859375, 0, 0, 0.8415374755859375, -1.75,-1.65) ">
<use xlink:href="#Duplicate_Items_Folder_vxcvdfdf_0_Layer0_5_MEMBER_2_FILL"/>
</g>

<g transform="matrix( 0.6981353759765625, 0, 0, 0.6981353759765625, -0.95,1.05) ">
<use xlink:href="#Duplicate_Items_Folder_vxcvdfdf_0_Layer0_5_MEMBER_3_1_STROKES" transform="matrix( 1.432373046875, 0, 0, 1.432373046875, 1.35,-1.5) "/>
</g>

<g transform="matrix( 0.7348785400390625, 0, 0, 0.7348785400390625, 4.15,-0.7) ">
<use xlink:href="#Duplicate_Items_Folder_vxcvdfdf_0_Layer0_5_MEMBER_4_1_STROKES" transform="matrix( 1.3607635498046875, 0, 0, 1.3607635498046875, -5.6,0.95) "/>
</g>

<g transform="matrix( 0.7348785400390625, 0, 0, 0.7348785400390625, 3.5,0.5) ">
<use xlink:href="#Duplicate_Items_Folder_vxcvdfdf_0_Layer0_5_MEMBER_5_1_STROKES" transform="matrix( 1.3607635498046875, 0, 0, 1.3607635498046875, -4.75,-0.65) "/>
</g>

<g transform="matrix( 0.9499969482421875, 0, 0, 0.9499969482421875, 0.1,-0.15) ">
<use xlink:href="#Duplicate_Items_Folder_vxcvdfdf_0_Layer0_6_FILL"/>
</g>

<g transform="matrix( 0.9499969482421875, 0, 0, 0.9499969482421875, 0.1,-0.15) ">
<use xlink:href="#Duplicate_Items_Folder_vxcvdfdf_0_Layer0_7_FILL"/>
</g>

<g transform="matrix( 0.9499969482421875, 0, 0, 0.9499969482421875, 0.1,-0.15) ">
<use xlink:href="#Duplicate_Items_Folder_vxcvdfdf_0_Layer0_8_FILL"/>
</g>

<g transform="matrix( 0.9024658203125, 0, 0, 0.9024658203125, -1.15,9) ">
<use xlink:href="#Duplicate_Items_Folder_vxcvdfdf_0_Layer0_9_FILL"/>
</g>

<g transform="matrix( -0.85028076171875, 0.1193695068359375, 0.1193695068359375, 0.85028076171875, 3.95,-53.35) ">
<use xlink:href="#Duplicate_Items_Folder_vxcvdfdf_0_Layer0_10_MEMBER_0_STROKES_1_FILL"/>
</g>

<g transform="matrix( -0.8522491455078125, -0.104339599609375, -0.104339599609375, 0.8522491455078125, 7.5,-51.4) ">
<use xlink:href="#Duplicate_Items_Folder_vxcvdfdf_0_Layer0_10_MEMBER_1_STROKES_1_FILL"/>
</g>

<g transform="matrix( -0.6439971923828125, 0, 0, 0.6439971923828125, 3.65,-48.05) ">
<use xlink:href="#Duplicate_Items_Folder_vxcvdfdf_0_Layer0_10_MEMBER_2_FILL"/>
</g>

<g transform="matrix( -1.0734100341796875, 0, 0, 0.9134063720703125, 10.05,-53) ">
<use xlink:href="#Duplicate_Items_Folder_vxcvdfdf_0_Layer0_10_MEMBER_3_FILL"/>
</g>

<g transform="matrix( 0.8586578369140625, 0, 0, 0.8586578369140625, -32.9,-52.55) ">
<use xlink:href="#Duplicate_Items_Folder_vxcvdfdf_0_Layer0_10_MEMBER_4_FILL"/>
</g>

<g transform="matrix( -0.8566131591796875, 0.0592803955078125, 0.0592803955078125, 0.8566131591796875, 4.6,-52.8) ">
<use xlink:href="#Duplicate_Items_Folder_vxcvdfdf_0_Layer0_10_MEMBER_5_FILL"/>
</g>

<g transform="matrix( -0.8586578369140625, 0, 0, 0.8586578369140625, 5.95,-51.95) ">
<use xlink:href="#Duplicate_Items_Folder_vxcvdfdf_0_Layer0_10_MEMBER_6_1_STROKES" transform="matrix( -1.1645965576171875, 0, 0, 1.1645965576171875, 6.9,60.5) "/>
</g>

<g transform="matrix( -0.81201171875, 0, 0, 0.81201171875, 41.7,-45.3) ">
<use xlink:href="#Duplicate_Items_Folder_vxcvdfdf_0_Layer0_10_MEMBER_7_FILL"/>
</g>

<g transform="matrix( -0.81201171875, 0, 0, 0.81201171875, 6.75,-40.35) ">
<use xlink:href="#Duplicate_Items_Folder_vxcvdfdf_0_Layer0_10_MEMBER_8_FILL"/>
</g>

<g transform="matrix( -0.81219482421875, 0, 0, 0.81219482421875, 137.8,-44.45) ">
<use xlink:href="#Duplicate_Items_Folder_vxcvdfdf_0_Layer0_11_FILL"/>
</g>

<g transform="matrix( -0.8119964599609375, 0, 0, 0.8119964599609375, 41.55,-44) ">
<use xlink:href="#Duplicate_Items_Folder_vxcvdfdf_0_Layer0_12_MEMBER_0_1_STROKES" transform="matrix( -1.2315216064453125, 0, 0, 1.2315216064453125, 51.15,54.15) "/>
</g>

<g transform="matrix( -0.5953826904296875, 0, 0, 0.5953826904296875, 42.4,-43.95) ">
<use xlink:href="#Duplicate_Items_Folder_vxcvdfdf_0_Layer0_12_MEMBER_1_FILL"/>
</g>

<g transform="matrix( -0.5953826904296875, 0, 0, 0.5953826904296875, 42.1,-43.95) ">
<use xlink:href="#Duplicate_Items_Folder_vxcvdfdf_0_Layer0_12_MEMBER_2_FILL"/>
</g>

<g transform="matrix( -0.8119964599609375, 0, 0, 0.8119964599609375, 41.3,-44.8) ">
<use xlink:href="#Duplicate_Items_Folder_vxcvdfdf_0_Layer0_12_MEMBER_3_FILL"/>
</g>

<g transform="matrix( 0.9499969482421875, 0, 0, 0.9499969482421875, 0.1,-0.15) ">
<use xlink:href="#Duplicate_Items_Folder_vxcvdfdf_0_Layer0_13_FILL"/>
</g>

<g transform="matrix( 0.9499969482421875, 0, 0, 0.9499969482421875, -36.4,-52.65) ">
<use xlink:href="#Duplicate_Items_Folder_vxcvdfdf_0_Layer0_14_FILL"/>
</g>

<g transform="matrix( 0.9499969482421875, 0, 0, 0.9499969482421875, 0.1,-0.15) ">
<use xlink:href="#Duplicate_Items_Folder_vxcvdfdf_0_Layer0_15_1_STROKES" transform="matrix( 1.0526275634765625, 0, 0, 1.0526275634765625, -0.1,0.15) "/>
</g>

<g transform="matrix( 0.9499969482421875, 0, 0, 0.9499969482421875, 0.3,0.9) ">
<use xlink:href="#Duplicate_Items_Folder_vxcvdfdf_0_Layer0_16_1_STROKES" transform="matrix( 1.0526275634765625, 0, 0, 1.0526275634765625, -0.3,-0.9) "/>
</g>

<g transform="matrix( 0.9499969482421875, 0, 0, 0.9499969482421875, 29.9,15.6) ">
<use xlink:href="#Duplicate_Items_Folder_vxcvdfdf_0_Layer0_17_FILL"/>
</g>

<g transform="matrix( 0.9499969482421875, 0, 0, 0.9499969482421875, 58.9,0.75) ">
<use xlink:href="#Duplicate_Items_Folder_vxcvdfdf_0_Layer0_18_FILL"/>
</g>

<g transform="matrix( 0.9499969482421875, 0, 0, 0.9499969482421875, 0.1,-0.15) ">
<use xlink:href="#Duplicate_Items_Folder_vxcvdfdf_0_Layer0_19_FILL"/>
</g>

<g transform="matrix( 0.66497802734375, 0, 0, 0.66497802734375, -1.8,-1.85) ">
<use xlink:href="#Duplicate_Items_Folder_vxcvdfdf_0_Layer0_20_FILL"/>
</g>

<g transform="matrix( 0.9499969482421875, 0, 0, 0.9499969482421875, -18.6,-9.9) ">
<use xlink:href="#Duplicate_Items_Folder_vxcvdfdf_0_Layer0_21_1_STROKES" transform="matrix( 1.0526275634765625, 0, 0, 1.0526275634765625, 19.55,10.4) "/>
</g>

<g transform="matrix( 0.9176025390625, -0.2458343505859375, 0.2458343505859375, 0.9176025390625, -15.75,-7.35) ">
<use xlink:href="#Duplicate_Items_Folder_vxcvdfdf_0_Layer0_22_FILL"/>
</g>

<g transform="matrix( 0.9176025390625, -0.2458343505859375, 0.2458343505859375, 0.9176025390625, -15.15,-5.7) ">
<use xlink:href="#Duplicate_Items_Folder_vxcvdfdf_0_Layer0_23_1_STROKES" transform="matrix( 1.0167999267578125, 0.27239990234375, -0.27239990234375, 1.0167999267578125, 13.85,9.9) "/>
</g>

<g transform="matrix( 0.9176025390625, -0.2458343505859375, 0.2458343505859375, 0.9176025390625, -15.75,-7.35) ">
<use xlink:href="#Duplicate_Items_Folder_vxcvdfdf_0_Layer0_24_FILL"/>
</g>

<g transform="matrix( 0.9468231201171875, -0.07275390625, 0.07275390625, 0.9468231201171875, -1.6,-5.9) ">
<use xlink:href="#Duplicate_Items_Folder_vxcvdfdf_0_Layer0_25_MEMBER_0_MEMBER_0_1_STROKES" transform="matrix( 1.049957275390625, 0.0806732177734375, -0.0806732177734375, 1.049957275390625, 1.2,6.3) "/>
</g>

<g transform="matrix( 0.1226959228515625, -0.0093841552734375, 0.0093841552734375, 0.1226959228515625, -10.55,-17.2) ">
<use xlink:href="#Duplicate_Items_Folder_vxcvdfdf_0_Layer0_25_MEMBER_0_MEMBER_1_MEMBER_0_FILL"/>
</g>

<g transform="matrix( 0.1226959228515625, -0.0093841552734375, 0.0093841552734375, 0.1226959228515625, -11.4,-17.15) ">
<use xlink:href="#Duplicate_Items_Folder_vxcvdfdf_0_Layer0_25_MEMBER_0_MEMBER_1_MEMBER_1_FILL"/>
</g>

<g transform="matrix( 0.5046844482421875, -0.03875732421875, 0.03875732421875, 0.5046844482421875, -20.9,-17.15) ">
<use xlink:href="#Duplicate_Items_Folder_vxcvdfdf_0_Layer0_25_MEMBER_0_MEMBER_1_MEMBER_2_FILL"/>
</g>

<g transform="matrix( 0.5046844482421875, -0.03875732421875, 0.03875732421875, 0.5046844482421875, -20.9,-17.15) ">
<use xlink:href="#Duplicate_Items_Folder_vxcvdfdf_0_Layer0_25_MEMBER_0_MEMBER_1_MEMBER_3_FILL"/>
</g>

<g transform="matrix( 0.9468231201171875, -0.07275390625, 0.07275390625, 0.9468231201171875, -1.6,-5.9) ">
<use xlink:href="#Duplicate_Items_Folder_vxcvdfdf_0_Layer0_25_MEMBER_0_MEMBER_2_FILL"/>
</g>

<g transform="matrix( 0.9308624267578125, -0.175445556640625, 0.175445556640625, 0.9308624267578125, 0.15,-5) ">
<use xlink:href="#Duplicate_Items_Folder_vxcvdfdf_0_Layer0_25_MEMBER_1_MEMBER_0_FILL"/>
</g>

<g transform="matrix( 0.9308624267578125, -0.175445556640625, 0.175445556640625, 0.9308624267578125, 0.15,-5) ">
<use xlink:href="#Duplicate_Items_Folder_vxcvdfdf_0_Layer0_25_MEMBER_1_MEMBER_1_1_STROKES" transform="matrix( 1.03741455078125, 0.195526123046875, -0.195526123046875, 1.03741455078125, -1.1,5.15) "/>
</g>

<g transform="matrix( 0.9308624267578125, -0.175445556640625, 0.175445556640625, 0.9308624267578125, 0.8,-3.75) ">
<use xlink:href="#Duplicate_Items_Folder_vxcvdfdf_0_Layer0_25_MEMBER_1_MEMBER_2_1_STROKES" transform="matrix( 1.03741455078125, 0.195526123046875, -0.195526123046875, 1.03741455078125, -1.55,3.7) "/>
</g>

<g transform="matrix( 0.9308624267578125, -0.175445556640625, 0.175445556640625, 0.9308624267578125, 1.4,-2.1) ">
<use xlink:href="#Duplicate_Items_Folder_vxcvdfdf_0_Layer0_25_MEMBER_1_MEMBER_3_1_STROKES" transform="matrix( 1.03741455078125, 0.195526123046875, -0.195526123046875, 1.03741455078125, -1.85,1.9) "/>
</g>

<g transform="matrix( 0.949920654296875, 0, 0, 0.949920654296875, 0.1,-0.15) ">
<use xlink:href="#Duplicate_Items_Folder_vxcvdfdf_0_Layer0_25_MEMBER_2_FILL"/>
</g>

<g transform="matrix( 0.949920654296875, 0, 0, 0.949920654296875, 0.1,-0.15) ">
<use xlink:href="#Duplicate_Items_Folder_vxcvdfdf_0_Layer0_26_MEMBER_0_FILL"/>
</g>

<g transform="matrix( 0.949920654296875, 0, 0, 0.949920654296875, 0.1,-0.15) ">
<use xlink:href="#Duplicate_Items_Folder_vxcvdfdf_0_Layer0_26_MEMBER_1_FILL"/>
</g>

<g transform="matrix( 0.917510986328125, 0.245758056640625, -0.245758056640625, 0.917510986328125, -5.05,-8.65) ">
<use xlink:href="#Duplicate_Items_Folder_vxcvdfdf_0_Layer0_26_MEMBER_2_FILL"/>
</g>

<g transform="matrix( 0.917510986328125, 0.245758056640625, -0.245758056640625, 0.917510986328125, -5.05,-8.65) ">
<use xlink:href="#Duplicate_Items_Folder_vxcvdfdf_0_Layer0_26_MEMBER_3_FILL"/>
</g>

<g transform="matrix( 0.9174041748046875, 0.24566650390625, -0.24566650390625, 0.9174041748046875, -4.25,-7.7) ">
<use xlink:href="#Duplicate_Items_Folder_vxcvdfdf_0_Layer0_26_MEMBER_4_MEMBER_0_FILL"/>
</g>

<g transform="matrix( 0.9174041748046875, 0.24566650390625, -0.24566650390625, 0.9174041748046875, -4.2,-8) ">
<use xlink:href="#Duplicate_Items_Folder_vxcvdfdf_0_Layer0_26_MEMBER_4_MEMBER_1_FILL"/>
</g>

<g transform="matrix( 0.9174041748046875, 0.24566650390625, -0.24566650390625, 0.9174041748046875, -4.25,-7.7) ">
<use xlink:href="#Duplicate_Items_Folder_vxcvdfdf_0_Layer0_26_MEMBER_4_MEMBER_2_1_STROKES" transform="matrix( 1.01708984375, -0.2723541259765625, 0.2723541259765625, 1.01708984375, 6.4,6.65) "/>
</g>

<g transform="matrix( 0.9174041748046875, 0.24566650390625, -0.24566650390625, 0.9174041748046875, -4.5,-6.75) ">
<use xlink:href="#Duplicate_Items_Folder_vxcvdfdf_0_Layer0_26_MEMBER_4_MEMBER_3_1_STROKES" transform="matrix( 1.01708984375, -0.2723541259765625, 0.2723541259765625, 1.01708984375, 6.4,5.6) "/>
</g>

<g transform="matrix( 0.9174041748046875, 0.24566650390625, -0.24566650390625, 0.9174041748046875, -4.85,-5.8) ">
<use xlink:href="#Duplicate_Items_Folder_vxcvdfdf_0_Layer0_26_MEMBER_4_MEMBER_4_1_STROKES" transform="matrix( 1.01708984375, -0.2723541259765625, 0.2723541259765625, 1.01708984375, 6.5,4.55) "/>
</g>

<g transform="matrix( 0.9174041748046875, 0.24566650390625, -0.24566650390625, 0.9174041748046875, -5.15,-4.85) ">
<use xlink:href="#Duplicate_Items_Folder_vxcvdfdf_0_Layer0_26_MEMBER_4_MEMBER_5_1_STROKES" transform="matrix( 1.01708984375, -0.2723541259765625, 0.2723541259765625, 1.01708984375, 6.55,3.5) "/>
</g>

<g transform="matrix( 0.9174041748046875, 0.24566650390625, -0.24566650390625, 0.9174041748046875, -4.25,-7.7) ">
<use xlink:href="#Duplicate_Items_Folder_vxcvdfdf_0_Layer0_26_MEMBER_4_MEMBER_6_1_STROKES" transform="matrix( 1.01708984375, -0.2723541259765625, 0.2723541259765625, 1.01708984375, 6.4,6.65) "/>
</g>

<g transform="matrix( 0.9174041748046875, 0.24566650390625, -0.24566650390625, 0.9174041748046875, -5.2,-8.65) ">
<use xlink:href="#Duplicate_Items_Folder_vxcvdfdf_0_Layer0_26_MEMBER_4_MEMBER_7_FILL"/>
</g>

<g transform="matrix( 0.9174041748046875, 0.24566650390625, -0.24566650390625, 0.9174041748046875, -4.2,-8.05) ">
<use xlink:href="#Duplicate_Items_Folder_vxcvdfdf_0_Layer0_26_MEMBER_4_MEMBER_8_FILL"/>
</g>

<g transform="matrix( 0.458648681640625, 0.122772216796875, -0.122772216796875, 0.458648681640625, 9.8,-18.15) ">
<use xlink:href="#Duplicate_Items_Folder_vxcvdfdf_0_Layer0_26_MEMBER_4_MEMBER_9_FILL"/>
</g>

<g transform="matrix( 0.9499969482421875, 0, 0, 0.9499969482421875, -1.75,-0.9) ">
<use xlink:href="#Duplicate_Items_Folder_vxcvdfdf_0_Layer0_27_FILL"/>
</g>
</g>
</g>
</g>
</svg>
