
<svg xmlns="http://www.w3.org/2000/svg" version="1.1" xmlns:xlink="http://www.w3.org/1999/xlink" preserveAspectRatio="none" x="0px" y="0px" width="130px" height="115px" viewBox="0 0 130 115">
<defs>
<g id="icon_r_box_02_55_Layer3_0_FILL">
<path fill="#FFFFFF" fill-opacity="0" stroke="none" d="
M 65 -55
L -65 -55 -65 25 65 25 65 -55 Z"/>
</g>

<g id="icon_r_box_02_55_Layer3_1_FILL">
<path fill="#FFFFFF" fill-opacity="0" stroke="none" d="
M 65.05 49.95
L 65.05 24.95 -64.95 24.95 -64.95 49.95 65.05 49.95 Z"/>
</g>

<g id="icon_r_box_02_55_Layer3_2_FILL">
<path fill="#FFFFFF" fill-opacity="0" stroke="none" d="
M 65 -52.85
L 65 -57.85 -65 -57.85 -65 -52.85 65 -52.85 Z"/>
</g>

<g id="icon_r_box_02_55_Layer3_3_FILL">
<path fill="#FFFFFF" fill-opacity="0" stroke="none" d="
M 65 54.95
L 65 49.95 -65 49.95 -65 54.95 65 54.95 Z"/>
</g>

<g id="icon_r_box_02_55_Layer2_0_MEMBER_0_MEMBER_0_MEMBER_0_FILL">
<path fill="#FFD252" stroke="none" d="
M 35.8 6.95
Q 29.85 1 21.4 1 12.95 1 7 6.95 1 12.9 1 21.35 1 29.8 7 35.75 12.95 41.75 21.4 41.75 29.85 41.75 35.8 35.75 41.8 29.8 41.8 21.35 41.8 12.9 35.8 6.95 Z"/>
</g>

<g id="icon_r_box_02_55_Layer2_0_MEMBER_0_MEMBER_0_MEMBER_1_MEMBER_0_FILL">
<path fill="#000000" stroke="none" d="
M 18.05 18.4
Q 18.05 16.9 17.25 15.85 16.45 14.8 15.3 14.8 14.15 14.8 13.35 15.85 12.55 16.9 12.55 18.4 12.55 19.95 13.35 21 14.15 22.05 15.3 22.05 16.45 22.05 17.25 21 18.05 19.95 18.05 18.4 Z"/>
</g>

<g id="icon_r_box_02_55_Layer2_0_MEMBER_0_MEMBER_0_MEMBER_1_MEMBER_1_FILL">
<path fill="#000000" stroke="none" d="
M 30.25 18.4
Q 30.25 16.9 29.45 15.85 28.65 14.8 27.5 14.8 26.35 14.8 25.55 15.85 24.75 16.9 24.75 18.4 24.75 19.95 25.55 21 26.35 22.05 27.5 22.05 28.65 22.05 29.45 21 30.25 19.95 30.25 18.4 Z"/>
</g>

<g id="icon_r_box_02_55_Layer2_0_MEMBER_0_MEMBER_1_FILL">
<path fill="#E26B85" stroke="none" d="
M 30.5 30.9
Q 29.35 29.1 26.9 28 24.4 26.85 21.3 26.85 18.2 26.85 15.7 28 13.25 29.1 12.1 30.9
L 30.5 30.9 Z"/>
</g>

<g id="icon_r_box_02_55_Layer2_0_MEMBER_0_MEMBER_2_MEMBER_0_FILL">
<path fill="#E26B85" stroke="none" d="
M 16.85 9.5
L 12.55 12.1
Q 13.95 12.05 15.3 11.25 16.6 10.45 16.85 9.5 Z"/>
</g>

<g id="icon_r_box_02_55_Layer2_0_MEMBER_0_MEMBER_3_MEMBER_0_FILL">
<path fill="#E26B85" stroke="none" d="
M 29.65 12.1
L 25.35 9.5
Q 25.65 10.45 26.95 11.25 28.25 12.05 29.65 12.1 Z"/>
</g>

<path id="icon_r_box_02_55_Layer2_0_MEMBER_0_MEMBER_0_MEMBER_0_1_STROKES" stroke="#000000" stroke-width="2" stroke-linejoin="miter" stroke-linecap="round" stroke-miterlimit="10" fill="none" d="
M 41.8 21.35
Q 41.8 29.8 35.8 35.75 29.85 41.75 21.4 41.75 12.95 41.75 7 35.75 1 29.8 1 21.35 1 12.9 7 6.95 12.95 1 21.4 1 29.85 1 35.8 6.95 41.8 12.9 41.8 21.35 Z"/>

<path id="icon_r_box_02_55_Layer2_0_MEMBER_0_MEMBER_1_1_STROKES" stroke="#000000" stroke-width="2" stroke-linejoin="round" stroke-linecap="round" fill="none" d="
M 30.5 30.9
L 12.1 30.9
Q 13.25 29.1 15.7 28 18.2 26.85 21.3 26.85 24.4 26.85 26.9 28 29.35 29.1 30.5 30.9 Z"/>

<path id="icon_r_box_02_55_Layer2_0_MEMBER_0_MEMBER_2_MEMBER_1_1_STROKES" stroke="#000000" stroke-width="2" stroke-linejoin="round" stroke-linecap="round" fill="none" d="
M 12.55 12.1
Q 13.95 12.05 15.3 11.25 16.6 10.45 16.85 9.5"/>

<path id="icon_r_box_02_55_Layer2_0_MEMBER_0_MEMBER_3_MEMBER_1_1_STROKES" stroke="#000000" stroke-width="2" stroke-linejoin="round" stroke-linecap="round" fill="none" d="
M 29.65 12.1
Q 28.25 12.05 26.95 11.25 25.65 10.45 25.35 9.5"/>
</defs>

<g transform="matrix( 1, 0, 0, 0.999603271484375, 65,60) ">
<g transform="matrix( 1, 0, 0, 1, 0,0) ">
<use xlink:href="#icon_r_box_02_55_Layer3_0_FILL"/>
</g>

<g transform="matrix( 1, 0, 0, 1, -0.05,0.05) ">
<use xlink:href="#icon_r_box_02_55_Layer3_1_FILL"/>
</g>

<g transform="matrix( 1, 0, 0, 1, 0,-2.15) ">
<use xlink:href="#icon_r_box_02_55_Layer3_2_FILL"/>
</g>

<g transform="matrix( 1, 0, 0, 1, 0,0.05) ">
<use xlink:href="#icon_r_box_02_55_Layer3_3_FILL"/>
</g>

<g transform="matrix( 1, 0, 0, 1, -21.4,-36.4) ">
<use xlink:href="#icon_r_box_02_55_Layer2_0_MEMBER_0_MEMBER_0_MEMBER_0_FILL"/>

<use xlink:href="#icon_r_box_02_55_Layer2_0_MEMBER_0_MEMBER_0_MEMBER_0_1_STROKES"/>
</g>

<g transform="matrix( 1, 0, 0, 1, -21.4,-36.4) ">
<use xlink:href="#icon_r_box_02_55_Layer2_0_MEMBER_0_MEMBER_0_MEMBER_1_MEMBER_0_FILL"/>
</g>

<g transform="matrix( 1, 0, 0, 1, -21.4,-36.4) ">
<use xlink:href="#icon_r_box_02_55_Layer2_0_MEMBER_0_MEMBER_0_MEMBER_1_MEMBER_1_FILL"/>
</g>

<g transform="matrix( 1, 0, 0, 1, -21.4,-36.4) ">
<use xlink:href="#icon_r_box_02_55_Layer2_0_MEMBER_0_MEMBER_1_FILL"/>

<use xlink:href="#icon_r_box_02_55_Layer2_0_MEMBER_0_MEMBER_1_1_STROKES"/>
</g>

<g transform="matrix( 1, 0, 0, 1, -21.4,-36.4) ">
<use xlink:href="#icon_r_box_02_55_Layer2_0_MEMBER_0_MEMBER_2_MEMBER_0_FILL"/>
</g>

<g transform="matrix( 1, 0, 0, 1, -21.4,-36.4) ">
<use xlink:href="#icon_r_box_02_55_Layer2_0_MEMBER_0_MEMBER_2_MEMBER_1_1_STROKES"/>
</g>

<g transform="matrix( 1, 0, 0, 1, -21.4,-36.4) ">
<use xlink:href="#icon_r_box_02_55_Layer2_0_MEMBER_0_MEMBER_3_MEMBER_0_FILL"/>
</g>

<g transform="matrix( 1, 0, 0, 1, -21.4,-36.4) ">
<use xlink:href="#icon_r_box_02_55_Layer2_0_MEMBER_0_MEMBER_3_MEMBER_1_1_STROKES"/>
</g>
</g>
</svg>
