
<svg xmlns="http://www.w3.org/2000/svg" version="1.1" xmlns:xlink="http://www.w3.org/1999/xlink" preserveAspectRatio="none" x="0px" y="0px" width="130px" height="115px" viewBox="0 0 130 115">
<defs>
<g id="icon_r_box_02_51_Layer3_0_FILL">
<path fill="#FFFFFF" fill-opacity="0" stroke="none" d="
M 65 -55
L -65 -55 -65 25 65 25 65 -55 Z"/>
</g>

<g id="icon_r_box_02_51_Layer3_1_FILL">
<path fill="#FFFFFF" fill-opacity="0" stroke="none" d="
M 65.05 49.95
L 65.05 24.95 -64.95 24.95 -64.95 49.95 65.05 49.95 Z"/>
</g>

<g id="icon_r_box_02_51_Layer3_2_FILL">
<path fill="#FFFFFF" fill-opacity="0" stroke="none" d="
M 65 -52.85
L 65 -57.85 -65 -57.85 -65 -52.85 65 -52.85 Z"/>
</g>

<g id="icon_r_box_02_51_Layer3_3_FILL">
<path fill="#FFFFFF" fill-opacity="0" stroke="none" d="
M 65 54.95
L 65 49.95 -65 49.95 -65 54.95 65 54.95 Z"/>
</g>

<g id="icon_r_box_02_51_Layer2_0_MEMBER_0_FILL">
<path fill="#FFD252" stroke="none" d="
M 35.8 7
Q 29.85 1 21.4 1 12.95 1 6.95 7 1 12.95 1 21.4 1 29.85 6.95 35.8 12.95 41.75 21.4 41.75 29.85 41.75 35.8 35.8 41.75 29.85 41.75 21.4 41.75 12.95 35.8 7 Z"/>
</g>

<g id="icon_r_box_02_51_Layer2_0_MEMBER_1_MEMBER_0_FILL">
<path fill="#000000" stroke="none" d="
M 18 18.45
Q 18 16.95 17.2 15.9 16.4 14.8 15.3 14.8 14.15 14.8 13.35 15.9 12.55 16.95 12.55 18.45 12.55 19.95 13.35 21.05 14.15 22.1 15.3 22.1 16.4 22.1 17.2 21.05 18 19.95 18 18.45 Z"/>
</g>

<g id="icon_r_box_02_51_Layer2_0_MEMBER_1_MEMBER_1_FILL">
<path fill="#000000" stroke="none" d="
M 30.2 18.45
Q 30.2 16.95 29.4 15.9 28.6 14.8 27.5 14.8 26.35 14.8 25.55 15.9 24.75 16.95 24.75 18.45 24.75 19.95 25.55 21.05 26.35 22.1 27.5 22.1 28.6 22.1 29.4 21.05 30.2 19.95 30.2 18.45 Z"/>
</g>

<path id="icon_r_box_02_51_Layer2_0_MEMBER_0_1_STROKES" stroke="#000000" stroke-width="2" stroke-linejoin="miter" stroke-linecap="round" stroke-miterlimit="10" fill="none" d="
M 41.75 21.4
Q 41.75 29.85 35.8 35.8 29.85 41.75 21.4 41.75 12.95 41.75 6.95 35.8 1 29.85 1 21.4 1 12.95 6.95 7 12.95 1 21.4 1 29.85 1 35.8 7 41.75 12.95 41.75 21.4 Z"/>

<path id="icon_r_box_02_51_Layer2_0_MEMBER_2_1_STROKES" stroke="#000000" stroke-width="2" stroke-linejoin="miter" stroke-linecap="round" stroke-miterlimit="10" fill="none" d="
M 31.85 26.2
Q 30.6 28.4 27.8 29.8 24.9 31.2 21.4 31.2 17.9 31.2 15 29.8 12.15 28.4 10.9 26.2"/>
</defs>

<g transform="matrix( 1, 0, 0, 0.999603271484375, 65,60) ">
<g transform="matrix( 1, 0, 0, 1, 0,0) ">
<use xlink:href="#icon_r_box_02_51_Layer3_0_FILL"/>
</g>

<g transform="matrix( 1, 0, 0, 1, -0.05,0.05) ">
<use xlink:href="#icon_r_box_02_51_Layer3_1_FILL"/>
</g>

<g transform="matrix( 1, 0, 0, 1, 0,-2.15) ">
<use xlink:href="#icon_r_box_02_51_Layer3_2_FILL"/>
</g>

<g transform="matrix( 1, 0, 0, 1, 0,0.05) ">
<use xlink:href="#icon_r_box_02_51_Layer3_3_FILL"/>
</g>

<g transform="matrix( 1, 0, 0, 1, -21.35,-36.4) ">
<use xlink:href="#icon_r_box_02_51_Layer2_0_MEMBER_0_FILL"/>

<use xlink:href="#icon_r_box_02_51_Layer2_0_MEMBER_0_1_STROKES"/>
</g>

<g transform="matrix( 1, 0, 0, 1, -21.35,-36.4) ">
<use xlink:href="#icon_r_box_02_51_Layer2_0_MEMBER_1_MEMBER_0_FILL"/>
</g>

<g transform="matrix( 1, 0, 0, 1, -21.35,-36.4) ">
<use xlink:href="#icon_r_box_02_51_Layer2_0_MEMBER_1_MEMBER_1_FILL"/>
</g>

<g transform="matrix( 1, 0, 0, 1, -21.35,-36.4) ">
<use xlink:href="#icon_r_box_02_51_Layer2_0_MEMBER_2_1_STROKES"/>
</g>
</g>
</svg>
