
<svg xmlns="http://www.w3.org/2000/svg" version="1.1" xmlns:xlink="http://www.w3.org/1999/xlink" preserveAspectRatio="none" x="0px" y="0px" width="130px" height="115px" viewBox="0 0 130 115">
<defs>
<g id="icon_r_box_02_16_Layer3_0_FILL">
<path fill="#FFFFFF" fill-opacity="0" stroke="none" d="
M 65 -55
L -65 -55 -65 25 65 25 65 -55 Z"/>
</g>

<g id="icon_r_box_02_16_Layer3_1_FILL">
<path fill="#FFFFFF" fill-opacity="0" stroke="none" d="
M 65.05 49.95
L 65.05 24.95 -64.95 24.95 -64.95 49.95 65.05 49.95 Z"/>
</g>

<g id="icon_r_box_02_16_Layer3_2_FILL">
<path fill="#FFFFFF" fill-opacity="0" stroke="none" d="
M 65 -52.85
L 65 -57.85 -65 -57.85 -65 -52.85 65 -52.85 Z"/>
</g>

<g id="icon_r_box_02_16_Layer3_3_FILL">
<path fill="#FFFFFF" fill-opacity="0" stroke="none" d="
M 65 54.95
L 65 49.95 -65 49.95 -65 54.95 65 54.95 Z"/>
</g>

<g id="icon_r_box_02_16_Layer2_0_FILL">
<path fill="#36AB3A" stroke="none" d="
M 23.5 1.8
L 21.9 1.3
Q 17.45 0 11.75 0 6.05 0 1.6 1.3
L 0 1.8 0 13.1
Q 0 16.45 3.9 21 8 25.75 11.75 25.75 15.5 25.75 19.6 21 23.5 16.45 23.5 13.1
L 23.5 1.8
M 11.75 4.5
Q 15.1 4.5 18.95 5.25
L 18.95 13.1
Q 18.95 14.7 16.3 17.9 13.55 21.25 11.75 21.25 9.95 21.25 7.2 17.9 4.55 14.7 4.55 13.1
L 4.55 5.25
Q 8.45 4.5 11.75 4.5 Z"/>
</g>
</defs>

<g transform="matrix( 1, 0, 0, 0.999603271484375, 65,60) ">
<g transform="matrix( 1, 0, 0, 1, 0,0) ">
<use xlink:href="#icon_r_box_02_16_Layer3_0_FILL"/>
</g>

<g transform="matrix( 1, 0, 0, 1, -0.05,0.05) ">
<use xlink:href="#icon_r_box_02_16_Layer3_1_FILL"/>
</g>

<g transform="matrix( 1, 0, 0, 1, 0,-2.15) ">
<use xlink:href="#icon_r_box_02_16_Layer3_2_FILL"/>
</g>

<g transform="matrix( 1, 0, 0, 1, 0,0.05) ">
<use xlink:href="#icon_r_box_02_16_Layer3_3_FILL"/>
</g>

<g transform="matrix( 1, 0, 0, 1, -11.75,-27.1) ">
<use xlink:href="#icon_r_box_02_16_Layer2_0_FILL"/>
</g>
</g>
</svg>
