
<svg xmlns="http://www.w3.org/2000/svg" version="1.1" xmlns:xlink="http://www.w3.org/1999/xlink" preserveAspectRatio="none" x="0px" y="0px" width="130px" height="115px" viewBox="0 0 130 115">
<defs>
<g id="icon_r_box_02_14_Layer3_0_FILL">
<path fill="#FFFFFF" fill-opacity="0" stroke="none" d="
M 65 -55
L -65 -55 -65 25 65 25 65 -55 Z"/>
</g>

<g id="icon_r_box_02_14_Layer3_1_FILL">
<path fill="#FFFFFF" fill-opacity="0" stroke="none" d="
M 65.05 49.95
L 65.05 24.95 -64.95 24.95 -64.95 49.95 65.05 49.95 Z"/>
</g>

<g id="icon_r_box_02_14_Layer3_2_FILL">
<path fill="#FFFFFF" fill-opacity="0" stroke="none" d="
M 65 -52.85
L 65 -57.85 -65 -57.85 -65 -52.85 65 -52.85 Z"/>
</g>

<g id="icon_r_box_02_14_Layer3_3_FILL">
<path fill="#FFFFFF" fill-opacity="0" stroke="none" d="
M 65 54.95
L 65 49.95 -65 49.95 -65 54.95 65 54.95 Z"/>
</g>

<g id="icon_r_box_02_14_Layer2_0_FILL">
<path fill="#C3BEB6" stroke="none" d="
M 63 48.05
L 63 11.5 5.5 11.5 5.5 48.05 63 48.05 Z"/>
</g>

<g id="icon_r_box_02_14_Layer2_1_FILL">
<path fill="#E5E2DC" stroke="none" d="
M 52.95 48.05
L 52.95 11.5 15.5 11.5 15.5 48.05 52.95 48.05 Z"/>
</g>

<g id="icon_r_box_02_14_Layer2_3_MEMBER_0_FILL">
<path fill="#BAE6FF" stroke="none" d="
M 59.85 19.15
Q 59.85 18.35 59.3 17.8 58.75 17.2 57.95 17.2 57.15 17.2 56.55 17.8 56 18.35 56 19.15 56 19.95 56.55 20.5 57.15 21.1 57.95 21.1 58.75 21.1 59.3 20.5 59.85 19.95 59.85 19.15 Z"/>
</g>

<g id="icon_r_box_02_14_Layer2_3_MEMBER_1_FILL">
<path fill="#BAE6FF" stroke="none" d="
M 59.85 26.45
Q 59.85 25.65 59.3 25.05 58.75 24.5 57.95 24.5 57.15 24.5 56.55 25.05 56 25.65 56 26.45 56 27.25 56.55 27.8 57.15 28.35 57.95 28.35 58.75 28.35 59.3 27.8 59.85 27.25 59.85 26.45 Z"/>
</g>

<g id="icon_r_box_02_14_Layer2_4_MEMBER_0_FILL">
<path fill="#BAE6FF" stroke="none" d="
M 9.15 17.8
Q 8.6 18.35 8.6 19.15 8.6 19.95 9.15 20.5 9.75 21.1 10.55 21.1 11.35 21.1 11.9 20.5 12.45 19.95 12.45 19.15 12.45 18.35 11.9 17.8 11.35 17.2 10.55 17.2 9.75 17.2 9.15 17.8 Z"/>
</g>

<g id="icon_r_box_02_14_Layer2_4_MEMBER_1_FILL">
<path fill="#BAE6FF" stroke="none" d="
M 9.15 25.05
Q 8.6 25.65 8.6 26.45 8.6 27.25 9.15 27.8 9.75 28.35 10.55 28.35 11.35 28.35 11.9 27.8 12.45 27.25 12.45 26.45 12.45 25.65 11.9 25.05 11.35 24.5 10.55 24.5 9.75 24.5 9.15 25.05 Z"/>
</g>

<g id="icon_r_box_02_14_Layer2_5_FILL">
<path fill="#838E98" stroke="none" d="
M 43.95 38.45
L 43.95 33.2 23.8 33.2 23.8 38.45 43.95 38.45 Z"/>
</g>

<g id="icon_r_box_02_14_Layer2_6_FILL">
<path fill="#838E98" stroke="none" d="
M 42.3 48.05
L 42.3 38.45 25.5 38.45 25.5 48.05 42.3 48.05 Z"/>
</g>

<g id="icon_r_box_02_14_Layer2_7_MEMBER_0_FILL">
<path fill="#336290" stroke="none" d="
M 39.6 48.05
L 39.6 38.45 28.15 38.45 28.15 48.05 39.6 48.05 Z"/>
</g>

<g id="icon_r_box_02_14_Layer2_9_MEMBER_0_FILL">
<path fill="#1F4568" stroke="none" d="
M 39.6 40
L 39.6 38.45 28.15 38.45 28.15 40 39.6 40 Z"/>
</g>

<g id="icon_r_box_02_14_Layer2_10_FILL">
<path fill="#E5E2DC" stroke="none" d="
M 63 11.5
L 63 6.35
Q 60.35 5.35 55.4 4.3 45.55 2.25 34.25 2.25 22.95 2.25 13.1 4.3 8.15 5.35 5.5 6.35
L 5.5 11.5 63 11.5 Z"/>
</g>

<g id="icon_r_box_02_14_Layer2_14_MEMBER_0_FILL">
<path fill="#FFFFFF" stroke="none" d="
M 15.95 11.5
L 15.95 4.65 13.7 4.65 13.7 11.5 15.95 11.5 Z"/>
</g>

<g id="icon_r_box_02_14_Layer2_14_MEMBER_1_FILL">
<path fill="#FFFFFF" stroke="none" d="
M 25.5 11.5
L 25.5 2.8 23.2 2.8 23.2 11.5 25.5 11.5 Z"/>
</g>

<g id="icon_r_box_02_14_Layer2_14_MEMBER_2_FILL">
<path fill="#FFFFFF" stroke="none" d="
M 35 11.5
L 35 2.25 32.75 2.25 32.75 11.5 35 11.5 Z"/>
</g>

<g id="icon_r_box_02_14_Layer2_14_MEMBER_3_FILL">
<path fill="#FFFFFF" stroke="none" d="
M 44.55 11.5
L 44.55 2.8 42.25 2.8 42.25 11.5 44.55 11.5 Z"/>
</g>

<g id="icon_r_box_02_14_Layer2_14_MEMBER_4_FILL">
<path fill="#FFFFFF" stroke="none" d="
M 54.1 11.5
L 54.1 4.65 51.8 4.65 51.8 11.5 54.1 11.5 Z"/>
</g>

<g id="icon_r_box_02_14_Layer2_16_MEMBER_0_FILL">
<path fill="#E5E2DC" stroke="none" d="
M 65.55 10.4
L 67.05 7.3 65.5 6.55
Q 59.7 3.65 51.4 2.1 43.15 0.5 33.9 0.5 24.65 0.5 16.35 2.1 8.1 3.65 2.25 6.55
L 0.7 7.3 2.25 10.4 3.8 9.65
Q 9.25 6.95 17.15 5.5 25 4 33.9 4 42.75 4 50.65 5.5 58.5 6.95 63.95 9.65
L 65.55 10.4 Z"/>
</g>

<g id="icon_r_box_02_14_Layer1_0_FILL">
<path fill="#000000" stroke="none" d="
M 9.65 -12.6
Q 9.65 -12.8 9.7 -13.05 9.75 -13.3 9.6 -13.5 9.4 -13.7 9.1 -13.75 8.75 -13.8 8.5 -13.65 8.25 -13.55 8.15 -13.25 8.05 -12.7 8.05 -12 8.05 -11.15 8.65 -10.7 9.3 -10.25 10.6 -10.25 11.2 -10.25 11.7 -10.25 12.2 -10.3 12.65 -10.35 13.05 -10.4 13.45 -10.5 13.8 -10.6 14.15 -10.7 14.45 -10.8 14.55 -11.05 14.65 -11.3 14.55 -11.6 14.45 -11.85 14.2 -11.95 13.95 -12.05 13.65 -11.95 13.1 -11.8 12.4 -11.65 11.7 -11.55 10.8 -11.55 10.15 -11.55 9.85 -11.7 9.6 -11.85 9.6 -12.15 9.6 -12.35 9.65 -12.6
M 12.4 -15.55
Q 12.2 -15.7 11.95 -15.6 11.6 -15.55 11.2 -15.5 10.8 -15.45 10.3 -15.45
L 9.55 -15.45 9.55 -17.1
Q 9.55 -17.4 9.3 -17.55 9.1 -17.7 8.8 -17.7 8.45 -17.7 8.25 -17.55 8.05 -17.4 8.05 -17.1
L 8.05 -15.45 6.7 -15.45
Q 6.4 -15.45 6.25 -15.25 6.1 -15.05 6.1 -14.8 6.1 -14.55 6.25 -14.4 6.4 -14.2 6.7 -14.2
L 9.9 -14.2
Q 10.55 -14.2 11.15 -14.3 11.75 -14.35 12.2 -14.5 12.5 -14.6 12.6 -14.8 12.7 -15.05 12.65 -15.25 12.6 -15.45 12.4 -15.55
M 13.05 -20.05
Q 12.85 -19.9 12.85 -19.65
L 12.85 -13.7
Q 12.85 -13.45 13.05 -13.3 13.25 -13.15 13.6 -13.15 13.95 -13.15 14.15 -13.3 14.35 -13.45 14.35 -13.7
L 14.35 -16.3 15.3 -16.3
Q 15.55 -16.3 15.7 -16.45 15.85 -16.65 15.85 -16.9 15.85 -17.15 15.7 -17.3 15.55 -17.5 15.3 -17.5
L 14.35 -17.5 14.35 -19.65
Q 14.35 -19.9 14.15 -20.05 13.95 -20.2 13.6 -20.2 13.25 -20.2 13.05 -20.05
M 11.65 -19.6
Q 11.3 -19.95 10.5 -19.95
L 7.4 -19.95
Q 7.15 -19.95 6.95 -19.8 6.8 -19.65 6.8 -19.35 6.8 -19.05 6.95 -18.9 7.15 -18.7 7.4 -18.7
L 9.8 -18.7
Q 10.15 -18.7 10.35 -18.55 10.6 -18.4 10.6 -18.05 10.6 -17.75 10.5 -17.4 10.45 -17.05 10.4 -16.75 10.3 -16.5 10.45 -16.3 10.65 -16.1 10.9 -16.05 11.2 -15.95 11.45 -16.05 11.65 -16.15 11.75 -16.45 11.9 -16.95 11.95 -17.45 12.05 -18 12.05 -18.4 12.05 -19.2 11.65 -19.6
M -2.65 -13.55
Q -2.8 -13.4 -2.8 -13.1 -2.8 -12.85 -2.65 -12.65 -2.5 -12.5 -2.25 -12.5
L 2 -12.5
Q 2.45 -12.5 2.45 -12.05 2.45 -11.85 2.45 -11.55 2.4 -11.3 2.35 -11.05 2.25 -10.75 2.45 -10.55 2.6 -10.35 2.9 -10.25 3.25 -10.2 3.5 -10.3 3.75 -10.4 3.85 -10.7 3.95 -11.1 4 -11.5 4.05 -11.9 4.05 -12.3 4.05 -13.05 3.75 -13.4 3.4 -13.75 2.6 -13.75
L -2.25 -13.75
Q -2.5 -13.75 -2.65 -13.55
M -3.5 -16.05
Q -3.75 -16.05 -3.9 -15.85 -4.05 -15.7 -4.05 -15.45 -4.05 -15.15 -3.9 -15 -3.75 -14.85 -3.5 -14.85
L -1.75 -14.85 -1.75 -14.4
Q -1.75 -14.2 -1.6 -14.05 -1.4 -13.95 -1 -13.95 -0.65 -13.95 -0.45 -14.05 -0.25 -14.2 -0.25 -14.4
L -0.25 -14.85 1.5 -14.85 1.5 -14.4
Q 1.5 -14.2 1.65 -14.05 1.85 -13.95 2.25 -13.95 2.6 -13.95 2.8 -14.05 3 -14.2 3 -14.4
L 3 -14.85 4.75 -14.85
Q 5 -14.85 5.15 -15 5.3 -15.15 5.3 -15.45 5.3 -15.7 5.15 -15.85 5 -16.05 4.75 -16.05
L -3.5 -16.05
M -1.65 -19.85
Q -2.05 -19.6 -2.25 -19.25 -2.5 -18.85 -2.5 -18.4 -2.5 -17.9 -2.25 -17.55 -2.05 -17.15 -1.65 -16.9 -1.25 -16.65 -0.65 -16.5 -0.1 -16.35 0.6 -16.35 1.35 -16.35 1.9 -16.5 2.45 -16.65 2.9 -16.9 3.3 -17.15 3.5 -17.55 3.75 -17.9 3.75 -18.4 3.75 -18.85 3.5 -19.25 3.3 -19.6 2.9 -19.85 2.45 -20.15 1.9 -20.25 1.35 -20.4 0.6 -20.4 -0.1 -20.4 -0.65 -20.25 -1.25 -20.15 -1.65 -19.85
M -0.5 -17.75
Q -0.9 -18 -0.9 -18.4 -0.9 -18.8 -0.5 -19 -0.1 -19.25 0.6 -19.25 1.35 -19.25 1.75 -19 2.1 -18.8 2.1 -18.4 2.1 -18 1.75 -17.75 1.35 -17.55 0.6 -17.55 -0.1 -17.55 -0.5 -17.75
M -6.45 -20.05
Q -6.65 -19.9 -6.65 -19.65
L -6.65 -12.15
Q -6.65 -11.9 -6.45 -11.75 -6.25 -11.6 -5.95 -11.6 -5.65 -11.6 -5.45 -11.75 -5.25 -11.85 -5.25 -12.1
L -5.25 -19.65
Q -5.25 -19.9 -5.45 -20.05 -5.65 -20.2 -5.95 -20.2 -6.25 -20.2 -6.45 -20.05
M -8.55 -20
Q -8.75 -19.85 -8.75 -19.6
L -8.75 -16.9 -9.75 -16.9
Q -10 -16.9 -10.1 -16.75 -10.25 -16.6 -10.25 -16.3 -10.25 -16 -10.1 -15.85 -10 -15.7 -9.75 -15.7
L -8.75 -15.7 -8.75 -12.25
Q -8.75 -12 -8.55 -11.9 -8.35 -11.75 -8.05 -11.75 -7.75 -11.75 -7.55 -11.9 -7.35 -12 -7.35 -12.3
L -7.35 -19.6
Q -7.35 -19.85 -7.55 -20 -7.75 -20.1 -8.05 -20.1 -8.35 -20.1 -8.55 -20
M -9.5 -18.8
Q -9.65 -18.95 -9.9 -18.95
L -10.95 -18.95 -10.95 -19.9
Q -10.95 -20.2 -11.15 -20.35 -11.35 -20.5 -11.7 -20.5 -12 -20.5 -12.2 -20.35 -12.4 -20.2 -12.4 -19.9
L -12.4 -18.95 -13.45 -18.95
Q -13.7 -18.95 -13.85 -18.8 -14 -18.6 -14 -18.35 -14 -18.1 -13.85 -17.9 -13.7 -17.75 -13.45 -17.75
L -12.4 -17.75 -12.4 -17.15
Q -12.4 -16.35 -12.8 -15.6 -13.15 -14.8 -14 -14.1 -14.25 -13.85 -14.2 -13.6 -14.2 -13.3 -14 -13.1 -13.8 -12.95 -13.55 -12.9 -13.25 -12.9 -13.05 -13.1 -12.2 -13.8 -11.7 -14.7
L -10.4 -13.25
Q -10.25 -13.05 -9.95 -13 -9.7 -13 -9.45 -13.2 -9.2 -13.4 -9.2 -13.7 -9.2 -13.95 -9.35 -14.2
L -11.15 -16
Q -10.95 -16.6 -10.95 -17.2
L -10.95 -17.75 -9.9 -17.75
Q -9.65 -17.75 -9.5 -17.9 -9.35 -18.1 -9.35 -18.35 -9.35 -18.6 -9.5 -18.8 Z"/>
</g>

<path id="icon_r_box_02_14_Layer2_0_1_STROKES" stroke="#000000" stroke-width="1" stroke-linejoin="round" stroke-linecap="round" fill="none" d="
M 63 48.05
L 5.5 48.05 5.5 11.5 63 11.5 63 48.05 Z"/>

<path id="icon_r_box_02_14_Layer2_1_1_STROKES" stroke="#000000" stroke-width="1" stroke-linejoin="round" stroke-linecap="round" fill="none" d="
M 52.95 48.05
L 15.5 48.05 15.5 11.5 52.95 11.5 52.95 48.05 Z"/>

<path id="icon_r_box_02_14_Layer2_2_MEMBER_0_1_STROKES" stroke="#000000" stroke-width="1" stroke-linejoin="round" stroke-linecap="round" fill="none" d="
M 0.5 48.05
L 67.95 48.05"/>

<path id="icon_r_box_02_14_Layer2_3_MEMBER_0_1_STROKES" stroke="#000000" stroke-width="1" stroke-linejoin="round" stroke-linecap="round" fill="none" d="
M 59.85 19.15
Q 59.85 19.95 59.3 20.5 58.75 21.1 57.95 21.1 57.15 21.1 56.55 20.5 56 19.95 56 19.15 56 18.35 56.55 17.8 57.15 17.2 57.95 17.2 58.75 17.2 59.3 17.8 59.85 18.35 59.85 19.15 Z"/>

<path id="icon_r_box_02_14_Layer2_3_MEMBER_1_1_STROKES" stroke="#000000" stroke-width="1" stroke-linejoin="round" stroke-linecap="round" fill="none" d="
M 59.85 26.45
Q 59.85 27.25 59.3 27.8 58.75 28.35 57.95 28.35 57.15 28.35 56.55 27.8 56 27.25 56 26.45 56 25.65 56.55 25.05 57.15 24.5 57.95 24.5 58.75 24.5 59.3 25.05 59.85 25.65 59.85 26.45 Z"/>

<path id="icon_r_box_02_14_Layer2_3_MEMBER_2_MEMBER_0_1_STROKES" stroke="#000000" stroke-width="1" stroke-linejoin="round" stroke-linecap="round" fill="none" d="
M 56.6 33.15
L 56.6 34.7"/>

<path id="icon_r_box_02_14_Layer2_3_MEMBER_2_MEMBER_1_1_STROKES" stroke="#000000" stroke-width="1" stroke-linejoin="round" stroke-linecap="round" fill="none" d="
M 56.6 37.4
L 56.6 38.95"/>

<path id="icon_r_box_02_14_Layer2_3_MEMBER_2_MEMBER_2_1_STROKES" stroke="#000000" stroke-width="1" stroke-linejoin="round" stroke-linecap="round" fill="none" d="
M 56.6 41.65
L 56.6 43.2"/>

<path id="icon_r_box_02_14_Layer2_3_MEMBER_2_MEMBER_3_1_STROKES" stroke="#000000" stroke-width="1" stroke-linejoin="round" stroke-linecap="round" fill="none" d="
M 59.25 33.15
L 59.25 34.7"/>

<path id="icon_r_box_02_14_Layer2_3_MEMBER_2_MEMBER_4_1_STROKES" stroke="#000000" stroke-width="1" stroke-linejoin="round" stroke-linecap="round" fill="none" d="
M 59.25 37.4
L 59.25 38.95"/>

<path id="icon_r_box_02_14_Layer2_3_MEMBER_2_MEMBER_5_1_STROKES" stroke="#000000" stroke-width="1" stroke-linejoin="round" stroke-linecap="round" fill="none" d="
M 59.25 41.65
L 59.25 43.2"/>

<path id="icon_r_box_02_14_Layer2_4_MEMBER_0_1_STROKES" stroke="#000000" stroke-width="1" stroke-linejoin="round" stroke-linecap="round" fill="none" d="
M 8.6 19.15
Q 8.6 19.95 9.15 20.5 9.75 21.1 10.55 21.1 11.35 21.1 11.9 20.5 12.45 19.95 12.45 19.15 12.45 18.35 11.9 17.8 11.35 17.2 10.55 17.2 9.75 17.2 9.15 17.8 8.6 18.35 8.6 19.15 Z"/>

<path id="icon_r_box_02_14_Layer2_4_MEMBER_1_1_STROKES" stroke="#000000" stroke-width="1" stroke-linejoin="round" stroke-linecap="round" fill="none" d="
M 8.6 26.45
Q 8.6 27.25 9.15 27.8 9.75 28.35 10.55 28.35 11.35 28.35 11.9 27.8 12.45 27.25 12.45 26.45 12.45 25.65 11.9 25.05 11.35 24.5 10.55 24.5 9.75 24.5 9.15 25.05 8.6 25.65 8.6 26.45 Z"/>

<path id="icon_r_box_02_14_Layer2_4_MEMBER_2_MEMBER_0_1_STROKES" stroke="#000000" stroke-width="1" stroke-linejoin="round" stroke-linecap="round" fill="none" d="
M 11.85 33.15
L 11.85 34.7"/>

<path id="icon_r_box_02_14_Layer2_4_MEMBER_2_MEMBER_1_1_STROKES" stroke="#000000" stroke-width="1" stroke-linejoin="round" stroke-linecap="round" fill="none" d="
M 11.85 37.4
L 11.85 38.95"/>

<path id="icon_r_box_02_14_Layer2_4_MEMBER_2_MEMBER_2_1_STROKES" stroke="#000000" stroke-width="1" stroke-linejoin="round" stroke-linecap="round" fill="none" d="
M 11.85 41.65
L 11.85 43.2"/>

<path id="icon_r_box_02_14_Layer2_4_MEMBER_2_MEMBER_3_1_STROKES" stroke="#000000" stroke-width="1" stroke-linejoin="round" stroke-linecap="round" fill="none" d="
M 9.2 33.15
L 9.2 34.7"/>

<path id="icon_r_box_02_14_Layer2_4_MEMBER_2_MEMBER_4_1_STROKES" stroke="#000000" stroke-width="1" stroke-linejoin="round" stroke-linecap="round" fill="none" d="
M 9.2 37.4
L 9.2 38.95"/>

<path id="icon_r_box_02_14_Layer2_4_MEMBER_2_MEMBER_5_1_STROKES" stroke="#000000" stroke-width="1" stroke-linejoin="round" stroke-linecap="round" fill="none" d="
M 9.2 41.65
L 9.2 43.2"/>

<path id="icon_r_box_02_14_Layer2_5_1_STROKES" stroke="#000000" stroke-width="1" stroke-linejoin="round" stroke-linecap="round" fill="none" d="
M 43.95 38.45
L 23.8 38.45 23.8 33.2 43.95 33.2 43.95 38.45 Z"/>

<path id="icon_r_box_02_14_Layer2_6_1_STROKES" stroke="#000000" stroke-width="1" stroke-linejoin="round" stroke-linecap="round" fill="none" d="
M 42.3 38.45
L 25.5 38.45 25.5 48.05 42.3 48.05 42.3 38.45 Z"/>

<path id="icon_r_box_02_14_Layer2_7_MEMBER_1_1_STROKES" stroke="#000000" stroke-width="1" stroke-linejoin="round" stroke-linecap="butt" fill="none" d="
M 39.6 38.45
L 28.15 38.45 28.15 48.05 39.6 48.05 39.6 38.45 Z"/>

<path id="icon_r_box_02_14_Layer2_8_1_STROKES" stroke="#000000" stroke-width="1" stroke-linejoin="round" stroke-linecap="butt" fill="none" d="
M 33.9 38.45
L 33.9 48.05"/>

<path id="icon_r_box_02_14_Layer2_9_MEMBER_1_1_STROKES" stroke="#000000" stroke-width="1" stroke-linejoin="round" stroke-linecap="butt" fill="none" d="
M 39.6 38.45
L 28.15 38.45 28.15 40 39.6 40 39.6 38.45 Z"/>

<path id="icon_r_box_02_14_Layer2_10_1_STROKES" stroke="#000000" stroke-width="1" stroke-linejoin="round" stroke-linecap="round" fill="none" d="
M 63 6.35
Q 60.35 5.35 55.4 4.3 45.55 2.25 34.25 2.25 22.95 2.25 13.1 4.3 8.15 5.35 5.5 6.35
L 5.5 11.5 63 11.5 63 6.35 Z"/>

<path id="icon_r_box_02_14_Layer2_11_1_STROKES" stroke="#C3BEB6" stroke-width="1" stroke-linejoin="round" stroke-linecap="round" fill="none" d="
M 5.5 10
L 63 10"/>

<path id="icon_r_box_02_14_Layer2_12_1_STROKES" stroke="#C3BEB6" stroke-width="1" stroke-linejoin="round" stroke-linecap="round" fill="none" d="
M 6.75 7.85
L 61 7.85"/>

<path id="icon_r_box_02_14_Layer2_13_1_STROKES" stroke="#C3BEB6" stroke-width="1" stroke-linejoin="round" stroke-linecap="round" fill="none" d="
M 11.1 5.7
L 55.95 5.7"/>

<path id="icon_r_box_02_14_Layer2_14_MEMBER_0_1_STROKES" stroke="#000000" stroke-width="1" stroke-linejoin="round" stroke-linecap="round" fill="none" d="
M 15.95 4.65
L 13.7 4.65 13.7 11.5 15.95 11.5 15.95 4.65 Z"/>

<path id="icon_r_box_02_14_Layer2_14_MEMBER_1_1_STROKES" stroke="#000000" stroke-width="1" stroke-linejoin="round" stroke-linecap="round" fill="none" d="
M 25.5 2.8
L 23.2 2.8 23.2 11.5 25.5 11.5 25.5 2.8 Z"/>

<path id="icon_r_box_02_14_Layer2_14_MEMBER_2_1_STROKES" stroke="#000000" stroke-width="1" stroke-linejoin="round" stroke-linecap="round" fill="none" d="
M 35 2.25
L 32.75 2.25 32.75 11.5 35 11.5 35 2.25 Z"/>

<path id="icon_r_box_02_14_Layer2_14_MEMBER_3_1_STROKES" stroke="#000000" stroke-width="1" stroke-linejoin="round" stroke-linecap="round" fill="none" d="
M 44.55 2.8
L 42.25 2.8 42.25 11.5 44.55 11.5 44.55 2.8 Z"/>

<path id="icon_r_box_02_14_Layer2_14_MEMBER_4_1_STROKES" stroke="#000000" stroke-width="1" stroke-linejoin="round" stroke-linecap="round" fill="none" d="
M 54.1 4.65
L 51.8 4.65 51.8 11.5 54.1 11.5 54.1 4.65 Z"/>

<path id="icon_r_box_02_14_Layer2_15_1_STROKES" stroke="#000000" stroke-width="1" stroke-linejoin="round" stroke-linecap="round" fill="none" d="
M 63 6.35
Q 60.35 5.35 55.4 4.3 45.55 2.25 34.25 2.25 22.95 2.25 13.1 4.3 8.15 5.35 5.5 6.35
L 5.5 11.5 63 11.5 63 6.35 Z"/>

<path id="icon_r_box_02_14_Layer2_16_MEMBER_0_1_STROKES" stroke="#000000" stroke-width="1" stroke-linejoin="round" stroke-linecap="round" fill="none" d="
M 65.55 10.4
L 63.95 9.65
Q 58.5 6.95 50.65 5.5 42.75 4 33.9 4 25 4 17.15 5.5 9.25 6.95 3.8 9.65
L 2.25 10.4 0.7 7.3 2.25 6.55
Q 8.1 3.65 16.35 2.1 24.65 0.5 33.9 0.5 43.15 0.5 51.4 2.1 59.7 3.65 65.5 6.55
L 67.05 7.3 65.55 10.4 Z"/>
</defs>

<g transform="matrix( 1, 0, 0, 0.999603271484375, 65,60) ">
<g transform="matrix( 1, 0, 0, 1, 0,0) ">
<use xlink:href="#icon_r_box_02_14_Layer3_0_FILL"/>
</g>

<g transform="matrix( 1, 0, 0, 1, -0.05,0.05) ">
<use xlink:href="#icon_r_box_02_14_Layer3_1_FILL"/>
</g>

<g transform="matrix( 1, 0, 0, 1, 0,-2.15) ">
<use xlink:href="#icon_r_box_02_14_Layer3_2_FILL"/>
</g>

<g transform="matrix( 1, 0, 0, 1, 0,0.05) ">
<use xlink:href="#icon_r_box_02_14_Layer3_3_FILL"/>
</g>

<g transform="matrix( 1, 0, 0, 1, -34.25,-37.8) ">
<use xlink:href="#icon_r_box_02_14_Layer2_0_FILL"/>

<use xlink:href="#icon_r_box_02_14_Layer2_0_1_STROKES"/>
</g>

<g transform="matrix( 1, 0, 0, 1, -34.25,-37.8) ">
<use xlink:href="#icon_r_box_02_14_Layer2_1_FILL"/>

<use xlink:href="#icon_r_box_02_14_Layer2_1_1_STROKES"/>
</g>

<g transform="matrix( 1, 0, 0, 1, -34.25,-37.8) ">
<use xlink:href="#icon_r_box_02_14_Layer2_2_MEMBER_0_1_STROKES"/>
</g>

<g transform="matrix( 1, 0, 0, 1, -34.25,-37.8) ">
<use xlink:href="#icon_r_box_02_14_Layer2_3_MEMBER_0_FILL"/>

<use xlink:href="#icon_r_box_02_14_Layer2_3_MEMBER_0_1_STROKES"/>
</g>

<g transform="matrix( 1, 0, 0, 1, -34.25,-37.8) ">
<use xlink:href="#icon_r_box_02_14_Layer2_3_MEMBER_1_FILL"/>

<use xlink:href="#icon_r_box_02_14_Layer2_3_MEMBER_1_1_STROKES"/>
</g>

<g transform="matrix( 1, 0, 0, 1, -34.25,-37.8) ">
<use xlink:href="#icon_r_box_02_14_Layer2_3_MEMBER_2_MEMBER_0_1_STROKES"/>
</g>

<g transform="matrix( 1, 0, 0, 1, -34.25,-37.8) ">
<use xlink:href="#icon_r_box_02_14_Layer2_3_MEMBER_2_MEMBER_1_1_STROKES"/>
</g>

<g transform="matrix( 1, 0, 0, 1, -34.25,-37.8) ">
<use xlink:href="#icon_r_box_02_14_Layer2_3_MEMBER_2_MEMBER_2_1_STROKES"/>
</g>

<g transform="matrix( 1, 0, 0, 1, -34.25,-37.8) ">
<use xlink:href="#icon_r_box_02_14_Layer2_3_MEMBER_2_MEMBER_3_1_STROKES"/>
</g>

<g transform="matrix( 1, 0, 0, 1, -34.25,-37.8) ">
<use xlink:href="#icon_r_box_02_14_Layer2_3_MEMBER_2_MEMBER_4_1_STROKES"/>
</g>

<g transform="matrix( 1, 0, 0, 1, -34.25,-37.8) ">
<use xlink:href="#icon_r_box_02_14_Layer2_3_MEMBER_2_MEMBER_5_1_STROKES"/>
</g>

<g transform="matrix( 1, 0, 0, 1, -34.25,-37.8) ">
<use xlink:href="#icon_r_box_02_14_Layer2_4_MEMBER_0_FILL"/>

<use xlink:href="#icon_r_box_02_14_Layer2_4_MEMBER_0_1_STROKES"/>
</g>

<g transform="matrix( 1, 0, 0, 1, -34.25,-37.8) ">
<use xlink:href="#icon_r_box_02_14_Layer2_4_MEMBER_1_FILL"/>

<use xlink:href="#icon_r_box_02_14_Layer2_4_MEMBER_1_1_STROKES"/>
</g>

<g transform="matrix( 1, 0, 0, 1, -34.25,-37.8) ">
<use xlink:href="#icon_r_box_02_14_Layer2_4_MEMBER_2_MEMBER_0_1_STROKES"/>
</g>

<g transform="matrix( 1, 0, 0, 1, -34.25,-37.8) ">
<use xlink:href="#icon_r_box_02_14_Layer2_4_MEMBER_2_MEMBER_1_1_STROKES"/>
</g>

<g transform="matrix( 1, 0, 0, 1, -34.25,-37.8) ">
<use xlink:href="#icon_r_box_02_14_Layer2_4_MEMBER_2_MEMBER_2_1_STROKES"/>
</g>

<g transform="matrix( 1, 0, 0, 1, -34.25,-37.8) ">
<use xlink:href="#icon_r_box_02_14_Layer2_4_MEMBER_2_MEMBER_3_1_STROKES"/>
</g>

<g transform="matrix( 1, 0, 0, 1, -34.25,-37.8) ">
<use xlink:href="#icon_r_box_02_14_Layer2_4_MEMBER_2_MEMBER_4_1_STROKES"/>
</g>

<g transform="matrix( 1, 0, 0, 1, -34.25,-37.8) ">
<use xlink:href="#icon_r_box_02_14_Layer2_4_MEMBER_2_MEMBER_5_1_STROKES"/>
</g>

<g transform="matrix( 1, 0, 0, 1, -34.25,-37.8) ">
<use xlink:href="#icon_r_box_02_14_Layer2_5_FILL"/>

<use xlink:href="#icon_r_box_02_14_Layer2_5_1_STROKES"/>
</g>

<g transform="matrix( 1, 0, 0, 1, -34.25,-37.8) ">
<use xlink:href="#icon_r_box_02_14_Layer2_6_FILL"/>

<use xlink:href="#icon_r_box_02_14_Layer2_6_1_STROKES"/>
</g>

<g transform="matrix( 1, 0, 0, 1, -34.25,-37.8) ">
<use xlink:href="#icon_r_box_02_14_Layer2_7_MEMBER_0_FILL"/>
</g>

<g transform="matrix( 1, 0, 0, 1, -34.25,-37.8) ">
<use xlink:href="#icon_r_box_02_14_Layer2_7_MEMBER_1_1_STROKES"/>
</g>

<g transform="matrix( 1, 0, 0, 1, -34.25,-37.8) ">
<use xlink:href="#icon_r_box_02_14_Layer2_8_1_STROKES"/>
</g>

<g transform="matrix( 1, 0, 0, 1, -34.25,-37.8) ">
<use xlink:href="#icon_r_box_02_14_Layer2_9_MEMBER_0_FILL"/>
</g>

<g transform="matrix( 1, 0, 0, 1, -34.25,-37.8) ">
<use xlink:href="#icon_r_box_02_14_Layer2_9_MEMBER_1_1_STROKES"/>
</g>

<g transform="matrix( 1, 0, 0, 1, -34.25,-37.8) ">
<use xlink:href="#icon_r_box_02_14_Layer2_10_FILL"/>

<use xlink:href="#icon_r_box_02_14_Layer2_10_1_STROKES"/>
</g>

<g transform="matrix( 1, 0, 0, 1, -34.25,-37.8) ">
<use xlink:href="#icon_r_box_02_14_Layer2_11_1_STROKES"/>
</g>

<g transform="matrix( 1, 0, 0, 1, -34.25,-37.8) ">
<use xlink:href="#icon_r_box_02_14_Layer2_12_1_STROKES"/>
</g>

<g transform="matrix( 1, 0, 0, 1, -34.25,-37.8) ">
<use xlink:href="#icon_r_box_02_14_Layer2_13_1_STROKES"/>
</g>

<g transform="matrix( 1, 0, 0, 1, -34.25,-37.8) ">
<use xlink:href="#icon_r_box_02_14_Layer2_14_MEMBER_0_FILL"/>

<use xlink:href="#icon_r_box_02_14_Layer2_14_MEMBER_0_1_STROKES"/>
</g>

<g transform="matrix( 1, 0, 0, 1, -34.25,-37.8) ">
<use xlink:href="#icon_r_box_02_14_Layer2_14_MEMBER_1_FILL"/>

<use xlink:href="#icon_r_box_02_14_Layer2_14_MEMBER_1_1_STROKES"/>
</g>

<g transform="matrix( 1, 0, 0, 1, -34.25,-37.8) ">
<use xlink:href="#icon_r_box_02_14_Layer2_14_MEMBER_2_FILL"/>

<use xlink:href="#icon_r_box_02_14_Layer2_14_MEMBER_2_1_STROKES"/>
</g>

<g transform="matrix( 1, 0, 0, 1, -34.25,-37.8) ">
<use xlink:href="#icon_r_box_02_14_Layer2_14_MEMBER_3_FILL"/>

<use xlink:href="#icon_r_box_02_14_Layer2_14_MEMBER_3_1_STROKES"/>
</g>

<g transform="matrix( 1, 0, 0, 1, -34.25,-37.8) ">
<use xlink:href="#icon_r_box_02_14_Layer2_14_MEMBER_4_FILL"/>

<use xlink:href="#icon_r_box_02_14_Layer2_14_MEMBER_4_1_STROKES"/>
</g>

<g transform="matrix( 1, 0, 0, 1, -34.25,-37.8) ">
<use xlink:href="#icon_r_box_02_14_Layer2_15_1_STROKES"/>
</g>

<g transform="matrix( 1, 0, 0, 1, -34.25,-37.8) ">
<use xlink:href="#icon_r_box_02_14_Layer2_16_MEMBER_0_FILL"/>

<use xlink:href="#icon_r_box_02_14_Layer2_16_MEMBER_0_1_STROKES"/>
</g>

<g transform="matrix( 1, 0, 0, 1, 0,0) ">
<use xlink:href="#icon_r_box_02_14_Layer1_0_FILL"/>
</g>
</g>
</svg>
