
<svg xmlns="http://www.w3.org/2000/svg" version="1.1" xmlns:xlink="http://www.w3.org/1999/xlink" preserveAspectRatio="none" x="0px" y="0px" width="130px" height="115px" viewBox="0 0 130 115">
<defs>
<g id="icon_r_box_02_20_Layer3_0_FILL">
<path fill="#FFFFFF" fill-opacity="0" stroke="none" d="
M 65 -55
L -65 -55 -65 25 65 25 65 -55 Z"/>
</g>

<g id="icon_r_box_02_20_Layer3_1_FILL">
<path fill="#FFFFFF" fill-opacity="0" stroke="none" d="
M 65.05 49.95
L 65.05 24.95 -64.95 24.95 -64.95 49.95 65.05 49.95 Z"/>
</g>

<g id="icon_r_box_02_20_Layer3_2_FILL">
<path fill="#FFFFFF" fill-opacity="0" stroke="none" d="
M 65 -52.85
L 65 -57.85 -65 -57.85 -65 -52.85 65 -52.85 Z"/>
</g>

<g id="icon_r_box_02_20_Layer3_3_FILL">
<path fill="#FFFFFF" fill-opacity="0" stroke="none" d="
M 65 54.95
L 65 49.95 -65 49.95 -65 54.95 65 54.95 Z"/>
</g>

<g id="icon_r_box_02_20_Layer2_0_MEMBER_0_MEMBER_0_FILL">
<path fill="#CA7758" stroke="none" d="
M 73.7 40.3
L 73.7 28.9 20.35 28.9 20.35 40.3 73.7 40.3 Z"/>
</g>

<g id="icon_r_box_02_20_Layer2_0_MEMBER_0_MEMBER_1_FILL">
<path fill="#66A17E" stroke="none" d="
M 73.7 28.9
L 73.7 24.75 20.35 24.75 20.35 28.9 73.7 28.9 Z"/>
</g>

<g id="icon_r_box_02_20_Layer2_0_MEMBER_0_MEMBER_3_MEMBER_0_FILL">
<path fill="#B65C40" stroke="none" d="
M 21.55 40.3
L 21.55 23.7 19.2 23.7 19.2 40.3 21.55 40.3 Z"/>
</g>

<g id="icon_r_box_02_20_Layer2_0_MEMBER_0_MEMBER_3_MEMBER_1_FILL">
<path fill="#B65C40" stroke="none" d="
M 74.85 40.3
L 74.85 23.7 72.5 23.7 72.5 40.3 74.85 40.3 Z"/>
</g>

<g id="icon_r_box_02_20_Layer2_0_MEMBER_0_MEMBER_4_FILL">
<path fill="#184558" stroke="none" d="
M 80.1 12.4
L 47.05 6.65 13.95 12.4
Q 17.2 15.35 24.25 17.15 33.2 19.4 47.05 19.4 60.9 19.4 69.8 17.15 76.85 15.35 80.1 12.4 Z"/>
</g>

<g id="icon_r_box_02_20_Layer2_0_MEMBER_0_MEMBER_5_FILL">
<path fill="#CA7758" stroke="none" d="
M 69.55 23.6
L 69.55 12.4 24.5 12.4 24.5 23.6 69.55 23.6 Z"/>
</g>

<g id="icon_r_box_02_20_Layer2_0_MEMBER_0_MEMBER_6_FILL">
<path fill="#66A17E" stroke="none" d="
M 69.55 16.75
L 69.55 12.4 24.5 12.4 24.5 16.75 69.55 16.75 Z"/>
</g>

<g id="icon_r_box_02_20_Layer2_0_MEMBER_0_MEMBER_7_FILL">
<path fill="#3E4144" stroke="none" d="
M 54.25 18.25
L 54.25 13.75 39.8 13.75 39.8 18.25 54.25 18.25 Z"/>
</g>

<g id="icon_r_box_02_20_Layer2_0_MEMBER_0_MEMBER_8_FILL">
<path fill="#B65C40" stroke="none" d="
M 26.6 23.6
L 26.6 12.35 24.5 12.35 24.5 23.6 26.6 23.6 Z"/>
</g>

<g id="icon_r_box_02_20_Layer2_0_MEMBER_0_MEMBER_9_FILL">
<path fill="#B65C40" stroke="none" d="
M 69.55 23.6
L 69.55 12.35 67.45 12.35 67.45 23.6 69.55 23.6 Z"/>
</g>

<g id="icon_r_box_02_20_Layer2_0_MEMBER_0_MEMBER_10_MEMBER_0_FILL">
<path fill="#336290" stroke="none" d="
M 31.35 4.1
L 31.35 1.7
Q 31.35 1.2 31 0.85 30.7 0.5 30.2 0.5 29.7 0.5 29.4 0.85 29.05 1.2 29.05 1.7
L 29.05 4.1 31.35 4.1 Z"/>
</g>

<g id="icon_r_box_02_20_Layer2_0_MEMBER_0_MEMBER_10_MEMBER_1_FILL">
<path fill="#336290" stroke="none" d="
M 65 4.1
L 65 1.7
Q 65 1.2 64.65 0.85 64.35 0.5 63.85 0.5 63.35 0.5 63.05 0.85 62.7 1.2 62.7 1.7
L 62.7 4.1 65 4.1 Z"/>
</g>

<g id="icon_r_box_02_20_Layer2_0_MEMBER_0_MEMBER_11_MEMBER_0_FILL">
<path fill="#B65C40" stroke="none" d="
M 35.8 23.6
L 35.8 12.35 33.7 12.35 33.7 23.6 35.8 23.6 Z"/>
</g>

<g id="icon_r_box_02_20_Layer2_0_MEMBER_0_MEMBER_11_MEMBER_1_FILL">
<path fill="#B65C40" stroke="none" d="
M 60.35 23.6
L 60.35 12.35 58.25 12.35 58.25 23.6 60.35 23.6 Z"/>
</g>

<g id="icon_r_box_02_20_Layer2_0_MEMBER_0_MEMBER_12_MEMBER_0_FILL">
<path fill="#336290" stroke="none" d="
M 80.1 12.4
L 68.85 8.05 65 2.5 29.05 2.5 25.2 8.05 13.95 12.4
Q 23.3 14.85 47.05 14.85 70.75 14.85 80.1 12.4 Z"/>
</g>

<g id="icon_r_box_02_20_Layer2_0_MEMBER_0_MEMBER_12_MEMBER_1_FILL">
<path fill="#FFFFFF" stroke="none" d="
M 80.1 12.4
L 68.85 8.05 65 2.5 29.05 2.5 25.2 8.05 13.95 12.4
Q 15.75 12.95 18 13.3
L 27.05 9.45 30.6 4.3 63.45 4.3 67 9.45 76.05 13.3
Q 78.3 12.95 80.1 12.4 Z"/>
</g>

<g id="icon_r_box_02_20_Layer2_0_MEMBER_0_MEMBER_13_MEMBER_0_FILL">
<path fill="#B65C40" stroke="none" d="
M 36.4 40.3
L 36.4 23.7 34.05 23.7 34.05 40.3 36.4 40.3 Z"/>
</g>

<g id="icon_r_box_02_20_Layer2_0_MEMBER_0_MEMBER_13_MEMBER_1_FILL">
<path fill="#B65C40" stroke="none" d="
M 60 40.3
L 60 23.7 57.65 23.7 57.65 40.3 60 40.3 Z"/>
</g>

<g id="icon_r_box_02_20_Layer2_0_MEMBER_0_MEMBER_14_MEMBER_0_FILL">
<path fill="#336290" stroke="none" d="
M 24.55 20.25
L 12 24.6
Q 21.75 27 47.05 27 72.35 27 82.05 24.6
L 69.5 20.25 24.55 20.25 Z"/>
</g>

<g id="icon_r_box_02_20_Layer2_0_MEMBER_0_MEMBER_14_MEMBER_1_FILL">
<path fill="#FFFFFF" stroke="none" d="
M 69.5 22.3
L 78.25 25.35
Q 79.35 25.2 82.05 24.6
L 69.5 20.25 24.55 20.25 12 24.6
Q 14.7 25.2 15.8 25.35
L 24.55 22.3 69.5 22.3 Z"/>
</g>

<g id="icon_r_box_02_20_Layer2_0_MEMBER_0_MEMBER_15_MEMBER_0_FILL">
<path fill="#66A17E" stroke="none" d="
M 32.2 40.3
L 32.2 30.9 23.2 30.9 23.2 40.3 32.2 40.3 Z"/>
</g>

<g id="icon_r_box_02_20_Layer2_0_MEMBER_0_MEMBER_15_MEMBER_2_FILL">
<path fill="#92C8A7" stroke="none" d="
M 26.55 36.85
L 26.55 32 24.25 32 24.25 36.85 26.55 36.85 Z"/>
</g>

<g id="icon_r_box_02_20_Layer2_0_MEMBER_0_MEMBER_15_MEMBER_3_FILL">
<path fill="#92C8A7" stroke="none" d="
M 31.15 36.85
L 31.15 32 28.85 32 28.85 36.85 31.15 36.85 Z"/>
</g>

<g id="icon_r_box_02_20_Layer2_0_MEMBER_0_MEMBER_16_MEMBER_0_FILL">
<path fill="#66A17E" stroke="none" d="
M 61.85 30.9
L 61.85 40.3 70.85 40.3 70.85 30.9 61.85 30.9 Z"/>
</g>

<g id="icon_r_box_02_20_Layer2_0_MEMBER_0_MEMBER_16_MEMBER_2_FILL">
<path fill="#92C8A7" stroke="none" d="
M 67.5 32
L 67.5 36.85 69.8 36.85 69.8 32 67.5 32 Z"/>
</g>

<g id="icon_r_box_02_20_Layer2_0_MEMBER_0_MEMBER_16_MEMBER_3_FILL">
<path fill="#92C8A7" stroke="none" d="
M 62.9 32
L 62.9 36.85 65.2 36.85 65.2 32 62.9 32 Z"/>
</g>

<g id="icon_r_box_02_20_Layer2_0_MEMBER_0_MEMBER_17_MEMBER_0_MEMBER_0_FILL">
<path fill="#FFFFFF" stroke="none" d="
M 42.55 40.3
L 42.55 30.9 38.05 30.9 38.05 40.3 42.55 40.3 Z"/>
</g>

<g id="icon_r_box_02_20_Layer2_0_MEMBER_0_MEMBER_17_MEMBER_0_MEMBER_1_FILL">
<path fill="#E2E9E2" stroke="none" d="
M 41.4 36.85
L 41.4 32 39.1 32 39.1 36.85 41.4 36.85 Z"/>
</g>

<g id="icon_r_box_02_20_Layer2_0_MEMBER_0_MEMBER_17_MEMBER_1_MEMBER_0_FILL">
<path fill="#3E4144" stroke="none" d="
M 51.5 30.9
L 42.55 30.9 42.55 40.3 51.5 40.3 51.5 30.9 Z"/>
</g>

<g id="icon_r_box_02_20_Layer2_0_MEMBER_0_MEMBER_17_MEMBER_2_MEMBER_0_FILL">
<path fill="#FFFFFF" stroke="none" d="
M 56 40.3
L 56 30.9 51.5 30.9 51.5 40.3 56 40.3 Z"/>
</g>

<g id="icon_r_box_02_20_Layer2_0_MEMBER_0_MEMBER_17_MEMBER_2_MEMBER_1_FILL">
<path fill="#E2E9E2" stroke="none" d="
M 54.9 36.85
L 54.9 32 52.6 32 52.6 36.85 54.9 36.85 Z"/>
</g>

<g id="icon_r_box_02_20_Layer2_0_MEMBER_0_MEMBER_18_MEMBER_0_FILL">
<path fill="#D4D3D5" stroke="none" d="
M 83.05 43.3
L 83.05 40.3 11 40.3 11 43.3 83.05 43.3 Z"/>
</g>

<g id="icon_r_box_02_20_Layer2_0_MEMBER_0_MEMBER_19_MEMBER_0_FILL">
<path fill="#D4D3D5" stroke="none" d="
M 85.9 46.3
L 85.9 43.3 8.15 43.3 8.15 46.3 85.9 46.3 Z"/>
</g>

<g id="icon_r_box_02_20_Layer2_0_MEMBER_0_MEMBER_20_MEMBER_0_FILL">
<path fill="#D4D3D5" stroke="none" d="
M 88.55 49.3
L 88.55 46.3 5.5 46.3 5.5 49.3 88.55 49.3 Z"/>
</g>

<g id="icon_r_box_02_20_Layer2_0_MEMBER_0_MEMBER_22_FILL">
<path fill="#D4D3D5" stroke="none" d="
M 62.8 49.3
L 56 40.3 38.05 40.3 31.25 49.3 62.8 49.3 Z"/>
</g>

<g id="icon_r_box_02_20_Layer2_0_MEMBER_0_MEMBER_23_FILL">
<path fill="#A7A4A9" stroke="none" d="
M 57.35 49.3
L 52.9 40.3 41.15 40.3 36.7 49.3 57.35 49.3 Z"/>
</g>

<path id="icon_r_box_02_20_Layer2_0_MEMBER_0_MEMBER_0_1_STROKES" stroke="#000000" stroke-width="1" stroke-linejoin="round" stroke-linecap="round" fill="none" d="
M 73.7 28.9
L 20.35 28.9 20.35 40.3 73.7 40.3 73.7 28.9 Z"/>

<path id="icon_r_box_02_20_Layer2_0_MEMBER_0_MEMBER_1_1_STROKES" stroke="#000000" stroke-width="1" stroke-linejoin="round" stroke-linecap="round" fill="none" d="
M 73.7 28.9
L 20.35 28.9 20.35 24.75 73.7 24.75 73.7 28.9 Z"/>

<path id="icon_r_box_02_20_Layer2_0_MEMBER_0_MEMBER_2_MEMBER_0_1_STROKES" stroke="#000000" stroke-width="1" stroke-linejoin="round" stroke-linecap="round" fill="none" d="
M 25.4 25.2
L 25.4 28.9"/>

<path id="icon_r_box_02_20_Layer2_0_MEMBER_0_MEMBER_2_MEMBER_1_1_STROKES" stroke="#000000" stroke-width="1" stroke-linejoin="round" stroke-linecap="round" fill="none" d="
M 29 25.2
L 29 28.9"/>

<path id="icon_r_box_02_20_Layer2_0_MEMBER_0_MEMBER_2_MEMBER_2_1_STROKES" stroke="#000000" stroke-width="1" stroke-linejoin="round" stroke-linecap="round" fill="none" d="
M 32.6 25.2
L 32.6 28.9"/>

<path id="icon_r_box_02_20_Layer2_0_MEMBER_0_MEMBER_2_MEMBER_3_1_STROKES" stroke="#000000" stroke-width="1" stroke-linejoin="round" stroke-linecap="round" fill="none" d="
M 36.2 25.2
L 36.2 28.9"/>

<path id="icon_r_box_02_20_Layer2_0_MEMBER_0_MEMBER_2_MEMBER_4_1_STROKES" stroke="#000000" stroke-width="1" stroke-linejoin="round" stroke-linecap="round" fill="none" d="
M 39.8 25.2
L 39.8 28.9"/>

<path id="icon_r_box_02_20_Layer2_0_MEMBER_0_MEMBER_2_MEMBER_5_1_STROKES" stroke="#000000" stroke-width="1" stroke-linejoin="round" stroke-linecap="round" fill="none" d="
M 43.4 25.2
L 43.4 28.9"/>

<path id="icon_r_box_02_20_Layer2_0_MEMBER_0_MEMBER_2_MEMBER_6_1_STROKES" stroke="#000000" stroke-width="1" stroke-linejoin="round" stroke-linecap="round" fill="none" d="
M 47 25.2
L 47 28.9"/>

<path id="icon_r_box_02_20_Layer2_0_MEMBER_0_MEMBER_2_MEMBER_7_1_STROKES" stroke="#000000" stroke-width="1" stroke-linejoin="round" stroke-linecap="round" fill="none" d="
M 50.65 25.2
L 50.65 28.9"/>

<path id="icon_r_box_02_20_Layer2_0_MEMBER_0_MEMBER_2_MEMBER_8_1_STROKES" stroke="#000000" stroke-width="1" stroke-linejoin="round" stroke-linecap="round" fill="none" d="
M 54.25 25.2
L 54.25 28.9"/>

<path id="icon_r_box_02_20_Layer2_0_MEMBER_0_MEMBER_2_MEMBER_9_1_STROKES" stroke="#000000" stroke-width="1" stroke-linejoin="round" stroke-linecap="round" fill="none" d="
M 57.85 25.2
L 57.85 28.9"/>

<path id="icon_r_box_02_20_Layer2_0_MEMBER_0_MEMBER_2_MEMBER_10_1_STROKES" stroke="#000000" stroke-width="1" stroke-linejoin="round" stroke-linecap="round" fill="none" d="
M 61.45 25.2
L 61.45 28.9"/>

<path id="icon_r_box_02_20_Layer2_0_MEMBER_0_MEMBER_2_MEMBER_11_1_STROKES" stroke="#000000" stroke-width="1" stroke-linejoin="round" stroke-linecap="round" fill="none" d="
M 65.05 25.2
L 65.05 28.9"/>

<path id="icon_r_box_02_20_Layer2_0_MEMBER_0_MEMBER_2_MEMBER_12_1_STROKES" stroke="#000000" stroke-width="1" stroke-linejoin="round" stroke-linecap="round" fill="none" d="
M 68.65 25.2
L 68.65 28.9"/>

<path id="icon_r_box_02_20_Layer2_0_MEMBER_0_MEMBER_3_MEMBER_0_1_STROKES" stroke="#000000" stroke-width="1" stroke-linejoin="round" stroke-linecap="round" fill="none" d="
M 21.55 23.7
L 19.2 23.7 19.2 40.3 21.55 40.3 21.55 23.7 Z"/>

<path id="icon_r_box_02_20_Layer2_0_MEMBER_0_MEMBER_3_MEMBER_1_1_STROKES" stroke="#000000" stroke-width="1" stroke-linejoin="round" stroke-linecap="round" fill="none" d="
M 74.85 23.7
L 72.5 23.7 72.5 40.3 74.85 40.3 74.85 23.7 Z"/>

<path id="icon_r_box_02_20_Layer2_0_MEMBER_0_MEMBER_4_1_STROKES" stroke="#000000" stroke-width="1" stroke-linejoin="round" stroke-linecap="butt" fill="none" d="
M 80.1 12.4
Q 76.85 15.35 69.8 17.15 60.9 19.4 47.05 19.4 33.2 19.4 24.25 17.15 17.2 15.35 13.95 12.4
L 47.05 6.65 80.1 12.4 Z"/>

<path id="icon_r_box_02_20_Layer2_0_MEMBER_0_MEMBER_5_1_STROKES" stroke="#000000" stroke-width="1" stroke-linejoin="round" stroke-linecap="round" fill="none" d="
M 69.55 23.6
L 24.5 23.6 24.5 12.4 69.55 12.4 69.55 23.6 Z"/>

<path id="icon_r_box_02_20_Layer2_0_MEMBER_0_MEMBER_6_1_STROKES" stroke="#000000" stroke-width="1" stroke-linejoin="round" stroke-linecap="round" fill="none" d="
M 69.55 16.75
L 24.5 16.75 24.5 12.4 69.55 12.4 69.55 16.75 Z"/>

<path id="icon_r_box_02_20_Layer2_0_MEMBER_0_MEMBER_7_1_STROKES" stroke="#000000" stroke-width="1" stroke-linejoin="round" stroke-linecap="round" fill="none" d="
M 54.25 18.25
L 39.8 18.25 39.8 13.75 54.25 13.75 54.25 18.25 Z"/>

<path id="icon_r_box_02_20_Layer2_0_MEMBER_0_MEMBER_8_1_STROKES" stroke="#000000" stroke-width="1" stroke-linejoin="round" stroke-linecap="round" fill="none" d="
M 26.6 12.35
L 24.5 12.35 24.5 23.6 26.6 23.6 26.6 12.35 Z"/>

<path id="icon_r_box_02_20_Layer2_0_MEMBER_0_MEMBER_9_1_STROKES" stroke="#000000" stroke-width="1" stroke-linejoin="round" stroke-linecap="round" fill="none" d="
M 69.55 12.35
L 67.45 12.35 67.45 23.6 69.55 23.6 69.55 12.35 Z"/>

<path id="icon_r_box_02_20_Layer2_0_MEMBER_0_MEMBER_10_MEMBER_0_1_STROKES" stroke="#000000" stroke-width="1" stroke-linejoin="round" stroke-linecap="butt" fill="none" d="
M 31.35 4.1
L 29.05 4.1 29.05 1.7
Q 29.05 1.2 29.4 0.85 29.7 0.5 30.2 0.5 30.7 0.5 31 0.85 31.35 1.2 31.35 1.7
L 31.35 4.1 Z"/>

<path id="icon_r_box_02_20_Layer2_0_MEMBER_0_MEMBER_10_MEMBER_1_1_STROKES" stroke="#000000" stroke-width="1" stroke-linejoin="round" stroke-linecap="butt" fill="none" d="
M 65 4.1
L 62.7 4.1 62.7 1.7
Q 62.7 1.2 63.05 0.85 63.35 0.5 63.85 0.5 64.35 0.5 64.65 0.85 65 1.2 65 1.7
L 65 4.1 Z"/>

<path id="icon_r_box_02_20_Layer2_0_MEMBER_0_MEMBER_11_MEMBER_0_1_STROKES" stroke="#000000" stroke-width="1" stroke-linejoin="round" stroke-linecap="round" fill="none" d="
M 35.8 12.35
L 33.7 12.35 33.7 23.6 35.8 23.6 35.8 12.35 Z"/>

<path id="icon_r_box_02_20_Layer2_0_MEMBER_0_MEMBER_11_MEMBER_1_1_STROKES" stroke="#000000" stroke-width="1" stroke-linejoin="round" stroke-linecap="round" fill="none" d="
M 60.35 12.35
L 58.25 12.35 58.25 23.6 60.35 23.6 60.35 12.35 Z"/>

<path id="icon_r_box_02_20_Layer2_0_MEMBER_0_MEMBER_12_MEMBER_0_1_STROKES" stroke="#000000" stroke-width="1" stroke-linejoin="round" stroke-linecap="butt" fill="none" d="
M 80.1 12.4
Q 70.75 14.85 47.05 14.85 23.3 14.85 13.95 12.4
L 25.2 8.05 29.05 2.5 65 2.5 68.85 8.05 80.1 12.4 Z"/>

<path id="icon_r_box_02_20_Layer2_0_MEMBER_0_MEMBER_12_MEMBER_2_1_STROKES" stroke="#000000" stroke-width="1" stroke-linejoin="round" stroke-linecap="butt" fill="none" d="
M 80.1 12.4
Q 70.75 14.85 47.05 14.85 23.3 14.85 13.95 12.4
L 25.2 8.05 29.05 2.5 65 2.5 68.85 8.05 80.1 12.4 Z"/>

<path id="icon_r_box_02_20_Layer2_0_MEMBER_0_MEMBER_13_MEMBER_0_1_STROKES" stroke="#000000" stroke-width="1" stroke-linejoin="round" stroke-linecap="round" fill="none" d="
M 36.4 23.7
L 34.05 23.7 34.05 40.3 36.4 40.3 36.4 23.7 Z"/>

<path id="icon_r_box_02_20_Layer2_0_MEMBER_0_MEMBER_13_MEMBER_1_1_STROKES" stroke="#000000" stroke-width="1" stroke-linejoin="round" stroke-linecap="round" fill="none" d="
M 60 23.7
L 57.65 23.7 57.65 40.3 60 40.3 60 23.7 Z"/>

<path id="icon_r_box_02_20_Layer2_0_MEMBER_0_MEMBER_14_MEMBER_0_1_STROKES" stroke="#000000" stroke-width="1" stroke-linejoin="round" stroke-linecap="butt" fill="none" d="
M 69.5 20.25
L 82.05 24.6
Q 72.35 27 47.05 27 21.75 27 12 24.6
L 24.55 20.25 69.5 20.25 Z"/>

<path id="icon_r_box_02_20_Layer2_0_MEMBER_0_MEMBER_14_MEMBER_2_1_STROKES" stroke="#000000" stroke-width="1" stroke-linejoin="round" stroke-linecap="butt" fill="none" d="
M 69.5 20.25
L 82.05 24.6
Q 72.35 27 47.05 27 21.75 27 12 24.6
L 24.55 20.25 69.5 20.25 Z"/>

<path id="icon_r_box_02_20_Layer2_0_MEMBER_0_MEMBER_15_MEMBER_0_1_STROKES" stroke="#000000" stroke-width="1" stroke-linejoin="round" stroke-linecap="round" fill="none" d="
M 32.2 40.3
L 23.2 40.3 23.2 30.9 32.2 30.9 32.2 40.3 Z"/>

<path id="icon_r_box_02_20_Layer2_0_MEMBER_0_MEMBER_15_MEMBER_1_1_STROKES" stroke="#000000" stroke-width="1" stroke-linejoin="round" stroke-linecap="round" fill="none" d="
M 27.7 30.9
L 27.7 40.3"/>

<path id="icon_r_box_02_20_Layer2_0_MEMBER_0_MEMBER_16_MEMBER_0_1_STROKES" stroke="#000000" stroke-width="1" stroke-linejoin="round" stroke-linecap="round" fill="none" d="
M 61.85 40.3
L 70.85 40.3 70.85 30.9 61.85 30.9 61.85 40.3 Z"/>

<path id="icon_r_box_02_20_Layer2_0_MEMBER_0_MEMBER_16_MEMBER_1_1_STROKES" stroke="#000000" stroke-width="1" stroke-linejoin="round" stroke-linecap="round" fill="none" d="
M 66.35 30.9
L 66.35 40.3"/>

<path id="icon_r_box_02_20_Layer2_0_MEMBER_0_MEMBER_17_MEMBER_0_MEMBER_0_1_STROKES" stroke="#000000" stroke-width="1" stroke-linejoin="round" stroke-linecap="round" fill="none" d="
M 42.55 40.3
L 38.05 40.3 38.05 30.9 42.55 30.9 42.55 40.3 Z"/>

<path id="icon_r_box_02_20_Layer2_0_MEMBER_0_MEMBER_17_MEMBER_1_MEMBER_0_1_STROKES" stroke="#000000" stroke-width="1" stroke-linejoin="round" stroke-linecap="round" fill="none" d="
M 51.5 30.9
L 51.5 40.3 42.55 40.3 42.55 30.9 51.5 30.9 Z"/>

<path id="icon_r_box_02_20_Layer2_0_MEMBER_0_MEMBER_17_MEMBER_2_MEMBER_0_1_STROKES" stroke="#000000" stroke-width="1" stroke-linejoin="round" stroke-linecap="round" fill="none" d="
M 56 40.3
L 51.5 40.3 51.5 30.9 56 30.9 56 40.3 Z"/>

<path id="icon_r_box_02_20_Layer2_0_MEMBER_0_MEMBER_18_MEMBER_0_1_STROKES" stroke="#000000" stroke-width="1" stroke-linejoin="round" stroke-linecap="round" fill="none" d="
M 83.05 43.3
L 11 43.3 11 40.3 83.05 40.3 83.05 43.3 Z"/>

<path id="icon_r_box_02_20_Layer2_0_MEMBER_0_MEMBER_19_MEMBER_0_1_STROKES" stroke="#000000" stroke-width="1" stroke-linejoin="round" stroke-linecap="round" fill="none" d="
M 85.9 46.3
L 8.15 46.3 8.15 43.3 85.9 43.3 85.9 46.3 Z"/>

<path id="icon_r_box_02_20_Layer2_0_MEMBER_0_MEMBER_20_MEMBER_0_1_STROKES" stroke="#000000" stroke-width="1" stroke-linejoin="round" stroke-linecap="round" fill="none" d="
M 88.55 49.3
L 5.5 49.3 5.5 46.3 88.55 46.3 88.55 49.3 Z"/>

<path id="icon_r_box_02_20_Layer2_0_MEMBER_0_MEMBER_21_1_STROKES" stroke="#000000" stroke-width="1" stroke-linejoin="round" stroke-linecap="round" fill="none" d="
M 0.5 49.3
L 93.55 49.3"/>

<path id="icon_r_box_02_20_Layer2_0_MEMBER_0_MEMBER_22_1_STROKES" stroke="#000000" stroke-width="1" stroke-linejoin="round" stroke-linecap="round" fill="none" d="
M 62.8 49.3
L 31.25 49.3 38.05 40.3 56 40.3 62.8 49.3 Z"/>

<path id="icon_r_box_02_20_Layer2_0_MEMBER_0_MEMBER_23_1_STROKES" stroke="#000000" stroke-width="1" stroke-linejoin="round" stroke-linecap="round" fill="none" d="
M 57.35 49.3
L 36.7 49.3 41.15 40.3 52.9 40.3 57.35 49.3 Z"/>

<path id="icon_r_box_02_20_Layer2_0_MEMBER_0_MEMBER_24_1_STROKES" stroke="#000000" stroke-width="1" stroke-linejoin="round" stroke-linecap="round" fill="none" d="
M 40.35 42
L 53.7 42"/>

<path id="icon_r_box_02_20_Layer2_0_MEMBER_0_MEMBER_25_1_STROKES" stroke="#000000" stroke-width="1" stroke-linejoin="round" stroke-linecap="round" fill="none" d="
M 39.4 43.85
L 54.65 43.85"/>

<path id="icon_r_box_02_20_Layer2_0_MEMBER_0_MEMBER_26_1_STROKES" stroke="#000000" stroke-width="1" stroke-linejoin="round" stroke-linecap="round" fill="none" d="
M 38.55 45.7
L 55.5 45.7"/>

<path id="icon_r_box_02_20_Layer2_0_MEMBER_0_MEMBER_27_1_STROKES" stroke="#000000" stroke-width="1" stroke-linejoin="round" stroke-linecap="round" fill="none" d="
M 37.6 47.6
L 56.45 47.6"/>
</defs>

<g transform="matrix( 1, 0, 0, 0.999603271484375, 65,60) ">
<g transform="matrix( 1, 0, 0, 1, 0,0) ">
<use xlink:href="#icon_r_box_02_20_Layer3_0_FILL"/>
</g>

<g transform="matrix( 1, 0, 0, 1, -0.05,0.05) ">
<use xlink:href="#icon_r_box_02_20_Layer3_1_FILL"/>
</g>

<g transform="matrix( 1, 0, 0, 1, 0,-2.15) ">
<use xlink:href="#icon_r_box_02_20_Layer3_2_FILL"/>
</g>

<g transform="matrix( 1, 0, 0, 1, 0,0.05) ">
<use xlink:href="#icon_r_box_02_20_Layer3_3_FILL"/>
</g>

<g transform="matrix( 1, 0, 0, 1, -46.5,-34.1) ">
<use xlink:href="#icon_r_box_02_20_Layer2_0_MEMBER_0_MEMBER_0_FILL"/>

<use xlink:href="#icon_r_box_02_20_Layer2_0_MEMBER_0_MEMBER_0_1_STROKES"/>
</g>

<g transform="matrix( 1, 0, 0, 1, -46.5,-34.1) ">
<use xlink:href="#icon_r_box_02_20_Layer2_0_MEMBER_0_MEMBER_1_FILL"/>

<use xlink:href="#icon_r_box_02_20_Layer2_0_MEMBER_0_MEMBER_1_1_STROKES"/>
</g>

<g transform="matrix( 1, 0, 0, 1, -46.5,-34.1) ">
<use xlink:href="#icon_r_box_02_20_Layer2_0_MEMBER_0_MEMBER_2_MEMBER_0_1_STROKES"/>
</g>

<g transform="matrix( 1, 0, 0, 1, -46.5,-34.1) ">
<use xlink:href="#icon_r_box_02_20_Layer2_0_MEMBER_0_MEMBER_2_MEMBER_1_1_STROKES"/>
</g>

<g transform="matrix( 1, 0, 0, 1, -46.5,-34.1) ">
<use xlink:href="#icon_r_box_02_20_Layer2_0_MEMBER_0_MEMBER_2_MEMBER_2_1_STROKES"/>
</g>

<g transform="matrix( 1, 0, 0, 1, -46.5,-34.1) ">
<use xlink:href="#icon_r_box_02_20_Layer2_0_MEMBER_0_MEMBER_2_MEMBER_3_1_STROKES"/>
</g>

<g transform="matrix( 1, 0, 0, 1, -46.5,-34.1) ">
<use xlink:href="#icon_r_box_02_20_Layer2_0_MEMBER_0_MEMBER_2_MEMBER_4_1_STROKES"/>
</g>

<g transform="matrix( 1, 0, 0, 1, -46.5,-34.1) ">
<use xlink:href="#icon_r_box_02_20_Layer2_0_MEMBER_0_MEMBER_2_MEMBER_5_1_STROKES"/>
</g>

<g transform="matrix( 1, 0, 0, 1, -46.5,-34.1) ">
<use xlink:href="#icon_r_box_02_20_Layer2_0_MEMBER_0_MEMBER_2_MEMBER_6_1_STROKES"/>
</g>

<g transform="matrix( 1, 0, 0, 1, -46.5,-34.1) ">
<use xlink:href="#icon_r_box_02_20_Layer2_0_MEMBER_0_MEMBER_2_MEMBER_7_1_STROKES"/>
</g>

<g transform="matrix( 1, 0, 0, 1, -46.5,-34.1) ">
<use xlink:href="#icon_r_box_02_20_Layer2_0_MEMBER_0_MEMBER_2_MEMBER_8_1_STROKES"/>
</g>

<g transform="matrix( 1, 0, 0, 1, -46.5,-34.1) ">
<use xlink:href="#icon_r_box_02_20_Layer2_0_MEMBER_0_MEMBER_2_MEMBER_9_1_STROKES"/>
</g>

<g transform="matrix( 1, 0, 0, 1, -46.5,-34.1) ">
<use xlink:href="#icon_r_box_02_20_Layer2_0_MEMBER_0_MEMBER_2_MEMBER_10_1_STROKES"/>
</g>

<g transform="matrix( 1, 0, 0, 1, -46.5,-34.1) ">
<use xlink:href="#icon_r_box_02_20_Layer2_0_MEMBER_0_MEMBER_2_MEMBER_11_1_STROKES"/>
</g>

<g transform="matrix( 1, 0, 0, 1, -46.5,-34.1) ">
<use xlink:href="#icon_r_box_02_20_Layer2_0_MEMBER_0_MEMBER_2_MEMBER_12_1_STROKES"/>
</g>

<g transform="matrix( 1, 0, 0, 1, -46.5,-34.1) ">
<use xlink:href="#icon_r_box_02_20_Layer2_0_MEMBER_0_MEMBER_3_MEMBER_0_FILL"/>

<use xlink:href="#icon_r_box_02_20_Layer2_0_MEMBER_0_MEMBER_3_MEMBER_0_1_STROKES"/>
</g>

<g transform="matrix( 1, 0, 0, 1, -46.5,-34.1) ">
<use xlink:href="#icon_r_box_02_20_Layer2_0_MEMBER_0_MEMBER_3_MEMBER_1_FILL"/>

<use xlink:href="#icon_r_box_02_20_Layer2_0_MEMBER_0_MEMBER_3_MEMBER_1_1_STROKES"/>
</g>

<g transform="matrix( 1, 0, 0, 1, -46.5,-34.1) ">
<use xlink:href="#icon_r_box_02_20_Layer2_0_MEMBER_0_MEMBER_4_FILL"/>

<use xlink:href="#icon_r_box_02_20_Layer2_0_MEMBER_0_MEMBER_4_1_STROKES"/>
</g>

<g transform="matrix( 1, 0, 0, 1, -46.5,-34.1) ">
<use xlink:href="#icon_r_box_02_20_Layer2_0_MEMBER_0_MEMBER_5_FILL"/>

<use xlink:href="#icon_r_box_02_20_Layer2_0_MEMBER_0_MEMBER_5_1_STROKES"/>
</g>

<g transform="matrix( 1, 0, 0, 1, -46.5,-34.1) ">
<use xlink:href="#icon_r_box_02_20_Layer2_0_MEMBER_0_MEMBER_6_FILL"/>

<use xlink:href="#icon_r_box_02_20_Layer2_0_MEMBER_0_MEMBER_6_1_STROKES"/>
</g>

<g transform="matrix( 1, 0, 0, 1, -46.5,-34.1) ">
<use xlink:href="#icon_r_box_02_20_Layer2_0_MEMBER_0_MEMBER_7_FILL"/>

<use xlink:href="#icon_r_box_02_20_Layer2_0_MEMBER_0_MEMBER_7_1_STROKES"/>
</g>

<g transform="matrix( 1, 0, 0, 1, -46.5,-34.1) ">
<use xlink:href="#icon_r_box_02_20_Layer2_0_MEMBER_0_MEMBER_8_FILL"/>

<use xlink:href="#icon_r_box_02_20_Layer2_0_MEMBER_0_MEMBER_8_1_STROKES"/>
</g>

<g transform="matrix( 1, 0, 0, 1, -46.5,-34.1) ">
<use xlink:href="#icon_r_box_02_20_Layer2_0_MEMBER_0_MEMBER_9_FILL"/>

<use xlink:href="#icon_r_box_02_20_Layer2_0_MEMBER_0_MEMBER_9_1_STROKES"/>
</g>

<g transform="matrix( 1, 0, 0, 1, -46.5,-34.1) ">
<use xlink:href="#icon_r_box_02_20_Layer2_0_MEMBER_0_MEMBER_10_MEMBER_0_FILL"/>

<use xlink:href="#icon_r_box_02_20_Layer2_0_MEMBER_0_MEMBER_10_MEMBER_0_1_STROKES"/>
</g>

<g transform="matrix( 1, 0, 0, 1, -46.5,-34.1) ">
<use xlink:href="#icon_r_box_02_20_Layer2_0_MEMBER_0_MEMBER_10_MEMBER_1_FILL"/>

<use xlink:href="#icon_r_box_02_20_Layer2_0_MEMBER_0_MEMBER_10_MEMBER_1_1_STROKES"/>
</g>

<g transform="matrix( 1, 0, 0, 1, -46.5,-34.1) ">
<use xlink:href="#icon_r_box_02_20_Layer2_0_MEMBER_0_MEMBER_11_MEMBER_0_FILL"/>

<use xlink:href="#icon_r_box_02_20_Layer2_0_MEMBER_0_MEMBER_11_MEMBER_0_1_STROKES"/>
</g>

<g transform="matrix( 1, 0, 0, 1, -46.5,-34.1) ">
<use xlink:href="#icon_r_box_02_20_Layer2_0_MEMBER_0_MEMBER_11_MEMBER_1_FILL"/>

<use xlink:href="#icon_r_box_02_20_Layer2_0_MEMBER_0_MEMBER_11_MEMBER_1_1_STROKES"/>
</g>

<g transform="matrix( 1, 0, 0, 1, -46.5,-34.1) ">
<use xlink:href="#icon_r_box_02_20_Layer2_0_MEMBER_0_MEMBER_12_MEMBER_0_FILL"/>

<use xlink:href="#icon_r_box_02_20_Layer2_0_MEMBER_0_MEMBER_12_MEMBER_0_1_STROKES"/>
</g>

<g transform="matrix( 1, 0, 0, 1, -46.5,-34.1) ">
<use xlink:href="#icon_r_box_02_20_Layer2_0_MEMBER_0_MEMBER_12_MEMBER_1_FILL"/>
</g>

<g transform="matrix( 1, 0, 0, 1, -46.5,-34.1) ">
<use xlink:href="#icon_r_box_02_20_Layer2_0_MEMBER_0_MEMBER_12_MEMBER_2_1_STROKES"/>
</g>

<g transform="matrix( 1, 0, 0, 1, -46.5,-34.1) ">
<use xlink:href="#icon_r_box_02_20_Layer2_0_MEMBER_0_MEMBER_13_MEMBER_0_FILL"/>

<use xlink:href="#icon_r_box_02_20_Layer2_0_MEMBER_0_MEMBER_13_MEMBER_0_1_STROKES"/>
</g>

<g transform="matrix( 1, 0, 0, 1, -46.5,-34.1) ">
<use xlink:href="#icon_r_box_02_20_Layer2_0_MEMBER_0_MEMBER_13_MEMBER_1_FILL"/>

<use xlink:href="#icon_r_box_02_20_Layer2_0_MEMBER_0_MEMBER_13_MEMBER_1_1_STROKES"/>
</g>

<g transform="matrix( 1, 0, 0, 1, -46.5,-34.1) ">
<use xlink:href="#icon_r_box_02_20_Layer2_0_MEMBER_0_MEMBER_14_MEMBER_0_FILL"/>

<use xlink:href="#icon_r_box_02_20_Layer2_0_MEMBER_0_MEMBER_14_MEMBER_0_1_STROKES"/>
</g>

<g transform="matrix( 1, 0, 0, 1, -46.5,-34.1) ">
<use xlink:href="#icon_r_box_02_20_Layer2_0_MEMBER_0_MEMBER_14_MEMBER_1_FILL"/>
</g>

<g transform="matrix( 1, 0, 0, 1, -46.5,-34.1) ">
<use xlink:href="#icon_r_box_02_20_Layer2_0_MEMBER_0_MEMBER_14_MEMBER_2_1_STROKES"/>
</g>

<g transform="matrix( 1, 0, 0, 1, -46.5,-34.1) ">
<use xlink:href="#icon_r_box_02_20_Layer2_0_MEMBER_0_MEMBER_15_MEMBER_0_FILL"/>

<use xlink:href="#icon_r_box_02_20_Layer2_0_MEMBER_0_MEMBER_15_MEMBER_0_1_STROKES"/>
</g>

<g transform="matrix( 1, 0, 0, 1, -46.5,-34.1) ">
<use xlink:href="#icon_r_box_02_20_Layer2_0_MEMBER_0_MEMBER_15_MEMBER_1_1_STROKES"/>
</g>

<g transform="matrix( 1, 0, 0, 1, -46.5,-34.1) ">
<use xlink:href="#icon_r_box_02_20_Layer2_0_MEMBER_0_MEMBER_15_MEMBER_2_FILL"/>
</g>

<g transform="matrix( 1, 0, 0, 1, -46.5,-34.1) ">
<use xlink:href="#icon_r_box_02_20_Layer2_0_MEMBER_0_MEMBER_15_MEMBER_3_FILL"/>
</g>

<g transform="matrix( 1, 0, 0, 1, -46.5,-34.1) ">
<use xlink:href="#icon_r_box_02_20_Layer2_0_MEMBER_0_MEMBER_16_MEMBER_0_FILL"/>

<use xlink:href="#icon_r_box_02_20_Layer2_0_MEMBER_0_MEMBER_16_MEMBER_0_1_STROKES"/>
</g>

<g transform="matrix( 1, 0, 0, 1, -46.5,-34.1) ">
<use xlink:href="#icon_r_box_02_20_Layer2_0_MEMBER_0_MEMBER_16_MEMBER_1_1_STROKES"/>
</g>

<g transform="matrix( 1, 0, 0, 1, -46.5,-34.1) ">
<use xlink:href="#icon_r_box_02_20_Layer2_0_MEMBER_0_MEMBER_16_MEMBER_2_FILL"/>
</g>

<g transform="matrix( 1, 0, 0, 1, -46.5,-34.1) ">
<use xlink:href="#icon_r_box_02_20_Layer2_0_MEMBER_0_MEMBER_16_MEMBER_3_FILL"/>
</g>

<g transform="matrix( 1, 0, 0, 1, -46.5,-34.1) ">
<use xlink:href="#icon_r_box_02_20_Layer2_0_MEMBER_0_MEMBER_17_MEMBER_0_MEMBER_0_FILL"/>

<use xlink:href="#icon_r_box_02_20_Layer2_0_MEMBER_0_MEMBER_17_MEMBER_0_MEMBER_0_1_STROKES"/>
</g>

<g transform="matrix( 1, 0, 0, 1, -46.5,-34.1) ">
<use xlink:href="#icon_r_box_02_20_Layer2_0_MEMBER_0_MEMBER_17_MEMBER_0_MEMBER_1_FILL"/>
</g>

<g transform="matrix( 1, 0, 0, 1, -46.5,-34.1) ">
<use xlink:href="#icon_r_box_02_20_Layer2_0_MEMBER_0_MEMBER_17_MEMBER_1_MEMBER_0_FILL"/>

<use xlink:href="#icon_r_box_02_20_Layer2_0_MEMBER_0_MEMBER_17_MEMBER_1_MEMBER_0_1_STROKES"/>
</g>

<g transform="matrix( 1, 0, 0, 1, -46.5,-34.1) ">
<use xlink:href="#icon_r_box_02_20_Layer2_0_MEMBER_0_MEMBER_17_MEMBER_2_MEMBER_0_FILL"/>

<use xlink:href="#icon_r_box_02_20_Layer2_0_MEMBER_0_MEMBER_17_MEMBER_2_MEMBER_0_1_STROKES"/>
</g>

<g transform="matrix( 1, 0, 0, 1, -46.5,-34.1) ">
<use xlink:href="#icon_r_box_02_20_Layer2_0_MEMBER_0_MEMBER_17_MEMBER_2_MEMBER_1_FILL"/>
</g>

<g transform="matrix( 1, 0, 0, 1, -46.5,-34.1) ">
<use xlink:href="#icon_r_box_02_20_Layer2_0_MEMBER_0_MEMBER_18_MEMBER_0_FILL"/>

<use xlink:href="#icon_r_box_02_20_Layer2_0_MEMBER_0_MEMBER_18_MEMBER_0_1_STROKES"/>
</g>

<g transform="matrix( 1, 0, 0, 1, -46.5,-34.1) ">
<use xlink:href="#icon_r_box_02_20_Layer2_0_MEMBER_0_MEMBER_19_MEMBER_0_FILL"/>

<use xlink:href="#icon_r_box_02_20_Layer2_0_MEMBER_0_MEMBER_19_MEMBER_0_1_STROKES"/>
</g>

<g transform="matrix( 1, 0, 0, 1, -46.5,-34.1) ">
<use xlink:href="#icon_r_box_02_20_Layer2_0_MEMBER_0_MEMBER_20_MEMBER_0_FILL"/>

<use xlink:href="#icon_r_box_02_20_Layer2_0_MEMBER_0_MEMBER_20_MEMBER_0_1_STROKES"/>
</g>

<g transform="matrix( 1, 0, 0, 1, -46.5,-34.1) ">
<use xlink:href="#icon_r_box_02_20_Layer2_0_MEMBER_0_MEMBER_21_1_STROKES"/>
</g>

<g transform="matrix( 1, 0, 0, 1, -46.5,-34.1) ">
<use xlink:href="#icon_r_box_02_20_Layer2_0_MEMBER_0_MEMBER_22_FILL"/>

<use xlink:href="#icon_r_box_02_20_Layer2_0_MEMBER_0_MEMBER_22_1_STROKES"/>
</g>

<g transform="matrix( 1, 0, 0, 1, -46.5,-34.1) ">
<use xlink:href="#icon_r_box_02_20_Layer2_0_MEMBER_0_MEMBER_23_FILL"/>

<use xlink:href="#icon_r_box_02_20_Layer2_0_MEMBER_0_MEMBER_23_1_STROKES"/>
</g>

<g transform="matrix( 1, 0, 0, 1, -46.5,-34.1) ">
<use xlink:href="#icon_r_box_02_20_Layer2_0_MEMBER_0_MEMBER_24_1_STROKES"/>
</g>

<g transform="matrix( 1, 0, 0, 1, -46.5,-34.1) ">
<use xlink:href="#icon_r_box_02_20_Layer2_0_MEMBER_0_MEMBER_25_1_STROKES"/>
</g>

<g transform="matrix( 1, 0, 0, 1, -46.5,-34.1) ">
<use xlink:href="#icon_r_box_02_20_Layer2_0_MEMBER_0_MEMBER_26_1_STROKES"/>
</g>

<g transform="matrix( 1, 0, 0, 1, -46.5,-34.1) ">
<use xlink:href="#icon_r_box_02_20_Layer2_0_MEMBER_0_MEMBER_27_1_STROKES"/>
</g>
</g>
</svg>
