
<svg xmlns="http://www.w3.org/2000/svg" version="1.1" xmlns:xlink="http://www.w3.org/1999/xlink" preserveAspectRatio="none" x="0px" y="0px" width="130px" height="115px" viewBox="0 0 130 115">
<defs>
<g id="icon_r_box_02_58_Layer3_0_FILL">
<path fill="#FFFFFF" fill-opacity="0" stroke="none" d="
M 65 -55
L -65 -55 -65 25 65 25 65 -55 Z"/>
</g>

<g id="icon_r_box_02_58_Layer3_1_FILL">
<path fill="#FFFFFF" fill-opacity="0" stroke="none" d="
M 65.05 49.95
L 65.05 24.95 -64.95 24.95 -64.95 49.95 65.05 49.95 Z"/>
</g>

<g id="icon_r_box_02_58_Layer3_2_FILL">
<path fill="#FFFFFF" fill-opacity="0" stroke="none" d="
M 65 -52.85
L 65 -57.85 -65 -57.85 -65 -52.85 65 -52.85 Z"/>
</g>

<g id="icon_r_box_02_58_Layer3_3_FILL">
<path fill="#FFFFFF" fill-opacity="0" stroke="none" d="
M 65 54.95
L 65 49.95 -65 49.95 -65 54.95 65 54.95 Z"/>
</g>

<g id="icon_r_box_02_58_Layer2_0_MEMBER_0_MEMBER_0_FILL">
<path fill="#0170DA" stroke="none" d="
M 89.85 2.75
Q 91.15 2.1 90.4 0.8 89.65 -0.5 88.35 0.15 82.5 3.25 79.5 4.65 74.55 7 70.3 8.25 65.45 9.75 60.9 10.05 59 10.15 55.85 9.95 52.1 9.65 50.75 9.65 46.45 9.7 42.4 11.95 39.95 13.35 38.7 14 36.5 15.2 34.8 15.6 32.9 16.05 30.6 15.55 29.05 15.2 26.55 14.2 22.95 12.8 22.5 12.65 20.15 11.85 18.25 11.65 10.1 10.7 0.45 19.35 -0.65 20.35 0.45 21.4 1.5 22.45 2.6 21.45 11.15 13.7 18.25 14.65 20.25 14.9 26.45 17.3 31.4 19.2 34.8 18.65 36.6 18.35 38.65 17.4 39.9 16.8 42.2 15.45 47.05 12.7 50.75 12.65 52.1 12.65 55.6 12.9 58.65 13.15 60.45 13.05 64.6 12.9 69.8 11.55 74.5 10.2 80.05 7.7 83.55 6.05 89.85 2.75 Z"/>
</g>

<g id="icon_r_box_02_58_Layer2_0_MEMBER_1_MEMBER_0_FILL">
<path fill="#74E2FF" stroke="none" d="
M 66.05 17.05
Q 67.4 16.25 67.8 15.05 68.05 14.3 68.05 13.2 68.05 7.85 66 5.95 64.4 4.4 61.1 4.7 59.35 4.85 58.5 4.9 56.95 5 55.9 4.75 55.3 4.6 54.2 4.1 53.05 3.6 52.5 3.45 49.65 2.55 45.05 4.15 42.6 5.15 41.4 5.6 39.2 6.45 37.65 6.75 36.7 6.95 34.95 7.1 33.05 7.3 32.25 7.45 28.45 8 27.1 9.65 24.9 12.4 24.4 14 23.8 15.95 24.9 18.25 25.3 19.05 26.3 19.35 26.55 19.45 28.15 19.7 31.75 20.3 33.55 20.4 38.75 20.6 44.3 18.55 45.6 18.1 48.15 17.1 50.35 16.3 52 16.2 53.5 16.15 55.5 16.65 56.7 16.95 59 17.6 63.35 18.65 66.05 17.05 Z"/>
</g>

<g id="icon_r_box_02_58_Layer2_0_MEMBER_1_MEMBER_1_MEMBER_0_FILL">
<path fill="#0170DA" stroke="none" d="
M 65.8 4.05
Q 63.75 2.95 60.85 3.2 58.45 3.35 57.8 3.35 56.15 3.3 54.75 2.75 51.65 1.4 49 1.65 46.75 1.9 43.1 3.35 39 4.95 37.25 5.3 33.1 5.75 31.1 6.15 27.5 6.8 25.75 8.95 23.4 11.9 22.9 13.75 22.30078125 15.9625 23.45 18.55 23.540625 18.77734375 23.65 19 23.8771484375 19.4166015625 24.2 19.75 25.2822265625 20.763671875 27.45 21.1 31.85 21.8 33.3 21.85 39.05 22.2 45.55 19.65 46.5 19.3 48.4 18.55 50.05 17.95 51.3 17.8 52.65 17.6 54.35 17.95 55.1 18.1 57.3 18.7 64.3 20.65 67.8 17.65 69.55 16.1 69.55 13 69.45 9.65 68.9 7.85 68 5.25 65.8 4.05
M 61.45 6.15
Q 64.35 6.05 65.4 7.45 66.25 8.65 66.45 11.25 66.6 12.95 66.6 13.3 66.55 14.55 66.05 15.15 64.7 16.75 61.8 16.55 60.55 16.45 57.2 15.55 54.5 14.75 52.45 14.7 50.2 14.7 47.3 15.75 43 17.35 41.85 17.7 38.8 18.65 36.25 18.85 33.6 19.05 30.35 18.55
L 27.95 18.2
Q 26.5 17.95 26.2 17.5 24.7 14.15 28.45 10.45 29.75 9.15 32.6 8.75 34.15 8.55 37.15 8.35 39.1 8.05 42 6.95 45.8 5.5 46.75 5.2 49.6 4.3 51.7 4.75 52.4 4.9 54 5.6 55.45 6.2 56.35 6.35 57.45 6.45 58.9 6.35 59.75 6.3 61.45 6.15 Z"/>
</g>
</defs>

<g transform="matrix( 1, 0, 0, 0.999603271484375, 65,60) ">
<g transform="matrix( 1, 0, 0, 1, 0,0) ">
<use xlink:href="#icon_r_box_02_58_Layer3_0_FILL"/>
</g>

<g transform="matrix( 1, 0, 0, 1, -0.05,0.05) ">
<use xlink:href="#icon_r_box_02_58_Layer3_1_FILL"/>
</g>

<g transform="matrix( 1, 0, 0, 1, 0,-2.15) ">
<use xlink:href="#icon_r_box_02_58_Layer3_2_FILL"/>
</g>

<g transform="matrix( 1, 0, 0, 1, 0,0.05) ">
<use xlink:href="#icon_r_box_02_58_Layer3_3_FILL"/>
</g>

<g transform="matrix( 1, 0, 0, 1, -45.25,-25.95) ">
<use xlink:href="#icon_r_box_02_58_Layer2_0_MEMBER_0_MEMBER_0_FILL"/>
</g>

<g transform="matrix( 1, 0, 0, 1, -45.25,-25.95) ">
<use xlink:href="#icon_r_box_02_58_Layer2_0_MEMBER_1_MEMBER_0_FILL"/>
</g>

<g transform="matrix( 1, 0, 0, 1, -45.25,-25.95) ">
<use xlink:href="#icon_r_box_02_58_Layer2_0_MEMBER_1_MEMBER_1_MEMBER_0_FILL"/>
</g>
</g>
</svg>
