
<svg xmlns="http://www.w3.org/2000/svg" version="1.1" xmlns:xlink="http://www.w3.org/1999/xlink" preserveAspectRatio="none" x="0px" y="0px" width="130px" height="115px" viewBox="0 0 130 115">
<defs>
<g id="icon_r_box_02_15_Layer3_0_FILL">
<path fill="#FFFFFF" fill-opacity="0" stroke="none" d="
M 65 -55
L -65 -55 -65 25 65 25 65 -55 Z"/>
</g>

<g id="icon_r_box_02_15_Layer3_1_FILL">
<path fill="#FFFFFF" fill-opacity="0" stroke="none" d="
M 65.05 49.95
L 65.05 24.95 -64.95 24.95 -64.95 49.95 65.05 49.95 Z"/>
</g>

<g id="icon_r_box_02_15_Layer3_2_FILL">
<path fill="#FFFFFF" fill-opacity="0" stroke="none" d="
M 65 -52.85
L 65 -57.85 -65 -57.85 -65 -52.85 65 -52.85 Z"/>
</g>

<g id="icon_r_box_02_15_Layer3_3_FILL">
<path fill="#FFFFFF" fill-opacity="0" stroke="none" d="
M 65 54.95
L 65 49.95 -65 49.95 -65 54.95 65 54.95 Z"/>
</g>

<g id="icon_r_box_02_15_Layer2_0_MEMBER_0_FILL">
<path fill="#96D760" stroke="none" d="
M 77.35 35.8
Q 77.35 30.75 66.1 27.15 54.85 23.6 38.95 23.6 23 23.6 11.75 27.15 0.5 30.75 0.5 35.8 0.5 40.85 11.75 44.45 23 48.05 38.95 48.05 54.85 48.05 66.1 44.45 77.35 40.85 77.35 35.8 Z"/>
</g>

<g id="icon_r_box_02_15_Layer2_0_MEMBER_1_MEMBER_0_MEMBER_0_FILL">
<path fill="#A4574D" stroke="none" d="
M 20.9 29.9
L 20.9 22.4 18.5 22.4 18.5 29.9 20.9 29.9 Z"/>
</g>

<g id="icon_r_box_02_15_Layer2_0_MEMBER_1_MEMBER_0_MEMBER_1_FILL">
<path fill="#A4574D" stroke="none" d="
M 34.15 29.9
L 34.15 22.4 31.75 22.4 31.75 29.9 34.15 29.9 Z"/>
</g>

<g id="icon_r_box_02_15_Layer2_0_MEMBER_1_MEMBER_1_FILL">
<path fill="#C36760" stroke="none" d="
M 13.85 28.6
L 13.85 30.55 38.8 30.55 38.8 28.6 13.85 28.6 Z"/>
</g>

<g id="icon_r_box_02_15_Layer2_0_MEMBER_1_MEMBER_2_MEMBER_0_FILL">
<path fill="#C36760" stroke="none" d="
M 35.95 25.7
L 35.95 19.1 16.7 19.1 16.7 25.7 35.95 25.7 Z"/>
</g>

<g id="icon_r_box_02_15_Layer2_0_MEMBER_1_MEMBER_3_FILL">
<path fill="#A4574D" stroke="none" d="
M 17.5 35.85
L 17.5 30.55 15.4 30.55 15.4 35.85 17.5 35.85 Z"/>
</g>

<g id="icon_r_box_02_15_Layer2_0_MEMBER_1_MEMBER_4_FILL">
<path fill="#A4574D" stroke="none" d="
M 35.15 30.55
L 35.15 35.85 37.25 35.85 37.25 30.55 35.15 30.55 Z"/>
</g>

<g id="icon_r_box_02_15_Layer2_0_MEMBER_2_MEMBER_0_MEMBER_0_MEMBER_0_FILL">
<path fill="#40C871" stroke="none" d="
M 61.7 21
Q 61.7 16 58.9 8.8 55.75 0.5 52.2 0.5 48.65 0.5 45.5 8.8 42.7 16 42.7 21 42.7 24.9 45.5 27.7 48.25 30.45 52.2 30.45 56.15 30.45 58.9 27.7 61.7 24.9 61.7 21 Z"/>
</g>

<path id="icon_r_box_02_15_Layer2_0_MEMBER_0_1_STROKES" stroke="#000000" stroke-width="1" stroke-linejoin="round" stroke-linecap="round" fill="none" d="
M 77.35 35.8
Q 77.35 40.85 66.1 44.45 54.85 48.05 38.95 48.05 23 48.05 11.75 44.45 0.5 40.85 0.5 35.8 0.5 30.75 11.75 27.15 23 23.6 38.95 23.6 54.85 23.6 66.1 27.15 77.35 30.75 77.35 35.8 Z"/>

<path id="icon_r_box_02_15_Layer2_0_MEMBER_1_MEMBER_0_MEMBER_0_1_STROKES" stroke="#000000" stroke-width="1" stroke-linejoin="round" stroke-linecap="round" fill="none" d="
M 20.9 29.9
L 18.5 29.9 18.5 22.4 20.9 22.4 20.9 29.9 Z"/>

<path id="icon_r_box_02_15_Layer2_0_MEMBER_1_MEMBER_0_MEMBER_1_1_STROKES" stroke="#000000" stroke-width="1" stroke-linejoin="round" stroke-linecap="round" fill="none" d="
M 34.15 29.9
L 31.75 29.9 31.75 22.4 34.15 22.4 34.15 29.9 Z"/>

<path id="icon_r_box_02_15_Layer2_0_MEMBER_1_MEMBER_1_1_STROKES" stroke="#000000" stroke-width="1" stroke-linejoin="round" stroke-linecap="round" fill="none" d="
M 13.85 30.55
L 38.8 30.55 38.8 28.6 13.85 28.6 13.85 30.55 Z"/>

<path id="icon_r_box_02_15_Layer2_0_MEMBER_1_MEMBER_2_MEMBER_0_1_STROKES" stroke="#000000" stroke-width="1" stroke-linejoin="round" stroke-linecap="round" fill="none" d="
M 35.95 25.7
L 16.7 25.7 16.7 19.1 35.95 19.1 35.95 25.7 Z"/>

<path id="icon_r_box_02_15_Layer2_0_MEMBER_1_MEMBER_2_MEMBER_1_MEMBER_0_1_STROKES" stroke="#AD5A59" stroke-width="1" stroke-linejoin="round" stroke-linecap="butt" fill="none" d="
M 16.7 20.7
L 35.95 20.7"/>

<path id="icon_r_box_02_15_Layer2_0_MEMBER_1_MEMBER_2_MEMBER_1_MEMBER_1_1_STROKES" stroke="#AD5A59" stroke-width="1" stroke-linejoin="round" stroke-linecap="butt" fill="none" d="
M 16.7 22.25
L 35.95 22.25"/>

<path id="icon_r_box_02_15_Layer2_0_MEMBER_1_MEMBER_2_MEMBER_1_MEMBER_2_1_STROKES" stroke="#AD5A59" stroke-width="1" stroke-linejoin="round" stroke-linecap="butt" fill="none" d="
M 16.7 24.1
L 35.95 24.1"/>

<path id="icon_r_box_02_15_Layer2_0_MEMBER_1_MEMBER_2_MEMBER_2_1_STROKES" stroke="#000000" stroke-width="1" stroke-linejoin="round" stroke-linecap="round" fill="none" d="
M 35.95 25.7
L 16.7 25.7 16.7 19.1 35.95 19.1 35.95 25.7 Z"/>

<path id="icon_r_box_02_15_Layer2_0_MEMBER_1_MEMBER_3_1_STROKES" stroke="#000000" stroke-width="1" stroke-linejoin="round" stroke-linecap="round" fill="none" d="
M 17.5 35.85
L 15.4 35.85 15.4 30.55 17.5 30.55 17.5 35.85 Z"/>

<path id="icon_r_box_02_15_Layer2_0_MEMBER_1_MEMBER_4_1_STROKES" stroke="#000000" stroke-width="1" stroke-linejoin="round" stroke-linecap="round" fill="none" d="
M 35.15 35.85
L 37.25 35.85 37.25 30.55 35.15 30.55 35.15 35.85 Z"/>

<path id="icon_r_box_02_15_Layer2_0_MEMBER_2_MEMBER_0_MEMBER_0_MEMBER_0_1_STROKES" stroke="#000000" stroke-width="1" stroke-linejoin="round" stroke-linecap="round" fill="none" d="
M 61.7 21
Q 61.7 24.9 58.9 27.7 56.15 30.45 52.2 30.45 48.25 30.45 45.5 27.7 42.7 24.9 42.7 21 42.7 16 45.5 8.8 48.65 0.5 52.2 0.5 55.75 0.5 58.9 8.8 61.7 16 61.7 21 Z"/>

<path id="icon_r_box_02_15_Layer2_0_MEMBER_2_MEMBER_0_MEMBER_0_MEMBER_1_MEMBER_0_1_STROKES" stroke="#000000" stroke-width="1" stroke-linejoin="round" stroke-linecap="round" fill="none" d="
M 52.2 12.3
L 52.2 36.3"/>

<path id="icon_r_box_02_15_Layer2_0_MEMBER_2_MEMBER_0_MEMBER_0_MEMBER_2_MEMBER_0_1_STROKES" stroke="#000000" stroke-width="1" stroke-linejoin="round" stroke-linecap="round" fill="none" d="
M 47.7 17.75
L 52.2 22.2"/>

<path id="icon_r_box_02_15_Layer2_0_MEMBER_3_MEMBER_0_1_STROKES" stroke="#000000" stroke-width="1" stroke-linejoin="round" stroke-linecap="round" fill="none" d="
M 19.15 41.15
L 19.15 42"/>

<path id="icon_r_box_02_15_Layer2_0_MEMBER_3_MEMBER_1_1_STROKES" stroke="#000000" stroke-width="1" stroke-linejoin="round" stroke-linecap="round" fill="none" d="
M 20.9 39.6
L 20.9 42"/>

<path id="icon_r_box_02_15_Layer2_0_MEMBER_3_MEMBER_2_1_STROKES" stroke="#000000" stroke-width="1" stroke-linejoin="round" stroke-linecap="round" fill="none" d="
M 22.65 40.6
L 22.65 42"/>

<path id="icon_r_box_02_15_Layer2_0_MEMBER_4_MEMBER_0_1_STROKES" stroke="#000000" stroke-width="1" stroke-linejoin="round" stroke-linecap="round" fill="none" d="
M 36.4 44.5
L 36.4 45.35"/>

<path id="icon_r_box_02_15_Layer2_0_MEMBER_4_MEMBER_1_1_STROKES" stroke="#000000" stroke-width="1" stroke-linejoin="round" stroke-linecap="round" fill="none" d="
M 38.2 42.95
L 38.2 45.35"/>

<path id="icon_r_box_02_15_Layer2_0_MEMBER_4_MEMBER_2_1_STROKES" stroke="#000000" stroke-width="1" stroke-linejoin="round" stroke-linecap="round" fill="none" d="
M 39.95 44
L 39.95 45.35"/>

<path id="icon_r_box_02_15_Layer2_0_MEMBER_5_MEMBER_0_1_STROKES" stroke="#000000" stroke-width="1" stroke-linejoin="round" stroke-linecap="round" fill="none" d="
M 62.2 36.55
L 62.2 37.4"/>

<path id="icon_r_box_02_15_Layer2_0_MEMBER_5_MEMBER_1_1_STROKES" stroke="#000000" stroke-width="1" stroke-linejoin="round" stroke-linecap="round" fill="none" d="
M 63.95 34.95
L 63.95 37.4"/>

<path id="icon_r_box_02_15_Layer2_0_MEMBER_5_MEMBER_2_1_STROKES" stroke="#000000" stroke-width="1" stroke-linejoin="round" stroke-linecap="round" fill="none" d="
M 65.7 36
L 65.7 37.4"/>

<path id="icon_r_box_02_15_Layer2_0_MEMBER_6_MEMBER_0_1_STROKES" stroke="#000000" stroke-width="1" stroke-linejoin="round" stroke-linecap="round" fill="none" d="
M 42.7 34.95
L 42.7 35.8"/>

<path id="icon_r_box_02_15_Layer2_0_MEMBER_6_MEMBER_1_1_STROKES" stroke="#000000" stroke-width="1" stroke-linejoin="round" stroke-linecap="round" fill="none" d="
M 44.5 33.4
L 44.5 35.8"/>

<path id="icon_r_box_02_15_Layer2_0_MEMBER_6_MEMBER_2_1_STROKES" stroke="#000000" stroke-width="1" stroke-linejoin="round" stroke-linecap="round" fill="none" d="
M 46.25 34.45
L 46.25 35.8"/>
</defs>

<g transform="matrix( 1, 0, 0, 0.999603271484375, 65,60) ">
<g transform="matrix( 1, 0, 0, 1, 0,0) ">
<use xlink:href="#icon_r_box_02_15_Layer3_0_FILL"/>
</g>

<g transform="matrix( 1, 0, 0, 1, -0.05,0.05) ">
<use xlink:href="#icon_r_box_02_15_Layer3_1_FILL"/>
</g>

<g transform="matrix( 1, 0, 0, 1, 0,-2.15) ">
<use xlink:href="#icon_r_box_02_15_Layer3_2_FILL"/>
</g>

<g transform="matrix( 1, 0, 0, 1, 0,0.05) ">
<use xlink:href="#icon_r_box_02_15_Layer3_3_FILL"/>
</g>

<g transform="matrix( 1, 0, 0, 1, -38.95,-35.3) ">
<use xlink:href="#icon_r_box_02_15_Layer2_0_MEMBER_0_FILL"/>

<use xlink:href="#icon_r_box_02_15_Layer2_0_MEMBER_0_1_STROKES"/>
</g>

<g transform="matrix( 1, 0, 0, 1, -38.95,-35.3) ">
<use xlink:href="#icon_r_box_02_15_Layer2_0_MEMBER_1_MEMBER_0_MEMBER_0_FILL"/>

<use xlink:href="#icon_r_box_02_15_Layer2_0_MEMBER_1_MEMBER_0_MEMBER_0_1_STROKES"/>
</g>

<g transform="matrix( 1, 0, 0, 1, -38.95,-35.3) ">
<use xlink:href="#icon_r_box_02_15_Layer2_0_MEMBER_1_MEMBER_0_MEMBER_1_FILL"/>

<use xlink:href="#icon_r_box_02_15_Layer2_0_MEMBER_1_MEMBER_0_MEMBER_1_1_STROKES"/>
</g>

<g transform="matrix( 1, 0, 0, 1, -38.95,-35.3) ">
<use xlink:href="#icon_r_box_02_15_Layer2_0_MEMBER_1_MEMBER_1_FILL"/>

<use xlink:href="#icon_r_box_02_15_Layer2_0_MEMBER_1_MEMBER_1_1_STROKES"/>
</g>

<g transform="matrix( 1, 0, 0, 1, -38.95,-35.3) ">
<use xlink:href="#icon_r_box_02_15_Layer2_0_MEMBER_1_MEMBER_2_MEMBER_0_FILL"/>

<use xlink:href="#icon_r_box_02_15_Layer2_0_MEMBER_1_MEMBER_2_MEMBER_0_1_STROKES"/>
</g>

<g transform="matrix( 1, 0, 0, 1, -38.95,-35.3) ">
<use xlink:href="#icon_r_box_02_15_Layer2_0_MEMBER_1_MEMBER_2_MEMBER_1_MEMBER_0_1_STROKES"/>
</g>

<g transform="matrix( 1, 0, 0, 1, -38.95,-35.3) ">
<use xlink:href="#icon_r_box_02_15_Layer2_0_MEMBER_1_MEMBER_2_MEMBER_1_MEMBER_1_1_STROKES"/>
</g>

<g transform="matrix( 1, 0, 0, 1, -38.95,-35.3) ">
<use xlink:href="#icon_r_box_02_15_Layer2_0_MEMBER_1_MEMBER_2_MEMBER_1_MEMBER_2_1_STROKES"/>
</g>

<g transform="matrix( 1, 0, 0, 1, -38.95,-35.3) ">
<use xlink:href="#icon_r_box_02_15_Layer2_0_MEMBER_1_MEMBER_2_MEMBER_2_1_STROKES"/>
</g>

<g transform="matrix( 1, 0, 0, 1, -38.95,-35.3) ">
<use xlink:href="#icon_r_box_02_15_Layer2_0_MEMBER_1_MEMBER_3_FILL"/>

<use xlink:href="#icon_r_box_02_15_Layer2_0_MEMBER_1_MEMBER_3_1_STROKES"/>
</g>

<g transform="matrix( 1, 0, 0, 1, -38.95,-35.3) ">
<use xlink:href="#icon_r_box_02_15_Layer2_0_MEMBER_1_MEMBER_4_FILL"/>

<use xlink:href="#icon_r_box_02_15_Layer2_0_MEMBER_1_MEMBER_4_1_STROKES"/>
</g>

<g transform="matrix( 1, 0, 0, 1, -38.95,-35.3) ">
<use xlink:href="#icon_r_box_02_15_Layer2_0_MEMBER_2_MEMBER_0_MEMBER_0_MEMBER_0_FILL"/>

<use xlink:href="#icon_r_box_02_15_Layer2_0_MEMBER_2_MEMBER_0_MEMBER_0_MEMBER_0_1_STROKES"/>
</g>

<g transform="matrix( 1, 0, 0, 1, -38.95,-35.3) ">
<use xlink:href="#icon_r_box_02_15_Layer2_0_MEMBER_2_MEMBER_0_MEMBER_0_MEMBER_1_MEMBER_0_1_STROKES"/>
</g>

<g transform="matrix( 1, 0, 0, 1, -38.95,-35.3) ">
<use xlink:href="#icon_r_box_02_15_Layer2_0_MEMBER_2_MEMBER_0_MEMBER_0_MEMBER_2_MEMBER_0_1_STROKES"/>
</g>

<g transform="matrix( 1, 0, 0, 1, -38.95,-35.3) ">
<use xlink:href="#icon_r_box_02_15_Layer2_0_MEMBER_3_MEMBER_0_1_STROKES"/>
</g>

<g transform="matrix( 1, 0, 0, 1, -38.95,-35.3) ">
<use xlink:href="#icon_r_box_02_15_Layer2_0_MEMBER_3_MEMBER_1_1_STROKES"/>
</g>

<g transform="matrix( 1, 0, 0, 1, -38.95,-35.3) ">
<use xlink:href="#icon_r_box_02_15_Layer2_0_MEMBER_3_MEMBER_2_1_STROKES"/>
</g>

<g transform="matrix( 1, 0, 0, 1, -38.95,-35.3) ">
<use xlink:href="#icon_r_box_02_15_Layer2_0_MEMBER_4_MEMBER_0_1_STROKES"/>
</g>

<g transform="matrix( 1, 0, 0, 1, -38.95,-35.3) ">
<use xlink:href="#icon_r_box_02_15_Layer2_0_MEMBER_4_MEMBER_1_1_STROKES"/>
</g>

<g transform="matrix( 1, 0, 0, 1, -38.95,-35.3) ">
<use xlink:href="#icon_r_box_02_15_Layer2_0_MEMBER_4_MEMBER_2_1_STROKES"/>
</g>

<g transform="matrix( 1, 0, 0, 1, -38.95,-35.3) ">
<use xlink:href="#icon_r_box_02_15_Layer2_0_MEMBER_5_MEMBER_0_1_STROKES"/>
</g>

<g transform="matrix( 1, 0, 0, 1, -38.95,-35.3) ">
<use xlink:href="#icon_r_box_02_15_Layer2_0_MEMBER_5_MEMBER_1_1_STROKES"/>
</g>

<g transform="matrix( 1, 0, 0, 1, -38.95,-35.3) ">
<use xlink:href="#icon_r_box_02_15_Layer2_0_MEMBER_5_MEMBER_2_1_STROKES"/>
</g>

<g transform="matrix( 1, 0, 0, 1, -38.95,-35.3) ">
<use xlink:href="#icon_r_box_02_15_Layer2_0_MEMBER_6_MEMBER_0_1_STROKES"/>
</g>

<g transform="matrix( 1, 0, 0, 1, -38.95,-35.3) ">
<use xlink:href="#icon_r_box_02_15_Layer2_0_MEMBER_6_MEMBER_1_1_STROKES"/>
</g>

<g transform="matrix( 1, 0, 0, 1, -38.95,-35.3) ">
<use xlink:href="#icon_r_box_02_15_Layer2_0_MEMBER_6_MEMBER_2_1_STROKES"/>
</g>
</g>
</svg>
