
<svg xmlns="http://www.w3.org/2000/svg" version="1.1" xmlns:xlink="http://www.w3.org/1999/xlink" preserveAspectRatio="none" x="0px" y="0px" width="130px" height="115px" viewBox="0 0 130 115">
<defs>
<g id="icon_r_box_02_40_Layer3_0_FILL">
<path fill="#FFFFFF" fill-opacity="0" stroke="none" d="
M 65 -55
L -65 -55 -65 25 65 25 65 -55 Z"/>
</g>

<g id="icon_r_box_02_40_Layer3_1_FILL">
<path fill="#FFFFFF" fill-opacity="0" stroke="none" d="
M 65.05 49.95
L 65.05 24.95 -64.95 24.95 -64.95 49.95 65.05 49.95 Z"/>
</g>

<g id="icon_r_box_02_40_Layer3_2_FILL">
<path fill="#FFFFFF" fill-opacity="0" stroke="none" d="
M 65 -52.85
L 65 -57.85 -65 -57.85 -65 -52.85 65 -52.85 Z"/>
</g>

<g id="icon_r_box_02_40_Layer3_3_FILL">
<path fill="#FFFFFF" fill-opacity="0" stroke="none" d="
M 65 54.95
L 65 49.95 -65 49.95 -65 54.95 65 54.95 Z"/>
</g>

<g id="icon_r_box_02_40_Layer2_0_MEMBER_2_MEMBER_0_MEMBER_0_FILL">
<path fill="#FFFFFF" stroke="none" d="
M 31.15 17.25
L 31.15 4.45 7.5 4.45 7.5 17.25 31.15 17.25 Z"/>
</g>

<g id="icon_r_box_02_40_Layer2_0_MEMBER_2_MEMBER_0_MEMBER_1_MEMBER_0_FILL">
<path fill="#11C3A5" stroke="none" d="
M 34.4 7.25
L 4.25 7.25 4.25 49.55 34.4 49.55 34.4 7.25 Z"/>
</g>

<g id="icon_r_box_02_40_Layer2_0_MEMBER_2_MEMBER_0_MEMBER_2_MEMBER_0_MEMBER_0_FILL">
<path fill="#BDF8FA" stroke="none" d="
M 13.55 17.5
L 13.55 11.35 8.6 11.35 8.6 17.5 13.55 17.5 Z"/>
</g>

<g id="icon_r_box_02_40_Layer2_0_MEMBER_2_MEMBER_0_MEMBER_2_MEMBER_1_MEMBER_0_FILL">
<path fill="#BDF8FA" stroke="none" d="
M 21.8 17.5
L 21.8 11.35 16.85 11.35 16.85 17.5 21.8 17.5 Z"/>
</g>

<g id="icon_r_box_02_40_Layer2_0_MEMBER_2_MEMBER_0_MEMBER_2_MEMBER_2_MEMBER_0_FILL">
<path fill="#BDF8FA" stroke="none" d="
M 30.05 17.5
L 30.05 11.35 25.1 11.35 25.1 17.5 30.05 17.5 Z"/>
</g>

<g id="icon_r_box_02_40_Layer2_0_MEMBER_2_MEMBER_0_MEMBER_3_MEMBER_0_MEMBER_0_FILL">
<path fill="#BDF8FA" stroke="none" d="
M 13.55 17.5
L 13.55 11.35 8.6 11.35 8.6 17.5 13.55 17.5 Z"/>
</g>

<g id="icon_r_box_02_40_Layer2_0_MEMBER_2_MEMBER_0_MEMBER_3_MEMBER_1_MEMBER_0_FILL">
<path fill="#BDF8FA" stroke="none" d="
M 21.8 17.5
L 21.8 11.35 16.85 11.35 16.85 17.5 21.8 17.5 Z"/>
</g>

<g id="icon_r_box_02_40_Layer2_0_MEMBER_2_MEMBER_0_MEMBER_3_MEMBER_2_MEMBER_0_FILL">
<path fill="#BDF8FA" stroke="none" d="
M 30.05 17.5
L 30.05 11.35 25.1 11.35 25.1 17.5 30.05 17.5 Z"/>
</g>

<g id="icon_r_box_02_40_Layer2_0_MEMBER_2_MEMBER_0_MEMBER_4_MEMBER_0_MEMBER_0_FILL">
<path fill="#BDF8FA" stroke="none" d="
M 13.55 27.05
L 13.55 20.85 8.6 20.85 8.6 27.05 13.55 27.05 Z"/>
</g>

<g id="icon_r_box_02_40_Layer2_0_MEMBER_2_MEMBER_0_MEMBER_4_MEMBER_1_MEMBER_0_FILL">
<path fill="#BDF8FA" stroke="none" d="
M 21.8 27.05
L 21.8 20.85 16.85 20.85 16.85 27.05 21.8 27.05 Z"/>
</g>

<g id="icon_r_box_02_40_Layer2_0_MEMBER_2_MEMBER_0_MEMBER_4_MEMBER_2_MEMBER_0_FILL">
<path fill="#BDF8FA" stroke="none" d="
M 30.05 27.05
L 30.05 20.85 25.1 20.85 25.1 27.05 30.05 27.05 Z"/>
</g>

<g id="icon_r_box_02_40_Layer2_0_MEMBER_2_MEMBER_0_MEMBER_5_MEMBER_0_MEMBER_0_FILL">
<path fill="#BDF8FA" stroke="none" d="
M 13.55 36.8
L 13.55 30.65 8.6 30.65 8.6 36.8 13.55 36.8 Z"/>
</g>

<g id="icon_r_box_02_40_Layer2_0_MEMBER_2_MEMBER_0_MEMBER_5_MEMBER_1_MEMBER_0_FILL">
<path fill="#BDF8FA" stroke="none" d="
M 21.8 36.8
L 21.8 30.65 16.85 30.65 16.85 36.8 21.8 36.8 Z"/>
</g>

<g id="icon_r_box_02_40_Layer2_0_MEMBER_2_MEMBER_0_MEMBER_5_MEMBER_2_MEMBER_0_FILL">
<path fill="#BDF8FA" stroke="none" d="
M 30.05 36.8
L 30.05 30.65 25.1 30.65 25.1 36.8 30.05 36.8 Z"/>
</g>

<g id="icon_r_box_02_40_Layer2_0_MEMBER_2_MEMBER_0_MEMBER_6_MEMBER_0_FILL">
<path fill="#BAE6FF" stroke="none" d="
M 24.3 40.4
L 14.35 40.4 14.35 49.55 24.3 49.55 24.3 40.4 Z"/>
</g>

<g id="icon_r_box_02_40_Layer2_0_MEMBER_2_MEMBER_0_MEMBER_6_MEMBER_1_FILL">
<path fill="#76A4D2" stroke="none" d="
M 24.3 40.4
L 19.3 40.4 19.3 49.55 24.3 49.55 24.3 40.4 Z"/>
</g>

<path id="icon_r_box_02_40_Layer2_0_MEMBER_0_MEMBER_0_1_STROKES" stroke="#000000" stroke-width="1" stroke-linejoin="round" stroke-linecap="round" fill="none" d="
M 28.15 0.5
L 28.15 5.85"/>

<path id="icon_r_box_02_40_Layer2_0_MEMBER_1_MEMBER_0_1_STROKES" stroke="#000000" stroke-width="1" stroke-linejoin="round" stroke-linecap="round" fill="none" d="
M 24.3 2.8
L 24.3 5.45"/>

<path id="icon_r_box_02_40_Layer2_0_MEMBER_2_MEMBER_0_MEMBER_0_1_STROKES" stroke="#000000" stroke-width="1" stroke-linejoin="round" stroke-linecap="round" fill="none" d="
M 31.15 17.25
L 7.5 17.25 7.5 4.45 31.15 4.45 31.15 17.25 Z"/>

<path id="icon_r_box_02_40_Layer2_0_MEMBER_2_MEMBER_0_MEMBER_1_MEMBER_1_1_STROKES" stroke="#000000" stroke-width="1" stroke-linejoin="round" stroke-linecap="butt" fill="none" d="
M 34.4 49.55
L 4.25 49.55 4.25 7.25 34.4 7.25 34.4 49.55 Z"/>

<path id="icon_r_box_02_40_Layer2_0_MEMBER_2_MEMBER_0_MEMBER_2_MEMBER_0_MEMBER_1_1_STROKES" stroke="#000000" stroke-width="1" stroke-linejoin="round" stroke-linecap="butt" fill="none" d="
M 13.55 17.5
L 8.6 17.5 8.6 11.35 13.55 11.35 13.55 17.5 Z"/>

<path id="icon_r_box_02_40_Layer2_0_MEMBER_2_MEMBER_0_MEMBER_2_MEMBER_1_MEMBER_1_1_STROKES" stroke="#000000" stroke-width="1" stroke-linejoin="round" stroke-linecap="butt" fill="none" d="
M 21.8 17.5
L 16.85 17.5 16.85 11.35 21.8 11.35 21.8 17.5 Z"/>

<path id="icon_r_box_02_40_Layer2_0_MEMBER_2_MEMBER_0_MEMBER_2_MEMBER_2_MEMBER_1_1_STROKES" stroke="#000000" stroke-width="1" stroke-linejoin="round" stroke-linecap="butt" fill="none" d="
M 30.05 17.5
L 25.1 17.5 25.1 11.35 30.05 11.35 30.05 17.5 Z"/>

<path id="icon_r_box_02_40_Layer2_0_MEMBER_2_MEMBER_0_MEMBER_3_MEMBER_0_MEMBER_1_1_STROKES" stroke="#000000" stroke-width="1" stroke-linejoin="round" stroke-linecap="butt" fill="none" d="
M 13.55 17.5
L 8.6 17.5 8.6 11.35 13.55 11.35 13.55 17.5 Z"/>

<path id="icon_r_box_02_40_Layer2_0_MEMBER_2_MEMBER_0_MEMBER_3_MEMBER_1_MEMBER_1_1_STROKES" stroke="#000000" stroke-width="1" stroke-linejoin="round" stroke-linecap="butt" fill="none" d="
M 21.8 17.5
L 16.85 17.5 16.85 11.35 21.8 11.35 21.8 17.5 Z"/>

<path id="icon_r_box_02_40_Layer2_0_MEMBER_2_MEMBER_0_MEMBER_3_MEMBER_2_MEMBER_1_1_STROKES" stroke="#000000" stroke-width="1" stroke-linejoin="round" stroke-linecap="butt" fill="none" d="
M 30.05 17.5
L 25.1 17.5 25.1 11.35 30.05 11.35 30.05 17.5 Z"/>

<path id="icon_r_box_02_40_Layer2_0_MEMBER_2_MEMBER_0_MEMBER_4_MEMBER_0_MEMBER_1_1_STROKES" stroke="#000000" stroke-width="1" stroke-linejoin="round" stroke-linecap="butt" fill="none" d="
M 13.55 27.05
L 8.6 27.05 8.6 20.85 13.55 20.85 13.55 27.05 Z"/>

<path id="icon_r_box_02_40_Layer2_0_MEMBER_2_MEMBER_0_MEMBER_4_MEMBER_1_MEMBER_1_1_STROKES" stroke="#000000" stroke-width="1" stroke-linejoin="round" stroke-linecap="butt" fill="none" d="
M 21.8 27.05
L 16.85 27.05 16.85 20.85 21.8 20.85 21.8 27.05 Z"/>

<path id="icon_r_box_02_40_Layer2_0_MEMBER_2_MEMBER_0_MEMBER_4_MEMBER_2_MEMBER_1_1_STROKES" stroke="#000000" stroke-width="1" stroke-linejoin="round" stroke-linecap="butt" fill="none" d="
M 30.05 27.05
L 25.1 27.05 25.1 20.85 30.05 20.85 30.05 27.05 Z"/>

<path id="icon_r_box_02_40_Layer2_0_MEMBER_2_MEMBER_0_MEMBER_5_MEMBER_0_MEMBER_1_1_STROKES" stroke="#000000" stroke-width="1" stroke-linejoin="round" stroke-linecap="butt" fill="none" d="
M 13.55 36.8
L 8.6 36.8 8.6 30.65 13.55 30.65 13.55 36.8 Z"/>

<path id="icon_r_box_02_40_Layer2_0_MEMBER_2_MEMBER_0_MEMBER_5_MEMBER_1_MEMBER_1_1_STROKES" stroke="#000000" stroke-width="1" stroke-linejoin="round" stroke-linecap="butt" fill="none" d="
M 21.8 36.8
L 16.85 36.8 16.85 30.65 21.8 30.65 21.8 36.8 Z"/>

<path id="icon_r_box_02_40_Layer2_0_MEMBER_2_MEMBER_0_MEMBER_5_MEMBER_2_MEMBER_1_1_STROKES" stroke="#000000" stroke-width="1" stroke-linejoin="round" stroke-linecap="butt" fill="none" d="
M 30.05 36.8
L 25.1 36.8 25.1 30.65 30.05 30.65 30.05 36.8 Z"/>

<path id="icon_r_box_02_40_Layer2_0_MEMBER_2_MEMBER_0_MEMBER_6_MEMBER_0_1_STROKES" stroke="#000000" stroke-width="1" stroke-linejoin="round" stroke-linecap="round" fill="none" d="
M 24.3 49.55
L 14.35 49.55 14.35 40.4 24.3 40.4 24.3 49.55 Z"/>

<path id="icon_r_box_02_40_Layer2_0_MEMBER_2_MEMBER_0_MEMBER_6_MEMBER_1_1_STROKES" stroke="#000000" stroke-width="1" stroke-linejoin="round" stroke-linecap="round" fill="none" d="
M 24.3 49.55
L 19.3 49.55 19.3 40.4 24.3 40.4 24.3 49.55 Z"/>

<path id="icon_r_box_02_40_Layer2_0_MEMBER_2_MEMBER_0_MEMBER_6_MEMBER_2_MEMBER_0_MEMBER_0_1_STROKES" stroke="#000000" stroke-width="1" stroke-linejoin="round" stroke-linecap="round" fill="none" d="
M 10.3 41.85
L 10.3 44.5"/>

<path id="icon_r_box_02_40_Layer2_0_MEMBER_2_MEMBER_0_MEMBER_6_MEMBER_2_MEMBER_1_MEMBER_0_1_STROKES" stroke="#000000" stroke-width="1" stroke-linejoin="round" stroke-linecap="round" fill="none" d="
M 28.35 41.85
L 28.35 44.5"/>

<path id="icon_r_box_02_40_Layer2_0_MEMBER_2_MEMBER_1_MEMBER_0_1_STROKES" stroke="#000000" stroke-width="1" stroke-linejoin="round" stroke-linecap="round" fill="none" d="
M 0.5 49.55
L 38.15 49.55"/>
</defs>

<g transform="matrix( 1, 0, 0, 0.999603271484375, 65,60) ">
<g transform="matrix( 1, 0, 0, 1, 0,0) ">
<use xlink:href="#icon_r_box_02_40_Layer3_0_FILL"/>
</g>

<g transform="matrix( 1, 0, 0, 1, -0.05,0.05) ">
<use xlink:href="#icon_r_box_02_40_Layer3_1_FILL"/>
</g>

<g transform="matrix( 1, 0, 0, 1, 0,-2.15) ">
<use xlink:href="#icon_r_box_02_40_Layer3_2_FILL"/>
</g>

<g transform="matrix( 1, 0, 0, 1, 0,0.05) ">
<use xlink:href="#icon_r_box_02_40_Layer3_3_FILL"/>
</g>

<g transform="matrix( 1, 0, 0, 1, -19.3,-38.25) ">
<use xlink:href="#icon_r_box_02_40_Layer2_0_MEMBER_0_MEMBER_0_1_STROKES"/>
</g>

<g transform="matrix( 1, 0, 0, 1, -19.3,-38.25) ">
<use xlink:href="#icon_r_box_02_40_Layer2_0_MEMBER_1_MEMBER_0_1_STROKES"/>
</g>

<g transform="matrix( 1, 0, 0, 1, -19.3,-38.25) ">
<use xlink:href="#icon_r_box_02_40_Layer2_0_MEMBER_2_MEMBER_0_MEMBER_0_FILL"/>

<use xlink:href="#icon_r_box_02_40_Layer2_0_MEMBER_2_MEMBER_0_MEMBER_0_1_STROKES"/>
</g>

<g transform="matrix( 1, 0, 0, 1, -19.3,-38.25) ">
<use xlink:href="#icon_r_box_02_40_Layer2_0_MEMBER_2_MEMBER_0_MEMBER_1_MEMBER_0_FILL"/>
</g>

<g transform="matrix( 1, 0, 0, 1, -19.3,-38.25) ">
<use xlink:href="#icon_r_box_02_40_Layer2_0_MEMBER_2_MEMBER_0_MEMBER_1_MEMBER_1_1_STROKES"/>
</g>

<g transform="matrix( 1, 0, 0, 1, -19.3,-38.25) ">
<use xlink:href="#icon_r_box_02_40_Layer2_0_MEMBER_2_MEMBER_0_MEMBER_2_MEMBER_0_MEMBER_0_FILL"/>
</g>

<g transform="matrix( 1, 0, 0, 1, -19.3,-38.25) ">
<use xlink:href="#icon_r_box_02_40_Layer2_0_MEMBER_2_MEMBER_0_MEMBER_2_MEMBER_0_MEMBER_1_1_STROKES"/>
</g>

<g transform="matrix( 1, 0, 0, 1, -19.3,-38.25) ">
<use xlink:href="#icon_r_box_02_40_Layer2_0_MEMBER_2_MEMBER_0_MEMBER_2_MEMBER_1_MEMBER_0_FILL"/>
</g>

<g transform="matrix( 1, 0, 0, 1, -19.3,-38.25) ">
<use xlink:href="#icon_r_box_02_40_Layer2_0_MEMBER_2_MEMBER_0_MEMBER_2_MEMBER_1_MEMBER_1_1_STROKES"/>
</g>

<g transform="matrix( 1, 0, 0, 1, -19.3,-38.25) ">
<use xlink:href="#icon_r_box_02_40_Layer2_0_MEMBER_2_MEMBER_0_MEMBER_2_MEMBER_2_MEMBER_0_FILL"/>
</g>

<g transform="matrix( 1, 0, 0, 1, -19.3,-38.25) ">
<use xlink:href="#icon_r_box_02_40_Layer2_0_MEMBER_2_MEMBER_0_MEMBER_2_MEMBER_2_MEMBER_1_1_STROKES"/>
</g>

<g transform="matrix( 1, 0, 0, 1, -19.3,-38.25) ">
<use xlink:href="#icon_r_box_02_40_Layer2_0_MEMBER_2_MEMBER_0_MEMBER_3_MEMBER_0_MEMBER_0_FILL"/>
</g>

<g transform="matrix( 1, 0, 0, 1, -19.3,-38.25) ">
<use xlink:href="#icon_r_box_02_40_Layer2_0_MEMBER_2_MEMBER_0_MEMBER_3_MEMBER_0_MEMBER_1_1_STROKES"/>
</g>

<g transform="matrix( 1, 0, 0, 1, -19.3,-38.25) ">
<use xlink:href="#icon_r_box_02_40_Layer2_0_MEMBER_2_MEMBER_0_MEMBER_3_MEMBER_1_MEMBER_0_FILL"/>
</g>

<g transform="matrix( 1, 0, 0, 1, -19.3,-38.25) ">
<use xlink:href="#icon_r_box_02_40_Layer2_0_MEMBER_2_MEMBER_0_MEMBER_3_MEMBER_1_MEMBER_1_1_STROKES"/>
</g>

<g transform="matrix( 1, 0, 0, 1, -19.3,-38.25) ">
<use xlink:href="#icon_r_box_02_40_Layer2_0_MEMBER_2_MEMBER_0_MEMBER_3_MEMBER_2_MEMBER_0_FILL"/>
</g>

<g transform="matrix( 1, 0, 0, 1, -19.3,-38.25) ">
<use xlink:href="#icon_r_box_02_40_Layer2_0_MEMBER_2_MEMBER_0_MEMBER_3_MEMBER_2_MEMBER_1_1_STROKES"/>
</g>

<g transform="matrix( 1, 0, 0, 1, -19.3,-38.25) ">
<use xlink:href="#icon_r_box_02_40_Layer2_0_MEMBER_2_MEMBER_0_MEMBER_4_MEMBER_0_MEMBER_0_FILL"/>
</g>

<g transform="matrix( 1, 0, 0, 1, -19.3,-38.25) ">
<use xlink:href="#icon_r_box_02_40_Layer2_0_MEMBER_2_MEMBER_0_MEMBER_4_MEMBER_0_MEMBER_1_1_STROKES"/>
</g>

<g transform="matrix( 1, 0, 0, 1, -19.3,-38.25) ">
<use xlink:href="#icon_r_box_02_40_Layer2_0_MEMBER_2_MEMBER_0_MEMBER_4_MEMBER_1_MEMBER_0_FILL"/>
</g>

<g transform="matrix( 1, 0, 0, 1, -19.3,-38.25) ">
<use xlink:href="#icon_r_box_02_40_Layer2_0_MEMBER_2_MEMBER_0_MEMBER_4_MEMBER_1_MEMBER_1_1_STROKES"/>
</g>

<g transform="matrix( 1, 0, 0, 1, -19.3,-38.25) ">
<use xlink:href="#icon_r_box_02_40_Layer2_0_MEMBER_2_MEMBER_0_MEMBER_4_MEMBER_2_MEMBER_0_FILL"/>
</g>

<g transform="matrix( 1, 0, 0, 1, -19.3,-38.25) ">
<use xlink:href="#icon_r_box_02_40_Layer2_0_MEMBER_2_MEMBER_0_MEMBER_4_MEMBER_2_MEMBER_1_1_STROKES"/>
</g>

<g transform="matrix( 1, 0, 0, 1, -19.3,-38.25) ">
<use xlink:href="#icon_r_box_02_40_Layer2_0_MEMBER_2_MEMBER_0_MEMBER_5_MEMBER_0_MEMBER_0_FILL"/>
</g>

<g transform="matrix( 1, 0, 0, 1, -19.3,-38.25) ">
<use xlink:href="#icon_r_box_02_40_Layer2_0_MEMBER_2_MEMBER_0_MEMBER_5_MEMBER_0_MEMBER_1_1_STROKES"/>
</g>

<g transform="matrix( 1, 0, 0, 1, -19.3,-38.25) ">
<use xlink:href="#icon_r_box_02_40_Layer2_0_MEMBER_2_MEMBER_0_MEMBER_5_MEMBER_1_MEMBER_0_FILL"/>
</g>

<g transform="matrix( 1, 0, 0, 1, -19.3,-38.25) ">
<use xlink:href="#icon_r_box_02_40_Layer2_0_MEMBER_2_MEMBER_0_MEMBER_5_MEMBER_1_MEMBER_1_1_STROKES"/>
</g>

<g transform="matrix( 1, 0, 0, 1, -19.3,-38.25) ">
<use xlink:href="#icon_r_box_02_40_Layer2_0_MEMBER_2_MEMBER_0_MEMBER_5_MEMBER_2_MEMBER_0_FILL"/>
</g>

<g transform="matrix( 1, 0, 0, 1, -19.3,-38.25) ">
<use xlink:href="#icon_r_box_02_40_Layer2_0_MEMBER_2_MEMBER_0_MEMBER_5_MEMBER_2_MEMBER_1_1_STROKES"/>
</g>

<g transform="matrix( 1, 0, 0, 1, -19.3,-38.25) ">
<use xlink:href="#icon_r_box_02_40_Layer2_0_MEMBER_2_MEMBER_0_MEMBER_6_MEMBER_0_FILL"/>

<use xlink:href="#icon_r_box_02_40_Layer2_0_MEMBER_2_MEMBER_0_MEMBER_6_MEMBER_0_1_STROKES"/>
</g>

<g transform="matrix( 1, 0, 0, 1, -19.3,-38.25) ">
<use xlink:href="#icon_r_box_02_40_Layer2_0_MEMBER_2_MEMBER_0_MEMBER_6_MEMBER_1_FILL"/>

<use xlink:href="#icon_r_box_02_40_Layer2_0_MEMBER_2_MEMBER_0_MEMBER_6_MEMBER_1_1_STROKES"/>
</g>

<g transform="matrix( 1, 0, 0, 1, -19.3,-38.25) ">
<use xlink:href="#icon_r_box_02_40_Layer2_0_MEMBER_2_MEMBER_0_MEMBER_6_MEMBER_2_MEMBER_0_MEMBER_0_1_STROKES"/>
</g>

<g transform="matrix( 1, 0, 0, 1, -19.3,-38.25) ">
<use xlink:href="#icon_r_box_02_40_Layer2_0_MEMBER_2_MEMBER_0_MEMBER_6_MEMBER_2_MEMBER_1_MEMBER_0_1_STROKES"/>
</g>

<g transform="matrix( 1, 0, 0, 1, -19.3,-38.25) ">
<use xlink:href="#icon_r_box_02_40_Layer2_0_MEMBER_2_MEMBER_1_MEMBER_0_1_STROKES"/>
</g>
</g>
</svg>
