
<svg xmlns="http://www.w3.org/2000/svg" version="1.1" xmlns:xlink="http://www.w3.org/1999/xlink" preserveAspectRatio="none" x="0px" y="0px" width="130px" height="115px" viewBox="0 0 130 115">
<defs>
<g id="icon_r_box_02_11_Layer3_0_FILL">
<path fill="#FFFFFF" fill-opacity="0" stroke="none" d="
M 65 -55
L -65 -55 -65 25 65 25 65 -55 Z"/>
</g>

<g id="icon_r_box_02_11_Layer3_1_FILL">
<path fill="#FFFFFF" fill-opacity="0" stroke="none" d="
M 65.05 49.95
L 65.05 24.95 -64.95 24.95 -64.95 49.95 65.05 49.95 Z"/>
</g>

<g id="icon_r_box_02_11_Layer3_2_FILL">
<path fill="#FFFFFF" fill-opacity="0" stroke="none" d="
M 65 -52.85
L 65 -57.85 -65 -57.85 -65 -52.85 65 -52.85 Z"/>
</g>

<g id="icon_r_box_02_11_Layer3_3_FILL">
<path fill="#FFFFFF" fill-opacity="0" stroke="none" d="
M 65 54.95
L 65 49.95 -65 49.95 -65 54.95 65 54.95 Z"/>
</g>

<g id="icon_r_box_02_11_Layer2_0_MEMBER_0_FILL">
<path fill="#F2F3F4" stroke="none" d="
M 83.3 46.75
L 83.3 28.8 7.55 28.8 7.55 46.75 83.3 46.75 Z"/>
</g>

<g id="icon_r_box_02_11_Layer2_0_MEMBER_1_MEMBER_0_FILL">
<path fill="#336290" stroke="none" d="
M 60.75 46.75
L 60.75 37.35 30.1 37.35 30.1 46.75 60.75 46.75 Z"/>
</g>

<g id="icon_r_box_02_11_Layer2_0_MEMBER_2_FILL">
<path fill="#F2F3F4" stroke="none" d="
M 75.1 28.8
L 75.1 0.5 15.75 0.5 15.75 28.8 75.1 28.8 Z"/>
</g>

<g id="icon_r_box_02_11_Layer2_2_MEMBER_0_FILL">
<path fill="#BAE6FF" stroke="none" d="
M 54.2 28.8
L 54.2 18.25 36.65 18.25 36.65 28.8 54.2 28.8 Z"/>
</g>

<g id="icon_r_box_02_11_Layer2_2_MEMBER_1_FILL">
<path fill="#8AC3E2" stroke="none" d="
M 54.2 22.6
L 54.2 21.5 36.65 21.5 36.65 22.6 54.2 22.6 Z"/>
</g>

<g id="icon_r_box_02_11_Layer2_2_MEMBER_2_FILL">
<path fill="#8AC3E2" stroke="none" d="
M 54.2 26.05
L 54.2 24.95 36.65 24.95 36.65 26.05 54.2 26.05 Z"/>
</g>

<g id="icon_r_box_02_11_Layer2_3_MEMBER_0_FILL">
<path fill="#F2F3F4" stroke="none" d="
M 51 46.75
L 51 28.8 39.85 28.8 39.85 46.75 51 46.75 Z"/>
</g>

<g id="icon_r_box_02_11_Layer2_3_MEMBER_1_MEMBER_0_FILL">
<path fill="#316DBC" stroke="none" d="
M 49.05 38.05
L 49.05 30.8 41.8 30.8 41.8 38.05 49.05 38.05 Z"/>
</g>

<g id="icon_r_box_02_11_Layer2_4_MEMBER_0_FILL">
<path fill="#336290" stroke="none" d="
M 49.05 46.75
L 49.05 40.4 41.8 40.4 41.8 46.75 49.05 46.75 Z"/>
</g>

<g id="icon_r_box_02_11_Layer2_6_MEMBER_0_FILL">
<path fill="#BAE6FF" stroke="none" d="
M 14.25 43.05
L 14.25 39.35 10.85 39.35 10.85 43.05 14.25 43.05 Z"/>
</g>

<g id="icon_r_box_02_11_Layer2_6_MEMBER_1_FILL">
<path fill="#BAE6FF" stroke="none" d="
M 20.6 43.05
L 20.6 39.35 17.2 39.35 17.2 43.05 20.6 43.05 Z"/>
</g>

<g id="icon_r_box_02_11_Layer2_6_MEMBER_2_FILL">
<path fill="#BAE6FF" stroke="none" d="
M 27 43.05
L 27 39.35 23.6 39.35 23.6 43.05 27 43.05 Z"/>
</g>

<g id="icon_r_box_02_11_Layer2_7_MEMBER_0_FILL">
<path fill="#BAE6FF" stroke="none" d="
M 76.6 39.35
L 76.6 43.05 80 43.05 80 39.35 76.6 39.35 Z"/>
</g>

<g id="icon_r_box_02_11_Layer2_7_MEMBER_1_FILL">
<path fill="#BAE6FF" stroke="none" d="
M 70.25 39.35
L 70.25 43.05 73.65 43.05 73.65 39.35 70.25 39.35 Z"/>
</g>

<g id="icon_r_box_02_11_Layer2_7_MEMBER_2_FILL">
<path fill="#BAE6FF" stroke="none" d="
M 63.85 39.35
L 63.85 43.05 67.25 43.05 67.25 39.35 63.85 39.35 Z"/>
</g>

<g id="icon_r_box_02_11_Layer2_8_FILL">
<path fill="#B7BCC0" stroke="none" d="
M 35.9 46.75
L 35.9 37.35 33.65 37.35 33.65 46.75 35.9 46.75 Z"/>
</g>

<g id="icon_r_box_02_11_Layer2_9_FILL">
<path fill="#B7BCC0" stroke="none" d="
M 54.95 37.35
L 54.95 46.75 57.2 46.75 57.2 37.35 54.95 37.35 Z"/>
</g>

<g id="icon_r_box_02_11_Layer2_10_FILL">
<path fill="#BAE6FF" stroke="none" d="
M 27 8.35
L 27 5.45 21.6 5.45 21.6 8.35 27 8.35 Z"/>
</g>

<g id="icon_r_box_02_11_Layer2_11_FILL">
<path fill="#BAE6FF" stroke="none" d="
M 27 15.95
L 27 13.1 21.6 13.1 21.6 15.95 27 15.95 Z"/>
</g>

<g id="icon_r_box_02_11_Layer2_12_FILL">
<path fill="#BAE6FF" stroke="none" d="
M 27 23.6
L 27 20.7 21.6 20.7 21.6 23.6 27 23.6 Z"/>
</g>

<g id="icon_r_box_02_11_Layer2_13_FILL">
<path fill="#BAE6FF" stroke="none" d="
M 63.85 5.45
L 63.85 8.35 69.25 8.35 69.25 5.45 63.85 5.45 Z"/>
</g>

<g id="icon_r_box_02_11_Layer2_14_FILL">
<path fill="#BAE6FF" stroke="none" d="
M 63.85 13.1
L 63.85 15.95 69.25 15.95 69.25 13.1 63.85 13.1 Z"/>
</g>

<g id="icon_r_box_02_11_Layer2_15_FILL">
<path fill="#BAE6FF" stroke="none" d="
M 63.85 20.7
L 63.85 23.6 69.25 23.6 69.25 20.7 63.85 20.7 Z"/>
</g>

<g id="icon_r_box_02_11_Layer1_0_FILL">
<path fill="#000000" stroke="none" d="
M 11.15 -21.55
Q 11.45 -21.65 11.55 -21.85 11.65 -22.1 11.6 -22.4 11.5 -22.7 11.25 -22.8 11.05 -22.9 10.7 -22.8 10.1 -22.65 9.25 -22.5 8.4 -22.35 7.5 -22.35 7.05 -22.35 6.8 -22.4 6.5 -22.45 6.35 -22.5 6.2 -22.55 6.15 -22.7 6.1 -22.8 6.1 -22.9 6.1 -23.05 6.1 -23.15 6.1 -23.25 6.1 -23.35 6.15 -23.6 6 -23.8 5.85 -24 5.5 -24.1 5.1 -24.15 4.85 -24.05 4.6 -23.95 4.55 -23.65 4.5 -23.45 4.5 -23.2 4.45 -22.95 4.45 -22.75 4.45 -22.3 4.6 -22 4.8 -21.65 5.15 -21.45 5.5 -21.25 6.05 -21.15 6.65 -21.05 7.5 -21.05 8.65 -21.05 9.55 -21.15 10.45 -21.3 11.15 -21.55
M 8.2 -25.5
Q 7.95 -25.5 7.8 -25.3 7.65 -25.15 7.65 -24.9 7.65 -24.65 7.8 -24.45 7.95 -24.3 8.2 -24.3
L 9.85 -24.3 9.85 -24.25
Q 9.85 -23.95 10.05 -23.8 10.3 -23.65 10.6 -23.65 10.95 -23.65 11.15 -23.8 11.4 -23.95 11.4 -24.25
L 11.4 -30.7
Q 11.4 -31 11.15 -31.1 10.95 -31.25 10.6 -31.25 10.3 -31.25 10.05 -31.1 9.85 -31 9.85 -30.7
L 9.85 -25.5 8.2 -25.5
M 2.7 -25.95
Q 2.85 -25.8 3.15 -25.8
L 5.2 -25.8 5.2 -24.8
Q 5.2 -24.55 5.4 -24.4 5.65 -24.2 6 -24.2 6.35 -24.2 6.6 -24.4 6.8 -24.55 6.8 -24.8
L 6.8 -25.8
Q 7.45 -25.8 8.05 -25.85 8.65 -25.95 9.1 -26.1 9.4 -26.2 9.5 -26.4 9.6 -26.6 9.55 -26.8 9.45 -27 9.3 -27.15 9.1 -27.25 8.85 -27.2 8.5 -27.1 8.05 -27.05 7.65 -27 7.15 -27
L 3.15 -27
Q 2.85 -27 2.7 -26.8 2.55 -26.65 2.55 -26.4 2.55 -26.15 2.7 -25.95
M 7.25 -31.2
Q 6.75 -31.35 6.05 -31.35 5.4 -31.35 4.85 -31.2 4.35 -31.05 4 -30.8 3.65 -30.55 3.5 -30.15 3.3 -29.8 3.3 -29.35 3.3 -28.9 3.5 -28.55 3.65 -28.15 4 -27.9 4.35 -27.65 4.85 -27.5 5.4 -27.35 6.05 -27.35 6.75 -27.35 7.25 -27.5 7.75 -27.65 8.1 -27.9 8.45 -28.15 8.65 -28.55 8.8 -28.9 8.8 -29.35 8.8 -29.8 8.65 -30.15 8.45 -30.55 8.1 -30.8 7.75 -31.05 7.25 -31.2
M 6.95 -28.75
Q 6.65 -28.5 6.05 -28.5 5.45 -28.5 5.15 -28.75 4.85 -28.95 4.85 -29.35 4.85 -29.75 5.15 -29.95 5.45 -30.2 6.05 -30.2 6.65 -30.2 6.95 -29.95 7.25 -29.75 7.25 -29.35 7.25 -28.95 6.95 -28.75
M -4.3 -25.5
Q -4.7 -25.6 -4.9 -25.45 -5.15 -25.35 -5.25 -25.05 -5.5 -24.05 -5.5 -22.8 -5.5 -22.3 -5.35 -22 -5.25 -21.65 -4.9 -21.45 -4.55 -21.25 -3.9 -21.15 -3.3 -21.05 -2.25 -21.05 -1.25 -21.05 -0.6 -21.15 0.05 -21.25 0.4 -21.45 0.75 -21.65 0.85 -22 1 -22.3 1 -22.8
L 1 -24.85
Q 1 -25.1 0.75 -25.3 0.55 -25.45 0.2 -25.45 -0.2 -25.45 -0.4 -25.3 -0.6 -25.1 -0.6 -24.85
L -0.6 -24.25 -3.8 -24.25
Q -3.75 -24.4 -3.75 -24.5 -3.75 -24.6 -3.7 -24.7 -3.65 -25 -3.8 -25.2 -3.95 -25.45 -4.3 -25.5
M -0.6 -23.15
L -0.6 -22.9
Q -0.6 -22.7 -0.65 -22.6 -0.7 -22.5 -0.9 -22.4 -1.05 -22.35 -1.35 -22.3 -1.7 -22.3 -2.25 -22.3 -2.8 -22.3 -3.15 -22.3 -3.45 -22.35 -3.6 -22.4 -3.8 -22.5 -3.85 -22.6 -3.9 -22.7 -3.9 -22.9
L -3.9 -23.15 -0.6 -23.15
M -0.6 -30.65
L -0.6 -29.4 -1.35 -29.4
Q -1.6 -29.4 -1.75 -29.2 -1.85 -29.05 -1.85 -28.75 -1.85 -28.45 -1.75 -28.3 -1.6 -28.15 -1.35 -28.15
L -0.6 -28.15 -0.6 -26.45
Q -0.6 -26.2 -0.4 -26.05 -0.2 -25.85 0.2 -25.85 0.55 -25.85 0.75 -26.05 1 -26.2 1 -26.45
L 1 -30.65
Q 1 -30.95 0.75 -31.1 0.55 -31.25 0.2 -31.25 -0.2 -31.25 -0.4 -31.1 -0.6 -30.95 -0.6 -30.65
M -6.2 -31.05
Q -6.5 -31.15 -6.75 -31.05 -7.05 -30.95 -7.1 -30.65 -7.3 -30.05 -7.4 -29.3 -7.55 -28.6 -7.55 -27.9 -7.55 -27.4 -7.4 -27.05 -7.3 -26.7 -6.95 -26.5 -6.65 -26.3 -6.15 -26.2 -5.6 -26.1 -4.85 -26.1 -4 -26.1 -3.5 -26.2 -3 -26.3 -2.65 -26.5 -2.35 -26.7 -2.25 -27.05 -2.1 -27.4 -2.1 -27.9
L -2.1 -30.45
Q -2.1 -30.75 -2.35 -30.9 -2.55 -31.05 -2.9 -31.05 -3.25 -31.05 -3.45 -30.9 -3.7 -30.75 -3.7 -30.45
L -3.7 -29.6 -5.8 -29.6
Q -5.75 -29.75 -5.7 -29.95 -5.7 -30.1 -5.6 -30.25 -5.55 -30.55 -5.7 -30.75 -5.85 -30.95 -6.2 -31.05
M -5.95 -28.05
Q -5.95 -28.15 -5.95 -28.25 -5.95 -28.35 -5.95 -28.4
L -3.7 -28.4 -3.7 -28.05
Q -3.7 -27.85 -3.7 -27.7 -3.75 -27.6 -3.85 -27.5 -4 -27.45 -4.2 -27.4 -4.45 -27.4 -4.85 -27.4 -5.2 -27.4 -5.45 -27.4 -5.65 -27.45 -5.75 -27.5 -5.9 -27.6 -5.95 -27.7 -5.95 -27.85 -5.95 -28.05 Z"/>
</g>

<path id="icon_r_box_02_11_Layer2_0_MEMBER_0_1_STROKES" stroke="#000000" stroke-width="1" stroke-linejoin="round" stroke-linecap="round" fill="none" d="
M 83.3 46.75
L 7.55 46.75 7.55 28.8 83.3 28.8 83.3 46.75 Z"/>

<path id="icon_r_box_02_11_Layer2_0_MEMBER_1_MEMBER_1_1_STROKES" stroke="#000000" stroke-width="1" stroke-linejoin="round" stroke-linecap="butt" fill="none" d="
M 60.75 46.75
L 30.1 46.75 30.1 37.35 60.75 37.35 60.75 46.75 Z"/>

<path id="icon_r_box_02_11_Layer2_0_MEMBER_2_1_STROKES" stroke="#000000" stroke-width="1" stroke-linejoin="round" stroke-linecap="round" fill="none" d="
M 75.1 0.5
L 15.75 0.5 15.75 28.8 75.1 28.8 75.1 0.5 Z"/>

<path id="icon_r_box_02_11_Layer2_1_MEMBER_0_1_STROKES" stroke="#000000" stroke-width="1" stroke-linejoin="round" stroke-linecap="round" fill="none" d="
M 0.5 46.75
L 90.35 46.75"/>

<path id="icon_r_box_02_11_Layer2_2_MEMBER_0_1_STROKES" stroke="#000000" stroke-width="1" stroke-linejoin="round" stroke-linecap="round" fill="none" d="
M 54.2 28.8
L 36.65 28.8 36.65 18.25 54.2 18.25 54.2 28.8 Z"/>

<path id="icon_r_box_02_11_Layer2_2_MEMBER_3_MEMBER_0_MEMBER_0_1_STROKES" stroke="#000000" stroke-width="1" stroke-linejoin="round" stroke-linecap="round" fill="none" d="
M 40.1 18.25
L 40.1 28.8"/>

<path id="icon_r_box_02_11_Layer2_2_MEMBER_3_MEMBER_1_MEMBER_0_1_STROKES" stroke="#000000" stroke-width="1" stroke-linejoin="round" stroke-linecap="round" fill="none" d="
M 43.65 18.25
L 43.65 28.8"/>

<path id="icon_r_box_02_11_Layer2_2_MEMBER_3_MEMBER_2_MEMBER_0_1_STROKES" stroke="#000000" stroke-width="1" stroke-linejoin="round" stroke-linecap="round" fill="none" d="
M 47.2 18.25
L 47.2 28.8"/>

<path id="icon_r_box_02_11_Layer2_2_MEMBER_3_MEMBER_3_MEMBER_0_1_STROKES" stroke="#000000" stroke-width="1" stroke-linejoin="round" stroke-linecap="round" fill="none" d="
M 50.75 18.25
L 50.75 28.8"/>

<path id="icon_r_box_02_11_Layer2_2_MEMBER_4_1_STROKES" stroke="#000000" stroke-width="1" stroke-linejoin="round" stroke-linecap="round" fill="none" d="
M 54.2 28.8
L 36.65 28.8 36.65 18.25 54.2 18.25 54.2 28.8 Z"/>

<path id="icon_r_box_02_11_Layer2_3_MEMBER_0_1_STROKES" stroke="#000000" stroke-width="1" stroke-linejoin="round" stroke-linecap="round" fill="none" d="
M 51 46.75
L 39.85 46.75 39.85 28.8 51 28.8 51 46.75 Z"/>

<path id="icon_r_box_02_11_Layer2_3_MEMBER_1_MEMBER_1_1_STROKES" stroke="#000000" stroke-width="1" stroke-linejoin="round" stroke-linecap="butt" fill="none" d="
M 49.05 38.05
L 41.8 38.05 41.8 30.8 49.05 30.8 49.05 38.05 Z"/>

<path id="icon_r_box_02_11_Layer2_3_MEMBER_2_MEMBER_0_1_STROKES" stroke="#FFC660" stroke-width="1" stroke-linejoin="round" stroke-linecap="butt" fill="none" d="
M 45.4 32.9
L 43.8 34.05 44.45 35.95 46.4 35.95 47.05 34.05 45.4 32.9 Z"/>

<path id="icon_r_box_02_11_Layer2_4_MEMBER_1_1_STROKES" stroke="#000000" stroke-width="1" stroke-linejoin="round" stroke-linecap="butt" fill="none" d="
M 49.05 46.75
L 41.8 46.75 41.8 40.4 49.05 40.4 49.05 46.75 Z"/>

<path id="icon_r_box_02_11_Layer2_5_1_STROKES" stroke="#000000" stroke-width="1" stroke-linejoin="round" stroke-linecap="butt" fill="none" d="
M 45.4 40.4
L 45.4 46.75"/>

<path id="icon_r_box_02_11_Layer2_6_MEMBER_0_1_STROKES" stroke="#000000" stroke-width="1" stroke-linejoin="round" stroke-linecap="round" fill="none" d="
M 14.25 43.05
L 10.85 43.05 10.85 39.35 14.25 39.35 14.25 43.05 Z"/>

<path id="icon_r_box_02_11_Layer2_6_MEMBER_1_1_STROKES" stroke="#000000" stroke-width="1" stroke-linejoin="round" stroke-linecap="round" fill="none" d="
M 20.6 43.05
L 17.2 43.05 17.2 39.35 20.6 39.35 20.6 43.05 Z"/>

<path id="icon_r_box_02_11_Layer2_6_MEMBER_2_1_STROKES" stroke="#000000" stroke-width="1" stroke-linejoin="round" stroke-linecap="round" fill="none" d="
M 27 43.05
L 23.6 43.05 23.6 39.35 27 39.35 27 43.05 Z"/>

<path id="icon_r_box_02_11_Layer2_7_MEMBER_0_1_STROKES" stroke="#000000" stroke-width="1" stroke-linejoin="round" stroke-linecap="round" fill="none" d="
M 76.6 43.05
L 80 43.05 80 39.35 76.6 39.35 76.6 43.05 Z"/>

<path id="icon_r_box_02_11_Layer2_7_MEMBER_1_1_STROKES" stroke="#000000" stroke-width="1" stroke-linejoin="round" stroke-linecap="round" fill="none" d="
M 70.25 43.05
L 73.65 43.05 73.65 39.35 70.25 39.35 70.25 43.05 Z"/>

<path id="icon_r_box_02_11_Layer2_7_MEMBER_2_1_STROKES" stroke="#000000" stroke-width="1" stroke-linejoin="round" stroke-linecap="round" fill="none" d="
M 63.85 43.05
L 67.25 43.05 67.25 39.35 63.85 39.35 63.85 43.05 Z"/>

<path id="icon_r_box_02_11_Layer2_8_1_STROKES" stroke="#000000" stroke-width="1" stroke-linejoin="round" stroke-linecap="round" fill="none" d="
M 35.9 46.75
L 33.65 46.75 33.65 37.35 35.9 37.35 35.9 46.75 Z"/>

<path id="icon_r_box_02_11_Layer2_9_1_STROKES" stroke="#000000" stroke-width="1" stroke-linejoin="round" stroke-linecap="round" fill="none" d="
M 54.95 46.75
L 57.2 46.75 57.2 37.35 54.95 37.35 54.95 46.75 Z"/>

<path id="icon_r_box_02_11_Layer2_10_1_STROKES" stroke="#000000" stroke-width="1" stroke-linejoin="round" stroke-linecap="round" fill="none" d="
M 27 5.45
L 21.6 5.45 21.6 8.35 27 8.35 27 5.45 Z"/>

<path id="icon_r_box_02_11_Layer2_11_1_STROKES" stroke="#000000" stroke-width="1" stroke-linejoin="round" stroke-linecap="round" fill="none" d="
M 27 13.1
L 21.6 13.1 21.6 15.95 27 15.95 27 13.1 Z"/>

<path id="icon_r_box_02_11_Layer2_12_1_STROKES" stroke="#000000" stroke-width="1" stroke-linejoin="round" stroke-linecap="round" fill="none" d="
M 27 20.7
L 21.6 20.7 21.6 23.6 27 23.6 27 20.7 Z"/>

<path id="icon_r_box_02_11_Layer2_13_1_STROKES" stroke="#000000" stroke-width="1" stroke-linejoin="round" stroke-linecap="round" fill="none" d="
M 63.85 5.45
L 69.25 5.45 69.25 8.35 63.85 8.35 63.85 5.45 Z"/>

<path id="icon_r_box_02_11_Layer2_14_1_STROKES" stroke="#000000" stroke-width="1" stroke-linejoin="round" stroke-linecap="round" fill="none" d="
M 63.85 13.1
L 69.25 13.1 69.25 15.95 63.85 15.95 63.85 13.1 Z"/>

<path id="icon_r_box_02_11_Layer2_15_1_STROKES" stroke="#000000" stroke-width="1" stroke-linejoin="round" stroke-linecap="round" fill="none" d="
M 63.85 20.7
L 69.25 20.7 69.25 23.6 63.85 23.6 63.85 20.7 Z"/>
</defs>

<g transform="matrix( 1, 0, 0, 0.999603271484375, 65,60) ">
<g transform="matrix( 1, 0, 0, 1, 0,0) ">
<use xlink:href="#icon_r_box_02_11_Layer3_0_FILL"/>
</g>

<g transform="matrix( 1, 0, 0, 1, -0.05,0.05) ">
<use xlink:href="#icon_r_box_02_11_Layer3_1_FILL"/>
</g>

<g transform="matrix( 1, 0, 0, 1, 0,-2.15) ">
<use xlink:href="#icon_r_box_02_11_Layer3_2_FILL"/>
</g>

<g transform="matrix( 1, 0, 0, 1, 0,0.05) ">
<use xlink:href="#icon_r_box_02_11_Layer3_3_FILL"/>
</g>

<g transform="matrix( 1, 0, 0, 1, -43.4,-35.95) ">
<use xlink:href="#icon_r_box_02_11_Layer2_0_MEMBER_0_FILL"/>

<use xlink:href="#icon_r_box_02_11_Layer2_0_MEMBER_0_1_STROKES"/>
</g>

<g transform="matrix( 1, 0, 0, 1, -43.4,-35.95) ">
<use xlink:href="#icon_r_box_02_11_Layer2_0_MEMBER_1_MEMBER_0_FILL"/>
</g>

<g transform="matrix( 1, 0, 0, 1, -43.4,-35.95) ">
<use xlink:href="#icon_r_box_02_11_Layer2_0_MEMBER_1_MEMBER_1_1_STROKES"/>
</g>

<g transform="matrix( 1, 0, 0, 1, -43.4,-35.95) ">
<use xlink:href="#icon_r_box_02_11_Layer2_0_MEMBER_2_FILL"/>

<use xlink:href="#icon_r_box_02_11_Layer2_0_MEMBER_2_1_STROKES"/>
</g>

<g transform="matrix( 1, 0, 0, 1, -43.4,-35.95) ">
<use xlink:href="#icon_r_box_02_11_Layer2_1_MEMBER_0_1_STROKES"/>
</g>

<g transform="matrix( 1, 0, 0, 1, -43.4,-35.95) ">
<use xlink:href="#icon_r_box_02_11_Layer2_2_MEMBER_0_FILL"/>

<use xlink:href="#icon_r_box_02_11_Layer2_2_MEMBER_0_1_STROKES"/>
</g>

<g transform="matrix( 1, 0, 0, 1, -43.4,-35.95) ">
<use xlink:href="#icon_r_box_02_11_Layer2_2_MEMBER_1_FILL"/>
</g>

<g transform="matrix( 1, 0, 0, 1, -43.4,-35.95) ">
<use xlink:href="#icon_r_box_02_11_Layer2_2_MEMBER_2_FILL"/>
</g>

<g transform="matrix( 1, 0, 0, 1, -43.4,-35.95) ">
<use xlink:href="#icon_r_box_02_11_Layer2_2_MEMBER_3_MEMBER_0_MEMBER_0_1_STROKES"/>
</g>

<g transform="matrix( 1, 0, 0, 1, -43.4,-35.95) ">
<use xlink:href="#icon_r_box_02_11_Layer2_2_MEMBER_3_MEMBER_1_MEMBER_0_1_STROKES"/>
</g>

<g transform="matrix( 1, 0, 0, 1, -43.4,-35.95) ">
<use xlink:href="#icon_r_box_02_11_Layer2_2_MEMBER_3_MEMBER_2_MEMBER_0_1_STROKES"/>
</g>

<g transform="matrix( 1, 0, 0, 1, -43.4,-35.95) ">
<use xlink:href="#icon_r_box_02_11_Layer2_2_MEMBER_3_MEMBER_3_MEMBER_0_1_STROKES"/>
</g>

<g transform="matrix( 1, 0, 0, 1, -43.4,-35.95) ">
<use xlink:href="#icon_r_box_02_11_Layer2_2_MEMBER_4_1_STROKES"/>
</g>

<g transform="matrix( 1, 0, 0, 1, -43.4,-35.95) ">
<use xlink:href="#icon_r_box_02_11_Layer2_3_MEMBER_0_FILL"/>

<use xlink:href="#icon_r_box_02_11_Layer2_3_MEMBER_0_1_STROKES"/>
</g>

<g transform="matrix( 1, 0, 0, 1, -43.4,-35.95) ">
<use xlink:href="#icon_r_box_02_11_Layer2_3_MEMBER_1_MEMBER_0_FILL"/>
</g>

<g transform="matrix( 1, 0, 0, 1, -43.4,-35.95) ">
<use xlink:href="#icon_r_box_02_11_Layer2_3_MEMBER_1_MEMBER_1_1_STROKES"/>
</g>

<g transform="matrix( 1, 0, 0, 1, -43.4,-35.95) ">
<use xlink:href="#icon_r_box_02_11_Layer2_3_MEMBER_2_MEMBER_0_1_STROKES"/>
</g>

<g transform="matrix( 1, 0, 0, 1, -43.4,-35.95) ">
<use xlink:href="#icon_r_box_02_11_Layer2_4_MEMBER_0_FILL"/>
</g>

<g transform="matrix( 1, 0, 0, 1, -43.4,-35.95) ">
<use xlink:href="#icon_r_box_02_11_Layer2_4_MEMBER_1_1_STROKES"/>
</g>

<g transform="matrix( 1, 0, 0, 1, -43.4,-35.95) ">
<use xlink:href="#icon_r_box_02_11_Layer2_5_1_STROKES"/>
</g>

<g transform="matrix( 1, 0, 0, 1, -43.4,-35.95) ">
<use xlink:href="#icon_r_box_02_11_Layer2_6_MEMBER_0_FILL"/>

<use xlink:href="#icon_r_box_02_11_Layer2_6_MEMBER_0_1_STROKES"/>
</g>

<g transform="matrix( 1, 0, 0, 1, -43.4,-35.95) ">
<use xlink:href="#icon_r_box_02_11_Layer2_6_MEMBER_1_FILL"/>

<use xlink:href="#icon_r_box_02_11_Layer2_6_MEMBER_1_1_STROKES"/>
</g>

<g transform="matrix( 1, 0, 0, 1, -43.4,-35.95) ">
<use xlink:href="#icon_r_box_02_11_Layer2_6_MEMBER_2_FILL"/>

<use xlink:href="#icon_r_box_02_11_Layer2_6_MEMBER_2_1_STROKES"/>
</g>

<g transform="matrix( 1, 0, 0, 1, -43.4,-35.95) ">
<use xlink:href="#icon_r_box_02_11_Layer2_7_MEMBER_0_FILL"/>

<use xlink:href="#icon_r_box_02_11_Layer2_7_MEMBER_0_1_STROKES"/>
</g>

<g transform="matrix( 1, 0, 0, 1, -43.4,-35.95) ">
<use xlink:href="#icon_r_box_02_11_Layer2_7_MEMBER_1_FILL"/>

<use xlink:href="#icon_r_box_02_11_Layer2_7_MEMBER_1_1_STROKES"/>
</g>

<g transform="matrix( 1, 0, 0, 1, -43.4,-35.95) ">
<use xlink:href="#icon_r_box_02_11_Layer2_7_MEMBER_2_FILL"/>

<use xlink:href="#icon_r_box_02_11_Layer2_7_MEMBER_2_1_STROKES"/>
</g>

<g transform="matrix( 1, 0, 0, 1, -43.4,-35.95) ">
<use xlink:href="#icon_r_box_02_11_Layer2_8_FILL"/>

<use xlink:href="#icon_r_box_02_11_Layer2_8_1_STROKES"/>
</g>

<g transform="matrix( 1, 0, 0, 1, -43.4,-35.95) ">
<use xlink:href="#icon_r_box_02_11_Layer2_9_FILL"/>

<use xlink:href="#icon_r_box_02_11_Layer2_9_1_STROKES"/>
</g>

<g transform="matrix( 1, 0, 0, 1, -43.4,-35.95) ">
<use xlink:href="#icon_r_box_02_11_Layer2_10_FILL"/>

<use xlink:href="#icon_r_box_02_11_Layer2_10_1_STROKES"/>
</g>

<g transform="matrix( 1, 0, 0, 1, -43.4,-35.95) ">
<use xlink:href="#icon_r_box_02_11_Layer2_11_FILL"/>

<use xlink:href="#icon_r_box_02_11_Layer2_11_1_STROKES"/>
</g>

<g transform="matrix( 1, 0, 0, 1, -43.4,-35.95) ">
<use xlink:href="#icon_r_box_02_11_Layer2_12_FILL"/>

<use xlink:href="#icon_r_box_02_11_Layer2_12_1_STROKES"/>
</g>

<g transform="matrix( 1, 0, 0, 1, -43.4,-35.95) ">
<use xlink:href="#icon_r_box_02_11_Layer2_13_FILL"/>

<use xlink:href="#icon_r_box_02_11_Layer2_13_1_STROKES"/>
</g>

<g transform="matrix( 1, 0, 0, 1, -43.4,-35.95) ">
<use xlink:href="#icon_r_box_02_11_Layer2_14_FILL"/>

<use xlink:href="#icon_r_box_02_11_Layer2_14_1_STROKES"/>
</g>

<g transform="matrix( 1, 0, 0, 1, -43.4,-35.95) ">
<use xlink:href="#icon_r_box_02_11_Layer2_15_FILL"/>

<use xlink:href="#icon_r_box_02_11_Layer2_15_1_STROKES"/>
</g>

<g transform="matrix( 1, 0, 0, 1, 0,0) ">
<use xlink:href="#icon_r_box_02_11_Layer1_0_FILL"/>
</g>
</g>
</svg>
