
<svg xmlns="http://www.w3.org/2000/svg" version="1.1" xmlns:xlink="http://www.w3.org/1999/xlink" preserveAspectRatio="none" x="0px" y="0px" width="130px" height="115px" viewBox="0 0 130 115">
<defs>
<filter id="Filter_1" x="-30.228493862393254%" y="-20.554628190905326%" width="160.4569877247865%" height="141.10925638181067%" color-interpolation-filters="sRGB">
<feFlood flood-color="#000000" flood-opacity="1" in="SourceGraphic" result="result1"/>

<feGaussianBlur in="SourceGraphic" stdDeviation="1.6666666666666667,1.6666666666666667" result="result2"/>

<feComposite in2="result2" in="result1" operator="in" result="result3"/>

<feComposite in2="result3" in="SourceGraphic" operator="over" result="result4"/>
</filter>

<g id="icon_r_box_02_11_Layer3_0_FILL">
<path fill="#FFFFFF" fill-opacity="0" stroke="none" d="
M 65 -55
L -65 -55 -65 25 65 25 65 -55 Z"/>
</g>

<g id="icon_r_box_02_11_Layer3_1_FILL">
<path fill="#FFFFFF" fill-opacity="0" stroke="none" d="
M 65.05 49.95
L 65.05 24.95 -64.95 24.95 -64.95 49.95 65.05 49.95 Z"/>
</g>

<g id="icon_r_box_02_11_Layer3_2_FILL">
<path fill="#FFFFFF" fill-opacity="0" stroke="none" d="
M 65 -52.85
L 65 -57.85 -65 -57.85 -65 -52.85 65 -52.85 Z"/>
</g>

<g id="icon_r_box_02_11_Layer3_3_FILL">
<path fill="#FFFFFF" fill-opacity="0" stroke="none" d="
M 65 54.95
L 65 49.95 -65 49.95 -65 54.95 65 54.95 Z"/>
</g>

<g id="Duplicate_Items_Folder_skawkdkdl_0_Layer1_0_FILL">
<path fill="#FFFFFF" stroke="none" d="
M 42.4 15.45
Q 43.95 12.65 43.65 10.7 43.25 8.3 40.45 6.3 37.4 4.1 31.25 2.2 25.3 0.35 20.1 1.2 14.9 2.1 13.15 5.25
L 11.95 5.45
Q 10.55 5.85 9.5 6.7 7.7 8.25 6.55 11.9
L 6 14.05
Q 5.5 16.7 6.05 19.35 6.6 22 8.2 23.9 8.966015625 24.8095703125 9.65 25.2 9.4822265625 27.2888671875 10.65 28.7 11.65 29.9 13.5 30.35 14.85 30.7 16.3 30.45
L 17.45 30.15
Q 18.5 31.3 18.95 31.65 20.1 32.65 21.7 33.4
L 19.55 33.4
Q 17.05 33.55 15.25 34.15 13.4 34.75 12.3 36.85 11.75 37.95 11.4 39.95
L 11.25 40.5
Q 9.1396484375 43.233984375 7.5 48.2 4.75 56.7 5.25 67.8 5.8826171875 67.9025390625 6.5 67.95
L 6.35 69.15
Q 5.95 72.3 6.4 73.25 6.95 74.55 8.35 75.3 9.7013671875 76.041015625 11.25 75.9 11.2216796875 76.053125 11.2 76.2 10.1 83.85 9.75 87.1 11.17109375 87.5630859375 12.75 87.9
L 12.4 90.7 12 93.9
Q 11.5 95 11.25 96.7 11.05 98.2 11.2 99.35 18.8 100.2 21.5 99.35 22.55 95.3 18.8 94.2
L 19.25 91.35 19.7 88.7
Q 19.9544921875 88.741796875 20.2 88.75 22.1017578125 88.8466796875 23.65 88.8
L 25.2 79.4 25.25 88.7
Q 26.4943359375 88.875 27.8 88.95
L 27.35 96.4
Q 27.2 98.35 27.25 99.55 37 100.2 37.8 99.55 38.6 95.25 33.7 94.7
L 34.35 89.05
Q 36.5451171875 88.92265625 37.9 88.55 38.25 84.35 38.4 73.25
L 38.4 66.4
Q 39.3716796875 66.2498046875 40 66.05
L 38.75 54.6
Q 40.65 56.05 43.2 55.7 45.15 55.45 46.65 54.4 48.1 53.4 53.8 47.15
L 52.85 46.2
Q 53.629296875 45.7685546875 54.15 45
L 54.8 43.5
Q 55.5 42.75 55.9 42.25 56.65 41.45 56.7 41.2 56.75 40.95 56.5 40.6
L 56.2 40.25 56.5 39.5
Q 56.55 39.1 56.3 38.9
L 56 38.7
Q 56.25 38.1 55.9 37.7 55.75 37.5 49.6 43.05
L 54.95 37.45
Q 55.1 37 54.55 36.75 54.1 36.6 53.15 37.15 52.2 37.7 51.35 38.55 49.4009765625 40.4255859375 48.6 42
L 48.25 41.7 43.5 46.55
Q 39.4 40.4 37 38.75 36.9 38.65 36.8 38.6 36.4 38.35 36 38.1 35.65 37.85 35.25 37.65 34.35 35.75 32.1 35.3 33.15 35.2 34.05 35.05 35.2 34.85 36.25 34.45 38.35 33.7 40.15 31.9 42.65 29.35 41.8 24.15
L 40.75 17.9 42.4 15.45 Z"/>
</g>

<g id="Duplicate_Items_Folder_skawkdkdl_0_Layer0_0_FILL">
<path fill="#5A8300" stroke="none" d="
M 22.55 33.8
L 21.7 33.4 19.55 33.4
Q 17.05 33.55 15.25 34.15 13.4 34.75 12.3 36.85 11.75 37.95 11.4 39.95
L 7.75 54.7
Q 6.35 60.6 7.15 62.65 7.7 64.05 10.35 65.05
L 12.9 65.75
Q 13.35 63.55 17.45 49.45 21.8 34.6 22.3 34.55
L 22.55 33.8 Z"/>
</g>

<g id="Duplicate_Items_Folder_skawkdkdl_0_Layer0_1_FILL">
<path fill="#FFBE8C" stroke="none" d="
M 27.7 91.5
L 34.05 91.75 35.15 82.35
Q 32.15 82.65 28.1 82.05
L 27.7 91.5
M 17.55 82.1
Q 15.8 81.9 13.65 81.3
L 12.8 87.5 12.4 90.7 19.25 91.35 19.75 88.5 20.8 82.25
Q 19 82.35 17.55 82.1 Z"/>

<path fill="#EAEBFF" stroke="none" d="
M 27.55 94.7
Q 30.45 95.15 33.7 94.7
L 34.05 91.75 27.7 91.5 27.55 94.7
M 12.4 90.7
L 12 93.9
Q 15.5 94.85 18.8 94.2
L 19.25 91.35 12.4 90.7 Z"/>

<path fill="#6469CA" stroke="none" d="
M 33.7 94.7
Q 30.45 95.15 27.55 94.7
L 27.35 96.4
Q 27.2 98.35 27.25 99.55 37 100.2 37.8 99.55 38.6 95.25 33.7 94.7
M 12 93.9
Q 11.5 95 11.25 96.7 11.05 98.2 11.2 99.35 18.8 100.2 21.5 99.35 22.55 95.3 18.8 94.2 15.5 94.85 12 93.9 Z"/>
</g>

<g id="Duplicate_Items_Folder_skawkdkdl_0_Layer0_2_FILL">
<path fill="#FFBE8C" stroke="none" d="
M 55.3 38.4
L 54.75 39.8
Q 54.7734375 39.82734375 54.8 39.85 55.05 40.1 55 40.4 54.95 40.6 54 41.15 52.9 41.75 52.7 41.95
L 52.5 43.1
Q 52.05 44.4 50.7 45
L 52 46.1
Q 53.9 45.3 54.5 43.55
L 54.75 41.95
Q 55.25 41 55.5 40.45 56 39.45 56 39.2 56 38.95 55.65 38.65
L 55.3 38.4
M 55 37.05
L 54.65 36.95 54.5 37.25
Q 53.8 38.3 53.35 39.65 53.5908203125 39.6173828125 53.8 39.6 54.40078125 39.5537109375 54.75 39.8
L 55.3 38.4 55.4 37.6
Q 55.35 37.2 55 37.05
M 53.2 36.65
Q 53.35 36.35 53.35 36.05 53.35 35.55 52.75 35.45 52.3 35.4 51.5 36.2 50.75 36.95 50.15 38 48.25 41.15 48.25 43.3
L 50.7 45
Q 52.05 44.4 52.5 43.1
L 52.7 41.95
Q 52.9 41.75 54 41.15 54.95 40.6 55 40.4 55.05 40.1 54.8 39.85 54.7734375 39.82734375 54.75 39.8 54.40078125 39.5537109375 53.8 39.6 53.5908203125 39.6173828125 53.35 39.65 52.92109375 39.789453125 52.4 40.05
L 51.7 40.45
Q 52.1 38.7 53.2 36.65
M 53.35 36.05
Q 53.35 36.35 53.2 36.65 52.1 38.7 51.7 40.45
L 52.4 40.05
Q 52.92109375 39.789453125 53.35 39.65 53.8 38.3 54.5 37.25
L 54.65 36.95
Q 54.75 36.35 54.35 36.05 54.15 35.85 53.7 35.95
L 53.35 36.05 Z"/>
</g>

<g id="Duplicate_Items_Folder_skawkdkdl_0_Layer0_3_FILL">
<path fill="#6469CA" stroke="none" d="
M 38.45 63.05
Q 33.55 64.15 27.95 64.15 18.35 64.15 13.55 62.25
L 12.9 65.55
Q 12.35 68.4 11.2 76.2 10.1 83.85 9.75 87.1 14.2 88.55 20.2 88.75 22.1017578125 88.8466796875 23.65 88.8
L 25.2 79.4 25.25 88.7
Q 28.45 89.15 32.1 89.15 35.9 89.1 37.9 88.55 38.25 84.35 38.4 73.25
L 38.45 63.05
M 25.65 78.4
L 26.85 69.9 25.65 78.4 Z"/>
</g>

<g id="Duplicate_Items_Folder_skawkdkdl_0_Layer0_4_FILL">
<path fill="#EAEBFF" stroke="none" d="
M 31.45 36.25
Q 32.05 37.95 31.5 39.05 30.9 40.15 29.3 40.05 24.1 39.85 20.95 36.5 23.053125 41.4474609375 21.2 47.05 19.1 53.5 13.55 55.3
L 11.95 65.55
Q 16.7 67.3 27.95 67.35 32.75 67.4 36.85 66.7 38.9 66.4 40 66.05
L 38.75 54.6 38.5 53.25
Q 35.6 43.95 31.45 36.25 Z"/>

<path fill="#3E5B00" stroke="none" d="
M 36 38.1
Q 35.65 37.85 35.25 37.65 33.45 36.65 31.45 36.25 35.6 43.95 38.5 53.25
L 38.65 51.5
Q 38.45 42.35 36 38.1
M 20.2 34.95
Q 17.8 35.5 15.95 36.4
L 14.4 51.9 13.55 55.3
Q 19.1 53.5 21.2 47.05 23.053125 41.4474609375 20.95 36.5 20.6349609375 35.7232421875 20.2 34.95 Z"/>

<path fill="#F34A42" stroke="none" d="
M 31.45 36.25
Q 31.4 36.15 31.2 36.1 30.95 36.15 30.8 36.1
L 30.25 38.3
Q 24.9 38.05 22.05 35.35
L 22.3 34.55
Q 21.2 34.7 20.2 34.95 20.6349609375 35.7232421875 20.95 36.5 24.1 39.85 29.3 40.05 30.9 40.15 31.5 39.05 32.05 37.95 31.45 36.25
M 48.25 41.7
L 43.5 46.55
Q 39.4 40.4 37 38.75 36.9 38.65 36.8 38.6 36.4 38.35 36 38.1 38.45 42.35 38.65 51.5
L 38.5 53.25 38.75 54.6
Q 40.65 56.05 43.2 55.7 45.15 55.45 46.65 54.4 48.1 53.4 53.8 47.15
L 48.25 41.7 Z"/>

<path fill="#FBA25D" stroke="none" d="
M 30.8 36.1
L 31 35.4
Q 28.55 35.4 25.95 34.8 24 34.3 22.55 33.8
L 22.3 34.55 22.05 35.35
Q 24.9 38.05 30.25 38.3
L 30.8 36.1 Z"/>

<path fill="#5A8300" stroke="none" d="
M 31 35.4
L 30.8 36.1
Q 30.95 36.15 31.2 36.1 31.4 36.15 31.45 36.25 33.45 36.65 35.25 37.65 34.35 35.75 32.1 35.3 31.55 35.35 31 35.4 Z"/>

<path fill="#FFBE8C" stroke="none" d="
M 41.8 24.15
L 40.75 17.9 40.2 14.55
Q 37.55 10.9 31.4 9.55 28.35 8.85 25.8 8.9 25.45 10.9 24.25 13.5 21.8 18.7 17.5 21.65 17.2 22.6 17.05 24.4 16.95 25.05 15.8 23.75 15.5 23.45 15.15 22.75
L 14.85 22.1
Q 13.1 21.45 11.55 22.15 9.85 22.95 9.65 25.1 9.6447265625 25.1578125 9.65 25.2 9.4822265625 27.2888671875 10.65 28.7 11.65 29.9 13.5 30.35 14.85 30.7 16.3 30.45
L 17.45 30.15
Q 18.5 31.3 18.95 31.65 20.1 32.65 21.7 33.4
L 22.55 33.8
Q 24 34.3 25.95 34.8 28.55 35.4 31 35.4 31.55 35.35 32.1 35.3 33.15 35.2 34.05 35.05 35.2 34.85 36.25 34.45 38.35 33.7 40.15 31.9 42.65 29.35 41.8 24.15 Z"/>

<path fill="#412C28" stroke="none" d="
M 42.4 15.45
Q 43.95 12.65 43.65 10.7 43.25 8.3 40.45 6.3 37.4 4.1 31.25 2.2 25.3 0.35 20.1 1.2 14.9 2.1 13.15 5.25
L 11.95 5.45
Q 10.55 5.85 9.5 6.7 7.7 8.25 6.55 11.9
L 6 14.05
Q 5.5 16.7 6.05 19.35 6.6 22 8.2 23.9 8.966015625 24.8095703125 9.65 25.2 9.6447265625 25.1578125 9.65 25.1 9.85 22.95 11.55 22.15 13.1 21.45 14.85 22.1
L 15.15 22.75
Q 15.5 23.45 15.8 23.75 16.95 25.05 17.05 24.4 17.2 22.6 17.5 21.65 21.8 18.7 24.25 13.5 25.45 10.9 25.8 8.9 28.35 8.85 31.4 9.55 37.55 10.9 40.2 14.55
L 40.75 17.9 42.4 15.45 Z"/>
</g>

<g id="Duplicate_Items_Folder_skawkdkdl_0_Layer0_5_FILL">
<path fill="#FBA25D" stroke="none" d="
M 31.45 24.15
Q 30.9662109375 26.591015625 29.9 28.45 33.2 29 34.05 27.25 34.75 25.9 34.05 24.8 33.35 23.65 31.45 24.15 Z"/>
</g>

<g id="Duplicate_Items_Folder_skawkdkdl_0_Layer0_6_STROKES_1_FILL">
<path fill="#76544E" stroke="none" d="
M 17.95 14.55
L 17.85 14.5 17.7 14.5 17.65 14.45 16.9 14.45 16.6 14.5 16.5 14.55 16.35 14.6 15.9 14.8 15.75 14.95 15.65 15 15.5 15.15 15.45 15.25
Q 15.15 15.75 15.6 16 15.7 16.1 16 16.1
L 16.1 16.05 16.35 16.05 16.5 16 16.55 16 16.65 15.95 16.8 15.9 16.9 15.9 17 15.85 17.15 15.8 17.25 15.8 17.35 15.75 17.8 15.6 18 15.5 18.05 15.5
Q 18.55 15.3 18.35 14.85 18.15 14.55 17.95 14.55 Z"/>
</g>

<g id="Duplicate_Items_Folder_skawkdkdl_0_Layer0_7_STROKES_1_FILL">
<path fill="#76544E" stroke="none" d="
M 8.75 15.45
L 8.3 15.45 8.2 15.5 8.1 15.5 8 15.55
Q 7.5 15.65 7.6 16.15 7.7 16.45 7.9 16.5
L 7.95 16.5 8.15 16.6 8.2 16.6 8.2 16.65 8.25 16.65 8.85 16.85 8.9 16.9 9 16.9 9.1 16.95 9.2 16.95 9.2 17 9.4 17 9.45 17.05 9.65 17.05
Q 10.15 17.2 10.35 16.7
L 10.3 16.3 10.25 16.2 10.1 16.05 10.1 16 10 15.95 9.85 15.8 9.45 15.6 9.4 15.6 9.35 15.55 9.25 15.55 8.75 15.45 Z"/>
</g>

<g id="Duplicate_Items_Folder_skawkdkdl_0_Layer0_9_FILL">
<path fill="#FF9A7B" stroke="none" d="
M 26.95 26.65
Q 26.95 25.95 26 25.45 25.1 25 23.75 25 22.4 25 21.45 25.45 20.55 25.95 20.55 26.65 20.55 27.35 21.45 27.8 22.4 28.3 23.75 28.3 25.1 28.3 26 27.8 26.95 27.35 26.95 26.65 Z"/>
</g>

<g id="Duplicate_Items_Folder_skawkdkdl_0_Layer0_10_FILL">
<path fill="#000000" stroke="none" d="
M 18.9 22.25
Q 18.9 21.3 18.55 20.6 18.2 19.9 17.7 19.9 17.2 19.9 16.85 20.6 16.5 21.3 16.5 22.25 16.5 23.2 16.85 23.9 17.2 24.6 17.7 24.6 18.2 24.6 18.55 23.9 18.9 23.2 18.9 22.25 Z"/>
</g>

<g id="Duplicate_Items_Folder_skawkdkdl_0_Layer0_11_FILL">
<path fill="#FF9A7B" stroke="none" d="
M 41.8 24.1
Q 41.2951171875 24 40.65 24 39.6 24 38.95 24.35 38.25 24.7 38.25 25.25 38.25 25.75 38.95 26.1 39.6 26.5 40.65 26.5 41.4 26.5 42 26.3 42 25.25 41.8 24.15
L 41.8 24.1 Z"/>
</g>

<g id="Duplicate_Items_Folder_skawkdkdl_0_Layer0_12_FILL">
<path fill="#000000" stroke="none" d="
M 10.05 22.9
Q 10.05 21.9 9.6 21.15 9.15 20.4 8.55 20.4 7.9 20.4 7.45 21.15 7.05 21.9 7.05 22.9 7.05 23.95 7.45 24.65 7.9 25.4 8.55 25.4 9.15 25.4 9.6 24.65 10.05 23.95 10.05 22.9 Z"/>
</g>

<g id="Duplicate_Items_Folder_skawkdkdl_0_Layer0_15_FILL">
<path fill="#76544E" stroke="none" d="
M 35.6 5.6
Q 37.0654296875 5.1419921875 37.75 4.7 35.59765625 3.6322265625 32.55 2.6 31.559375 4.290625 29.45 5.65 28.3 6.4 27.4 6.8 30.9 7 35.6 5.6 Z"/>
</g>

<g id="Duplicate_Items_Folder_skawkdkdl_0_Layer0_16_FILL">
<path fill="#412C28" stroke="none" d="
M 25.15 7.9
L 24.15 12.15 24.75 13.85
Q 25.45 15.5 26 15.5 26.9 15.5 28.55 13
L 29.4 14.25
Q 30.35 15.45 30.8 15.45 31.55 15.45 32.9 13.1
L 33.65 14.3
Q 34.5 15.45 35 15.45 35.8 15.45 37.05 13.15
L 37.95 14.3
Q 38.9 15.4 39.35 15.4 39.85 15.4 40.35 14.3 40.8 13.2 40.75 12.15
L 35.4 7.95 25.15 7.9 Z"/>
</g>

<g id="Duplicate_Items_Folder_skawkdkdl_0_Layer0_17_FILL">
<path fill="#FFBE8C" stroke="none" d="
M 10.6 66.4
L 5.3 66.15 4.85 69.15
Q 4.45 72.3 4.9 73.25 5.45 74.55 6.85 75.3 8.4 76.15 10.2 75.85 11.65 75.55 11.15 73.75
L 11 72.25 11.35 71.5 11 72.25 11.15 73.75
Q 12.3 73.05 12.5 71.85 12.65 71.1 11.85 69.2 10.95 67.15 10.6 66.4
M 9.55 75.35
Q 9 74.6 8.9 73.25 9 74.6 9.55 75.35
M 7.55 75.35
Q 7 74.6 6.9 73.25 7 74.6 7.55 75.35 Z"/>
</g>

<g id="Duplicate_Items_Folder_skawkdkdl_0_Layer0_18_FILL">
<path fill="#F34A42" stroke="none" d="
M 13.4 38.2
Q 11.85 39.45 11.4 39.95 9 42.6 7.05 47.85 3.95 56.2 4 67.3 7.7025390625 68.042578125 11.8 67.6 12.05 61.5 12.45 58.5 13.05 54.2 14.4 51.9 20.45 41.85 15.95 36.4 15.1 36.8 13.4 38.2 Z"/>
</g>

<path id="Duplicate_Items_Folder_skawkdkdl_0_Layer1_0_1_STROKES" stroke="#FFFFFF" stroke-width="8" stroke-linejoin="round" stroke-linecap="round" fill="none" d="
M 21.7 33.4
L 19.55 33.4
Q 17.05 33.55 15.25 34.15 13.4 34.75 12.3 36.85 11.75 37.95 11.4 39.95
L 11.25 40.5
Q 9.1396484375 43.233984375 7.5 48.2 4.75 56.7 5.25 67.8 5.8826171875 67.9025390625 6.525 67.975
L 6.35 69.15
Q 5.95 72.3 6.4 73.25 6.95 74.55 8.35 75.3 9.7013671875 76.041015625 11.25 75.9 11.2216796875 76.053125 11.2 76.2 10.1 83.85 9.75 87.1 11.17109375 87.5630859375 12.75 87.9
L 12.4 90.7 12 93.9
Q 11.5 95 11.25 96.7 11.05 98.2 11.2 99.35 18.8 100.2 21.5 99.35 22.55 95.3 18.8 94.2
L 19.275 91.35 19.7 88.725
Q 19.9544921875 88.741796875 20.2 88.75 22.1017578125 88.8466796875 23.65 88.8
L 25.2 79.4 25.25 88.7
Q 26.4943359375 88.875 27.8 88.975
L 27.35 96.4
Q 27.2 98.35 27.25 99.55 37 100.2 37.8 99.55 38.6 95.25 33.7 94.7
L 34.375 89.075
Q 36.5451171875 88.92265625 37.9 88.55 38.25 84.35 38.4 73.25
L 38.425 66.425
Q 39.3716796875 66.2498046875 40 66.05
L 38.775 54.625
Q 40.65 56.05 43.2 55.7 45.15 55.45 46.65 54.4 48.1 53.4 53.8 47.15
L 52.875 46.225
Q 53.629296875 45.7685546875 54.15 45
L 54.8 43.5
Q 55.5 42.75 55.9 42.25 56.65 41.45 56.7 41.2 56.75 40.95 56.5 40.6
L 56.2 40.25 56.5 39.5
Q 56.55 39.1 56.3 38.9
L 56 38.7
Q 56.25 38.1 55.9 37.7 55.75 37.5 49.6 43.05
L 54.95 37.45
Q 55.1 37 54.55 36.75 54.1 36.6 53.15 37.15 52.2 37.7 51.35 38.55 49.4009765625 40.4255859375 48.6 42.025
L 48.25 41.7 43.5 46.55
Q 39.4 40.4 37 38.75 36.9 38.65 36.8 38.6 36.4 38.35 36 38.1 35.65 37.85 35.25 37.65 34.35 35.75 32.1 35.3 33.15 35.2 34.05 35.05 35.2 34.85 36.25 34.45 38.35 33.7 40.15 31.9 42.65 29.35 41.8 24.15
L 40.75 17.9 42.4 15.45
Q 43.95 12.65 43.65 10.7 43.25 8.3 40.45 6.3 37.4 4.1 31.25 2.2 25.3 0.35 20.1 1.2 14.9 2.1 13.15 5.25
L 11.95 5.45
Q 10.55 5.85 9.5 6.7 7.7 8.25 6.55 11.9
L 6 14.05
Q 5.5 16.7 6.05 19.35 6.6 22 8.2 23.9 8.966015625 24.8095703125 9.65 25.225 9.4822265625 27.2888671875 10.65 28.7 11.65 29.9 13.5 30.35 14.85 30.7 16.3 30.45
L 17.45 30.15
Q 18.5 31.3 18.95 31.65 20.1 32.65 21.7 33.4 Z"/>

<path id="Duplicate_Items_Folder_skawkdkdl_0_Layer0_2_1_STROKES" stroke="#F89A52" stroke-width="0.5" stroke-linejoin="round" stroke-linecap="round" fill="none" d="
M 54.952866363525395 37.47806930541992
Q 54.875229644775395 37.76784744262696 54.652703857421876 38.01880722045898 53.0596664428711 39.714289855957034 52.22041473388672 41.30114669799805
L 53.00007934570312 41.09592819213867
Q 53.570844614505766 40.97911226153374 54.014756011962895 40.97955513000488 54.805258178710936 39.767860412597656 55.753135681152344 38.93478927612305
L 55.975661468505855 38.68382949829102
M 52.30736541748047 44.06788482666016
Q 51.53627243041992 45.20713500976562 50.07699737548828 45.43732604980469
M 52.79815826416016 43.008826446533206
L 52.30736541748047 44.06788482666016
M 54.260894775390625 42.57251052856445
Q 53.04310150146484 42.86739883422852 52.79815826416016 43.008826446533206
M 55.42091369628906 42.10685424804687
Q 55.32085952758789 42.28710021972657 54.260894775390625 42.57251052856445
M 55.370062255859374 41.52383651733399
Q 55.54684677124023 41.83001556396485 55.42091369628906 42.10685424804687
M 55.3347053527832 41.46260070800781
Q 55.35026800632477 41.49507814645767 55.370062255859374 41.52383651733399
M 54.468832397460936 41.02356567382813
Q 55.06112240552903 41.13432942926884 55.3347053527832 41.46260070800781
M 54.014756011962895 40.97955513000488
Q 54.26228158175945 40.98622278869152 54.468832397460936 41.02356567382813
M 56.22826995849609 40.25263671875
L 55.3347053527832 41.46260070800781"/>

<path id="Duplicate_Items_Folder_skawkdkdl_0_Layer0_3_1_STROKES" stroke="#4B50A5" stroke-width="1" stroke-linejoin="round" stroke-linecap="round" fill="none" d="
M 25.65 78.4
L 26.85 69.9"/>

<path id="Duplicate_Items_Folder_skawkdkdl_0_Layer0_8_1_STROKES" stroke="#F40B0B" stroke-width="1" stroke-linejoin="round" stroke-linecap="round" fill="none" d="
M 34.7 30.349999999999998
Q 33.5 30.75 32.150000000000006 30.4 30.800000000000004 30 29.950000000000003 28.95"/>

<path id="Duplicate_Items_Folder_skawkdkdl_0_Layer0_13_1_STROKES" stroke="#F89A52" stroke-width="1" stroke-linejoin="round" stroke-linecap="round" fill="none" d="
M 33.800000000000004 23.75
Q 34.85 23.45 35.6 24.05 36.25 24.55 36.25 25.4 36.25 26.25 35.7 26.8 35.150000000000006 27.349999999999998 34.25 27.25"/>

<path id="Duplicate_Items_Folder_skawkdkdl_0_Layer0_14_1_STROKES" stroke="#2D1E1B" stroke-width="1" stroke-linejoin="round" stroke-linecap="round" fill="none" d="
M 19 5.85
Q 17.045703125 5.5287109375 14.7 5.55"/>

<path id="Duplicate_Items_Folder_skawkdkdl_0_Layer0_17_1_STROKES" stroke="#F89A52" stroke-width="0.5" stroke-linejoin="round" stroke-linecap="round" fill="none" d="
M 11.15 73.75
L 11 72.25 11.35 71.5
M 9.55 75.35
Q 9 74.6 8.9 73.25
M 7.55 75.35
Q 7 74.6 6.9 73.25"/>
</defs>

<g transform="matrix( 1, 0, 0, 0.999603271484375, 65,60) ">
<g transform="matrix( 1, 0, 0, 1, 0,0) ">
<use xlink:href="#icon_r_box_02_11_Layer3_0_FILL"/>
</g>

<g transform="matrix( 1, 0, 0, 1, -0.05,0.05) ">
<use xlink:href="#icon_r_box_02_11_Layer3_1_FILL"/>
</g>

<g transform="matrix( 1, 0, 0, 1, 0,-2.15) ">
<use xlink:href="#icon_r_box_02_11_Layer3_2_FILL"/>
</g>

<g transform="matrix( 1, 0, 0, 1, 0,0.05) ">
<use xlink:href="#icon_r_box_02_11_Layer3_3_FILL"/>
</g>

<g filter="url(#Filter_1)" transform="matrix( 0.9999847412109375, 0, 0, 1.000396728515625, -65,-60) ">
<g transform="matrix( 0.75, 0, 0, 0.74969482421875, 40.8,3.2) ">
<g transform="matrix( 1, 0, 0, 1, 0,0) ">
<use xlink:href="#Duplicate_Items_Folder_skawkdkdl_0_Layer1_0_FILL"/>

<use xlink:href="#Duplicate_Items_Folder_skawkdkdl_0_Layer1_0_1_STROKES"/>
</g>

<g transform="matrix( 1, 0, 0, 1, 0,0) ">
<use xlink:href="#Duplicate_Items_Folder_skawkdkdl_0_Layer0_0_FILL"/>
</g>

<g transform="matrix( 1, 0, 0, 1, 0,0) ">
<use xlink:href="#Duplicate_Items_Folder_skawkdkdl_0_Layer0_1_FILL"/>
</g>

<g transform="matrix( 0.9659271240234375, 0.2587890625, -0.2587890625, 0.9659271240234375, 12.75,-11.15) ">
<use xlink:href="#Duplicate_Items_Folder_skawkdkdl_0_Layer0_2_FILL"/>

<use xlink:href="#Duplicate_Items_Folder_skawkdkdl_0_Layer0_2_1_STROKES" transform="matrix( 0.9659271240234375, -0.2587890625, 0.2587890625, 0.9659271240234375, -9.4,14.05) "/>
</g>

<g transform="matrix( 1, 0, 0, 1, 0,0) ">
<use xlink:href="#Duplicate_Items_Folder_skawkdkdl_0_Layer0_3_FILL"/>

<use xlink:href="#Duplicate_Items_Folder_skawkdkdl_0_Layer0_3_1_STROKES"/>
</g>

<g transform="matrix( 1, 0, 0, 1, 0,0) ">
<use xlink:href="#Duplicate_Items_Folder_skawkdkdl_0_Layer0_4_FILL"/>
</g>

<g transform="matrix( -1, 0, 0, 1, 46.2,-0.1) ">
<use xlink:href="#Duplicate_Items_Folder_skawkdkdl_0_Layer0_5_FILL"/>
</g>

<g transform="matrix( -0.990264892578125, 0.139190673828125, 0.139190673828125, 0.990264892578125, 43.9,-0.95) ">
<use xlink:href="#Duplicate_Items_Folder_skawkdkdl_0_Layer0_6_STROKES_1_FILL"/>
</g>

<g transform="matrix( -0.9925537109375, -0.121673583984375, -0.121673583984375, 0.9925537109375, 48.1,1.45) ">
<use xlink:href="#Duplicate_Items_Folder_skawkdkdl_0_Layer0_7_STROKES_1_FILL"/>
</g>

<g transform="matrix( -1, 0, 0, 1, 46.2,0.7) ">
<use xlink:href="#Duplicate_Items_Folder_skawkdkdl_0_Layer0_8_1_STROKES" transform="matrix( -1, 0, 0, 1, 46.2,-0.7) "/>
</g>

<g transform="matrix( -0.75, 0, 0, 0.75, 43.45,5.25) ">
<use xlink:href="#Duplicate_Items_Folder_skawkdkdl_0_Layer0_9_FILL"/>
</g>

<g transform="matrix( -1.25, 0, 0, 1.063720703125, 50.8,-0.55) ">
<use xlink:href="#Duplicate_Items_Folder_skawkdkdl_0_Layer0_10_FILL"/>
</g>

<g transform="matrix( 1, 0, 0, 1, 0,0) ">
<use xlink:href="#Duplicate_Items_Folder_skawkdkdl_0_Layer0_11_FILL"/>
</g>

<g transform="matrix( -0.9976043701171875, 0.0691680908203125, 0.0691680908203125, 0.9976043701171875, 44.55,-0.3) ">
<use xlink:href="#Duplicate_Items_Folder_skawkdkdl_0_Layer0_12_FILL"/>
</g>

<g transform="matrix( -1, 0, 0, 1, 46.2,0.7) ">
<use xlink:href="#Duplicate_Items_Folder_skawkdkdl_0_Layer0_13_1_STROKES" transform="matrix( -1, 0, 0, 1, 46.2,-0.7) "/>
</g>

<g transform="matrix( 1, 0, 0, 1, 0,0) ">
<use xlink:href="#Duplicate_Items_Folder_skawkdkdl_0_Layer0_14_1_STROKES"/>
</g>

<g transform="matrix( 1, 0, 0, 1, 0,0) ">
<use xlink:href="#Duplicate_Items_Folder_skawkdkdl_0_Layer0_15_FILL"/>
</g>

<g transform="matrix( 1, 0, 0, 1, 0,0) ">
<use xlink:href="#Duplicate_Items_Folder_skawkdkdl_0_Layer0_16_FILL"/>
</g>

<g transform="matrix( 1, 0, 0, 1, 1.5,0) ">
<use xlink:href="#Duplicate_Items_Folder_skawkdkdl_0_Layer0_17_FILL"/>

<use xlink:href="#Duplicate_Items_Folder_skawkdkdl_0_Layer0_17_1_STROKES"/>
</g>

<g transform="matrix( 0.999237060546875, -0.0390472412109375, 0.0390472412109375, 0.999237060546875, -1.4,0.7) ">
<use xlink:href="#Duplicate_Items_Folder_skawkdkdl_0_Layer0_18_FILL"/>
</g>
</g>
</g>
</g>
</svg>
