
<svg xmlns="http://www.w3.org/2000/svg" version="1.1" xmlns:xlink="http://www.w3.org/1999/xlink" preserveAspectRatio="none" x="0px" y="0px" width="130px" height="115px" viewBox="0 0 130 115">
<defs>
<filter id="Filter_1" x="-26.908049945456135%" y="-20.331839205345318%" width="153.81609989091226%" height="140.66367841069064%" color-interpolation-filters="sRGB">
<feFlood flood-color="#000000" flood-opacity="1" in="SourceGraphic" result="result1"/>

<feGaussianBlur in="SourceGraphic" stdDeviation="1.6666666666666667,1.6666666666666667" result="result2"/>

<feComposite in2="result2" in="result1" operator="in" result="result3"/>

<feComposite in2="result3" in="SourceGraphic" operator="over" result="result4"/>
</filter>

<g id="icon_r_box_02_32_Layer3_0_FILL">
<path fill="#FFFFFF" fill-opacity="0" stroke="none" d="
M 65 -55
L -65 -55 -65 25 65 25 65 -55 Z"/>
</g>

<g id="icon_r_box_02_32_Layer3_1_FILL">
<path fill="#FFFFFF" fill-opacity="0" stroke="none" d="
M 65.05 49.95
L 65.05 24.95 -64.95 24.95 -64.95 49.95 65.05 49.95 Z"/>
</g>

<g id="icon_r_box_02_32_Layer3_2_FILL">
<path fill="#FFFFFF" fill-opacity="0" stroke="none" d="
M 65 -52.85
L 65 -57.85 -65 -57.85 -65 -52.85 65 -52.85 Z"/>
</g>

<g id="icon_r_box_02_32_Layer3_3_FILL">
<path fill="#FFFFFF" fill-opacity="0" stroke="none" d="
M 65 54.95
L 65 49.95 -65 49.95 -65 54.95 65 54.95 Z"/>
</g>

<g id="Duplicate_Items_Folder___2_0_Layer1_0_FILL">
<path fill="#FFFFFF" stroke="none" d="
M -0.75 -29.45
Q -3.65 -29.9 -5.25 -27.35 -6.1 -28.95 -8.05 -28.65 -11.55 -28.4 -13.7 -25.6 -14 -25.6 -14.25 -25.6 -15.4 -25.85 -16.4 -25.15 -16.7 -24.95 -16.85 -24.7 -17.3 -24.15 -17.2 -23.3 -17.45 -23.3 -17.55 -23.3 -19.5 -22.95 -20.45 -21.3
L -22.45 -20.85
Q -24.45 -19.9 -25.1 -17.5 -25.3 -16.55 -25.3 -14.85 -25.6 -14.7 -25.9 -14.5 -28.25 -13.35 -27.8 -10.8 -27.75 -10.6 -27.65 -10.25 -27.6 -9.75 -28.05 -9.25 -29.8 -7.4 -28.3 -5.3 -29.2328125 -4.080078125 -29.7 -2.7 -29.781640625 -2.7833984375 -29.9 -2.85 -30.7 -3.3 -31.6 -3.05 -31.8 -3 -31.9 -2.95
L -31.95 -2.9
Q -31.95 -2.85 -32 -2.8 -32 -2.65 -31.9 -2.5 -31.7 -1.55 -30.9 -1.1 -30.4890625 -0.86875 -30.05 -0.85 -30.1025390625 0.2625 -29.6 1.15 -30.06953125 1.1298828125 -30.55 1.25 -32 1.65 -32.75 2.95 -32.9 3.2 -33 3.45 -32.95 3.5 -32.95 3.55 -32.95 3.6 -32.95 3.65 -32.7 3.8 -32.45 3.95 -31.2 4.75 -29.75 4.35 -29.5080078125 4.289453125 -29.3 4.2 -29.369921875 4.5494140625 -29.4 4.85 -29.55 6.15 -28.3 7.15 -27.3 7.9 -26 8.1 -26.4376953125 8.95234375 -26.6 9.9 -26.6060546875 9.9357421875 -26.6 9.95 -26.715234375 10.64609375 -26.7 11.35 -26.67734375 11.8474609375 -26.6 12.35 -26.45 13.2 -25.8 13.8 -24.55 14.85 -22.9 14.85 -23.75 17.25 -22.1 19.15 -20.5 20.95 -17.95 20.5 -15.7 23.55 -12.35 23.75 -12 25.3 -10.85 26.25 -9.97109375 26.875 -9.1 27.1 -8.3025390625 28.0943359375 -7.4 28.9 -8.040234375 28.6716796875 -8.65 29 -9.35 29.3 -9.6 30.05 -9.65 30.2 -9.7 30.3
L -9.65 30.35 -9.65 30.4
Q -9.5 30.5 -9.35 30.55 -8.65 30.8 -7.95 30.5 -7.3 30.15 -7.05 29.45 -7.0171875 29.3515625 -7 29.25 -5.1888671875 30.7849609375 -2.85 31.75 -2.696484375 32.382421875 -2.5 33
L -2.55 32.95
Q -2.076171875 34.5083984375 -1.2 37.45
L -1.2 37.45
Q -0.9744140625 38.1353515625 -0.8 38.75 -0.7619140625 38.8125 -0.75 38.85 -0.3025390625 40.505859375 -0.1 41.8 0.3783203125 44.330078125 0.2 46.95
L 0.2 47
Q 0.19296875 47.075 0.15 47.15
L -12.75 47.15
Q -13.65 47.15 -13.65 48.05
L -13.65 50.85
Q -13.65 51.75 -12.75 51.75
L -12.05 51.75 -10 69.6
Q -9.85 71.6 -7.5 71.6
L 12.1 71.6
Q 14.5 71.6 14.7 69.6
L 16.7 51.75 17.35 51.75
Q 18.25 51.75 18.25 50.85
L 18.25 48.05
Q 18.25 47.15 17.35 47.15
L 4.2 47.15
Q 4.404296875 44.0732421875 3.85 41.1 3.66015625 39.913671875 3.25 38.45 5.81796875 35.322265625 7.3 31.8 7.496484375 31.9837890625 7.7 32.1 8.4 32.5 9.2 32.25 9.35 32.2 9.45 32.15 9.5 32.15 9.55 32.1
L 9.5 32.05
Q 9.5 31.9 9.45 31.75 9.3833984375 31.4833984375 9.25 31.25 9.3802734375 31.2365234375 9.5 31.2 10.65 30.9 11.25 29.8 11.35 29.6 11.45 29.4 11.45 29.35 11.45 29.3 11.45 29.25 11.4 29.25 11.25 29.1 11.05 29 9.95 28.35 8.8 28.65 8.6224609375 28.7041015625 8.45 28.75 8.900390625 27.29296875 9.15 25.75 9.9255859375 25.2158203125 10.5 24.45 13.3 24.6 15.25 22.6 16.181640625 21.668359375 16.15 20.35 16.1640625 20.0751953125 16.1 19.75 17.90703125 20.244140625 19.4 19 20.1638671875 18.4509765625 20.5 17.7 20.8880859375 17.9345703125 21.35 18.05 22.8 18.45 24.05 17.65 24.3 17.5 24.5 17.35 24.55 17.3 24.55 17.25 24.55 17.2 24.55 17.15 24.5 16.9 24.35 16.65 23.8451171875 15.7748046875 23 15.3 24.4185546875 14.5435546875 25.15 12.7 25.4728515625 11.9107421875 25.5 11.15 25.6345703125 9.793359375 24.8 8.55 25.382421875 7.82890625 25.55 7 25.844921875 5.9884765625 25.45 4.85 27.225390625 4.5734375 28.35 3.4 28.45 3.25 28.5 3.1 28.55 2.9 28.65 2.7 28.73125 2.2943359375 28.7 1.85 28.7408203125 1.664453125 28.7 1.45 28.7189453125 1.29453125 28.7 1.15
L 28.7 1.1
Q 28.65 0.7 28.6 0.45
L 28.5 0.35
Q 28.205078125 -0.4857421875 27.5 -1.05 28.2685546875 -2.0294921875 28.25 -3.2 28.2560546875 -3.5134765625 28.2 -3.85 27.95 -5.45 27.45 -6.4 26.8603515625 -7.284375 25.75 -7.65 26.09921875 -8.435546875 26.2 -9.2 26.55703125 -10.9453125 25.65 -12.55 25.3 -13.2 24.8 -13.6 24.2341796875 -14.1658203125 23.4 -14.65 23.66953125 -14.705859375 23.9 -14.85 24.7 -15.3 24.95 -16.25 24.95 -16.45 25 -16.6
L 24.95 -16.65 24.95 -16.7
Q 24.75 -16.8 24.6 -16.85 23.65 -17.1 22.85 -16.65 22.6861328125 -16.54765625 22.55 -16.45 22.389453125 -17.1275390625 22.05 -17.65 21.159375 -19.1642578125 19.45 -19.6 19.71171875 -19.8736328125 19.9 -20.2 20.65 -21.45 20.2 -22.95 20.1 -23.2 20 -23.4 20 -23.5 19.95 -23.5 19.9 -23.55 19.8 -23.5 19.6 -23.5 19.3 -23.45 17.85 -23.05 17.1 -21.8 16.901953125 -21.456640625 16.8 -21.1 16.66484375 -21.7876953125 16.4 -22.45 15.9 -23.6 14.25 -24.2 13.8 -24.35 13.05 -24.3 12.1 -24.3 11.75 -24.35 11.75 -24.6 11.65 -24.7 11.3 -26.75 9.45 -27.45 6.1 -29.1 2.95 -27.45 2.8 -27.35 2.55 -27.45 1.5 -29.4 -0.75 -29.45
M 0.3 25.7
Q 0.73984375 25.59609375 1.2 25.55 1.55 25.75 2.05 25.9 2.85 26.4 3.55 26.05 4.4263671875 26.55078125 5.35 26.7 4.38046875 30.6994140625 2 34.2 1.598046875 32.782421875 1.3 31.85
L 1.3 31.8
Q 0.23359375 28.4478515625 0.3 25.7
M -3.7 25.55
Q -3.7326171875 26.733984375 -3.6 28 -4.5236328125 27.4095703125 -5.35 26.7 -4.441015625 26.2666015625 -3.7 25.55 Z"/>
</g>

<g id="Duplicate_Items_Folder___2_0_Layer0_3_FILL">
<path fill="#6ABE41" stroke="none" d="
M 34.3 -2.35
Q 34.3 -9.7 29.1 -14.9 23.95 -20.05 16.6 -20.05 9.25 -20.05 4.05 -14.9 -1.1 -9.7 -1.1 -2.35 -1.1 5 4.05 10.15 9.25 15.35 16.6 15.35 23.95 15.35 29.1 10.15 34.3 5 34.3 -2.35 Z"/>
</g>

<g id="Duplicate_Items_Folder___2_0_Layer0_4_FILL">
<path fill="#6ABE41" stroke="none" d="
M 12.95 -13.8
Q 12.25 -15 10.85 -15.25 9.55 -15.3 9.4 -15.35 9.35 -16.3 9 -17.15 8.65 -17.95 7.5 -18.4 7.2 -18.5 6.65 -18.45 6 -18.45 5.75 -18.5 5.733984375 -18.6283203125 5.7 -18.75 5.4376953125 -20.144140625 4.15 -20.65 1.8 -21.8 -0.4 -20.65 -0.5 -20.6 -0.65 -20.65 -1.4 -22 -2.95 -22.05 -5 -22.35 -6.1 -20.6 -6.7 -21.7 -8.05 -21.5 -10.5 -21.3 -12 -19.35 -12.2 -19.35 -12.4 -19.35 -13.2 -19.55 -13.9 -19.05 -14.0916015625 -18.9173828125 -14.25 -18.75 -14.5205078125 -18.349609375 -14.45 -17.75 -14.6 -17.75 -14.7 -17.75 -16.05 -17.5 -16.7 -16.35
L -18.1 -16.05
Q -19.5 -15.4 -19.95 -13.7 -20.1 -13.05 -20.1 -11.85 -20.3 -11.75 -20.5 -11.6 -22.15 -10.8 -21.85 -9.05 -21.8 -8.9 -21.75 -8.65 -21.7 -8.3 -22 -7.95 -23.25 -6.65 -22.2 -5.2 -23.1 -4 -23.35 -2.6 -23.7 -0.95 -22.4 0.1 -22.9 1.2 -22.95 1.9 -23.05 2.8 -22.2 3.5 -21.5 4 -20.6 4.15 -21.25 5.45 -21 7.05 -20.9 7.65 -20.45 8.05 -19.55 8.8 -18.4 8.8 -19 10.45 -17.85 11.8 -16.75 13.05 -14.95 12.75 -13.4 14.85 -11.05 15 -10.8 16.1 -10 16.75 -8.45 17.85 -6.75 17.3 -5.65 16.95 -4.8 16.05 -3.65 16.75 -2.25 16.4 -1.95 16.3 -1.6 16.25 -1.35 16.4 -1 16.5 -0.45 16.85 0.05 16.6 1.25 17.3 2.7 17 4.05 16.6 4.9 15.5 6.85 15.6 8.2 14.2 9 13.4 8.8 12.2 10.05 12.55 11.1 11.7 12.2 10.9 12 9.5 14.25 9.5 15.1 7.3 15.75 5.75 14.85 4.45 15.8 3.25 15.3 1.8 16.55 1.65 17.35 0.8 17.406640625 0.6869140625 17.45 0.55 17.4974609375 0.441796875 17.5 0.3 17.638671875 -0.1767578125 17.55 -0.75 17.5484375 -0.98984375 17.45 -1.2 17.4642578125 -1.237890625 17.45 -1.3 17.246875 -1.8388671875 16.75 -2.25 17.4001953125 -3.146484375 17.2 -4.25 17.0494140625 -5.310546875 16.65 -5.95 16.30078125 -6.5859375 15.5 -6.85 16.35 -8.65 15.45 -10.25 15.2 -10.7 14.85 -11 14.3 -11.55 13.4 -11.95 13.4 -13.1 12.95 -13.8
M 3.05 -17.6
Q 3.45 -17.65 3.85 -17.65 4.25 -17.5 4.35 -17.25
L 4.3 -16.75
Q 3.3 -16.95 2.4 -17.25 1.6 -17.45 2.2 -17.7 2.4 -17.9 3.05 -17.6
M 0.85 -16.55
Q 1.4 -16.1 2.05 -15.8 4.25 -14.85 6.6 -15.8
L 6.9 -14.95 6.85 -14
Q 7.4 -13.2 8.35 -13.7
L 9.3 -13
Q 7.9 -12.2 8.3 -10.75 9.05 -9.9 10.1 -9.6 10.9 -9.5 11.4 -9.05
L 12.35 -7.4 12.25 -6.25
Q 12.4 -6.05 12.5 -5.8 12.65 -5.6 12.65 -5.35 12.75 -2.55 13.4 0.1 12.95 0.35 12.55 0.7 12 1.15 12.25 1.65 13.05 2.1 13.25 2.85
L 12.35 3.2
Q 11.75 3.85 12.05 4.55 12.2 4.75 12.35 5
L 12.3 5.1
Q 12.25 5.25 12.2 5.3 11.8 5.5 11.35 5.6 11.05 6.15 10.7 6.65 10.45 7.1 10.85 7.7 10.45 8.1 10 8.5 9.3 9.2 8.5 9.8 7.95 10.2 7.4 10.65 7.05 10.9 6.7 11.15 5.4 12.15 3.9 12.8 2.2 13.45 0.6 14.65
L -0.25 14.05 -0.25 14.55 -1.25 14.65
Q -1.25 14.4 -1.35 14.3 -1.45 14.2 -1.65 14.2 -1.95 14.5 -2.3 14.6 -2.5 14.65 -2.7 14.8 -2.8 14.5 -3.15 14.35 -3.45 14.3 -3.7 14.1 -4.1 13.8 -4.35 14.2
L -4.9 14.05 -6.75 14.3
Q -7.05 14 -7.4 13.85 -8.15 13.55 -9 13 -10 12.4 -11.05 12.2 -11.2 12.35 -11.4 12.45 -11.5 12.5 -11.65 12.45 -12 11.85 -12.4 11.35 -12.75 10.95 -13.2 10.9 -14.1 10.65 -14.75 10.25 -14.85 10.15 -14.9 10.05 -15.15 9.35 -15.95 9
L -17 9.15
Q -16.8 8.9 -16.65 8.65 -16.35 8.25 -16.35 7.95
L -16.85 7.55
Q -16.45 6.35 -17.35 5.45 -18.15 4.65 -19.25 4.9 -18.9 4.2 -18.8 3.7 -18.55 3.7 -18.3 3.7 -18.05 3.55 -17.8 3.4 -17.85 3.15 -18 3.05 -18.85 2.3 -19.75 1.7 -20.05 1.45 -20.25 1.2
L -19.65 1.3 -18.65 0.75
Q -18.65 0.55 -18.65 0.35 -18.65 -0.4 -19.3 -0.6 -20.25 -0.6 -20.85 -1.05
L -20.4 -1.5
Q -20.25 -3.25 -20.6 -4.6
L -19.7 -4.8 -19.4 -5.65
Q -19.5 -5.8 -19.55 -5.95 -19.7 -6.15 -19.8 -6.35 -19.85 -6.55 -19.75 -6.65 -19.6 -6.9 -19.3 -7
L -19.15 -7.6 -18.45 -7.95 -18.25 -8.45
Q -18.25 -8.6 -18.3 -8.6 -18.55 -8.75 -18.85 -8.75 -18.7 -8.85 -18.65 -9 -18.5 -9.35 -18.5 -9.75
L -16.25 -11.75
Q -16 -11.75 -15.75 -11.75 -15.6 -11.85 -15.45 -11.95 -15.4 -12.1 -15.3 -12.25 -15 -12.9 -15.55 -13.45
L -12.85 -14.4 -12.35 -15.1 -12.3 -16
Q -11.95 -16.25 -11.55 -16.5 -11.3 -16.75 -11.2 -17 -10.85 -17.65 -10.4 -17.85 -8.9529296875 -18.0693359375 -7.45 -18.75 -7.215234375 -18.8455078125 -7 -18.95
L -6 -18.9
Q -5.9 -18.9 -5.8 -18.85 -5.739453125 -18.8015625 -5.7 -18.75 -5.5015625 -18.589453125 -5.35 -18.4
L 0.45 -17.85 0.65 -16.7
Q 0.7 -16.6 0.85 -16.55
M 11.65 -10.95
L 11.95 -10.55 9.7 -11.4 10.65 -12.05
Q 10.95 -11.85 11.25 -11.6 11.4 -11.5 11.5 -11.35 11.6 -11.2 11.65 -10.95
M -12.9 -15.3
L -12.9 -16.2 -12.65 -16.2 -12.65 -15.3 -12.9 -15.3
M -14.4 11
Q -14.447265625 10.952734375 -14.5 10.95 -13.34140625 10.512109375 -12.65 11.5 -12.95 12.25 -12.35 13.1
L -13.45 12.15 -13.5 11.3
Q -13.65 11.2 -13.75 11.1 -14.1 11.05 -14.4 11 Z"/>
</g>

<g id="Duplicate_Items_Folder___2_0_Layer0_5_FILL">
<path fill="#54AF2C" stroke="none" d="
M -18.55 23.15
Q -18.75 22.05 -19.1 21.4 -19.5 20.75 -20.3 20.5 -19.45 18.7 -20.35 17.1 -20.6 16.65 -20.95 16.35 -21.5 15.8 -22.4 15.4 -22.4 14.25 -22.85 13.55 -23.55 12.35 -24.95 12.1 -26.25 12.05 -26.4 12 -26.45 11.05 -26.8 10.2 -27.15 9.4 -28.3 8.95 -28.6 8.85 -29.15 8.9 -29.8 8.9 -30.05 8.85
L -30.05 8.9
Q -30 9 -30.05 9.1 -29.85 9.2 -29.25 9.4 -28.75 9.45 -28.5 9.65 -27.55 10.35 -27.45 11.15 -27.3 12.05 -27.5 12.9 -27.4 13 -26.2 13.35 -24.95 13.95 -24.6 15.25 -24.4 16 -24.65 17.05 -23.9 17.6 -23.55 18.25 -23.3 18.65 -23.2 19.1 -22.75 20.75 -23.95 22.2 -23.35 22.65 -23.1 23.35 -22.95 24.05 -23 25.1 -23.2 26.05 -23.95 26.75 -23.6 27.25 -23.6 27.85
L -23.55 27.9
Q -23.55 28.1 -23.55 28.3 -23.65 28.85 -23.85 29.3 -23.95 29.4 -24.05 29.55 -24.1 29.6 -24.15 29.7 -25.1 30.25 -26.3 30.1 -26.2 31.6 -27.35 32.45 -26.85 33.85 -27.85 35.1 -29.15 36.9 -31.25 36.35 -31.4 37.7 -32.6 38.2 -33.75 38.65 -34.8 38.05 -34.95 39.2 -35.85 39.75 -37.45 40.7 -39.2 40.1 -40.3 40.95 -41.6 40.95 -43 40.85 -43.95 39.95 -44.45 40.05 -44.85 39.6 -45.2 39.4 -45.35 39.2 -45.7 39.15 -46 39.2 -47.35 39.15 -48.25 38.25 -49.25 38.85 -50.35 38.9 -52.05 39 -53.15 37.6 -53.75 36.8 -53.75 35.75 -55.85 35.05 -56.75 32.7
L -56.8 32.7
Q -56.95 33.5 -56.8 34.4 -56.7 35 -56.25 35.4 -55.35 36.15 -54.2 36.15 -54.8 37.8 -53.65 39.15 -52.55 40.4 -50.75 40.1 -49.2 42.2 -46.85 42.35 -46.6 43.45 -45.8 44.1 -44.25 45.2 -42.55 44.65 -41.45 44.3 -40.6 43.4 -39.45 44.1 -38.05 43.75 -37.75 43.65 -37.4 43.6 -37.15 43.75 -36.8 43.85 -36.25 44.2 -35.75 43.95 -34.55 44.65 -33.1 44.35 -31.75 43.95 -30.9 42.85 -28.95 42.95 -27.6 41.55 -26.8 40.75 -27 39.55 -25.75 39.9 -24.7 39.05 -23.6 38.25 -23.8 36.85 -21.55 36.85 -20.7 34.65 -20.05 33.1 -20.95 31.8 -20 30.6 -20.5 29.15 -19.25 29 -18.45 28.15 -18.4 28.05 -18.35 27.95 -18.3 27.8 -18.25 27.65 -18.15 27.15 -18.2 26.6 -18.25 26.35 -18.3 26.15
L -18.35 26.1
Q -18.55 25.5 -19.05 25.1 -18.4 24.2 -18.55 23.15 Z"/>
</g>

<g id="Duplicate_Items_Folder___2_0_Layer0_6_FILL">
<path fill="#5CB331" stroke="none" d="
M 2.2 -11.85
Q 1.6857421875 -11.478515625 1.2 -11 -1.6044921875 -8.305078125 -1.6 -4.55 -1.6044921875 -0.7951171875 1.2 1.9 1.6857421875 2.378515625 2.2 2.75 2.3498046875 2.8451171875 2.5 2.85 2.6501953125 2.8451171875 2.75 2.75 3.3142578125 2.3783203125 3.8 1.9 6.604296875 -0.7951171875 6.6 -4.55 6.604296875 -8.305078125 3.8 -11 3.3142578125 -11.4787109375 2.75 -11.85 2.6501953125 -11.9453125 2.5 -11.95 2.3498046875 -11.9453125 2.2 -11.85 Z"/>
</g>

<g id="Duplicate_Items_Folder___2_0_Layer0_7_FILL">
<path fill="#4C9B25" stroke="none" d="
M 2.2 -11.85
Q 1.6857421875 -11.478515625 1.2 -11 -1.6044921875 -8.305078125 -1.6 -4.55 -1.6044921875 -0.7951171875 1.2 1.9 1.6857421875 2.378515625 2.2 2.75 2.3498046875 2.8451171875 2.5 2.85 2.6501953125 2.8451171875 2.75 2.75 3.3142578125 2.3783203125 3.8 1.9 6.604296875 -0.7951171875 6.6 -4.55 6.604296875 -8.305078125 3.8 -11 3.3142578125 -11.4787109375 2.75 -11.85 2.6501953125 -11.9453125 2.5 -11.95 2.3498046875 -11.9453125 2.2 -11.85 Z"/>
</g>

<g id="Duplicate_Items_Folder___2_0_Layer0_8_FILL">
<path fill="#4C9B25" stroke="none" d="
M 2.2 -11.85
Q 1.6857421875 -11.478515625 1.2 -11 -1.6044921875 -8.305078125 -1.6 -4.55 -1.6044921875 -0.7951171875 1.2 1.9 1.6857421875 2.378515625 2.2 2.75 2.3498046875 2.8451171875 2.5 2.85 2.6501953125 2.8451171875 2.75 2.75 3.3142578125 2.3783203125 3.8 1.9 6.604296875 -0.7951171875 6.6 -4.55 6.604296875 -8.305078125 3.8 -11 3.3142578125 -11.4787109375 2.75 -11.85 2.6501953125 -11.9453125 2.5 -11.95 2.3498046875 -11.9453125 2.2 -11.85 Z"/>
</g>

<g id="Duplicate_Items_Folder___2_0_Layer0_9_FILL">
<path fill="#7DD453" stroke="none" d="
M 108.55 42.45
Q 108.1095703125 43.1107421875 108.05 44 107.1302734375 44.046484375 106.45 44.5 105.7 45.05 105.7 45.8 105.7 46.5 106.45 47.05 107.1291015625 47.548046875 108.05 47.6 108.0970703125 48.520703125 108.55 49.2 109.1 49.95 109.85 49.95 110.55 49.95 111.1 49.2 111.5990234375 48.51953125 111.65 47.6 112.5390625 47.5345703125 113.2 47.05 113.95 46.5 113.95 45.8 113.95 45.05 113.2 44.5 112.5380859375 44.05859375 111.65 44 111.58515625 43.11171875 111.1 42.45 110.55 41.7 109.85 41.7 109.1 41.7 108.55 42.45 Z"/>
</g>

<g id="Duplicate_Items_Folder___2_0_Layer0_10_FILL">
<path fill="#7DD453" stroke="none" d="
M 108.55 42.45
Q 108.1095703125 43.1107421875 108.05 44 107.1302734375 44.046484375 106.45 44.5 105.7 45.05 105.7 45.8 105.7 46.5 106.45 47.05 107.1291015625 47.548046875 108.05 47.6 108.0970703125 48.520703125 108.55 49.2 109.1 49.95 109.85 49.95 110.55 49.95 111.1 49.2 111.5990234375 48.51953125 111.65 47.6 112.5390625 47.5345703125 113.2 47.05 113.95 46.5 113.95 45.8 113.95 45.05 113.2 44.5 112.5380859375 44.05859375 111.65 44 111.58515625 43.11171875 111.1 42.45 110.55 41.7 109.85 41.7 109.1 41.7 108.55 42.45 Z"/>
</g>

<g id="Duplicate_Items_Folder___2_0_Layer0_11_FILL">
<path fill="#54AF2C" stroke="none" d="
M 2.2 -11.85
Q 1.6857421875 -11.478515625 1.2 -11 -1.6044921875 -8.305078125 -1.6 -4.55 -1.6044921875 -0.7951171875 1.2 1.9 1.6857421875 2.378515625 2.2 2.75 2.3498046875 2.8451171875 2.5 2.85 2.6501953125 2.8451171875 2.75 2.75 3.3142578125 2.3783203125 3.8 1.9 6.604296875 -0.7951171875 6.6 -4.55 6.604296875 -8.305078125 3.8 -11 3.3142578125 -11.4787109375 2.75 -11.85 2.6501953125 -11.9453125 2.5 -11.95 2.3498046875 -11.9453125 2.2 -11.85 Z"/>
</g>

<g id="Duplicate_Items_Folder___2_0_Layer0_12_FILL">
<path fill="#54AF2C" stroke="none" d="
M 2.2 -11.85
Q 1.6857421875 -11.478515625 1.2 -11 -1.6044921875 -8.305078125 -1.6 -4.55 -1.6044921875 -0.7951171875 1.2 1.9 1.6857421875 2.378515625 2.2 2.75 2.3498046875 2.8451171875 2.5 2.85 2.6501953125 2.8451171875 2.75 2.75 3.3142578125 2.3783203125 3.8 1.9 6.604296875 -0.7951171875 6.6 -4.55 6.604296875 -8.305078125 3.8 -11 3.3142578125 -11.4787109375 2.75 -11.85 2.6501953125 -11.9453125 2.5 -11.95 2.3498046875 -11.9453125 2.2 -11.85 Z"/>
</g>

<g id="Duplicate_Items_Folder___2_0_Layer0_13_FILL">
<path fill="#6ABE41" stroke="none" d="
M 2.2 -11.85
Q 1.6857421875 -11.478515625 1.2 -11 -1.6044921875 -8.305078125 -1.6 -4.55 -1.6044921875 -0.7951171875 1.2 1.9 1.6857421875 2.378515625 2.2 2.75 2.3498046875 2.8451171875 2.5 2.85 2.6501953125 2.8451171875 2.75 2.75 3.3142578125 2.3783203125 3.8 1.9 6.604296875 -0.7951171875 6.6 -4.55 6.604296875 -8.305078125 3.8 -11 3.3142578125 -11.4787109375 2.75 -11.85 2.6501953125 -11.9453125 2.5 -11.95 2.3498046875 -11.9453125 2.2 -11.85 Z"/>
</g>

<g id="Duplicate_Items_Folder___2_0_Layer0_14_FILL">
<path fill="#6ABE41" stroke="none" d="
M 2.2 -11.85
Q 1.6857421875 -11.478515625 1.2 -11 -1.6044921875 -8.305078125 -1.6 -4.55 -1.6044921875 -0.7951171875 1.2 1.9 1.6857421875 2.378515625 2.2 2.75 2.3498046875 2.8451171875 2.5 2.85 2.6501953125 2.8451171875 2.75 2.75 3.3142578125 2.3783203125 3.8 1.9 6.604296875 -0.7951171875 6.6 -4.55 6.604296875 -8.305078125 3.8 -11 3.3142578125 -11.4787109375 2.75 -11.85 2.6501953125 -11.9453125 2.5 -11.95 2.3498046875 -11.9453125 2.2 -11.85 Z"/>
</g>

<g id="Duplicate_Items_Folder___2_0_Layer0_15_FILL">
<path fill="#54AF2C" stroke="none" d="
M 2.2 -11.85
Q 1.6857421875 -11.478515625 1.2 -11 -1.6044921875 -8.305078125 -1.6 -4.55 -1.6044921875 -0.7951171875 1.2 1.9 1.6857421875 2.378515625 2.2 2.75 2.3498046875 2.8451171875 2.5 2.85 2.6501953125 2.8451171875 2.75 2.75 3.3142578125 2.3783203125 3.8 1.9 6.604296875 -0.7951171875 6.6 -4.55 6.604296875 -8.305078125 3.8 -11 3.3142578125 -11.4787109375 2.75 -11.85 2.6501953125 -11.9453125 2.5 -11.95 2.3498046875 -11.9453125 2.2 -11.85 Z"/>
</g>

<g id="Duplicate_Items_Folder___2_0_Layer0_16_FILL">
<path fill="#7DD453" stroke="none" d="
M 108.55 42.45
Q 108.1095703125 43.1107421875 108.05 44 107.1302734375 44.046484375 106.45 44.5 105.7 45.05 105.7 45.8 105.7 46.5 106.45 47.05 107.1291015625 47.548046875 108.05 47.6 108.0970703125 48.520703125 108.55 49.2 109.1 49.95 109.85 49.95 110.55 49.95 111.1 49.2 111.5990234375 48.51953125 111.65 47.6 112.5390625 47.5345703125 113.2 47.05 113.95 46.5 113.95 45.8 113.95 45.05 113.2 44.5 112.5380859375 44.05859375 111.65 44 111.58515625 43.11171875 111.1 42.45 110.55 41.7 109.85 41.7 109.1 41.7 108.55 42.45 Z"/>
</g>

<g id="Duplicate_Items_Folder___2_0_Layer0_17_FILL">
<path fill="#7DD453" stroke="none" d="
M 108.55 42.45
Q 108.1095703125 43.1107421875 108.05 44 107.1302734375 44.046484375 106.45 44.5 105.7 45.05 105.7 45.8 105.7 46.5 106.45 47.05 107.1291015625 47.548046875 108.05 47.6 108.0970703125 48.520703125 108.55 49.2 109.1 49.95 109.85 49.95 110.55 49.95 111.1 49.2 111.5990234375 48.51953125 111.65 47.6 112.5390625 47.5345703125 113.2 47.05 113.95 46.5 113.95 45.8 113.95 45.05 113.2 44.5 112.5380859375 44.05859375 111.65 44 111.58515625 43.11171875 111.1 42.45 110.55 41.7 109.85 41.7 109.1 41.7 108.55 42.45 Z"/>
</g>

<g id="Duplicate_Items_Folder___2_0_Layer0_18_FILL">
<path fill="#7DD453" stroke="none" d="
M 108.55 42.45
Q 108.1095703125 43.1107421875 108.05 44 107.1302734375 44.046484375 106.45 44.5 105.7 45.05 105.7 45.8 105.7 46.5 106.45 47.05 107.1291015625 47.548046875 108.05 47.6 108.0970703125 48.520703125 108.55 49.2 109.1 49.95 109.85 49.95 110.55 49.95 111.1 49.2 111.5990234375 48.51953125 111.65 47.6 112.5390625 47.5345703125 113.2 47.05 113.95 46.5 113.95 45.8 113.95 45.05 113.2 44.5 112.5380859375 44.05859375 111.65 44 111.58515625 43.11171875 111.1 42.45 110.55 41.7 109.85 41.7 109.1 41.7 108.55 42.45 Z"/>
</g>

<g id="Duplicate_Items_Folder___2_0_Layer0_19_FILL">
<path fill="#5CB331" stroke="none" d="
M 2.2 -11.85
Q 1.6857421875 -11.478515625 1.2 -11 -1.6044921875 -8.305078125 -1.6 -4.55 -1.6044921875 -0.7951171875 1.2 1.9 1.6857421875 2.378515625 2.2 2.75 2.3498046875 2.8451171875 2.5 2.85 2.6501953125 2.8451171875 2.75 2.75 3.3142578125 2.3783203125 3.8 1.9 6.604296875 -0.7951171875 6.6 -4.55 6.604296875 -8.305078125 3.8 -11 3.3142578125 -11.4787109375 2.75 -11.85 2.6501953125 -11.9453125 2.5 -11.95 2.3498046875 -11.9453125 2.2 -11.85 Z"/>
</g>

<g id="Duplicate_Items_Folder___2_0_Layer0_20_FILL">
<path fill="#7DD453" stroke="none" d="
M 108.55 42.45
Q 108.1095703125 43.1107421875 108.05 44 107.1302734375 44.046484375 106.45 44.5 105.7 45.05 105.7 45.8 105.7 46.5 106.45 47.05 107.1291015625 47.548046875 108.05 47.6 108.0970703125 48.520703125 108.55 49.2 109.1 49.95 109.85 49.95 110.55 49.95 111.1 49.2 111.5990234375 48.51953125 111.65 47.6 112.5390625 47.5345703125 113.2 47.05 113.95 46.5 113.95 45.8 113.95 45.05 113.2 44.5 112.5380859375 44.05859375 111.65 44 111.58515625 43.11171875 111.1 42.45 110.55 41.7 109.85 41.7 109.1 41.7 108.55 42.45 Z"/>
</g>

<g id="Duplicate_Items_Folder___2_0_Layer0_21_FILL">
<path fill="#5CB331" stroke="none" d="
M 2.2 -11.85
Q 1.6857421875 -11.478515625 1.2 -11 -1.6044921875 -8.305078125 -1.6 -4.55 -1.6044921875 -0.7951171875 1.2 1.9 1.6857421875 2.378515625 2.2 2.75 2.3498046875 2.8451171875 2.5 2.85 2.6501953125 2.8451171875 2.75 2.75 3.3142578125 2.3783203125 3.8 1.9 6.604296875 -0.7951171875 6.6 -4.55 6.604296875 -8.305078125 3.8 -11 3.3142578125 -11.4787109375 2.75 -11.85 2.6501953125 -11.9453125 2.5 -11.95 2.3498046875 -11.9453125 2.2 -11.85 Z"/>
</g>

<g id="Duplicate_Items_Folder___2_0_Layer0_22_FILL">
<path fill="#5CB331" stroke="none" d="
M 2.2 -11.85
Q 1.6857421875 -11.478515625 1.2 -11 -1.6044921875 -8.305078125 -1.6 -4.55 -1.6044921875 -0.7951171875 1.2 1.9 1.6857421875 2.378515625 2.2 2.75 2.3498046875 2.8451171875 2.5 2.85 2.6501953125 2.8451171875 2.75 2.75 3.3142578125 2.3783203125 3.8 1.9 6.604296875 -0.7951171875 6.6 -4.55 6.604296875 -8.305078125 3.8 -11 3.3142578125 -11.4787109375 2.75 -11.85 2.6501953125 -11.9453125 2.5 -11.95 2.3498046875 -11.9453125 2.2 -11.85 Z"/>
</g>

<g id="Duplicate_Items_Folder___2_0_Layer0_23_FILL">
<path fill="#5CB331" stroke="none" d="
M 2.2 -11.85
Q 1.6857421875 -11.478515625 1.2 -11 -1.6044921875 -8.305078125 -1.6 -4.55 -1.6044921875 -0.7951171875 1.2 1.9 1.6857421875 2.378515625 2.2 2.75 2.3498046875 2.8451171875 2.5 2.85 2.6501953125 2.8451171875 2.75 2.75 3.3142578125 2.3783203125 3.8 1.9 6.604296875 -0.7951171875 6.6 -4.55 6.604296875 -8.305078125 3.8 -11 3.3142578125 -11.4787109375 2.75 -11.85 2.6501953125 -11.9453125 2.5 -11.95 2.3498046875 -11.9453125 2.2 -11.85 Z"/>
</g>

<g id="Duplicate_Items_Folder___2_0_Layer0_24_FILL">
<path fill="#5CB331" stroke="none" d="
M 2.2 -11.85
Q 1.6857421875 -11.478515625 1.2 -11 -1.6044921875 -8.305078125 -1.6 -4.55 -1.6044921875 -0.7951171875 1.2 1.9 1.6857421875 2.378515625 2.2 2.75 2.3498046875 2.8451171875 2.5 2.85 2.6501953125 2.8451171875 2.75 2.75 3.3142578125 2.3783203125 3.8 1.9 6.604296875 -0.7951171875 6.6 -4.55 6.604296875 -8.305078125 3.8 -11 3.3142578125 -11.4787109375 2.75 -11.85 2.6501953125 -11.9453125 2.5 -11.95 2.3498046875 -11.9453125 2.2 -11.85 Z"/>
</g>

<g id="Duplicate_Items_Folder___2_0_Layer0_25_FILL">
<path fill="#54AF2C" stroke="none" d="
M 2.2 -11.85
Q 1.6857421875 -11.478515625 1.2 -11 -1.6044921875 -8.305078125 -1.6 -4.55 -1.6044921875 -0.7951171875 1.2 1.9 1.6857421875 2.378515625 2.2 2.75 2.3498046875 2.8451171875 2.5 2.85 2.6501953125 2.8451171875 2.75 2.75 3.3142578125 2.3783203125 3.8 1.9 6.604296875 -0.7951171875 6.6 -4.55 6.604296875 -8.305078125 3.8 -11 3.3142578125 -11.4787109375 2.75 -11.85 2.6501953125 -11.9453125 2.5 -11.95 2.3498046875 -11.9453125 2.2 -11.85 Z"/>
</g>

<g id="Duplicate_Items_Folder___2_0_Layer0_26_FILL">
<path fill="#4C9B25" stroke="none" d="
M 2.2 -11.85
Q 1.6857421875 -11.478515625 1.2 -11 -1.6044921875 -8.305078125 -1.6 -4.55 -1.6044921875 -0.7951171875 1.2 1.9 1.6857421875 2.378515625 2.2 2.75 2.3498046875 2.8451171875 2.5 2.85 2.6501953125 2.8451171875 2.75 2.75 3.3142578125 2.3783203125 3.8 1.9 6.604296875 -0.7951171875 6.6 -4.55 6.604296875 -8.305078125 3.8 -11 3.3142578125 -11.4787109375 2.75 -11.85 2.6501953125 -11.9453125 2.5 -11.95 2.3498046875 -11.9453125 2.2 -11.85 Z"/>
</g>

<g id="Duplicate_Items_Folder___2_0_Layer0_27_FILL">
<path fill="#54AF2C" stroke="none" d="
M 2.2 -11.85
Q 1.6857421875 -11.478515625 1.2 -11 -1.6044921875 -8.305078125 -1.6 -4.55 -1.6044921875 -0.7951171875 1.2 1.9 1.6857421875 2.378515625 2.2 2.75 2.3498046875 2.8451171875 2.5 2.85 2.6501953125 2.8451171875 2.75 2.75 3.3142578125 2.3783203125 3.8 1.9 6.604296875 -0.7951171875 6.6 -4.55 6.604296875 -8.305078125 3.8 -11 3.3142578125 -11.4787109375 2.75 -11.85 2.6501953125 -11.9453125 2.5 -11.95 2.3498046875 -11.9453125 2.2 -11.85 Z"/>
</g>

<g id="Mask_Duplicate_Items_Folder_Symbol_26_0_2_MASK_0_FILL">
<path fill="#FFFFFF" stroke="none" d="
M 11.8 43.5
Q 12.076953125 41.000390625 9.4 41
L -12.5 41
Q -15.07109375 41.000390625 -14.8 43.5
L -12.85 61.15
Q -12.6259765625 62.9328125 -10.5 62.9
L 7.45 62.9
Q 9.6263671875 62.9328125 9.8 61.15
L 11.8 43.5 Z"/>
</g>

<g id="Duplicate_Items_Folder_Symbol_26_0_Layer2_0_FILL">
<path fill="#CC3800" stroke="none" d="
M 14.55 -9.25
Q 14.85 -12 11.95 -12
L -11.95 -12
Q -14.8 -12 -14.5 -9.25
L -12.3 10
Q -12.15 12 -9.8 12
L 9.8 12
Q 12.2 12 12.4 10
L 14.55 -9.25 Z"/>
</g>

<g id="Duplicate_Items_Folder_Symbol_26_0_Layer2_1_FILL">
<path fill="#BB3300" stroke="none" d="
M 12.4 10
L 12.4 9.95 -12.3 9.95 -12.3 10
Q -12.15 12 -9.8 12
L 9.8 12
Q 12.2 12 12.4 10 Z"/>
</g>

<g id="Duplicate_Items_Folder___2_0_Layer0_28_MEMBER_1_FILL">
<path fill="#DD4005" stroke="none" d="
M 20.3 46.7
Q 20.3 45.7 19.3 45.7
L -14.15 45.7
Q -15.15 45.7 -15.15 46.7
L -15.15 49.85
Q -15.15 50.85 -14.15 50.85
L 19.3 50.85
Q 20.3 50.85 20.3 49.85
L 20.3 46.7 Z"/>
</g>

<g id="Duplicate_Items_Folder___2_0_Layer0_29_FILL">
<path fill="#8A0101" fill-opacity="0.14901960784313725" stroke="none" d="
M 73.55 48.05
Q 73.55 47.15 72.65 47.15
L 68.2 47.15 68.3 51.7 66.5 71.6 67.4 71.6
Q 69.8 71.6 70 69.6
L 72 51.75 72.65 51.75
Q 73.55 51.75 73.55 50.85
L 73.55 48.05 Z"/>
</g>

<g id="Duplicate_Items_Folder___2_0_Layer0_30_FILL">
<path fill="#8A0101" fill-opacity="0.14901960784313725" stroke="none" d="
M -22.35 53
Q -22.35 52.75 -22.55 52.55 -22.75 52.35 -23 52.35 -23.25 52.35 -23.45 52.55 -23.65 52.75 -23.65 53 -23.65 53.25 -23.45 53.45 -23.25 53.65 -23 53.65 -22.75 53.65 -22.55 53.45 -22.35 53.25 -22.35 53 Z"/>
</g>

<g id="Duplicate_Items_Folder___2_0_Layer0_31_FILL">
<path fill="#8A0101" fill-opacity="0.14901960784313725" stroke="none" d="
M -22.35 53
Q -22.35 52.75 -22.55 52.55 -22.75 52.35 -23 52.35 -23.25 52.35 -23.45 52.55 -23.65 52.75 -23.65 53 -23.65 53.25 -23.45 53.45 -23.25 53.65 -23 53.65 -22.75 53.65 -22.55 53.45 -22.35 53.25 -22.35 53 Z"/>
</g>

<g id="Duplicate_Items_Folder___2_0_Layer0_32_FILL">
<path fill="#8A0101" fill-opacity="0.14901960784313725" stroke="none" d="
M -22.35 53
Q -22.35 52.75 -22.55 52.55 -22.75 52.35 -23 52.35 -23.25 52.35 -23.45 52.55 -23.65 52.75 -23.65 53 -23.65 53.25 -23.45 53.45 -23.25 53.65 -23 53.65 -22.75 53.65 -22.55 53.45 -22.35 53.25 -22.35 53 Z"/>
</g>

<path id="Duplicate_Items_Folder___2_0_Layer1_0_1_STROKES" stroke="#FFFFFF" stroke-width="8" stroke-linejoin="round" stroke-linecap="round" fill="none" d="
M 14.7 69.6
Q 14.5 71.6 12.1 71.6
L -7.5 71.6
Q -9.85 71.6 -10 69.6
L -12.05 51.75 -12.75 51.75
Q -13.65 51.75 -13.65 50.85
L -13.65 48.05
Q -13.65 47.15 -12.75 47.15
L 0.175 47.15
Q 0.19296875 47.075 0.2 47
L 0.2 46.95
Q 0.3783203125 44.330078125 -0.075 41.8 -0.3025390625 40.505859375 -0.75 38.85 -0.7619140625 38.8125 -0.775 38.775 -0.9744140625 38.1353515625 -1.175 37.45
L -1.175 37.475
Q -2.076171875 34.5083984375 -2.525 32.95
L -2.5 33
Q -2.696484375 32.382421875 -2.85 31.775 -5.1888671875 30.7849609375 -7 29.25 -7.0171875 29.3515625 -7.05 29.45 -7.3 30.15 -7.95 30.5 -8.65 30.8 -9.35 30.55 -9.5 30.5 -9.65 30.4
L -9.65 30.35 -9.7 30.3
Q -9.65 30.2 -9.6 30.05 -9.35 29.3 -8.65 29 -8.040234375 28.6716796875 -7.375 28.925 -8.3025390625 28.0943359375 -9.075 27.125 -9.97109375 26.875 -10.85 26.25 -12 25.3 -12.35 23.75 -15.7 23.55 -17.95 20.5 -20.5 20.95 -22.1 19.15 -23.75 17.25 -22.9 14.85 -24.55 14.85 -25.8 13.8 -26.45 13.2 -26.6 12.35 -26.67734375 11.8474609375 -26.7 11.375 -26.715234375 10.64609375 -26.6 9.975 -26.6060546875 9.9357421875 -26.6 9.9 -26.4376953125 8.95234375 -26 8.1 -27.3 7.9 -28.3 7.15 -29.55 6.15 -29.4 4.85 -29.369921875 4.5494140625 -29.275 4.2 -29.5080078125 4.289453125 -29.75 4.35 -31.2 4.75 -32.45 3.95 -32.7 3.8 -32.95 3.65 -32.95 3.6 -32.95 3.55 -32.95 3.5 -33 3.45 -32.9 3.2 -32.75 2.95 -32 1.65 -30.55 1.25 -30.06953125 1.1298828125 -29.6 1.15 -30.1025390625 0.2625 -30.05 -0.825 -30.4890625 -0.86875 -30.9 -1.1 -31.7 -1.55 -31.9 -2.5 -32 -2.65 -32 -2.8 -31.95 -2.85 -31.95 -2.9
L -31.9 -2.95
Q -31.8 -3 -31.6 -3.05 -30.7 -3.3 -29.9 -2.85 -29.781640625 -2.7833984375 -29.675 -2.7 -29.2328125 -4.080078125 -28.3 -5.3 -29.8 -7.4 -28.05 -9.25 -27.6 -9.75 -27.65 -10.25 -27.75 -10.6 -27.8 -10.8 -28.25 -13.35 -25.9 -14.5 -25.6 -14.7 -25.3 -14.85 -25.3 -16.55 -25.1 -17.5 -24.45 -19.9 -22.45 -20.85
L -20.45 -21.3
Q -19.5 -22.95 -17.55 -23.3 -17.45 -23.3 -17.2 -23.3 -17.3 -24.15 -16.85 -24.7 -16.7 -24.95 -16.4 -25.15 -15.4 -25.85 -14.25 -25.6 -14 -25.6 -13.7 -25.6 -11.55 -28.4 -8.05 -28.65 -6.1 -28.95 -5.25 -27.35 -3.65 -29.9 -0.75 -29.45 1.5 -29.4 2.55 -27.45 2.8 -27.35 2.95 -27.45 6.1 -29.1 9.45 -27.45 11.3 -26.75 11.65 -24.7 11.75 -24.6 11.75 -24.35 12.1 -24.3 13.05 -24.3 13.8 -24.35 14.25 -24.2 15.9 -23.6 16.4 -22.45 16.66484375 -21.7876953125 16.8 -21.1 16.901953125 -21.456640625 17.1 -21.8 17.85 -23.05 19.3 -23.45 19.6 -23.5 19.8 -23.5 19.9 -23.55 19.95 -23.5 20 -23.5 20 -23.4 20.1 -23.2 20.2 -22.95 20.65 -21.45 19.9 -20.2 19.71171875 -19.8736328125 19.475 -19.6 21.159375 -19.1642578125 22.05 -17.65 22.389453125 -17.1275390625 22.55 -16.425 22.6861328125 -16.54765625 22.85 -16.65 23.65 -17.1 24.6 -16.85 24.75 -16.8 24.95 -16.7
L 24.95 -16.65 25 -16.6
Q 24.95 -16.45 24.95 -16.25 24.7 -15.3 23.9 -14.85 23.66953125 -14.705859375 23.425 -14.625 24.2341796875 -14.1658203125 24.8 -13.6 25.3 -13.2 25.65 -12.55 26.55703125 -10.9453125 26.225 -9.2 26.09921875 -8.435546875 25.75 -7.65 26.8603515625 -7.284375 27.45 -6.4 27.95 -5.45 28.2 -3.85 28.2560546875 -3.5134765625 28.25 -3.175 28.2685546875 -2.0294921875 27.525 -1.025 28.205078125 -0.4857421875 28.5 0.35
L 28.6 0.45
Q 28.65 0.7 28.7 1.1
L 28.7 1.15
Q 28.7189453125 1.29453125 28.725 1.45 28.7408203125 1.664453125 28.725 1.875 28.73125 2.2943359375 28.65 2.7 28.55 2.9 28.5 3.1 28.45 3.25 28.35 3.4 27.225390625 4.5734375 25.475 4.85 25.844921875 5.9884765625 25.575 7.025 25.382421875 7.82890625 24.825 8.575 25.6345703125 9.793359375 25.525 11.175 25.4728515625 11.9107421875 25.15 12.7 24.4185546875 14.5435546875 23.025 15.3 23.8451171875 15.7748046875 24.35 16.65 24.5 16.9 24.55 17.15 24.55 17.2 24.55 17.25 24.55 17.3 24.5 17.35 24.3 17.5 24.05 17.65 22.8 18.45 21.35 18.05 20.8880859375 17.9345703125 20.5 17.7 20.1638671875 18.4509765625 19.4 19 17.90703125 20.244140625 16.125 19.75 16.1640625 20.0751953125 16.15 20.375 16.181640625 21.668359375 15.25 22.6 13.3 24.6 10.5 24.45 9.9255859375 25.2158203125 9.175 25.75 8.900390625 27.29296875 8.45 28.775 8.6224609375 28.7041015625 8.8 28.65 9.95 28.35 11.05 29 11.25 29.1 11.4 29.25 11.45 29.25 11.45 29.3 11.45 29.35 11.45 29.4 11.35 29.6 11.25 29.8 10.65 30.9 9.5 31.2 9.3802734375 31.2365234375 9.25 31.25 9.3833984375 31.4833984375 9.45 31.75 9.5 31.9 9.5 32.05
L 9.55 32.1
Q 9.5 32.15 9.45 32.15 9.35 32.2 9.2 32.25 8.4 32.5 7.7 32.1 7.496484375 31.9837890625 7.325 31.825 5.81796875 35.322265625 3.275 38.45 3.66015625 39.913671875 3.875 41.1 4.404296875 44.0732421875 4.2 47.15
L 17.35 47.15
Q 18.25 47.15 18.25 48.05
L 18.25 50.85
Q 18.25 51.75 17.35 51.75
L 16.7 51.75 14.7 69.6 Z
M 3.55 26.05
Q 2.85 26.4 2.05 25.9 1.55 25.75 1.2 25.55 0.73984375 25.59609375 0.325 25.725 0.23359375 28.4478515625 1.3 31.8
L 1.325 31.85
Q 1.598046875 32.782421875 2.025 34.225 4.38046875 30.6994140625 5.375 26.7 4.4263671875 26.55078125 3.55 26.05 Z
M -3.6 28
Q -4.5236328125 27.4095703125 -5.325 26.7 -4.441015625 26.2666015625 -3.7 25.55 -3.7326171875 26.733984375 -3.6 28 Z"/>

<path id="Duplicate_Items_Folder___2_0_Layer0_0_1_STROKES" stroke="#E9862C" stroke-width="3" stroke-linejoin="round" stroke-linecap="round" fill="none" d="
M -11.55 20.7
Q -10.087109375 31.3017578125 -1.45 34.5"/>

<path id="Duplicate_Items_Folder___2_0_Layer0_1_1_STROKES" stroke="#E9862C" stroke-width="3.5" stroke-linejoin="round" stroke-linecap="round" fill="none" d="
M 7.730436706542969 23.381880187988283
Q 6.8773169934749605 31.70727480351925 1.284871673583984 38.20683364868164"/>

<path id="Duplicate_Items_Folder___2_0_Layer0_2_1_STROKES" stroke="#EF923D" stroke-width="4" stroke-linejoin="round" stroke-linecap="round" fill="none" d="
M -1.3217994689941408 22.892031097412108
Q -2.350421142578125 26.894170379638673 -0.6170310974121103 32.422914886474615 -0.1735755920410158 33.95270919799805 0.7577148437500001 36.89944686889649 1.5848800659179685 39.56214141845703 1.9241256713867183 41.472468566894534 2.602616882324219 45.293122863769526 1.9790771484374998 49.21840591430664 1.3227462768554688 53.14041671752929 -0.5660858154296875 56.47031707763672"/>

<path id="Duplicate_Items_Folder_Symbol_26_0_Layer1_0_MEMBER_0_1_STROKES" stroke="#EE6735" stroke-width="1.5" stroke-linejoin="miter" stroke-linecap="round" stroke-miterlimit="3" fill="none" d="
M -29.689624023437503 5.550163269042972
L -24.722302246093747 1.1896545410156243 -19.79261169433594 5.550163269042972 -14.825289916992189 1.1896545410156243 -9.895599365234373 5.550163269042972 -4.928277587890626 1.1896545410156243 0.0014129638671871447 5.550163269042972 4.968734741210937 1.1896545410156243 9.89842529296875 5.550163269042972 14.8657470703125 1.1896545410156243 19.795437622070313 5.550163269042972 24.762759399414062 1.1896545410156243 29.692449951171874 5.550163269042972"/>

<path id="Duplicate_Items_Folder_Symbol_26_0_Layer1_0_MEMBER_1_1_STROKES" stroke="#EE6735" stroke-width="1.5" stroke-linejoin="miter" stroke-linecap="round" stroke-miterlimit="3" fill="none" d="
M -29.689624023437503 0.7974426269531278
L -24.722302246093747 -3.5627197265625057 -19.79261169433594 0.7974426269531278 -14.825289916992189 -3.5627197265625057 -9.895599365234373 0.7974426269531278 -4.928277587890626 -3.5627197265625057 0.0014129638671871447 0.7974426269531278 4.968734741210937 -3.5627197265625057 9.89842529296875 0.7974426269531278 14.8657470703125 -3.5627197265625057 19.795437622070313 0.7974426269531278 24.762759399414062 -3.5627197265625057 29.692449951171874 0.7974426269531278"/>
</defs>

<g transform="matrix( 1, 0, 0, 0.999603271484375, 65,60) ">
<g transform="matrix( 1, 0, 0, 1, 0,0) ">
<use xlink:href="#icon_r_box_02_32_Layer3_0_FILL"/>
</g>

<g transform="matrix( 1, 0, 0, 1, -0.05,0.05) ">
<use xlink:href="#icon_r_box_02_32_Layer3_1_FILL"/>
</g>

<g transform="matrix( 1, 0, 0, 1, 0,-2.15) ">
<use xlink:href="#icon_r_box_02_32_Layer3_2_FILL"/>
</g>

<g transform="matrix( 1, 0, 0, 1, 0,0.05) ">
<use xlink:href="#icon_r_box_02_32_Layer3_3_FILL"/>
</g>

<g filter="url(#Filter_1)" transform="matrix( 0.9999847412109375, 0, 0, 1.000396728515625, -65,-60) ">
<g transform="matrix( 0.75, 0, 0, 0.74969482421875, 63.1,25.1) ">
<g transform="matrix( 1, 0, 0, 1, 0,0) ">
<use xlink:href="#Duplicate_Items_Folder___2_0_Layer1_0_FILL"/>

<use xlink:href="#Duplicate_Items_Folder___2_0_Layer1_0_1_STROKES"/>
</g>

<g transform="matrix( 1, 0, 0, 1, 0.05,-3.75) ">
<use xlink:href="#Duplicate_Items_Folder___2_0_Layer0_0_1_STROKES"/>
</g>

<g transform="matrix( 0.9877166748046875, 0.15625, -0.15625, 0.9877166748046875, 6.5,-0.2) ">
<use xlink:href="#Duplicate_Items_Folder___2_0_Layer0_1_1_STROKES" transform="matrix( 0.9877166748046875, -0.15625, 0.15625, 0.9877166748046875, -6.35,1.2) "/>
</g>

<g transform="matrix( 0.65582275390625, 0.0654449462890625, -0.0772552490234375, 0.7741546630859375, 4.05,9.55) ">
<use xlink:href="#Duplicate_Items_Folder___2_0_Layer0_2_1_STROKES" transform="matrix( 1.509765625, -0.12762451171875, 0.1506500244140625, 1.27899169921875, -7.55,-11.65) "/>
</g>

<g transform="matrix( 1.4332275390625, 0, 0, 1.4332275390625, -25.3,2.15) ">
<use xlink:href="#Duplicate_Items_Folder___2_0_Layer0_3_FILL"/>
</g>

<g transform="matrix( 1.4332275390625, 0, 0, 1.4332275390625, 3.5,2.15) ">
<use xlink:href="#Duplicate_Items_Folder___2_0_Layer0_4_FILL"/>
</g>

<g transform="matrix( 1.4332275390625, 0, 0, 1.4332275390625, 54.8,-36.95) ">
<use xlink:href="#Duplicate_Items_Folder___2_0_Layer0_5_FILL"/>
</g>

<g transform="matrix( 0.331268310546875, 0.0887298583984375, -0.0887298583984375, 0.331268310546875, 11.95,-6.25) ">
<use xlink:href="#Duplicate_Items_Folder___2_0_Layer0_6_FILL"/>
</g>

<g transform="matrix( 0.424285888671875, 0.24493408203125, -0.24493408203125, 0.424285888671875, 15.1,-1.25) ">
<use xlink:href="#Duplicate_Items_Folder___2_0_Layer0_7_FILL"/>
</g>

<g transform="matrix( 0.2771453857421875, -0.27716064453125, 0.27716064453125, 0.2771453857421875, 9.55,2.3) ">
<use xlink:href="#Duplicate_Items_Folder___2_0_Layer0_8_FILL"/>
</g>

<g transform="matrix( 0.67071533203125, 0, 0, 0.67071533203125, -89.6,-46.4) ">
<use xlink:href="#Duplicate_Items_Folder___2_0_Layer0_9_FILL"/>
</g>

<g transform="matrix( 0.51708984375, 0.29852294921875, -0.29852294921875, 0.51708984375, -60.85,-54.25) ">
<use xlink:href="#Duplicate_Items_Folder___2_0_Layer0_10_FILL"/>
</g>

<g transform="matrix( 0.33941650390625, 0.1959686279296875, -0.1959686279296875, 0.33941650390625, 16.75,-19.95) ">
<use xlink:href="#Duplicate_Items_Folder___2_0_Layer0_11_FILL"/>
</g>

<g transform="matrix( 0.1266326904296875, 0.2193603515625, -0.2193603515625, 0.1266326904296875, 22.05,-15.7) ">
<use xlink:href="#Duplicate_Items_Folder___2_0_Layer0_12_FILL"/>
</g>

<g transform="matrix( -0.1014251708984375, -0.378570556640625, 0.378570556640625, -0.1014251708984375, -28.2,3.3) ">
<use xlink:href="#Duplicate_Items_Folder___2_0_Layer0_13_FILL"/>
</g>

<g transform="matrix( 0.1218109130859375, -0.2109832763671875, 0.2109832763671875, 0.1218109130859375, -29.75,-0.9) ">
<use xlink:href="#Duplicate_Items_Folder___2_0_Layer0_14_FILL"/>
</g>

<g transform="matrix( -0.1014404296875, 0.3785400390625, -0.3785400390625, -0.1014404296875, 20.3,15.1) ">
<use xlink:href="#Duplicate_Items_Folder___2_0_Layer0_15_FILL"/>
</g>

<g transform="matrix( 0.67071533203125, 0, 0, 0.67071533203125, -78.05,-19.3) ">
<use xlink:href="#Duplicate_Items_Folder___2_0_Layer0_16_FILL"/>
</g>

<g transform="matrix( 0.51708984375, 0.29852294921875, -0.29852294921875, 0.51708984375, -47.35,-60.2) ">
<use xlink:href="#Duplicate_Items_Folder___2_0_Layer0_17_FILL"/>
</g>

<g transform="matrix( 0.51708984375, 0.29852294921875, -0.29852294921875, 0.51708984375, -40.85,-77) ">
<use xlink:href="#Duplicate_Items_Folder___2_0_Layer0_18_FILL"/>
</g>

<g transform="matrix( 0.251953125, 0.145416259765625, -0.145416259765625, 0.251953125, 11.55,7.95) ">
<use xlink:href="#Duplicate_Items_Folder___2_0_Layer0_19_FILL"/>
</g>

<g transform="matrix( 0.3447265625, 0.199005126953125, -0.199005126953125, 0.3447265625, -20.65,-48.15) ">
<use xlink:href="#Duplicate_Items_Folder___2_0_Layer0_20_FILL"/>
</g>

<g transform="matrix( 0.242462158203125, -0.24249267578125, 0.24249267578125, 0.242462158203125, -16.35,-5.9) ">
<use xlink:href="#Duplicate_Items_Folder___2_0_Layer0_21_FILL"/>
</g>

<g transform="matrix( 0.2742919921875, -0.0000152587890625, 0.0000152587890625, 0.2742919921875, -7.6,-16.3) ">
<use xlink:href="#Duplicate_Items_Folder___2_0_Layer0_22_FILL"/>
</g>

<g transform="matrix( 0.145477294921875, 0.25189208984375, -0.25189208984375, 0.145477294921875, -15.55,11.4) ">
<use xlink:href="#Duplicate_Items_Folder___2_0_Layer0_23_FILL"/>
</g>

<g transform="matrix( 0.243011474609375, -0.000030517578125, 0.000030517578125, 0.243011474609375, -13.1,12.9) ">
<use xlink:href="#Duplicate_Items_Folder___2_0_Layer0_24_FILL"/>
</g>

<g transform="matrix( -0.08563232421875, -0.1794891357421875, 0.1794891357421875, -0.08563232421875, -7.3,29.8) ">
<use xlink:href="#Duplicate_Items_Folder___2_0_Layer0_25_FILL"/>
</g>

<g transform="matrix( -0.10760498046875, 0.186431884765625, -0.186431884765625, -0.10760498046875, 7.55,30.35) ">
<use xlink:href="#Duplicate_Items_Folder___2_0_Layer0_26_FILL"/>
</g>

<g transform="matrix( 0.082489013671875, 0.307861328125, -0.307861328125, 0.082489013671875, 7.55,29.55) ">
<use xlink:href="#Duplicate_Items_Folder___2_0_Layer0_27_FILL"/>
</g>

<g transform="matrix( 1, 0, 0, 1, 2.3,59.6) ">
<mask id="Mask_Mask_1">
<g transform="matrix( 1.091796875, 0, 0, 1.091796875, 1.65,-56.75) ">
<use xlink:href="#Mask_Duplicate_Items_Folder_Symbol_26_0_2_MASK_0_FILL"/>
</g>
</mask>

<g mask="url(#Mask_Mask_1)">
<g transform="matrix( 1, 0, 0, 1, 0,0) ">
<use xlink:href="#Duplicate_Items_Folder_Symbol_26_0_Layer2_0_FILL"/>
</g>

<g transform="matrix( 1, 0, 0, 1, 0,0) ">
<use xlink:href="#Duplicate_Items_Folder_Symbol_26_0_Layer2_1_FILL"/>
</g>
</g>

<g mask="url(#Mask_Mask_1)">
<g transform="matrix( 0.75262451171875, 0, 0, 0.384185791015625, 10.35,-28.7) ">
<use xlink:href="#Duplicate_Items_Folder_Symbol_26_0_Layer1_0_MEMBER_0_1_STROKES" transform="matrix( 1.32867431640625, 0, 0, 2.6029052734375, -13.75,74.7) "/>
</g>

<g transform="matrix( 0.75262451171875, 0, 0, 0.3841552734375, 10.35,-33.45) ">
<use xlink:href="#Duplicate_Items_Folder_Symbol_26_0_Layer1_0_MEMBER_1_1_STROKES" transform="matrix( 1.32867431640625, 0, 0, 2.6031036376953125, -13.75,87.05) "/>
</g>
</g>
</g>

<g transform="matrix( 0.899993896484375, 0, 0, 0.899993896484375, 0,6) ">
<use xlink:href="#Duplicate_Items_Folder___2_0_Layer0_28_MEMBER_1_FILL"/>
</g>

<g transform="matrix( 1, 0, 0, 1, -55.3,0) ">
<use xlink:href="#Duplicate_Items_Folder___2_0_Layer0_29_FILL"/>
</g>

<g transform="matrix( 0.79998779296875, 0, 0, 0.79998779296875, 10.15,11.5) ">
<use xlink:href="#Duplicate_Items_Folder___2_0_Layer0_30_FILL"/>
</g>

<g transform="matrix( 0.79998779296875, 0, 0, 0.79998779296875, 9.1,13.15) ">
<use xlink:href="#Duplicate_Items_Folder___2_0_Layer0_31_FILL"/>
</g>

<g transform="matrix( 0.79998779296875, 0, 0, 0.79998779296875, 11.2,13.15) ">
<use xlink:href="#Duplicate_Items_Folder___2_0_Layer0_32_FILL"/>
</g>
</g>
</g>
</g>
</svg>
