
<svg xmlns="http://www.w3.org/2000/svg" version="1.1" xmlns:xlink="http://www.w3.org/1999/xlink" preserveAspectRatio="none" x="0px" y="0px" width="130px" height="115px" viewBox="0 0 130 115">
<defs>
<g id="icon_r_box_02_67_Layer3_0_FILL">
<path fill="#FFFFFF" fill-opacity="0" stroke="none" d="
M 65 -55
L -65 -55 -65 25 65 25 65 -55 Z"/>
</g>

<g id="icon_r_box_02_67_Layer3_1_FILL">
<path fill="#FFFFFF" fill-opacity="0" stroke="none" d="
M 65.05 49.95
L 65.05 24.95 -64.95 24.95 -64.95 49.95 65.05 49.95 Z"/>
</g>

<g id="icon_r_box_02_67_Layer3_2_FILL">
<path fill="#FFFFFF" fill-opacity="0" stroke="none" d="
M 65 -52.85
L 65 -57.85 -65 -57.85 -65 -52.85 65 -52.85 Z"/>
</g>

<g id="icon_r_box_02_67_Layer3_3_FILL">
<path fill="#FFFFFF" fill-opacity="0" stroke="none" d="
M 65 54.95
L 65 49.95 -65 49.95 -65 54.95 65 54.95 Z"/>
</g>

<g id="icon_r_box_02_67_Layer2_0_MEMBER_0_MEMBER_4_FILL">
<path fill="#000000" stroke="none" d="
M 1 27.1
L 8.75 27.1 4.9 19.2 1 27.1 Z"/>
</g>

<g id="icon_r_box_02_67_Layer2_0_MEMBER_0_MEMBER_5_FILL">
<path fill="#000000" stroke="none" d="
M 43.9 27.1
L 51.65 27.1 47.75 19.2 43.9 27.1 Z"/>
</g>

<path id="icon_r_box_02_67_Layer2_0_MEMBER_0_MEMBER_0_1_STROKES" stroke="#000000" stroke-width="2" stroke-linejoin="round" stroke-linecap="round" fill="none" d="
M 31.3 6
Q 31.3 8.05 29.85 9.55 28.4 11 26.35 11 24.25 11 22.8 9.55 21.35 8.05 21.35 6 21.35 3.95 22.8 2.45 24.25 1 26.35 1 28.4 1 29.85 2.45 31.3 3.95 31.3 6 Z"/>

<path id="icon_r_box_02_67_Layer2_0_MEMBER_0_MEMBER_1_1_STROKES" stroke="#000000" stroke-width="2" stroke-linejoin="round" stroke-linecap="round" fill="none" d="
M 26.35 11
L 26.35 43.1"/>

<path id="icon_r_box_02_67_Layer2_0_MEMBER_0_MEMBER_2_1_STROKES" stroke="#000000" stroke-width="2" stroke-linejoin="round" stroke-linecap="round" fill="none" d="
M 47.75 25.35
Q 47.75 33.1 41.5 38.6 35.2 44.05 26.35 44.05 17.45 44.05 11.2 38.6 4.9 33.1 4.9 25.35"/>

<path id="icon_r_box_02_67_Layer2_0_MEMBER_0_MEMBER_3_1_STROKES" stroke="#000000" stroke-width="2" stroke-linejoin="round" stroke-linecap="round" fill="none" d="
M 22.75 16.85
L 29.9 16.85"/>

<path id="icon_r_box_02_67_Layer2_0_MEMBER_0_MEMBER_4_1_STROKES" stroke="#000000" stroke-width="2" stroke-linejoin="round" stroke-linecap="round" fill="none" d="
M 1 27.1
L 4.9 19.2 8.75 27.1 1 27.1 Z"/>

<path id="icon_r_box_02_67_Layer2_0_MEMBER_0_MEMBER_5_1_STROKES" stroke="#000000" stroke-width="2" stroke-linejoin="round" stroke-linecap="round" fill="none" d="
M 43.9 27.1
L 47.75 19.2 51.65 27.1 43.9 27.1 Z"/>

<path id="icon_r_box_02_67_Layer2_0_MEMBER_1_1_STROKES" stroke="#000000" stroke-width="2" stroke-linejoin="round" stroke-linecap="round" fill="none" d="
M 47.75 25.35
Q 47.75 32.9 41.5 37.6 35.45 42.05 26.35 42.05 17.2 42.05 11.2 37.6 4.9 32.9 4.9 25.35"/>
</defs>

<g transform="matrix( 1, 0, 0, 0.999603271484375, 65,60) ">
<g transform="matrix( 1, 0, 0, 1, 0,0) ">
<use xlink:href="#icon_r_box_02_67_Layer3_0_FILL"/>
</g>

<g transform="matrix( 1, 0, 0, 1, -0.05,0.05) ">
<use xlink:href="#icon_r_box_02_67_Layer3_1_FILL"/>
</g>

<g transform="matrix( 1, 0, 0, 1, 0,-2.15) ">
<use xlink:href="#icon_r_box_02_67_Layer3_2_FILL"/>
</g>

<g transform="matrix( 1, 0, 0, 1, 0,0.05) ">
<use xlink:href="#icon_r_box_02_67_Layer3_3_FILL"/>
</g>

<g transform="matrix( 1, 0, 0, 1, -26.3,-37.55) ">
<use xlink:href="#icon_r_box_02_67_Layer2_0_MEMBER_0_MEMBER_0_1_STROKES"/>
</g>

<g transform="matrix( 1, 0, 0, 1, -26.3,-37.55) ">
<use xlink:href="#icon_r_box_02_67_Layer2_0_MEMBER_0_MEMBER_1_1_STROKES"/>
</g>

<g transform="matrix( 1, 0, 0, 1, -26.3,-37.55) ">
<use xlink:href="#icon_r_box_02_67_Layer2_0_MEMBER_0_MEMBER_2_1_STROKES"/>
</g>

<g transform="matrix( 1, 0, 0, 1, -26.3,-37.55) ">
<use xlink:href="#icon_r_box_02_67_Layer2_0_MEMBER_0_MEMBER_3_1_STROKES"/>
</g>

<g transform="matrix( 1, 0, 0, 1, -26.3,-37.55) ">
<use xlink:href="#icon_r_box_02_67_Layer2_0_MEMBER_0_MEMBER_4_FILL"/>

<use xlink:href="#icon_r_box_02_67_Layer2_0_MEMBER_0_MEMBER_4_1_STROKES"/>
</g>

<g transform="matrix( 1, 0, 0, 1, -26.3,-37.55) ">
<use xlink:href="#icon_r_box_02_67_Layer2_0_MEMBER_0_MEMBER_5_FILL"/>

<use xlink:href="#icon_r_box_02_67_Layer2_0_MEMBER_0_MEMBER_5_1_STROKES"/>
</g>

<g transform="matrix( 1, 0, 0, 1, -26.3,-37.55) ">
<use xlink:href="#icon_r_box_02_67_Layer2_0_MEMBER_1_1_STROKES"/>
</g>
</g>
</svg>
