
<svg xmlns="http://www.w3.org/2000/svg" version="1.1" xmlns:xlink="http://www.w3.org/1999/xlink" preserveAspectRatio="none" x="0px" y="0px" width="130px" height="115px" viewBox="0 0 130 115">
<defs>
<g id="icon_r_box_02_7_Layer3_0_FILL">
<path fill="#FFFFFF" fill-opacity="0" stroke="none" d="
M 65 -55
L -65 -55 -65 25 65 25 65 -55 Z"/>
</g>

<g id="icon_r_box_02_7_Layer3_1_FILL">
<path fill="#FFFFFF" fill-opacity="0" stroke="none" d="
M 65.05 49.95
L 65.05 24.95 -64.95 24.95 -64.95 49.95 65.05 49.95 Z"/>
</g>

<g id="icon_r_box_02_7_Layer3_2_FILL">
<path fill="#FFFFFF" fill-opacity="0" stroke="none" d="
M 65 -52.85
L 65 -57.85 -65 -57.85 -65 -52.85 65 -52.85 Z"/>
</g>

<g id="icon_r_box_02_7_Layer3_3_FILL">
<path fill="#FFFFFF" fill-opacity="0" stroke="none" d="
M 65 54.95
L 65 49.95 -65 49.95 -65 54.95 65 54.95 Z"/>
</g>

<g id="icon_r_box_02_7_Layer2_0_FILL">
<path fill="#E5E2DC" stroke="none" d="
M 58 49.75
L 58 6.6 7.35 6.6 7.35 49.75 58 49.75 Z"/>
</g>

<g id="icon_r_box_02_7_Layer2_1_FILL">
<path fill="#CBC6BD" stroke="none" d="
M 55.75 8.5
Q 55.3 8.05 54.65 8.05
L 10.75 8.05
Q 10.1 8.05 9.65 8.5 9.2 8.95 9.2 9.6
L 9.2 49.75 56.2 49.75 56.2 9.6
Q 56.2 8.95 55.75 8.5 Z"/>
</g>

<g id="icon_r_box_02_7_Layer2_2_MEMBER_0_MEMBER_0_MEMBER_0_FILL">
<path fill="#BAE6FF" stroke="none" d="
M 21.35 17.25
L 21.35 9.85 10.8 9.85 10.8 17.25 21.35 17.25 Z"/>
</g>

<g id="icon_r_box_02_7_Layer2_2_MEMBER_0_MEMBER_1_MEMBER_0_FILL">
<path fill="#BAE6FF" stroke="none" d="
M 54.6 17.25
L 54.6 9.85 44.05 9.85 44.05 17.25 54.6 17.25 Z"/>
</g>

<g id="icon_r_box_02_7_Layer2_2_MEMBER_1_MEMBER_0_FILL">
<path fill="#BAE6FF" stroke="none" d="
M 37.95 17.25
L 37.95 9.85 27.4 9.85 27.4 17.25 37.95 17.25 Z"/>
</g>

<g id="icon_r_box_02_7_Layer2_3_FILL">
<path fill="#E5E2DC" stroke="none" d="
M 59.05 6.6
L 59.05 0.5 6.3 0.5 6.3 6.6 59.05 6.6 Z"/>
</g>

<g id="icon_r_box_02_7_Layer2_4_FILL">
<path fill="#CBC6BD" stroke="none" d="
M 59.05 2.9
L 59.05 0.5 6.3 0.5 6.3 2.9 59.05 2.9 Z"/>
</g>

<g id="icon_r_box_02_7_Layer2_6_FILL">
<path fill="#E5E2DC" stroke="none" d="
M 45.15 49.75
L 45.15 36.45 20.25 36.45 20.25 49.75 45.15 49.75 Z"/>
</g>

<g id="icon_r_box_02_7_Layer2_7_FILL">
<path fill="#BAE6FF" stroke="none" d="
M 38.65 39.5
L 26.75 39.5 26.75 49.75 38.65 49.75 38.65 39.5 Z"/>
</g>

<g id="icon_r_box_02_7_Layer2_8_FILL">
<path fill="#82A4AC" stroke="none" d="
M 38.65 42.45
L 38.65 39.5 26.75 39.5 26.75 42.45 38.65 42.45 Z"/>
</g>

<g id="icon_r_box_02_7_Layer2_10_MEMBER_0_FILL">
<path fill="#BAE6FF" stroke="none" d="
M 17.45 46.2
L 17.45 38.8 10.8 38.8 10.8 46.2 17.45 46.2 Z"/>
</g>

<g id="icon_r_box_02_7_Layer2_11_MEMBER_0_FILL">
<path fill="#BAE6FF" stroke="none" d="
M 54.6 46.2
L 54.6 38.8 47.9 38.8 47.9 46.2 54.6 46.2 Z"/>
</g>

<g id="icon_r_box_02_7_Layer2_14_MEMBER_0_FILL">
<path fill="#FFFFFF" stroke="none" d="
M 53.45 36.25
L 53.45 20.15 11.95 20.15 11.95 36.25 53.45 36.25 Z"/>
</g>

<g id="icon_r_box_02_7_Layer2_14_MEMBER_1_MEMBER_0_FILL">
<path fill="#2D6ECD" stroke="none" d="
M 53.45 34.7
L 53.45 21.7 11.95 21.7 11.95 34.7 53.45 34.7 Z"/>
</g>

<g id="icon_r_box_02_7_Layer2_14_MEMBER_2_MEMBER_0_MEMBER_0_FILL">
<path fill="#FFC660" stroke="none" d="
M 18.2 29.1
L 18.75 27.25
Q 17.9 27.6 17.4 26.75
L 14.4 25.9 14.5 26.95
Q 14.75 28.1 15.7 28.65 17.2 29.55 18.2 29.1 Z"/>
</g>

<g id="icon_r_box_02_7_Layer2_14_MEMBER_2_MEMBER_0_MEMBER_1_FILL">
<path fill="#FFC660" stroke="none" d="
M 19.25 27.25
L 19.8 29.1
Q 20.8 29.55 22.3 28.65 23.8 27.75 23.6 25.9
L 20.6 26.75
Q 20.1 27.6 19.25 27.25 Z"/>
</g>

<g id="icon_r_box_02_7_Layer2_14_MEMBER_2_MEMBER_1_MEMBER_0_FILL">
<path fill="#FFC660" stroke="none" d="
M 17.8 31
L 20.15 31 20.85 28.8 20 28.15 19.65 26.05 20.2 25.4 17.55 25.4 18.45 26.05 18.15 28.05 17.1 28.8 17.8 31 Z"/>
</g>

<g id="icon_r_box_02_7_Layer1_0_FILL">
<path fill="#FFFFFF" stroke="none" d="
M 13.6 -12.55
Q 13.4 -12.7 13.15 -12.7 12.85 -12.7 12.65 -12.55 12.5 -12.45 12.5 -12.2
L 12.5 -11.25
Q 12.5 -10.45 12.05 -9.7 11.65 -8.95 10.8 -8.35 10.6 -8.15 10.6 -7.95 10.6 -7.7 10.75 -7.5 10.95 -7.35 11.15 -7.35 11.35 -7.3 11.6 -7.45 12.05 -7.8 12.45 -8.2 12.8 -8.6 13.1 -9.1
L 14.45 -7.6
Q 14.65 -7.4 14.9 -7.45 15.15 -7.45 15.35 -7.65 15.5 -7.85 15.5 -8.05 15.5 -8.3 15.3 -8.5
L 13.6 -10.1
Q 13.8 -10.7 13.8 -11.25
L 13.8 -12.2
Q 13.8 -12.45 13.6 -12.55
M 17.4 -12.5
Q 17.4 -12.7 17.25 -12.85 17.05 -12.95 16.8 -12.95 16.5 -12.95 16.35 -12.85 16.15 -12.7 16.15 -12.5
L 16.15 -10.9 14.95 -10.9
Q 14.75 -10.9 14.6 -10.75 14.5 -10.65 14.5 -10.4 14.5 -10.15 14.6 -10.05 14.75 -9.9 14.95 -9.9
L 16.15 -9.9 16.15 -6.55
Q 16.15 -6.3 16.35 -6.2 16.5 -6.1 16.8 -6.1 17.05 -6.1 17.25 -6.2 17.4 -6.3 17.4 -6.55
L 17.4 -12.5
M 7.35 -7.8
Q 7.55 -7.8 7.55 -7.6
L 7.55 -7.4
Q 7.55 -7.35 7.5 -7.3 7.45 -7.25 7.35 -7.25
L 4.1 -7.25
Q 3.9 -7.25 3.8 -7.15 3.7 -7 3.7 -6.85 3.7 -6.45 4.05 -6.4 4 -6.15 4 -5.95 4 -5.65 4.1 -5.45 4.2 -5.3 4.45 -5.15 4.75 -5.05 5.2 -4.95 5.65 -4.9 6.3 -4.9 7.05 -4.9 7.65 -5 8.3 -5.05 8.7 -5.2 8.9 -5.25 8.95 -5.4 9.05 -5.55 9 -5.75 8.95 -5.9 8.8 -6 8.65 -6.1 8.45 -6 8.05 -5.95 7.5 -5.85 6.95 -5.8 6.3 -5.8 6 -5.8 5.8 -5.8 5.6 -5.85 5.45 -5.9 5.35 -5.95 5.3 -6 5.25 -6.05 5.25 -6.15 5.25 -6.2 5.25 -6.25 5.3 -6.35 5.3 -6.4
L 7.85 -6.4
Q 8.85 -6.4 8.85 -7.25
L 8.85 -7.85
Q 8.85 -8.7 7.85 -8.7
L 4.25 -8.7
Q 4.05 -8.7 3.95 -8.55 3.85 -8.4 3.85 -8.2 3.85 -8.05 3.95 -7.9 4.05 -7.8 4.25 -7.8
L 7.35 -7.8
M 8.2 -12.95
Q 7.95 -12.95 7.75 -12.85 7.6 -12.7 7.6 -12.5
L 7.6 -9.4
Q 7.6 -9.2 7.75 -9.05 7.95 -8.95 8.2 -8.95 8.5 -8.95 8.65 -9.05 8.85 -9.2 8.85 -9.4
L 8.85 -10.5 9.65 -10.5
Q 9.85 -10.5 9.95 -10.6 10.1 -10.75 10.1 -10.95 10.1 -11.2 9.95 -11.35 9.85 -11.45 9.65 -11.45
L 8.85 -11.45 8.85 -12.5
Q 8.85 -12.7 8.65 -12.85 8.5 -12.95 8.2 -12.95
M 4.15 -12.4
L 3 -12.4
Q 2.8 -12.4 2.65 -12.25 2.55 -12.1 2.55 -11.9 2.55 -11.7 2.65 -11.55 2.8 -11.45 3 -11.45
L 4.15 -11.45 4.15 -11.2
Q 4.15 -11.05 4.05 -10.85 3.95 -10.65 3.8 -10.45 3.6 -10.25 3.3 -10.1 3.05 -9.9 2.65 -9.75 2.45 -9.65 2.4 -9.45 2.4 -9.25 2.45 -9.1 2.55 -8.9 2.75 -8.85 2.9 -8.8 3.1 -8.85 3.65 -9.05 4.1 -9.35 4.5 -9.65 4.8 -9.95
L 6.3 -9.1
Q 6.55 -9 6.75 -9.05 6.95 -9.15 7.05 -9.3 7.1 -9.5 7.1 -9.7 7.05 -9.9 6.8 -10.05
L 5.3 -10.8
Q 5.4 -11 5.4 -11.2
L 5.4 -11.45 6.5 -11.45
Q 6.7 -11.45 6.85 -11.55 6.95 -11.7 6.95 -11.9 6.95 -12.1 6.85 -12.25 6.7 -12.4 6.5 -12.4
L 5.4 -12.4 5.4 -12.8
Q 5.4 -13.05 5.25 -13.15 5.05 -13.3 4.75 -13.3 4.5 -13.3 4.3 -13.15 4.15 -13.05 4.15 -12.8
L 4.15 -12.4
M -3.15 -8.05
Q -3.45 -7.8 -3.6 -7.45 -3.75 -7.1 -3.75 -6.7 -3.75 -6.25 -3.6 -5.9 -3.45 -5.55 -3.15 -5.3 -2.85 -5.05 -2.45 -4.95 -2.05 -4.8 -1.6 -4.8 -1.15 -4.8 -0.75 -4.95 -0.35 -5.05 -0.05 -5.3 0.2 -5.55 0.4 -5.9 0.55 -6.25 0.55 -6.7 0.55 -7.1 0.4 -7.45 0.2 -7.8 -0.05 -8.05 -0.35 -8.3 -0.75 -8.4 -1.15 -8.55 -1.6 -8.55 -2.05 -8.55 -2.45 -8.4 -2.85 -8.3 -3.15 -8.05
M -2.3 -7.3
Q -2.05 -7.55 -1.6 -7.55 -1.2 -7.55 -0.9 -7.3 -0.65 -7.05 -0.65 -6.7 -0.65 -6.3 -0.9 -6.05 -1.2 -5.8 -1.6 -5.8 -2.05 -5.8 -2.3 -6.05 -2.55 -6.3 -2.55 -6.7 -2.55 -7.05 -2.3 -7.3
M -2.8 -12.7
L -4.8 -12.7
Q -5.05 -12.7 -5.2 -12.55 -5.35 -12.4 -5.35 -12.2 -5.35 -12 -5.2 -11.85 -5.05 -11.7 -4.8 -11.7
L -3.2 -11.7
Q -2.95 -11.7 -2.9 -11.6 -2.8 -11.5 -2.8 -11.3 -2.8 -11.05 -2.95 -10.75 -3.15 -10.5 -3.45 -10.25 -3.75 -10.05 -4.2 -9.85 -4.6 -9.65 -5.1 -9.55 -5.35 -9.5 -5.45 -9.3 -5.55 -9.1 -5.5 -8.9 -5.45 -8.7 -5.3 -8.6 -5.1 -8.45 -4.85 -8.5 -4.1 -8.65 -3.5 -8.95 -2.9 -9.2 -2.45 -9.6 -2 -9.95 -1.75 -10.45 -1.5 -10.9 -1.5 -11.35 -1.5 -12.05 -1.8 -12.35 -2.1 -12.7 -2.8 -12.7
M -0.15 -12.85
Q -0.3 -12.7 -0.3 -12.5
L -0.3 -12 -0.95 -12
Q -1.15 -12 -1.25 -11.9 -1.35 -11.75 -1.35 -11.5 -1.35 -11.3 -1.25 -11.2 -1.15 -11.05 -0.95 -11.05
L -0.3 -11.05 -0.3 -10.3 -1 -10.3
Q -1.2 -10.3 -1.3 -10.15 -1.4 -10 -1.4 -9.8 -1.4 -9.6 -1.3 -9.45 -1.2 -9.35 -1 -9.35
L -0.3 -9.35 -0.3 -8.9
Q -0.3 -8.65 -0.15 -8.55 0.05 -8.4 0.3 -8.4 0.6 -8.4 0.75 -8.55 0.95 -8.65 0.95 -8.9
L 0.95 -12.5
Q 0.95 -12.7 0.75 -12.85 0.6 -12.95 0.3 -12.95 0.05 -12.95 -0.15 -12.85 Z"/>
</g>

<path id="icon_r_box_02_7_Layer2_0_1_STROKES" stroke="#000000" stroke-width="1" stroke-linejoin="round" stroke-linecap="round" fill="none" d="
M 58 6.6
L 7.35 6.6 7.35 49.75 58 49.75 58 6.6 Z"/>

<path id="icon_r_box_02_7_Layer2_2_MEMBER_0_MEMBER_0_MEMBER_0_1_STROKES" stroke="#000000" stroke-width="1" stroke-linejoin="round" stroke-linecap="round" fill="none" d="
M 21.35 17.25
L 10.8 17.25 10.8 9.85 21.35 9.85 21.35 17.25 Z"/>

<path id="icon_r_box_02_7_Layer2_2_MEMBER_0_MEMBER_0_MEMBER_1_1_STROKES" stroke="#000000" stroke-width="1" stroke-linejoin="round" stroke-linecap="round" fill="none" d="
M 16.05 9.85
L 16.05 17.25"/>

<path id="icon_r_box_02_7_Layer2_2_MEMBER_0_MEMBER_1_MEMBER_0_1_STROKES" stroke="#000000" stroke-width="1" stroke-linejoin="round" stroke-linecap="round" fill="none" d="
M 54.6 17.25
L 44.05 17.25 44.05 9.85 54.6 9.85 54.6 17.25 Z"/>

<path id="icon_r_box_02_7_Layer2_2_MEMBER_0_MEMBER_1_MEMBER_1_1_STROKES" stroke="#000000" stroke-width="1" stroke-linejoin="round" stroke-linecap="round" fill="none" d="
M 49.3 9.85
L 49.3 17.25"/>

<path id="icon_r_box_02_7_Layer2_2_MEMBER_1_MEMBER_0_1_STROKES" stroke="#000000" stroke-width="1" stroke-linejoin="round" stroke-linecap="round" fill="none" d="
M 37.95 17.25
L 27.4 17.25 27.4 9.85 37.95 9.85 37.95 17.25 Z"/>

<path id="icon_r_box_02_7_Layer2_2_MEMBER_1_MEMBER_1_1_STROKES" stroke="#000000" stroke-width="1" stroke-linejoin="round" stroke-linecap="round" fill="none" d="
M 32.7 9.85
L 32.7 17.25"/>

<path id="icon_r_box_02_7_Layer2_5_MEMBER_0_1_STROKES" stroke="#000000" stroke-width="1" stroke-linejoin="round" stroke-linecap="round" fill="none" d="
M 0.5 49.75
L 64.85 49.75"/>

<path id="icon_r_box_02_7_Layer2_6_1_STROKES" stroke="#000000" stroke-width="1" stroke-linejoin="round" stroke-linecap="round" fill="none" d="
M 45.15 36.45
L 20.25 36.45 20.25 49.75 45.15 49.75 45.15 36.45 Z"/>

<path id="icon_r_box_02_7_Layer2_7_1_STROKES" stroke="#000000" stroke-width="1" stroke-linejoin="round" stroke-linecap="round" fill="none" d="
M 38.65 39.5
L 26.75 39.5 26.75 49.75 38.65 49.75 38.65 39.5 Z"/>

<path id="icon_r_box_02_7_Layer2_8_1_STROKES" stroke="#000000" stroke-width="1" stroke-linejoin="round" stroke-linecap="round" fill="none" d="
M 38.65 39.5
L 26.75 39.5 26.75 42.45 38.65 42.45 38.65 39.5 Z"/>

<path id="icon_r_box_02_7_Layer2_9_MEMBER_0_1_STROKES" stroke="#000000" stroke-width="1" stroke-linejoin="round" stroke-linecap="round" fill="none" d="
M 32.7 42.45
L 32.7 49.75"/>

<path id="icon_r_box_02_7_Layer2_10_MEMBER_0_1_STROKES" stroke="#000000" stroke-width="1" stroke-linejoin="round" stroke-linecap="round" fill="none" d="
M 17.45 46.2
L 10.8 46.2 10.8 38.8 17.45 38.8 17.45 46.2 Z"/>

<path id="icon_r_box_02_7_Layer2_11_MEMBER_0_1_STROKES" stroke="#000000" stroke-width="1" stroke-linejoin="round" stroke-linecap="round" fill="none" d="
M 54.6 46.2
L 47.9 46.2 47.9 38.8 54.6 38.8 54.6 46.2 Z"/>

<path id="icon_r_box_02_7_Layer2_12_MEMBER_0_1_STROKES" stroke="#000000" stroke-width="1" stroke-linejoin="round" stroke-linecap="round" fill="none" d="
M 0.5 49.75
L 64.85 49.75"/>

<path id="icon_r_box_02_7_Layer2_13_1_STROKES" stroke="#000000" stroke-width="1" stroke-linejoin="round" stroke-linecap="round" fill="none" d="
M 59.05 6.6
L 6.35 6.6 6.35 0.5 59.05 0.5 59.05 6.6 Z"/>

<path id="icon_r_box_02_7_Layer2_14_MEMBER_0_1_STROKES" stroke="#000000" stroke-width="1" stroke-linejoin="round" stroke-linecap="round" fill="none" d="
M 53.45 36.25
L 11.95 36.25 11.95 20.15 53.45 20.15 53.45 36.25 Z"/>

<path id="icon_r_box_02_7_Layer2_14_MEMBER_1_MEMBER_1_1_STROKES" stroke="#000000" stroke-width="1" stroke-linejoin="miter" stroke-linecap="butt" stroke-miterlimit="10" fill="none" d="
M 53.45 34.7
L 11.95 34.7 11.95 21.7 53.45 21.7 53.45 34.7 Z"/>

<path id="icon_r_box_02_7_Layer2_14_MEMBER_2_MEMBER_0_MEMBER_0_1_STROKES" stroke="#000000" stroke-width="1" stroke-linejoin="round" stroke-linecap="butt" fill="none" d="
M 18.75 27.25
Q 17.9 27.6 17.4 26.75
L 14.4 25.9 14.5 26.95
Q 14.75 28.1 15.7 28.65 17.2 29.55 18.2 29.1
L 18.75 27.25 Z"/>

<path id="icon_r_box_02_7_Layer2_14_MEMBER_2_MEMBER_0_MEMBER_1_1_STROKES" stroke="#000000" stroke-width="1" stroke-linejoin="round" stroke-linecap="butt" fill="none" d="
M 19.25 27.25
Q 20.1 27.6 20.6 26.75
L 23.6 25.9
Q 23.8 27.75 22.3 28.65 20.8 29.55 19.8 29.1
L 19.25 27.25 Z"/>

<path id="icon_r_box_02_7_Layer2_14_MEMBER_2_MEMBER_1_MEMBER_0_1_STROKES" stroke="#000000" stroke-width="1" stroke-linejoin="round" stroke-linecap="butt" fill="none" d="
M 20.85 28.8
L 20.15 31 17.8 31 17.1 28.8 18.15 28.05 18.45 26.05 17.55 25.4 20.2 25.4 19.65 26.05 20 28.15 20.85 28.8 Z"/>
</defs>

<g transform="matrix( 1, 0, 0, 0.999603271484375, 65,60) ">
<g transform="matrix( 1, 0, 0, 1, 0,0) ">
<use xlink:href="#icon_r_box_02_7_Layer3_0_FILL"/>
</g>

<g transform="matrix( 1, 0, 0, 1, -0.05,0.05) ">
<use xlink:href="#icon_r_box_02_7_Layer3_1_FILL"/>
</g>

<g transform="matrix( 1, 0, 0, 1, 0,-2.15) ">
<use xlink:href="#icon_r_box_02_7_Layer3_2_FILL"/>
</g>

<g transform="matrix( 1, 0, 0, 1, 0,0.05) ">
<use xlink:href="#icon_r_box_02_7_Layer3_3_FILL"/>
</g>

<g transform="matrix( 1, 0, 0, 1, -32.65,-37.15) ">
<use xlink:href="#icon_r_box_02_7_Layer2_0_FILL"/>

<use xlink:href="#icon_r_box_02_7_Layer2_0_1_STROKES"/>
</g>

<g transform="matrix( 1, 0, 0, 1, -32.65,-37.15) ">
<use xlink:href="#icon_r_box_02_7_Layer2_1_FILL"/>
</g>

<g transform="matrix( 1, 0, 0, 1, -32.65,-37.15) ">
<use xlink:href="#icon_r_box_02_7_Layer2_2_MEMBER_0_MEMBER_0_MEMBER_0_FILL"/>

<use xlink:href="#icon_r_box_02_7_Layer2_2_MEMBER_0_MEMBER_0_MEMBER_0_1_STROKES"/>
</g>

<g transform="matrix( 1, 0, 0, 1, -32.65,-37.15) ">
<use xlink:href="#icon_r_box_02_7_Layer2_2_MEMBER_0_MEMBER_0_MEMBER_1_1_STROKES"/>
</g>

<g transform="matrix( 1, 0, 0, 1, -32.65,-37.15) ">
<use xlink:href="#icon_r_box_02_7_Layer2_2_MEMBER_0_MEMBER_1_MEMBER_0_FILL"/>

<use xlink:href="#icon_r_box_02_7_Layer2_2_MEMBER_0_MEMBER_1_MEMBER_0_1_STROKES"/>
</g>

<g transform="matrix( 1, 0, 0, 1, -32.65,-37.15) ">
<use xlink:href="#icon_r_box_02_7_Layer2_2_MEMBER_0_MEMBER_1_MEMBER_1_1_STROKES"/>
</g>

<g transform="matrix( 1, 0, 0, 1, -32.65,-37.15) ">
<use xlink:href="#icon_r_box_02_7_Layer2_2_MEMBER_1_MEMBER_0_FILL"/>

<use xlink:href="#icon_r_box_02_7_Layer2_2_MEMBER_1_MEMBER_0_1_STROKES"/>
</g>

<g transform="matrix( 1, 0, 0, 1, -32.65,-37.15) ">
<use xlink:href="#icon_r_box_02_7_Layer2_2_MEMBER_1_MEMBER_1_1_STROKES"/>
</g>

<g transform="matrix( 1, 0, 0, 1, -32.65,-37.15) ">
<use xlink:href="#icon_r_box_02_7_Layer2_3_FILL"/>
</g>

<g transform="matrix( 1, 0, 0, 1, -32.65,-37.15) ">
<use xlink:href="#icon_r_box_02_7_Layer2_4_FILL"/>
</g>

<g transform="matrix( 1, 0, 0, 1, -32.65,-37.15) ">
<use xlink:href="#icon_r_box_02_7_Layer2_5_MEMBER_0_1_STROKES"/>
</g>

<g transform="matrix( 1, 0, 0, 1, -32.65,-37.15) ">
<use xlink:href="#icon_r_box_02_7_Layer2_6_FILL"/>

<use xlink:href="#icon_r_box_02_7_Layer2_6_1_STROKES"/>
</g>

<g transform="matrix( 1, 0, 0, 1, -32.65,-37.15) ">
<use xlink:href="#icon_r_box_02_7_Layer2_7_FILL"/>

<use xlink:href="#icon_r_box_02_7_Layer2_7_1_STROKES"/>
</g>

<g transform="matrix( 1, 0, 0, 1, -32.65,-37.15) ">
<use xlink:href="#icon_r_box_02_7_Layer2_8_FILL"/>

<use xlink:href="#icon_r_box_02_7_Layer2_8_1_STROKES"/>
</g>

<g transform="matrix( 1, 0, 0, 1, -32.65,-37.15) ">
<use xlink:href="#icon_r_box_02_7_Layer2_9_MEMBER_0_1_STROKES"/>
</g>

<g transform="matrix( 1, 0, 0, 1, -32.65,-37.15) ">
<use xlink:href="#icon_r_box_02_7_Layer2_10_MEMBER_0_FILL"/>

<use xlink:href="#icon_r_box_02_7_Layer2_10_MEMBER_0_1_STROKES"/>
</g>

<g transform="matrix( 1, 0, 0, 1, -32.65,-37.15) ">
<use xlink:href="#icon_r_box_02_7_Layer2_11_MEMBER_0_FILL"/>

<use xlink:href="#icon_r_box_02_7_Layer2_11_MEMBER_0_1_STROKES"/>
</g>

<g transform="matrix( 1, 0, 0, 1, -32.65,-37.15) ">
<use xlink:href="#icon_r_box_02_7_Layer2_12_MEMBER_0_1_STROKES"/>
</g>

<g transform="matrix( 1, 0, 0, 1, -32.65,-37.15) ">
<use xlink:href="#icon_r_box_02_7_Layer2_13_1_STROKES"/>
</g>

<g transform="matrix( 1, 0, 0, 1, -32.65,-37.15) ">
<use xlink:href="#icon_r_box_02_7_Layer2_14_MEMBER_0_FILL"/>

<use xlink:href="#icon_r_box_02_7_Layer2_14_MEMBER_0_1_STROKES"/>
</g>

<g transform="matrix( 1, 0, 0, 1, -32.65,-37.15) ">
<use xlink:href="#icon_r_box_02_7_Layer2_14_MEMBER_1_MEMBER_0_FILL"/>
</g>

<g transform="matrix( 1, 0, 0, 1, -32.65,-37.15) ">
<use xlink:href="#icon_r_box_02_7_Layer2_14_MEMBER_1_MEMBER_1_1_STROKES"/>
</g>

<g transform="matrix( 1, 0, 0, 1, -32.65,-37.15) ">
<use xlink:href="#icon_r_box_02_7_Layer2_14_MEMBER_2_MEMBER_0_MEMBER_0_FILL"/>

<use xlink:href="#icon_r_box_02_7_Layer2_14_MEMBER_2_MEMBER_0_MEMBER_0_1_STROKES"/>
</g>

<g transform="matrix( 1, 0, 0, 1, -32.65,-37.15) ">
<use xlink:href="#icon_r_box_02_7_Layer2_14_MEMBER_2_MEMBER_0_MEMBER_1_FILL"/>

<use xlink:href="#icon_r_box_02_7_Layer2_14_MEMBER_2_MEMBER_0_MEMBER_1_1_STROKES"/>
</g>

<g transform="matrix( 1, 0, 0, 1, -32.65,-37.15) ">
<use xlink:href="#icon_r_box_02_7_Layer2_14_MEMBER_2_MEMBER_1_MEMBER_0_FILL"/>

<use xlink:href="#icon_r_box_02_7_Layer2_14_MEMBER_2_MEMBER_1_MEMBER_0_1_STROKES"/>
</g>

<g transform="matrix( 1, 0, 0, 1, 0,0) ">
<use xlink:href="#icon_r_box_02_7_Layer1_0_FILL"/>
</g>
</g>
</svg>
