
<svg xmlns="http://www.w3.org/2000/svg" version="1.1" xmlns:xlink="http://www.w3.org/1999/xlink" preserveAspectRatio="none" x="0px" y="0px" width="130px" height="115px" viewBox="0 0 130 115">
<defs>
<filter id="Filter_1" x="-29.79374747091325%" y="-20.455986805943596%" width="159.5874949418265%" height="140.9119736118872%" color-interpolation-filters="sRGB">
<feFlood flood-color="#000000" flood-opacity="1" in="SourceGraphic" result="result1"/>

<feGaussianBlur in="SourceGraphic" stdDeviation="1.6666666666666667,1.6666666666666667" result="result2"/>

<feComposite in2="result2" in="result1" operator="in" result="result3"/>

<feComposite in2="result3" in="SourceGraphic" operator="over" result="result4"/>
</filter>

<g id="icon_r_box_02_21_Layer3_0_FILL">
<path fill="#FFFFFF" fill-opacity="0" stroke="none" d="
M 65 -55
L -65 -55 -65 25 65 25 65 -55 Z"/>
</g>

<g id="icon_r_box_02_21_Layer3_1_FILL">
<path fill="#FFFFFF" fill-opacity="0" stroke="none" d="
M 65.05 49.95
L 65.05 24.95 -64.95 24.95 -64.95 49.95 65.05 49.95 Z"/>
</g>

<g id="icon_r_box_02_21_Layer3_2_FILL">
<path fill="#FFFFFF" fill-opacity="0" stroke="none" d="
M 65 -52.85
L 65 -57.85 -65 -57.85 -65 -52.85 65 -52.85 Z"/>
</g>

<g id="icon_r_box_02_21_Layer3_3_FILL">
<path fill="#FFFFFF" fill-opacity="0" stroke="none" d="
M 65 54.95
L 65 49.95 -65 49.95 -65 54.95 65 54.95 Z"/>
</g>

<g id="Duplicate_Items_Folder_____0_Layer1_0_FILL">
<path fill="#FFFFFF" stroke="none" d="
M 21.4 -36.35
Q 21.45 -37.3 20.8 -37.95 20.45 -38.35 19.9 -38.55 20.8 -40.5 18.55 -41.8 17.45 -42.45 16.1 -42.75 16.05 -43 15.95 -43.3 15.8 -43.85 15.55 -44.25 14.7 -45.5 13.05 -45.6 11.8 -45.7 10.7 -45.3
L 10.85 -45.85
Q 10.85 -46.6 9.95 -47.55 8.5 -49.3 5.45 -48.1 3.85 -47.5 2.6 -46.6 -0.3 -47.85 -1.75 -46.3
L -2.6 -44.5
Q -4.7 -44.9 -6.3 -44.05 -7.3 -43.5 -7.35 -42.35
L -7.15 -41.2 -8.25 -41.1
Q -9.4 -40.8 -10.05 -39.65 -10.7 -38.4 -9.8 -37.25
L -8.7 -36.3
Q -10.25 -34 -9.1 -32.85
L -7.7 -32.15
Q -7.675 -32.14296875 -7.65 -32.15
L -7.65 -29
Q -8.7138671875 -29.155078125 -9.7 -28.7 -11.2 -28 -11.4 -26.05 -11.55 -24.15 -10.5 -22.8 -9.6 -21.75 -7.95 -21.35 -6.9181640625 -21.0611328125 -5.85 -21.2 -5.053515625 -19.887890625 -3.9 -18.75 -1.75390625 -16.60390625 0.9 -15.7
L 0.9 -15.1
Q 0.6166015625 -15.025 0.3 -15 0.3169921875 -15.012109375 0.3 -15.05
L 0.25 -14.95 0.2 -14.95 0.2 -14.9 -0.85 -13.25 -0.85 -13.2
Q -3.1609375 -12.5615234375 -5.6 -11.4
L -5.6 -11.3 -12 -6.3 -19.1 -11.85 -19.9 -10.75 -19.9 -11.15
Q -20.5 -12.55 -21.45 -12.95 -22.35 -13.35 -23.8 -14.6 -24.0171875 -14.7939453125 -24.2 -14.95
L -28.85 -41.4
Q -28.95 -41.85 -29.4 -41.8 -29.9 -41.7 -29.8 -41.2
L -25.45 -13.95
Q -25.768359375 -14.00390625 -26.2 -13.95 -26.45 -13.9 -26.7 -13.85 -27.9 -13.55 -28.35 -12.9 -28.75 -12.35 -28.4 -11.85 -28.75 -10.8 -28.25 -10.2 -27.75 -9.7 -27.5 -9.6 -27.65 -9.05 -27 -8
L -26.5 -7.2
Q -26.2 -6.8 -25.55 -6.7 -25.3 -6.7 -24.85 -6.8 -24.309765625 -6.8865234375 -23.95 -7.1 -23.2986328125 -6.9416015625 -22.65 -7
L -24.1 -4.95 -14.3 1.6
Q -13.35 2.25 -12.1 2.3 -10.9 2.25 -10.05 1.55
L -6.5 -1.1 -7.9 15.1 -7.9 15.15
Q -7.6 15.25 -7.3 15.3 -6.3646484375 15.529296875 -5.45 15.7
L -4.6 40.65
Q -4.7103515625 40.6298828125 -4.85 40.6
L -4.7 44.25
Q -4.4498046875 44.3052734375 -4.2 44.35 -5.226171875 44.949609375 -6.4 45.1 -9.2 45.45 -10.25 46.7 -11.3 48 -10.75 50.8 -9.55 51.75 5.05 50.8 5.2 49 4.75 45.95
L 4.45 44.3
Q 4.6611328125 44.29140625 4.85 44.25
L 4.95 40.6
Q 4.8609375 40.619140625 4.75 40.6
L 5.15 29.75 5.5 40.65
Q 5.414453125 40.624609375 5.3 40.6
L 5.45 44.25
Q 5.7373046875 44.3134765625 6 44.35
L 5.75 45.95
Q 5.3 49 5.45 50.8 20.05 51.75 21.25 50.8 21.8 48 20.75 46.7 19.7 45.45 16.9 45.1 15.70859375 44.947265625 14.65 44.3 14.8333984375 44.2865234375 15 44.25
L 15.1 40.6
Q 14.985546875 40.624609375 14.85 40.65
L 15.75 15.7
Q 16.6017578125 15.524609375 17.45 15.3 17.7 15.25 18 15.15
L 18 15.1 17.2 6 18.9 6
Q 20.55 6 21.7 4.85 22.9 3.65 22.9 2 22.9 0.6763671875 22.1 -0.35
L 17.9 -9.35
Q 17.211328125 -10.8255859375 15.7 -11.4
L 15.7 -11.4
Q 13.4359375 -12.5876953125 11.15 -13.25
L 11.15 -13.25 10 -15.05
Q 9.9791015625 -15.003515625 9.95 -14.95 9.678125 -15.0037109375 9.4 -15.05
L 9.4 -15.7
Q 12.0529296875 -16.61015625 14.25 -18.75 15.3921875 -19.9234375 16.15 -21.25 17.441796875 -21.01171875 18.65 -21.35 20.3 -21.75 21.2 -22.8 22.25 -24.15 22.1 -26.05 21.9 -28 20.4 -28.7 19.2505859375 -29.23046875 17.95 -28.9
L 17.85 -32.6
Q 18.7939453125 -32.1962890625 19.3 -32.5 20.5 -33.15 20.05 -35.45 21.4 -35.25 21.4 -36.35 Z"/>
</g>

<g id="Duplicate_Items_Folder_____0_Layer0_0_MEMBER_0_MEMBER_0_FILL">
<path fill="#D68649" stroke="none" d="
M 4.75 -3.65
L 5.9 -0.05 8.15 -1.95
Q 9.7 -1.7 11.1 -2.55
L 12.7 -6.85 10.6 -7.55
Q 11.15 -8.05 10.95 -8.8 10.80625 -9.55 9.55 -8.5 8.3296875 -7.4 7.55 -7.05 6.7734375 -6.7 6.2 -5.5
L 6.2 -4.65
Q 5.05 -3.65 4.75 -3.65 Z"/>
</g>

<g id="Duplicate_Items_Folder_____0_Layer0_0_MEMBER_1_FILL">
<path fill="#71E539" stroke="none" d="
M -25.95 -17.25
L -24.5 -7.85
Q -24.4 -7.05 -23.65 -7.15 -23.3 -7.2 -23.1 -7.5 -22.9 -7.8 -23 -8.15
L -24.65 -17.45 -25.95 -17.25 Z"/>

<path fill="#56330F" stroke="none" d="
M -29.4 -41.8
Q -29.9 -41.7 -29.8 -41.2
L -25.95 -17.25 -24.65 -17.45 -28.85 -41.4
Q -28.95 -41.85 -29.4 -41.8 Z"/>
</g>

<g id="Duplicate_Items_Folder_____0_Layer0_0_MEMBER_2_MEMBER_0_FILL">
<path fill="#D68649" stroke="none" d="
M 5.9 4.15
Q 6.35 3.65 6.05 2.7 6.35 2.3 6 1.8 5.6 1.25 4.6 1 4.35 0.95 4.15 0.9 3.45 0.8 3.05 1.1 2.4 1.5 2.65 2.35 1.75 3 2.15 3.85 1.3 4.3 1.8 5.1 1.35 5.45 1.65 6.2 1.9 6.9 3 7.1 3.35 7.15 3.6 7.15 4.15 7.1 4.4 6.75
L 4.85 6.05
Q 5.4 5.15 5.25 4.65 5.5 4.6 5.9 4.15 Z"/>
</g>

<g id="Duplicate_Items_Folder_____0_Layer0_1_FILL">
<path fill="#FFEDB6" stroke="none" d="
M -19.1 -11.85
L -24.1 -4.95 -14.3 1.6
Q -13.35 2.25 -12.1 2.3 -10.9 2.25 -10.05 1.55
L 0.4 -6.2 -1.85 -12.2
Q -4.15 -12.2 -5.5 -11.35
L -12 -6.3 -19.1 -11.85 Z"/>
</g>

<g id="Duplicate_Items_Folder_____0_Layer0_2_FILL">
<path fill="#F6D36A" stroke="none" d="
M -25.1 -11.15
L -25.1 -7.4 -15.3 -7.4 -15.3 -11.15
Q -20.0072265625 -12.0177734375 -25.1 -11.15 Z"/>
</g>

<g id="Duplicate_Items_Folder_____0_Layer0_3_FILL">
<path fill="#FFEDB6" stroke="none" d="
M 17.9 -9.35
Q 17.2 -10.85 15.65 -11.4 14.1 -11.95 12.6 -11.25 11.1 -10.55 10.55 -9 10 -7.45 10.65 -5.95
L 13.9 0.95 22.7 0.95 17.9 -9.35 Z"/>
</g>

<g id="Duplicate_Items_Folder_____0_Layer0_4_FILL">
<path fill="#FFE3B3" stroke="none" d="
M -9.5 -7.55
Q -15.3 -10.3 -20.5 -10.25 -25.7 -10.2 -30.8 -7.55
L -33.1 18.95
Q -32.8 19.05 -32.55 19.1 -20.65 22.25 -7.8 19.1 -7.5 19.05 -7.2 18.95
L -9.5 -7.55 Z"/>
</g>

<g id="Duplicate_Items_Folder_____0_Layer0_5_MEMBER_0_FILL">
<path fill="#D68649" stroke="none" d="
M 2.05 -23.3
Q 2.0453125 -23.2498046875 2.05 -23.2 1.6080078125 -18.751171875 -0.5 -16
L -0.45 -16
Q -0.4203125 -16.024609375 -0.4 -16.05
L 0.65 -15.8
Q 1.95 -15.55 3.2 -15.9 4.85 -16.3 5.75 -17.35 6.8 -18.7 6.65 -20.6 6.45 -22.55 4.95 -23.25 3.665625 -23.868359375 2.2 -23.35 2.1251953125 -23.3291015625 2.05 -23.3 Z"/>
</g>

<g id="Duplicate_Items_Folder_____0_Layer0_5_MEMBER_1_FILL">
<path fill="#BD6D2F" stroke="none" d="
M 195.15 15.85
Q 194.65 18.3 193.6 20.15 196.9 20.7 197.75 18.95 198.45 17.6 197.75 16.5 197.05 15.35 195.15 15.85 Z"/>
</g>

<g id="Duplicate_Items_Folder_____0_Layer0_6_MEMBER_0_FILL">
<path fill="#D68649" stroke="none" d="
M 2.05 -23.3
Q 2.0453125 -23.2498046875 2.05 -23.2 1.6080078125 -18.751171875 -0.5 -16
L -0.45 -16
Q -0.4203125 -16.024609375 -0.4 -16.05
L 0.65 -15.8
Q 1.95 -15.55 3.2 -15.9 4.85 -16.3 5.75 -17.35 6.8 -18.7 6.65 -20.6 6.45 -22.55 4.95 -23.25 3.665625 -23.868359375 2.2 -23.35 2.1251953125 -23.3291015625 2.05 -23.3 Z"/>
</g>

<g id="Duplicate_Items_Folder_____0_Layer0_6_MEMBER_1_FILL">
<path fill="#BD6D2F" stroke="none" d="
M 195.15 15.85
Q 194.65 18.3 193.6 20.15 196.9 20.7 197.75 18.95 198.45 17.6 197.75 16.5 197.05 15.35 195.15 15.85 Z"/>
</g>

<g id="Duplicate_Items_Folder_____0_Layer0_7_MEMBER_0_FILL">
<path fill="#2C89E5" stroke="none" d="
M -31.2 8.95
L -29.85 47.95
Q -25.3 48.95 -20.75 47.95
L -19.4 8.95 -31.2 8.95 Z"/>
</g>

<g id="Duplicate_Items_Folder_____0_Layer0_7_MEMBER_1_FILL">
<path fill="#F4AB4D" stroke="none" d="
M 56.45 88.9
Q 55 90.3 53.15 90.55 50.5 90.9 49.55 92.05 48.55 93.3 49.05 95.9 50.2 96.8 63.95 95.9 64.05 94.2 63.65 91.35
L 63.2 88.85
Q 59.8720703125 89.674609375 56.45 88.9 Z"/>
</g>

<g id="Duplicate_Items_Folder_____0_Layer0_7_MEMBER_2_FILL">
<path fill="#F4AB4D" stroke="none" d="
M 56.45 88.9
Q 55 90.3 53.15 90.55 50.5 90.9 49.55 92.05 48.55 93.3 49.05 95.9 50.2 96.8 63.95 95.9 64.05 94.2 63.65 91.35
L 63.2 88.85
Q 59.8720703125 89.674609375 56.45 88.9 Z"/>
</g>

<g id="Duplicate_Items_Folder_____0_Layer0_7_MEMBER_3_FILL">
<path fill="#1C6AB8" stroke="none" d="
M -39.75 47.95
L -39.65 44.45
Q -44.27578125 45.47734375 -49 44.45
L -48.85 47.95
Q -44.3 48.95 -39.75 47.95 Z"/>
</g>

<g id="Duplicate_Items_Folder_____0_Layer0_7_MEMBER_4_FILL">
<path fill="#2C89E5" stroke="none" d="
M -21.1 8.95
L -19.75 47.95
Q -15.2 48.95 -10.65 47.95
L -9.3 8.95 -21.1 8.95 Z"/>
</g>

<g id="Duplicate_Items_Folder_____0_Layer0_7_MEMBER_6_FILL">
<path fill="#1C6AB8" stroke="none" d="
M -39.75 47.95
L -39.65 44.45
Q -44.27578125 45.47734375 -49 44.45
L -48.85 47.95
Q -44.3 48.95 -39.75 47.95 Z"/>
</g>

<g id="Duplicate_Items_Folder_____0_Layer0_8_FILL">
<path fill="#C56F2D" stroke="none" d="
M -24.5 -14.2
L -24.5 -6.9
Q -20.35 -4.75 -16 -6.9
L -16 -14.2 -24.5 -14.2 Z"/>
</g>

<g id="Duplicate_Items_Folder_____0_Layer0_9_FILL">
<path fill="#D68649" stroke="none" d="
M -15.6 -38.75
Q -18.1 -40.1 -20.25 -40.1 -25.55 -40.1 -29.35 -36.3 -32.45 -33.2 -33 -29.05
L -33.1 -23.85
Q -33 -18.7 -29.35 -14.95 -25.5 -11.2 -20.25 -11.2 -14.95 -11.2 -11.2 -14.95 -7.5 -18.6 -7.45 -23.85
L -7.45 -29.05 -8 -32.05
Q -9 -35.25 -11.2 -36.3 -12.8 -37.05 -15.6 -38.75 Z"/>
</g>

<g id="Duplicate_Items_Folder_____0_Layer0_10_FILL">
<path fill="#FFEDB6" stroke="none" d="
M -24.5 -6.9
Q -23.7 -6.05 -22.7 -5.75 -21.8 -5.5 -20.1 -5.5 -18.15 -5.5 -16.9 -6.2
L -16 -6.9
Q -20.7412109375 -6.0158203125 -24.5 -6.9 Z"/>
</g>

<g id="Duplicate_Items_Folder_____0_Layer0_11_MEMBER_0_STROKES_1_FILL">
<path fill="#82361A" stroke="none" d="
M -25.4 -29.75
L -25.65 -29.7 -26.25 -29.4 -26.4 -29.3 -26.8 -28.9
Q -27.1 -28.5 -26.75 -28.15 -26.5 -28 -26.3 -28.05
L -26.25 -28.05 -26.15 -28.1 -26.05 -28.1 -25.95 -28.15 -25.35 -28.35 -25.3 -28.35 -25.2 -28.4 -25.05 -28.45 -24.95 -28.45 -24.95 -28.5 -24.85 -28.55 -24.75 -28.55 -24.75 -28.6 -24.55 -28.7
Q -24.35 -28.8 -24.25 -29 -24.2 -29.2 -24.3 -29.4 -24.35 -29.55 -24.6 -29.65
L -24.8 -29.75 -25 -29.75 -25.2 -29.8 -25.25 -29.8 -25.3 -29.75 -25.4 -29.75
M -15.45 -29.4
L -16.05 -29.7 -16.3 -29.75 -16.4 -29.75 -16.45 -29.8 -16.5 -29.8 -16.7 -29.75 -16.9 -29.75 -17.1 -29.65
Q -17.65 -29.45 -17.4 -28.95
L -17.15 -28.7 -16.95 -28.6 -16.95 -28.55 -16.85 -28.55 -16.75 -28.5 -16.75 -28.45 -16.65 -28.45 -16.5 -28.4 -16.4 -28.35 -16.35 -28.35 -15.75 -28.15 -15.65 -28.1 -15.55 -28.1 -15.45 -28.05 -15.4 -28.05
Q -14.9 -27.95 -14.8 -28.45 -14.75 -28.65 -14.9 -28.9
L -15.3 -29.3 -15.45 -29.4 Z"/>
</g>

<g id="Duplicate_Items_Folder_____0_Layer0_11_MEMBER_1_FILL">
<path fill="#CC6F28" stroke="none" d="
M 26.95 26.65
Q 26.95 25.95 26 25.45 25.1 25 23.75 25 22.4 25 21.45 25.45 20.55 25.95 20.55 26.65 20.55 27.35 21.45 27.8 22.4 28.3 23.75 28.3 25.1 28.3 26 27.8 26.95 27.35 26.95 26.65 Z"/>
</g>

<g id="Duplicate_Items_Folder_____0_Layer0_11_MEMBER_2_FILL">
<path fill="#000000" stroke="none" d="
M 18.9 22.25
Q 18.9 21.3 18.55 20.6 18.2 19.9 17.7 19.9 17.2 19.9 16.85 20.6 16.5 21.3 16.5 22.25 16.5 23.2 16.85 23.9 17.2 24.6 17.7 24.6 18.2 24.6 18.55 23.9 18.9 23.2 18.9 22.25 Z"/>
</g>

<g id="Duplicate_Items_Folder_____0_Layer0_11_MEMBER_3_FILL">
<path fill="#E71818" stroke="none" d="
M 60.95 21.25
Q 60.9 21.1 60.8 21.05 60.65 20.95 60.5 20.95 60.35 20.95 60.25 21.05 60 21.15 58.75 21.75 57.55 22.25 55.95 22.3 55.8 22.3 55.7 22.4 55.55 22.45 55.5 22.6 55.45 22.7 55.45 22.85 55.55 23.9 56.3 24.6 57.15 25.5 58.35 25.5 59.55 25.5 60.45 24.6
L 60.4 24.6
Q 61.25 23.75 61.25 22.55 61.25 21.85 60.95 21.25 Z"/>
</g>

<g id="Duplicate_Items_Folder_____0_Layer0_11_MEMBER_4_FILL">
<path fill="#FF5454" stroke="none" d="
M 13.55 18.8
Q 14.25 19.4 15.25 19.4 16.45 19.4 17.35 18.5
L 17.3 18.5
Q 17.7 18.1 17.9 17.65 15.3 16.8 13.55 18.8 Z"/>
</g>

<g id="Duplicate_Items_Folder_____0_Layer0_11_MEMBER_5_FILL">
<path fill="#CC6F28" stroke="none" d="
M 26.95 26.65
Q 26.95 25.95 26 25.45 25.1 25 23.75 25 22.4 25 21.45 25.45 20.55 25.95 20.55 26.65 20.55 27.35 21.45 27.8 22.4 28.3 23.75 28.3 25.1 28.3 26 27.8 26.95 27.35 26.95 26.65 Z"/>
</g>

<g id="Duplicate_Items_Folder_____0_Layer0_11_MEMBER_6_FILL">
<path fill="#000000" stroke="none" d="
M 10.05 22.9
Q 10.05 21.9 9.6 21.15 9.15 20.4 8.55 20.4 7.9 20.4 7.45 21.15 7.05 21.9 7.05 22.9 7.05 23.95 7.45 24.65 7.9 25.4 8.55 25.4 9.15 25.4 9.6 24.65 10.05 23.95 10.05 22.9 Z"/>
</g>

<g id="Duplicate_Items_Folder_____0_Layer0_13_FILL">
<path fill="#995622" stroke="none" d="
M -10.75 -37.6
Q -12.5111328125 -39.2666015625 -15.3 -40.1 -18.0890625 -40.88359375 -21.85 -40.85 -25.5537109375 -40.8056640625 -29.35 -37 -32.45 -33.9 -32.95 -29.75
L -33.1 -24.55
Q -33.1 -24.35 -33.1 -24.15
L -30 -32.4
Q -19.390234375 -38.9876953125 -10.55 -32.4
L -7.45 -24.15
Q -7.45 -24.35 -7.45 -24.55
L -7.45 -29.75 -8 -32.75
Q -8.996484375 -35.94453125 -10.75 -37.6 Z"/>
</g>

<g id="Duplicate_Items_Folder_____0_Layer0_14_FILL">
<path fill="#FF99D5" stroke="none" d="
M -40.85 64.5
L -43.15 91
Q -30.7 94.45 -17.25 91
L -19.55 64.5
Q -22.7 63 -25.65 62.35 -25.85 64.1 -27 65.35 -28.3 66.9 -30.2 66.9 -32.1 66.9 -33.45 65.35 -34.6 64.05 -34.7 62.3 -37.8 62.9 -40.85 64.5 Z"/>
</g>

<g id="Duplicate_Items_Folder_____0_Layer0_16_FILL">
<path fill="#FFF7DE" stroke="none" d="
M -25.1 -11.1
L -26.25 -9.3
Q -25.45 -5.2 -24.45 -2.9 -22.8 -5.05 -20.8 -6.35 -23.95 -8.55 -25.1 -11.1 Z"/>
</g>

<g id="Duplicate_Items_Folder_____0_Layer0_17_FILL">
<path fill="#FFF7DE" stroke="none" d="
M -25.1 -11.1
L -26.25 -9.3
Q -25.45 -5.2 -24.45 -2.9 -22.8 -5.05 -20.8 -6.35 -23.95 -8.55 -25.1 -11.1 Z"/>
</g>

<g id="Duplicate_Items_Folder_____0_Layer0_18_MEMBER_0_MEMBER_0_FILL">
<path fill="#346BE9" stroke="none" d="
M 49.5 19.3
Q 49.5 19.25 49.5 19.2
L 49.5 4.4
Q 49.4982421875 4.1947265625 49.35 4.05 49.2052734375 3.9017578125 49 3.9
L 38.3 3.9 38.3 6.05 35.05 6.05 35.05 20.85
Q 35.05 21.05 35.2 21.2 35.35 21.35 35.55 21.35
L 47.45 21.35
Q 48.2509765625 21.3525390625 48.85 20.75 49.5099609375 20.0935546875 49.5 19.3 Z"/>
</g>

<g id="Duplicate_Items_Folder_____0_Layer0_18_MEMBER_0_MEMBER_1_FILL">
<path fill="#2057D6" stroke="none" d="
M 47.1 4.05
Q 46.9517578125 4.1947265625 46.95 4.4
L 46.95 20.85
Q 46.9517578125 21.0552734375 47.1 21.2 47.2447265625 21.3482421875 47.45 21.35 48.2509765625 21.3525390625 48.85 20.75 49.5099609375 20.0935546875 49.5 19.3 49.5 19.25 49.5 19.2
L 49.5 4.4
Q 49.4982421875 4.1947265625 49.35 4.05 49.2052734375 3.9017578125 49 3.9
L 47.45 3.9
Q 47.2447265625 3.9017578125 47.1 4.05 Z"/>
</g>

<g id="Duplicate_Items_Folder_____0_Layer0_18_MEMBER_0_MEMBER_2_FILL">
<path fill="#FFF1B6" stroke="none" d="
M 48.5 3.45
Q 48.05 2.95 47.4 2.95
L 35.35 2.95
Q 35.87109375 4.793359375 35.35 6.1
L 47.4 6.1
Q 48.05 6.1 48.5 5.65 49 5.15 49 4.55 49 3.9 48.5 3.45 Z"/>
</g>

<g id="Duplicate_Items_Folder_____0_Layer0_18_MEMBER_0_MEMBER_4_FILL">
<path fill="#6694FD" stroke="none" d="
M -20.8 2.5
Q -20.95 2.35 -21.15 2.3
L -26.7 0.8
Q -26.9 0.75 -27.05 0.8 -27.25 0.95 -27.3 1.15
L -27.8 2.95
Q -27.85 3.15 -27.75 3.3 -27.6 3.5 -27.4 3.55
L -21.85 5.05
Q -21.65 5.1 -21.5 5 -21.3 4.9 -21.25 4.7
L -20.75 2.9
Q -20.7 2.7 -20.8 2.5 Z"/>
</g>

<g id="Duplicate_Items_Folder_____0_Layer0_18_MEMBER_1_FILL">
<path fill="#D68649" stroke="none" d="
M 3.25 -5.55
L 0.65 -4.4 2.65 0.2 5.3 -1
Q 7.65 -0.45 9.6 -0.95 11.6 -1.4 11.95 -2.65 12.15 -3.45 11.75 -3.95 12.6 -5.1 11.65 -5.95 11.95 -6.45 11.9 -7.1 11.75 -7.7 11.15 -8.1 11.4 -8.65 10.95 -9.2 10.6 -9.55 10.1 -9.7 9.6 -9.85 8.4 -9.35 8 -10.1 7.05 -9.95 6 -9.8 5.35 -8.65 4.35 -7.05 3.25 -5.55 Z"/>
</g>

<g id="Duplicate_Items_Folder_____0_Layer0_18_MEMBER_2_FILL">
<path fill="#FFEDB6" stroke="none" d="
M 20.2 8.95
Q 21.85 8.95 23 7.8 24.2 6.6 24.2 4.95 24.2 3.3 23 2.15 21.85 0.95 20.2 0.95
L 10.6 0.95 10.6 8.95 20.2 8.95 Z"/>
</g>

<g id="Duplicate_Items_Folder_____0_Layer0_19_FILL">
<path fill="#5B2613" stroke="none" d="
M -7.65 -38
Q -8.75 -38.65 -10.1 -38.95 -10.15 -39.2 -10.25 -39.5 -10.4 -40.05 -10.65 -40.45 -11.5 -41.7 -13.15 -41.8 -14.4 -41.9 -15.5 -41.5
L -15.35 -42.05
Q -15.35 -42.8 -16.25 -43.75 -17.7 -45.5 -20.75 -44.3 -22.35 -43.7 -23.6 -42.8 -26.5 -44.05 -27.95 -42.5
L -28.8 -40.7
Q -30.9 -41.1 -32.5 -40.25 -33.5 -39.7 -33.55 -38.55
L -33.35 -37.4 -34.45 -37.3
Q -35.6 -37 -36.25 -35.85 -36.9 -34.6 -36 -33.45
L -34.9 -32.5
Q -36.45 -30.2 -35.3 -29.05
L -33.9 -28.35
Q -31.4 -27.65 -29.3 -29.05 -27.3 -30.5 -26.6 -31.75 -25.35 -30.85 -23.85 -31.55
L -22.65 -32.4
Q -21.15 -32.1 -20.05 -32.9 -19.5 -33.3 -19.2 -33.75 -16.9 -31.7 -14.85 -31.65
L -13.05 -31.95
Q -10.3 -29.9 -9.3 -29.3 -7.65 -28.25 -6.9 -28.7 -5.7 -29.35 -6.15 -31.65 -4.8 -31.45 -4.8 -32.55 -4.75 -33.5 -5.4 -34.15 -5.75 -34.55 -6.3 -34.75 -5.4 -36.7 -7.65 -38 Z"/>
</g>

<path id="Duplicate_Items_Folder_____0_Layer1_0_1_STROKES" stroke="#FFFFFF" stroke-width="8" stroke-linejoin="round" stroke-linecap="round" fill="none" d="
M -19.9 -11.15
Q -20.5 -12.55 -21.45 -12.95 -22.35 -13.35 -23.8 -14.6 -24.0171875 -14.7939453125 -24.2 -14.925
L -28.85 -41.4
Q -28.95 -41.85 -29.4 -41.8 -29.9 -41.7 -29.8 -41.2
L -25.45 -13.95
Q -25.768359375 -14.00390625 -26.2 -13.95 -26.45 -13.9 -26.7 -13.85 -27.9 -13.55 -28.35 -12.9 -28.75 -12.35 -28.4 -11.85 -28.75 -10.8 -28.25 -10.2 -27.75 -9.7 -27.5 -9.6 -27.65 -9.05 -27 -8
L -26.5 -7.2
Q -26.2 -6.8 -25.55 -6.7 -25.3 -6.7 -24.85 -6.8 -24.309765625 -6.8865234375 -23.95 -7.075 -23.2986328125 -6.9416015625 -22.625 -7
L -24.1 -4.95 -14.3 1.6
Q -13.35 2.25 -12.1 2.3 -10.9 2.25 -10.05 1.55
L -6.5 -1.1 -7.9 15.1 -7.9 15.15
Q -7.6 15.25 -7.3 15.3 -6.3646484375 15.529296875 -5.425 15.725
L -4.575 40.65
Q -4.7103515625 40.6298828125 -4.85 40.6
L -4.7 44.25
Q -4.4498046875 44.3052734375 -4.2 44.35 -5.226171875 44.949609375 -6.4 45.1 -9.2 45.45 -10.25 46.7 -11.3 48 -10.75 50.8 -9.55 51.75 5.05 50.8 5.2 49 4.75 45.95
L 4.475 44.325
Q 4.6611328125 44.29140625 4.85 44.25
L 4.95 40.6
Q 4.8609375 40.619140625 4.775 40.625
L 5.15 29.75 5.525 40.65
Q 5.414453125 40.624609375 5.3 40.6
L 5.45 44.25
Q 5.7373046875 44.3134765625 6.025 44.375
L 5.75 45.95
Q 5.3 49 5.45 50.8 20.05 51.75 21.25 50.8 21.8 48 20.75 46.7 19.7 45.45 16.9 45.1 15.70859375 44.947265625 14.675 44.325 14.8333984375 44.2865234375 15 44.25
L 15.1 40.6
Q 14.985546875 40.624609375 14.875 40.65
L 15.75 15.725
Q 16.6017578125 15.524609375 17.45 15.3 17.7 15.25 18 15.15
L 18 15.1 17.2 6 18.9 6
Q 20.55 6 21.7 4.85 22.9 3.65 22.9 2 22.9 0.6763671875 22.125 -0.325
L 17.9 -9.35
Q 17.211328125 -10.8255859375 15.7 -11.375
L 15.7 -11.4
Q 13.4359375 -12.5876953125 11.15 -13.225
L 11.15 -13.25 10 -15.05
Q 9.9791015625 -15.003515625 9.95 -14.95 9.678125 -15.0037109375 9.4 -15.05
L 9.4 -15.7
Q 12.0529296875 -16.61015625 14.25 -18.75 15.3921875 -19.9234375 16.175 -21.225 17.441796875 -21.01171875 18.65 -21.35 20.3 -21.75 21.2 -22.8 22.25 -24.15 22.1 -26.05 21.9 -28 20.4 -28.7 19.2505859375 -29.23046875 17.975 -28.9
L 17.875 -32.575
Q 18.7939453125 -32.1962890625 19.3 -32.5 20.5 -33.15 20.05 -35.45 21.4 -35.25 21.4 -36.35 21.45 -37.3 20.8 -37.95 20.45 -38.35 19.9 -38.55 20.8 -40.5 18.55 -41.8 17.45 -42.45 16.1 -42.75 16.05 -43 15.95 -43.3 15.8 -43.85 15.55 -44.25 14.7 -45.5 13.05 -45.6 11.8 -45.7 10.7 -45.3
L 10.85 -45.85
Q 10.85 -46.6 9.95 -47.55 8.5 -49.3 5.45 -48.1 3.85 -47.5 2.6 -46.6 -0.3 -47.85 -1.75 -46.3
L -2.6 -44.5
Q -4.7 -44.9 -6.3 -44.05 -7.3 -43.5 -7.35 -42.35
L -7.15 -41.2 -8.25 -41.1
Q -9.4 -40.8 -10.05 -39.65 -10.7 -38.4 -9.8 -37.25
L -8.7 -36.3
Q -10.25 -34 -9.1 -32.85
L -7.7 -32.15
Q -7.675 -32.14296875 -7.65 -32.125
L -7.65 -28.975
Q -8.7138671875 -29.155078125 -9.7 -28.7 -11.2 -28 -11.4 -26.05 -11.55 -24.15 -10.5 -22.8 -9.6 -21.75 -7.95 -21.35 -6.9181640625 -21.0611328125 -5.85 -21.175 -5.053515625 -19.887890625 -3.9 -18.75 -1.75390625 -16.60390625 0.9 -15.675
L 0.9 -15.075
Q 0.6166015625 -15.025 0.325 -14.975 0.3169921875 -15.012109375 0.3 -15.05
L 0.25 -14.95 0.2 -14.95 0.2 -14.875 -0.85 -13.25 -0.85 -13.2
Q -3.1609375 -12.5615234375 -5.6 -11.4
L -5.6 -11.275 -12 -6.3 -19.1 -11.85 -19.9 -10.75 -19.9 -11.15 Z"/>

<path id="Duplicate_Items_Folder_____0_Layer0_0_MEMBER_0_MEMBER_1_1_STROKES" stroke="#BE6B2A" stroke-width="0.5" stroke-linejoin="round" stroke-linecap="round" fill="none" d="
M -23.82688827514648 -13.649541473388673
Q -23.505185225605963 -11.523717880249023 -22.462162017822266 -9.870299530029296"/>

<path id="Duplicate_Items_Folder_____0_Layer0_0_MEMBER_2_MEMBER_1_1_STROKES" stroke="#BE6B2A" stroke-width="0.5" stroke-linejoin="round" stroke-linecap="round" fill="none" d="
M -24.897225189208985 -12.224857330322267
L -28.046593475341798 -11.699962615966799
M -24.897225189208985 -12.224857330322267
Q -24.582288360595705 -13.169667816162109 -25.31714096069336 -13.642073059082032
M -24.31984100341797 -10.440215301513673
L -26.944314575195314 -9.81034164428711
M -24.31984100341797 -10.440215301513673
Q -23.847435760498048 -11.437515258789064 -24.897225189208985 -12.224857330322267
M -23.899925231933597 -9.022999572753907
L -26.47190933227539 -8.183168029785156
M -23.899925231933597 -9.022999572753907
Q -23.32254104614258 -9.96781005859375 -24.31984100341797 -10.440215301513673
M -23.95241470336914 -7.343336486816406
Q -23.7949462890625 -7.500804901123048 -23.742456817626955 -7.763252258300782 -23.37503051757813 -8.603083801269532 -23.899925231933597 -9.022999572753907"/>

<path id="Duplicate_Items_Folder_____0_Layer0_7_MEMBER_5_1_STROKES" stroke="#1D75CC" stroke-width="1" stroke-linejoin="round" stroke-linecap="round" fill="none" d="
M 5.1 18.05
L 5.1 28.2"/>

<path id="Duplicate_Items_Folder_____0_Layer0_11_MEMBER_7_1_STROKES" stroke="#BE6B2A" stroke-width="1" stroke-linejoin="round" stroke-linecap="round" fill="none" d="
M 4.290643310546875 -26.906195831298827
Q 5.235588836669921 -27.176180267333983 5.910549926757811 -26.63621139526367 6.495516204833985 -26.186237335205075 6.495516204833985 -25.421281433105467 6.495516204833985 -24.65632553100586 6.0005447387695305 -24.161354064941403 5.505573272705076 -23.666382598876954 4.69561996459961 -23.75637741088867"/>

<path id="Duplicate_Items_Folder_____0_Layer0_12_1_STROKES" stroke="#F8FFAC" stroke-width="0.7" stroke-linejoin="round" stroke-linecap="round" fill="none" d="
M 7.153659057617185 -27.132330322265624
Q 7.256067776679993 -25.698784518241887 8.304302978515624 -24.65054931640625 9.477508544921877 -23.477343750000003 11.1470703125 -23.477343750000003 12.816632080078124 -23.477343750000003 13.944714355468749 -24.65054931640625 15.117919921875002 -25.8237548828125 15.117919921875002 -27.493316650390625 15.117919921875002 -29.16287841796875 13.944714355468749 -30.290960693359374 12.816632080078124 -31.464166259765626 11.1470703125 -31.464166259765626 9.477508544921877 -31.464166259765626 8.304302978515624 -30.290960693359374 7.131097412109375 -29.16287841796875 7.131097412109375 -27.493316650390625 7.131097412109375 -27.315467429161075 7.153659057617185 -27.132330322265624 Z
M 7.153659057617185 -27.132330322265624
Q 7.0253396987915036 -27.599074363708496 6.679864501953125 -27.944549560546875 6.093261718750002 -28.53115234375 5.28104248046875 -28.53115234375 4.423699951171875 -28.53115234375 3.8370971679687518 -27.944549560546875 3.437156748771665 -27.544609141349795 3.2730560302734393 -26.996960449218754 3.2956176757812496 -27.241965818405156 3.2956176757812496 -27.493316650390625 3.2956176757812496 -29.16287841796875 2.1224121093749986 -30.290960693359374 0.9943298339843736 -31.464166259765626 -0.67523193359375 -31.464166259765626 -2.3447937011718754 -31.464166259765626 -3.5179992675781264 -30.290960693359374 -4.691204833984376 -29.16287841796875 -4.691204833984376 -27.493316650390625 -4.691204833984376 -25.8237548828125 -3.5179992675781264 -24.65054931640625 -2.3447937011718754 -23.477343750000003 -0.67523193359375 -23.477343750000003 0.9943298339843736 -23.477343750000003 2.1224121093749986 -24.65054931640625 3.119002294540403 -25.647139501571658 3.2730560302734393 -26.996960449218754"/>

<path id="Duplicate_Items_Folder_____0_Layer0_15_1_STROKES" stroke="#F36BBA" stroke-width="1" stroke-linejoin="round" stroke-linecap="round" fill="none" d="
M 0.4750000000000014 -13.074999999999996
Q 0.6546875000000014 -11.322460937499997 1.8000000000000043 -10.049999999999997 3.1000000000000014 -8.5 5 -8.5 6.899999999999999 -8.5 8.25 -10.049999999999997 9.376171875000004 -11.349414062499989 9.524999999999999 -13.124999999999993"/>

<path id="Duplicate_Items_Folder_____0_Layer0_18_MEMBER_0_MEMBER_3_1_STROKES" stroke="#2057D6" stroke-width="1" stroke-linejoin="round" stroke-linecap="round" fill="none" d="
M 14.246725463867188 -7.92480239868164
L 3.7630409240722678 -5.135152435302734
Q 3.2231086730957035 -4.9551750183105465 2.683176422119139 -5.270135498046875 2.1432441711425785 -5.585095977783203 2.008261108398438 -6.080033874511718 1.8282836914062504 -6.664960479736328 2.1882385253906254 -7.159898376464843 2.4582046508789066 -7.699830627441406 2.998136901855469 -7.879808044433593
L 13.481821441650391 -10.6694580078125"/>
</defs>

<g transform="matrix( 1, 0, 0, 0.999603271484375, 65,60) ">
<g transform="matrix( 1, 0, 0, 1, 0,0) ">
<use xlink:href="#icon_r_box_02_21_Layer3_0_FILL"/>
</g>

<g transform="matrix( 1, 0, 0, 1, -0.05,0.05) ">
<use xlink:href="#icon_r_box_02_21_Layer3_1_FILL"/>
</g>

<g transform="matrix( 1, 0, 0, 1, 0,-2.15) ">
<use xlink:href="#icon_r_box_02_21_Layer3_2_FILL"/>
</g>

<g transform="matrix( 1, 0, 0, 1, 0,0.05) ">
<use xlink:href="#icon_r_box_02_21_Layer3_3_FILL"/>
</g>

<g filter="url(#Filter_1)" transform="matrix( 0.9999847412109375, 0, 0, 1.000396728515625, -65,-60) ">
<g transform="matrix( 0.75, 0, 0, 0.74969482421875, 63.7,40) ">
<g transform="matrix( 1, 0, 0, 1, 0,0) ">
<use xlink:href="#Duplicate_Items_Folder_____0_Layer1_0_FILL"/>

<use xlink:href="#Duplicate_Items_Folder_____0_Layer1_0_1_STROKES"/>
</g>

<g transform="matrix( -1.157379150390625, 0, 0, 1.157379150390625, -12.4,-4.6) ">
<use xlink:href="#Duplicate_Items_Folder_____0_Layer0_0_MEMBER_0_MEMBER_0_FILL"/>
</g>

<g transform="matrix( 1.0497894287109375, 0, 0, 1.0497894287109375, 4.15,1.1) ">
<use xlink:href="#Duplicate_Items_Folder_____0_Layer0_0_MEMBER_0_MEMBER_1_1_STROKES" transform="matrix( 0.9525604248046875, 0, 0, 0.9525604248046875, -3.95,-1) "/>
</g>

<g transform="matrix( 1, 0, 0, 1, 0,0) ">
<use xlink:href="#Duplicate_Items_Folder_____0_Layer0_0_MEMBER_1_FILL"/>
</g>

<g transform="matrix( -1.157379150390625, 0, 0, 1.157379150390625, -21,-14.75) ">
<use xlink:href="#Duplicate_Items_Folder_____0_Layer0_0_MEMBER_2_MEMBER_0_FILL"/>
</g>

<g transform="matrix( 1.0497894287109375, 0, 0, 1.0497894287109375, 1.4,0.95) ">
<use xlink:href="#Duplicate_Items_Folder_____0_Layer0_0_MEMBER_2_MEMBER_1_1_STROKES" transform="matrix( 0.9525604248046875, 0, 0, 0.9525604248046875, -1.3,-0.9) "/>
</g>

<g transform="matrix( 1, 0, 0, 1, 0,0) ">
<use xlink:href="#Duplicate_Items_Folder_____0_Layer0_1_FILL"/>
</g>

<g transform="matrix( -1, 0, 0, 1, -15.1,-3.8) ">
<use xlink:href="#Duplicate_Items_Folder_____0_Layer0_2_FILL"/>
</g>

<g transform="matrix( 1, 0, 0, 1, 0,0) ">
<use xlink:href="#Duplicate_Items_Folder_____0_Layer0_3_FILL"/>
</g>

<g transform="matrix( -1, 0, 0, 1, -15.1,-3.8) ">
<use xlink:href="#Duplicate_Items_Folder_____0_Layer0_4_FILL"/>
</g>

<g transform="matrix( -1, 0, 0, 1, -4.75,-5.45) ">
<use xlink:href="#Duplicate_Items_Folder_____0_Layer0_5_MEMBER_0_FILL"/>
</g>

<g transform="matrix( -0.899993896484375, 0, 0, 0.899993896484375, 168.25,-41.3) ">
<use xlink:href="#Duplicate_Items_Folder_____0_Layer0_5_MEMBER_1_FILL"/>
</g>

<g transform="matrix( 1, 0, 0, 1, 15.45,-5.45) ">
<use xlink:href="#Duplicate_Items_Folder_____0_Layer0_6_MEMBER_0_FILL"/>
</g>

<g transform="matrix( 0.899993896484375, 0, 0, 0.899993896484375, -157.55,-41.3) ">
<use xlink:href="#Duplicate_Items_Folder_____0_Layer0_6_MEMBER_1_FILL"/>
</g>

<g transform="matrix( -1, 0, 0, 1, -15.1,-3.8) ">
<use xlink:href="#Duplicate_Items_Folder_____0_Layer0_7_MEMBER_0_FILL"/>
</g>

<g transform="matrix( -1.06292724609375, 0, 0, 1.06292724609375, 73.4,-51.15) ">
<use xlink:href="#Duplicate_Items_Folder_____0_Layer0_7_MEMBER_1_FILL"/>
</g>

<g transform="matrix( 1.06292724609375, 0, 0, 1.06292724609375, -62.9,-51.15) ">
<use xlink:href="#Duplicate_Items_Folder_____0_Layer0_7_MEMBER_2_FILL"/>
</g>

<g transform="matrix( -1.04998779296875, 0, 0, 1.04998779296875, -36.3,-6.1) ">
<use xlink:href="#Duplicate_Items_Folder_____0_Layer0_7_MEMBER_3_FILL"/>
</g>

<g transform="matrix( -1, 0, 0, 1, -15.1,-3.8) ">
<use xlink:href="#Duplicate_Items_Folder_____0_Layer0_7_MEMBER_4_FILL"/>
</g>

<g transform="matrix( -1, 0, 0, 1, 15.2,-0.3) ">
<use xlink:href="#Duplicate_Items_Folder_____0_Layer0_7_MEMBER_5_1_STROKES" transform="matrix( -1, 0, 0, 1, 15.2,0.3) "/>
</g>

<g transform="matrix( -1.04998779296875, 0, 0, 1.04998779296875, -46.45,-6.1) ">
<use xlink:href="#Duplicate_Items_Folder_____0_Layer0_7_MEMBER_6_FILL"/>
</g>

<g transform="matrix( -1, 0, 0, 1, -15.1,-3.8) ">
<use xlink:href="#Duplicate_Items_Folder_____0_Layer0_8_FILL"/>
</g>

<g transform="matrix( -1, 0, 0, 1, -15.1,-3.8) ">
<use xlink:href="#Duplicate_Items_Folder_____0_Layer0_9_FILL"/>
</g>

<g transform="matrix( -1, 0, 0, 2, -15.1,2.6) ">
<use xlink:href="#Duplicate_Items_Folder_____0_Layer0_10_FILL"/>
</g>

<g transform="matrix( -1, 0, 0, 1, -15.5,-3.5) ">
<use xlink:href="#Duplicate_Items_Folder_____0_Layer0_11_MEMBER_0_STROKES_1_FILL"/>
</g>

<g transform="matrix( -0.674957275390625, 0, 0, 0.674957275390625, 13.95,-43.55) ">
<use xlink:href="#Duplicate_Items_Folder_____0_Layer0_11_MEMBER_1_FILL"/>
</g>

<g transform="matrix( -1.1249237060546875, 0, 0, 0.957275390625, 20.6,-48.8) ">
<use xlink:href="#Duplicate_Items_Folder_____0_Layer0_11_MEMBER_2_FILL"/>
</g>

<g transform="matrix( -0.89996337890625, 0, 0, 0.89996337890625, 57.05,-41.7) ">
<use xlink:href="#Duplicate_Items_Folder_____0_Layer0_11_MEMBER_3_FILL"/>
</g>

<g transform="matrix( -0.89996337890625, 0, 0, 0.89996337890625, 18.25,-36.2) ">
<use xlink:href="#Duplicate_Items_Folder_____0_Layer0_11_MEMBER_4_FILL"/>
</g>

<g transform="matrix( -0.674957275390625, 0, 0, 0.674957275390625, 28.45,-43.55) ">
<use xlink:href="#Duplicate_Items_Folder_____0_Layer0_11_MEMBER_5_FILL"/>
</g>

<g transform="matrix( -0.897796630859375, 0.0622100830078125, 0.0622100830078125, 0.897796630859375, 16,-48.5) ">
<use xlink:href="#Duplicate_Items_Folder_____0_Layer0_11_MEMBER_6_FILL"/>
</g>

<g transform="matrix( -0.8999481201171875, 0, 0, 0.8999481201171875, 15.45,-47.65) ">
<use xlink:href="#Duplicate_Items_Folder_____0_Layer0_11_MEMBER_7_1_STROKES" transform="matrix( -1.1111602783203125, 0, 0, 1.1111602783203125, 17.15,52.9) "/>
</g>

<g transform="matrix( -0.9024658203125, 0, 0, 0.9024658203125, -13.4,-6.15) ">
<use xlink:href="#Duplicate_Items_Folder_____0_Layer0_12_1_STROKES" transform="matrix( -1.108062744140625, 0, 0, 1.108062744140625, -14.8,6.8) "/>
</g>

<g transform="matrix( -1, 0, 0, 1, -15.1,-3.8) ">
<use xlink:href="#Duplicate_Items_Folder_____0_Layer0_13_FILL"/>
</g>

<g transform="matrix( -1, 0, 0, 1, -25.15,-75.9) ">
<use xlink:href="#Duplicate_Items_Folder_____0_Layer0_14_FILL"/>
</g>

<g transform="matrix( -1, 0, 0, 1, -45.15,-75.35) ">
<use xlink:href="#Duplicate_Items_Folder_____0_Layer0_15_1_STROKES" transform="matrix( -1, 0, 0, 1, -45.15,75.35) "/>
</g>

<g transform="matrix( -1, 0, 0, 1, -15.1,-3.95) ">
<use xlink:href="#Duplicate_Items_Folder_____0_Layer0_16_FILL"/>
</g>

<g transform="matrix( 1, 0, 0, 1, 25.4,-3.95) ">
<use xlink:href="#Duplicate_Items_Folder_____0_Layer0_17_FILL"/>
</g>

<g transform="matrix( -0.8691558837890625, 0.2327728271484375, 0.2327728271484375, 0.8691558837890625, 43.25,-21.25) ">
<use xlink:href="#Duplicate_Items_Folder_____0_Layer0_18_MEMBER_0_MEMBER_0_FILL"/>
</g>

<g transform="matrix( -0.8691558837890625, 0.2327728271484375, 0.2327728271484375, 0.8691558837890625, 43.25,-21.25) ">
<use xlink:href="#Duplicate_Items_Folder_____0_Layer0_18_MEMBER_0_MEMBER_1_FILL"/>
</g>

<g transform="matrix( -0.8691558837890625, 0.2327728271484375, 0.2327728271484375, 0.8691558837890625, 43.25,-21.25) ">
<use xlink:href="#Duplicate_Items_Folder_____0_Layer0_18_MEMBER_0_MEMBER_2_FILL"/>
</g>

<g transform="matrix( -0.8998870849609375, 0, 0, 0.8998870849609375, -11.85,-6.35) ">
<use xlink:href="#Duplicate_Items_Folder_____0_Layer0_18_MEMBER_0_MEMBER_3_1_STROKES" transform="matrix( -1.111236572265625, 0, 0, 1.111236572265625, -13.15,7.05) "/>
</g>

<g transform="matrix( -0.8998870849609375, 0, 0, 0.8998870849609375, -11.85,-6.35) ">
<use xlink:href="#Duplicate_Items_Folder_____0_Layer0_18_MEMBER_0_MEMBER_4_FILL"/>
</g>

<g transform="matrix( -0.8130950927734375, 0.391387939453125, 0.391387939453125, 0.8130950927734375, 14.9,3.1) ">
<use xlink:href="#Duplicate_Items_Folder_____0_Layer0_18_MEMBER_1_FILL"/>
</g>

<g transform="matrix( 1, 0, 0, 1, -1.3,-2.95) ">
<use xlink:href="#Duplicate_Items_Folder_____0_Layer0_18_MEMBER_2_FILL"/>
</g>

<g transform="matrix( 1, 0, 0, 1, 26.2,-3.8) ">
<use xlink:href="#Duplicate_Items_Folder_____0_Layer0_19_FILL"/>
</g>
</g>
</g>
</g>
</svg>
