
<svg xmlns="http://www.w3.org/2000/svg" version="1.1" xmlns:xlink="http://www.w3.org/1999/xlink" preserveAspectRatio="none" x="0px" y="0px" width="130px" height="115px" viewBox="0 0 130 115">
<defs>
<g id="icon_r_box_02_76_Layer3_0_FILL">
<path fill="#FFFFFF" fill-opacity="0" stroke="none" d="
M 65 -55
L -65 -55 -65 25 65 25 65 -55 Z"/>
</g>

<g id="icon_r_box_02_76_Layer3_1_FILL">
<path fill="#FFFFFF" fill-opacity="0" stroke="none" d="
M 65.05 49.95
L 65.05 24.95 -64.95 24.95 -64.95 49.95 65.05 49.95 Z"/>
</g>

<g id="icon_r_box_02_76_Layer3_2_FILL">
<path fill="#FFFFFF" fill-opacity="0" stroke="none" d="
M 65 -52.85
L 65 -57.85 -65 -57.85 -65 -52.85 65 -52.85 Z"/>
</g>

<g id="icon_r_box_02_76_Layer3_3_FILL">
<path fill="#FFFFFF" fill-opacity="0" stroke="none" d="
M 65 54.95
L 65 49.95 -65 49.95 -65 54.95 65 54.95 Z"/>
</g>

<g id="icon_r_box_02_76_Layer2_0_MEMBER_0_MEMBER_0_FILL">
<path fill="#000000" stroke="none" d="
M 53.85 6.95
L 53.85 6.75 26.9 0 0 6.75 0 6.95 26.9 13.75 53.85 6.95 Z"/>
</g>

<g id="icon_r_box_02_76_Layer2_0_MEMBER_0_MEMBER_1_FILL">
<path fill="#000000" stroke="none" d="
M 41.7 29.2
L 41.65 12.7 26.9 16.35 11.6 12.5 11.6 29.1 26.9 32.95 41.7 29.2 Z"/>
</g>

<g id="icon_r_box_02_76_Layer2_0_MEMBER_0_MEMBER_2_MEMBER_0_FILL">
<path fill="#000000" stroke="none" d="
M 5.45 16.45
L 5.45 6.75 3.5 6.75 3.5 16.45 5.45 16.45 Z"/>
</g>

<g id="icon_r_box_02_76_Layer2_0_MEMBER_0_MEMBER_3_FILL">
<path fill="#000000" stroke="none" d="
M 7.3 18.75
Q 7.3 17.4 6.5 16.45 5.7 15.45 4.55 15.45 3.45 15.45 2.65 16.45 1.85 17.4 1.85 18.75 1.85 20.15 2.65 21.1 3.45 22.05 4.55 22.05 5.7 22.05 6.5 21.1 7.3 20.15 7.3 18.75 Z"/>
</g>
</defs>

<g transform="matrix( 1, 0, 0, 0.999603271484375, 65,60) ">
<g transform="matrix( 1, 0, 0, 1, 0,0) ">
<use xlink:href="#icon_r_box_02_76_Layer3_0_FILL"/>
</g>

<g transform="matrix( 1, 0, 0, 1, -0.05,0.05) ">
<use xlink:href="#icon_r_box_02_76_Layer3_1_FILL"/>
</g>

<g transform="matrix( 1, 0, 0, 1, 0,-2.15) ">
<use xlink:href="#icon_r_box_02_76_Layer3_2_FILL"/>
</g>

<g transform="matrix( 1, 0, 0, 1, 0,0.05) ">
<use xlink:href="#icon_r_box_02_76_Layer3_3_FILL"/>
</g>

<g transform="matrix( 1, 0, 0, 1, -26.9,-31.5) ">
<use xlink:href="#icon_r_box_02_76_Layer2_0_MEMBER_0_MEMBER_0_FILL"/>
</g>

<g transform="matrix( 1, 0, 0, 1, -26.9,-31.5) ">
<use xlink:href="#icon_r_box_02_76_Layer2_0_MEMBER_0_MEMBER_1_FILL"/>
</g>

<g transform="matrix( 1, 0, 0, 1, -26.9,-31.5) ">
<use xlink:href="#icon_r_box_02_76_Layer2_0_MEMBER_0_MEMBER_2_MEMBER_0_FILL"/>
</g>

<g transform="matrix( 1, 0, 0, 1, -26.9,-31.5) ">
<use xlink:href="#icon_r_box_02_76_Layer2_0_MEMBER_0_MEMBER_3_FILL"/>
</g>
</g>
</svg>
