
<svg xmlns="http://www.w3.org/2000/svg" version="1.1" xmlns:xlink="http://www.w3.org/1999/xlink" preserveAspectRatio="none" x="0px" y="0px" width="130px" height="115px" viewBox="0 0 130 115">
<defs>
<g id="icon_r_box_02_8_Layer3_0_FILL">
<path fill="#FFFFFF" fill-opacity="0" stroke="none" d="
M 65 -55
L -65 -55 -65 25 65 25 65 -55 Z"/>
</g>

<g id="icon_r_box_02_8_Layer3_1_FILL">
<path fill="#FFFFFF" fill-opacity="0" stroke="none" d="
M 65.05 49.95
L 65.05 24.95 -64.95 24.95 -64.95 49.95 65.05 49.95 Z"/>
</g>

<g id="icon_r_box_02_8_Layer3_2_FILL">
<path fill="#FFFFFF" fill-opacity="0" stroke="none" d="
M 65 -52.85
L 65 -57.85 -65 -57.85 -65 -52.85 65 -52.85 Z"/>
</g>

<g id="icon_r_box_02_8_Layer3_3_FILL">
<path fill="#FFFFFF" fill-opacity="0" stroke="none" d="
M 65 54.95
L 65 49.95 -65 49.95 -65 54.95 65 54.95 Z"/>
</g>

<g id="icon_r_box_02_8_Layer2_0_FILL">
<path fill="#E5E2DC" stroke="none" d="
M 63.9 39.85
L 63.9 0.5 6.95 0.5 6.95 39.85 63.9 39.85 Z"/>
</g>

<g id="icon_r_box_02_8_Layer2_1_FILL">
<path fill="#FFFFFF" stroke="none" d="
M 63.9 2.7
L 63.9 0.5 6.95 0.5 6.95 2.7 63.9 2.7 Z"/>
</g>

<g id="icon_r_box_02_8_Layer2_3_MEMBER_0_FILL">
<path fill="#97D1D7" stroke="none" d="
M 18.85 39.85
L 18.85 28.8 9.4 28.8 9.4 39.85 18.85 39.85 Z"/>
</g>

<g id="icon_r_box_02_8_Layer2_3_MEMBER_1_FILL">
<path fill="#72B7BB" stroke="none" d="
M 18.7 32.75
L 18.7 30.95 9.4 30.95 9.4 32.75 18.7 32.75 Z"/>
</g>

<g id="icon_r_box_02_8_Layer2_3_MEMBER_2_FILL">
<path fill="#72B7BB" stroke="none" d="
M 18.7 36.15
L 18.7 34.35 9.4 34.35 9.4 36.15 18.7 36.15 Z"/>
</g>

<g id="icon_r_box_02_8_Layer2_3_MEMBER_3_FILL">
<path fill="#72B7BB" stroke="none" d="
M 18.7 39.5
L 18.7 37.75 9.4 37.75 9.4 39.5 18.7 39.5 Z"/>
</g>

<g id="icon_r_box_02_8_Layer2_3_MEMBER_5_FILL">
<path fill="#255252" stroke="none" d="
M 13.75 37.35
L 13.75 36.6 12.25 36.6 12.25 37.35 13.75 37.35 Z"/>
</g>

<g id="icon_r_box_02_8_Layer2_3_MEMBER_6_FILL">
<path fill="#255252" stroke="none" d="
M 16 37.35
L 16 36.6 14.45 36.6 14.45 37.35 16 37.35 Z"/>
</g>

<g id="icon_r_box_02_8_Layer2_4_MEMBER_0_FILL">
<path fill="#97D1D7" stroke="none" d="
M 30.95 39.85
L 30.95 28.8 21.5 28.8 21.5 39.85 30.95 39.85 Z"/>
</g>

<g id="icon_r_box_02_8_Layer2_4_MEMBER_1_FILL">
<path fill="#72B7BB" stroke="none" d="
M 30.8 32.75
L 30.8 30.95 21.5 30.95 21.5 32.75 30.8 32.75 Z"/>
</g>

<g id="icon_r_box_02_8_Layer2_4_MEMBER_2_FILL">
<path fill="#72B7BB" stroke="none" d="
M 30.8 36.15
L 30.8 34.35 21.5 34.35 21.5 36.15 30.8 36.15 Z"/>
</g>

<g id="icon_r_box_02_8_Layer2_4_MEMBER_3_FILL">
<path fill="#72B7BB" stroke="none" d="
M 30.8 39.5
L 30.8 37.75 21.5 37.75 21.5 39.5 30.8 39.5 Z"/>
</g>

<g id="icon_r_box_02_8_Layer2_4_MEMBER_5_FILL">
<path fill="#255252" stroke="none" d="
M 25.85 37.35
L 25.85 36.6 24.35 36.6 24.35 37.35 25.85 37.35 Z"/>
</g>

<g id="icon_r_box_02_8_Layer2_4_MEMBER_6_FILL">
<path fill="#255252" stroke="none" d="
M 28.1 37.35
L 28.1 36.6 26.55 36.6 26.55 37.35 28.1 37.35 Z"/>
</g>

<g id="icon_r_box_02_8_Layer2_5_MEMBER_0_FILL">
<path fill="#97D1D7" stroke="none" d="
M 43.05 39.85
L 43.05 28.8 33.6 28.8 33.6 39.85 43.05 39.85 Z"/>
</g>

<g id="icon_r_box_02_8_Layer2_5_MEMBER_1_FILL">
<path fill="#72B7BB" stroke="none" d="
M 42.9 32.75
L 42.9 30.95 33.6 30.95 33.6 32.75 42.9 32.75 Z"/>
</g>

<g id="icon_r_box_02_8_Layer2_5_MEMBER_2_FILL">
<path fill="#72B7BB" stroke="none" d="
M 42.9 36.15
L 42.9 34.35 33.6 34.35 33.6 36.15 42.9 36.15 Z"/>
</g>

<g id="icon_r_box_02_8_Layer2_5_MEMBER_3_FILL">
<path fill="#72B7BB" stroke="none" d="
M 42.9 39.5
L 42.9 37.75 33.6 37.75 33.6 39.5 42.9 39.5 Z"/>
</g>

<g id="icon_r_box_02_8_Layer2_5_MEMBER_5_FILL">
<path fill="#255252" stroke="none" d="
M 37.95 37.35
L 37.95 36.6 36.45 36.6 36.45 37.35 37.95 37.35 Z"/>
</g>

<g id="icon_r_box_02_8_Layer2_5_MEMBER_6_FILL">
<path fill="#255252" stroke="none" d="
M 40.2 37.35
L 40.2 36.6 38.65 36.6 38.65 37.35 40.2 37.35 Z"/>
</g>

<g id="icon_r_box_02_8_Layer2_6_MEMBER_0_FILL">
<path fill="#EB1D48" stroke="none" d="
M 51.25 27.85
L 51.25 27.65 51.2 27.5 51 27.4 50.65 27.4 50.25 27.5
Q 49.8 27.65 49.45 28.05 49.25 28.25 49.2 28.5 49.2 28.75 49.4 28.8
L 49.6 28.9 49.8 28.9 49.75 28.95 50.6 28.95 50.7 28.75 51.1 28.15 51.25 27.85
M 50.35 28
Q 50.6 28 50.45 28.15
L 50.15 28.55 50.1 28.6 50.05 28.6 50.05 28.45 49.95 28.45
Q 49.75 28.45 49.85 28.25
L 50.2 28 50.35 28 Z"/>
</g>

<g id="icon_r_box_02_8_Layer2_6_MEMBER_1_FILL">
<path fill="#EA1D48" stroke="none" d="
M 49.35 29.4
L 50.3 29.4 50.3 29.35 49.5 29.35 49.35 29.4 Z"/>
</g>

<g id="icon_r_box_02_8_Layer2_6_MEMBER_2_FILL">
<path fill="#EB1D48" stroke="none" d="
M 47.65 28.35
L 47.6 28.4 47.35 28.9 47.4 28.95 47.9 28.95 48 28.9 48.25 28.3 48.2 28.2 47.5 28.2 47.45 28.35 47.65 28.35 Z"/>
</g>

<g id="icon_r_box_02_8_Layer2_6_MEMBER_3_FILL">
<path fill="#EB1D48" stroke="none" d="
M 49.1 28.3
Q 49.2 28.2 49.05 28.2
L 48.4 28.2 48.4 28.25 48.3 28.35 48.5 28.35 48.45 28.4 48.2 28.9 48.25 28.95 48.75 28.95 48.85 28.9 49.1 28.3 Z"/>
</g>

<g id="icon_r_box_02_8_Layer2_7_MEMBER_0_FILL">
<path fill="#E5E2DC" stroke="none" d="
M 60 39.85
L 60 29 47.35 29 47.35 39.85 60 39.85 Z"/>
</g>

<g id="icon_r_box_02_8_Layer2_7_MEMBER_1_MEMBER_0_FILL">
<path fill="#FFFFFF" stroke="none" d="
M 61.1 30.5
L 61.1 26.3 46.25 26.3 46.25 30.5 61.1 30.5 Z"/>
</g>

<g id="icon_r_box_02_8_Layer2_7_MEMBER_1_MEMBER_1_FILL">
<path fill="#EB1D48" stroke="none" d="
M 61.1 32.25
L 61.1 30.5 46.25 30.5 46.25 32.25 61.1 32.25 Z"/>
</g>

<g id="icon_r_box_02_8_Layer2_7_MEMBER_2_MEMBER_0_FILL">
<path fill="#BAE6FF" stroke="none" d="
M 58.6 37.55
L 58.6 34.55 48.75 34.55 48.75 37.55 58.6 37.55 Z"/>
</g>

<g id="icon_r_box_02_8_Layer2_7_MEMBER_2_MEMBER_1_FILL">
<path fill="#8AC3E2" stroke="none" d="
M 54.75 34.55
L 54.75 37.55 58.6 37.55 58.6 34.55 54.75 34.55 Z"/>
</g>

<g id="icon_r_box_02_8_Layer2_7_MEMBER_2_MEMBER_2_FILL">
<path fill="#FFFFFF" stroke="none" d="
M 50.65 37.55
L 50.65 34.55 48.85 34.55 48.85 37.55 50.65 37.55 Z"/>
</g>

<g id="icon_r_box_02_8_Layer2_8_MEMBER_0_FILL">
<path fill="#EB1D48" stroke="none" d="
M 23.6 13.1
Q 23.2 12.8 22.95 12.75
L 21.9 12.75
Q 21.5 12.8 20.7 13.1 19.35 13.55 18.3 14.65 17.75 15.35 17.65 15.95 17.55 16.65 18.15 17 18.3 17.1 18.75 17.2
L 19.4 17.25
Q 19.4 17.35 19.3 17.4
L 21.7 17.4 21.8 17.35 23.3 15
Q 23.7 14.4 23.75 14.05
L 23.75 13.5 23.6 13.1
M 21.05 14.55
Q 21.45 14.65 21.3 15.05
L 21.1 15.4 20.2 16.35 20.2 16
Q 20.2 15.9 20.1 15.9
L 19.85 15.9
Q 19.25 15.9 19.55 15.3 19.85 14.85 20.55 14.6
L 21.05 14.55 Z"/>
</g>

<g id="icon_r_box_02_8_Layer2_8_MEMBER_1_FILL">
<path fill="#EA1D48" stroke="none" d="
M 18.1 18.7
L 18.25 18.75 20.9 18.75 20.95 18.65
Q 21.05 18.6 21 18.55
L 20.9 18.5 18.5 18.5
Q 18.25 18.5 18.1 18.7 Z"/>
</g>

<g id="icon_r_box_02_8_Layer2_8_MEMBER_2_FILL">
<path fill="#EB1D48" stroke="none" d="
M 14.75 15.45
Q 14.9 15.2 14.6 15.2
L 12.6 15.2 12.35 15.6 12.9 15.6 12.85 15.75 12.1 17.3
Q 12.05 17.4 12.2 17.4
L 13.75 17.4
Q 13.9 17.4 13.95 17.3
L 14.75 15.45 Z"/>
</g>

<g id="icon_r_box_02_8_Layer2_8_MEMBER_3_FILL">
<path fill="#EB1D48" stroke="none" d="
M 15.45 15.6
L 15.4 15.75 14.65 17.3
Q 14.6 17.4 14.75 17.4
L 16.3 17.4
Q 16.45 17.4 16.5 17.25
L 17.3 15.45
Q 17.45 15.2 17.15 15.2
L 15.25 15.2 15.15 15.25 14.9 15.6 15.45 15.6 Z"/>
</g>

<g id="icon_r_box_02_8_Layer2_8_MEMBER_4_FILL">
<path fill="#E81D47" stroke="none" d="
M 18.5 18.3
L 21 18.3
Q 21.2 18.3 21.25 18.2
L 21.3 18.1 21.2 18.05 18.9 18.05
Q 18.65 18.05 18.5 18.3 Z"/>
</g>

<g id="icon_r_box_02_8_Layer2_8_MEMBER_5_FILL">
<path fill="#E91D47" stroke="none" d="
M 18.9 17.85
L 21.3 17.85
Q 21.5 17.85 21.55 17.75
L 21.6 17.65 21.5 17.6 19.3 17.6
Q 19.05 17.6 18.9 17.85 Z"/>
</g>

<g id="icon_r_box_02_8_Layer2_8_MEMBER_6_FILL">
<path fill="#E81D47" stroke="none" d="
M 16 18.3
Q 16.15 18.3 16.15 18.1 16.15 18.05 16 18.05
L 14.45 18.05
Q 14.3 18.05 14.2 18.2 14.15 18.3 14.25 18.3
L 16 18.3 Z"/>
</g>

<g id="icon_r_box_02_8_Layer2_8_MEMBER_7_FILL">
<path fill="#E81D47" stroke="none" d="
M 13.45 18.3
Q 13.6 18.3 13.6 18.1 13.6 18.05 13.45 18.05
L 11.9 18.05
Q 11.75 18.05 11.65 18.2 11.6 18.3 11.7 18.3
L 13.45 18.3 Z"/>
</g>

<g id="icon_r_box_02_8_Layer2_8_MEMBER_8_FILL">
<path fill="#E91D47" stroke="none" d="
M 13.6 17.85
Q 13.8 17.85 13.8 17.65
L 13.65 17.6 12.1 17.6
Q 11.95 17.6 11.85 17.75 11.8 17.85 11.9 17.85
L 13.6 17.85 Z"/>
</g>

<g id="icon_r_box_02_8_Layer2_8_MEMBER_9_FILL">
<path fill="#E91D47" stroke="none" d="
M 16.1 17.85
Q 16.3 17.85 16.3 17.75 16.4 17.6 16.25 17.6
L 14.65 17.6
Q 14.5 17.6 14.4 17.75
L 14.45 17.85 16.1 17.85 Z"/>
</g>

<g id="icon_r_box_02_8_Layer2_8_MEMBER_10_FILL">
<path fill="#EA1D47" stroke="none" d="
M 15.9 18.75
L 15.9 18.65
Q 16 18.5 15.8 18.5
L 14.3 18.5
Q 14 18.5 13.95 18.75
L 15.9 18.75 Z"/>
</g>

<g id="icon_r_box_02_8_Layer2_8_MEMBER_11_FILL">
<path fill="#EA1D47" stroke="none" d="
M 13.35 18.75
L 13.35 18.65
Q 13.45 18.5 13.25 18.5
L 11.7 18.5
Q 11.45 18.5 11.4 18.7
L 11.5 18.75 13.35 18.75 Z"/>
</g>

<g id="icon_r_box_02_8_Layer1_0_FILL">
<path fill="#000000" stroke="none" d="
M 19.7 -17.7
Q 19.45 -17.7 19.25 -17.5 19.1 -17.35 19.1 -17 19.1 -16.7 19.25 -16.5 19.45 -16.35 19.7 -16.35
L 21.4 -16.35 21.4 -11.75
Q 21.4 -11.45 21.6 -11.25 21.85 -11.1 22.25 -11.1 22.65 -11.1 22.85 -11.25 23.1 -11.45 23.1 -11.75
L 23.1 -19.9
Q 23.1 -20.2 22.85 -20.35 22.65 -20.5 22.25 -20.5 21.85 -20.5 21.6 -20.35 21.4 -20.2 21.4 -19.9
L 21.4 -17.7 19.7 -17.7
M 16.6 -19.95
Q 16.35 -19.8 16.35 -19.45
L 16.35 -18.2
Q 16.35 -17.1 15.8 -16.05 15.2 -15.05 14.1 -14.2 13.8 -13.95 13.8 -13.65 13.8 -13.3 14 -13.1 14.25 -12.85 14.55 -12.8 14.85 -12.8 15.15 -13 15.8 -13.45 16.3 -14 16.8 -14.6 17.2 -15.2
L 19.1 -13.2
Q 19.35 -12.9 19.7 -12.95 20 -12.95 20.25 -13.25 20.5 -13.5 20.5 -13.8 20.5 -14.15 20.2 -14.4
L 17.85 -16.65
Q 18.15 -17.4 18.15 -18.2
L 18.15 -19.45
Q 18.15 -19.8 17.9 -19.95 17.65 -20.15 17.25 -20.15 16.85 -20.15 16.6 -19.95
M 6.8 -19.65
L 6.8 -18.65 4.55 -18.65
Q 4.6 -18.85 4.65 -19.05 4.7 -19.25 4.75 -19.4 4.85 -19.75 4.65 -20 4.5 -20.2 4.15 -20.3 3.8 -20.4 3.5 -20.3 3.2 -20.2 3.15 -19.85 3 -19.55 2.95 -19.15 2.85 -18.8 2.8 -18.35 2.75 -17.95 2.7 -17.55 2.7 -17.15 2.7 -16.75 2.7 -16.2 2.8 -15.85 2.95 -15.45 3.25 -15.25 3.6 -15 4.15 -14.9 4.7 -14.8 5.55 -14.8 6.45 -14.8 7 -14.9 7.6 -15 7.9 -15.25 8.2 -15.45 8.35 -15.85 8.45 -16.2 8.45 -16.75
L 8.45 -19.65
Q 8.45 -20 8.2 -20.15 8 -20.3 7.6 -20.3 7.25 -20.3 7 -20.15 6.8 -20 6.8 -19.65
M 4.55 -16.3
Q 4.45 -16.4 4.4 -16.55 4.35 -16.7 4.35 -16.9 4.35 -17 4.35 -17.15 4.35 -17.25 4.4 -17.4
L 6.8 -17.4 6.8 -16.9
Q 6.8 -16.7 6.75 -16.55 6.7 -16.4 6.6 -16.3 6.5 -16.25 6.25 -16.2 6 -16.2 5.55 -16.2 5.15 -16.2 4.9 -16.2 4.65 -16.25 4.55 -16.3
M 10.95 -12.95
Q 10.7 -13.45 10.3 -13.75 9.9 -14.1 9.35 -14.25 8.8 -14.4 8.2 -14.4 7.6 -14.4 7.05 -14.25 6.5 -14.1 6.1 -13.75 5.7 -13.45 5.45 -12.95 5.2 -12.5 5.2 -11.9 5.2 -11.3 5.45 -10.8 5.7 -10.35 6.1 -10.05 6.5 -9.7 7.05 -9.55 7.6 -9.4 8.2 -9.4 8.8 -9.4 9.35 -9.55 9.9 -9.7 10.3 -10.05 10.7 -10.35 10.95 -10.8 11.15 -11.3 11.15 -11.9 11.15 -12.5 10.95 -12.95
M 8.2 -13.05
Q 8.75 -13.05 9.1 -12.75 9.5 -12.45 9.5 -11.9 9.5 -11.35 9.1 -11 8.75 -10.7 8.2 -10.7 7.6 -10.7 7.25 -11 6.9 -11.35 6.9 -11.9 6.9 -12.45 7.25 -12.75 7.6 -13.05 8.2 -13.05
M 11.2 -20.35
Q 10.95 -20.5 10.55 -20.5 10.15 -20.5 9.95 -20.35 9.7 -20.2 9.7 -19.9
L 9.7 -15.1
Q 9.7 -14.8 9.95 -14.6 10.15 -14.45 10.55 -14.45 10.95 -14.45 11.2 -14.6 11.4 -14.8 11.4 -15.1
L 11.4 -16.95 12.5 -16.95
Q 12.8 -16.95 12.95 -17.15 13.1 -17.3 13.1 -17.65 13.1 -17.95 12.95 -18.15 12.8 -18.3 12.5 -18.3
L 11.4 -18.3 11.4 -19.9
Q 11.4 -20.2 11.2 -20.35
M -8.5 -12.95
Q -8.65 -12.75 -8.65 -12.45 -8.65 -12.1 -8.5 -11.95 -8.3 -11.75 -8.05 -11.75
L 0.95 -11.75
Q 1.25 -11.75 1.4 -11.95 1.6 -12.1 1.6 -12.45 1.6 -12.75 1.4 -12.95 1.25 -13.15 0.95 -13.15
L -2.65 -13.15 -2.65 -14.65
Q -2.65 -15 -2.95 -15.15 -3.2 -15.3 -3.55 -15.3 -3.9 -15.3 -4.15 -15.15 -4.4 -15 -4.4 -14.65
L -4.4 -13.15 -8.05 -13.15
Q -8.3 -13.15 -8.5 -12.95
M -2.6 -19.1
L -2.6 -19.65
Q -2.6 -19.9 -2.85 -20.1 -3.1 -20.25 -3.55 -20.25 -4 -20.25 -4.25 -20.1 -4.5 -19.9 -4.5 -19.65
L -4.5 -19.1
Q -4.5 -18.75 -4.65 -18.3 -4.85 -17.9 -5.2 -17.5 -5.55 -17.15 -6.05 -16.8 -6.55 -16.45 -7.2 -16.2 -7.55 -16.05 -7.65 -15.8 -7.8 -15.5 -7.65 -15.2 -7.55 -14.85 -7.25 -14.75 -6.95 -14.65 -6.6 -14.75 -5.55 -15.1 -4.85 -15.6 -4.1 -16.1 -3.55 -16.7
L -0.75 -14.85
Q -0.4 -14.65 -0.1 -14.75 0.25 -14.8 0.45 -15.1 0.65 -15.45 0.55 -15.75 0.45 -16.1 0.1 -16.3
L -2.8 -18.05
Q -2.6 -18.6 -2.6 -19.1 Z"/>
</g>

<path id="icon_r_box_02_8_Layer2_0_1_STROKES" stroke="#000000" stroke-width="1" stroke-linejoin="round" stroke-linecap="round" fill="none" d="
M 63.9 39.85
L 6.95 39.85 6.95 0.5 63.9 0.5 63.9 39.85 Z"/>

<path id="icon_r_box_02_8_Layer2_1_1_STROKES" stroke="#000000" stroke-width="1" stroke-linejoin="round" stroke-linecap="round" fill="none" d="
M 63.9 2.7
L 6.95 2.7 6.95 0.5 63.9 0.5 63.9 2.7 Z"/>

<path id="icon_r_box_02_8_Layer2_2_MEMBER_0_1_STROKES" stroke="#000000" stroke-width="1" stroke-linejoin="round" stroke-linecap="round" fill="none" d="
M 0.5 39.85
L 70.35 39.85"/>

<path id="icon_r_box_02_8_Layer2_3_MEMBER_0_1_STROKES" stroke="#000000" stroke-width="1" stroke-linejoin="round" stroke-linecap="round" fill="none" d="
M 18.85 39.85
L 9.4 39.85 9.4 28.8 18.85 28.8 18.85 39.85 Z"/>

<path id="icon_r_box_02_8_Layer2_3_MEMBER_4_1_STROKES" stroke="#000000" stroke-width="1" stroke-linejoin="round" stroke-linecap="round" fill="none" d="
M 18.85 39.85
L 9.4 39.85 9.4 28.8 18.85 28.8 18.85 39.85 Z"/>

<path id="icon_r_box_02_8_Layer2_4_MEMBER_0_1_STROKES" stroke="#000000" stroke-width="1" stroke-linejoin="round" stroke-linecap="round" fill="none" d="
M 30.95 39.85
L 21.5 39.85 21.5 28.8 30.95 28.8 30.95 39.85 Z"/>

<path id="icon_r_box_02_8_Layer2_4_MEMBER_4_1_STROKES" stroke="#000000" stroke-width="1" stroke-linejoin="round" stroke-linecap="round" fill="none" d="
M 30.95 39.85
L 21.5 39.85 21.5 28.8 30.95 28.8 30.95 39.85 Z"/>

<path id="icon_r_box_02_8_Layer2_5_MEMBER_0_1_STROKES" stroke="#000000" stroke-width="1" stroke-linejoin="round" stroke-linecap="round" fill="none" d="
M 43.05 39.85
L 33.6 39.85 33.6 28.8 43.05 28.8 43.05 39.85 Z"/>

<path id="icon_r_box_02_8_Layer2_5_MEMBER_4_1_STROKES" stroke="#000000" stroke-width="1" stroke-linejoin="round" stroke-linecap="round" fill="none" d="
M 43.05 39.85
L 33.6 39.85 33.6 28.8 43.05 28.8 43.05 39.85 Z"/>

<path id="icon_r_box_02_8_Layer2_7_MEMBER_0_1_STROKES" stroke="#000000" stroke-width="1" stroke-linejoin="round" stroke-linecap="round" fill="none" d="
M 60 39.85
L 47.35 39.85 47.35 29 60 29 60 39.85 Z"/>

<path id="icon_r_box_02_8_Layer2_7_MEMBER_1_MEMBER_0_1_STROKES" stroke="#000000" stroke-width="1" stroke-linejoin="round" stroke-linecap="round" fill="none" d="
M 61.1 30.5
L 46.25 30.5 46.25 26.3 61.1 26.3 61.1 30.5 Z"/>

<path id="icon_r_box_02_8_Layer2_7_MEMBER_1_MEMBER_1_1_STROKES" stroke="#000000" stroke-width="1" stroke-linejoin="round" stroke-linecap="butt" fill="none" d="
M 61.1 30.5
L 46.25 30.5 46.25 32.25 61.1 32.25 61.1 30.5 Z"/>

<path id="icon_r_box_02_8_Layer2_7_MEMBER_2_MEMBER_3_1_STROKES" stroke="#000000" stroke-width="1" stroke-linejoin="round" stroke-linecap="round" fill="none" d="
M 58.6 37.55
L 48.75 37.55 48.75 34.55 58.6 34.55 58.6 37.55 Z"/>
</defs>

<g transform="matrix( 1, 0, 0, 0.999603271484375, 65,60) ">
<g transform="matrix( 1, 0, 0, 1, 0,0) ">
<use xlink:href="#icon_r_box_02_8_Layer3_0_FILL"/>
</g>

<g transform="matrix( 1, 0, 0, 1, -0.05,0.05) ">
<use xlink:href="#icon_r_box_02_8_Layer3_1_FILL"/>
</g>

<g transform="matrix( 1, 0, 0, 1, 0,-2.15) ">
<use xlink:href="#icon_r_box_02_8_Layer3_2_FILL"/>
</g>

<g transform="matrix( 1, 0, 0, 1, 0,0.05) ">
<use xlink:href="#icon_r_box_02_8_Layer3_3_FILL"/>
</g>

<g transform="matrix( 1, 0, 0, 1, -35.4,-31.15) ">
<use xlink:href="#icon_r_box_02_8_Layer2_0_FILL"/>

<use xlink:href="#icon_r_box_02_8_Layer2_0_1_STROKES"/>
</g>

<g transform="matrix( 1, 0, 0, 1, -35.4,-31.15) ">
<use xlink:href="#icon_r_box_02_8_Layer2_1_FILL"/>

<use xlink:href="#icon_r_box_02_8_Layer2_1_1_STROKES"/>
</g>

<g transform="matrix( 1, 0, 0, 1, -35.4,-31.15) ">
<use xlink:href="#icon_r_box_02_8_Layer2_2_MEMBER_0_1_STROKES"/>
</g>

<g transform="matrix( 1, 0, 0, 1, -35.4,-31.15) ">
<use xlink:href="#icon_r_box_02_8_Layer2_3_MEMBER_0_FILL"/>

<use xlink:href="#icon_r_box_02_8_Layer2_3_MEMBER_0_1_STROKES"/>
</g>

<g transform="matrix( 1, 0, 0, 1, -35.4,-31.15) ">
<use xlink:href="#icon_r_box_02_8_Layer2_3_MEMBER_1_FILL"/>
</g>

<g transform="matrix( 1, 0, 0, 1, -35.4,-31.15) ">
<use xlink:href="#icon_r_box_02_8_Layer2_3_MEMBER_2_FILL"/>
</g>

<g transform="matrix( 1, 0, 0, 1, -35.4,-31.15) ">
<use xlink:href="#icon_r_box_02_8_Layer2_3_MEMBER_3_FILL"/>
</g>

<g transform="matrix( 1, 0, 0, 1, -35.4,-31.15) ">
<use xlink:href="#icon_r_box_02_8_Layer2_3_MEMBER_4_1_STROKES"/>
</g>

<g transform="matrix( 1, 0, 0, 1, -35.4,-31.15) ">
<use xlink:href="#icon_r_box_02_8_Layer2_3_MEMBER_5_FILL"/>
</g>

<g transform="matrix( 1, 0, 0, 1, -35.4,-31.15) ">
<use xlink:href="#icon_r_box_02_8_Layer2_3_MEMBER_6_FILL"/>
</g>

<g transform="matrix( 1, 0, 0, 1, -35.4,-31.15) ">
<use xlink:href="#icon_r_box_02_8_Layer2_4_MEMBER_0_FILL"/>

<use xlink:href="#icon_r_box_02_8_Layer2_4_MEMBER_0_1_STROKES"/>
</g>

<g transform="matrix( 1, 0, 0, 1, -35.4,-31.15) ">
<use xlink:href="#icon_r_box_02_8_Layer2_4_MEMBER_1_FILL"/>
</g>

<g transform="matrix( 1, 0, 0, 1, -35.4,-31.15) ">
<use xlink:href="#icon_r_box_02_8_Layer2_4_MEMBER_2_FILL"/>
</g>

<g transform="matrix( 1, 0, 0, 1, -35.4,-31.15) ">
<use xlink:href="#icon_r_box_02_8_Layer2_4_MEMBER_3_FILL"/>
</g>

<g transform="matrix( 1, 0, 0, 1, -35.4,-31.15) ">
<use xlink:href="#icon_r_box_02_8_Layer2_4_MEMBER_4_1_STROKES"/>
</g>

<g transform="matrix( 1, 0, 0, 1, -35.4,-31.15) ">
<use xlink:href="#icon_r_box_02_8_Layer2_4_MEMBER_5_FILL"/>
</g>

<g transform="matrix( 1, 0, 0, 1, -35.4,-31.15) ">
<use xlink:href="#icon_r_box_02_8_Layer2_4_MEMBER_6_FILL"/>
</g>

<g transform="matrix( 1, 0, 0, 1, -35.4,-31.15) ">
<use xlink:href="#icon_r_box_02_8_Layer2_5_MEMBER_0_FILL"/>

<use xlink:href="#icon_r_box_02_8_Layer2_5_MEMBER_0_1_STROKES"/>
</g>

<g transform="matrix( 1, 0, 0, 1, -35.4,-31.15) ">
<use xlink:href="#icon_r_box_02_8_Layer2_5_MEMBER_1_FILL"/>
</g>

<g transform="matrix( 1, 0, 0, 1, -35.4,-31.15) ">
<use xlink:href="#icon_r_box_02_8_Layer2_5_MEMBER_2_FILL"/>
</g>

<g transform="matrix( 1, 0, 0, 1, -35.4,-31.15) ">
<use xlink:href="#icon_r_box_02_8_Layer2_5_MEMBER_3_FILL"/>
</g>

<g transform="matrix( 1, 0, 0, 1, -35.4,-31.15) ">
<use xlink:href="#icon_r_box_02_8_Layer2_5_MEMBER_4_1_STROKES"/>
</g>

<g transform="matrix( 1, 0, 0, 1, -35.4,-31.15) ">
<use xlink:href="#icon_r_box_02_8_Layer2_5_MEMBER_5_FILL"/>
</g>

<g transform="matrix( 1, 0, 0, 1, -35.4,-31.15) ">
<use xlink:href="#icon_r_box_02_8_Layer2_5_MEMBER_6_FILL"/>
</g>

<g transform="matrix( 1, 0, 0, 1, -35.4,-31.15) ">
<use xlink:href="#icon_r_box_02_8_Layer2_6_MEMBER_0_FILL"/>
</g>

<g transform="matrix( 1, 0, 0, 1, -35.4,-31.15) ">
<use xlink:href="#icon_r_box_02_8_Layer2_6_MEMBER_1_FILL"/>
</g>

<g transform="matrix( 1, 0, 0, 1, -35.4,-31.15) ">
<use xlink:href="#icon_r_box_02_8_Layer2_6_MEMBER_2_FILL"/>
</g>

<g transform="matrix( 1, 0, 0, 1, -35.4,-31.15) ">
<use xlink:href="#icon_r_box_02_8_Layer2_6_MEMBER_3_FILL"/>
</g>

<g transform="matrix( 1, 0, 0, 1, -35.4,-31.15) ">
<use xlink:href="#icon_r_box_02_8_Layer2_7_MEMBER_0_FILL"/>

<use xlink:href="#icon_r_box_02_8_Layer2_7_MEMBER_0_1_STROKES"/>
</g>

<g transform="matrix( 1, 0, 0, 1, -35.4,-31.15) ">
<use xlink:href="#icon_r_box_02_8_Layer2_7_MEMBER_1_MEMBER_0_FILL"/>

<use xlink:href="#icon_r_box_02_8_Layer2_7_MEMBER_1_MEMBER_0_1_STROKES"/>
</g>

<g transform="matrix( 1, 0, 0, 1, -35.4,-31.15) ">
<use xlink:href="#icon_r_box_02_8_Layer2_7_MEMBER_1_MEMBER_1_FILL"/>

<use xlink:href="#icon_r_box_02_8_Layer2_7_MEMBER_1_MEMBER_1_1_STROKES"/>
</g>

<g transform="matrix( 1, 0, 0, 1, -35.4,-31.15) ">
<use xlink:href="#icon_r_box_02_8_Layer2_7_MEMBER_2_MEMBER_0_FILL"/>
</g>

<g transform="matrix( 1, 0, 0, 1, -35.4,-31.15) ">
<use xlink:href="#icon_r_box_02_8_Layer2_7_MEMBER_2_MEMBER_1_FILL"/>
</g>

<g transform="matrix( 1, 0, 0, 1, -35.4,-31.15) ">
<use xlink:href="#icon_r_box_02_8_Layer2_7_MEMBER_2_MEMBER_2_FILL"/>
</g>

<g transform="matrix( 1, 0, 0, 1, -35.4,-31.15) ">
<use xlink:href="#icon_r_box_02_8_Layer2_7_MEMBER_2_MEMBER_3_1_STROKES"/>
</g>

<g transform="matrix( 1, 0, 0, 1, -35.4,-31.15) ">
<use xlink:href="#icon_r_box_02_8_Layer2_8_MEMBER_0_FILL"/>
</g>

<g transform="matrix( 1, 0, 0, 1, -35.4,-31.15) ">
<use xlink:href="#icon_r_box_02_8_Layer2_8_MEMBER_1_FILL"/>
</g>

<g transform="matrix( 1, 0, 0, 1, -35.4,-31.15) ">
<use xlink:href="#icon_r_box_02_8_Layer2_8_MEMBER_2_FILL"/>
</g>

<g transform="matrix( 1, 0, 0, 1, -35.4,-31.15) ">
<use xlink:href="#icon_r_box_02_8_Layer2_8_MEMBER_3_FILL"/>
</g>

<g transform="matrix( 1, 0, 0, 1, -35.4,-31.15) ">
<use xlink:href="#icon_r_box_02_8_Layer2_8_MEMBER_4_FILL"/>
</g>

<g transform="matrix( 1, 0, 0, 1, -35.4,-31.15) ">
<use xlink:href="#icon_r_box_02_8_Layer2_8_MEMBER_5_FILL"/>
</g>

<g transform="matrix( 1, 0, 0, 1, -35.4,-31.15) ">
<use xlink:href="#icon_r_box_02_8_Layer2_8_MEMBER_6_FILL"/>
</g>

<g transform="matrix( 1, 0, 0, 1, -35.4,-31.15) ">
<use xlink:href="#icon_r_box_02_8_Layer2_8_MEMBER_7_FILL"/>
</g>

<g transform="matrix( 1, 0, 0, 1, -35.4,-31.15) ">
<use xlink:href="#icon_r_box_02_8_Layer2_8_MEMBER_8_FILL"/>
</g>

<g transform="matrix( 1, 0, 0, 1, -35.4,-31.15) ">
<use xlink:href="#icon_r_box_02_8_Layer2_8_MEMBER_9_FILL"/>
</g>

<g transform="matrix( 1, 0, 0, 1, -35.4,-31.15) ">
<use xlink:href="#icon_r_box_02_8_Layer2_8_MEMBER_10_FILL"/>
</g>

<g transform="matrix( 1, 0, 0, 1, -35.4,-31.15) ">
<use xlink:href="#icon_r_box_02_8_Layer2_8_MEMBER_11_FILL"/>
</g>

<g transform="matrix( 1, 0, 0, 1, 0,0) ">
<use xlink:href="#icon_r_box_02_8_Layer1_0_FILL"/>
</g>
</g>
</svg>
