
<svg xmlns="http://www.w3.org/2000/svg" version="1.1" xmlns:xlink="http://www.w3.org/1999/xlink" preserveAspectRatio="none" x="0px" y="0px" width="130px" height="115px" viewBox="0 0 130 115">
<defs>
<g id="icon_r_box_02_36_Layer3_0_FILL">
<path fill="#FFFFFF" fill-opacity="0" stroke="none" d="
M 65 -55
L -65 -55 -65 25 65 25 65 -55 Z"/>
</g>

<g id="icon_r_box_02_36_Layer3_1_FILL">
<path fill="#FFFFFF" fill-opacity="0" stroke="none" d="
M 65.05 49.95
L 65.05 24.95 -64.95 24.95 -64.95 49.95 65.05 49.95 Z"/>
</g>

<g id="icon_r_box_02_36_Layer3_2_FILL">
<path fill="#FFFFFF" fill-opacity="0" stroke="none" d="
M 65 -52.85
L 65 -57.85 -65 -57.85 -65 -52.85 65 -52.85 Z"/>
</g>

<g id="icon_r_box_02_36_Layer3_3_FILL">
<path fill="#FFFFFF" fill-opacity="0" stroke="none" d="
M 65 54.95
L 65 49.95 -65 49.95 -65 54.95 65 54.95 Z"/>
</g>

<g id="icon_r_box_02_36_Layer2_0_MEMBER_0_MEMBER_0_MEMBER_0_MEMBER_0_MEMBER_0_FILL">
<path fill="#E9E8E7" stroke="none" d="
M 30.05 43.05
L 30.05 5.65 5.55 5.65 5.55 43.05 30.05 43.05 Z"/>
</g>

<g id="icon_r_box_02_36_Layer2_0_MEMBER_0_MEMBER_0_MEMBER_0_MEMBER_0_MEMBER_1_FILL">
<path fill="#FFBE5C" stroke="none" d="
M 30.05 5.65
L 28.6 2.35 7 2.35 5.55 5.65 30.05 5.65 Z"/>
</g>

<g id="icon_r_box_02_36_Layer2_0_MEMBER_0_MEMBER_0_MEMBER_0_MEMBER_0_MEMBER_2_FILL">
<path fill="#C0BDB8" stroke="none" d="
M 11.2 43.05
L 11.2 5.65 8.45 5.65 8.45 43.05 11.2 43.05 Z"/>
</g>

<g id="icon_r_box_02_36_Layer2_0_MEMBER_0_MEMBER_0_MEMBER_0_MEMBER_0_MEMBER_3_FILL">
<path fill="#C0BDB8" stroke="none" d="
M 24.4 5.65
L 24.4 43.05 27.15 43.05 27.15 5.65 24.4 5.65 Z"/>
</g>

<g id="icon_r_box_02_36_Layer2_0_MEMBER_0_MEMBER_0_MEMBER_0_MEMBER_0_MEMBER_5_MEMBER_0_FILL">
<path fill="#FFFFFF" stroke="none" d="
M 21.65 43.05
L 21.65 3.65 13.95 3.65 13.95 43.05 21.65 43.05 Z"/>
</g>

<g id="icon_r_box_02_36_Layer2_0_MEMBER_0_MEMBER_0_MEMBER_0_MEMBER_0_MEMBER_5_MEMBER_1_FILL">
<path fill="#FFFFFF" stroke="none" d="
M 21.65 3.65
L 21.65 0.95 13.95 0.95 13.95 3.65 21.65 3.65 Z"/>
</g>

<g id="icon_r_box_02_36_Layer2_0_MEMBER_0_MEMBER_0_MEMBER_0_MEMBER_0_MEMBER_8_FILL">
<path fill="#FFFFFF" stroke="none" d="
M 19.35 43.05
L 19.35 39.15 16.25 39.15 16.25 43.05 19.35 43.05 Z"/>
</g>

<g id="icon_r_box_02_36_Layer2_0_MEMBER_0_MEMBER_0_MEMBER_0_MEMBER_1_FILL">
<path fill="#FFFFFF" stroke="none" d="
M 26.3 2.35
L 26.3 0.5 25.05 0.5 25.05 2.35 26.3 2.35 Z"/>
</g>

<g id="icon_r_box_02_36_Layer2_0_MEMBER_0_MEMBER_0_MEMBER_1_MEMBER_0_MEMBER_0_FILL">
<path fill="#E9E8E7" stroke="none" d="
M 59.9 43.05
L 59.9 5.65 35.4 5.65 35.4 43.05 59.9 43.05 Z"/>
</g>

<g id="icon_r_box_02_36_Layer2_0_MEMBER_0_MEMBER_0_MEMBER_1_MEMBER_0_MEMBER_1_FILL">
<path fill="#FFBE5C" stroke="none" d="
M 59.9 5.65
L 58.45 2.35 36.85 2.35 35.4 5.65 59.9 5.65 Z"/>
</g>

<g id="icon_r_box_02_36_Layer2_0_MEMBER_0_MEMBER_0_MEMBER_1_MEMBER_0_MEMBER_2_FILL">
<path fill="#C0BDB8" stroke="none" d="
M 41.05 43.05
L 41.05 5.65 38.3 5.65 38.3 43.05 41.05 43.05 Z"/>
</g>

<g id="icon_r_box_02_36_Layer2_0_MEMBER_0_MEMBER_0_MEMBER_1_MEMBER_0_MEMBER_3_FILL">
<path fill="#C0BDB8" stroke="none" d="
M 54.25 5.65
L 54.25 43.05 57 43.05 57 5.65 54.25 5.65 Z"/>
</g>

<g id="icon_r_box_02_36_Layer2_0_MEMBER_0_MEMBER_0_MEMBER_1_MEMBER_0_MEMBER_5_MEMBER_0_FILL">
<path fill="#FFFFFF" stroke="none" d="
M 51.5 43.05
L 51.5 3.65 43.8 3.65 43.8 43.05 51.5 43.05 Z"/>
</g>

<g id="icon_r_box_02_36_Layer2_0_MEMBER_0_MEMBER_0_MEMBER_1_MEMBER_0_MEMBER_5_MEMBER_1_FILL">
<path fill="#FFFFFF" stroke="none" d="
M 51.5 3.65
L 51.5 0.95 43.8 0.95 43.8 3.65 51.5 3.65 Z"/>
</g>

<g id="icon_r_box_02_36_Layer2_0_MEMBER_0_MEMBER_0_MEMBER_1_MEMBER_0_MEMBER_8_FILL">
<path fill="#FFFFFF" stroke="none" d="
M 49.2 43.05
L 49.2 39.15 46.1 39.15 46.1 43.05 49.2 43.05 Z"/>
</g>

<g id="icon_r_box_02_36_Layer2_0_MEMBER_0_MEMBER_0_MEMBER_1_MEMBER_1_FILL">
<path fill="#FFFFFF" stroke="none" d="
M 56.15 2.35
L 56.15 0.5 54.9 0.5 54.9 2.35 56.15 2.35 Z"/>
</g>

<path id="icon_r_box_02_36_Layer2_0_MEMBER_0_MEMBER_0_MEMBER_0_MEMBER_0_MEMBER_0_1_STROKES" stroke="#000000" stroke-width="1" stroke-linejoin="round" stroke-linecap="butt" fill="none" d="
M 30.05 43.05
L 5.55 43.05 5.55 5.65 30.05 5.65 30.05 43.05 Z"/>

<path id="icon_r_box_02_36_Layer2_0_MEMBER_0_MEMBER_0_MEMBER_0_MEMBER_0_MEMBER_1_1_STROKES" stroke="#000000" stroke-width="1" stroke-linejoin="round" stroke-linecap="butt" fill="none" d="
M 30.05 5.65
L 5.55 5.65 7 2.35 28.6 2.35 30.05 5.65 Z"/>

<path id="icon_r_box_02_36_Layer2_0_MEMBER_0_MEMBER_0_MEMBER_0_MEMBER_0_MEMBER_4_1_STROKES" stroke="#000000" stroke-width="1" stroke-linejoin="round" stroke-linecap="butt" fill="none" d="
M 5.55 43.05
L 30.05 43.05 30.05 5.65 5.55 5.65 5.55 43.05 Z"/>

<path id="icon_r_box_02_36_Layer2_0_MEMBER_0_MEMBER_0_MEMBER_0_MEMBER_0_MEMBER_5_MEMBER_0_1_STROKES" stroke="#000000" stroke-width="1" stroke-linejoin="round" stroke-linecap="butt" fill="none" d="
M 21.65 43.05
L 13.95 43.05 13.95 3.65 21.65 3.65 21.65 43.05 Z"/>

<path id="icon_r_box_02_36_Layer2_0_MEMBER_0_MEMBER_0_MEMBER_0_MEMBER_0_MEMBER_5_MEMBER_1_1_STROKES" stroke="#000000" stroke-width="1" stroke-linejoin="round" stroke-linecap="butt" fill="none" d="
M 21.65 0.95
L 13.95 0.95 13.95 3.65 21.65 3.65 21.65 0.95 Z"/>

<path id="icon_r_box_02_36_Layer2_0_MEMBER_0_MEMBER_0_MEMBER_0_MEMBER_0_MEMBER_5_MEMBER_2_MEMBER_0_MEMBER_0_1_STROKES" stroke="#000000" stroke-width="1" stroke-linejoin="round" stroke-linecap="round" fill="none" d="
M 17.8 5.65
L 17.8 7.25"/>

<path id="icon_r_box_02_36_Layer2_0_MEMBER_0_MEMBER_0_MEMBER_0_MEMBER_0_MEMBER_5_MEMBER_2_MEMBER_1_MEMBER_0_1_STROKES" stroke="#000000" stroke-width="1" stroke-linejoin="round" stroke-linecap="round" fill="none" d="
M 17.8 9.25
L 17.8 10.9"/>

<path id="icon_r_box_02_36_Layer2_0_MEMBER_0_MEMBER_0_MEMBER_0_MEMBER_0_MEMBER_5_MEMBER_2_MEMBER_2_MEMBER_0_1_STROKES" stroke="#000000" stroke-width="1" stroke-linejoin="round" stroke-linecap="round" fill="none" d="
M 17.8 12.85
L 17.8 14.5"/>

<path id="icon_r_box_02_36_Layer2_0_MEMBER_0_MEMBER_0_MEMBER_0_MEMBER_0_MEMBER_5_MEMBER_2_MEMBER_3_MEMBER_0_1_STROKES" stroke="#000000" stroke-width="1" stroke-linejoin="round" stroke-linecap="round" fill="none" d="
M 17.8 16.45
L 17.8 18.1"/>

<path id="icon_r_box_02_36_Layer2_0_MEMBER_0_MEMBER_0_MEMBER_0_MEMBER_0_MEMBER_5_MEMBER_2_MEMBER_4_MEMBER_0_1_STROKES" stroke="#000000" stroke-width="1" stroke-linejoin="round" stroke-linecap="round" fill="none" d="
M 17.8 20.1
L 17.8 21.7"/>

<path id="icon_r_box_02_36_Layer2_0_MEMBER_0_MEMBER_0_MEMBER_0_MEMBER_0_MEMBER_5_MEMBER_2_MEMBER_5_MEMBER_0_1_STROKES" stroke="#000000" stroke-width="1" stroke-linejoin="round" stroke-linecap="round" fill="none" d="
M 17.8 23.7
L 17.8 25.35"/>

<path id="icon_r_box_02_36_Layer2_0_MEMBER_0_MEMBER_0_MEMBER_0_MEMBER_0_MEMBER_5_MEMBER_2_MEMBER_6_MEMBER_0_1_STROKES" stroke="#000000" stroke-width="1" stroke-linejoin="round" stroke-linecap="round" fill="none" d="
M 17.8 27.3
L 17.8 28.95"/>

<path id="icon_r_box_02_36_Layer2_0_MEMBER_0_MEMBER_0_MEMBER_0_MEMBER_0_MEMBER_5_MEMBER_2_MEMBER_7_MEMBER_0_1_STROKES" stroke="#000000" stroke-width="1" stroke-linejoin="round" stroke-linecap="round" fill="none" d="
M 17.8 30.9
L 17.8 32.55"/>

<path id="icon_r_box_02_36_Layer2_0_MEMBER_0_MEMBER_0_MEMBER_0_MEMBER_0_MEMBER_5_MEMBER_2_MEMBER_8_MEMBER_0_1_STROKES" stroke="#000000" stroke-width="1" stroke-linejoin="round" stroke-linecap="round" fill="none" d="
M 17.8 34.55
L 17.8 36.15"/>

<path id="icon_r_box_02_36_Layer2_0_MEMBER_0_MEMBER_0_MEMBER_0_MEMBER_0_MEMBER_6_MEMBER_0_MEMBER_0_1_STROKES" stroke="#000000" stroke-width="1" stroke-linejoin="round" stroke-linecap="round" fill="none" d="
M 9.85 7.7
L 9.85 9.3"/>

<path id="icon_r_box_02_36_Layer2_0_MEMBER_0_MEMBER_0_MEMBER_0_MEMBER_0_MEMBER_6_MEMBER_1_MEMBER_0_1_STROKES" stroke="#000000" stroke-width="1" stroke-linejoin="round" stroke-linecap="round" fill="none" d="
M 9.85 11.2
L 9.85 12.8"/>

<path id="icon_r_box_02_36_Layer2_0_MEMBER_0_MEMBER_0_MEMBER_0_MEMBER_0_MEMBER_6_MEMBER_2_MEMBER_0_1_STROKES" stroke="#000000" stroke-width="1" stroke-linejoin="round" stroke-linecap="round" fill="none" d="
M 9.85 14.75
L 9.85 16.35"/>

<path id="icon_r_box_02_36_Layer2_0_MEMBER_0_MEMBER_0_MEMBER_0_MEMBER_0_MEMBER_6_MEMBER_3_MEMBER_0_1_STROKES" stroke="#000000" stroke-width="1" stroke-linejoin="round" stroke-linecap="round" fill="none" d="
M 9.85 18.25
L 9.85 19.85"/>

<path id="icon_r_box_02_36_Layer2_0_MEMBER_0_MEMBER_0_MEMBER_0_MEMBER_0_MEMBER_6_MEMBER_4_MEMBER_0_1_STROKES" stroke="#000000" stroke-width="1" stroke-linejoin="round" stroke-linecap="round" fill="none" d="
M 9.85 21.8
L 9.85 23.4"/>

<path id="icon_r_box_02_36_Layer2_0_MEMBER_0_MEMBER_0_MEMBER_0_MEMBER_0_MEMBER_6_MEMBER_5_MEMBER_0_1_STROKES" stroke="#000000" stroke-width="1" stroke-linejoin="round" stroke-linecap="round" fill="none" d="
M 9.85 25.3
L 9.85 26.9"/>

<path id="icon_r_box_02_36_Layer2_0_MEMBER_0_MEMBER_0_MEMBER_0_MEMBER_0_MEMBER_6_MEMBER_6_MEMBER_0_1_STROKES" stroke="#000000" stroke-width="1" stroke-linejoin="round" stroke-linecap="round" fill="none" d="
M 9.85 28.85
L 9.85 30.45"/>

<path id="icon_r_box_02_36_Layer2_0_MEMBER_0_MEMBER_0_MEMBER_0_MEMBER_0_MEMBER_6_MEMBER_7_MEMBER_0_1_STROKES" stroke="#000000" stroke-width="1" stroke-linejoin="round" stroke-linecap="round" fill="none" d="
M 9.85 32.35
L 9.85 33.95"/>

<path id="icon_r_box_02_36_Layer2_0_MEMBER_0_MEMBER_0_MEMBER_0_MEMBER_0_MEMBER_6_MEMBER_8_MEMBER_0_1_STROKES" stroke="#000000" stroke-width="1" stroke-linejoin="round" stroke-linecap="round" fill="none" d="
M 9.85 35.9
L 9.85 37.5"/>

<path id="icon_r_box_02_36_Layer2_0_MEMBER_0_MEMBER_0_MEMBER_0_MEMBER_0_MEMBER_6_MEMBER_9_MEMBER_0_1_STROKES" stroke="#000000" stroke-width="1" stroke-linejoin="round" stroke-linecap="round" fill="none" d="
M 9.85 39.4
L 9.85 41"/>

<path id="icon_r_box_02_36_Layer2_0_MEMBER_0_MEMBER_0_MEMBER_0_MEMBER_0_MEMBER_7_MEMBER_0_MEMBER_0_1_STROKES" stroke="#000000" stroke-width="1" stroke-linejoin="round" stroke-linecap="round" fill="none" d="
M 25.8 7.7
L 25.8 9.3"/>

<path id="icon_r_box_02_36_Layer2_0_MEMBER_0_MEMBER_0_MEMBER_0_MEMBER_0_MEMBER_7_MEMBER_1_MEMBER_0_1_STROKES" stroke="#000000" stroke-width="1" stroke-linejoin="round" stroke-linecap="round" fill="none" d="
M 25.8 11.2
L 25.8 12.8"/>

<path id="icon_r_box_02_36_Layer2_0_MEMBER_0_MEMBER_0_MEMBER_0_MEMBER_0_MEMBER_7_MEMBER_2_MEMBER_0_1_STROKES" stroke="#000000" stroke-width="1" stroke-linejoin="round" stroke-linecap="round" fill="none" d="
M 25.8 14.75
L 25.8 16.35"/>

<path id="icon_r_box_02_36_Layer2_0_MEMBER_0_MEMBER_0_MEMBER_0_MEMBER_0_MEMBER_7_MEMBER_3_MEMBER_0_1_STROKES" stroke="#000000" stroke-width="1" stroke-linejoin="round" stroke-linecap="round" fill="none" d="
M 25.8 18.25
L 25.8 19.85"/>

<path id="icon_r_box_02_36_Layer2_0_MEMBER_0_MEMBER_0_MEMBER_0_MEMBER_0_MEMBER_7_MEMBER_4_MEMBER_0_1_STROKES" stroke="#000000" stroke-width="1" stroke-linejoin="round" stroke-linecap="round" fill="none" d="
M 25.8 21.8
L 25.8 23.4"/>

<path id="icon_r_box_02_36_Layer2_0_MEMBER_0_MEMBER_0_MEMBER_0_MEMBER_0_MEMBER_7_MEMBER_5_MEMBER_0_1_STROKES" stroke="#000000" stroke-width="1" stroke-linejoin="round" stroke-linecap="round" fill="none" d="
M 25.8 25.3
L 25.8 26.9"/>

<path id="icon_r_box_02_36_Layer2_0_MEMBER_0_MEMBER_0_MEMBER_0_MEMBER_0_MEMBER_7_MEMBER_6_MEMBER_0_1_STROKES" stroke="#000000" stroke-width="1" stroke-linejoin="round" stroke-linecap="round" fill="none" d="
M 25.8 28.85
L 25.8 30.45"/>

<path id="icon_r_box_02_36_Layer2_0_MEMBER_0_MEMBER_0_MEMBER_0_MEMBER_0_MEMBER_7_MEMBER_7_MEMBER_0_1_STROKES" stroke="#000000" stroke-width="1" stroke-linejoin="round" stroke-linecap="round" fill="none" d="
M 25.8 32.35
L 25.8 33.95"/>

<path id="icon_r_box_02_36_Layer2_0_MEMBER_0_MEMBER_0_MEMBER_0_MEMBER_0_MEMBER_7_MEMBER_8_MEMBER_0_1_STROKES" stroke="#000000" stroke-width="1" stroke-linejoin="round" stroke-linecap="round" fill="none" d="
M 25.8 35.9
L 25.8 37.5"/>

<path id="icon_r_box_02_36_Layer2_0_MEMBER_0_MEMBER_0_MEMBER_0_MEMBER_0_MEMBER_7_MEMBER_9_MEMBER_0_1_STROKES" stroke="#000000" stroke-width="1" stroke-linejoin="round" stroke-linecap="round" fill="none" d="
M 25.8 39.4
L 25.8 41"/>

<path id="icon_r_box_02_36_Layer2_0_MEMBER_0_MEMBER_0_MEMBER_0_MEMBER_0_MEMBER_8_1_STROKES" stroke="#000000" stroke-width="1" stroke-linejoin="round" stroke-linecap="round" fill="none" d="
M 19.35 39.15
L 16.25 39.15 16.25 43.05 19.35 43.05 19.35 39.15 Z"/>

<path id="icon_r_box_02_36_Layer2_0_MEMBER_0_MEMBER_0_MEMBER_0_MEMBER_1_1_STROKES" stroke="#000000" stroke-width="1" stroke-linejoin="round" stroke-linecap="round" fill="none" d="
M 26.3 2.35
L 25.05 2.35 25.05 0.5 26.3 0.5 26.3 2.35 Z"/>

<path id="icon_r_box_02_36_Layer2_0_MEMBER_0_MEMBER_0_MEMBER_1_MEMBER_0_MEMBER_0_1_STROKES" stroke="#000000" stroke-width="1" stroke-linejoin="round" stroke-linecap="butt" fill="none" d="
M 59.9 43.05
L 35.4 43.05 35.4 5.65 59.9 5.65 59.9 43.05 Z"/>

<path id="icon_r_box_02_36_Layer2_0_MEMBER_0_MEMBER_0_MEMBER_1_MEMBER_0_MEMBER_1_1_STROKES" stroke="#000000" stroke-width="1" stroke-linejoin="round" stroke-linecap="butt" fill="none" d="
M 59.9 5.65
L 35.4 5.65 36.85 2.35 58.45 2.35 59.9 5.65 Z"/>

<path id="icon_r_box_02_36_Layer2_0_MEMBER_0_MEMBER_0_MEMBER_1_MEMBER_0_MEMBER_4_1_STROKES" stroke="#000000" stroke-width="1" stroke-linejoin="round" stroke-linecap="butt" fill="none" d="
M 35.4 43.05
L 59.9 43.05 59.9 5.65 35.4 5.65 35.4 43.05 Z"/>

<path id="icon_r_box_02_36_Layer2_0_MEMBER_0_MEMBER_0_MEMBER_1_MEMBER_0_MEMBER_5_MEMBER_0_1_STROKES" stroke="#000000" stroke-width="1" stroke-linejoin="round" stroke-linecap="butt" fill="none" d="
M 51.5 43.05
L 43.8 43.05 43.8 3.65 51.5 3.65 51.5 43.05 Z"/>

<path id="icon_r_box_02_36_Layer2_0_MEMBER_0_MEMBER_0_MEMBER_1_MEMBER_0_MEMBER_5_MEMBER_1_1_STROKES" stroke="#000000" stroke-width="1" stroke-linejoin="round" stroke-linecap="butt" fill="none" d="
M 51.5 0.95
L 43.8 0.95 43.8 3.65 51.5 3.65 51.5 0.95 Z"/>

<path id="icon_r_box_02_36_Layer2_0_MEMBER_0_MEMBER_0_MEMBER_1_MEMBER_0_MEMBER_5_MEMBER_2_MEMBER_0_MEMBER_0_1_STROKES" stroke="#000000" stroke-width="1" stroke-linejoin="round" stroke-linecap="round" fill="none" d="
M 47.65 5.65
L 47.65 7.25"/>

<path id="icon_r_box_02_36_Layer2_0_MEMBER_0_MEMBER_0_MEMBER_1_MEMBER_0_MEMBER_5_MEMBER_2_MEMBER_1_MEMBER_0_1_STROKES" stroke="#000000" stroke-width="1" stroke-linejoin="round" stroke-linecap="round" fill="none" d="
M 47.65 9.25
L 47.65 10.9"/>

<path id="icon_r_box_02_36_Layer2_0_MEMBER_0_MEMBER_0_MEMBER_1_MEMBER_0_MEMBER_5_MEMBER_2_MEMBER_2_MEMBER_0_1_STROKES" stroke="#000000" stroke-width="1" stroke-linejoin="round" stroke-linecap="round" fill="none" d="
M 47.65 12.85
L 47.65 14.5"/>

<path id="icon_r_box_02_36_Layer2_0_MEMBER_0_MEMBER_0_MEMBER_1_MEMBER_0_MEMBER_5_MEMBER_2_MEMBER_3_MEMBER_0_1_STROKES" stroke="#000000" stroke-width="1" stroke-linejoin="round" stroke-linecap="round" fill="none" d="
M 47.65 16.45
L 47.65 18.1"/>

<path id="icon_r_box_02_36_Layer2_0_MEMBER_0_MEMBER_0_MEMBER_1_MEMBER_0_MEMBER_5_MEMBER_2_MEMBER_4_MEMBER_0_1_STROKES" stroke="#000000" stroke-width="1" stroke-linejoin="round" stroke-linecap="round" fill="none" d="
M 47.65 20.1
L 47.65 21.7"/>

<path id="icon_r_box_02_36_Layer2_0_MEMBER_0_MEMBER_0_MEMBER_1_MEMBER_0_MEMBER_5_MEMBER_2_MEMBER_5_MEMBER_0_1_STROKES" stroke="#000000" stroke-width="1" stroke-linejoin="round" stroke-linecap="round" fill="none" d="
M 47.65 23.7
L 47.65 25.35"/>

<path id="icon_r_box_02_36_Layer2_0_MEMBER_0_MEMBER_0_MEMBER_1_MEMBER_0_MEMBER_5_MEMBER_2_MEMBER_6_MEMBER_0_1_STROKES" stroke="#000000" stroke-width="1" stroke-linejoin="round" stroke-linecap="round" fill="none" d="
M 47.65 27.3
L 47.65 28.95"/>

<path id="icon_r_box_02_36_Layer2_0_MEMBER_0_MEMBER_0_MEMBER_1_MEMBER_0_MEMBER_5_MEMBER_2_MEMBER_7_MEMBER_0_1_STROKES" stroke="#000000" stroke-width="1" stroke-linejoin="round" stroke-linecap="round" fill="none" d="
M 47.65 30.9
L 47.65 32.55"/>

<path id="icon_r_box_02_36_Layer2_0_MEMBER_0_MEMBER_0_MEMBER_1_MEMBER_0_MEMBER_5_MEMBER_2_MEMBER_8_MEMBER_0_1_STROKES" stroke="#000000" stroke-width="1" stroke-linejoin="round" stroke-linecap="round" fill="none" d="
M 47.65 34.55
L 47.65 36.15"/>

<path id="icon_r_box_02_36_Layer2_0_MEMBER_0_MEMBER_0_MEMBER_1_MEMBER_0_MEMBER_6_MEMBER_0_MEMBER_0_1_STROKES" stroke="#000000" stroke-width="1" stroke-linejoin="round" stroke-linecap="round" fill="none" d="
M 39.65 7.7
L 39.65 9.3"/>

<path id="icon_r_box_02_36_Layer2_0_MEMBER_0_MEMBER_0_MEMBER_1_MEMBER_0_MEMBER_6_MEMBER_1_MEMBER_0_1_STROKES" stroke="#000000" stroke-width="1" stroke-linejoin="round" stroke-linecap="round" fill="none" d="
M 39.65 11.2
L 39.65 12.8"/>

<path id="icon_r_box_02_36_Layer2_0_MEMBER_0_MEMBER_0_MEMBER_1_MEMBER_0_MEMBER_6_MEMBER_2_MEMBER_0_1_STROKES" stroke="#000000" stroke-width="1" stroke-linejoin="round" stroke-linecap="round" fill="none" d="
M 39.65 14.75
L 39.65 16.35"/>

<path id="icon_r_box_02_36_Layer2_0_MEMBER_0_MEMBER_0_MEMBER_1_MEMBER_0_MEMBER_6_MEMBER_3_MEMBER_0_1_STROKES" stroke="#000000" stroke-width="1" stroke-linejoin="round" stroke-linecap="round" fill="none" d="
M 39.65 18.25
L 39.65 19.85"/>

<path id="icon_r_box_02_36_Layer2_0_MEMBER_0_MEMBER_0_MEMBER_1_MEMBER_0_MEMBER_6_MEMBER_4_MEMBER_0_1_STROKES" stroke="#000000" stroke-width="1" stroke-linejoin="round" stroke-linecap="round" fill="none" d="
M 39.65 21.8
L 39.65 23.4"/>

<path id="icon_r_box_02_36_Layer2_0_MEMBER_0_MEMBER_0_MEMBER_1_MEMBER_0_MEMBER_6_MEMBER_5_MEMBER_0_1_STROKES" stroke="#000000" stroke-width="1" stroke-linejoin="round" stroke-linecap="round" fill="none" d="
M 39.65 25.3
L 39.65 26.9"/>

<path id="icon_r_box_02_36_Layer2_0_MEMBER_0_MEMBER_0_MEMBER_1_MEMBER_0_MEMBER_6_MEMBER_6_MEMBER_0_1_STROKES" stroke="#000000" stroke-width="1" stroke-linejoin="round" stroke-linecap="round" fill="none" d="
M 39.65 28.85
L 39.65 30.45"/>

<path id="icon_r_box_02_36_Layer2_0_MEMBER_0_MEMBER_0_MEMBER_1_MEMBER_0_MEMBER_6_MEMBER_7_MEMBER_0_1_STROKES" stroke="#000000" stroke-width="1" stroke-linejoin="round" stroke-linecap="round" fill="none" d="
M 39.65 32.35
L 39.65 33.95"/>

<path id="icon_r_box_02_36_Layer2_0_MEMBER_0_MEMBER_0_MEMBER_1_MEMBER_0_MEMBER_6_MEMBER_8_MEMBER_0_1_STROKES" stroke="#000000" stroke-width="1" stroke-linejoin="round" stroke-linecap="round" fill="none" d="
M 39.65 35.9
L 39.65 37.5"/>

<path id="icon_r_box_02_36_Layer2_0_MEMBER_0_MEMBER_0_MEMBER_1_MEMBER_0_MEMBER_6_MEMBER_9_MEMBER_0_1_STROKES" stroke="#000000" stroke-width="1" stroke-linejoin="round" stroke-linecap="round" fill="none" d="
M 39.65 39.4
L 39.65 41"/>

<path id="icon_r_box_02_36_Layer2_0_MEMBER_0_MEMBER_0_MEMBER_1_MEMBER_0_MEMBER_7_MEMBER_0_MEMBER_0_1_STROKES" stroke="#000000" stroke-width="1" stroke-linejoin="round" stroke-linecap="round" fill="none" d="
M 55.6 7.7
L 55.6 9.3"/>

<path id="icon_r_box_02_36_Layer2_0_MEMBER_0_MEMBER_0_MEMBER_1_MEMBER_0_MEMBER_7_MEMBER_1_MEMBER_0_1_STROKES" stroke="#000000" stroke-width="1" stroke-linejoin="round" stroke-linecap="round" fill="none" d="
M 55.6 11.2
L 55.6 12.8"/>

<path id="icon_r_box_02_36_Layer2_0_MEMBER_0_MEMBER_0_MEMBER_1_MEMBER_0_MEMBER_7_MEMBER_2_MEMBER_0_1_STROKES" stroke="#000000" stroke-width="1" stroke-linejoin="round" stroke-linecap="round" fill="none" d="
M 55.6 14.75
L 55.6 16.35"/>

<path id="icon_r_box_02_36_Layer2_0_MEMBER_0_MEMBER_0_MEMBER_1_MEMBER_0_MEMBER_7_MEMBER_3_MEMBER_0_1_STROKES" stroke="#000000" stroke-width="1" stroke-linejoin="round" stroke-linecap="round" fill="none" d="
M 55.6 18.25
L 55.6 19.85"/>

<path id="icon_r_box_02_36_Layer2_0_MEMBER_0_MEMBER_0_MEMBER_1_MEMBER_0_MEMBER_7_MEMBER_4_MEMBER_0_1_STROKES" stroke="#000000" stroke-width="1" stroke-linejoin="round" stroke-linecap="round" fill="none" d="
M 55.6 21.8
L 55.6 23.4"/>

<path id="icon_r_box_02_36_Layer2_0_MEMBER_0_MEMBER_0_MEMBER_1_MEMBER_0_MEMBER_7_MEMBER_5_MEMBER_0_1_STROKES" stroke="#000000" stroke-width="1" stroke-linejoin="round" stroke-linecap="round" fill="none" d="
M 55.6 25.3
L 55.6 26.9"/>

<path id="icon_r_box_02_36_Layer2_0_MEMBER_0_MEMBER_0_MEMBER_1_MEMBER_0_MEMBER_7_MEMBER_6_MEMBER_0_1_STROKES" stroke="#000000" stroke-width="1" stroke-linejoin="round" stroke-linecap="round" fill="none" d="
M 55.6 28.85
L 55.6 30.45"/>

<path id="icon_r_box_02_36_Layer2_0_MEMBER_0_MEMBER_0_MEMBER_1_MEMBER_0_MEMBER_7_MEMBER_7_MEMBER_0_1_STROKES" stroke="#000000" stroke-width="1" stroke-linejoin="round" stroke-linecap="round" fill="none" d="
M 55.6 32.35
L 55.6 33.95"/>

<path id="icon_r_box_02_36_Layer2_0_MEMBER_0_MEMBER_0_MEMBER_1_MEMBER_0_MEMBER_7_MEMBER_8_MEMBER_0_1_STROKES" stroke="#000000" stroke-width="1" stroke-linejoin="round" stroke-linecap="round" fill="none" d="
M 55.6 35.9
L 55.6 37.5"/>

<path id="icon_r_box_02_36_Layer2_0_MEMBER_0_MEMBER_0_MEMBER_1_MEMBER_0_MEMBER_7_MEMBER_9_MEMBER_0_1_STROKES" stroke="#000000" stroke-width="1" stroke-linejoin="round" stroke-linecap="round" fill="none" d="
M 55.6 39.4
L 55.6 41"/>

<path id="icon_r_box_02_36_Layer2_0_MEMBER_0_MEMBER_0_MEMBER_1_MEMBER_0_MEMBER_8_1_STROKES" stroke="#000000" stroke-width="1" stroke-linejoin="round" stroke-linecap="round" fill="none" d="
M 49.2 39.15
L 46.1 39.15 46.1 43.05 49.2 43.05 49.2 39.15 Z"/>

<path id="icon_r_box_02_36_Layer2_0_MEMBER_0_MEMBER_0_MEMBER_1_MEMBER_1_1_STROKES" stroke="#000000" stroke-width="1" stroke-linejoin="round" stroke-linecap="round" fill="none" d="
M 56.15 2.35
L 54.9 2.35 54.9 0.5 56.15 0.5 56.15 2.35 Z"/>

<path id="icon_r_box_02_36_Layer2_0_MEMBER_0_MEMBER_1_MEMBER_0_1_STROKES" stroke="#000000" stroke-width="1" stroke-linejoin="round" stroke-linecap="round" fill="none" d="
M 0.5 43.05
L 64.95 43.05"/>
</defs>

<g transform="matrix( 1, 0, 0, 0.999603271484375, 65,60) ">
<g transform="matrix( 1, 0, 0, 1, 0,0) ">
<use xlink:href="#icon_r_box_02_36_Layer3_0_FILL"/>
</g>

<g transform="matrix( 1, 0, 0, 1, -0.05,0.05) ">
<use xlink:href="#icon_r_box_02_36_Layer3_1_FILL"/>
</g>

<g transform="matrix( 1, 0, 0, 1, 0,-2.15) ">
<use xlink:href="#icon_r_box_02_36_Layer3_2_FILL"/>
</g>

<g transform="matrix( 1, 0, 0, 1, 0,0.05) ">
<use xlink:href="#icon_r_box_02_36_Layer3_3_FILL"/>
</g>

<g transform="matrix( 1, 0, 0, 1, -32.7,-33.5) ">
<use xlink:href="#icon_r_box_02_36_Layer2_0_MEMBER_0_MEMBER_0_MEMBER_0_MEMBER_0_MEMBER_0_FILL"/>

<use xlink:href="#icon_r_box_02_36_Layer2_0_MEMBER_0_MEMBER_0_MEMBER_0_MEMBER_0_MEMBER_0_1_STROKES"/>
</g>

<g transform="matrix( 1, 0, 0, 1, -32.7,-33.5) ">
<use xlink:href="#icon_r_box_02_36_Layer2_0_MEMBER_0_MEMBER_0_MEMBER_0_MEMBER_0_MEMBER_1_FILL"/>

<use xlink:href="#icon_r_box_02_36_Layer2_0_MEMBER_0_MEMBER_0_MEMBER_0_MEMBER_0_MEMBER_1_1_STROKES"/>
</g>

<g transform="matrix( 1, 0, 0, 1, -32.7,-33.5) ">
<use xlink:href="#icon_r_box_02_36_Layer2_0_MEMBER_0_MEMBER_0_MEMBER_0_MEMBER_0_MEMBER_2_FILL"/>
</g>

<g transform="matrix( 1, 0, 0, 1, -32.7,-33.5) ">
<use xlink:href="#icon_r_box_02_36_Layer2_0_MEMBER_0_MEMBER_0_MEMBER_0_MEMBER_0_MEMBER_3_FILL"/>
</g>

<g transform="matrix( 1, 0, 0, 1, -32.7,-33.5) ">
<use xlink:href="#icon_r_box_02_36_Layer2_0_MEMBER_0_MEMBER_0_MEMBER_0_MEMBER_0_MEMBER_4_1_STROKES"/>
</g>

<g transform="matrix( 1, 0, 0, 1, -32.7,-33.5) ">
<use xlink:href="#icon_r_box_02_36_Layer2_0_MEMBER_0_MEMBER_0_MEMBER_0_MEMBER_0_MEMBER_5_MEMBER_0_FILL"/>

<use xlink:href="#icon_r_box_02_36_Layer2_0_MEMBER_0_MEMBER_0_MEMBER_0_MEMBER_0_MEMBER_5_MEMBER_0_1_STROKES"/>
</g>

<g transform="matrix( 1, 0, 0, 1, -32.7,-33.5) ">
<use xlink:href="#icon_r_box_02_36_Layer2_0_MEMBER_0_MEMBER_0_MEMBER_0_MEMBER_0_MEMBER_5_MEMBER_1_FILL"/>

<use xlink:href="#icon_r_box_02_36_Layer2_0_MEMBER_0_MEMBER_0_MEMBER_0_MEMBER_0_MEMBER_5_MEMBER_1_1_STROKES"/>
</g>

<g transform="matrix( 1, 0, 0, 1, -32.7,-33.5) ">
<use xlink:href="#icon_r_box_02_36_Layer2_0_MEMBER_0_MEMBER_0_MEMBER_0_MEMBER_0_MEMBER_5_MEMBER_2_MEMBER_0_MEMBER_0_1_STROKES"/>
</g>

<g transform="matrix( 1, 0, 0, 1, -32.7,-33.5) ">
<use xlink:href="#icon_r_box_02_36_Layer2_0_MEMBER_0_MEMBER_0_MEMBER_0_MEMBER_0_MEMBER_5_MEMBER_2_MEMBER_1_MEMBER_0_1_STROKES"/>
</g>

<g transform="matrix( 1, 0, 0, 1, -32.7,-33.5) ">
<use xlink:href="#icon_r_box_02_36_Layer2_0_MEMBER_0_MEMBER_0_MEMBER_0_MEMBER_0_MEMBER_5_MEMBER_2_MEMBER_2_MEMBER_0_1_STROKES"/>
</g>

<g transform="matrix( 1, 0, 0, 1, -32.7,-33.5) ">
<use xlink:href="#icon_r_box_02_36_Layer2_0_MEMBER_0_MEMBER_0_MEMBER_0_MEMBER_0_MEMBER_5_MEMBER_2_MEMBER_3_MEMBER_0_1_STROKES"/>
</g>

<g transform="matrix( 1, 0, 0, 1, -32.7,-33.5) ">
<use xlink:href="#icon_r_box_02_36_Layer2_0_MEMBER_0_MEMBER_0_MEMBER_0_MEMBER_0_MEMBER_5_MEMBER_2_MEMBER_4_MEMBER_0_1_STROKES"/>
</g>

<g transform="matrix( 1, 0, 0, 1, -32.7,-33.5) ">
<use xlink:href="#icon_r_box_02_36_Layer2_0_MEMBER_0_MEMBER_0_MEMBER_0_MEMBER_0_MEMBER_5_MEMBER_2_MEMBER_5_MEMBER_0_1_STROKES"/>
</g>

<g transform="matrix( 1, 0, 0, 1, -32.7,-33.5) ">
<use xlink:href="#icon_r_box_02_36_Layer2_0_MEMBER_0_MEMBER_0_MEMBER_0_MEMBER_0_MEMBER_5_MEMBER_2_MEMBER_6_MEMBER_0_1_STROKES"/>
</g>

<g transform="matrix( 1, 0, 0, 1, -32.7,-33.5) ">
<use xlink:href="#icon_r_box_02_36_Layer2_0_MEMBER_0_MEMBER_0_MEMBER_0_MEMBER_0_MEMBER_5_MEMBER_2_MEMBER_7_MEMBER_0_1_STROKES"/>
</g>

<g transform="matrix( 1, 0, 0, 1, -32.7,-33.5) ">
<use xlink:href="#icon_r_box_02_36_Layer2_0_MEMBER_0_MEMBER_0_MEMBER_0_MEMBER_0_MEMBER_5_MEMBER_2_MEMBER_8_MEMBER_0_1_STROKES"/>
</g>

<g transform="matrix( 1, 0, 0, 1, -32.7,-33.5) ">
<use xlink:href="#icon_r_box_02_36_Layer2_0_MEMBER_0_MEMBER_0_MEMBER_0_MEMBER_0_MEMBER_6_MEMBER_0_MEMBER_0_1_STROKES"/>
</g>

<g transform="matrix( 1, 0, 0, 1, -32.7,-33.5) ">
<use xlink:href="#icon_r_box_02_36_Layer2_0_MEMBER_0_MEMBER_0_MEMBER_0_MEMBER_0_MEMBER_6_MEMBER_1_MEMBER_0_1_STROKES"/>
</g>

<g transform="matrix( 1, 0, 0, 1, -32.7,-33.5) ">
<use xlink:href="#icon_r_box_02_36_Layer2_0_MEMBER_0_MEMBER_0_MEMBER_0_MEMBER_0_MEMBER_6_MEMBER_2_MEMBER_0_1_STROKES"/>
</g>

<g transform="matrix( 1, 0, 0, 1, -32.7,-33.5) ">
<use xlink:href="#icon_r_box_02_36_Layer2_0_MEMBER_0_MEMBER_0_MEMBER_0_MEMBER_0_MEMBER_6_MEMBER_3_MEMBER_0_1_STROKES"/>
</g>

<g transform="matrix( 1, 0, 0, 1, -32.7,-33.5) ">
<use xlink:href="#icon_r_box_02_36_Layer2_0_MEMBER_0_MEMBER_0_MEMBER_0_MEMBER_0_MEMBER_6_MEMBER_4_MEMBER_0_1_STROKES"/>
</g>

<g transform="matrix( 1, 0, 0, 1, -32.7,-33.5) ">
<use xlink:href="#icon_r_box_02_36_Layer2_0_MEMBER_0_MEMBER_0_MEMBER_0_MEMBER_0_MEMBER_6_MEMBER_5_MEMBER_0_1_STROKES"/>
</g>

<g transform="matrix( 1, 0, 0, 1, -32.7,-33.5) ">
<use xlink:href="#icon_r_box_02_36_Layer2_0_MEMBER_0_MEMBER_0_MEMBER_0_MEMBER_0_MEMBER_6_MEMBER_6_MEMBER_0_1_STROKES"/>
</g>

<g transform="matrix( 1, 0, 0, 1, -32.7,-33.5) ">
<use xlink:href="#icon_r_box_02_36_Layer2_0_MEMBER_0_MEMBER_0_MEMBER_0_MEMBER_0_MEMBER_6_MEMBER_7_MEMBER_0_1_STROKES"/>
</g>

<g transform="matrix( 1, 0, 0, 1, -32.7,-33.5) ">
<use xlink:href="#icon_r_box_02_36_Layer2_0_MEMBER_0_MEMBER_0_MEMBER_0_MEMBER_0_MEMBER_6_MEMBER_8_MEMBER_0_1_STROKES"/>
</g>

<g transform="matrix( 1, 0, 0, 1, -32.7,-33.5) ">
<use xlink:href="#icon_r_box_02_36_Layer2_0_MEMBER_0_MEMBER_0_MEMBER_0_MEMBER_0_MEMBER_6_MEMBER_9_MEMBER_0_1_STROKES"/>
</g>

<g transform="matrix( 1, 0, 0, 1, -32.7,-33.5) ">
<use xlink:href="#icon_r_box_02_36_Layer2_0_MEMBER_0_MEMBER_0_MEMBER_0_MEMBER_0_MEMBER_7_MEMBER_0_MEMBER_0_1_STROKES"/>
</g>

<g transform="matrix( 1, 0, 0, 1, -32.7,-33.5) ">
<use xlink:href="#icon_r_box_02_36_Layer2_0_MEMBER_0_MEMBER_0_MEMBER_0_MEMBER_0_MEMBER_7_MEMBER_1_MEMBER_0_1_STROKES"/>
</g>

<g transform="matrix( 1, 0, 0, 1, -32.7,-33.5) ">
<use xlink:href="#icon_r_box_02_36_Layer2_0_MEMBER_0_MEMBER_0_MEMBER_0_MEMBER_0_MEMBER_7_MEMBER_2_MEMBER_0_1_STROKES"/>
</g>

<g transform="matrix( 1, 0, 0, 1, -32.7,-33.5) ">
<use xlink:href="#icon_r_box_02_36_Layer2_0_MEMBER_0_MEMBER_0_MEMBER_0_MEMBER_0_MEMBER_7_MEMBER_3_MEMBER_0_1_STROKES"/>
</g>

<g transform="matrix( 1, 0, 0, 1, -32.7,-33.5) ">
<use xlink:href="#icon_r_box_02_36_Layer2_0_MEMBER_0_MEMBER_0_MEMBER_0_MEMBER_0_MEMBER_7_MEMBER_4_MEMBER_0_1_STROKES"/>
</g>

<g transform="matrix( 1, 0, 0, 1, -32.7,-33.5) ">
<use xlink:href="#icon_r_box_02_36_Layer2_0_MEMBER_0_MEMBER_0_MEMBER_0_MEMBER_0_MEMBER_7_MEMBER_5_MEMBER_0_1_STROKES"/>
</g>

<g transform="matrix( 1, 0, 0, 1, -32.7,-33.5) ">
<use xlink:href="#icon_r_box_02_36_Layer2_0_MEMBER_0_MEMBER_0_MEMBER_0_MEMBER_0_MEMBER_7_MEMBER_6_MEMBER_0_1_STROKES"/>
</g>

<g transform="matrix( 1, 0, 0, 1, -32.7,-33.5) ">
<use xlink:href="#icon_r_box_02_36_Layer2_0_MEMBER_0_MEMBER_0_MEMBER_0_MEMBER_0_MEMBER_7_MEMBER_7_MEMBER_0_1_STROKES"/>
</g>

<g transform="matrix( 1, 0, 0, 1, -32.7,-33.5) ">
<use xlink:href="#icon_r_box_02_36_Layer2_0_MEMBER_0_MEMBER_0_MEMBER_0_MEMBER_0_MEMBER_7_MEMBER_8_MEMBER_0_1_STROKES"/>
</g>

<g transform="matrix( 1, 0, 0, 1, -32.7,-33.5) ">
<use xlink:href="#icon_r_box_02_36_Layer2_0_MEMBER_0_MEMBER_0_MEMBER_0_MEMBER_0_MEMBER_7_MEMBER_9_MEMBER_0_1_STROKES"/>
</g>

<g transform="matrix( 1, 0, 0, 1, -32.7,-33.5) ">
<use xlink:href="#icon_r_box_02_36_Layer2_0_MEMBER_0_MEMBER_0_MEMBER_0_MEMBER_0_MEMBER_8_FILL"/>

<use xlink:href="#icon_r_box_02_36_Layer2_0_MEMBER_0_MEMBER_0_MEMBER_0_MEMBER_0_MEMBER_8_1_STROKES"/>
</g>

<g transform="matrix( 1, 0, 0, 1, -32.7,-33.5) ">
<use xlink:href="#icon_r_box_02_36_Layer2_0_MEMBER_0_MEMBER_0_MEMBER_0_MEMBER_1_FILL"/>

<use xlink:href="#icon_r_box_02_36_Layer2_0_MEMBER_0_MEMBER_0_MEMBER_0_MEMBER_1_1_STROKES"/>
</g>

<g transform="matrix( 1, 0, 0, 1, -32.7,-33.5) ">
<use xlink:href="#icon_r_box_02_36_Layer2_0_MEMBER_0_MEMBER_0_MEMBER_1_MEMBER_0_MEMBER_0_FILL"/>

<use xlink:href="#icon_r_box_02_36_Layer2_0_MEMBER_0_MEMBER_0_MEMBER_1_MEMBER_0_MEMBER_0_1_STROKES"/>
</g>

<g transform="matrix( 1, 0, 0, 1, -32.7,-33.5) ">
<use xlink:href="#icon_r_box_02_36_Layer2_0_MEMBER_0_MEMBER_0_MEMBER_1_MEMBER_0_MEMBER_1_FILL"/>

<use xlink:href="#icon_r_box_02_36_Layer2_0_MEMBER_0_MEMBER_0_MEMBER_1_MEMBER_0_MEMBER_1_1_STROKES"/>
</g>

<g transform="matrix( 1, 0, 0, 1, -32.7,-33.5) ">
<use xlink:href="#icon_r_box_02_36_Layer2_0_MEMBER_0_MEMBER_0_MEMBER_1_MEMBER_0_MEMBER_2_FILL"/>
</g>

<g transform="matrix( 1, 0, 0, 1, -32.7,-33.5) ">
<use xlink:href="#icon_r_box_02_36_Layer2_0_MEMBER_0_MEMBER_0_MEMBER_1_MEMBER_0_MEMBER_3_FILL"/>
</g>

<g transform="matrix( 1, 0, 0, 1, -32.7,-33.5) ">
<use xlink:href="#icon_r_box_02_36_Layer2_0_MEMBER_0_MEMBER_0_MEMBER_1_MEMBER_0_MEMBER_4_1_STROKES"/>
</g>

<g transform="matrix( 1, 0, 0, 1, -32.7,-33.5) ">
<use xlink:href="#icon_r_box_02_36_Layer2_0_MEMBER_0_MEMBER_0_MEMBER_1_MEMBER_0_MEMBER_5_MEMBER_0_FILL"/>

<use xlink:href="#icon_r_box_02_36_Layer2_0_MEMBER_0_MEMBER_0_MEMBER_1_MEMBER_0_MEMBER_5_MEMBER_0_1_STROKES"/>
</g>

<g transform="matrix( 1, 0, 0, 1, -32.7,-33.5) ">
<use xlink:href="#icon_r_box_02_36_Layer2_0_MEMBER_0_MEMBER_0_MEMBER_1_MEMBER_0_MEMBER_5_MEMBER_1_FILL"/>

<use xlink:href="#icon_r_box_02_36_Layer2_0_MEMBER_0_MEMBER_0_MEMBER_1_MEMBER_0_MEMBER_5_MEMBER_1_1_STROKES"/>
</g>

<g transform="matrix( 1, 0, 0, 1, -32.7,-33.5) ">
<use xlink:href="#icon_r_box_02_36_Layer2_0_MEMBER_0_MEMBER_0_MEMBER_1_MEMBER_0_MEMBER_5_MEMBER_2_MEMBER_0_MEMBER_0_1_STROKES"/>
</g>

<g transform="matrix( 1, 0, 0, 1, -32.7,-33.5) ">
<use xlink:href="#icon_r_box_02_36_Layer2_0_MEMBER_0_MEMBER_0_MEMBER_1_MEMBER_0_MEMBER_5_MEMBER_2_MEMBER_1_MEMBER_0_1_STROKES"/>
</g>

<g transform="matrix( 1, 0, 0, 1, -32.7,-33.5) ">
<use xlink:href="#icon_r_box_02_36_Layer2_0_MEMBER_0_MEMBER_0_MEMBER_1_MEMBER_0_MEMBER_5_MEMBER_2_MEMBER_2_MEMBER_0_1_STROKES"/>
</g>

<g transform="matrix( 1, 0, 0, 1, -32.7,-33.5) ">
<use xlink:href="#icon_r_box_02_36_Layer2_0_MEMBER_0_MEMBER_0_MEMBER_1_MEMBER_0_MEMBER_5_MEMBER_2_MEMBER_3_MEMBER_0_1_STROKES"/>
</g>

<g transform="matrix( 1, 0, 0, 1, -32.7,-33.5) ">
<use xlink:href="#icon_r_box_02_36_Layer2_0_MEMBER_0_MEMBER_0_MEMBER_1_MEMBER_0_MEMBER_5_MEMBER_2_MEMBER_4_MEMBER_0_1_STROKES"/>
</g>

<g transform="matrix( 1, 0, 0, 1, -32.7,-33.5) ">
<use xlink:href="#icon_r_box_02_36_Layer2_0_MEMBER_0_MEMBER_0_MEMBER_1_MEMBER_0_MEMBER_5_MEMBER_2_MEMBER_5_MEMBER_0_1_STROKES"/>
</g>

<g transform="matrix( 1, 0, 0, 1, -32.7,-33.5) ">
<use xlink:href="#icon_r_box_02_36_Layer2_0_MEMBER_0_MEMBER_0_MEMBER_1_MEMBER_0_MEMBER_5_MEMBER_2_MEMBER_6_MEMBER_0_1_STROKES"/>
</g>

<g transform="matrix( 1, 0, 0, 1, -32.7,-33.5) ">
<use xlink:href="#icon_r_box_02_36_Layer2_0_MEMBER_0_MEMBER_0_MEMBER_1_MEMBER_0_MEMBER_5_MEMBER_2_MEMBER_7_MEMBER_0_1_STROKES"/>
</g>

<g transform="matrix( 1, 0, 0, 1, -32.7,-33.5) ">
<use xlink:href="#icon_r_box_02_36_Layer2_0_MEMBER_0_MEMBER_0_MEMBER_1_MEMBER_0_MEMBER_5_MEMBER_2_MEMBER_8_MEMBER_0_1_STROKES"/>
</g>

<g transform="matrix( 1, 0, 0, 1, -32.7,-33.5) ">
<use xlink:href="#icon_r_box_02_36_Layer2_0_MEMBER_0_MEMBER_0_MEMBER_1_MEMBER_0_MEMBER_6_MEMBER_0_MEMBER_0_1_STROKES"/>
</g>

<g transform="matrix( 1, 0, 0, 1, -32.7,-33.5) ">
<use xlink:href="#icon_r_box_02_36_Layer2_0_MEMBER_0_MEMBER_0_MEMBER_1_MEMBER_0_MEMBER_6_MEMBER_1_MEMBER_0_1_STROKES"/>
</g>

<g transform="matrix( 1, 0, 0, 1, -32.7,-33.5) ">
<use xlink:href="#icon_r_box_02_36_Layer2_0_MEMBER_0_MEMBER_0_MEMBER_1_MEMBER_0_MEMBER_6_MEMBER_2_MEMBER_0_1_STROKES"/>
</g>

<g transform="matrix( 1, 0, 0, 1, -32.7,-33.5) ">
<use xlink:href="#icon_r_box_02_36_Layer2_0_MEMBER_0_MEMBER_0_MEMBER_1_MEMBER_0_MEMBER_6_MEMBER_3_MEMBER_0_1_STROKES"/>
</g>

<g transform="matrix( 1, 0, 0, 1, -32.7,-33.5) ">
<use xlink:href="#icon_r_box_02_36_Layer2_0_MEMBER_0_MEMBER_0_MEMBER_1_MEMBER_0_MEMBER_6_MEMBER_4_MEMBER_0_1_STROKES"/>
</g>

<g transform="matrix( 1, 0, 0, 1, -32.7,-33.5) ">
<use xlink:href="#icon_r_box_02_36_Layer2_0_MEMBER_0_MEMBER_0_MEMBER_1_MEMBER_0_MEMBER_6_MEMBER_5_MEMBER_0_1_STROKES"/>
</g>

<g transform="matrix( 1, 0, 0, 1, -32.7,-33.5) ">
<use xlink:href="#icon_r_box_02_36_Layer2_0_MEMBER_0_MEMBER_0_MEMBER_1_MEMBER_0_MEMBER_6_MEMBER_6_MEMBER_0_1_STROKES"/>
</g>

<g transform="matrix( 1, 0, 0, 1, -32.7,-33.5) ">
<use xlink:href="#icon_r_box_02_36_Layer2_0_MEMBER_0_MEMBER_0_MEMBER_1_MEMBER_0_MEMBER_6_MEMBER_7_MEMBER_0_1_STROKES"/>
</g>

<g transform="matrix( 1, 0, 0, 1, -32.7,-33.5) ">
<use xlink:href="#icon_r_box_02_36_Layer2_0_MEMBER_0_MEMBER_0_MEMBER_1_MEMBER_0_MEMBER_6_MEMBER_8_MEMBER_0_1_STROKES"/>
</g>

<g transform="matrix( 1, 0, 0, 1, -32.7,-33.5) ">
<use xlink:href="#icon_r_box_02_36_Layer2_0_MEMBER_0_MEMBER_0_MEMBER_1_MEMBER_0_MEMBER_6_MEMBER_9_MEMBER_0_1_STROKES"/>
</g>

<g transform="matrix( 1, 0, 0, 1, -32.7,-33.5) ">
<use xlink:href="#icon_r_box_02_36_Layer2_0_MEMBER_0_MEMBER_0_MEMBER_1_MEMBER_0_MEMBER_7_MEMBER_0_MEMBER_0_1_STROKES"/>
</g>

<g transform="matrix( 1, 0, 0, 1, -32.7,-33.5) ">
<use xlink:href="#icon_r_box_02_36_Layer2_0_MEMBER_0_MEMBER_0_MEMBER_1_MEMBER_0_MEMBER_7_MEMBER_1_MEMBER_0_1_STROKES"/>
</g>

<g transform="matrix( 1, 0, 0, 1, -32.7,-33.5) ">
<use xlink:href="#icon_r_box_02_36_Layer2_0_MEMBER_0_MEMBER_0_MEMBER_1_MEMBER_0_MEMBER_7_MEMBER_2_MEMBER_0_1_STROKES"/>
</g>

<g transform="matrix( 1, 0, 0, 1, -32.7,-33.5) ">
<use xlink:href="#icon_r_box_02_36_Layer2_0_MEMBER_0_MEMBER_0_MEMBER_1_MEMBER_0_MEMBER_7_MEMBER_3_MEMBER_0_1_STROKES"/>
</g>

<g transform="matrix( 1, 0, 0, 1, -32.7,-33.5) ">
<use xlink:href="#icon_r_box_02_36_Layer2_0_MEMBER_0_MEMBER_0_MEMBER_1_MEMBER_0_MEMBER_7_MEMBER_4_MEMBER_0_1_STROKES"/>
</g>

<g transform="matrix( 1, 0, 0, 1, -32.7,-33.5) ">
<use xlink:href="#icon_r_box_02_36_Layer2_0_MEMBER_0_MEMBER_0_MEMBER_1_MEMBER_0_MEMBER_7_MEMBER_5_MEMBER_0_1_STROKES"/>
</g>

<g transform="matrix( 1, 0, 0, 1, -32.7,-33.5) ">
<use xlink:href="#icon_r_box_02_36_Layer2_0_MEMBER_0_MEMBER_0_MEMBER_1_MEMBER_0_MEMBER_7_MEMBER_6_MEMBER_0_1_STROKES"/>
</g>

<g transform="matrix( 1, 0, 0, 1, -32.7,-33.5) ">
<use xlink:href="#icon_r_box_02_36_Layer2_0_MEMBER_0_MEMBER_0_MEMBER_1_MEMBER_0_MEMBER_7_MEMBER_7_MEMBER_0_1_STROKES"/>
</g>

<g transform="matrix( 1, 0, 0, 1, -32.7,-33.5) ">
<use xlink:href="#icon_r_box_02_36_Layer2_0_MEMBER_0_MEMBER_0_MEMBER_1_MEMBER_0_MEMBER_7_MEMBER_8_MEMBER_0_1_STROKES"/>
</g>

<g transform="matrix( 1, 0, 0, 1, -32.7,-33.5) ">
<use xlink:href="#icon_r_box_02_36_Layer2_0_MEMBER_0_MEMBER_0_MEMBER_1_MEMBER_0_MEMBER_7_MEMBER_9_MEMBER_0_1_STROKES"/>
</g>

<g transform="matrix( 1, 0, 0, 1, -32.7,-33.5) ">
<use xlink:href="#icon_r_box_02_36_Layer2_0_MEMBER_0_MEMBER_0_MEMBER_1_MEMBER_0_MEMBER_8_FILL"/>

<use xlink:href="#icon_r_box_02_36_Layer2_0_MEMBER_0_MEMBER_0_MEMBER_1_MEMBER_0_MEMBER_8_1_STROKES"/>
</g>

<g transform="matrix( 1, 0, 0, 1, -32.7,-33.5) ">
<use xlink:href="#icon_r_box_02_36_Layer2_0_MEMBER_0_MEMBER_0_MEMBER_1_MEMBER_1_FILL"/>

<use xlink:href="#icon_r_box_02_36_Layer2_0_MEMBER_0_MEMBER_0_MEMBER_1_MEMBER_1_1_STROKES"/>
</g>

<g transform="matrix( 1, 0, 0, 1, -32.7,-33.5) ">
<use xlink:href="#icon_r_box_02_36_Layer2_0_MEMBER_0_MEMBER_1_MEMBER_0_1_STROKES"/>
</g>
</g>
</svg>
