
<svg xmlns="http://www.w3.org/2000/svg" version="1.1" xmlns:xlink="http://www.w3.org/1999/xlink" preserveAspectRatio="none" x="0px" y="0px" width="130px" height="115px" viewBox="0 0 130 115">
<defs>
<g id="icon_r_box_02_2_Layer3_0_FILL">
<path fill="#FFFFFF" fill-opacity="0" stroke="none" d="
M 65 -55
L -65 -55 -65 25 65 25 65 -55 Z"/>
</g>

<g id="icon_r_box_02_2_Layer3_1_FILL">
<path fill="#FFFFFF" fill-opacity="0" stroke="none" d="
M 65.05 49.95
L 65.05 24.95 -64.95 24.95 -64.95 49.95 65.05 49.95 Z"/>
</g>

<g id="icon_r_box_02_2_Layer3_2_FILL">
<path fill="#FFFFFF" fill-opacity="0" stroke="none" d="
M 65 -52.85
L 65 -57.85 -65 -57.85 -65 -52.85 65 -52.85 Z"/>
</g>

<g id="icon_r_box_02_2_Layer3_3_FILL">
<path fill="#FFFFFF" fill-opacity="0" stroke="none" d="
M 65 54.95
L 65 49.95 -65 49.95 -65 54.95 65 54.95 Z"/>
</g>

<g id="icon_r_box_02_2_Layer2_0_MEMBER_0_FILL">
<path fill="#4CB9FF" stroke="none" d="
M 75.8 32
Q 76.25 31.45 80.1 29.45 82.85 28.05 82.25 25.75 81.25 21.8 69.65 17.9 56.2 13.35 40.05 14.05 25.85 14.7 15.25 18.35 5.2 21.8 4.4 25.75 4.15 27 7.1 28.1 10.25 29.25 10.35 31.65 10.4 33.1 8.55 34.35 7.9 34.8 4.7 36.4 -0.5 39 0.9 42.2 2.95 46.9 22.95 48.55 40.75 50.05 54.9 48.3 66.2 46.85 73.65 43.7 80.25 40.85 80.3 38.45 80.35 35.9 77.45 34.35 75 33.05 75.8 32 Z"/>
</g>

<g id="icon_r_box_02_2_Layer2_0_MEMBER_1_MEMBER_0_MEMBER_0_MEMBER_0_FILL">
<path fill="#94DA71" stroke="none" d="
M 16.75 13
Q 16.75 10.9 15.5 7.85 14 4.35 12.4 4.35 10.8 4.35 9.35 7.85 8.05 10.9 8.05 13 8.05 14.7 9.35 15.85 10.6 17.05 12.4 17.05 14.2 17.05 15.5 15.85 16.75 14.7 16.75 13 Z"/>
</g>

<g id="icon_r_box_02_2_Layer2_0_MEMBER_2_MEMBER_0_MEMBER_0_MEMBER_0_FILL">
<path fill="#40C871" stroke="none" d="
M 26.65 9.75
Q 26.65 7.65 25.4 4.6 23.95 1.1 22.35 1.1 20.75 1.1 19.3 4.6 18 7.65 18 9.75 18 11.4 19.3 12.6 20.55 13.75 22.35 13.75 24.15 13.75 25.4 12.6 26.65 11.4 26.65 9.75 Z"/>
</g>

<g id="icon_r_box_02_2_Layer2_0_MEMBER_3_MEMBER_0_MEMBER_0_MEMBER_0_FILL">
<path fill="#94DA71" stroke="none" d="
M 67.4 9.15
Q 67.4 7 66.15 4 64.7 0.5 63.1 0.5 61.5 0.5 60.05 4 58.75 7.05 58.75 9.15 58.75 10.8 60.05 12 61.3 13.15 63.1 13.15 64.9 13.15 66.15 12 67.4 10.8 67.4 9.15 Z"/>
</g>

<g id="icon_r_box_02_2_Layer2_0_MEMBER_4_MEMBER_0_MEMBER_0_MEMBER_0_FILL">
<path fill="#40C871" stroke="none" d="
M 77.55 12.65
Q 77.55 10.55 76.3 7.5 74.8 4 73.2 4 71.6 4 70.15 7.5 68.85 10.55 68.85 12.65 68.85 14.3 70.15 15.5 71.4 16.65 73.2 16.65 75 16.65 76.3 15.5 77.55 14.3 77.55 12.65 Z"/>
</g>

<path id="icon_r_box_02_2_Layer2_0_MEMBER_0_1_STROKES" stroke="#000000" stroke-width="1" stroke-linejoin="round" stroke-linecap="round" fill="none" d="
M 40.05 14.05
Q 25.85 14.7 15.25 18.35 5.2 21.8 4.4 25.75 4.15 27 7.1 28.1 10.25 29.25 10.35 31.65 10.4 33.1 8.55 34.35 7.9 34.8 4.7 36.4 -0.5 39 0.9 42.2 2.95 46.9 22.95 48.55 40.75 50.05 54.9 48.3 66.2 46.85 73.65 43.7 80.25 40.85 80.3 38.45 80.35 35.9 77.45 34.35 75 33.05 75.8 32 76.25 31.45 80.1 29.45 82.85 28.05 82.25 25.75 81.25 21.8 69.65 17.9 56.2 13.35 40.05 14.05 Z"/>

<path id="icon_r_box_02_2_Layer2_0_MEMBER_1_MEMBER_0_MEMBER_0_MEMBER_0_1_STROKES" stroke="#000000" stroke-width="1" stroke-linejoin="round" stroke-linecap="round" fill="none" d="
M 16.75 13
Q 16.75 14.7 15.5 15.85 14.2 17.05 12.4 17.05 10.6 17.05 9.35 15.85 8.05 14.7 8.05 13 8.05 10.9 9.35 7.85 10.8 4.35 12.4 4.35 14 4.35 15.5 7.85 16.75 10.9 16.75 13 Z"/>

<path id="icon_r_box_02_2_Layer2_0_MEMBER_1_MEMBER_0_MEMBER_0_MEMBER_1_MEMBER_0_1_STROKES" stroke="#000000" stroke-width="1" stroke-linejoin="round" stroke-linecap="round" fill="none" d="
M 12.4 9.35
L 12.4 19.5"/>

<path id="icon_r_box_02_2_Layer2_0_MEMBER_1_MEMBER_0_MEMBER_0_MEMBER_2_MEMBER_0_1_STROKES" stroke="#000000" stroke-width="1" stroke-linejoin="round" stroke-linecap="round" fill="none" d="
M 10.35 11.65
L 12.4 13.55"/>

<path id="icon_r_box_02_2_Layer2_0_MEMBER_2_MEMBER_0_MEMBER_0_MEMBER_0_1_STROKES" stroke="#000000" stroke-width="1" stroke-linejoin="round" stroke-linecap="round" fill="none" d="
M 26.65 9.75
Q 26.65 11.4 25.4 12.6 24.15 13.75 22.35 13.75 20.55 13.75 19.3 12.6 18 11.4 18 9.75 18 7.65 19.3 4.6 20.75 1.1 22.35 1.1 23.95 1.1 25.4 4.6 26.65 7.65 26.65 9.75 Z"/>

<path id="icon_r_box_02_2_Layer2_0_MEMBER_2_MEMBER_0_MEMBER_0_MEMBER_1_MEMBER_0_1_STROKES" stroke="#000000" stroke-width="1" stroke-linejoin="round" stroke-linecap="round" fill="none" d="
M 22.35 6.1
L 22.35 16.25"/>

<path id="icon_r_box_02_2_Layer2_0_MEMBER_2_MEMBER_0_MEMBER_0_MEMBER_2_MEMBER_0_1_STROKES" stroke="#000000" stroke-width="1" stroke-linejoin="round" stroke-linecap="round" fill="none" d="
M 20.25 8.4
L 22.35 10.3"/>

<path id="icon_r_box_02_2_Layer2_0_MEMBER_3_MEMBER_0_MEMBER_0_MEMBER_0_1_STROKES" stroke="#000000" stroke-width="1" stroke-linejoin="round" stroke-linecap="round" fill="none" d="
M 67.4 9.15
Q 67.4 10.8 66.15 12 64.9 13.15 63.1 13.15 61.3 13.15 60.05 12 58.75 10.8 58.75 9.15 58.75 7.05 60.05 4 61.5 0.5 63.1 0.5 64.7 0.5 66.15 4 67.4 7 67.4 9.15 Z"/>

<path id="icon_r_box_02_2_Layer2_0_MEMBER_3_MEMBER_0_MEMBER_0_MEMBER_1_MEMBER_0_1_STROKES" stroke="#000000" stroke-width="1" stroke-linejoin="round" stroke-linecap="round" fill="none" d="
M 63.1 5.45
L 63.1 15.6"/>

<path id="icon_r_box_02_2_Layer2_0_MEMBER_3_MEMBER_0_MEMBER_0_MEMBER_2_MEMBER_0_1_STROKES" stroke="#000000" stroke-width="1" stroke-linejoin="round" stroke-linecap="round" fill="none" d="
M 61 7.75
L 63.1 9.65"/>

<path id="icon_r_box_02_2_Layer2_0_MEMBER_4_MEMBER_0_MEMBER_0_MEMBER_0_1_STROKES" stroke="#000000" stroke-width="1" stroke-linejoin="round" stroke-linecap="round" fill="none" d="
M 77.55 12.65
Q 77.55 14.3 76.3 15.5 75 16.65 73.2 16.65 71.4 16.65 70.15 15.5 68.85 14.3 68.85 12.65 68.85 10.55 70.15 7.5 71.6 4 73.2 4 74.8 4 76.3 7.5 77.55 10.55 77.55 12.65 Z"/>

<path id="icon_r_box_02_2_Layer2_0_MEMBER_4_MEMBER_0_MEMBER_0_MEMBER_1_MEMBER_0_1_STROKES" stroke="#000000" stroke-width="1" stroke-linejoin="round" stroke-linecap="round" fill="none" d="
M 73.2 9
L 73.2 19.1"/>

<path id="icon_r_box_02_2_Layer2_0_MEMBER_4_MEMBER_0_MEMBER_0_MEMBER_2_MEMBER_0_1_STROKES" stroke="#000000" stroke-width="1" stroke-linejoin="round" stroke-linecap="round" fill="none" d="
M 71.1 11.25
L 73.2 13.15"/>

<path id="icon_r_box_02_2_Layer2_0_MEMBER_5_1_STROKES" stroke="#FFFFFF" stroke-width="1" stroke-linejoin="round" stroke-linecap="round" fill="none" d="
M 26 20.3
L 39.7 20.3"/>

<path id="icon_r_box_02_2_Layer2_0_MEMBER_6_1_STROKES" stroke="#FFFFFF" stroke-width="1" stroke-linejoin="round" stroke-linecap="round" fill="none" d="
M 44.15 20.3
L 47.65 20.3"/>

<path id="icon_r_box_02_2_Layer2_0_MEMBER_7_1_STROKES" stroke="#FFFFFF" stroke-width="1" stroke-linejoin="round" stroke-linecap="round" fill="none" d="
M 35.3 23.1
L 59.45 23.1"/>

<path id="icon_r_box_02_2_Layer2_0_MEMBER_8_1_STROKES" stroke="#FFFFFF" stroke-width="1" stroke-linejoin="round" stroke-linecap="round" fill="none" d="
M 14.45 29.45
L 20.25 29.45"/>

<path id="icon_r_box_02_2_Layer2_0_MEMBER_9_1_STROKES" stroke="#FFFFFF" stroke-width="1" stroke-linejoin="round" stroke-linecap="round" fill="none" d="
M 24.55 29.45
L 40.95 29.45"/>

<path id="icon_r_box_02_2_Layer2_0_MEMBER_10_1_STROKES" stroke="#FFFFFF" stroke-width="1" stroke-linejoin="round" stroke-linecap="round" fill="none" d="
M 32.85 33.4
L 56.35 33.4"/>

<path id="icon_r_box_02_2_Layer2_0_MEMBER_11_1_STROKES" stroke="#FFFFFF" stroke-width="1" stroke-linejoin="round" stroke-linecap="round" fill="none" d="
M 62.7 33.4
L 67.4 33.4"/>

<path id="icon_r_box_02_2_Layer2_0_MEMBER_12_1_STROKES" stroke="#FFFFFF" stroke-width="1" stroke-linejoin="round" stroke-linecap="round" fill="none" d="
M 25.5 37.8
L 34.7 37.8"/>

<path id="icon_r_box_02_2_Layer2_0_MEMBER_13_1_STROKES" stroke="#FFFFFF" stroke-width="1" stroke-linejoin="round" stroke-linecap="round" fill="none" d="
M 44.2 42.15
L 59.25 42.15"/>
</defs>

<g transform="matrix( 1, 0, 0, 0.999603271484375, 65,60) ">
<g transform="matrix( 1, 0, 0, 1, 0,0) ">
<use xlink:href="#icon_r_box_02_2_Layer3_0_FILL"/>
</g>

<g transform="matrix( 1, 0, 0, 1, -0.05,0.05) ">
<use xlink:href="#icon_r_box_02_2_Layer3_1_FILL"/>
</g>

<g transform="matrix( 1, 0, 0, 1, 0,-2.15) ">
<use xlink:href="#icon_r_box_02_2_Layer3_2_FILL"/>
</g>

<g transform="matrix( 1, 0, 0, 1, 0,0.05) ">
<use xlink:href="#icon_r_box_02_2_Layer3_3_FILL"/>
</g>

<g transform="matrix( 1, 0, 0, 1, -41.45,-34.2) ">
<use xlink:href="#icon_r_box_02_2_Layer2_0_MEMBER_0_FILL"/>

<use xlink:href="#icon_r_box_02_2_Layer2_0_MEMBER_0_1_STROKES"/>
</g>

<g transform="matrix( 1, 0, 0, 1, -41.45,-34.2) ">
<use xlink:href="#icon_r_box_02_2_Layer2_0_MEMBER_1_MEMBER_0_MEMBER_0_MEMBER_0_FILL"/>

<use xlink:href="#icon_r_box_02_2_Layer2_0_MEMBER_1_MEMBER_0_MEMBER_0_MEMBER_0_1_STROKES"/>
</g>

<g transform="matrix( 1, 0, 0, 1, -41.45,-34.2) ">
<use xlink:href="#icon_r_box_02_2_Layer2_0_MEMBER_1_MEMBER_0_MEMBER_0_MEMBER_1_MEMBER_0_1_STROKES"/>
</g>

<g transform="matrix( 1, 0, 0, 1, -41.45,-34.2) ">
<use xlink:href="#icon_r_box_02_2_Layer2_0_MEMBER_1_MEMBER_0_MEMBER_0_MEMBER_2_MEMBER_0_1_STROKES"/>
</g>

<g transform="matrix( 1, 0, 0, 1, -41.45,-34.2) ">
<use xlink:href="#icon_r_box_02_2_Layer2_0_MEMBER_2_MEMBER_0_MEMBER_0_MEMBER_0_FILL"/>

<use xlink:href="#icon_r_box_02_2_Layer2_0_MEMBER_2_MEMBER_0_MEMBER_0_MEMBER_0_1_STROKES"/>
</g>

<g transform="matrix( 1, 0, 0, 1, -41.45,-34.2) ">
<use xlink:href="#icon_r_box_02_2_Layer2_0_MEMBER_2_MEMBER_0_MEMBER_0_MEMBER_1_MEMBER_0_1_STROKES"/>
</g>

<g transform="matrix( 1, 0, 0, 1, -41.45,-34.2) ">
<use xlink:href="#icon_r_box_02_2_Layer2_0_MEMBER_2_MEMBER_0_MEMBER_0_MEMBER_2_MEMBER_0_1_STROKES"/>
</g>

<g transform="matrix( 1, 0, 0, 1, -41.45,-34.2) ">
<use xlink:href="#icon_r_box_02_2_Layer2_0_MEMBER_3_MEMBER_0_MEMBER_0_MEMBER_0_FILL"/>

<use xlink:href="#icon_r_box_02_2_Layer2_0_MEMBER_3_MEMBER_0_MEMBER_0_MEMBER_0_1_STROKES"/>
</g>

<g transform="matrix( 1, 0, 0, 1, -41.45,-34.2) ">
<use xlink:href="#icon_r_box_02_2_Layer2_0_MEMBER_3_MEMBER_0_MEMBER_0_MEMBER_1_MEMBER_0_1_STROKES"/>
</g>

<g transform="matrix( 1, 0, 0, 1, -41.45,-34.2) ">
<use xlink:href="#icon_r_box_02_2_Layer2_0_MEMBER_3_MEMBER_0_MEMBER_0_MEMBER_2_MEMBER_0_1_STROKES"/>
</g>

<g transform="matrix( 1, 0, 0, 1, -41.45,-34.2) ">
<use xlink:href="#icon_r_box_02_2_Layer2_0_MEMBER_4_MEMBER_0_MEMBER_0_MEMBER_0_FILL"/>

<use xlink:href="#icon_r_box_02_2_Layer2_0_MEMBER_4_MEMBER_0_MEMBER_0_MEMBER_0_1_STROKES"/>
</g>

<g transform="matrix( 1, 0, 0, 1, -41.45,-34.2) ">
<use xlink:href="#icon_r_box_02_2_Layer2_0_MEMBER_4_MEMBER_0_MEMBER_0_MEMBER_1_MEMBER_0_1_STROKES"/>
</g>

<g transform="matrix( 1, 0, 0, 1, -41.45,-34.2) ">
<use xlink:href="#icon_r_box_02_2_Layer2_0_MEMBER_4_MEMBER_0_MEMBER_0_MEMBER_2_MEMBER_0_1_STROKES"/>
</g>

<g transform="matrix( 1, 0, 0, 1, -41.45,-34.2) ">
<use xlink:href="#icon_r_box_02_2_Layer2_0_MEMBER_5_1_STROKES"/>
</g>

<g transform="matrix( 1, 0, 0, 1, -41.45,-34.2) ">
<use xlink:href="#icon_r_box_02_2_Layer2_0_MEMBER_6_1_STROKES"/>
</g>

<g transform="matrix( 1, 0, 0, 1, -41.45,-34.2) ">
<use xlink:href="#icon_r_box_02_2_Layer2_0_MEMBER_7_1_STROKES"/>
</g>

<g transform="matrix( 1, 0, 0, 1, -41.45,-34.2) ">
<use xlink:href="#icon_r_box_02_2_Layer2_0_MEMBER_8_1_STROKES"/>
</g>

<g transform="matrix( 1, 0, 0, 1, -41.45,-34.2) ">
<use xlink:href="#icon_r_box_02_2_Layer2_0_MEMBER_9_1_STROKES"/>
</g>

<g transform="matrix( 1, 0, 0, 1, -41.45,-34.2) ">
<use xlink:href="#icon_r_box_02_2_Layer2_0_MEMBER_10_1_STROKES"/>
</g>

<g transform="matrix( 1, 0, 0, 1, -41.45,-34.2) ">
<use xlink:href="#icon_r_box_02_2_Layer2_0_MEMBER_11_1_STROKES"/>
</g>

<g transform="matrix( 1, 0, 0, 1, -41.45,-34.2) ">
<use xlink:href="#icon_r_box_02_2_Layer2_0_MEMBER_12_1_STROKES"/>
</g>

<g transform="matrix( 1, 0, 0, 1, -41.45,-34.2) ">
<use xlink:href="#icon_r_box_02_2_Layer2_0_MEMBER_13_1_STROKES"/>
</g>
</g>
</svg>
