
<svg xmlns="http://www.w3.org/2000/svg" version="1.1" xmlns:xlink="http://www.w3.org/1999/xlink" preserveAspectRatio="none" x="0px" y="0px" width="130px" height="115px" viewBox="0 0 130 115">
<defs>
<g id="icon_r_box_02_9_Layer3_0_FILL">
<path fill="#FFFFFF" fill-opacity="0" stroke="none" d="
M 65 -55
L -65 -55 -65 25 65 25 65 -55 Z"/>
</g>

<g id="icon_r_box_02_9_Layer3_1_FILL">
<path fill="#FFFFFF" fill-opacity="0" stroke="none" d="
M 65.05 49.95
L 65.05 24.95 -64.95 24.95 -64.95 49.95 65.05 49.95 Z"/>
</g>

<g id="icon_r_box_02_9_Layer3_2_FILL">
<path fill="#FFFFFF" fill-opacity="0" stroke="none" d="
M 65 -52.85
L 65 -57.85 -65 -57.85 -65 -52.85 65 -52.85 Z"/>
</g>

<g id="icon_r_box_02_9_Layer3_3_FILL">
<path fill="#FFFFFF" fill-opacity="0" stroke="none" d="
M 65 54.95
L 65 49.95 -65 49.95 -65 54.95 65 54.95 Z"/>
</g>

<g id="icon_r_box_02_9_Layer2_0_MEMBER_1_MEMBER_0_FILL">
<path fill="#FFFFFF" stroke="none" d="
M 76.4 0.5
L 43.1 0.5 43.1 52.75 76.4 52.75 76.4 0.5 Z"/>
</g>

<g id="icon_r_box_02_9_Layer2_0_MEMBER_1_MEMBER_1_MEMBER_0_MEMBER_0_FILL">
<path fill="#01C178" stroke="none" d="
M 65.85 9.7
L 61.5 9.7 61.5 5.3 58 5.3 58 9.7 53.65 9.7 53.65 13.15 58 13.15 58 17.55 61.5 17.55 61.5 13.15 65.85 13.15 65.85 9.7 Z"/>
</g>

<g id="icon_r_box_02_9_Layer2_0_MEMBER_1_MEMBER_1_MEMBER_0_MEMBER_1_FILL">
<path fill="#000000" stroke="none" d="
M 62.2 4.6
Q 61.9 4.3 61.5 4.3
L 58 4.3
Q 57.6 4.3 57.3 4.6 57 4.9 57 5.3
L 57 8.7 53.65 8.7
Q 53.25 8.7 52.95 9 52.65 9.3 52.65 9.7
L 52.65 13.15
Q 52.65 13.55 52.95 13.85 53.25 14.15 53.65 14.15
L 57 14.15 57 17.55
Q 57 17.95 57.3 18.25 57.6 18.55 58 18.55
L 61.5 18.55
Q 61.9 18.55 62.2 18.25 62.5 17.95 62.5 17.55
L 62.5 14.15 65.85 14.15
Q 66.25 14.15 66.55 13.85 66.85 13.55 66.85 13.15
L 66.85 9.7
Q 66.85 9.3 66.55 9 66.25 8.7 65.85 8.7
L 62.5 8.7 62.5 5.3
Q 62.5 4.9 62.2 4.6
M 61.5 9.7
L 65.85 9.7 65.85 13.15 61.5 13.15 61.5 17.55 58 17.55 58 13.15 53.65 13.15 53.65 9.7 58 9.7 58 5.3 61.5 5.3 61.5 9.7 Z"/>
</g>

<g id="icon_r_box_02_9_Layer2_0_MEMBER_1_MEMBER_2_FILL">
<path fill="#FFFFFF" stroke="none" d="
M 17.2 45.9
L 22.7 45.9 22.7 52.75 29.5 52.75 29.5 45.9 35 45.9 35 52.75 43.1 52.75 43.1 40.3 9.1 40.3 9.1 52.75 17.2 52.75 17.2 45.9 Z"/>
</g>

<g id="icon_r_box_02_9_Layer2_0_MEMBER_1_MEMBER_3_FILL">
<path fill="#D5D5D5" stroke="none" d="
M 14.2 52.75
L 17.05 52.75 17.05 45.75 14.2 52.75 Z"/>
</g>

<g id="icon_r_box_02_9_Layer2_0_MEMBER_1_MEMBER_4_FILL">
<path fill="#D5D5D5" stroke="none" d="
M 26.7 52.75
L 29.55 52.75 29.55 45.75 26.7 52.75 Z"/>
</g>

<g id="icon_r_box_02_9_Layer2_0_MEMBER_1_MEMBER_5_FILL">
<path fill="#D5D5D5" stroke="none" d="
M 43.1 52.75
L 43.1 40.8 40 40.8 40 52.75 43.1 52.75 Z"/>
</g>

<g id="icon_r_box_02_9_Layer2_0_MEMBER_1_MEMBER_6_FILL">
<path fill="#D5D5D5" stroke="none" d="
M 43.1 43.25
L 43.1 40.8 9.1 40.8 9.1 43.25 43.1 43.25 Z"/>
</g>

<g id="icon_r_box_02_9_Layer2_0_MEMBER_1_MEMBER_8_MEMBER_0_MEMBER_0_FILL">
<path fill="#76A4D2" stroke="none" d="
M 43.1 19.1
L 43.1 11.4 5.85 11.4 5.85 19.1 43.1 19.1 Z"/>
</g>

<g id="icon_r_box_02_9_Layer2_0_MEMBER_1_MEMBER_8_MEMBER_0_MEMBER_1_FILL">
<path fill="#99CBFF" stroke="none" d="
M 13.3 26.1
L 13.3 19.1 5.85 19.1 5.85 26.1 13.3 26.1 Z"/>
</g>

<g id="icon_r_box_02_9_Layer2_0_MEMBER_1_MEMBER_8_MEMBER_0_MEMBER_2_FILL">
<path fill="#99CBFF" stroke="none" d="
M 20.75 26.1
L 20.75 19.1 13.3 19.1 13.3 26.1 20.75 26.1 Z"/>
</g>

<g id="icon_r_box_02_9_Layer2_0_MEMBER_1_MEMBER_8_MEMBER_0_MEMBER_3_FILL">
<path fill="#99CBFF" stroke="none" d="
M 28.2 26.1
L 28.2 19.1 20.75 19.1 20.75 26.1 28.2 26.1 Z"/>
</g>

<g id="icon_r_box_02_9_Layer2_0_MEMBER_1_MEMBER_8_MEMBER_0_MEMBER_4_FILL">
<path fill="#99CBFF" stroke="none" d="
M 35.65 26.1
L 35.65 19.1 28.2 19.1 28.2 26.1 35.65 26.1 Z"/>
</g>

<g id="icon_r_box_02_9_Layer2_0_MEMBER_1_MEMBER_8_MEMBER_0_MEMBER_5_FILL">
<path fill="#99CBFF" stroke="none" d="
M 43.1 26.1
L 43.1 19.1 35.65 19.1 35.65 26.1 43.1 26.1 Z"/>
</g>

<g id="icon_r_box_02_9_Layer2_0_MEMBER_1_MEMBER_8_MEMBER_1_MEMBER_0_FILL">
<path fill="#76A4D2" stroke="none" d="
M 43.1 33.8
L 43.1 26.1 5.85 26.1 5.85 33.8 43.1 33.8 Z"/>
</g>

<g id="icon_r_box_02_9_Layer2_0_MEMBER_1_MEMBER_8_MEMBER_1_MEMBER_1_FILL">
<path fill="#99CBFF" stroke="none" d="
M 13.3 40.8
L 13.3 33.8 5.85 33.8 5.85 40.8 13.3 40.8 Z"/>
</g>

<g id="icon_r_box_02_9_Layer2_0_MEMBER_1_MEMBER_8_MEMBER_1_MEMBER_2_FILL">
<path fill="#99CBFF" stroke="none" d="
M 20.75 40.8
L 20.75 33.8 13.3 33.8 13.3 40.8 20.75 40.8 Z"/>
</g>

<g id="icon_r_box_02_9_Layer2_0_MEMBER_1_MEMBER_8_MEMBER_1_MEMBER_3_FILL">
<path fill="#99CBFF" stroke="none" d="
M 28.2 40.8
L 28.2 33.8 20.75 33.8 20.75 40.8 28.2 40.8 Z"/>
</g>

<g id="icon_r_box_02_9_Layer2_0_MEMBER_1_MEMBER_8_MEMBER_1_MEMBER_4_FILL">
<path fill="#99CBFF" stroke="none" d="
M 35.65 40.8
L 35.65 33.8 28.2 33.8 28.2 40.8 35.65 40.8 Z"/>
</g>

<g id="icon_r_box_02_9_Layer2_0_MEMBER_1_MEMBER_8_MEMBER_1_MEMBER_5_FILL">
<path fill="#99CBFF" stroke="none" d="
M 43.1 40.8
L 43.1 33.8 35.65 33.8 35.65 40.8 43.1 40.8 Z"/>
</g>

<g id="icon_r_box_02_9_Layer2_0_MEMBER_1_MEMBER_9_FILL">
<path fill="#5B8BBC" stroke="none" d="
M 13.2 33.25
L 15.95 26.6 11.7 26.6 9 33.25 13.2 33.25 Z"/>
</g>

<g id="icon_r_box_02_9_Layer2_0_MEMBER_1_MEMBER_10_FILL">
<path fill="#5B8BBC" stroke="none" d="
M 16.9 33.25
L 19.65 26.6 17.7 26.6 15 33.25 16.9 33.25 Z"/>
</g>

<g id="icon_r_box_02_9_Layer2_0_MEMBER_1_MEMBER_11_FILL">
<path fill="#5B8BBC" stroke="none" d="
M 29.85 33.25
L 32.6 26.6 28.35 26.6 25.65 33.25 29.85 33.25 Z"/>
</g>

<g id="icon_r_box_02_9_Layer2_0_MEMBER_1_MEMBER_12_FILL">
<path fill="#5B8BBC" stroke="none" d="
M 22.6 18.6
L 25.3 11.95 21.05 11.95 18.35 18.6 22.6 18.6 Z"/>
</g>

<g id="icon_r_box_02_9_Layer2_0_MEMBER_1_MEMBER_13_FILL">
<path fill="#5B8BBC" stroke="none" d="
M 26.25 18.6
L 29 11.95 27.05 11.95 24.35 18.6 26.25 18.6 Z"/>
</g>

<g id="icon_r_box_02_9_Layer2_0_MEMBER_1_MEMBER_14_FILL">
<path fill="#5B8BBC" stroke="none" d="
M 37.7 11.95
L 35 18.6 39.25 18.6 41.95 11.95 37.7 11.95 Z"/>
</g>

<g id="icon_r_box_02_9_Layer2_1_MEMBER_0_FILL">
<path fill="#6D65AE" stroke="none" d="
M 65.2 41.25
L 54.3 41.25 54.3 52.75 65.2 52.75 65.2 41.25 Z"/>
</g>

<g id="icon_r_box_02_9_Layer2_1_MEMBER_1_FILL">
<path fill="#6D65AE" stroke="none" d="
M 65.2 41.25
L 59.75 41.25 59.75 52.75 65.2 52.75 65.2 41.25 Z"/>
</g>

<g id="icon_r_box_02_9_Layer1_0_FILL">
<path fill="#000000" stroke="none" d="
M 30.4 -14.2
Q 30.65 -14 30.9 -14.1 31.15 -14.15 31.3 -14.4 31.45 -14.65 31.4 -14.9 31.35 -15.15 31.05 -15.35
L 28.75 -16.7
Q 28.9 -17.15 28.9 -17.55
L 28.9 -18
Q 28.9 -18.2 28.7 -18.35 28.5 -18.5 28.15 -18.5 27.75 -18.5 27.55 -18.35 27.35 -18.2 27.35 -18
L 27.35 -17.55
Q 27.35 -17.25 27.25 -16.95 27.1 -16.6 26.8 -16.3 26.5 -16 26.15 -15.7 25.75 -15.45 25.2 -15.25 24.95 -15.15 24.85 -14.95 24.75 -14.7 24.85 -14.45 24.95 -14.2 25.2 -14.1 25.4 -14 25.7 -14.1 26.5 -14.35 27.1 -14.75 27.7 -15.2 28.1 -15.65
L 30.4 -14.2
M 32.1 -12.65
Q 31.95 -12.8 31.7 -12.8
L 28.85 -12.8 28.85 -14
Q 28.85 -14.3 28.6 -14.4 28.4 -14.55 28.15 -14.55 27.85 -14.55 27.65 -14.4 27.45 -14.3 27.45 -14
L 27.45 -12.8 24.55 -12.8
Q 24.3 -12.8 24.2 -12.65 24.05 -12.5 24.05 -12.25 24.05 -12 24.2 -11.85 24.3 -11.7 24.55 -11.7
L 31.7 -11.7
Q 31.95 -11.7 32.1 -11.85 32.2 -12 32.2 -12.25 32.2 -12.5 32.1 -12.65
M 17.25 -12.9
Q 17.2 -12.65 17.15 -12.4 17.15 -12.15 17.15 -11.85 17.15 -11.35 17.3 -11 17.45 -10.65 17.75 -10.4 18.05 -10.2 18.55 -10.1 19.05 -10 19.75 -10 20.55 -10 21.2 -10.1 21.9 -10.25 22.45 -10.5 22.75 -10.6 22.8 -10.8 22.85 -11 22.75 -11.25 22.65 -11.5 22.45 -11.55 22.25 -11.65 22 -11.55 21.55 -11.35 20.95 -11.25 20.35 -11.15 19.75 -11.15 19.4 -11.15 19.15 -11.2 18.9 -11.25 18.75 -11.3 18.65 -11.4 18.6 -11.55 18.5 -11.65 18.5 -11.85 18.5 -12.05 18.55 -12.25 18.55 -12.5 18.6 -12.7 18.65 -12.9 18.5 -13.1 18.35 -13.25 18.05 -13.3 17.75 -13.35 17.55 -13.25 17.35 -13.15 17.25 -12.9
M 20.05 -15.9
Q 20.05 -15.65 20.15 -15.55 20.25 -15.4 20.5 -15.4
L 21.3 -15.4 21.3 -13.3
Q 21.3 -13.05 21.45 -12.95 21.65 -12.8 21.95 -12.8 22.25 -12.8 22.45 -12.95 22.65 -13.05 22.65 -13.3
L 22.65 -18.2
Q 22.65 -18.45 22.45 -18.55 22.25 -18.7 21.95 -18.7 21.65 -18.7 21.45 -18.55 21.3 -18.45 21.3 -18.2
L 21.3 -16.45 20.5 -16.45
Q 20.25 -16.45 20.15 -16.3 20.05 -16.15 20.05 -15.9
M 18.1 -17.25
Q 18.35 -17.25 18.45 -17.15 18.55 -17.05 18.55 -16.8 18.55 -16.5 18.4 -16.2 18.2 -15.9 17.9 -15.6 17.55 -15.35 17.1 -15.1 16.6 -14.9 16 -14.75 15.7 -14.65 15.6 -14.45 15.55 -14.2 15.6 -13.95 15.7 -13.75 15.9 -13.65 16.05 -13.55 16.35 -13.6 17.2 -13.8 17.9 -14.15 18.55 -14.45 19 -14.9 19.5 -15.35 19.75 -15.85 20 -16.4 20 -16.95 20 -17.6 19.6 -18 19.25 -18.35 18.55 -18.35
L 16.4 -18.35
Q 16.1 -18.35 15.95 -18.2 15.8 -18.05 15.8 -17.8 15.8 -17.55 15.95 -17.4 16.1 -17.25 16.4 -17.25
L 18.1 -17.25
M 11.1 -12.8
L 11.1 -13.5
Q 11.1 -13.7 10.95 -13.85 10.75 -13.95 10.45 -13.95 10.1 -13.95 9.95 -13.85 9.75 -13.7 9.75 -13.5
L 9.75 -12.8 6.85 -12.8
Q 6.6 -12.8 6.5 -12.65 6.35 -12.5 6.35 -12.25 6.35 -11.95 6.5 -11.85 6.6 -11.7 6.85 -11.7
L 14 -11.7
Q 14.25 -11.7 14.4 -11.85 14.5 -11.95 14.5 -12.25 14.5 -12.5 14.4 -12.65 14.25 -12.8 14 -12.8
L 11.1 -12.8
M 13.45 -15.85
L 13.45 -17.9
Q 13.45 -18.15 13.25 -18.3 13.1 -18.45 12.75 -18.45 12.45 -18.45 12.25 -18.3 12.1 -18.15 12.1 -17.9
L 12.1 -17.25 8.85 -17.25
Q 8.9 -17.4 8.95 -17.5 9 -17.65 9 -17.75 9.1 -18.05 9 -18.25 8.85 -18.45 8.55 -18.5 8.25 -18.6 8.05 -18.5 7.85 -18.4 7.75 -18.1 7.35 -17.05 7.35 -15.85 7.35 -15.4 7.45 -15.1 7.55 -14.75 7.9 -14.55 8.25 -14.4 8.8 -14.3 9.4 -14.2 10.4 -14.2 11.4 -14.2 11.95 -14.3 12.55 -14.4 12.9 -14.55 13.25 -14.75 13.35 -15.1 13.45 -15.4 13.45 -15.85
M 12.1 -16.2
L 12.1 -15.95
Q 12.1 -15.75 12.05 -15.6 11.95 -15.5 11.8 -15.45 11.6 -15.35 11.3 -15.3 10.95 -15.3 10.4 -15.3 9.85 -15.3 9.5 -15.3 9.2 -15.35 9 -15.45 8.8 -15.5 8.75 -15.65 8.7 -15.75 8.7 -15.95
L 8.7 -16.2 12.1 -16.2 Z"/>
</g>

<path id="icon_r_box_02_9_Layer2_0_MEMBER_0_MEMBER_0_1_STROKES" stroke="#000000" stroke-width="1" stroke-linejoin="round" stroke-linecap="round" fill="none" d="
M 0.5 52.75
L 81.75 52.75"/>

<path id="icon_r_box_02_9_Layer2_0_MEMBER_1_MEMBER_0_1_STROKES" stroke="#000000" stroke-width="1" stroke-linejoin="round" stroke-linecap="round" fill="none" d="
M 76.4 52.75
L 43.1 52.75 43.1 0.5 76.4 0.5 76.4 52.75 Z"/>

<path id="icon_r_box_02_9_Layer2_0_MEMBER_1_MEMBER_2_1_STROKES" stroke="#000000" stroke-width="1" stroke-linejoin="round" stroke-linecap="round" fill="none" d="
M 43.1 40.3
L 43.1 52.75 35 52.75 35 45.9 29.5 45.9 29.5 52.75 22.7 52.75 22.7 45.9 17.2 45.9 17.2 52.75 9.1 52.75 9.1 40.3 43.1 40.3 Z"/>

<path id="icon_r_box_02_9_Layer2_0_MEMBER_1_MEMBER_7_1_STROKES" stroke="#000000" stroke-width="1" stroke-linejoin="round" stroke-linecap="round" fill="none" d="
M 43.1 40.3
L 43.1 52.75 35 52.75 35 45.9 29.5 45.9 29.5 52.75 22.7 52.75 22.7 45.9 17.2 45.9 17.2 52.75 9.1 52.75 9.1 40.3 43.1 40.3 Z"/>

<path id="icon_r_box_02_9_Layer2_0_MEMBER_1_MEMBER_8_MEMBER_0_MEMBER_0_1_STROKES" stroke="#000000" stroke-width="1" stroke-linejoin="round" stroke-linecap="round" fill="none" d="
M 43.1 19.1
L 5.85 19.1 5.85 11.4 43.1 11.4 43.1 19.1 Z"/>

<path id="icon_r_box_02_9_Layer2_0_MEMBER_1_MEMBER_8_MEMBER_0_MEMBER_1_1_STROKES" stroke="#000000" stroke-width="1" stroke-linejoin="round" stroke-linecap="round" fill="none" d="
M 13.3 26.1
L 5.85 26.1 5.85 19.1 13.3 19.1 13.3 26.1 Z"/>

<path id="icon_r_box_02_9_Layer2_0_MEMBER_1_MEMBER_8_MEMBER_0_MEMBER_2_1_STROKES" stroke="#000000" stroke-width="1" stroke-linejoin="round" stroke-linecap="round" fill="none" d="
M 20.75 26.1
L 13.3 26.1 13.3 19.1 20.75 19.1 20.75 26.1 Z"/>

<path id="icon_r_box_02_9_Layer2_0_MEMBER_1_MEMBER_8_MEMBER_0_MEMBER_3_1_STROKES" stroke="#000000" stroke-width="1" stroke-linejoin="round" stroke-linecap="round" fill="none" d="
M 28.2 26.1
L 20.75 26.1 20.75 19.1 28.2 19.1 28.2 26.1 Z"/>

<path id="icon_r_box_02_9_Layer2_0_MEMBER_1_MEMBER_8_MEMBER_0_MEMBER_4_1_STROKES" stroke="#000000" stroke-width="1" stroke-linejoin="round" stroke-linecap="round" fill="none" d="
M 35.65 26.1
L 28.2 26.1 28.2 19.1 35.65 19.1 35.65 26.1 Z"/>

<path id="icon_r_box_02_9_Layer2_0_MEMBER_1_MEMBER_8_MEMBER_0_MEMBER_5_1_STROKES" stroke="#000000" stroke-width="1" stroke-linejoin="round" stroke-linecap="round" fill="none" d="
M 43.1 26.1
L 35.65 26.1 35.65 19.1 43.1 19.1 43.1 26.1 Z"/>

<path id="icon_r_box_02_9_Layer2_0_MEMBER_1_MEMBER_8_MEMBER_1_MEMBER_0_1_STROKES" stroke="#000000" stroke-width="1" stroke-linejoin="round" stroke-linecap="round" fill="none" d="
M 43.1 33.8
L 5.85 33.8 5.85 26.1 43.1 26.1 43.1 33.8 Z"/>

<path id="icon_r_box_02_9_Layer2_0_MEMBER_1_MEMBER_8_MEMBER_1_MEMBER_1_1_STROKES" stroke="#000000" stroke-width="1" stroke-linejoin="round" stroke-linecap="round" fill="none" d="
M 13.3 40.8
L 5.85 40.8 5.85 33.8 13.3 33.8 13.3 40.8 Z"/>

<path id="icon_r_box_02_9_Layer2_0_MEMBER_1_MEMBER_8_MEMBER_1_MEMBER_2_1_STROKES" stroke="#000000" stroke-width="1" stroke-linejoin="round" stroke-linecap="round" fill="none" d="
M 20.75 40.8
L 13.3 40.8 13.3 33.8 20.75 33.8 20.75 40.8 Z"/>

<path id="icon_r_box_02_9_Layer2_0_MEMBER_1_MEMBER_8_MEMBER_1_MEMBER_3_1_STROKES" stroke="#000000" stroke-width="1" stroke-linejoin="round" stroke-linecap="round" fill="none" d="
M 28.2 40.8
L 20.75 40.8 20.75 33.8 28.2 33.8 28.2 40.8 Z"/>

<path id="icon_r_box_02_9_Layer2_0_MEMBER_1_MEMBER_8_MEMBER_1_MEMBER_4_1_STROKES" stroke="#000000" stroke-width="1" stroke-linejoin="round" stroke-linecap="round" fill="none" d="
M 35.65 40.8
L 28.2 40.8 28.2 33.8 35.65 33.8 35.65 40.8 Z"/>

<path id="icon_r_box_02_9_Layer2_0_MEMBER_1_MEMBER_8_MEMBER_1_MEMBER_5_1_STROKES" stroke="#000000" stroke-width="1" stroke-linejoin="round" stroke-linecap="round" fill="none" d="
M 43.1 40.8
L 35.65 40.8 35.65 33.8 43.1 33.8 43.1 40.8 Z"/>

<path id="icon_r_box_02_9_Layer2_1_MEMBER_0_1_STROKES" stroke="#000000" stroke-width="1" stroke-linejoin="round" stroke-linecap="round" fill="none" d="
M 65.2 52.75
L 54.3 52.75 54.3 41.25 65.2 41.25 65.2 52.75 Z"/>

<path id="icon_r_box_02_9_Layer2_1_MEMBER_1_1_STROKES" stroke="#000000" stroke-width="1" stroke-linejoin="round" stroke-linecap="round" fill="none" d="
M 65.2 52.75
L 59.75 52.75 59.75 41.25 65.2 41.25 65.2 52.75 Z"/>
</defs>

<g transform="matrix( 1, 0, 0, 0.999603271484375, 65,60) ">
<g transform="matrix( 1, 0, 0, 1, 0,0) ">
<use xlink:href="#icon_r_box_02_9_Layer3_0_FILL"/>
</g>

<g transform="matrix( 1, 0, 0, 1, -0.05,0.05) ">
<use xlink:href="#icon_r_box_02_9_Layer3_1_FILL"/>
</g>

<g transform="matrix( 1, 0, 0, 1, 0,-2.15) ">
<use xlink:href="#icon_r_box_02_9_Layer3_2_FILL"/>
</g>

<g transform="matrix( 1, 0, 0, 1, 0,0.05) ">
<use xlink:href="#icon_r_box_02_9_Layer3_3_FILL"/>
</g>

<g transform="matrix( 1, 0, 0, 1, -41.1,-41.65) ">
<use xlink:href="#icon_r_box_02_9_Layer2_0_MEMBER_0_MEMBER_0_1_STROKES"/>
</g>

<g transform="matrix( 1, 0, 0, 1, -41.1,-41.65) ">
<use xlink:href="#icon_r_box_02_9_Layer2_0_MEMBER_1_MEMBER_0_FILL"/>

<use xlink:href="#icon_r_box_02_9_Layer2_0_MEMBER_1_MEMBER_0_1_STROKES"/>
</g>

<g transform="matrix( 1, 0, 0, 1, -41.1,-41.65) ">
<use xlink:href="#icon_r_box_02_9_Layer2_0_MEMBER_1_MEMBER_1_MEMBER_0_MEMBER_0_FILL"/>
</g>

<g transform="matrix( 1, 0, 0, 1, -41.1,-41.65) ">
<use xlink:href="#icon_r_box_02_9_Layer2_0_MEMBER_1_MEMBER_1_MEMBER_0_MEMBER_1_FILL"/>
</g>

<g transform="matrix( 1, 0, 0, 1, -41.1,-41.65) ">
<use xlink:href="#icon_r_box_02_9_Layer2_0_MEMBER_1_MEMBER_2_FILL"/>

<use xlink:href="#icon_r_box_02_9_Layer2_0_MEMBER_1_MEMBER_2_1_STROKES"/>
</g>

<g transform="matrix( 1, 0, 0, 1, -41.1,-41.65) ">
<use xlink:href="#icon_r_box_02_9_Layer2_0_MEMBER_1_MEMBER_3_FILL"/>
</g>

<g transform="matrix( 1, 0, 0, 1, -41.1,-41.65) ">
<use xlink:href="#icon_r_box_02_9_Layer2_0_MEMBER_1_MEMBER_4_FILL"/>
</g>

<g transform="matrix( 1, 0, 0, 1, -41.1,-41.65) ">
<use xlink:href="#icon_r_box_02_9_Layer2_0_MEMBER_1_MEMBER_5_FILL"/>
</g>

<g transform="matrix( 1, 0, 0, 1, -41.1,-41.65) ">
<use xlink:href="#icon_r_box_02_9_Layer2_0_MEMBER_1_MEMBER_6_FILL"/>
</g>

<g transform="matrix( 1, 0, 0, 1, -41.1,-41.65) ">
<use xlink:href="#icon_r_box_02_9_Layer2_0_MEMBER_1_MEMBER_7_1_STROKES"/>
</g>

<g transform="matrix( 1, 0, 0, 1, -41.1,-41.65) ">
<use xlink:href="#icon_r_box_02_9_Layer2_0_MEMBER_1_MEMBER_8_MEMBER_0_MEMBER_0_FILL"/>

<use xlink:href="#icon_r_box_02_9_Layer2_0_MEMBER_1_MEMBER_8_MEMBER_0_MEMBER_0_1_STROKES"/>
</g>

<g transform="matrix( 1, 0, 0, 1, -41.1,-41.65) ">
<use xlink:href="#icon_r_box_02_9_Layer2_0_MEMBER_1_MEMBER_8_MEMBER_0_MEMBER_1_FILL"/>

<use xlink:href="#icon_r_box_02_9_Layer2_0_MEMBER_1_MEMBER_8_MEMBER_0_MEMBER_1_1_STROKES"/>
</g>

<g transform="matrix( 1, 0, 0, 1, -41.1,-41.65) ">
<use xlink:href="#icon_r_box_02_9_Layer2_0_MEMBER_1_MEMBER_8_MEMBER_0_MEMBER_2_FILL"/>

<use xlink:href="#icon_r_box_02_9_Layer2_0_MEMBER_1_MEMBER_8_MEMBER_0_MEMBER_2_1_STROKES"/>
</g>

<g transform="matrix( 1, 0, 0, 1, -41.1,-41.65) ">
<use xlink:href="#icon_r_box_02_9_Layer2_0_MEMBER_1_MEMBER_8_MEMBER_0_MEMBER_3_FILL"/>

<use xlink:href="#icon_r_box_02_9_Layer2_0_MEMBER_1_MEMBER_8_MEMBER_0_MEMBER_3_1_STROKES"/>
</g>

<g transform="matrix( 1, 0, 0, 1, -41.1,-41.65) ">
<use xlink:href="#icon_r_box_02_9_Layer2_0_MEMBER_1_MEMBER_8_MEMBER_0_MEMBER_4_FILL"/>

<use xlink:href="#icon_r_box_02_9_Layer2_0_MEMBER_1_MEMBER_8_MEMBER_0_MEMBER_4_1_STROKES"/>
</g>

<g transform="matrix( 1, 0, 0, 1, -41.1,-41.65) ">
<use xlink:href="#icon_r_box_02_9_Layer2_0_MEMBER_1_MEMBER_8_MEMBER_0_MEMBER_5_FILL"/>

<use xlink:href="#icon_r_box_02_9_Layer2_0_MEMBER_1_MEMBER_8_MEMBER_0_MEMBER_5_1_STROKES"/>
</g>

<g transform="matrix( 1, 0, 0, 1, -41.1,-41.65) ">
<use xlink:href="#icon_r_box_02_9_Layer2_0_MEMBER_1_MEMBER_8_MEMBER_1_MEMBER_0_FILL"/>

<use xlink:href="#icon_r_box_02_9_Layer2_0_MEMBER_1_MEMBER_8_MEMBER_1_MEMBER_0_1_STROKES"/>
</g>

<g transform="matrix( 1, 0, 0, 1, -41.1,-41.65) ">
<use xlink:href="#icon_r_box_02_9_Layer2_0_MEMBER_1_MEMBER_8_MEMBER_1_MEMBER_1_FILL"/>

<use xlink:href="#icon_r_box_02_9_Layer2_0_MEMBER_1_MEMBER_8_MEMBER_1_MEMBER_1_1_STROKES"/>
</g>

<g transform="matrix( 1, 0, 0, 1, -41.1,-41.65) ">
<use xlink:href="#icon_r_box_02_9_Layer2_0_MEMBER_1_MEMBER_8_MEMBER_1_MEMBER_2_FILL"/>

<use xlink:href="#icon_r_box_02_9_Layer2_0_MEMBER_1_MEMBER_8_MEMBER_1_MEMBER_2_1_STROKES"/>
</g>

<g transform="matrix( 1, 0, 0, 1, -41.1,-41.65) ">
<use xlink:href="#icon_r_box_02_9_Layer2_0_MEMBER_1_MEMBER_8_MEMBER_1_MEMBER_3_FILL"/>

<use xlink:href="#icon_r_box_02_9_Layer2_0_MEMBER_1_MEMBER_8_MEMBER_1_MEMBER_3_1_STROKES"/>
</g>

<g transform="matrix( 1, 0, 0, 1, -41.1,-41.65) ">
<use xlink:href="#icon_r_box_02_9_Layer2_0_MEMBER_1_MEMBER_8_MEMBER_1_MEMBER_4_FILL"/>

<use xlink:href="#icon_r_box_02_9_Layer2_0_MEMBER_1_MEMBER_8_MEMBER_1_MEMBER_4_1_STROKES"/>
</g>

<g transform="matrix( 1, 0, 0, 1, -41.1,-41.65) ">
<use xlink:href="#icon_r_box_02_9_Layer2_0_MEMBER_1_MEMBER_8_MEMBER_1_MEMBER_5_FILL"/>

<use xlink:href="#icon_r_box_02_9_Layer2_0_MEMBER_1_MEMBER_8_MEMBER_1_MEMBER_5_1_STROKES"/>
</g>

<g transform="matrix( 1, 0, 0, 1, -41.1,-41.65) ">
<use xlink:href="#icon_r_box_02_9_Layer2_0_MEMBER_1_MEMBER_9_FILL"/>
</g>

<g transform="matrix( 1, 0, 0, 1, -41.1,-41.65) ">
<use xlink:href="#icon_r_box_02_9_Layer2_0_MEMBER_1_MEMBER_10_FILL"/>
</g>

<g transform="matrix( 1, 0, 0, 1, -41.1,-41.65) ">
<use xlink:href="#icon_r_box_02_9_Layer2_0_MEMBER_1_MEMBER_11_FILL"/>
</g>

<g transform="matrix( 1, 0, 0, 1, -41.1,-41.65) ">
<use xlink:href="#icon_r_box_02_9_Layer2_0_MEMBER_1_MEMBER_12_FILL"/>
</g>

<g transform="matrix( 1, 0, 0, 1, -41.1,-41.65) ">
<use xlink:href="#icon_r_box_02_9_Layer2_0_MEMBER_1_MEMBER_13_FILL"/>
</g>

<g transform="matrix( 1, 0, 0, 1, -41.1,-41.65) ">
<use xlink:href="#icon_r_box_02_9_Layer2_0_MEMBER_1_MEMBER_14_FILL"/>
</g>

<g transform="matrix( 1, 0, 0, 1, -41.1,-41.65) ">
<use xlink:href="#icon_r_box_02_9_Layer2_1_MEMBER_0_FILL"/>

<use xlink:href="#icon_r_box_02_9_Layer2_1_MEMBER_0_1_STROKES"/>
</g>

<g transform="matrix( 1, 0, 0, 1, -41.1,-41.65) ">
<use xlink:href="#icon_r_box_02_9_Layer2_1_MEMBER_1_FILL"/>

<use xlink:href="#icon_r_box_02_9_Layer2_1_MEMBER_1_1_STROKES"/>
</g>

<g transform="matrix( 1, 0, 0, 1, 0,0) ">
<use xlink:href="#icon_r_box_02_9_Layer1_0_FILL"/>
</g>
</g>
</svg>
