
<svg xmlns="http://www.w3.org/2000/svg" version="1.1" xmlns:xlink="http://www.w3.org/1999/xlink" preserveAspectRatio="none" x="0px" y="0px" width="130px" height="115px" viewBox="0 0 130 115">
<defs>
<g id="icon_r_box_02_47_Layer3_0_FILL">
<path fill="#FFFFFF" fill-opacity="0" stroke="none" d="
M 65 -55
L -65 -55 -65 25 65 25 65 -55 Z"/>
</g>

<g id="icon_r_box_02_47_Layer3_1_FILL">
<path fill="#FFFFFF" fill-opacity="0" stroke="none" d="
M 65.05 49.95
L 65.05 24.95 -64.95 24.95 -64.95 49.95 65.05 49.95 Z"/>
</g>

<g id="icon_r_box_02_47_Layer3_2_FILL">
<path fill="#FFFFFF" fill-opacity="0" stroke="none" d="
M 65 -52.85
L 65 -57.85 -65 -57.85 -65 -52.85 65 -52.85 Z"/>
</g>

<g id="icon_r_box_02_47_Layer3_3_FILL">
<path fill="#FFFFFF" fill-opacity="0" stroke="none" d="
M 65 54.95
L 65 49.95 -65 49.95 -65 54.95 65 54.95 Z"/>
</g>

<g id="icon_r_box_02_47_Layer2_0_MEMBER_0_FILL">
<path fill="#FF3F4E" stroke="none" d="
M 45.8 13
Q 45.8 8.45 42.55 5.25 39.35 2 34.8 2 30.65 2 27.5 4.8 24.45 7.55 23.9 11.65 23.35 7.55 20.3 4.8 17.2 2 13 2 8.45 2 5.2 5.25 2 8.45 2 13 2 21.1 9.65 28.05 16.85 34.6 23.85 37.55
L 23.95 37.55
Q 27.8 35.9 31.25 33.55 34.45 31.4 38.15 28.05 45.8 21 45.8 13 Z"/>
</g>

<g id="icon_r_box_02_47_Layer2_0_MEMBER_1_FILL">
<path fill="#000000" stroke="none" d="
M 47.8 13
Q 47.8 7.65 44 3.8 40.15 0 34.8 0 31.45 0 28.55 1.65 25.7 3.2 23.9 5.95 22.1 3.2 19.25 1.65 16.35 0 13 0 7.65 0 3.8 3.8 0 7.65 0 13 0 21.95 8.3 29.5 12.25 33.1 15.7 35.45 19.2 37.75 23.1 39.4
L 23.4 39.5 23.9 39.55 24.4 39.5 24.7 39.4
Q 28.65 37.75 32.1 35.45 35.5 33.15 39.5 29.5 47.8 21.9 47.8 13
M 42.55 5.25
Q 45.8 8.45 45.8 13 45.8 21 38.15 28.05 34.45 31.4 31.25 33.55 27.8 35.9 23.95 37.55
L 23.85 37.55
Q 16.85 34.6 9.65 28.05 2 21.1 2 13 2 8.45 5.2 5.25 8.45 2 13 2 17.2 2 20.3 4.8 23.35 7.55 23.9 11.65 24.45 7.55 27.5 4.8 30.65 2 34.8 2 39.35 2 42.55 5.25 Z"/>
</g>
</defs>

<g transform="matrix( 1, 0, 0, 0.999603271484375, 65,60) ">
<g transform="matrix( 1, 0, 0, 1, 0,0) ">
<use xlink:href="#icon_r_box_02_47_Layer3_0_FILL"/>
</g>

<g transform="matrix( 1, 0, 0, 1, -0.05,0.05) ">
<use xlink:href="#icon_r_box_02_47_Layer3_1_FILL"/>
</g>

<g transform="matrix( 1, 0, 0, 1, 0,-2.15) ">
<use xlink:href="#icon_r_box_02_47_Layer3_2_FILL"/>
</g>

<g transform="matrix( 1, 0, 0, 1, 0,0.05) ">
<use xlink:href="#icon_r_box_02_47_Layer3_3_FILL"/>
</g>

<g transform="matrix( 1, 0, 0, 1, -23.9,-34.8) ">
<use xlink:href="#icon_r_box_02_47_Layer2_0_MEMBER_0_FILL"/>
</g>

<g transform="matrix( 1, 0, 0, 1, -23.9,-34.8) ">
<use xlink:href="#icon_r_box_02_47_Layer2_0_MEMBER_1_FILL"/>
</g>
</g>
</svg>
