
<svg xmlns="http://www.w3.org/2000/svg" version="1.1" xmlns:xlink="http://www.w3.org/1999/xlink" preserveAspectRatio="none" x="0px" y="0px" width="130px" height="115px" viewBox="0 0 130 115">
<defs>
<g id="icon_r_box_02_45_Layer3_0_FILL">
<path fill="#FFFFFF" fill-opacity="0" stroke="none" d="
M 65 -55
L -65 -55 -65 25 65 25 65 -55 Z"/>
</g>

<g id="icon_r_box_02_45_Layer3_1_FILL">
<path fill="#FFFFFF" fill-opacity="0" stroke="none" d="
M 65.05 49.95
L 65.05 24.95 -64.95 24.95 -64.95 49.95 65.05 49.95 Z"/>
</g>

<g id="icon_r_box_02_45_Layer3_2_FILL">
<path fill="#FFFFFF" fill-opacity="0" stroke="none" d="
M 65 -52.85
L 65 -57.85 -65 -57.85 -65 -52.85 65 -52.85 Z"/>
</g>

<g id="icon_r_box_02_45_Layer3_3_FILL">
<path fill="#FFFFFF" fill-opacity="0" stroke="none" d="
M 65 54.95
L 65 49.95 -65 49.95 -65 54.95 65 54.95 Z"/>
</g>

<g id="icon_r_box_02_45_Layer2_0_MEMBER_0_FILL">
<path fill="#01AC4E" stroke="none" d="
M 28.15 2
L 28.15 13.6 2 13.6 2 27.35 28.15 27.35 28.15 38.95 53.45 20.45 28.15 2 Z"/>
</g>

<g id="icon_r_box_02_45_Layer2_0_MEMBER_1_FILL">
<path fill="#000000" stroke="none" d="
M 55.45 20.45
Q 55.45 19.5 54.65 18.85
L 29.3 0.4
Q 28.75 0 28.15 0 27.6 0 27.2 0.2 26.15 0.75 26.15 2
L 26.15 11.6 2 11.6
Q 1.15 11.6 0.6 12.15 0 12.75 0 13.6
L 0 27.35
Q 0 28.2 0.6 28.8 1.15 29.35 2 29.35
L 26.15 29.35 26.15 38.95
Q 26.15 40.2 27.2 40.75 27.6 40.95 28.15 40.95 28.75 40.95 29.3 40.55
L 54.65 22.1
Q 55.45 21.45 55.45 20.45
M 28.15 13.6
L 28.15 2 53.45 20.45 28.15 38.95 28.15 27.35 2 27.35 2 13.6 28.15 13.6 Z"/>
</g>
</defs>

<g transform="matrix( 1, 0, 0, 0.999603271484375, 65,60) ">
<g transform="matrix( 1, 0, 0, 1, 0,0) ">
<use xlink:href="#icon_r_box_02_45_Layer3_0_FILL"/>
</g>

<g transform="matrix( 1, 0, 0, 1, -0.05,0.05) ">
<use xlink:href="#icon_r_box_02_45_Layer3_1_FILL"/>
</g>

<g transform="matrix( 1, 0, 0, 1, 0,-2.15) ">
<use xlink:href="#icon_r_box_02_45_Layer3_2_FILL"/>
</g>

<g transform="matrix( 1, 0, 0, 1, 0,0.05) ">
<use xlink:href="#icon_r_box_02_45_Layer3_3_FILL"/>
</g>

<g transform="matrix( 1, 0, 0, 1, -27.7,-35.5) ">
<use xlink:href="#icon_r_box_02_45_Layer2_0_MEMBER_0_FILL"/>
</g>

<g transform="matrix( 1, 0, 0, 1, -27.7,-35.5) ">
<use xlink:href="#icon_r_box_02_45_Layer2_0_MEMBER_1_FILL"/>
</g>
</g>
</svg>
