
<svg xmlns="http://www.w3.org/2000/svg" version="1.1" xmlns:xlink="http://www.w3.org/1999/xlink" preserveAspectRatio="none" x="0px" y="0px" width="130px" height="115px" viewBox="0 0 130 115">
<defs>
<g id="icon_r_box_02_33_Layer3_0_FILL">
<path fill="#FFFFFF" fill-opacity="0" stroke="none" d="
M 65 -55
L -65 -55 -65 25 65 25 65 -55 Z"/>
</g>

<g id="icon_r_box_02_33_Layer3_1_FILL">
<path fill="#FFFFFF" fill-opacity="0" stroke="none" d="
M 65.05 49.95
L 65.05 24.95 -64.95 24.95 -64.95 49.95 65.05 49.95 Z"/>
</g>

<g id="icon_r_box_02_33_Layer3_2_FILL">
<path fill="#FFFFFF" fill-opacity="0" stroke="none" d="
M 65 -52.85
L 65 -57.85 -65 -57.85 -65 -52.85 65 -52.85 Z"/>
</g>

<g id="icon_r_box_02_33_Layer3_3_FILL">
<path fill="#FFFFFF" fill-opacity="0" stroke="none" d="
M 65 54.95
L 65 49.95 -65 49.95 -65 54.95 65 54.95 Z"/>
</g>

<g id="icon_r_box_02_33_Layer2_0_MEMBER_0_MEMBER_1_FILL">
<path fill="#CBCFD8" stroke="none" d="
M 35.9 27.5
L 7.25 40.4 7.25 57.15 64.5 57.15 64.5 40.4 35.9 27.5 Z"/>
</g>

<g id="icon_r_box_02_33_Layer2_0_MEMBER_0_MEMBER_2_FILL">
<path fill="#AEB5C0" stroke="none" d="
M 35.85 27.5
L 21.85 33.85 21.85 57.15 49.9 57.15 49.9 33.85 35.85 27.5 Z"/>
</g>

<g id="icon_r_box_02_33_Layer2_0_MEMBER_0_MEMBER_3_MEMBER_0_FILL">
<path fill="#C8443F" stroke="none" d="
M 67.05 42.95
L 68.1 40.7 36.4 26.35
Q 35.9 26.15 35.35 26.35
L 3.65 40.7 4.7 42.95 35.9 28.85 67.05 42.95 Z"/>
</g>

<g id="icon_r_box_02_33_Layer2_0_MEMBER_0_MEMBER_5_FILL">
<path fill="#FFFFFF" stroke="none" d="
M 35.85 13.6
L 24.3 24.8 24.3 57.15 47.45 57.15 47.45 24.8 35.85 13.6 Z"/>
</g>

<g id="icon_r_box_02_33_Layer2_0_MEMBER_0_MEMBER_6_MEMBER_0_FILL">
<path fill="#FF5B5B" stroke="none" d="
M 49.85 30.15
L 52.9 27 37.4 12
Q 36.75 11.4 35.9 11.4 35 11.4 34.35 12
L 18.85 27 21.9 30.15 35.9 16.65 49.85 30.15 Z"/>
</g>

<g id="icon_r_box_02_33_Layer2_0_MEMBER_0_MEMBER_7_MEMBER_0_FILL">
<path fill="#76A4D2" stroke="none" d="
M 18.7 45.05
Q 18.7 44.2 18.1 43.55 17.45 42.95 16.6 42.95
L 15.65 42.95
Q 14.8 42.95 14.15 43.55 13.55 44.2 13.55 45.05
L 13.55 51.05 18.7 51.05 18.7 45.05 Z"/>
</g>

<g id="icon_r_box_02_33_Layer2_0_MEMBER_0_MEMBER_7_MEMBER_1_FILL">
<path fill="#76A4D2" stroke="none" d="
M 58.15 45.05
Q 58.15 44.2 57.55 43.55 56.95 42.95 56.1 42.95
L 55.1 42.95
Q 54.25 42.95 53.6 43.55 53 44.2 53 45.05
L 53 51.05 58.15 51.05 58.15 45.05 Z"/>
</g>

<g id="icon_r_box_02_33_Layer2_0_MEMBER_0_MEMBER_8_MEMBER_0_MEMBER_0_FILL">
<path fill="#935450" stroke="none" d="
M 35.85 39.8
Q 33.55 39.8 31.95 41.4 30.35 43 30.35 45.3
L 30.35 57.15 35.85 57.15 35.85 39.8 Z"/>
</g>

<g id="icon_r_box_02_33_Layer2_0_MEMBER_0_MEMBER_8_MEMBER_1_MEMBER_0_FILL">
<path fill="#935450" stroke="none" d="
M 39.8 41.4
Q 38.2 39.8 35.85 39.8
L 35.85 57.15 41.4 57.15 41.4 45.3
Q 41.4 43 39.8 41.4 Z"/>
</g>

<g id="icon_r_box_02_33_Layer2_0_MEMBER_0_MEMBER_9_MEMBER_0_FILL">
<path fill="#76A4D2" stroke="none" d="
M 39.6 30.15
Q 39.6 28.6 38.5 27.5 37.45 26.4 35.9 26.4 34.35 26.4 33.25 27.5 32.15 28.6 32.15 30.15 32.15 31.75 33.25 32.8 34.35 33.9 35.9 33.9 37.45 33.9 38.5 32.8 39.6 31.7 39.6 30.15 Z"/>
</g>

<path id="icon_r_box_02_33_Layer2_0_MEMBER_0_MEMBER_0_MEMBER_0_MEMBER_0_1_STROKES" stroke="#000000" stroke-width="1" stroke-linejoin="round" stroke-linecap="round" fill="none" d="
M 35.85 0.5
L 35.85 14.2"/>

<path id="icon_r_box_02_33_Layer2_0_MEMBER_0_MEMBER_0_MEMBER_1_MEMBER_0_1_STROKES" stroke="#000000" stroke-width="1" stroke-linejoin="round" stroke-linecap="round" fill="none" d="
M 39.6 4.3
L 32.15 4.3"/>

<path id="icon_r_box_02_33_Layer2_0_MEMBER_0_MEMBER_1_1_STROKES" stroke="#000000" stroke-width="1" stroke-linejoin="round" stroke-linecap="round" fill="none" d="
M 64.5 40.4
L 35.9 27.5 7.25 40.4 7.25 57.15 64.5 57.15 64.5 40.4 Z"/>

<path id="icon_r_box_02_33_Layer2_0_MEMBER_0_MEMBER_3_MEMBER_1_1_STROKES" stroke="#000000" stroke-width="1" stroke-linejoin="round" stroke-linecap="butt" fill="none" d="
M 4.7 42.95
L 3.65 40.7 35.35 26.35
Q 35.9 26.15 36.4 26.35
L 68.1 40.7 67.05 42.95 35.9 28.85 4.7 42.95 Z"/>

<path id="icon_r_box_02_33_Layer2_0_MEMBER_0_MEMBER_4_MEMBER_0_1_STROKES" stroke="#000000" stroke-width="1" stroke-linejoin="round" stroke-linecap="round" fill="none" d="
M 0.5 57.15
L 71.25 57.15"/>

<path id="icon_r_box_02_33_Layer2_0_MEMBER_0_MEMBER_5_1_STROKES" stroke="#000000" stroke-width="1" stroke-linejoin="round" stroke-linecap="round" fill="none" d="
M 47.45 24.8
L 35.85 13.6 24.3 24.8 24.3 57.15 47.45 57.15 47.45 24.8 Z"/>

<path id="icon_r_box_02_33_Layer2_0_MEMBER_0_MEMBER_6_MEMBER_1_1_STROKES" stroke="#000000" stroke-width="1" stroke-linejoin="round" stroke-linecap="butt" fill="none" d="
M 21.9 30.15
L 18.85 27 34.35 12
Q 35 11.4 35.9 11.4 36.75 11.4 37.4 12
L 52.9 27 49.85 30.15 35.9 16.65 21.9 30.15 Z"/>

<path id="icon_r_box_02_33_Layer2_0_MEMBER_0_MEMBER_7_MEMBER_0_1_STROKES" stroke="#000000" stroke-width="1" stroke-linejoin="round" stroke-linecap="round" fill="none" d="
M 18.7 51.05
L 13.55 51.05 13.55 45.05
Q 13.55 44.2 14.15 43.55 14.8 42.95 15.65 42.95
L 16.6 42.95
Q 17.45 42.95 18.1 43.55 18.7 44.2 18.7 45.05
L 18.7 51.05 Z"/>

<path id="icon_r_box_02_33_Layer2_0_MEMBER_0_MEMBER_7_MEMBER_1_1_STROKES" stroke="#000000" stroke-width="1" stroke-linejoin="round" stroke-linecap="round" fill="none" d="
M 58.15 51.05
L 53 51.05 53 45.05
Q 53 44.2 53.6 43.55 54.25 42.95 55.1 42.95
L 56.1 42.95
Q 56.95 42.95 57.55 43.55 58.15 44.2 58.15 45.05
L 58.15 51.05 Z"/>

<path id="icon_r_box_02_33_Layer2_0_MEMBER_0_MEMBER_8_MEMBER_0_MEMBER_1_1_STROKES" stroke="#000000" stroke-width="1" stroke-linejoin="round" stroke-linecap="butt" fill="none" d="
M 35.85 39.8
L 35.85 57.15 30.35 57.15 30.35 45.3
Q 30.35 43 31.95 41.4 33.55 39.8 35.85 39.8 Z"/>

<path id="icon_r_box_02_33_Layer2_0_MEMBER_0_MEMBER_8_MEMBER_1_MEMBER_1_1_STROKES" stroke="#000000" stroke-width="1" stroke-linejoin="round" stroke-linecap="butt" fill="none" d="
M 41.4 45.3
L 41.4 57.15 35.85 57.15 35.85 39.8
Q 38.2 39.8 39.8 41.4 41.4 43 41.4 45.3 Z"/>

<path id="icon_r_box_02_33_Layer2_0_MEMBER_0_MEMBER_9_MEMBER_0_1_STROKES" stroke="#000000" stroke-width="1" stroke-linejoin="round" stroke-linecap="round" fill="none" d="
M 39.6 30.15
Q 39.6 31.7 38.5 32.8 37.45 33.9 35.9 33.9 34.35 33.9 33.25 32.8 32.15 31.75 32.15 30.15 32.15 28.6 33.25 27.5 34.35 26.4 35.9 26.4 37.45 26.4 38.5 27.5 39.6 28.6 39.6 30.15 Z"/>

<path id="icon_r_box_02_33_Layer2_0_MEMBER_0_MEMBER_9_MEMBER_1_MEMBER_0_1_STROKES" stroke="#000000" stroke-width="1" stroke-linejoin="round" stroke-linecap="round" fill="none" d="
M 35.9 26.55
L 35.9 33.75"/>

<path id="icon_r_box_02_33_Layer2_0_MEMBER_0_MEMBER_9_MEMBER_2_MEMBER_0_1_STROKES" stroke="#000000" stroke-width="1" stroke-linejoin="round" stroke-linecap="round" fill="none" d="
M 39.45 30.15
L 32.3 30.15"/>
</defs>

<g transform="matrix( 1, 0, 0, 0.999603271484375, 65,60) ">
<g transform="matrix( 1, 0, 0, 1, 0,0) ">
<use xlink:href="#icon_r_box_02_33_Layer3_0_FILL"/>
</g>

<g transform="matrix( 1, 0, 0, 1, -0.05,0.05) ">
<use xlink:href="#icon_r_box_02_33_Layer3_1_FILL"/>
</g>

<g transform="matrix( 1, 0, 0, 1, 0,-2.15) ">
<use xlink:href="#icon_r_box_02_33_Layer3_2_FILL"/>
</g>

<g transform="matrix( 1, 0, 0, 1, 0,0.05) ">
<use xlink:href="#icon_r_box_02_33_Layer3_3_FILL"/>
</g>

<g transform="matrix( 1, 0, 0, 1, -35.85,-46.05) ">
<use xlink:href="#icon_r_box_02_33_Layer2_0_MEMBER_0_MEMBER_0_MEMBER_0_MEMBER_0_1_STROKES"/>
</g>

<g transform="matrix( 1, 0, 0, 1, -35.85,-46.05) ">
<use xlink:href="#icon_r_box_02_33_Layer2_0_MEMBER_0_MEMBER_0_MEMBER_1_MEMBER_0_1_STROKES"/>
</g>

<g transform="matrix( 1, 0, 0, 1, -35.85,-46.05) ">
<use xlink:href="#icon_r_box_02_33_Layer2_0_MEMBER_0_MEMBER_1_FILL"/>

<use xlink:href="#icon_r_box_02_33_Layer2_0_MEMBER_0_MEMBER_1_1_STROKES"/>
</g>

<g transform="matrix( 1, 0, 0, 1, -35.85,-46.05) ">
<use xlink:href="#icon_r_box_02_33_Layer2_0_MEMBER_0_MEMBER_2_FILL"/>
</g>

<g transform="matrix( 1, 0, 0, 1, -35.85,-46.05) ">
<use xlink:href="#icon_r_box_02_33_Layer2_0_MEMBER_0_MEMBER_3_MEMBER_0_FILL"/>
</g>

<g transform="matrix( 1, 0, 0, 1, -35.85,-46.05) ">
<use xlink:href="#icon_r_box_02_33_Layer2_0_MEMBER_0_MEMBER_3_MEMBER_1_1_STROKES"/>
</g>

<g transform="matrix( 1, 0, 0, 1, -35.85,-46.05) ">
<use xlink:href="#icon_r_box_02_33_Layer2_0_MEMBER_0_MEMBER_4_MEMBER_0_1_STROKES"/>
</g>

<g transform="matrix( 1, 0, 0, 1, -35.85,-46.05) ">
<use xlink:href="#icon_r_box_02_33_Layer2_0_MEMBER_0_MEMBER_5_FILL"/>

<use xlink:href="#icon_r_box_02_33_Layer2_0_MEMBER_0_MEMBER_5_1_STROKES"/>
</g>

<g transform="matrix( 1, 0, 0, 1, -35.85,-46.05) ">
<use xlink:href="#icon_r_box_02_33_Layer2_0_MEMBER_0_MEMBER_6_MEMBER_0_FILL"/>
</g>

<g transform="matrix( 1, 0, 0, 1, -35.85,-46.05) ">
<use xlink:href="#icon_r_box_02_33_Layer2_0_MEMBER_0_MEMBER_6_MEMBER_1_1_STROKES"/>
</g>

<g transform="matrix( 1, 0, 0, 1, -35.85,-46.05) ">
<use xlink:href="#icon_r_box_02_33_Layer2_0_MEMBER_0_MEMBER_7_MEMBER_0_FILL"/>

<use xlink:href="#icon_r_box_02_33_Layer2_0_MEMBER_0_MEMBER_7_MEMBER_0_1_STROKES"/>
</g>

<g transform="matrix( 1, 0, 0, 1, -35.85,-46.05) ">
<use xlink:href="#icon_r_box_02_33_Layer2_0_MEMBER_0_MEMBER_7_MEMBER_1_FILL"/>

<use xlink:href="#icon_r_box_02_33_Layer2_0_MEMBER_0_MEMBER_7_MEMBER_1_1_STROKES"/>
</g>

<g transform="matrix( 1, 0, 0, 1, -35.85,-46.05) ">
<use xlink:href="#icon_r_box_02_33_Layer2_0_MEMBER_0_MEMBER_8_MEMBER_0_MEMBER_0_FILL"/>
</g>

<g transform="matrix( 1, 0, 0, 1, -35.85,-46.05) ">
<use xlink:href="#icon_r_box_02_33_Layer2_0_MEMBER_0_MEMBER_8_MEMBER_0_MEMBER_1_1_STROKES"/>
</g>

<g transform="matrix( 1, 0, 0, 1, -35.85,-46.05) ">
<use xlink:href="#icon_r_box_02_33_Layer2_0_MEMBER_0_MEMBER_8_MEMBER_1_MEMBER_0_FILL"/>
</g>

<g transform="matrix( 1, 0, 0, 1, -35.85,-46.05) ">
<use xlink:href="#icon_r_box_02_33_Layer2_0_MEMBER_0_MEMBER_8_MEMBER_1_MEMBER_1_1_STROKES"/>
</g>

<g transform="matrix( 1, 0, 0, 1, -35.85,-46.05) ">
<use xlink:href="#icon_r_box_02_33_Layer2_0_MEMBER_0_MEMBER_9_MEMBER_0_FILL"/>

<use xlink:href="#icon_r_box_02_33_Layer2_0_MEMBER_0_MEMBER_9_MEMBER_0_1_STROKES"/>
</g>

<g transform="matrix( 1, 0, 0, 1, -35.85,-46.05) ">
<use xlink:href="#icon_r_box_02_33_Layer2_0_MEMBER_0_MEMBER_9_MEMBER_1_MEMBER_0_1_STROKES"/>
</g>

<g transform="matrix( 1, 0, 0, 1, -35.85,-46.05) ">
<use xlink:href="#icon_r_box_02_33_Layer2_0_MEMBER_0_MEMBER_9_MEMBER_2_MEMBER_0_1_STROKES"/>
</g>
</g>
</svg>
