
<svg xmlns="http://www.w3.org/2000/svg" version="1.1" xmlns:xlink="http://www.w3.org/1999/xlink" preserveAspectRatio="none" x="0px" y="0px" width="130px" height="115px" viewBox="0 0 130 115">
<defs>
<g id="icon_r_box_02_79_Layer3_0_FILL">
<path fill="#FFFFFF" fill-opacity="0" stroke="none" d="
M 65 -55
L -65 -55 -65 25 65 25 65 -55 Z"/>
</g>

<g id="icon_r_box_02_79_Layer3_1_FILL">
<path fill="#FFFFFF" fill-opacity="0" stroke="none" d="
M 65.05 49.95
L 65.05 24.95 -64.95 24.95 -64.95 49.95 65.05 49.95 Z"/>
</g>

<g id="icon_r_box_02_79_Layer3_2_FILL">
<path fill="#FFFFFF" fill-opacity="0" stroke="none" d="
M 65 -52.85
L 65 -57.85 -65 -57.85 -65 -52.85 65 -52.85 Z"/>
</g>

<g id="icon_r_box_02_79_Layer3_3_FILL">
<path fill="#FFFFFF" fill-opacity="0" stroke="none" d="
M 65 54.95
L 65 49.95 -65 49.95 -65 54.95 65 54.95 Z"/>
</g>

<g id="icon_r_box_02_79_Layer2_0_MEMBER_0_FILL">
<path fill="#000000" stroke="none" d="
M 21.9 10.85
Q 23.9 8.85 36.45 0
L 8.8 0.1
Q 6 0.1 5.25 2.15 4.45 4.3 7.05 6.25 8.55 7.35 13.2 10.6 16.8 13.15 17.3 13.6 17.85 14.15 19.15 13.3 20 12.7 21.9 10.85 Z"/>
</g>

<g id="icon_r_box_02_79_Layer2_0_MEMBER_1_FILL">
<path fill="#000000" stroke="none" d="
M 36.45 29.15
Q 23.9 20.3 21.9 18.3 19.95 16.4 19.15 15.85 17.85 14.95 17.3 15.55 16.8 16 13.2 18.55 8.55 21.8 7.05 22.9 4.45 24.85 5.25 27 6 29.05 8.8 29.05
L 36.45 29.15 Z"/>
</g>

<g id="icon_r_box_02_79_Layer2_0_MEMBER_2_FILL">
<path fill="#000000" stroke="none" d="
M 26.5 7.45
L 26.5 21.4 50.05 21.4 38.8 14.95 50.05 7.45 26.5 7.45 Z"/>
</g>

<g id="icon_r_box_02_79_Layer2_0_MEMBER_3_FILL">
<path fill="#000000" stroke="none" d="
M 0 15.05
L 10.85 20.45 10.85 9.6 0 15.05 Z"/>
</g>
</defs>

<g transform="matrix( 1, 0, 0, 0.999603271484375, 65,60) ">
<g transform="matrix( 1, 0, 0, 1, 0,0) ">
<use xlink:href="#icon_r_box_02_79_Layer3_0_FILL"/>
</g>

<g transform="matrix( 1, 0, 0, 1, -0.05,0.05) ">
<use xlink:href="#icon_r_box_02_79_Layer3_1_FILL"/>
</g>

<g transform="matrix( 1, 0, 0, 1, 0,-2.15) ">
<use xlink:href="#icon_r_box_02_79_Layer3_2_FILL"/>
</g>

<g transform="matrix( 1, 0, 0, 1, 0,0.05) ">
<use xlink:href="#icon_r_box_02_79_Layer3_3_FILL"/>
</g>

<g transform="matrix( 1, 0, 0, 1, -25,-29.6) ">
<use xlink:href="#icon_r_box_02_79_Layer2_0_MEMBER_0_FILL"/>
</g>

<g transform="matrix( 1, 0, 0, 1, -25,-29.6) ">
<use xlink:href="#icon_r_box_02_79_Layer2_0_MEMBER_1_FILL"/>
</g>

<g transform="matrix( 1, 0, 0, 1, -25,-29.6) ">
<use xlink:href="#icon_r_box_02_79_Layer2_0_MEMBER_2_FILL"/>
</g>

<g transform="matrix( 1, 0, 0, 1, -25,-29.6) ">
<use xlink:href="#icon_r_box_02_79_Layer2_0_MEMBER_3_FILL"/>
</g>
</g>
</svg>
