
<svg xmlns="http://www.w3.org/2000/svg" version="1.1" xmlns:xlink="http://www.w3.org/1999/xlink" preserveAspectRatio="none" x="0px" y="0px" width="130px" height="115px" viewBox="0 0 130 115">
<defs>
<g id="icon_r_box_02_31_Layer3_0_FILL">
<path fill="#FFFFFF" fill-opacity="0" stroke="none" d="
M 65 -55
L -65 -55 -65 25 65 25 65 -55 Z"/>
</g>

<g id="icon_r_box_02_31_Layer3_1_FILL">
<path fill="#FFFFFF" fill-opacity="0" stroke="none" d="
M 65.05 49.95
L 65.05 24.95 -64.95 24.95 -64.95 49.95 65.05 49.95 Z"/>
</g>

<g id="icon_r_box_02_31_Layer3_2_FILL">
<path fill="#FFFFFF" fill-opacity="0" stroke="none" d="
M 65 -52.85
L 65 -57.85 -65 -57.85 -65 -52.85 65 -52.85 Z"/>
</g>

<g id="icon_r_box_02_31_Layer3_3_FILL">
<path fill="#FFFFFF" fill-opacity="0" stroke="none" d="
M 65 54.95
L 65 49.95 -65 49.95 -65 54.95 65 54.95 Z"/>
</g>

<g id="icon_r_box_02_31_Layer2_2_MEMBER_0_FILL">
<path fill="#F4CDA4" stroke="none" d="
M 12.4 48.05
L 12.4 19.65 7.85 19.65 7.85 48.05 12.4 48.05 Z"/>
</g>

<g id="icon_r_box_02_31_Layer2_2_MEMBER_1_FILL">
<path fill="#766251" stroke="none" d="
M 12.4 48.05
L 12.4 44.3 7.85 44.3 7.85 48.05 12.4 48.05 Z"/>
</g>

<g id="icon_r_box_02_31_Layer2_2_MEMBER_2_FILL">
<path fill="#FFE2C9" stroke="none" d="
M 12.35 23.9
L 12.35 22.1 7.9 22.1 7.9 23.9 12.35 23.9 Z"/>
</g>

<g id="icon_r_box_02_31_Layer2_2_MEMBER_3_FILL">
<path fill="#DFB48C" stroke="none" d="
M 12.35 27.5
L 12.35 25.7 7.9 25.7 7.9 27.5 12.35 27.5 Z"/>
</g>

<g id="icon_r_box_02_31_Layer2_2_MEMBER_4_FILL">
<path fill="#FFE2C9" stroke="none" d="
M 12.35 31.05
L 12.35 29.25 7.9 29.25 7.9 31.05 12.35 31.05 Z"/>
</g>

<g id="icon_r_box_02_31_Layer2_2_MEMBER_5_FILL">
<path fill="#DFB48C" stroke="none" d="
M 12.35 34.65
L 12.35 32.85 7.9 32.85 7.9 34.65 12.35 34.65 Z"/>
</g>

<g id="icon_r_box_02_31_Layer2_2_MEMBER_6_FILL">
<path fill="#FFE2C9" stroke="none" d="
M 12.35 38.25
L 12.35 36.45 7.9 36.45 7.9 38.25 12.35 38.25 Z"/>
</g>

<g id="icon_r_box_02_31_Layer2_2_MEMBER_7_FILL">
<path fill="#DFB48C" stroke="none" d="
M 12.35 41.85
L 12.35 40.05 7.9 40.05 7.9 41.85 12.35 41.85 Z"/>
</g>

<g id="icon_r_box_02_31_Layer2_3_MEMBER_0_FILL">
<path fill="#F4CDA4" stroke="none" d="
M 65.15 48.05
L 65.15 19.65 60.6 19.65 60.6 48.05 65.15 48.05 Z"/>
</g>

<g id="icon_r_box_02_31_Layer2_3_MEMBER_1_FILL">
<path fill="#766251" stroke="none" d="
M 65.15 48.05
L 65.15 44.3 60.6 44.3 60.6 48.05 65.15 48.05 Z"/>
</g>

<g id="icon_r_box_02_31_Layer2_3_MEMBER_2_FILL">
<path fill="#FFE2C9" stroke="none" d="
M 65.1 23.9
L 65.1 22.1 60.65 22.1 60.65 23.9 65.1 23.9 Z"/>
</g>

<g id="icon_r_box_02_31_Layer2_3_MEMBER_3_FILL">
<path fill="#DFB48C" stroke="none" d="
M 65.1 27.5
L 65.1 25.7 60.65 25.7 60.65 27.5 65.1 27.5 Z"/>
</g>

<g id="icon_r_box_02_31_Layer2_3_MEMBER_4_FILL">
<path fill="#FFE2C9" stroke="none" d="
M 65.1 31.05
L 65.1 29.25 60.65 29.25 60.65 31.05 65.1 31.05 Z"/>
</g>

<g id="icon_r_box_02_31_Layer2_3_MEMBER_5_FILL">
<path fill="#DFB48C" stroke="none" d="
M 65.1 34.65
L 65.1 32.85 60.65 32.85 60.65 34.65 65.1 34.65 Z"/>
</g>

<g id="icon_r_box_02_31_Layer2_3_MEMBER_6_FILL">
<path fill="#FFE2C9" stroke="none" d="
M 65.1 38.25
L 65.1 36.45 60.65 36.45 60.65 38.25 65.1 38.25 Z"/>
</g>

<g id="icon_r_box_02_31_Layer2_3_MEMBER_7_FILL">
<path fill="#DFB48C" stroke="none" d="
M 65.1 41.85
L 65.1 40.05 60.65 40.05 60.65 41.85 65.1 41.85 Z"/>
</g>

<g id="icon_r_box_02_31_Layer2_13_MEMBER_0_FILL">
<path fill="#017B50" stroke="none" d="
M 72.45 19.45
L 64.35 0.5 8.6 0.5 0.5 19.45 72.45 19.45 Z"/>
</g>

<g id="icon_r_box_02_31_Layer2_13_MEMBER_1_MEMBER_0_FILL">
<path fill="#016B44" stroke="none" d="
M 6.85 4.6
L 3.6 12.2 3.6 19.45 6.85 19.45 6.85 4.6 Z"/>
</g>

<g id="icon_r_box_02_31_Layer2_13_MEMBER_1_MEMBER_1_FILL">
<path fill="#016B44" stroke="none" d="
M 13.8 0.5
L 10.55 0.5 10.55 19.45 13.8 19.45 13.8 0.5 Z"/>
</g>

<g id="icon_r_box_02_31_Layer2_13_MEMBER_1_MEMBER_2_FILL">
<path fill="#016B44" stroke="none" d="
M 20.7 0.5
L 17.5 0.5 17.5 19.45 20.7 19.45 20.7 0.5 Z"/>
</g>

<g id="icon_r_box_02_31_Layer2_13_MEMBER_1_MEMBER_3_FILL">
<path fill="#016B44" stroke="none" d="
M 27.65 0.5
L 24.45 0.5 24.45 19.45 27.65 19.45 27.65 0.5 Z"/>
</g>

<g id="icon_r_box_02_31_Layer2_13_MEMBER_1_MEMBER_4_FILL">
<path fill="#016B44" stroke="none" d="
M 34.6 0.5
L 31.4 0.5 31.4 19.45 34.6 19.45 34.6 0.5 Z"/>
</g>

<g id="icon_r_box_02_31_Layer2_13_MEMBER_1_MEMBER_5_FILL">
<path fill="#016B44" stroke="none" d="
M 41.55 19.45
L 41.55 0.5 38.35 0.5 38.35 19.45 41.55 19.45 Z"/>
</g>

<g id="icon_r_box_02_31_Layer2_13_MEMBER_1_MEMBER_6_FILL">
<path fill="#016B44" stroke="none" d="
M 48.5 0.5
L 45.3 0.5 45.3 19.45 48.5 19.45 48.5 0.5 Z"/>
</g>

<g id="icon_r_box_02_31_Layer2_13_MEMBER_1_MEMBER_7_FILL">
<path fill="#016B44" stroke="none" d="
M 55.45 0.5
L 52.2 0.5 52.2 19.45 55.45 19.45 55.45 0.5 Z"/>
</g>

<g id="icon_r_box_02_31_Layer2_13_MEMBER_1_MEMBER_8_FILL">
<path fill="#016B44" stroke="none" d="
M 62.4 0.5
L 59.15 0.5 59.15 19.45 62.4 19.45 62.4 0.5 Z"/>
</g>

<g id="icon_r_box_02_31_Layer2_13_MEMBER_1_MEMBER_9_FILL">
<path fill="#016B44" stroke="none" d="
M 69.35 12.2
L 66.1 4.6 66.1 19.45 69.35 19.45 69.35 12.2 Z"/>
</g>

<g id="icon_r_box_02_31_Layer2_14_FILL">
<path fill="#FFFFFF" stroke="none" d="
M 51.05 17.05
Q 54 17.05 56.1 15 58.15 12.95 58.15 10 58.15 7.05 56.1 5 54 2.9 51.05 2.9
L 21.9 2.9
Q 18.95 2.9 16.85 5 14.8 7.05 14.8 10 14.8 12.95 16.85 15 18.95 17.05 21.9 17.05
L 51.05 17.05 Z"/>
</g>

<g id="icon_r_box_02_31_Layer2_15_MEMBER_0_FILL">
<path fill="#CBCAC9" stroke="none" d="
M 21.25 10
Q 21.25 9.35 20.75 8.85 20.3 8.4 19.65 8.4 19 8.4 18.5 8.85 18.05 9.35 18.05 10 18.05 10.65 18.5 11.1 19 11.6 19.65 11.6 20.3 11.6 20.75 11.1 21.25 10.65 21.25 10 Z"/>
</g>

<g id="icon_r_box_02_31_Layer2_15_MEMBER_1_FILL">
<path fill="#CBCAC9" stroke="none" d="
M 54.9 10
Q 54.9 9.35 54.45 8.85 54 8.4 53.3 8.4 52.65 8.4 52.2 8.85 51.7 9.35 51.7 10 51.7 10.65 52.2 11.1 52.65 11.6 53.3 11.6 53.95 11.6 54.45 11.1 54.9 10.65 54.9 10 Z"/>
</g>

<g id="icon_r_box_02_31_Layer1_0_FILL">
<path fill="#000000" stroke="none" d="
M 5 -26.55
Q 3.65 -26.55 2.8 -25.95 2.4 -25.65 2.2 -25.25 2 -24.8 2 -24.3 2 -23.75 2.2 -23.35 2.4 -22.9 2.8 -22.65 3.65 -22 5 -22 6.45 -22 7.3 -22.65 7.7 -22.9 7.9 -23.35 8.1 -23.75 8.1 -24.3 8.1 -25.35 7.3 -25.95 6.45 -26.55 5 -26.55
M 4.4 -25.25
Q 4.65 -25.3 5.05 -25.3 5.4 -25.3 5.75 -25.25 6.05 -25.15 6.25 -25.05 6.45 -24.9 6.6 -24.7 6.7 -24.5 6.7 -24.3 6.7 -24.05 6.6 -23.85 6.45 -23.7 6.25 -23.55 6.05 -23.4 5.75 -23.35 5.4 -23.25 5.05 -23.25 4.65 -23.25 4.4 -23.35 4.1 -23.4 3.85 -23.55 3.65 -23.7 3.55 -23.85 3.4 -24.05 3.4 -24.3 3.4 -24.5 3.55 -24.7 3.65 -24.9 3.85 -25.05 4.1 -25.15 4.4 -25.25
M 6.85 -31.8
Q 6.8 -31.8 6.75 -31.75 6.7 -31.6 6.7 -31.5
L 6.7 -27.2
Q 6.7 -27.1 6.7 -27.05 6.7 -26.95 6.75 -26.9 6.8 -26.85 6.85 -26.8 6.9 -26.8 6.95 -26.75 7 -26.75 7.05 -26.7 7.1 -26.7 7.15 -26.7 7.2 -26.65 7.3 -26.65 7.35 -26.65 7.45 -26.65 7.5 -26.65 7.55 -26.65 7.6 -26.65 7.65 -26.7 7.7 -26.7 7.75 -26.7 7.85 -26.75 7.9 -26.75 7.95 -26.8 8 -26.8 8 -26.85 8.05 -26.9 8.05 -26.95 8.1 -27.05 8.1 -27.1 8.1 -27.2
L 8.1 -28.7 9.05 -28.7
Q 9.4 -28.7 9.5 -28.9 9.55 -28.95 9.55 -29.05 9.55 -29.2 9.55 -29.3 9.55 -29.45 9.55 -29.55 9.55 -29.65 9.5 -29.75 9.45 -29.85 9.35 -29.9 9.25 -29.95 9.05 -29.95
L 8.1 -29.95 8.1 -31.5
Q 8.1 -31.8 7.9 -31.9 7.7 -32 7.45 -32 7.4 -32 7.3 -31.95 7.25 -31.95 7.2 -31.95 7.15 -31.95 7.05 -31.95 7 -31.9 6.95 -31.9 6.9 -31.85 6.85 -31.8
M 5.4 -30.95
Q 5.4 -31.05 5.35 -31.2 5.35 -31.3 5.3 -31.4 5.25 -31.5 5.15 -31.55 5.05 -31.55 4.9 -31.55
L 1.4 -31.55
Q 1.2 -31.55 1.1 -31.55 1 -31.5 1 -31.4 0.9 -31.3 0.9 -31.2 0.85 -31.05 0.85 -30.95 0.85 -30.8 0.9 -30.7 0.9 -30.6 1 -30.5 1 -30.4 1.1 -30.35 1.2 -30.3 1.4 -30.3
L 2.4 -30.3 2.4 -30.25
Q 2.4 -29.95 2.3 -29.7 2.25 -29.4 2.05 -29.1 1.85 -28.85 1.6 -28.55 1.35 -28.25 1 -28 0.9 -27.9 0.85 -27.8 0.8 -27.7 0.75 -27.6 0.7 -27.5 0.75 -27.4 0.8 -27.3 0.9 -27.15 1.1 -26.9 1.35 -26.85 1.6 -26.75 1.8 -26.95 1.85 -27.05 2 -27.15 2.05 -27.25 2.15 -27.35 2.25 -27.4 2.35 -27.5 2.45 -27.6 2.55 -27.65 2.6 -27.75 2.7 -27.85 2.75 -27.95 2.85 -28.05 2.95 -28.15 3 -28.25 3.1 -28.35 3.2 -28.5 3.25 -28.4 3.35 -28.3 3.4 -28.15 3.5 -28.1 3.55 -28 3.65 -27.9 3.7 -27.8 3.8 -27.7 3.9 -27.65 4 -27.55 4.1 -27.45 4.2 -27.35 4.3 -27.3 4.4 -27.2 4.5 -27.1 4.65 -27 4.75 -26.95 4.85 -26.95 4.95 -26.95 5.05 -27 5.15 -27.05 5.25 -27.1 5.3 -27.2 5.4 -27.3 5.45 -27.4 5.5 -27.5 5.5 -27.65 5.5 -27.75 5.5 -27.85 5.45 -27.95 5.35 -28.05 5.25 -28.15 4.9 -28.4 4.65 -28.65 4.4 -28.95 4.25 -29.2 4.1 -29.45 4 -29.7 3.9 -29.95 3.9 -30.2
L 3.9 -30.3 4.9 -30.3
Q 5.05 -30.3 5.15 -30.35 5.25 -30.4 5.3 -30.5 5.35 -30.6 5.35 -30.7 5.4 -30.8 5.4 -30.95
M -6.35 -31.4
Q -6.5 -31.4 -6.65 -31.4 -6.75 -31.35 -6.9 -31.3 -7 -31.2 -7.05 -31.1 -7.1 -31.05 -7.1 -30.9
L -7.1 -29.65
Q -7.1 -29.4 -7.15 -29.15 -7.15 -28.9 -7.25 -28.65 -7.3 -28.45 -7.4 -28.2 -7.5 -27.95 -7.65 -27.75 -7.75 -27.55 -7.9 -27.3 -8.1 -27.1 -8.25 -26.9 -8.45 -26.7 -8.65 -26.5 -8.85 -26.3 -9.05 -26.15 -9.1 -26.1 -9.15 -26.05 -9.2 -26 -9.2 -25.95 -9.2 -25.9 -9.25 -25.9 -9.25 -25.85 -9.25 -25.8 -9.25 -25.75 -9.2 -25.7 -9.2 -25.65 -9.15 -25.6 -9.15 -25.55 -9.1 -25.5 -9.05 -25.45 -9 -25.4 -9 -25.35 -8.95 -25.3 -8.9 -25.25 -8.85 -25.25 -8.8 -25.2 -8.75 -25.2 -8.65 -25.15 -8.6 -25.15 -8.55 -25.15 -8.5 -25.1 -8.45 -25.1 -8.35 -25.15 -8.25 -25.15 -8.15 -25.25 -7.55 -25.65 -7.1 -26.2 -6.9 -26.45 -6.7 -26.75 -6.5 -27.05 -6.35 -27.35 -6.2 -27.05 -6 -26.8 -5.8 -26.5 -5.6 -26.3 -5.4 -26 -5.1 -25.8 -4.85 -25.55 -4.6 -25.35 -4.5 -25.25 -4.4 -25.25 -4.25 -25.2 -4.15 -25.25 -3.9 -25.25 -3.7 -25.45 -3.65 -25.55 -3.6 -25.65 -3.55 -25.8 -3.55 -25.9 -3.55 -26 -3.6 -26.1 -3.65 -26.25 -3.8 -26.35 -4.25 -26.65 -4.55 -27.05 -4.9 -27.4 -5.15 -27.85 -5.45 -28.25 -5.55 -28.7 -5.65 -29.15 -5.6 -29.65
L -5.6 -30.9
Q -5.6 -31.05 -5.7 -31.1 -5.75 -31.2 -5.8 -31.3 -5.95 -31.35 -6.05 -31.4 -6.2 -31.4 -6.35 -31.4
M -1.3 -31.85
Q -1.35 -31.9 -1.4 -31.9 -1.45 -31.9 -1.55 -31.95 -1.6 -31.95 -1.65 -31.95 -1.7 -31.95 -1.8 -31.95 -1.9 -31.95 -2.05 -31.9 -2.15 -31.9 -2.25 -31.85 -2.5 -31.75 -2.5 -31.45
L -2.5 -22.5
Q -2.5 -22.45 -2.45 -22.35 -2.45 -22.3 -2.45 -22.25 -2.4 -22.2 -2.35 -22.15
L -2.3 -22.1
Q -2.25 -22.1 -2.2 -22.05 -2.1 -22.05 -2.05 -22.05 -2 -22.05 -1.95 -22.05 -1.85 -22 -1.8 -22 -1.7 -22 -1.65 -22.05 -1.6 -22.05 -1.55 -22.05 -1.45 -22.05 -1.4 -22.05 -1.35 -22.1 -1.3 -22.1 -1.25 -22.15 -1.2 -22.15 -1.15 -22.2 -1.15 -22.25 -1.1 -22.3 -1.1 -22.35 -1.05 -22.45 -1.05 -22.5
L -1.05 -31.45
Q -1.05 -31.55 -1.1 -31.6 -1.1 -31.65 -1.15 -31.7 -1.15 -31.75 -1.2 -31.8 -1.25 -31.85 -1.3 -31.85 Z"/>
</g>

<path id="icon_r_box_02_31_Layer2_0_1_STROKES" stroke="#000000" stroke-width="1" stroke-linejoin="round" stroke-linecap="round" fill="none" d="
M 12.35 31.525
Q 12.46015625 27.353125 19.4 24.4 26.5 21.4 36.45 21.4 46.45 21.4 53.55 24.4 60.48984375 27.353125 60.6 31.525
L 60.6 15.65 12.35 15.65 12.35 31.525 Z"/>

<path id="icon_r_box_02_31_Layer2_1_MEMBER_0_1_STROKES" stroke="#000000" stroke-width="1" stroke-linejoin="round" stroke-linecap="round" fill="none" d="
M 1.65 48.05
L 71.3 48.05"/>

<path id="icon_r_box_02_31_Layer2_2_MEMBER_0_1_STROKES" stroke="#000000" stroke-width="1" stroke-linejoin="round" stroke-linecap="round" fill="none" d="
M 12.4 48.05
L 7.85 48.05 7.85 19.65 12.4 19.65 12.4 48.05 Z"/>

<path id="icon_r_box_02_31_Layer2_2_MEMBER_1_1_STROKES" stroke="#000000" stroke-width="1" stroke-linejoin="round" stroke-linecap="round" fill="none" d="
M 12.4 48.05
L 7.85 48.05 7.85 44.3 12.4 44.3 12.4 48.05 Z"/>

<path id="icon_r_box_02_31_Layer2_2_MEMBER_8_1_STROKES" stroke="#000000" stroke-width="1" stroke-linejoin="round" stroke-linecap="round" fill="none" d="
M 12.4 48.05
L 7.85 48.05 7.85 19.65 12.4 19.65 12.4 48.05 Z"/>

<path id="icon_r_box_02_31_Layer2_3_MEMBER_0_1_STROKES" stroke="#000000" stroke-width="1" stroke-linejoin="round" stroke-linecap="round" fill="none" d="
M 65.15 48.05
L 60.6 48.05 60.6 19.65 65.15 19.65 65.15 48.05 Z"/>

<path id="icon_r_box_02_31_Layer2_3_MEMBER_1_1_STROKES" stroke="#000000" stroke-width="1" stroke-linejoin="round" stroke-linecap="round" fill="none" d="
M 65.15 48.05
L 60.6 48.05 60.6 44.3 65.15 44.3 65.15 48.05 Z"/>

<path id="icon_r_box_02_31_Layer2_3_MEMBER_8_1_STROKES" stroke="#000000" stroke-width="1" stroke-linejoin="round" stroke-linecap="round" fill="none" d="
M 65.15 48.05
L 60.6 48.05 60.6 19.65 65.15 19.65 65.15 48.05 Z"/>

<path id="icon_r_box_02_31_Layer2_4_1_STROKES" stroke="#000000" stroke-width="1" stroke-linejoin="round" stroke-linecap="round" fill="none" d="
M 16.9 25.65
L 16.9 16.8"/>

<path id="icon_r_box_02_31_Layer2_5_1_STROKES" stroke="#000000" stroke-width="1" stroke-linejoin="round" stroke-linecap="round" fill="none" d="
M 21.4 23.65
L 21.4 17.35"/>

<path id="icon_r_box_02_31_Layer2_6_1_STROKES" stroke="#000000" stroke-width="1" stroke-linejoin="round" stroke-linecap="round" fill="none" d="
M 26.2 22.4
L 26.2 17.9"/>

<path id="icon_r_box_02_31_Layer2_7_1_STROKES" stroke="#000000" stroke-width="1" stroke-linejoin="round" stroke-linecap="round" fill="none" d="
M 31.15 18.45
L 31.15 21.65"/>

<path id="icon_r_box_02_31_Layer2_8_1_STROKES" stroke="#000000" stroke-width="1" stroke-linejoin="round" stroke-linecap="round" fill="none" d="
M 36.45 21.4
L 36.45 18.45"/>

<path id="icon_r_box_02_31_Layer2_9_1_STROKES" stroke="#000000" stroke-width="1" stroke-linejoin="round" stroke-linecap="round" fill="none" d="
M 56.05 25.65
L 56.05 16.8"/>

<path id="icon_r_box_02_31_Layer2_10_1_STROKES" stroke="#000000" stroke-width="1" stroke-linejoin="round" stroke-linecap="round" fill="none" d="
M 51.55 23.65
L 51.55 17.3"/>

<path id="icon_r_box_02_31_Layer2_11_1_STROKES" stroke="#000000" stroke-width="1" stroke-linejoin="round" stroke-linecap="round" fill="none" d="
M 46.75 22.4
L 46.75 17.9"/>

<path id="icon_r_box_02_31_Layer2_12_1_STROKES" stroke="#000000" stroke-width="1" stroke-linejoin="round" stroke-linecap="round" fill="none" d="
M 41.8 18.45
L 41.8 21.65"/>

<path id="icon_r_box_02_31_Layer2_13_MEMBER_0_1_STROKES" stroke="#000000" stroke-width="1" stroke-linejoin="round" stroke-linecap="round" fill="none" d="
M 72.45 19.45
L 0.5 19.45 8.6 0.5 64.35 0.5 72.45 19.45 Z"/>

<path id="icon_r_box_02_31_Layer2_13_MEMBER_2_1_STROKES" stroke="#000000" stroke-width="1" stroke-linejoin="round" stroke-linecap="round" fill="none" d="
M 72.45 19.45
L 0.5 19.45 8.6 0.5 64.35 0.5 72.45 19.45 Z"/>

<path id="icon_r_box_02_31_Layer2_14_1_STROKES" stroke="#000000" stroke-width="1" stroke-linejoin="round" stroke-linecap="round" fill="none" d="
M 51.05 17.05
L 21.9 17.05
Q 18.95 17.05 16.85 15 14.8 12.95 14.8 10 14.8 7.05 16.85 5 18.95 2.9 21.9 2.9
L 51.05 2.9
Q 54 2.9 56.1 5 58.15 7.05 58.15 10 58.15 12.95 56.1 15 54 17.05 51.05 17.05 Z"/>
</defs>

<g transform="matrix( 1, 0, 0, 0.999603271484375, 65,60) ">
<g transform="matrix( 1, 0, 0, 1, 0,0) ">
<use xlink:href="#icon_r_box_02_31_Layer3_0_FILL"/>
</g>

<g transform="matrix( 1, 0, 0, 1, -0.05,0.05) ">
<use xlink:href="#icon_r_box_02_31_Layer3_1_FILL"/>
</g>

<g transform="matrix( 1, 0, 0, 1, 0,-2.15) ">
<use xlink:href="#icon_r_box_02_31_Layer3_2_FILL"/>
</g>

<g transform="matrix( 1, 0, 0, 1, 0,0.05) ">
<use xlink:href="#icon_r_box_02_31_Layer3_3_FILL"/>
</g>

<g transform="matrix( 1, 0, 0, 1, -36.45,-37.5) ">
<use xlink:href="#icon_r_box_02_31_Layer2_0_1_STROKES"/>
</g>

<g transform="matrix( 1, 0, 0, 1, -36.45,-37.5) ">
<use xlink:href="#icon_r_box_02_31_Layer2_1_MEMBER_0_1_STROKES"/>
</g>

<g transform="matrix( 1, 0, 0, 1, -36.45,-37.5) ">
<use xlink:href="#icon_r_box_02_31_Layer2_2_MEMBER_0_FILL"/>

<use xlink:href="#icon_r_box_02_31_Layer2_2_MEMBER_0_1_STROKES"/>
</g>

<g transform="matrix( 1, 0, 0, 1, -36.45,-37.5) ">
<use xlink:href="#icon_r_box_02_31_Layer2_2_MEMBER_1_FILL"/>

<use xlink:href="#icon_r_box_02_31_Layer2_2_MEMBER_1_1_STROKES"/>
</g>

<g transform="matrix( 1, 0, 0, 1, -36.45,-37.5) ">
<use xlink:href="#icon_r_box_02_31_Layer2_2_MEMBER_2_FILL"/>
</g>

<g transform="matrix( 1, 0, 0, 1, -36.45,-37.5) ">
<use xlink:href="#icon_r_box_02_31_Layer2_2_MEMBER_3_FILL"/>
</g>

<g transform="matrix( 1, 0, 0, 1, -36.45,-37.5) ">
<use xlink:href="#icon_r_box_02_31_Layer2_2_MEMBER_4_FILL"/>
</g>

<g transform="matrix( 1, 0, 0, 1, -36.45,-37.5) ">
<use xlink:href="#icon_r_box_02_31_Layer2_2_MEMBER_5_FILL"/>
</g>

<g transform="matrix( 1, 0, 0, 1, -36.45,-37.5) ">
<use xlink:href="#icon_r_box_02_31_Layer2_2_MEMBER_6_FILL"/>
</g>

<g transform="matrix( 1, 0, 0, 1, -36.45,-37.5) ">
<use xlink:href="#icon_r_box_02_31_Layer2_2_MEMBER_7_FILL"/>
</g>

<g transform="matrix( 1, 0, 0, 1, -36.45,-37.5) ">
<use xlink:href="#icon_r_box_02_31_Layer2_2_MEMBER_8_1_STROKES"/>
</g>

<g transform="matrix( 1, 0, 0, 1, -36.45,-37.5) ">
<use xlink:href="#icon_r_box_02_31_Layer2_3_MEMBER_0_FILL"/>

<use xlink:href="#icon_r_box_02_31_Layer2_3_MEMBER_0_1_STROKES"/>
</g>

<g transform="matrix( 1, 0, 0, 1, -36.45,-37.5) ">
<use xlink:href="#icon_r_box_02_31_Layer2_3_MEMBER_1_FILL"/>

<use xlink:href="#icon_r_box_02_31_Layer2_3_MEMBER_1_1_STROKES"/>
</g>

<g transform="matrix( 1, 0, 0, 1, -36.45,-37.5) ">
<use xlink:href="#icon_r_box_02_31_Layer2_3_MEMBER_2_FILL"/>
</g>

<g transform="matrix( 1, 0, 0, 1, -36.45,-37.5) ">
<use xlink:href="#icon_r_box_02_31_Layer2_3_MEMBER_3_FILL"/>
</g>

<g transform="matrix( 1, 0, 0, 1, -36.45,-37.5) ">
<use xlink:href="#icon_r_box_02_31_Layer2_3_MEMBER_4_FILL"/>
</g>

<g transform="matrix( 1, 0, 0, 1, -36.45,-37.5) ">
<use xlink:href="#icon_r_box_02_31_Layer2_3_MEMBER_5_FILL"/>
</g>

<g transform="matrix( 1, 0, 0, 1, -36.45,-37.5) ">
<use xlink:href="#icon_r_box_02_31_Layer2_3_MEMBER_6_FILL"/>
</g>

<g transform="matrix( 1, 0, 0, 1, -36.45,-37.5) ">
<use xlink:href="#icon_r_box_02_31_Layer2_3_MEMBER_7_FILL"/>
</g>

<g transform="matrix( 1, 0, 0, 1, -36.45,-37.5) ">
<use xlink:href="#icon_r_box_02_31_Layer2_3_MEMBER_8_1_STROKES"/>
</g>

<g transform="matrix( 1, 0, 0, 1, -36.45,-37.5) ">
<use xlink:href="#icon_r_box_02_31_Layer2_4_1_STROKES"/>
</g>

<g transform="matrix( 1, 0, 0, 1, -36.45,-37.5) ">
<use xlink:href="#icon_r_box_02_31_Layer2_5_1_STROKES"/>
</g>

<g transform="matrix( 1, 0, 0, 1, -36.45,-37.5) ">
<use xlink:href="#icon_r_box_02_31_Layer2_6_1_STROKES"/>
</g>

<g transform="matrix( 1, 0, 0, 1, -36.45,-37.5) ">
<use xlink:href="#icon_r_box_02_31_Layer2_7_1_STROKES"/>
</g>

<g transform="matrix( 1, 0, 0, 1, -36.45,-37.5) ">
<use xlink:href="#icon_r_box_02_31_Layer2_8_1_STROKES"/>
</g>

<g transform="matrix( 1, 0, 0, 1, -36.45,-37.5) ">
<use xlink:href="#icon_r_box_02_31_Layer2_9_1_STROKES"/>
</g>

<g transform="matrix( 1, 0, 0, 1, -36.45,-37.5) ">
<use xlink:href="#icon_r_box_02_31_Layer2_10_1_STROKES"/>
</g>

<g transform="matrix( 1, 0, 0, 1, -36.45,-37.5) ">
<use xlink:href="#icon_r_box_02_31_Layer2_11_1_STROKES"/>
</g>

<g transform="matrix( 1, 0, 0, 1, -36.45,-37.5) ">
<use xlink:href="#icon_r_box_02_31_Layer2_12_1_STROKES"/>
</g>

<g transform="matrix( 1, 0, 0, 1, -36.45,-37.5) ">
<use xlink:href="#icon_r_box_02_31_Layer2_13_MEMBER_0_FILL"/>

<use xlink:href="#icon_r_box_02_31_Layer2_13_MEMBER_0_1_STROKES"/>
</g>

<g transform="matrix( 1, 0, 0, 1, -36.45,-37.5) ">
<use xlink:href="#icon_r_box_02_31_Layer2_13_MEMBER_1_MEMBER_0_FILL"/>
</g>

<g transform="matrix( 1, 0, 0, 1, -36.45,-37.5) ">
<use xlink:href="#icon_r_box_02_31_Layer2_13_MEMBER_1_MEMBER_1_FILL"/>
</g>

<g transform="matrix( 1, 0, 0, 1, -36.45,-37.5) ">
<use xlink:href="#icon_r_box_02_31_Layer2_13_MEMBER_1_MEMBER_2_FILL"/>
</g>

<g transform="matrix( 1, 0, 0, 1, -36.45,-37.5) ">
<use xlink:href="#icon_r_box_02_31_Layer2_13_MEMBER_1_MEMBER_3_FILL"/>
</g>

<g transform="matrix( 1, 0, 0, 1, -36.45,-37.5) ">
<use xlink:href="#icon_r_box_02_31_Layer2_13_MEMBER_1_MEMBER_4_FILL"/>
</g>

<g transform="matrix( 1, 0, 0, 1, -36.45,-37.5) ">
<use xlink:href="#icon_r_box_02_31_Layer2_13_MEMBER_1_MEMBER_5_FILL"/>
</g>

<g transform="matrix( 1, 0, 0, 1, -36.45,-37.5) ">
<use xlink:href="#icon_r_box_02_31_Layer2_13_MEMBER_1_MEMBER_6_FILL"/>
</g>

<g transform="matrix( 1, 0, 0, 1, -36.45,-37.5) ">
<use xlink:href="#icon_r_box_02_31_Layer2_13_MEMBER_1_MEMBER_7_FILL"/>
</g>

<g transform="matrix( 1, 0, 0, 1, -36.45,-37.5) ">
<use xlink:href="#icon_r_box_02_31_Layer2_13_MEMBER_1_MEMBER_8_FILL"/>
</g>

<g transform="matrix( 1, 0, 0, 1, -36.45,-37.5) ">
<use xlink:href="#icon_r_box_02_31_Layer2_13_MEMBER_1_MEMBER_9_FILL"/>
</g>

<g transform="matrix( 1, 0, 0, 1, -36.45,-37.5) ">
<use xlink:href="#icon_r_box_02_31_Layer2_13_MEMBER_2_1_STROKES"/>
</g>

<g transform="matrix( 1, 0, 0, 1, -36.45,-37.5) ">
<use xlink:href="#icon_r_box_02_31_Layer2_14_FILL"/>

<use xlink:href="#icon_r_box_02_31_Layer2_14_1_STROKES"/>
</g>

<g transform="matrix( 1, 0, 0, 1, -36.45,-37.5) ">
<use xlink:href="#icon_r_box_02_31_Layer2_15_MEMBER_0_FILL"/>
</g>

<g transform="matrix( 1, 0, 0, 1, -36.45,-37.5) ">
<use xlink:href="#icon_r_box_02_31_Layer2_15_MEMBER_1_FILL"/>
</g>

<g transform="matrix( 1, 0, 0, 1, 0,0) ">
<use xlink:href="#icon_r_box_02_31_Layer1_0_FILL"/>
</g>
</g>
</svg>
