
<svg xmlns="http://www.w3.org/2000/svg" version="1.1" xmlns:xlink="http://www.w3.org/1999/xlink" preserveAspectRatio="none" x="0px" y="0px" width="130px" height="115px" viewBox="0 0 130 115">
<defs>
<filter id="Filter_1" x="-29.919661895028476%" y="-20.713452965323874%" width="159.83932379005694%" height="141.42690593064776%" color-interpolation-filters="sRGB">
<feFlood flood-color="#000000" flood-opacity="1" in="SourceGraphic" result="result1"/>

<feGaussianBlur in="SourceGraphic" stdDeviation="1.6666666666666667,1.6666666666666667" result="result2"/>

<feComposite in2="result2" in="result1" operator="in" result="result3"/>

<feComposite in2="result3" in="SourceGraphic" operator="over" result="result4"/>
</filter>

<g id="icon_r_box_02_20_Layer3_0_FILL">
<path fill="#FFFFFF" fill-opacity="0" stroke="none" d="
M 65 -55
L -65 -55 -65 25 65 25 65 -55 Z"/>
</g>

<g id="icon_r_box_02_20_Layer3_1_FILL">
<path fill="#FFFFFF" fill-opacity="0" stroke="none" d="
M 65.05 49.95
L 65.05 24.95 -64.95 24.95 -64.95 49.95 65.05 49.95 Z"/>
</g>

<g id="icon_r_box_02_20_Layer3_2_FILL">
<path fill="#FFFFFF" fill-opacity="0" stroke="none" d="
M 65 -52.85
L 65 -57.85 -65 -57.85 -65 -52.85 65 -52.85 Z"/>
</g>

<g id="icon_r_box_02_20_Layer3_3_FILL">
<path fill="#FFFFFF" fill-opacity="0" stroke="none" d="
M 65 54.95
L 65 49.95 -65 49.95 -65 54.95 65 54.95 Z"/>
</g>

<g id="Duplicate_Items_Folder_____0_Layer1_0_FILL">
<path fill="#FFFFFF" stroke="none" d="
M 6.9 -54.3
Q 2.75 -53.85 0.65 -52.2 -1.6 -52.2 -3.05 -51.4 -4.6 -50.65 -5.75 -49.1 -6.31328125 -48.3791015625 -6.7 -47.4 -10.1744140625 -40.4669921875 -11.8 -32.85 -14.9634765625 -18.1908203125 -6.75 -13.25
L -9.2 -7.2
Q -9.75 -5.9 -9.55 -4.65 -9.3 -3.25 -8.4 -2.35 -7.85 -1.7 -7.05 -1.35
L -6.25 -1.05 -6.05 -1
Q -6.55078125 4.8509765625 -6.8 7.45 -4.5048828125 8.4208984375 -2 9.05
L -1.7 32.6
Q -1.9462890625 32.5755859375 -2.2 32.55
L -2.15 36.15
Q -1.7572265625 36.19765625 -1.4 36.25
L -1.65 37.75
Q -2.05 40.8 -1.95 42.6 12.1033203125 43.5591796875 13.75 42.65 13.9154296875 42.7984375 14.1 42.8 14.3052734375 42.7982421875 14.45 42.65 14.5982421875 42.5052734375 14.6 42.3 25.0447265625 42.8876953125 26.05 42.05 26.6 39.3 25.55 37.95 24.5 36.75 21.7 36.35 20.912109375 36.2515625 20.2 35.95
L 20.45 32.4
Q 20.114453125 32.4326171875 19.75 32.45
L 19.6 8.6
Q 21.3453125 8.06953125 23.75 7.15 22.91796875 -2.775 22.05 -9.2
L 22.45 -8.9
Q 23.3 -8.2 24.5 -8.15 25.75 -8.2 26.7 -8.85
L 36.5 -15.4 35.3 -17.05
Q 36.3578125 -16.8837890625 37.6 -17.85 39.1 -17.95 39.4 -18.7 39.6103515625 -19.2607421875 39.45 -19.9 39.5263671875 -19.9326171875 39.55 -20 39.648046875 -20.033203125 39.65 -20.15 39.65 -20.2376953125 39.55 -20.35 39.5169921875 -20.398046875 39.4 -20.4 39.3732421875 -20.4 39.3 -20.4 39.3138671875 -20.4169921875 39.3 -20.45 39.73125 -21.3515625 39.15 -22 39.1587890625 -22.0142578125 39.15 -22.05 39.2146484375 -22.1361328125 39.15 -22.25 39.1416015625 -22.3265625 39.05 -22.4 38.9638671875 -22.4146484375 38.85 -22.4 38.8015625 -22.35078125 38.75 -22.3 38.70703125 -23.6326171875 37.65 -23.85 37.951953125 -24.1587890625 38.25 -24.55 39.7 -26.8 39.75 -27.2 39.75 -27.75 39.4 -28 39.2 -28.2 39 -28.25 38.85 -28.25 38.7 -28.25 38.25 -28.25 38 -27.9 37 -26.25 36.4 -25.65 35.925390625 -25.1123046875 34.85 -24.35 34.5154296875 -24.31796875 34.25 -24.2 33.9 -24.1 33.2 -23.55 32.8 -23.3 32.5 -22.6 32.246875 -22.15703125 32.1 -21.7
L 32 -21.6 31.5 -22.3 24.4 -16.75 22.2 -18.5
Q 26.308203125 -26.17421875 22.3 -39.1 22.6787109375 -39.686328125 22.75 -39.9 23.55 -42.45 22.4 -45.7 22.11484375 -46.4943359375 21.65 -47.25
L 21.7 -47.25
Q 20.75 -48.9 19 -50.35
L 18.95 -50.35
Q 17.6654296875 -51.4306640625 15.9 -52.4 11.6 -54.8 6.9 -54.3
M 10.7 36.15
L 10.5 37.05
Q 10.0666015625 36.973828125 9.55 36.9 8.469921875 36.7650390625 7.55 36.25 8.0947265625 36.2162109375 8.65 36.15
L 8.9 32.55
Q 8.620703125 32.5771484375 8.35 32.6
L 8.95 22.3 9.7 32.4
Q 9.54296875 32.41953125 9.35 32.4
L 9.4 36
Q 10.0474609375 36.0787109375 10.7 36.15 Z"/>
</g>

<g id="Duplicate_Items_Folder_____0_Layer0_0_MEMBER_0_FILL">
<path fill="#6A370B" stroke="none" d="
M 56.45 88.9
Q 55 90.3 53.15 90.55 50.5 90.9 49.55 92.05 48.55 93.3 49.05 95.9 50.2 96.8 63.95 95.9 64.05 94.2 63.65 91.35
L 63.2 88.85
Q 59.8720703125 89.674609375 56.45 88.9 Z"/>
</g>

<g id="Duplicate_Items_Folder_____0_Layer0_0_MEMBER_1_FILL">
<path fill="#6A370B" stroke="none" d="
M 56.45 88.9
Q 55 90.3 53.15 90.55 50.5 90.9 49.55 92.05 48.55 93.3 49.05 95.9 50.2 96.8 63.95 95.9 64.05 94.2 63.65 91.35
L 63.2 88.85
Q 59.8720703125 89.674609375 56.45 88.9 Z"/>
</g>

<g id="Duplicate_Items_Folder_____0_Layer0_0_MEMBER_3_FILL">
<path fill="#3C9CEA" stroke="none" d="
M -23.2 0.7
L -22.7 39.65
Q -17.6 40.25 -12.35 39.65
L -10.1 0.7 -23.2 0.7 Z"/>
</g>

<g id="Duplicate_Items_Folder_____0_Layer0_0_MEMBER_4_FILL">
<path fill="#3C9CEA" stroke="none" d="
M -13.45 0.7
L -10.45 38.95
Q -5.25 39.55 -0.1 38.95
L -0.35 0.7 -13.45 0.7 Z"/>
</g>

<g id="Duplicate_Items_Folder_____0_Layer0_0_MEMBER_6_FILL">
<path fill="#B95700" stroke="none" d="
M 64.8 -36.2
Q 61.25 -19.75 72.05 -15.5 79.05 -12.75 85.4 -13.35 91.85 -13.95 95.85 -17.9 105.25 -27.1 97.1 -47.6 86.4 -52.6 70.45 -51.8 66.55 -44.4 64.8 -36.2 Z"/>
</g>

<g id="Duplicate_Items_Folder_____0_Layer0_0_MEMBER_7_MEMBER_0_FILL">
<path fill="#FFBE8C" stroke="none" d="
M 34.95 -17.3
L 34.35 -12.3 38.25 -11.9 38.25 -16.85 34.95 -17.3 Z"/>
</g>

<g id="Duplicate_Items_Folder_____0_Layer0_0_MEMBER_7_MEMBER_1_FILL">
<path fill="#FFBE8C" stroke="none" d="
M 36.2 -23
Q 35.8 -22.75 35.5 -22.05 35.1 -21.35 35.05 -20.6 35 -20.05 35.45 -19.4 36.2 -18.3 36.25 -18.25 37.0568359375 -16.79921875 38.15 -16.55 39.23828125 -16.2517578125 40.6 -17.3 42.1 -17.4 42.4 -18.2 42.7 -18.95 42.3 -19.9 42.85 -21.05 41.75 -21.75 41.7 -23.3 40.3 -23.3 40.15 -23.65 39.55 -23.85 38.95 -24.05 38.35 -23.7 37.7 -23.85 37.25 -23.65 36.9 -23.55 36.2 -23 Z"/>
</g>

<g id="Duplicate_Items_Folder_____0_Layer0_0_MEMBER_7_MEMBER_2_FILL">
<path fill="#FFBE8C" stroke="none" d="
M 36.75 -20.4
Q 37.1 -20.4 38.4 -20.95 39.65 -21.55 41.25 -23.65 42.7 -25.9 42.75 -26.3 42.75 -26.85 42.4 -27.1 42.2 -27.3 42 -27.35 41.85 -27.35 41.7 -27.35 41.25 -27.35 41 -27 40 -25.35 39.4 -24.75 38.65 -23.9 36.4 -22.4 36.05 -22.15 35.95 -21.65 35.85 -21.25 36.1 -20.85 36.3 -20.55 36.75 -20.4 Z"/>
</g>

<g id="Duplicate_Items_Folder_____0_Layer0_0_MEMBER_8_FILL">
<path fill="#10853D" stroke="none" d="
M 14.25 -22.65
L 12 -16.65 22.45 -8.9
Q 23.3 -8.2 24.5 -8.15 25.75 -8.2 26.7 -8.85
L 36.5 -15.4 31.5 -22.3 24.4 -16.75 17.9 -21.8
Q 16.55 -22.65 14.25 -22.65 Z"/>
</g>

<g id="Duplicate_Items_Folder_____0_Layer0_0_MEMBER_9_FILL">
<path fill="#FFD976" stroke="none" d="
M 17.45 -19.25
Q 14.15 -21.5 8.9 -21.65 3.65 -21.9 -0.15 -19.45 -4 -17.05 -4 -12.65
L -5.7 9.8
Q 8.55 12.85 21.8 10
L 20.7 -12.65
Q 20.7 -17.05 17.45 -19.25 Z"/>
</g>

<g id="Duplicate_Items_Folder_____0_Layer0_0_MEMBER_10_FILL">
<path fill="#B95700" stroke="none" d="
M 29.3 -38.7
Q 29.453515625 -40.95546875 27.8 -42.6 26.2 -44.2 23.9 -44.2 21.6 -44.2 19.95 -42.6 18.35 -40.95 18.35 -38.65 18.35 -36.35 19.95 -34.75 21.603515625 -33.10546875 23.75 -33.15 25.8837890625 -33.1322265625 27.5 -34.75 29.1337890625 -36.3822265625 29.3 -38.7 Z"/>
</g>

<g id="Duplicate_Items_Folder_____0_Layer0_0_MEMBER_11_FILL">
<path fill="#FBA25D" stroke="none" d="
M 12.05 -19.3
L 12.05 -26.6 3.55 -26.6 3.55 -19.3
Q 8.491796875 -17.422265625 12.05 -19.3 Z"/>
</g>

<g id="Duplicate_Items_Folder_____0_Layer0_0_MEMBER_12_FILL">
<path fill="#FFBE8C" stroke="none" d="
M 75.05 11.5
Q 73.8 9.3 71.4 7.3 68.95 5.25 66.9 3.55
L 64.9 1.9
Q 62.35 1.85 59.3 2.55 53.15 3.9 50.5 7.55
L 48.9 17.15
Q 48.05 22.35 50.55 24.9 52.35 26.7 54.45 27.45 55.5 27.85 56.65 28.05 57.55 28.2 58.6 28.3 59.15 28.35 59.7 28.4 62.15 28.4 64.75 27.8 66.7 27.3 68.15 26.8
L 69 26.4
Q 70.6 25.65 71.75 24.65 72.2 24.3 73.25 23.15
L 74.4 23.45
Q 75.85 23.7 77.2 23.35 79.05 22.9 80.05 21.7 81.25 20.25 81.05 18.1 80.85 15.95 79.15 15.15 77.6 14.45 75.85 15.1 76.3 13.7 75.05 11.5 Z"/>
</g>

<g id="Duplicate_Items_Folder_____0_Layer0_0_MEMBER_13_FILL">
<path fill="#FBA25D" stroke="none" d="
M 195.15 15.85
Q 194.65 18.3 193.6 20.15 196.9 20.7 197.75 18.95 198.45 17.6 197.75 16.5 197.05 15.35 195.15 15.85 Z"/>
</g>

<g id="Duplicate_Items_Folder_____0_Layer0_0_MEMBER_14_MEMBER_0_STROKES_1_FILL">
<path fill="#A54D00" stroke="none" d="
M 17.95 14.55
L 17.85 14.5 17.7 14.5 17.65 14.45 16.9 14.45 16.6 14.5 16.5 14.55 16.35 14.6 15.9 14.8 15.75 14.95 15.65 15 15.5 15.15 15.45 15.25
Q 15.15 15.75 15.6 16 15.7 16.1 16 16.1
L 16.1 16.05 16.35 16.05 16.5 16 16.55 16 16.65 15.95 16.8 15.9 16.9 15.9 17 15.85 17.15 15.8 17.25 15.8 17.35 15.75 17.8 15.6 18 15.5 18.05 15.5
Q 18.55 15.3 18.35 14.85 18.15 14.55 17.95 14.55 Z"/>
</g>

<g id="Duplicate_Items_Folder_____0_Layer0_0_MEMBER_14_MEMBER_1_FILL">
<path fill="#FF9A7B" stroke="none" d="
M 26.95 26.65
Q 26.95 25.95 26 25.45 25.1 25 23.75 25 22.4 25 21.45 25.45 20.55 25.95 20.55 26.65 20.55 27.35 21.45 27.8 22.4 28.3 23.75 28.3 25.1 28.3 26 27.8 26.95 27.35 26.95 26.65 Z"/>
</g>

<g id="Duplicate_Items_Folder_____0_Layer0_0_MEMBER_14_MEMBER_2_FILL">
<path fill="#000000" stroke="none" d="
M 18.9 22.25
Q 18.9 21.3 18.55 20.6 18.2 19.9 17.7 19.9 17.2 19.9 16.85 20.6 16.5 21.3 16.5 22.25 16.5 23.2 16.85 23.9 17.2 24.6 17.7 24.6 18.2 24.6 18.55 23.9 18.9 23.2 18.9 22.25 Z"/>
</g>

<g id="Duplicate_Items_Folder_____0_Layer0_0_MEMBER_14_MEMBER_3_FILL">
<path fill="#FF9A7B" stroke="none" d="
M 7.95 25.25
Q 7.95 24.7 7.25 24.35 6.6 24 5.55 24 4.9126953125 24 4.4 24.1
L 4.4 24.15
Q 4.2171875 25.26796875 4.2 26.25 4.787890625 26.5 5.55 26.5 6.6 26.5 7.25 26.1 7.95 25.75 7.95 25.25 Z"/>
</g>

<g id="Duplicate_Items_Folder_____0_Layer0_0_MEMBER_14_MEMBER_4_FILL">
<path fill="#000000" stroke="none" d="
M 10.05 22.9
Q 10.05 21.9 9.6 21.15 9.15 20.4 8.55 20.4 7.9 20.4 7.45 21.15 7.05 21.9 7.05 22.9 7.05 23.95 7.45 24.65 7.9 25.4 8.55 25.4 9.15 25.4 9.6 24.65 10.05 23.95 10.05 22.9 Z"/>
</g>

<g id="Duplicate_Items_Folder_____0_Layer0_0_MEMBER_14_MEMBER_6_FILL">
<path fill="#E71818" stroke="none" d="
M 60.95 21.25
Q 60.9 21.1 60.8 21.05 60.65 20.95 60.5 20.95 60.35 20.95 60.25 21.05 60 21.15 58.75 21.75 57.55 22.25 55.95 22.3 55.8 22.3 55.7 22.4 55.55 22.45 55.5 22.6 55.45 22.7 55.45 22.85 55.55 23.9 56.3 24.6 57.15 25.5 58.35 25.5 59.55 25.5 60.45 24.6
L 60.4 24.6
Q 61.25 23.75 61.25 22.55 61.25 21.85 60.95 21.25 Z"/>
</g>

<g id="Duplicate_Items_Folder_____0_Layer0_0_MEMBER_14_MEMBER_7_FILL">
<path fill="#FF5454" stroke="none" d="
M 13.55 18.8
Q 14.25 19.4 15.25 19.4 16.45 19.4 17.35 18.5
L 17.3 18.5
Q 17.7 18.1 17.9 17.65 15.3 16.8 13.55 18.8 Z"/>
</g>

<g id="Duplicate_Items_Folder_____0_Layer0_0_MEMBER_14_MEMBER_8_STROKES_1_FILL">
<path fill="#A54D00" stroke="none" d="
M 17.95 14.55
L 17.85 14.5 17.7 14.5 17.65 14.45 16.9 14.45 16.6 14.5 16.5 14.55 16.35 14.6 15.9 14.8 15.75 14.95 15.65 15 15.5 15.15 15.45 15.25
Q 15.15 15.75 15.6 16 15.7 16.1 16 16.1
L 16.1 16.05 16.35 16.05 16.5 16 16.55 16 16.65 15.95 16.8 15.9 16.9 15.9 17 15.85 17.15 15.8 17.25 15.8 17.35 15.75 17.8 15.6 18 15.5 18.05 15.5
Q 18.55 15.3 18.35 14.85 18.15 14.55 17.95 14.55 Z"/>
</g>

<g id="Duplicate_Items_Folder_____0_Layer0_0_MEMBER_14_MEMBER_9_FILL">
<path fill="#FFFFFF" stroke="none" d="
M -41.4 -34.15
Q -41.95 -33.55 -41.95 -32.75 -41.95 -31.95 -41.4 -31.4 -40.8 -30.8 -40 -30.8 -39.2 -30.8 -38.65 -31.4 -38.05 -31.95 -38.05 -32.75 -38.05 -33.55 -38.65 -34.15 -39.2 -34.7 -40 -34.7 -40.8 -34.7 -41.4 -34.15 Z"/>
</g>

<g id="Duplicate_Items_Folder_____0_Layer0_0_MEMBER_15_FILL">
<path fill="#B95700" stroke="none" d="
M 108.4 41.15
Q 107.15 41 105.75 40.7 106.6 43.45 105.8 46 107.15 44.9 107.9 42.9
L 108.4 41.15 Z"/>
</g>

<g id="Duplicate_Items_Folder_____0_Layer0_0_MEMBER_16_FILL">
<path fill="#B95700" stroke="none" d="
M 23.6 -28.2
Q 24.8 -29.15 25 -30.5 25.25 -32.1 24.8 -35.05 24.5 -37.95 23.25 -39.55 22.1 -41.1 20.55 -41.9 19.1 -42.65 16.85 -42.65 14.75 -44.3 10.6 -44.75 5.9 -45.25 1.6 -42.85 -3.5 -40.05 -4.9 -36.15 -6.05 -32.9 -5.25 -30.35 -5.15 -30.05 -4.5 -29 -3.9 -28.05 -3.6 -27.65 -3.4 -27.4 -3.1 -29.5 -2.6 -32.4 -2.2 -33.8 -0.85 -31.85 4.15 -33.25 8.7 -34.5 11.25 -36.65 11.15 -35.15 12.1 -33.35 14 -29.65 19.1 -27.85 21.85 -26.85 23.6 -28.2 Z"/>
</g>

<g id="Duplicate_Items_Folder_____0_Layer0_0_MEMBER_18_FILL">
<path fill="#D66B0C" stroke="none" d="
M -8.15 -50.05
Q -9.55 -51.2 -10.45 -52.55 -12.2 -51.1 -13.15 -49.45 -9.4 -48.35 -5.85 -48.55 -6.9 -49 -8.15 -50.05 Z"/>
</g>

<g id="Duplicate_Items_Folder_____0_Layer0_0_MEMBER_19_FILL">
<path fill="#FFF4D9" stroke="none" d="
M 11.05 -17.45
Q 12.2611328125 -16.7 13.05 -17.15 14.012109375 -17.7 14.2 -18.55 14.455859375 -19.45 13.75 -20.7 13.7123046875 -20.85 13 -21.1 12.400390625 -21.4 12.05 -21.4 11.985546875 -19.35 8.95 -19.1 5.859765625 -18.85 3.5 -21.15
L 0.9 -20.4
Q 1.119140625 -19.7 2.2 -18.65 3.3060546875 -17.65 4.35 -16.9 5.3998046875 -16.2 6.75 -15.8 7.3560546875 -15.65 7.9 -15.65 8.4498046875 -15.65 8.85 -15.85 9.6123046875 -16.3 9.75 -16.95 9.95 -17.65 9.95 -18.35 10.4498046875 -17.85 11.05 -17.45 Z"/>
</g>

<g id="Duplicate_Items_Folder_____0_Layer0_0_MEMBER_20_FILL">
<path fill="#169446" stroke="none" d="
M 8.25 -10.05
Q 6.9 -18.75 3.1 -23.95 1.35 -23.55 -0.2 -22.65 -3.15 -20.95 -4.3 -18.7 -4.9 -17.6 -5.1 -14.3 -5.3 -9.6 -5.6 -6.25 -6.45 3.8 -6.8 7.45 1 10.75 11.15 10 9.9 0.45 8.25 -10.05 Z"/>
</g>

<g id="Duplicate_Items_Folder_____0_Layer0_0_MEMBER_21_FILL">
<path fill="#169446" stroke="none" d="
M 19.45 -17.75
Q 17.2 -20.5 12.05 -21.4 15.6 -16.5 16.05 -6.9 16.4794921875 2.6955078125 16.55 12.25 18.6615234375 11.969140625 23.75 10 21.659375 -15.04296875 19.45 -17.75 Z"/>
</g>

<g id="Duplicate_Items_Folder_____0_Layer0_0_MEMBER_22_MEMBER_0_FILL">
<path fill="#FF7272" stroke="none" d="
M 49.5 19.3
Q 49.5 19.25 49.5 19.2
L 49.5 4.4
Q 49.4982421875 4.1947265625 49.35 4.05 49.2052734375 3.9017578125 49 3.9
L 38.3 3.9 38.3 6.05 35.05 6.05 35.05 20.85
Q 35.05 21.05 35.2 21.2 35.35 21.35 35.55 21.35
L 47.45 21.35
Q 48.2509765625 21.3525390625 48.85 20.75 49.5099609375 20.0935546875 49.5 19.3 Z"/>
</g>

<g id="Duplicate_Items_Folder_____0_Layer0_0_MEMBER_22_MEMBER_1_FILL">
<path fill="#FF4848" stroke="none" d="
M 47.1 4.05
Q 46.9517578125 4.1947265625 46.95 4.4
L 46.95 20.85
Q 46.9517578125 21.0552734375 47.1 21.2 47.2447265625 21.3482421875 47.45 21.35 48.2509765625 21.3525390625 48.85 20.75 49.5099609375 20.0935546875 49.5 19.3 49.5 19.25 49.5 19.2
L 49.5 4.4
Q 49.4982421875 4.1947265625 49.35 4.05 49.2052734375 3.9017578125 49 3.9
L 47.45 3.9
Q 47.2447265625 3.9017578125 47.1 4.05 Z"/>
</g>

<g id="Duplicate_Items_Folder_____0_Layer0_0_MEMBER_22_MEMBER_2_FILL">
<path fill="#FFF1B6" stroke="none" d="
M 48.5 3.45
Q 48.05 2.95 47.4 2.95
L 35.35 2.95
Q 35.87109375 4.793359375 35.35 6.1
L 47.4 6.1
Q 48.05 6.1 48.5 5.65 49 5.15 49 4.55 49 3.9 48.5 3.45 Z"/>
</g>

<g id="Duplicate_Items_Folder_____0_Layer0_0_MEMBER_22_MEMBER_4_FILL">
<path fill="#FF8A8A" stroke="none" d="
M 44.2 8.2
Q 44.05 8.05 43.85 8.05
L 38.1 8.05
Q 37.9 8.05 37.75 8.2 37.6 8.35 37.6 8.55
L 37.6 10.4
Q 37.6 10.6 37.75 10.75 37.9 10.9 38.1 10.9
L 43.85 10.9
Q 44.05 10.9 44.2 10.75 44.35 10.6 44.35 10.4
L 44.35 8.55
Q 44.35 8.35 44.2 8.2 Z"/>
</g>

<g id="Duplicate_Items_Folder_____0_Layer0_0_MEMBER_23_FILL">
<path fill="#FFBE8C" stroke="none" d="
M 3.25 -5.55
L 0.65 -4.4 2.65 0.2 5.3 -1
Q 7.65 -0.45 9.6 -0.95 11.6 -1.4 11.95 -2.65 12.15 -3.45 11.75 -3.95 12.6 -5.1 11.65 -5.95 11.95 -6.45 11.9 -7.1 11.75 -7.7 11.15 -8.1 11.4 -8.65 10.95 -9.2 10.6 -9.55 10.1 -9.7 9.6 -9.85 8.4 -9.35 8 -10.1 7.05 -9.95 6 -9.8 5.35 -8.65 4.35 -7.05 3.25 -5.55 Z"/>
</g>

<g id="Duplicate_Items_Folder_____0_Layer0_0_MEMBER_24_FILL">
<path fill="#10853D" stroke="none" d="
M 1.75 -18.75
Q 1.4 -19.95 0.55 -20.25 -0.3 -20.6 -0.85 -20.6 -1.45 -20.7 -2.3 -20.3 -4.05 -19.6 -4.8 -17.9
L -9.2 -7.2
Q -9.75 -5.9 -9.55 -4.65 -9.3 -3.25 -8.4 -2.35 -7.85 -1.7 -7.05 -1.35
L -6.25 -1.05 5.55 2.25 7.65 -6.05 -0.35 -8.15
Q 1.95 -14.65 2 -15.8 2.1 -17.7 1.75 -18.75 Z"/>
</g>

<g id="Duplicate_Items_Folder_____0_Layer0_0_MEMBER_25_FILL">
<path fill="#FFFFFF" stroke="none" d="
M 12.45 -17.8
Q 12.45 -18.1 12.2 -18.35 12 -18.55 11.7 -18.55 11.4 -18.55 11.15 -18.35 10.95 -18.1 10.95 -17.8 10.95 -17.5 11.15 -17.3 11.4 -17.05 11.7 -17.05 12 -17.05 12.2 -17.3 12.45 -17.5 12.45 -17.8 Z"/>
</g>

<g id="Duplicate_Items_Folder_____0_Layer0_0_MEMBER_26_FILL">
<path fill="#FFFFFF" stroke="none" d="
M 12.45 -17.8
Q 12.45 -18.1 12.2 -18.35 12 -18.55 11.7 -18.55 11.4 -18.55 11.15 -18.35 10.95 -18.1 10.95 -17.8 10.95 -17.5 11.15 -17.3 11.4 -17.05 11.7 -17.05 12 -17.05 12.2 -17.3 12.45 -17.5 12.45 -17.8 Z"/>
</g>

<g id="Duplicate_Items_Folder_____0_Layer0_0_MEMBER_27_FILL">
<path fill="#10853D" stroke="none" d="
M 21.65 4.8
Q 22.35 3.85 22.35 2.8
L 22.35 -0.35
Q 20.318359375 1.24296875 17.35 1.15
L 17.35 4.3
Q 17.35 5.35 18.1 5.9 18.8 6.35 19.85 6.05 20.9 5.75 21.65 4.8 Z"/>
</g>

<g id="Duplicate_Items_Folder_____0_Layer0_0_MEMBER_28_FILL">
<path fill="#53ABF3" stroke="none" d="
M -9.2 41.8
L -9 38.55
Q -14.1 39.05 -19.05 38.55
L -19 41.8
Q -14.15 42.4 -9.2 41.8 Z"/>
</g>

<g id="Duplicate_Items_Folder_____0_Layer0_0_MEMBER_29_FILL">
<path fill="#53ABF3" stroke="none" d="
M -9.2 41.8
L -9 38.55
Q -14.1 39.05 -19.05 38.55
L -19 41.8
Q -14.15 42.4 -9.2 41.8 Z"/>
</g>

<path id="Duplicate_Items_Folder_____0_Layer1_0_1_STROKES" stroke="#FFFFFF" stroke-width="8" stroke-linejoin="round" stroke-linecap="round" fill="none" d="
M 26.05 42.05
Q 26.6 39.3 25.55 37.95 24.5 36.75 21.7 36.35 20.912109375 36.2515625 20.2 35.95
L 20.45 32.4
Q 20.114453125 32.4326171875 19.775 32.45
L 19.6 8.625
Q 21.3453125 8.06953125 23.75 7.15 22.91796875 -2.775 22.075 -9.175
L 22.45 -8.9
Q 23.3 -8.2 24.5 -8.15 25.75 -8.2 26.7 -8.85
L 36.5 -15.4 35.325 -17.025
Q 36.3578125 -16.8837890625 37.6 -17.85 39.1 -17.95 39.4 -18.7 39.6103515625 -19.2607421875 39.475 -19.9 39.5263671875 -19.9326171875 39.575 -19.975 39.648046875 -20.033203125 39.65 -20.125 39.65 -20.2376953125 39.575 -20.325 39.5169921875 -20.398046875 39.425 -20.4 39.3732421875 -20.4 39.325 -20.375 39.3138671875 -20.4169921875 39.3 -20.45 39.73125 -21.3515625 39.15 -21.975 39.1587890625 -22.0142578125 39.175 -22.05 39.2146484375 -22.1361328125 39.175 -22.225 39.1416015625 -22.3265625 39.05 -22.375 38.9638671875 -22.4146484375 38.875 -22.375 38.8015625 -22.35078125 38.75 -22.3 38.70703125 -23.6326171875 37.675 -23.825 37.951953125 -24.1587890625 38.25 -24.55 39.7 -26.8 39.75 -27.2 39.75 -27.75 39.4 -28 39.2 -28.2 39 -28.25 38.85 -28.25 38.7 -28.25 38.25 -28.25 38 -27.9 37 -26.25 36.4 -25.65 35.925390625 -25.1123046875 34.85 -24.325 34.5154296875 -24.31796875 34.25 -24.2 33.9 -24.1 33.2 -23.55 32.8 -23.3 32.5 -22.6 32.246875 -22.15703125 32.125 -21.7
L 32 -21.6 31.5 -22.3 24.4 -16.75 22.2 -18.475
Q 26.308203125 -26.17421875 22.325 -39.1 22.6787109375 -39.686328125 22.75 -39.9 23.55 -42.45 22.4 -45.7 22.11484375 -46.4943359375 21.675 -47.25
L 21.7 -47.25
Q 20.75 -48.9 19 -50.35
L 18.975 -50.325
Q 17.6654296875 -51.4306640625 15.9 -52.4 11.6 -54.8 6.9 -54.3 2.75 -53.85 0.65 -52.2 -1.6 -52.2 -3.05 -51.4 -4.6 -50.65 -5.75 -49.1 -6.31328125 -48.3791015625 -6.7 -47.4 -10.1744140625 -40.4669921875 -11.8 -32.85 -14.9634765625 -18.1908203125 -6.725 -13.225
L -9.2 -7.2
Q -9.75 -5.9 -9.55 -4.65 -9.3 -3.25 -8.4 -2.35 -7.85 -1.7 -7.05 -1.35
L -6.25 -1.05 -6.05 -1
Q -6.55078125 4.8509765625 -6.8 7.45 -4.5048828125 8.4208984375 -2 9.05
L -1.7 32.6
Q -1.9462890625 32.5755859375 -2.2 32.55
L -2.15 36.15
Q -1.7572265625 36.19765625 -1.375 36.25
L -1.65 37.75
Q -2.05 40.8 -1.95 42.6 12.1033203125 43.5591796875 13.775 42.675 13.9154296875 42.7984375 14.1 42.8 14.3052734375 42.7982421875 14.45 42.65 14.5982421875 42.5052734375 14.6 42.3 25.0447265625 42.8876953125 26.05 42.05 Z
M 9.55 36.9
Q 8.469921875 36.7650390625 7.55 36.275 8.0947265625 36.2162109375 8.65 36.15
L 8.9 32.55
Q 8.620703125 32.5771484375 8.35 32.6
L 8.95 22.3 9.725 32.425
Q 9.54296875 32.41953125 9.35 32.4
L 9.4 36
Q 10.0474609375 36.0787109375 10.7 36.15
L 10.525 37.075
Q 10.0666015625 36.973828125 9.55 36.9 Z"/>

<path id="Duplicate_Items_Folder_____0_Layer0_0_MEMBER_2_1_STROKES" stroke="#512D26" stroke-width="1" stroke-linejoin="round" stroke-linecap="round" fill="none" d="
M 11.11518859863281 37.43174285888672
Q 12.350164794921874 37.81173553466797 13.110150146484374 38.85671539306641 14.107630920410156 40.09169158935546 14.107630920410156 42.08665313720703"/>

<path id="Duplicate_Items_Folder_____0_Layer0_0_MEMBER_5_1_STROKES" stroke="#2A8BDB" stroke-width="1" stroke-linejoin="round" stroke-linecap="round" fill="none" d="
M 9.022709655761718 20.904562377929686
L 9.307704162597654 11.072251892089843"/>

<path id="Duplicate_Items_Folder_____0_Layer0_0_MEMBER_7_MEMBER_3_1_STROKES" stroke="#F89A52" stroke-width="0.5" stroke-linejoin="round" stroke-linecap="round" fill="none" d="
M 48.65 -36.7
Q 48.2 -35.75 49.2 -35.4 49.85 -35.2 50.5 -36 50.945703125 -36.5484375 51.075 -37.05"/>

<path id="Duplicate_Items_Folder_____0_Layer0_0_MEMBER_7_MEMBER_4_1_STROKES" stroke="#F89A52" stroke-width="0.5" stroke-linejoin="round" stroke-linecap="round" fill="none" d="
M 38.35 -23.7
Q 39.05 -22.75 39.8 -21.9 39.9353515625 -21.665625 39.8 -21.425 39.664453125 -21.1845703125 39.125 -21.1 38.5951171875 -21.0052734375 37.9 -21.7 38.2 -20.6 37.9 -20.15 37.5 -19.5 36.8 -19.5"/>

<path id="Duplicate_Items_Folder_____0_Layer0_0_MEMBER_7_MEMBER_5_1_STROKES" stroke="#F89A52" stroke-width="0.5" stroke-linejoin="round" stroke-linecap="round" fill="none" d="
M 49.2 -35.4
Q 48.8 -35.2 48.75 -34.75 48.65 -34.25 49.25 -34.05 49.85 -33.85 50.7 -34.45 51.260546875 -34.800390625 51.6 -35.2"/>

<path id="Duplicate_Items_Folder_____0_Layer0_0_MEMBER_7_MEMBER_6_1_STROKES" stroke="#F89A52" stroke-width="0.5" stroke-linejoin="round" stroke-linecap="round" fill="none" d="
M 49.85 -34
Q 49.45 -33.8 49.4 -33.35 49.35546875 -33.1271484375 49.45 -32.95"/>

<path id="Duplicate_Items_Folder_____0_Layer0_0_MEMBER_14_MEMBER_5_1_STROKES" stroke="#F89A52" stroke-width="1" stroke-linejoin="round" stroke-linecap="round" fill="none" d="
M 13.991210937499998 -35.3072509765625
Q 14.936108398437499 -35.5772216796875 15.611035156249999 -35.037280273437496 16.1959716796875 -34.587329101562496 16.1959716796875 -33.822412109374994 16.1959716796875 -33.0574951171875 15.701025390624999 -32.562548828124996 15.206079101562498 -32.0676025390625 14.3961669921875 -32.1575927734375"/>

<path id="Duplicate_Items_Folder_____0_Layer0_0_MEMBER_17_1_STROKES" stroke="#A74E00" stroke-width="1" stroke-linejoin="round" stroke-linecap="round" fill="none" d="
M 1.500244140625 -51.94935302734375
Q 4.662109956145287 -50.77319909930229 6.050174713134766 -47.79941635131836"/>

<path id="Duplicate_Items_Folder_____0_Layer0_0_MEMBER_22_MEMBER_3_1_STROKES" stroke="#FF4848" stroke-width="1" stroke-linejoin="round" stroke-linecap="round" fill="none" d="
M 1.8038345336914077 -11.467565155029297
L 12.276979064941408 -8.661917114257811
Q 12.841920471191408 -8.510575103759766 13.337808990478514 -8.796913146972656 13.888796234130858 -9.115066528320312 14.028496551513669 -9.636550903320312 14.179838562011717 -10.201492309570312 13.850043487548831 -10.709022521972656 13.575347137451175 -11.248368072509766 13.010405731201175 -11.399710083007813
L 2.537261199951171 -14.205358123779297"/>
</defs>

<g transform="matrix( 1, 0, 0, 0.999603271484375, 65,60) ">
<g transform="matrix( 1, 0, 0, 1, 0,0) ">
<use xlink:href="#icon_r_box_02_20_Layer3_0_FILL"/>
</g>

<g transform="matrix( 1, 0, 0, 1, -0.05,0.05) ">
<use xlink:href="#icon_r_box_02_20_Layer3_1_FILL"/>
</g>

<g transform="matrix( 1, 0, 0, 1, 0,-2.15) ">
<use xlink:href="#icon_r_box_02_20_Layer3_2_FILL"/>
</g>

<g transform="matrix( 1, 0, 0, 1, 0,0.05) ">
<use xlink:href="#icon_r_box_02_20_Layer3_3_FILL"/>
</g>

<g filter="url(#Filter_1)" transform="matrix( 0.9999847412109375, 0, 0, 1.000396728515625, -65,-60) ">
<g transform="matrix( 0.7499847412109375, 0, 0, 0.7496795654296875, 57,46.45) ">
<g transform="matrix( 1, 0, 0, 1, 0,0) ">
<use xlink:href="#Duplicate_Items_Folder_____0_Layer1_0_FILL"/>

<use xlink:href="#Duplicate_Items_Folder_____0_Layer1_0_1_STROKES"/>
</g>

<g transform="matrix( -1.06591796875, 0, 0, 1.06591796875, 78.35,-60.15) ">
<use xlink:href="#Duplicate_Items_Folder_____0_Layer0_0_MEMBER_0_FILL"/>
</g>

<g transform="matrix( -1.06591796875, 0, 0, 1.06591796875, 66.2,-59.6) ">
<use xlink:href="#Duplicate_Items_Folder_____0_Layer0_0_MEMBER_1_FILL"/>
</g>

<g transform="matrix( 0.949981689453125, 0, 0, 0.949981689453125, 20.9,-1.85) ">
<use xlink:href="#Duplicate_Items_Folder_____0_Layer0_0_MEMBER_2_1_STROKES" transform="matrix( 1.052642822265625, 0, 0, 1.052642822265625, -22,1.9) "/>
</g>

<g transform="matrix( 0.949981689453125, 0, 0, 0.949981689453125, 19.9,-1.8) ">
<use xlink:href="#Duplicate_Items_Folder_____0_Layer0_0_MEMBER_3_FILL"/>
</g>

<g transform="matrix( 0.949981689453125, 0, 0, 0.949981689453125, 19.9,-1.8) ">
<use xlink:href="#Duplicate_Items_Folder_____0_Layer0_0_MEMBER_4_FILL"/>
</g>

<g transform="matrix( 0.949981689453125, 0, 0, 0.949981689453125, 19.9,-1.8) ">
<use xlink:href="#Duplicate_Items_Folder_____0_Layer0_0_MEMBER_5_1_STROKES" transform="matrix( 1.052642822265625, 0, 0, 1.052642822265625, -20.9,1.85) "/>
</g>

<g transform="matrix( 1, 0, 0, 1, -76.6,3.35) ">
<use xlink:href="#Duplicate_Items_Folder_____0_Layer0_0_MEMBER_6_FILL"/>
</g>

<g transform="matrix( 1.128387451171875, 1.0321502685546875, -0.865814208984375, 0.8658294677734375, -21.1,-43.65) ">
<use xlink:href="#Duplicate_Items_Folder_____0_Layer0_0_MEMBER_7_MEMBER_0_FILL"/>
</g>

<g transform="matrix( 1, 0, 0, 1, -3,-0.55) ">
<use xlink:href="#Duplicate_Items_Folder_____0_Layer0_0_MEMBER_7_MEMBER_1_FILL"/>
</g>

<g transform="matrix( 1, 0, 0, 1, -3,-0.9) ">
<use xlink:href="#Duplicate_Items_Folder_____0_Layer0_0_MEMBER_7_MEMBER_2_FILL"/>
</g>

<g transform="matrix( 1, 0, 0, 1, -12.3,15.05) ">
<use xlink:href="#Duplicate_Items_Folder_____0_Layer0_0_MEMBER_7_MEMBER_3_1_STROKES"/>
</g>

<g transform="matrix( 1, 0, 0, 1, -3,-0.55) ">
<use xlink:href="#Duplicate_Items_Folder_____0_Layer0_0_MEMBER_7_MEMBER_4_1_STROKES"/>
</g>

<g transform="matrix( 1, 0, 0, 1, -12.3,15.05) ">
<use xlink:href="#Duplicate_Items_Folder_____0_Layer0_0_MEMBER_7_MEMBER_5_1_STROKES"/>
</g>

<g transform="matrix( 1, 0, 0, 1, -12.3,15.05) ">
<use xlink:href="#Duplicate_Items_Folder_____0_Layer0_0_MEMBER_7_MEMBER_6_1_STROKES"/>
</g>

<g transform="matrix( 1, 0, 0, 1, 0,0) ">
<use xlink:href="#Duplicate_Items_Folder_____0_Layer0_0_MEMBER_8_FILL"/>
</g>

<g transform="matrix( 1, 0, 0, 1, 0,-2.85) ">
<use xlink:href="#Duplicate_Items_Folder_____0_Layer0_0_MEMBER_9_FILL"/>
</g>

<g transform="matrix( -1.7476806640625, 0, 0, 1.7476806640625, 43.65,27.7) ">
<use xlink:href="#Duplicate_Items_Folder_____0_Layer0_0_MEMBER_10_FILL"/>
</g>

<g transform="matrix( 1, 0, 0, 1, 0,-2.85) ">
<use xlink:href="#Duplicate_Items_Folder_____0_Layer0_0_MEMBER_11_FILL"/>
</g>

<g transform="matrix( -0.89996337890625, 0, 0, 0.89996337890625, 65.35,-50.2) ">
<use xlink:href="#Duplicate_Items_Folder_____0_Layer0_0_MEMBER_12_FILL"/>
</g>

<g transform="matrix( -0.89996337890625, 0, 0, 0.89996337890625, 172.5,-49.1) ">
<use xlink:href="#Duplicate_Items_Folder_____0_Layer0_0_MEMBER_13_FILL"/>
</g>

<g transform="matrix( -0.7090911865234375, 0.553955078125, 0.553955078125, 0.7090911865234375, 12.45,-61) ">
<use xlink:href="#Duplicate_Items_Folder_____0_Layer0_0_MEMBER_14_MEMBER_0_STROKES_1_FILL"/>
</g>

<g transform="matrix( -0.6749114990234375, 0, 0, 0.6749114990234375, 22.65,-51.95) ">
<use xlink:href="#Duplicate_Items_Folder_____0_Layer0_0_MEMBER_14_MEMBER_1_FILL"/>
</g>

<g transform="matrix( -1.1248626708984375, 0, 0, 0.9572601318359375, 29.3,-57.2) ">
<use xlink:href="#Duplicate_Items_Folder_____0_Layer0_0_MEMBER_14_MEMBER_2_FILL"/>
</g>

<g transform="matrix( -0.89990234375, 0, 0, 0.89990234375, 25.15,-56.75) ">
<use xlink:href="#Duplicate_Items_Folder_____0_Layer0_0_MEMBER_14_MEMBER_3_FILL"/>
</g>

<g transform="matrix( -0.8977508544921875, 0.0621795654296875, 0.0621795654296875, 0.8977508544921875, 23.7,-56.9) ">
<use xlink:href="#Duplicate_Items_Folder_____0_Layer0_0_MEMBER_14_MEMBER_4_FILL"/>
</g>

<g transform="matrix( -0.89990234375, 0, 0, 0.89990234375, 25.15,-56.05) ">
<use xlink:href="#Duplicate_Items_Folder_____0_Layer0_0_MEMBER_14_MEMBER_5_1_STROKES" transform="matrix( -1.1112213134765625, 0, 0, 1.1112213134765625, 27.9,62.25) "/>
</g>

<g transform="matrix( -0.8999481201171875, 0, 0, 0.8999481201171875, 65.25,-50.1) ">
<use xlink:href="#Duplicate_Items_Folder_____0_Layer0_0_MEMBER_14_MEMBER_6_FILL"/>
</g>

<g transform="matrix( -0.8999481201171875, 0, 0, 0.8999481201171875, 26.45,-44.6) ">
<use xlink:href="#Duplicate_Items_Folder_____0_Layer0_0_MEMBER_14_MEMBER_7_FILL"/>
</g>

<g transform="matrix( 0.7090911865234375, 0.553955078125, -0.553955078125, 0.7090911865234375, 14.2,-61) ">
<use xlink:href="#Duplicate_Items_Folder_____0_Layer0_0_MEMBER_14_MEMBER_8_STROKES_1_FILL"/>
</g>

<g transform="matrix( 0.511962890625, 0, 0, 0.511962890625, 18.65,-12.9) ">
<use xlink:href="#Duplicate_Items_Folder_____0_Layer0_0_MEMBER_14_MEMBER_9_FILL"/>
</g>

<g transform="matrix( -0.89996337890625, 0, 0, 0.89996337890625, 93.45,-75) ">
<use xlink:href="#Duplicate_Items_Folder_____0_Layer0_0_MEMBER_15_FILL"/>
</g>

<g transform="matrix( -0.9999847412109375, 0, 0, 0.9999847412109375, 17.5,-9.55) ">
<use xlink:href="#Duplicate_Items_Folder_____0_Layer0_0_MEMBER_16_FILL"/>
</g>

<g transform="matrix( -0.9999847412109375, 0, 0, 0.9999847412109375, 17.5,-9.55) ">
<use xlink:href="#Duplicate_Items_Folder_____0_Layer0_0_MEMBER_17_1_STROKES" transform="matrix( -1.0000152587890625, 0, 0, 1.0000152587890625, 17.5,9.55) "/>
</g>

<g transform="matrix( -0.9999847412109375, 0, 0, 0.9999847412109375, 8.55,2.2) ">
<use xlink:href="#Duplicate_Items_Folder_____0_Layer0_0_MEMBER_18_FILL"/>
</g>

<g transform="matrix( 1, 0, 0, 1, 0,-2.85) ">
<use xlink:href="#Duplicate_Items_Folder_____0_Layer0_0_MEMBER_19_FILL"/>
</g>

<g transform="matrix( 1, 0, 0, 1, 0,0) ">
<use xlink:href="#Duplicate_Items_Folder_____0_Layer0_0_MEMBER_20_FILL"/>
</g>

<g transform="matrix( 1, 0, 0, 1, 0,-2.85) ">
<use xlink:href="#Duplicate_Items_Folder_____0_Layer0_0_MEMBER_21_FILL"/>
</g>

<g transform="matrix( 0.869140625, 0.2328338623046875, -0.2328338623046875, 0.869140625, -27.5,-25) ">
<use xlink:href="#Duplicate_Items_Folder_____0_Layer0_0_MEMBER_22_MEMBER_0_FILL"/>
</g>

<g transform="matrix( 0.869140625, 0.2328338623046875, -0.2328338623046875, 0.869140625, -27.5,-25) ">
<use xlink:href="#Duplicate_Items_Folder_____0_Layer0_0_MEMBER_22_MEMBER_1_FILL"/>
</g>

<g transform="matrix( 0.869140625, 0.2328338623046875, -0.2328338623046875, 0.869140625, -27.5,-25) ">
<use xlink:href="#Duplicate_Items_Folder_____0_Layer0_0_MEMBER_22_MEMBER_2_FILL"/>
</g>

<g transform="matrix( 0.869140625, 0.2328338623046875, -0.2328338623046875, 0.869140625, -27.5,-25) ">
<use xlink:href="#Duplicate_Items_Folder_____0_Layer0_0_MEMBER_22_MEMBER_3_1_STROKES" transform="matrix( 1.073516845703125, -0.2875823974609375, 0.2875823974609375, 1.073516845703125, 36.7,18.9) "/>
</g>

<g transform="matrix( 0.869140625, 0.2328338623046875, -0.2328338623046875, 0.869140625, -27.3,-25) ">
<use xlink:href="#Duplicate_Items_Folder_____0_Layer0_0_MEMBER_22_MEMBER_4_FILL"/>
</g>

<g transform="matrix( 0.8226776123046875, 0.4749603271484375, -0.4749603271484375, 0.8226776123046875, -0.05,-1.45) ">
<use xlink:href="#Duplicate_Items_Folder_____0_Layer0_0_MEMBER_23_FILL"/>
</g>

<g transform="matrix( 1, 0, 0, 1, 0,0) ">
<use xlink:href="#Duplicate_Items_Folder_____0_Layer0_0_MEMBER_24_FILL"/>
</g>

<g transform="matrix( 1, 0, 0, 1, -0.85,-0.65) ">
<use xlink:href="#Duplicate_Items_Folder_____0_Layer0_0_MEMBER_25_FILL"/>
</g>

<g transform="matrix( 1, 0, 0, 1, -0.15,1.45) ">
<use xlink:href="#Duplicate_Items_Folder_____0_Layer0_0_MEMBER_26_FILL"/>
</g>

<g transform="matrix( 1, 0, 0, 1, 0,0) ">
<use xlink:href="#Duplicate_Items_Folder_____0_Layer0_0_MEMBER_27_FILL"/>
</g>

<g transform="matrix( 1.1024627685546875, 0, 0, 1.1024627685546875, 18.8,-9.95) ">
<use xlink:href="#Duplicate_Items_Folder_____0_Layer0_0_MEMBER_28_FILL"/>
</g>

<g transform="matrix( 1.1024627685546875, 0, 0, 1.1024627685546875, 30.35,-10.1) ">
<use xlink:href="#Duplicate_Items_Folder_____0_Layer0_0_MEMBER_29_FILL"/>
</g>
</g>
</g>
</g>
</svg>
