
<svg xmlns="http://www.w3.org/2000/svg" version="1.1" xmlns:xlink="http://www.w3.org/1999/xlink" preserveAspectRatio="none" x="0px" y="0px" width="130px" height="115px" viewBox="0 0 130 115">
<defs>
<g id="icon_r_box_02_83_Layer3_0_FILL">
<path fill="#FFFFFF" fill-opacity="0" stroke="none" d="
M 65 -55
L -65 -55 -65 25 65 25 65 -55 Z"/>
</g>

<g id="icon_r_box_02_83_Layer3_1_FILL">
<path fill="#FFFFFF" fill-opacity="0" stroke="none" d="
M 65.05 49.95
L 65.05 24.95 -64.95 24.95 -64.95 49.95 65.05 49.95 Z"/>
</g>

<g id="icon_r_box_02_83_Layer3_2_FILL">
<path fill="#FFFFFF" fill-opacity="0" stroke="none" d="
M 65 -52.85
L 65 -57.85 -65 -57.85 -65 -52.85 65 -52.85 Z"/>
</g>

<g id="icon_r_box_02_83_Layer3_3_FILL">
<path fill="#FFFFFF" fill-opacity="0" stroke="none" d="
M 65 54.95
L 65 49.95 -65 49.95 -65 54.95 65 54.95 Z"/>
</g>

<g id="icon_r_box_02_83_Layer2_0_MEMBER_1_MEMBER_0_FILL">
<path fill="#0170DA" stroke="none" d="
M 31.5 1.3
Q 25.45 0.05 20.25 3.45 15.1 6.85 13.85 12.95 12.55 19 15.95 24.2
L 40.95 7.7
Q 37.55 2.55 31.5 1.3 Z"/>
</g>

<g id="icon_r_box_02_83_Layer2_0_MEMBER_1_MEMBER_1_FILL">
<path fill="#FFFFFF" stroke="none" d="
M 19.4 21.9
L 37.55 9.95
Q 34.15 4.8 29.05 2.9 24 1 20.25 3.45 16.5 5.95 16.25 11.35 16 16.75 19.4 21.9 Z"/>
</g>

<g id="icon_r_box_02_83_Layer2_0_MEMBER_1_MEMBER_2_FILL">
<path fill="#0170DA" stroke="none" d="
M 26.5 17.25
L 30.45 14.65
Q 27.05 9.5 24.05 6.2 21.05 2.9 20.25 3.45 19.45 4 21.25 8.05 23.1 12.1 26.5 17.25 Z"/>
</g>

<path id="icon_r_box_02_83_Layer2_0_MEMBER_0_MEMBER_0_1_STROKES" stroke="#0170DA" stroke-width="2" stroke-linejoin="round" stroke-linecap="round" fill="none" d="
M 1 29.9
Q 2.6 29.9 4.25 31.4 5.9 32.9 7.55 32.9 9.2 32.9 10.85 31.4 12.5 29.9 14.15 29.9 15.75 29.9 17.4 31.4 19.05 32.9 20.7 32.9 22.35 32.9 24 31.4 25.65 29.9 27.25 29.9 28.9 29.9 30.55 31.4 32.2 32.9 33.85 32.9 35.45 32.9 37.1 31.4 38.75 29.9 40.4 29.9 42.05 29.9 43.7 31.4 45.35 32.9 47 32.9 48.6 32.9 50.25 31.4 51.9 29.9 53.55 29.9"/>

<path id="icon_r_box_02_83_Layer2_0_MEMBER_0_MEMBER_1_1_STROKES" stroke="#0170DA" stroke-width="2" stroke-linejoin="round" stroke-linecap="round" fill="none" d="
M 1 37.3
Q 2.6 37.3 4.25 38.8 5.9 40.3 7.55 40.3 9.2 40.3 10.85 38.8 12.5 37.3 14.15 37.3 15.75 37.3 17.4 38.8 19.05 40.3 20.7 40.3 22.35 40.3 24 38.8 25.65 37.3 27.25 37.3 28.9 37.3 30.55 38.8 32.2 40.3 33.85 40.3 35.45 40.3 37.1 38.8 38.75 37.3 40.4 37.3 42.05 37.3 43.7 38.8 45.35 40.3 47 40.3 48.6 40.3 50.25 38.8 51.9 37.3 53.55 37.3"/>

<path id="icon_r_box_02_83_Layer2_0_MEMBER_1_MEMBER_0_1_STROKES" stroke="#0170DA" stroke-width="2" stroke-linejoin="round" stroke-linecap="round" fill="none" d="
M 15.95 24.2
Q 12.55 19 13.85 12.95 15.1 6.85 20.25 3.45 25.45 0.05 31.5 1.3 37.55 2.55 40.95 7.7
L 15.95 24.2 Z"/>

<path id="icon_r_box_02_83_Layer2_0_MEMBER_1_MEMBER_1_1_STROKES" stroke="#0170DA" stroke-width="2" stroke-linejoin="round" stroke-linecap="round" fill="none" d="
M 19.4 21.9
Q 16 16.75 16.25 11.35 16.5 5.95 20.25 3.45 24 1 29.05 2.9 34.15 4.8 37.55 9.95
L 19.4 21.9 Z"/>

<path id="icon_r_box_02_83_Layer2_0_MEMBER_1_MEMBER_2_1_STROKES" stroke="#0170DA" stroke-width="2" stroke-linejoin="round" stroke-linecap="round" fill="none" d="
M 26.5 17.25
Q 23.1 12.1 21.25 8.05 19.45 4 20.25 3.45 21.05 2.9 24.05 6.2 27.05 9.5 30.45 14.65
L 26.5 17.25 Z"/>

<path id="icon_r_box_02_83_Layer2_0_MEMBER_1_MEMBER_3_MEMBER_0_1_STROKES" stroke="#0170DA" stroke-width="2" stroke-linejoin="round" stroke-linecap="round" fill="none" d="
M 18.8 1.25
L 37.75 30"/>
</defs>

<g transform="matrix( 1, 0, 0, 0.999603271484375, 65,60) ">
<g transform="matrix( 1, 0, 0, 1, 0,0) ">
<use xlink:href="#icon_r_box_02_83_Layer3_0_FILL"/>
</g>

<g transform="matrix( 1, 0, 0, 1, -0.05,0.05) ">
<use xlink:href="#icon_r_box_02_83_Layer3_1_FILL"/>
</g>

<g transform="matrix( 1, 0, 0, 1, 0,-2.15) ">
<use xlink:href="#icon_r_box_02_83_Layer3_2_FILL"/>
</g>

<g transform="matrix( 1, 0, 0, 1, 0,0.05) ">
<use xlink:href="#icon_r_box_02_83_Layer3_3_FILL"/>
</g>

<g transform="matrix( 1, 0, 0, 1, -27.25,-35.65) ">
<use xlink:href="#icon_r_box_02_83_Layer2_0_MEMBER_0_MEMBER_0_1_STROKES"/>
</g>

<g transform="matrix( 1, 0, 0, 1, -27.25,-35.65) ">
<use xlink:href="#icon_r_box_02_83_Layer2_0_MEMBER_0_MEMBER_1_1_STROKES"/>
</g>

<g transform="matrix( 1, 0, 0, 1, -27.25,-35.65) ">
<use xlink:href="#icon_r_box_02_83_Layer2_0_MEMBER_1_MEMBER_0_FILL"/>

<use xlink:href="#icon_r_box_02_83_Layer2_0_MEMBER_1_MEMBER_0_1_STROKES"/>
</g>

<g transform="matrix( 1, 0, 0, 1, -27.25,-35.65) ">
<use xlink:href="#icon_r_box_02_83_Layer2_0_MEMBER_1_MEMBER_1_FILL"/>

<use xlink:href="#icon_r_box_02_83_Layer2_0_MEMBER_1_MEMBER_1_1_STROKES"/>
</g>

<g transform="matrix( 1, 0, 0, 1, -27.25,-35.65) ">
<use xlink:href="#icon_r_box_02_83_Layer2_0_MEMBER_1_MEMBER_2_FILL"/>

<use xlink:href="#icon_r_box_02_83_Layer2_0_MEMBER_1_MEMBER_2_1_STROKES"/>
</g>

<g transform="matrix( 1, 0, 0, 1, -27.25,-35.65) ">
<use xlink:href="#icon_r_box_02_83_Layer2_0_MEMBER_1_MEMBER_3_MEMBER_0_1_STROKES"/>
</g>
</g>
</svg>
