
<svg xmlns="http://www.w3.org/2000/svg" version="1.1" xmlns:xlink="http://www.w3.org/1999/xlink" preserveAspectRatio="none" x="0px" y="0px" width="130px" height="115px" viewBox="0 0 130 115">
<defs>
<filter id="Filter_1" x="-23.324982339993515%" y="-22.490485036127197%" width="146.64996467998702%" height="144.9809700722544%" color-interpolation-filters="sRGB">
<feFlood flood-color="#000000" flood-opacity="1" in="SourceGraphic" result="result1"/>

<feGaussianBlur in="SourceGraphic" stdDeviation="1.6666666666666667,1.6666666666666667" result="result2"/>

<feComposite in2="result2" in="result1" operator="in" result="result3"/>

<feComposite in2="result3" in="SourceGraphic" operator="over" result="result4"/>
</filter>

<g id="icon_r_box_02_5_Layer3_0_FILL">
<path fill="#FFFFFF" fill-opacity="0" stroke="none" d="
M 65 -55
L -65 -55 -65 25 65 25 65 -55 Z"/>
</g>

<g id="icon_r_box_02_5_Layer3_1_FILL">
<path fill="#FFFFFF" fill-opacity="0" stroke="none" d="
M 65.05 49.95
L 65.05 24.95 -64.95 24.95 -64.95 49.95 65.05 49.95 Z"/>
</g>

<g id="icon_r_box_02_5_Layer3_2_FILL">
<path fill="#FFFFFF" fill-opacity="0" stroke="none" d="
M 65 -52.85
L 65 -57.85 -65 -57.85 -65 -52.85 65 -52.85 Z"/>
</g>

<g id="icon_r_box_02_5_Layer3_3_FILL">
<path fill="#FFFFFF" fill-opacity="0" stroke="none" d="
M 65 54.95
L 65 49.95 -65 49.95 -65 54.95 65 54.95 Z"/>
</g>

<g id="Duplicate_Items_Folder_pudding_0_Layer1_0_FILL">
<path fill="#FFFFFF" stroke="none" d="
M 90.95 41.25
Q 90.95 38.45 88.95 36.45 87 34.5 84.2 34.5 81.4 34.5 79.4 36.45 77.45 38.45 77.45 41.25 77.45 42.861328125 78.1 44.2
L 73.55 47.6
Q 73.2 47.3 72.75 47 70.1 45.25 66.45 44.75 64.1 44.45 59.65 44.6
L 55.7 44.85
Q 56 44.45 56.2 44.05 56.7 43 56.7 41.9
L 58.65 41.6
Q 60.7 41.05 61.3 39.65 62.65 36.55 60.8 34.5 61.2 33.7 61.35 32.65 61.75 30.5 60.8 29.15 59.9173828125 27.9142578125 58.6 27.4 58.75 26.8154296875 58.75 26.15 58.75 24 57.25 22.5 56.0333984375 21.2833984375 54.4 21.05 54.6 20.4720703125 54.6 19.8 54.6 18.3 53.55 17.2 52.701953125 16.351953125 51.5 16.2 51.55 15.87421875 51.55 15.55 51.55 12.2 49.2 9.8 47.07578125 7.72109375 44.1 7.5 43.4763671875 5.7763671875 42.05 4.35 39.45 1.75 35.7 1.75 33.5619140625 1.75 31.8 2.6 29.2 0 25.45 0 21.7 0 19.1 2.6 18.687109375 3.020703125 18.35 3.45 17.80390625 3.2677734375 17.2 3.1 13.6 2.1 10.45 3.5 7.15 5 5.8 7.65 4.85 9.45 4.95 11.5 3.8 11.9 2.6 12.95 0.2 15.1 0 18.3 -0.2 20.85 1.6 22.65 3.25 24.3 5.9 24.85
L 6.2 25.55
Q 6.65 26.35 7.3 27 8.55 28.35 10.65 28.75 11.9 29 13 28.95
L 12.4 32.5
Q 7.45 33.15 5.15 34.15 4.1 34.6 3.7 35.15 3 36.2 3 37.65 3 38.5 3.2 39.45 3.75 42 5.3 43.5 10.6 48.5 19.8 47.15
L 20.8 49.95 21.3 51.3
Q 20.75 53.4 22.35 54.3
L 21.8 58.45
Q 21.3 63.2 21.55 66.4 21.85 70.2 23.35 77.4 24.85 84.5 26.6 90.65 25.9 90.75 25.05 91.1 23.4 91.8 22.6 93.05 21.7 94.45 21.95 95.9 22.15 97.2 22.95 97.3
L 31.25 97.3
Q 31.7 97.1 32.05 96.85 32.1 97.1 32.2 97.3 32.45 97.8 32.95 97.85
L 42.3 97.85
Q 44.05 97.15 43.8 95.35
L 43.8 75.1
Q 48.45 74 52.5 72.75 53.1 74.65 53.95 76.65 54.8 78.7 55.55 80.05 55.65 81.15 55.45 90.8 53.4 90.8 51.8 92.55 50.85 93.6 50.85 95.15 50.9 96.75 52.05 96.95 53.75 97.2 57.65 97.1 59.75 97.05 61.05 96.85 61.3 97.5 62.05 97.65 63.75 97.9 67.65 97.8 72.15 97.65 72.8 96.9 73.4 96.25 73.3 94.55 73.25 92.95 73.25 92.35
L 73.2 92
Q 73.35 90.6 74.5 83.55 75.8 75.7 76.45 72.65 77.3 68.7 77.55 63.8 77.85 58.05 77.05 53.65 76.75 51.85 75.95 50.45
L 80.55 46.95
Q 82.1666015625 48 84.2 48 87 48 88.95 46 90.95 44.05 90.95 41.25 Z"/>
</g>

<g id="Duplicate_Items_Folder_pudding_0_Layer0_0_MEMBER_0_FILL">
<path fill="#CF722C" stroke="none" d="
M 118 61.75
Q 118 58.95 116 56.95 114.05 55 111.25 55 108.45 55 106.45 56.95 104.5 58.95 104.5 61.75 104.5 64.55 106.45 66.5 108.45 68.5 111.25 68.5 114.05 68.5 116 66.5 118 64.55 118 61.75 Z"/>
</g>

<g id="Duplicate_Items_Folder_pudding_0_Layer0_0_MEMBER_1_FILL">
<path fill="#FFFFFF" stroke="none" d="
M 79 85.9
Q 78.973828125 85.8529296875 78.95 85.8 78.712890625 86.8408203125 78.45 88 76.75 95.6 76.65 96.45
L 76.7 96.8
Q 76.7 96.9703125 76.7 97.2 77.728515625 96.65 78.9 96.65 79.1 87 79 85.9
M 50.05 96.35
Q 48.4119140625 90.5935546875 47 84
L 46.2 98.5
Q 46.99765625 97.4373046875 48.5 96.8 49.35 96.45 50.05 96.35 Z"/>

<path fill="#CF722C" stroke="none" d="
M 78.95 85.8
Q 78.2203125 84.478515625 77.4 82.5 75.6 78.3 74.9 74.55 70.8783203125 76.3404296875 65.9 77.9 66.5396484375 79.792578125 67.4 81.8 68.25 83.85 69 85.2 69.1 86.3 68.9 95.95 66.85 95.95 65.25 97.7 64.3 98.75 64.3 100.3 64.35 101.9 65.5 102.1 67.2 102.35 71.1 102.25 73.21640625 102.1794921875 74.45 101.95 74.3181640625 101.580078125 74.3 101 74.3 99.45 75.25 98.4 75.9357421875 97.65 76.7 97.2 76.7 96.9703125 76.7 96.8
L 76.65 96.45
Q 76.75 95.6 78.45 88 78.712890625 86.8408203125 78.95 85.8
M 52.6 31.5
L 52.6 30.25
Q 50.6876953125 33.0513671875 47.4 33.4 45.85 33.55 44.1 32.75
L 42.65 31.9
Q 42.3 32.4 41.4 32.95 39.65 34.1 37.15 34.4 34.65 34.7 32.35 33.6
L 30.5 32.4
Q 28.85 33.946875 26.45 34.05
L 25.85 37.65
Q 20.917578125 38.31953125 18.6 39.3
L 20.85 39.1
Q 23.2 39 23.65 39.8 24.25 40.8 22.5 42.85 20.7 44.95 18.8 45.15 18.5 45.1 18 44.8 17.1 44.15 16.45 42.8 16.43125 43.6333984375 16.65 44.6 17.2 47.15 18.75 48.65 24.05 53.65 33.25 52.3
L 34.2 55.05 34.7 56.45
Q 44.7208984375 55.3951171875 52.6 50.3 51.9427734375 49.448828125 51.65 48.3 51.2 46.45 52.4 44.7 53.05 43.8 53.75 43.3 52.65 37.85 52.6 31.5
M 46.6 9.5
Q 44.55 7.1 41.9 6.8 39 6.45 36.65 7.45 34.8 8.2 33.65 9.55 32.45 8.75 30.65 8.25 27.05 7.25 23.9 8.65 20.6 10.15 19.25 12.8 18.3 14.6 18.4 16.65 17.25 17.05 16.05 18.1 13.65 20.25 13.45 23.45 13.25 26 15.05 27.8 16.7 29.45 19.35 30
L 19.65 30.7
Q 20.1 31.5 20.75 32.15 22 33.5 24.1 33.9 25.35 34.134375 26.45 34.05 28.85 33.946875 30.5 32.4
L 32.35 33.6
Q 34.65 34.7 37.15 34.4 39.65 34.1 41.4 32.95 42.3 32.4 42.65 31.9
L 44.1 32.75
Q 45.85 33.55 47.4 33.4 50.6876953125 33.0513671875 52.6 30.25
L 52.75 26.3 52.6 30.25 52.6 31.5
Q 52.65 37.85 53.75 43.3 53.05 43.8 52.4 44.7 51.2 46.45 51.65 48.3 51.9427734375 49.448828125 52.6 50.3 53.38125 51.3455078125 54.7 51.95 54.8021484375 51.996484375 54.9 52.05 57.57265625 53.1294921875 60.75 51.3
L 62.65 52
Q 64.85 52.5 66.65 51.8 68.2 51.2 69.15 50 69.448828125 49.5966796875 69.65 49.15 70.15 48.171875 70.15 47.05
L 72.1 46.75
Q 74.15 46.2 74.75 44.8 76.1 41.7 74.25 39.65 74.65 38.85 74.8 37.8 75.2 35.65 74.25 34.3 73.25 32.9 71.7 32.45 70.75 32.2 69.15 32.3 68.05 30.5 66.2 28.05 62.4 23.2 58.4 19.9 58.55 18.8 58.3 17.4 57.85 14.55 56.15 13.05 54.3 11.45 51.75 11.25 49.7 11.1 48.15 11.8 47.65 10.7 46.6 9.5
M 87 52.75
Q 86.6263671875 52.43828125 86.2 52.15 83.55 50.4 79.9 49.9 77.55 49.6 73.1 49.75
L 69.15 50
Q 68.2 51.2 66.65 51.8 64.85 52.5 62.65 52
L 60.75 51.3
Q 57.57265625 53.1294921875 54.9 52.05 46.99296875 58.455859375 35.8 59.45
L 35.25 63.6
Q 34.75 68.35 35 71.55 35.3 75.35 36.8 82.55 38.3 89.65 40.05 95.8 39.35 95.9 38.5 96.25 36.85 96.95 36.05 98.2 35.15 99.6 35.4 101.05 35.6 102.35 36.4 102.45
L 44.7 102.45
Q 45.1611328125 102.265625 45.45 102 45.4337890625 101.81953125 45.4 101.6 45.15 100.15 46.05 98.75 46.121484375 98.6380859375 46.2 98.5
L 47 84
Q 46.8958984375 83.554296875 46.8 83.1 46.52109375 81.7609375 46.25 80.55 46.2375 80.541796875 46.2 80.5 42.78828125 79.7783203125 39.55 77.65 42.78828125 79.7783203125 46.2 80.5 46.2375 80.541796875 46.25 80.55 46.52109375 81.7609375 46.8 83.1 46.8958984375 83.554296875 47 84 48.4119140625 90.5935546875 50.05 96.35 49.35 96.45 48.5 96.8 46.99765625 97.4373046875 46.2 98.5 46.121484375 98.6380859375 46.05 98.75 45.15 100.15 45.4 101.6 45.4337890625 101.81953125 45.45 102 45.5517578125 102.259765625 45.65 102.45 45.92109375 102.9400390625 46.4 103
L 55.75 103
Q 57.519140625 102.305859375 57.25 100.5
L 57.25 80.25
Q 61.8982421875 79.1498046875 65.9 77.9 70.8783203125 76.3404296875 74.9 74.55 75.6 78.3 77.4 82.5 78.2203125 84.478515625 78.95 85.8 78.973828125 85.8529296875 79 85.9 79.1 87 78.9 96.65 77.728515625 96.65 76.7 97.2 75.9357421875 97.65 75.25 98.4 74.3 99.45 74.3 101 74.3181640625 101.580078125 74.45 101.95 74.7669921875 102.6724609375 75.5 102.8 77.2 103.05 81.1 102.95 85.6 102.8 86.25 102.05 86.85 101.4 86.75 99.7 86.6857421875 98.0947265625 86.65 97.5 86.65 97.16796875 86.65 97.15 86.8 95.75 87.95 88.7 89.25 80.85 89.9 77.8 90.75 73.85 91 68.95 91.3 63.2 90.5 58.8 90.1857421875 57.0193359375 89.35 55.55
L 95.05 51.3
Q 94.8193359375 49.134375 92.8 48.4
L 87 52.75 Z"/>

<path fill="#2187EE" stroke="none" d="
M 34.7 56.45
Q 34.176953125 58.547265625 35.8 59.45 46.99296875 58.455859375 54.9 52.05 54.8021484375 51.996484375 54.7 51.95 53.38125 51.3455078125 52.6 50.3 44.7208984375 55.3951171875 34.7 56.45 Z"/>

<path fill="#412C28" stroke="none" d="
M 17.15 40.3
Q 16.451171875 41.3482421875 16.45 42.8 17.1 44.15 18 44.8 18.5 45.1 18.8 45.15 20.7 44.95 22.5 42.85 24.25 40.8 23.65 39.8 23.2 39 20.85 39.1
L 18.6 39.3
Q 17.55 39.75 17.15 40.3 Z"/>
</g>

<g id="Duplicate_Items_Folder_pudding_0_Layer0_0_MEMBER_2_FILL">
<path fill="#000000" stroke="none" d="
M 18.9 22.25
Q 18.9 21.3 18.55 20.6 18.2 19.9 17.7 19.9 17.2 19.9 16.85 20.6 16.5 21.3 16.5 22.25 16.5 23.2 16.85 23.9 17.2 24.6 17.7 24.6 18.2 24.6 18.55 23.9 18.9 23.2 18.9 22.25 Z"/>
</g>

<g id="Duplicate_Items_Folder_pudding_0_Layer0_0_MEMBER_3_FILL">
<path fill="#000000" stroke="none" d="
M 32.9 37.05
Q 32.9 35.55 32.25 34.4 31.6 33.3 30.65 33.3 29.7 33.3 29.05 34.4 28.4 35.55 28.4 37.05 28.4 37.2068359375 28.4 37.35 30.8546875 37.1150390625 32.9 37.05 Z"/>
</g>

<g id="Duplicate_Items_Folder_pudding_0_Layer0_0_MEMBER_4_FILL">
<path fill="#DEEEFF" stroke="none" d="
M 118 61.75
Q 118 58.95 116 56.95 114.05 55 111.25 55 108.45 55 106.45 56.95 104.5 58.95 104.5 61.75 104.5 64.55 106.45 66.5 108.45 68.5 111.25 68.5 114.05 68.5 116 66.5 118 64.55 118 61.75 Z"/>
</g>

<g id="Duplicate_Items_Folder_pudding_0_Layer0_0_MEMBER_6_FILL">
<path fill="#CF722C" stroke="none" d="
M 108.3 25.35
Q 108.3 21.95 105.9 19.55 103.55 17.2 100.15 17.2 96.75 17.2 94.35 19.55 92 21.95 92 25.35 92 28.75 94.35 31.1 96.75 33.5 100.15 33.5 103.55 33.5 105.9 31.1 108.3 28.75 108.3 25.35 Z"/>
</g>

<g id="Duplicate_Items_Folder_pudding_0_Layer0_0_MEMBER_7_FILL">
<path fill="#CF722C" stroke="none" d="
M 108.3 25.35
Q 108.3 21.95 105.9 19.55 103.55 17.2 100.15 17.2 96.75 17.2 94.35 19.55 92 21.95 92 25.35 92 28.75 94.35 31.1 96.75 33.5 100.15 33.5 103.55 33.5 105.9 31.1 108.3 28.75 108.3 25.35 Z"/>
</g>

<g id="Duplicate_Items_Folder_pudding_0_Layer0_0_MEMBER_8_FILL">
<path fill="#CF722C" stroke="none" d="
M 65 20.7
Q 65 17.35 62.65 14.95 60.3 12.65 56.95 12.65 53.6 12.65 51.2 14.95 50.2744140625 15.9158203125 49.7 17
L 61.4 27.45
Q 62.0529296875 26.9970703125 62.65 26.4 65 24.05 65 20.7 Z"/>
</g>

<g id="Duplicate_Items_Folder_pudding_0_Layer0_0_MEMBER_9_FILL">
<path fill="#CF722C" stroke="none" d="
M 108.3 25.35
Q 108.3 21.95 105.9 19.55 103.55 17.2 100.15 17.2 96.75 17.2 94.35 19.55 92 21.95 92 25.35 92 28.75 94.35 31.1 96.75 33.5 100.15 33.5 103.55 33.5 105.9 31.1 108.3 28.75 108.3 25.35 Z"/>
</g>

<g id="Duplicate_Items_Folder_pudding_0_Layer0_0_MEMBER_10_FILL">
<path fill="#CF722C" stroke="none" d="
M 108.3 25.35
Q 108.3 21.95 105.9 19.55 103.55 17.2 100.15 17.2 96.75 17.2 94.35 19.55 92 21.95 92 25.35 92 28.75 94.35 31.1 96.75 33.5 100.15 33.5 103.55 33.5 105.9 31.1 108.3 28.75 108.3 25.35 Z"/>
</g>

<path id="Duplicate_Items_Folder_pudding_0_Layer1_0_1_STROKES" stroke="#FFFFFF" stroke-width="8" stroke-linejoin="round" stroke-linecap="round" fill="none" d="
M 84.3104736328125 42.3679443359375
Q 84.3104736328125 44.761889648437496 82.6005126953125 46.4291015625 80.93330078125 48.1390625 78.53935546875 48.1390625 76.80083951950074 48.1390625 75.41867675781249 47.24133300781251
L 71.4857666015625 50.23376464843751
Q 72.1697509765625 51.430737304687504 72.42624511718749 52.9697021484375 73.11022949218749 56.731616210937496 72.85373535156249 61.647753906249996 72.63999023437499 65.837158203125 71.9132568359375 69.2143310546875 71.35751953124999 71.822021484375 70.246044921875 78.53361816406249 69.2628173828125 84.56123046874998 69.1345703125 85.758203125
L 69.1773193359375 86.05744628906248
Q 69.1773193359375 86.5704345703125 69.22006835937499 87.93840332031249 69.30556640625001 89.3918701171875 68.79257812499999 89.947607421875 68.23684082031251 90.5888427734375 64.38942871093751 90.71708984374999 61.0550048828125 90.802587890625 59.60153808593749 90.5888427734375 58.96030273437499 90.460595703125 58.74655761718749 89.90485839843748 57.6350830078125 90.07585449218749 55.839624023437494 90.11860351562498 52.5052001953125 90.2041015625 51.05173339843749 89.9903564453125 50.068505859374994 89.8193603515625 50.0257568359375 88.4513916015625 50.0257568359375 87.12617187499998 50.83798828124999 86.22844238281249 52.205957031249994 84.73222656249999 53.9586669921875 84.73222656249999 54.129663085937494 76.4816650390625 54.04416503906249 75.54118652343749 53.40292968749999 74.386962890625 52.6761962890625 72.6342529296875 51.949462890625 70.9242919921875 51.436474609375 69.2998291015625 47.9738037109375 70.3685546875 43.99814453124999 71.30903320312498
L 43.99814453124999 88.62238769531248
Q 44.21188964843749 90.1613525390625 42.71567382812499 90.75983886718748
L 34.7216064453125 90.75983886718748
Q 34.2941162109375 90.71708984374999 34.08037109375 90.28959960937499 33.994873046875 90.11860351562498 33.9521240234375 89.90485839843748 33.652880859374996 90.11860351562498 33.2681396484375 90.28959960937499
L 26.1718017578125 90.28959960937499
Q 25.487817382812498 90.2041015625 25.3168212890625 89.092626953125 25.103076171875 87.8529052734375 25.872558593750004 86.65593261718749 26.556542968749998 85.58720703124999 27.967260742187502 84.98872070312498 28.693994140624998 84.6894775390625 29.292480468750004 84.6039794921875 27.796264648437504 79.345849609375 26.513793945312504 73.27548828125 25.231323242187504 67.11962890625 24.974829101562502 63.870703125000006 24.761083984375002 61.13476562500001 25.188574218750002 57.07360839843751
L 25.658813476562504 53.525439453124996
Q 24.2908447265625 52.75595703125 24.761083984375002 50.960498046874996
L 24.333593750000002 49.80627441406251 23.478613281250002 47.4123291015625
Q 15.61279296875 48.566552734375 11.081396484374999 44.291650390625 9.7561767578125 43.0091796875 9.2859375 40.82897949218751 9.11494140625 40.016748046875 9.11494140625 39.2900146484375 9.11494140625 38.05029296875 9.713427734375 37.1525634765625 10.055419921875 36.682324218750004 10.953149414062501 36.2975830078125 12.9196044921875 35.4426025390625 17.1517578125 34.886865234375
L 17.66474609375 31.8516845703125
Q 16.724267578125 31.89443359375 15.655541992187501 31.6806884765625 13.8600830078125 31.338696289062504 12.791357421874999 30.18447265625 12.235620117187501 29.628735351562504 11.85087890625 28.944750976562503
L 11.594384765625001 28.346264648437504
Q 9.3286865234375 27.876025390625003 7.91796875 26.4653076171875 6.3790039062499995 24.926342773437504 6.55 22.746142578125003 6.72099609375 20.010205078124997 8.77294921875 18.1719970703125 9.798925781249999 17.274267578125 10.7821533203125 16.932275390625 10.6966552734375 15.179565429687498 11.508886718749999 13.6406005859375 12.663110351562501 11.37490234375 15.4845458984375 10.092431640625 18.177734375 8.895458984375 21.2556640625 9.750439453125 21.771992111206057 9.893882465362548 22.2388916015625 10.07105712890625 22.527113533020017 9.68264217376709 22.880126953125004 9.32294921875 25.103076171875 7.1 28.3092529296875 7.1 31.5154296875 7.1 33.73837890625 9.32294921875 35.24478101730347 8.5962158203125 37.072802734375 8.5962158203125 40.2789794921875 8.5962158203125 42.50192871093749 10.819165039062499 43.72144479751587 12.038681125640869 44.27601318359375 13.53372802734375 46.798873519897455 13.701384353637694 48.6150390625 15.478808593750001 50.62424316406249 17.53076171875 50.62424316406249 20.394946289062503 50.62424316406249 20.672146987915042 50.602868652343744 20.95068359375 51.60914058685303 21.080600547790528 52.33420410156249 21.8056640625 53.23193359375 22.746142578125003 53.23193359375 24.028613281250003 53.23193359375 24.603220272064213 53.060937499999994 25.097338867187503 54.45746126174926 25.29688997268677 55.4976318359375 26.337060546875 56.7801025390625 27.61953125 56.7801025390625 29.4577392578125 56.7801025390625 30.026668643951417 56.65185546875 30.547839355468753 57.77819204330444 30.966145229339602 58.53281249999999 32.0226806640625 59.3450439453125 33.176904296875 59.0030517578125 35.0151123046875 58.8748046875 35.912841796875 58.53281249999999 36.596826171875 60.114526367187494 38.349536132812496 58.96030273437499 40.9999755859375 58.447314453125 42.196948242187496 56.694604492187494 42.667187500000004
L 55.027392578125 42.923681640625
Q 55.027392578125 43.86416015625 54.59990234375 44.761889648437496 54.42890625 45.10388183593751 54.172412109375 45.445874023437504
L 57.549584960937494 45.232128906250004
Q 61.35424804687499 45.10388183593751 63.3634521484375 45.3603759765625 66.484130859375 45.7878662109375 68.7498291015625 47.28408203125 69.1345703125 47.540576171874996 69.43381347656249 47.797070312500004
L 73.32397460937499 44.89013671875001
Q 72.7682373046875 43.74559841156006 72.7682373046875 42.3679443359375 72.7682373046875 39.97399902343751 74.43544921875001 38.2640380859375 76.14541015625001 36.596826171875 78.53935546875 36.596826171875 80.93330078125 36.596826171875 82.6005126953125 38.2640380859375 84.3104736328125 39.97399902343751 84.3104736328125 42.3679443359375 Z"/>

<path id="Duplicate_Items_Folder_pudding_0_Layer0_0_MEMBER_1_1_STROKES" stroke="#AA5B1F" stroke-width="1.5" stroke-linejoin="round" stroke-linecap="round" fill="none" d="
M 52.524278259277345 46.98008422851562
Q 53.84926147460938 46.46718750000001 54.66134796142578 45.44139404296875
M 49.10496673583984 47.1510498046875
Q 50.98558807373046 47.57846374511719 52.524278259277345 46.98008422851562
M 47.48079376220703 46.552670288085935
L 49.10496673583984 47.1510498046875
M 42.48005065917968 47.193791198730466
Q 44.76471173763275 48.116571217775345 47.48079376220703 46.552670288085935
M 34.35918579101562 89.55051269531249
Q 34.38806962370872 89.7381741285324 34.42329788208008 89.89244384765625
M 34.91482391357421 87.11425323486328
Q 34.145478820800776 88.31101226806642 34.35918579101562 89.55051269531249
M 35.04304809570313 86.92191696166994
Q 34.975930750370026 87.01858597397803 34.91482391357421 87.11425323486328
M 35.55594482421874 73.73619689941405
Q 35.6379214823246 74.12454253435136 35.72691040039062 74.5055419921875
M 35.10716018676757 71.55638580322265
Q 35.31752798557281 72.5915289402008 35.55594482421874 73.73619689941405
M 35.04304809570313 71.53501510620119
Q 35.07510414123534 71.54937354326249 35.10716018676757 71.55638580322265
M 29.358442687988276 69.07738494873048
Q 32.12661578655242 70.89673249125481 35.04304809570313 71.53501510620119
M 18.160197448730468 31.828260040283205
Q 20.211784362792972 31.718735218048092 21.622250366210938 30.396423339843746
L 23.203681945800785 31.422216796875002
Q 25.16978607177734 32.362527465820314 27.30685577392578 32.1060791015625 29.443925476074217 31.84963073730469 30.939874267578123 30.866578674316408 31.709219360351558 30.396423339843746 32.00840911865234 29.96900939941406
L 33.24790954589844 30.69561309814453
Q 34.743858337402344 31.37947540283203 36.06884155273437 31.25125122070312 38.87925516963004 30.953230172395703 40.53531723022461 28.579914093017575
L 40.64217071533203 25.181973266601563
M 40.53531723022461 28.579914093017575
L 40.513946533203125 29.627078247070312
Q 40.55668792724609 35.05523529052735 41.4969985961914 39.714047241210935 40.898619079589835 40.14146118164062 40.342980957031244 40.91080627441407 39.3171875 42.40675506591798 39.70186004638671 43.98818664550781 39.95213094353676 44.97023695707321 40.513946533203125 45.69784240722656 41.18178081512451 46.59157163500787 42.309085083007815 47.10830841064454 42.396404415369034 47.14804455041886 42.48005065917968 47.193791198730466
M 63.03866119384766 76.04423217773437
Q 62.41490397453309 74.91459048986435 61.71367797851563 73.22330017089844 60.174987792968736 69.63302307128906 59.576608276367196 66.4274185180664 56.13876435160636 67.95792773365976 51.90452804565429 69.29109191894533
M 59.213306427001946 89.87107315063476
Q 59.07923869490624 89.53348292112351 59.063711547851554 89.03761596679688 59.063711547851554 87.71263275146485 59.875798034667966 86.81506347656251 60.46198957562446 86.17394256591798 61.115298461914065 85.81064071655273"/>

<path id="Duplicate_Items_Folder_pudding_0_Layer0_0_MEMBER_3_1_STROKES" stroke="#AA5B1F" stroke-width="1" stroke-linejoin="round" stroke-linecap="round" fill="none" d="
M 26.23832092285156 34.37137298583984
Q 25.06476913094521 34.32178629040718 23.673837280273435 34.37137298583984 21.92544713020325 34.4269701898098 19.827111816406248 34.62782135009766 19.286333006620406 34.69076473116875 18.715835571289066 34.756045532226565 18.47825352549553 34.78426153063775 18.24568023681641 34.820157623291024 17.942149555683134 34.848373621702194 17.647300720214847 34.88426971435547"/>

<path id="Duplicate_Items_Folder_pudding_0_Layer0_0_MEMBER_5_1_STROKES" stroke="#B82E2E" stroke-width="1" stroke-linejoin="round" stroke-linecap="round" fill="none" d="
M 25.810906982421873 43.00513458251953
Q 27.093148803710935 44.62930755615234 29.358442687988276 44.03092803955079 31.666477966308594 43.389807128906256 32.13663330078124 41.16725463867188"/>
</defs>

<g transform="matrix( 1, 0, 0, 0.999603271484375, 65,60) ">
<g transform="matrix( 1, 0, 0, 1, 0,0) ">
<use xlink:href="#icon_r_box_02_5_Layer3_0_FILL"/>
</g>

<g transform="matrix( 1, 0, 0, 1, -0.05,0.05) ">
<use xlink:href="#icon_r_box_02_5_Layer3_1_FILL"/>
</g>

<g transform="matrix( 1, 0, 0, 1, 0,-2.15) ">
<use xlink:href="#icon_r_box_02_5_Layer3_2_FILL"/>
</g>

<g transform="matrix( 1, 0, 0, 1, 0,0.05) ">
<use xlink:href="#icon_r_box_02_5_Layer3_3_FILL"/>
</g>

<g filter="url(#Filter_1)" transform="matrix( 0.9999847412109375, 0, 0, 1.000396728515625, -65,-60) ">
<g transform="matrix( 0.75, 0, 0, 0.74969482421875, 29.9,4.3) ">
<g transform="matrix( 0.85498046875, 0, 0, 0.85498046875, 6.55,7.1) ">
<use xlink:href="#Duplicate_Items_Folder_pudding_0_Layer1_0_FILL"/>

<use xlink:href="#Duplicate_Items_Folder_pudding_0_Layer1_0_1_STROKES" transform="matrix( 1.16961669921875, 0, 0, 1.16961669921875, -7.65,-8.3) "/>
</g>

<g transform="matrix( 0.854827880859375, 0, 0, 0.854827880859375, -16,-9.95) ">
<use xlink:href="#Duplicate_Items_Folder_pudding_0_Layer0_0_MEMBER_0_FILL"/>
</g>

<g transform="matrix( 0.854827880859375, 0, 0, 0.854827880859375, -4.45,2.7) ">
<use xlink:href="#Duplicate_Items_Folder_pudding_0_Layer0_0_MEMBER_1_FILL"/>

<use xlink:href="#Duplicate_Items_Folder_pudding_0_Layer0_0_MEMBER_1_1_STROKES" transform="matrix( 1.1698150634765625, 0, 0, 1.1698150634765625, 5.2,-3.15) "/>
</g>

<g transform="matrix( 1.602935791015625, 0, 0, 1.364044189453125, 3.2,4) ">
<use xlink:href="#Duplicate_Items_Folder_pudding_0_Layer0_0_MEMBER_2_FILL"/>
</g>

<g transform="matrix( 0.854827880859375, 0, 0, 0.854827880859375, -4.45,2.7) ">
<use xlink:href="#Duplicate_Items_Folder_pudding_0_Layer0_0_MEMBER_3_FILL"/>

<use xlink:href="#Duplicate_Items_Folder_pudding_0_Layer0_0_MEMBER_3_1_STROKES" transform="matrix( 1.1698150634765625, 0, 0, 1.1698150634765625, 5.2,-3.15) "/>
</g>

<g transform="matrix( 0.299041748046875, 0, 0, 0.299041748046875, -4,35.5) ">
<use xlink:href="#Duplicate_Items_Folder_pudding_0_Layer0_0_MEMBER_4_FILL"/>
</g>

<g transform="matrix( 0.854827880859375, 0, 0, 0.854827880859375, -4.45,2.7) ">
<use xlink:href="#Duplicate_Items_Folder_pudding_0_Layer0_0_MEMBER_5_1_STROKES" transform="matrix( 1.1698150634765625, 0, 0, 1.1698150634765625, 5.2,-3.15) "/>
</g>

<g transform="matrix( 0.9402923583984375, 0, 0, 0.9402923583984375, -65.4,-8.6) ">
<use xlink:href="#Duplicate_Items_Folder_pudding_0_Layer0_0_MEMBER_6_FILL"/>
</g>

<g transform="matrix( 0.9402923583984375, 0, 0, 0.9402923583984375, -56.65,-7.1) ">
<use xlink:href="#Duplicate_Items_Folder_pudding_0_Layer0_0_MEMBER_7_FILL"/>
</g>

<g transform="matrix( 0.854827880859375, 0, 0, 0.854827880859375, -4.45,2.7) ">
<use xlink:href="#Duplicate_Items_Folder_pudding_0_Layer0_0_MEMBER_8_FILL"/>
</g>

<g transform="matrix( 0.5414886474609375, 0, 0, 0.5414886474609375, -1.4,15.35) ">
<use xlink:href="#Duplicate_Items_Folder_pudding_0_Layer0_0_MEMBER_9_FILL"/>
</g>

<g transform="matrix( 0.381134033203125, 0, 0, 0.381134033203125, 11.85,14.15) ">
<use xlink:href="#Duplicate_Items_Folder_pudding_0_Layer0_0_MEMBER_10_FILL"/>
</g>
</g>
</g>
</g>
</svg>
