
<svg xmlns="http://www.w3.org/2000/svg" version="1.1" xmlns:xlink="http://www.w3.org/1999/xlink" preserveAspectRatio="none" x="0px" y="0px" width="60px" height="60px" viewBox="0 0 60 60">
<defs>
<g id="FL_2vvvttvttvtv_5_Layer2_0_FILL">
<path fill="#FFFFFF" fill-opacity="0" stroke="none" d="
M 60 0
L 0 0 0 60 60 60 60 0 Z"/>
</g>

<g id="FL_2vvvttvttvtv_5_Layer1_0_FILL">
<path fill="#4978FD" stroke="none" d="
M 51.85 29.75
Q 51.85 20.75 45.4 14.3 39.1 7.95 30.05 7.95 21 7.95 14.6 14.3 8.2 20.75 8.2 29.75 8.2 38.8 14.6 45.2 21 51.55 30.05 51.55 39.1 51.55 45.4 45.2 51.85 38.8 51.85 29.75 Z"/>
</g>

<g id="FL_2vvvttvttvtv_5_Layer0_0_MEMBER_0_FILL">
<path fill="#FFFFFF" stroke="none" d="
M 40.5 40.65
Q 41 40.65 41 40.15
L 41 31.15
Q 41 30.65 40.5 30.65
L 23.5 30.65
Q 23 30.65 23 31.15
L 23 40.15
Q 23 40.65 23.5 40.65
L 40.5 40.65
M 36.55 34.15
Q 37.166015625 34.1552734375 37.6 34.6 38.0447265625 35.033984375 38.05 35.65 38.0447265625 36.266015625 37.6 36.7 37.166015625 37.1447265625 36.55 37.15
L 27.3 37.15
Q 26.683984375 37.1447265625 26.25 36.7 25.8052734375 36.266015625 25.8 35.65 25.8052734375 35.033984375 26.25 34.6 26.683984375 34.1552734375 27.3 34.15
L 36.55 34.15
M 49 21.65
Q 49 16.65 44 16.65
L 20 16.65
Q 15 16.65 15 21.65
L 15 29.65
Q 15 34.65 20 34.65
L 20 31.15
Q 20 27.65 23.5 27.65
L 40.5 27.65
Q 44 27.65 44 31.15
L 44 34.65
Q 49 34.65 49 29.65
L 49 21.65
M 44.6 22.35
Q 44.6 23.6 43.75 24.45 42.85 25.35 41.6 25.35 40.35 25.35 39.45 24.45 38.6 23.6 38.6 22.35 38.6 21.05 39.45 20.2 40.35 19.35 41.6 19.35 42.85 19.35 43.75 20.2 44.6 21.05 44.6 22.35
M 41 13.65
L 41 11.05
Q 41 9.05 39 9.05
L 25 9.05
Q 23 9.05 23 11.05
L 23 13.65 41 13.65 Z"/>
</g>
</defs>

<g transform="matrix( 1, 0, 0, 1, 0,0) ">
<g transform="matrix( 1, 0, 0, 1, 0,0) ">
<use xlink:href="#FL_2vvvttvttvtv_5_Layer2_0_FILL"/>
</g>

<g transform="matrix( 1, 0, 0, 1, 0,0) ">
<use xlink:href="#FL_2vvvttvttvtv_5_Layer1_0_FILL"/>
</g>

<g transform="matrix( 0.6999359130859375, 0, 0, 0.6999359130859375, 7.6,12.35) ">
<use xlink:href="#FL_2vvvttvttvtv_5_Layer0_0_MEMBER_0_FILL"/>
</g>
</g>
</svg>
