
<svg xmlns="http://www.w3.org/2000/svg" version="1.1" xmlns:xlink="http://www.w3.org/1999/xlink" preserveAspectRatio="none" x="0px" y="0px" width="60px" height="60px" viewBox="0 0 60 60">
<defs>
<g id="FL_2vvvttvttvtv_0_Layer2_0_FILL">
<path fill="#FFFFFF" fill-opacity="0" stroke="none" d="
M 60 0
L 0 0 0 60 60 60 60 0 Z"/>
</g>

<g id="FL_2vvvttvttvtv_0_Layer1_0_FILL">
<path fill="#CCCCCC" stroke="none" d="
M 51.85 29.75
Q 51.85 20.75 45.4 14.3 39.1 7.95 30.05 7.95 21 7.95 14.6 14.3 8.2 20.75 8.2 29.75 8.2 38.8 14.6 45.2 21 51.55 30.05 51.55 39.1 51.55 45.4 45.2 51.85 38.8 51.85 29.75 Z"/>
</g>

<g id="FL_2vvvttvttvtv_0_Layer0_0_FILL">
<path fill="#FFFFFF" stroke="none" d="
M 40.75 34.9
L 40.75 22.1
Q 40.75 20.3 39.6 19.2 38.55 18.2 37 18.2
L 23.35 18.2
Q 19.25 18.2 19.25 22.25
L 19.25 39.4
Q 19.25 41.45 21.3 41.45
L 34.05 41.45
Q 36.1 41.45 36.1 39.4
L 36.1 38.2 38.4 38.2
Q 39 38.2 39.65 37.6 40.75 36.75 40.75 34.9
M 23.9 23.2
Q 22.05 23.2 22.05 21.7 22.05 20.9 22.7 20.5 23.2 20.2 23.9 20.2
L 36.4 20.2
Q 38.7 20.2 38.7 22.8
L 38.7 33.9
Q 38.75 36.2 36.85 36.15
L 36.1 36.15 36.1 25.45
Q 36.1 24.5 35.5 23.85 34.9 23.2 33.95 23.2
L 23.9 23.2
M 33.5 28.95
Q 33.5 29.95 32.8 30.65 32.1 31.35 31.1 31.35 30.1 31.35 29.4 30.65 28.7 29.95 28.7 28.95 28.7 27.95 29.4 27.25 30.1 26.55 31.1 26.55 32.1 26.55 32.8 27.25 33.5 27.95 33.5 28.95
M 32.3 36.05
Q 32.3931640625 36.35390625 32.25 36.65 32.1724609375 36.9451171875 31.9 37.1 31.66484375 37.3009765625 31.35 37.3
L 22.45 37.3
Q 22.0630859375 37.3041015625 21.75 37.05 21.489453125 36.786328125 21.45 36.4 21.4166015625 36.015234375 21.65 35.7
L 25.2 30.95
Q 25.365625 30.72578125 25.6 30.6 25.892578125 30.5220703125 26.15 30.55 26.45703125 30.6173828125 26.65 30.8
L 32 35.55
Q 32.2541015625 35.7537109375 32.3 36.05 Z"/>
</g>
</defs>

<g transform="matrix( 1, 0, 0, 1, 0,0) ">
<g transform="matrix( 1, 0, 0, 1, 0,0) ">
<use xlink:href="#FL_2vvvttvttvtv_0_Layer2_0_FILL"/>
</g>

<g transform="matrix( 1, 0, 0, 1, 0,0) ">
<use xlink:href="#FL_2vvvttvttvtv_0_Layer1_0_FILL"/>
</g>

<g transform="matrix( 1, 0, 0, 1, 0,0) ">
<use xlink:href="#FL_2vvvttvttvtv_0_Layer0_0_FILL"/>
</g>
</g>
</svg>
