
<svg xmlns="http://www.w3.org/2000/svg" version="1.1" xmlns:xlink="http://www.w3.org/1999/xlink" preserveAspectRatio="none" x="0px" y="0px" width="60px" height="60px" viewBox="0 0 60 60">
<defs>
<g id="Duplicate_Items_Folder_2vvvttvttvtv_9_Layer2_0_FILL">
<path fill="#FFFFFF" fill-opacity="0" stroke="none" d="
M 60 0
L 0 0 0 60 60 60 60 0 Z"/>
</g>

<g id="Duplicate_Items_Folder_2vvvttvttvtv_9_Layer1_0_FILL">
<path fill="#CCCCCC" stroke="none" d="
M 51.85 29.75
Q 51.85 20.75 45.4 14.3 39.1 7.95 30.05 7.95 21 7.95 14.6 14.3 8.2 20.75 8.2 29.75 8.2 38.8 14.6 45.2 21 51.55 30.05 51.55 39.1 51.55 45.4 45.2 51.85 38.8 51.85 29.75 Z"/>
</g>

<g id="Duplicate_Items_Folder_2vvvttvttvtv_9_Layer0_0_FILL">
<path fill="#FFFFFF" stroke="none" d="
M 36.95 22
Q 34.2 19.25 30.3 19.25 26.4 19.25 23.6 22 20.85 24.75 20.85 28.7 20.85 32.6 23.6 35.35 24.1787109375 35.918359375 24.8 36.35 25.0314453125 36.630078125 25.1 36.75 25.4 37.15 25.5 37.65
L 25.55 37.65 25.55 38.35
Q 25.55 38.8 25.9 39.15 26.2 39.45 26.65 39.45
L 34.1 39.45
Q 34.6 39.45 34.9 39.15 35.25 38.8 35.25 38.35
L 35.25 37.2 35.2 37.2
Q 35.3181640625 36.9611328125 35.45 36.75 35.5392578125 36.625 35.8 36.35 36.3958984375 35.9041015625 36.95 35.35 39.7 32.6 39.7 28.7 39.7 24.75 36.95 22
M 26.95 22.5
Q 27.5296875 22.3376953125 28.05 22.6 28.6310546875 22.91015625 28.8 23.5 29.012890625 24.0802734375 28.7 24.6 28.4404296875 25.18046875 27.85 25.35 27.00625 25.6560546875 26.55 26.45 26.5375 26.51015625 26.5 26.55 26.157421875 27.13515625 26.1 27.65 26.063671875 28.2646484375 25.6 28.65 25.1263671875 29.0876953125 24.5 29.05 23.8853515625 29.0142578125 23.45 28.55 23.062890625 28.076171875 23.1 27.45 23.1423828125 26.265234375 23.95 24.95
L 23.95 25
Q 24.99375 23.1439453125 26.95 22.5 Z"/>
</g>

<g id="Duplicate_Items_Folder_2vvvttvttvtv_9_Layer0_0_MEMBER_3_FILL">
<path fill="#FFFFFF" stroke="none" d="
M 619.2 98.05
Q 622.05 98.05 624.25 96.85 625.35 96.25 625.05 95.3 624.75 94.4 623.65 94.4
L 614.85 94.4
Q 613.6 94.4 613.4 95.35 613.2 96.3 614.25 96.85 616.55 98.05 619.2 98.05 Z"/>
</g>

<g id="Duplicate_Items_Folder_2vvvttvttvtv_9_Layer0_0_MEMBER_4_FILL">
<path fill="#FFFFFF" stroke="none" d="
M 1467.5 422.2
Q 1465.3 420 1462.2 420
L 1426.7 420
Q 1423.6 420 1421.4 422.2 1419.2 424.4 1419.2 427.5 1419.2 430.6 1421.4 432.8 1423.6 435 1426.7 435
L 1462.2 435
Q 1465.3 435 1467.5 432.8 1469.7 430.6 1469.7 427.5 1469.7 424.4 1467.5 422.2 Z"/>
</g>

<path id="Duplicate_Items_Folder_2vvvttvttvtv_9_Layer0_0_MEMBER_0_1_STROKES" stroke="#FFFFFF" stroke-width="3" stroke-linejoin="round" stroke-linecap="round" fill="none" d="
M 30.324737548828125 14.879768371582031
L 30.324737548828125 15.722848510742187"/>

<path id="Duplicate_Items_Folder_2vvvttvttvtv_9_Layer0_0_MEMBER_1_1_STROKES" stroke="#FFFFFF" stroke-width="3" stroke-linejoin="round" stroke-linecap="round" fill="none" d="
M 19.316449737548822 19.026598358154303
L 20.72510375976563 20.278827667236328"/>

<path id="Duplicate_Items_Folder_2vvvttvttvtv_9_Layer0_0_MEMBER_2_1_STROKES" stroke="#FFFFFF" stroke-width="3" stroke-linejoin="round" stroke-linecap="round" fill="none" d="
M 40.961490631103516 19.047465515136764
L 39.55275344848633 20.299528503418003"/>

<path id="Duplicate_Items_Folder_2vvvttvttvtv_9_Layer0_0_MEMBER_5_1_STROKES" stroke="#FFFFFF" stroke-width="3" stroke-linejoin="round" stroke-linecap="round" fill="none" d="
M 17.07023162841797 28.974737548828116
L 16.227151489257814 28.974737548828116"/>

<path id="Duplicate_Items_Folder_2vvvttvttvtv_9_Layer0_0_MEMBER_6_1_STROKES" stroke="#FFFFFF" stroke-width="3" stroke-linejoin="round" stroke-linecap="round" fill="none" d="
M 43.82023162841797 28.974737548828116
L 42.977151489257814 28.974737548828116"/>
</defs>

<g transform="matrix( 1, 0, 0, 1, 0,0) ">
<g transform="matrix( 1, 0, 0, 1, 0,0) ">
<use xlink:href="#Duplicate_Items_Folder_2vvvttvttvtv_9_Layer2_0_FILL"/>
</g>

<g transform="matrix( 1, 0, 0, 1, 0,0) ">
<use xlink:href="#Duplicate_Items_Folder_2vvvttvttvtv_9_Layer1_0_FILL"/>
</g>

<g transform="matrix( 1, 0, 0, 1, 0,0) ">
<use xlink:href="#Duplicate_Items_Folder_2vvvttvttvtv_9_Layer0_0_FILL"/>
</g>

<g transform="matrix( 0.1827392578125, 0, 0, 0.154693603515625, -82.8,10.85) ">
<use xlink:href="#Duplicate_Items_Folder_2vvvttvttvtv_9_Layer0_0_MEMBER_0_1_STROKES" transform="matrix( 5.4722747802734375, 0, 0, 6.464385986328125, 453.1,-70.1) "/>
</g>

<g transform="matrix( 0.258514404296875, -0.2297210693359375, 0.2584686279296875, 0.229766845703125, -147.45,155.25) ">
<use xlink:href="#Duplicate_Items_Folder_2vvvttvttvtv_9_Layer0_0_MEMBER_1_1_STROKES" transform="matrix( 1.934478759765625, 1.9340972900390625, -2.1761322021484375, 2.176513671875, 623.05,-52.7) "/>
</g>

<g transform="matrix( -0.2584686279296875, -0.229766845703125, -0.25848388671875, 0.229736328125, 207.7,155.3) ">
<use xlink:href="#Duplicate_Items_Folder_2vvvttvttvtv_9_Layer0_0_MEMBER_2_1_STROKES" transform="matrix( -1.9342803955078125, -1.934539794921875, -2.1763153076171875, 2.1761932373046875, 739.7,63.8) "/>
</g>

<g transform="matrix( 0.54803466796875, 0, 0, 0.60101318359375, -309.05,-14.25) ">
<use xlink:href="#Duplicate_Items_Folder_2vvvttvttvtv_9_Layer0_0_MEMBER_3_FILL"/>
</g>

<g transform="matrix( 0.1625213623046875, 0, 0, 0.1625213623046875, -204.5,-27.2) ">
<use xlink:href="#Duplicate_Items_Folder_2vvvttvttvtv_9_Layer0_0_MEMBER_4_FILL"/>
</g>

<g transform="matrix( 0, 0.1827392578125, -0.154693603515625, 0, 21.1,-84.15) ">
<use xlink:href="#Duplicate_Items_Folder_2vvvttvttvtv_9_Layer0_0_MEMBER_5_1_STROKES" transform="matrix( 0, -6.464385986328125, 5.4722747802734375, 0, 460.45,136.35) "/>
</g>

<g transform="matrix( 0, 0.1827392578125, -0.154693603515625, 0, 47.85,-84.15) ">
<use xlink:href="#Duplicate_Items_Folder_2vvvttvttvtv_9_Layer0_0_MEMBER_6_1_STROKES" transform="matrix( 0, -6.464385986328125, 5.4722747802734375, 0, 460.45,309.3) "/>
</g>
</g>
</svg>
