
<svg xmlns="http://www.w3.org/2000/svg" version="1.1" xmlns:xlink="http://www.w3.org/1999/xlink" preserveAspectRatio="none" x="0px" y="0px" width="60px" height="60px" viewBox="0 0 60 60">
<defs>
<g id="Layer1_0_FILL">
<path fill="#4978FD" stroke="none" d="
M 51.85 29.75
Q 51.85 20.75 45.4 14.3 39.1 7.95 30.05 7.95 21 7.95 14.6 14.3 8.2 20.75 8.2 29.75 8.2 38.8 14.6 45.2 21 51.55 30.05 51.55 39.1 51.55 45.4 45.2 51.85 38.8 51.85 29.75 Z"/>
</g>

<g id="Layer1_1_FILL">
<path fill="#FFFFFF" fill-opacity="0" stroke="none" d="
M 0 0
L 0 60 60 60 60 0 0 0 Z"/>
</g>

<g id="Layer0_0_FILL">
<path fill="#FFFFFF" stroke="none" d="
M 39.85 34.45
L 39.85 31.9 36.55 31.9 36.55 34.45
Q 36.55 36.35 34.65 36.35
L 32.25 36.35 32.25 39.65 34.65 39.65
Q 39.85 39.65 39.85 34.45
M 20.05 31.9
L 20.05 34.45
Q 20.05 39.65 25.2 39.65
L 27.8 39.65 27.8 36.35 25.2 36.35
Q 23.3 36.35 23.3 34.45
L 23.3 31.9 20.05 31.9
M 27.8 19.75
L 25.2 19.75
Q 20.05 19.75 20.05 24.95
L 20.05 27.45 23.3 27.45 23.3 24.95
Q 23.3 23.05 25.2 23.05
L 27.8 23.05 27.8 19.75
M 34.65 19.75
L 32.25 19.75 32.25 23.05 34.65 23.05
Q 36.55 23.05 36.55 24.95
L 36.55 27.45 39.85 27.45 39.85 24.95
Q 39.85 19.75 34.65 19.75 Z"/>
</g>
</defs>

<g transform="matrix( 1, 0, 0, 1, 0,0) ">
<use xlink:href="#Layer1_0_FILL"/>
</g>

<g transform="matrix( 1, 0, 0, 1, 0,0) ">
<use xlink:href="#Layer1_1_FILL"/>
</g>

<g transform="matrix( 1, 0, 0, 1, 0,0) ">
<use xlink:href="#Layer0_0_FILL"/>
</g>
</svg>
