
<svg xmlns="http://www.w3.org/2000/svg" version="1.1" xmlns:xlink="http://www.w3.org/1999/xlink" preserveAspectRatio="none" x="0px" y="0px" width="60px" height="60px" viewBox="0 0 60 60">
<defs>
<g id="FL_2vvvttvttvtv_2_Layer2_0_FILL">
<path fill="#FFFFFF" fill-opacity="0" stroke="none" d="
M 60 0
L 0 0 0 60 60 60 60 0 Z"/>
</g>

<g id="FL_2vvvttvttvtv_2_Layer1_0_FILL">
<path fill="#CCCCCC" stroke="none" d="
M 51.85 29.75
Q 51.85 22.3017578125 47.4 16.6 46.512109375 15.412109375 45.4 14.3 40.844140625 9.7080078125 34.85 8.4 32.55546875 7.95 30.05 7.95 21 7.95 14.6 14.3 8.2 20.75 8.2 29.75 8.2 38.8 14.6 45.2 21 51.55 30.05 51.55 39.1 51.55 45.4 45.2 51.85 38.8 51.85 29.75 Z"/>
</g>

<g id="FL_2vvvttvttvtv_2_Layer0_0_FILL">
<path fill="#FFFFFF" stroke="none" d="
M 41.05 33.8
Q 41.25 32.95 40.5 32.15 39.9 31.55 39.75 31.3 39.5 30.8 39.5 29.8 39.5 28.8 39.75 28.35 39.85 28.2 40.5 27.55 41.25 26.75 41 25.8 40.9 25.35 40.1 23.95 39.4 22.7 38.95 22.35 38.35 21.85 37.3 22.05 36.6 22.3 36.25 22.3 35.65 22.35 34.75 21.75 33.8 21.15 33.55 20.8 33.4 20.6 33.2 19.8 32.85 18.5 30.05 18.5 27.25 18.5 26.9 19.8 26.8 20.25 26.65 20.75 26.45 21.1 25.35 21.75 24.25 22.4 23.75 22.35 23.25 22.2 22.8 22.05 21.8 21.8 21.1 22.4 20.6 22.8 19.9 24 19.15 25.3 19 25.85 18.8 26.75 19.55 27.55 20.25 28.25 20.3 28.35 20.55 28.8 20.55 29.8 20.55 30.85 20.3 31.3 20.2 31.5 19.55 32.2 18.8 32.95 19.05 33.8 19.15 34.15 20 35.55 20.8 36.95 21.15 37.25 21.85 37.9 22.8 37.65 23.75 37.45 23.9 37.45 24.45 37.45 25.35 38 26.3 38.6 26.55 38.95 26.7 39.15 26.9 39.9 27.2 41.05 30.05 41.05 32.9 41.05 33.2 39.9 33.4 39.15 33.55 38.95 33.75 38.65 34.75 38 35.65 37.4 36.25 37.4 36.6 37.45 37.3 37.65 38.3 37.9 39 37.3 39.4 36.9 40.15 35.55 40.95 34.15 41.05 33.8
M 34.35 25.4
Q 36.1 27.15 36.1 29.7 36.1 32.25 34.35 34 32.6 35.75 30.1 35.75 27.55 35.75 25.8 34 24.05 32.25 24.05 29.7 24.05 27.15 25.8 25.4 27.55 23.65 30.1 23.65 32.6 23.65 34.35 25.4 Z"/>
</g>

<g id="FL_2vvvttvttvtv_2_Layer0_1_FILL">
<path fill="#FFFFFF" stroke="none" d="
M 53.35 -0.8
Q 52 -2.15 50.05 -2.15 48.1 -2.15 46.75 -0.8 45.4 0.55 45.4 2.5 45.4 4.45 46.75 5.8 48.1 7.15 50.05 7.15 52 7.15 53.35 5.8 54.7 4.45 54.7 2.5 54.7 0.55 53.35 -0.8 Z"/>
</g>
</defs>

<g transform="matrix( 1, 0, 0, 1, 0,0) ">
<g transform="matrix( 1, 0, 0, 1, 0,0) ">
<use xlink:href="#FL_2vvvttvttvtv_2_Layer2_0_FILL"/>
</g>

<g transform="matrix( 1, 0, 0, 1, 0,0) ">
<use xlink:href="#FL_2vvvttvttvtv_2_Layer1_0_FILL"/>
</g>

<g transform="matrix( 1, 0, 0, 1, 0,0) ">
<use xlink:href="#FL_2vvvttvttvtv_2_Layer0_0_FILL"/>
</g>

<g transform="matrix( 0.56768798828125, 0, 0, 0.56768798828125, 1.6,28.25) ">
<use xlink:href="#FL_2vvvttvttvtv_2_Layer0_1_FILL"/>
</g>
</g>
</svg>
