
<svg xmlns="http://www.w3.org/2000/svg" version="1.1" xmlns:xlink="http://www.w3.org/1999/xlink" preserveAspectRatio="none" x="0px" y="0px" width="36px" height="36px" viewBox="0 0 36 36">
<defs>
<g id="Layer0_0_MEMBER_0_FILL">
<path fill="#FFFFFF" fill-opacity="0" stroke="none" d="
M 873.9 90.95
L 844.5 90.95 844.5 120.35 873.9 120.35 873.9 90.95 Z"/>
</g>

<path id="Layer0_0_MEMBER_1_MEMBER_0_1_STROKES" stroke="#4978FD" stroke-width="4" stroke-linejoin="round" stroke-linecap="round" fill="none" d="
M 22.465756225585938 22.454330444335938
L 26.58341827392578 26.590431213378903"/>

<path id="Layer0_0_MEMBER_1_MEMBER_1_1_STROKES" stroke="#4978FD" stroke-width="4" stroke-linejoin="round" stroke-linecap="square" fill="none" d="
M 21.776997375488282 21.857861328125
Q 19.653111267089844 23.991458129882815 16.664806365966793 23.966741943359374 13.6765022277832 23.991642761230466 11.552550506591796 21.858177185058594 9.42859878540039 19.724711608886718 9.428552246093748 16.698074340820312 9.42850646972656 13.721054077148438 11.552392578124998 11.587457275390623 13.676278686523435 9.453860473632812 16.66458282470703 9.428959655761716 19.652887725830077 9.453675842285154 21.776839447021484 11.58714141845703 23.900791168212887 13.720606994628902 23.900836944580075 16.697627258300777 23.90088348388672 19.72426452636719 21.776997375488282 21.857861328125 Z"/>
</defs>

<g transform="matrix( 1.2244720458984375, 0, 0, 1.2244720458984375, -1034.05,-111.35) ">
<use xlink:href="#Layer0_0_MEMBER_0_FILL"/>
</g>

<g transform="matrix( 0.7223968505859375, 0.7256317138671875, -0.7223968505859375, 0.7256317138671875, 3.25,0.25) ">
<use xlink:href="#Layer0_0_MEMBER_1_MEMBER_0_1_STROKES" transform="matrix( 0.692138671875, -0.692138671875, 0.6890411376953125, 0.6890411376953125, -2.4,2.05) "/>
</g>

<g transform="matrix( 0.4939422607421875, 0.49615478515625, -0.493927001953125, 0.496185302734375, -4.55,3.55) ">
<use xlink:href="#Layer0_0_MEMBER_1_MEMBER_1_1_STROKES" transform="matrix( 1.012298583984375, -1.012237548828125, 1.0076904296875, 1.007720947265625, 1,-8.15) "/>
</g>
</svg>
