
<svg xmlns="http://www.w3.org/2000/svg" version="1.1" xmlns:xlink="http://www.w3.org/1999/xlink" preserveAspectRatio="none" x="0px" y="0px" width="284px" height="275px" viewBox="0 0 284 275">
<defs>
<g id="Symbol_4_0_Layer0_0_MEMBER_0_FILL">
<path fill="#FFFFFF" stroke="none" d="
M 490.85 331
L 490.85 116.1 206.4 116.1 206.4 331 490.85 331 Z"/>
</g>

<g id="wabtawtybyyby_copy_0_Layer4_0_MEMBER_0_MEMBER_0_MEMBER_0_MEMBER_0_FILL">
<path fill="#FFFFFF" fill-opacity="0" stroke="none" d="
M 789.2 222.65
L 789.2 -0.2 -0.4 -0.2 -0.4 222.65 789.2 222.65 Z"/>
</g>

<g id="Mask_wabtawtybyyby_copy_0_3_MASK_0_FILL">
<path fill="#FFFFFF" stroke="none" d="
M 572.1 31.05
Q 572.1 11.05 552.1 11.05
L 72.05 11.05
Q 52.05 11.05 52.05 31.05
L 52.05 321.15
Q 52.05 341.15 72.05 341.15
L 552.1 341.15
Q 572.1 341.15 572.1 321.15
L 572.1 31.05 Z"/>
</g>

<g id="wabtawtybyyby_copy_0_Layer0_0_MEMBER_0_FILL">
<path fill="#DEF3FF" stroke="none" d="
M 51.3 334.1
Q 51.3 349.1 66.3 349.1
L 1169.3 349.1
Q 1184.3 349.1 1184.3 334.1
L 1184.3 14.1
Q 1184.3 -0.9 1169.3 -0.9
L 66.3 -0.9
Q 51.3 -0.9 51.3 14.1
L 51.3 334.1 Z"/>
</g>

<g id="wabtawtybyyby_copy_0_Layer0_0_MEMBER_1_MEMBER_0_FILL">
<path fill="#D9E2F5" fill-opacity="0" stroke="none" d="
M 768.05 -135
L 718.05 -135 718.05 -85 768.05 -85 768.05 -135 Z"/>
</g>

<g id="Symbol_4_0_Layer0_2_FILL">
<path fill="#CCCCCC" stroke="none" d="
M 490.85 391.75
L 490.85 330.95 206.4 330.95 206.4 391.75 490.85 391.75 Z"/>
</g>

<g id="Symbol_3_0_Layer0_0_FILL">
<path fill="#000000" stroke="none" d="
M 176.45 241.15
Q 176.55 241.35 176.65 241.45 176.75 241.55 177.05 241.5 179.75 241 181.95 239.7 184.2 238.45 185.5 236.6 186.05 237.4 186.95 238.2 187.85 238.95 188.95 239.6 190.05 240.25 191.35 240.7 192.6 241.15 193.9 241.35 194.15 241.4 194.25 241.35 194.4 241.25 194.45 241.1
L 195.1 239.5
Q 195.2 239.3 195.1 239.15 195.05 239 194.9 239 193.6 238.75 192.3 238.2 191.05 237.7 189.95 236.95 188.85 236.25 188 235.4 187.15 234.55 186.8 233.65 186.85 233.45 186.85 233.25 186.9 233.05 186.9 232.85 186.95 232.6 186.85 232.5 186.8 232.35 186.5 232.35
L 184.35 232.3
Q 184 232.3 183.95 232.65 183.8 234 183.15 235 182.5 235.95 181.45 236.75 180.4 237.55 179.05 238.1 177.65 238.7 176.1 239.1 175.9 239.15 175.85 239.3 175.75 239.45 175.85 239.6
L 176.45 241.15
M 174.15 228.2
Q 173.8 228.2 173.8 228.55
L 173.8 230.3
Q 173.8 230.45 173.9 230.55 174 230.7 174.15 230.7
L 196.75 230.7
Q 196.9 230.7 197 230.55 197.15 230.4 197.15 230.3
L 197.15 228.55
Q 197.15 228.4 197 228.3 196.9 228.2 196.75 228.2
L 174.15 228.2
M 184.65 217.7
Q 184.65 217.35 184.3 217.35
L 178.7 217.35
Q 177.7 217.35 177.25 217.75 176.8 218.15 176.8 219.05
L 176.8 224.15
Q 176.8 224.95 177.3 225.4 177.85 225.85 178.65 225.9 179.15 225.95 179.95 225.95 180.8 225.95 181.7 225.9 182.55 225.85 183.4 225.75 184.2 225.65 184.7 225.5 184.85 225.5 185 225.35 185.1 225.25 185.05 225
L 184.85 223.55
Q 184.85 223.35 184.7 223.3 184.55 223.2 184.35 223.25 183.9 223.35 183.3 223.4 182.65 223.45 182.05 223.5 181.5 223.55 180.95 223.55 180.45 223.6 180.2 223.55 179.85 223.55 179.75 223.4 179.65 223.3 179.65 223
L 179.65 220.15
Q 179.65 219.7 180.15 219.7
L 184.3 219.7
Q 184.65 219.7 184.65 219.35
L 184.65 217.7
M 188.45 220.15
Q 188.45 219.7 188.95 219.7
L 193.8 219.7
Q 193.95 219.7 194.1 219.6 194.2 219.5 194.2 219.35
L 194.2 217.7
Q 194.2 217.55 194.1 217.45 193.95 217.35 193.8 217.35
L 187.55 217.35
Q 186.55 217.35 186.1 217.7 185.65 218.05 185.65 219.05
L 185.65 224.1
Q 185.65 225 186.1 225.45 186.55 225.95 187.55 225.95
L 194 225.95
Q 194.4 225.95 194.4 225.6
L 194.4 223.95
Q 194.4 223.8 194.3 223.7 194.2 223.6 194 223.6
L 188.95 223.6
Q 188.7 223.6 188.6 223.5 188.45 223.45 188.45 223.15
L 188.45 220.15
M 55 233.95
Q 53.95 233.35 52.4 233.05 50.85 232.7 48.95 232.7 47 232.7 45.45 233.05 43.9 233.35 42.85 233.95 41.8 234.5 41.25 235.35 40.65 236.15 40.65 237.1 40.65 238.1 41.25 238.9 41.8 239.7 42.85 240.3 43.9 240.9 45.45 241.25 47 241.55 48.95 241.55 50.85 241.55 52.4 241.25 53.95 240.9 55 240.3 56.05 239.7 56.65 238.9 57.2 238.1 57.2 237.1 57.2 236.15 56.65 235.35 56.05 234.5 55 233.95
M 48.95 239.35
Q 47.65 239.35 46.65 239.15 45.65 238.95 45 238.65 44.35 238.35 44 237.95 43.65 237.55 43.65 237.15 43.65 236.75 44 236.35 44.35 235.95 45 235.65 45.65 235.3 46.65 235.15 47.65 234.95 48.95 234.95 50.2 234.95 51.2 235.15 52.2 235.3 52.85 235.65 53.5 235.95 53.9 236.35 54.2 236.75 54.2 237.15 54.2 237.55 53.9 237.95 53.5 238.35 52.85 238.65 52.2 238.95 51.2 239.15 50.2 239.35 48.95 239.35
M 41.35 219.9
Q 40.7 220.75 40.7 221.8 40.7 222.95 41.4 223.8 42 224.7 43.2 225.3
L 43.2 228.85 37.6 228.85
Q 37.45 228.85 37.35 228.95 37.25 229.05 37.25 229.2
L 37.25 230.85
Q 37.25 231 37.35 231.1 37.45 231.25 37.6 231.25
L 60.2 231.25
Q 60.35 231.25 60.5 231.1 60.6 231 60.6 230.85
L 60.6 229.2
Q 60.6 229.1 60.5 228.95 60.35 228.85 60.2 228.85
L 54.6 228.85 54.6 225.4
Q 55.85 224.75 56.55 223.85 57.2 222.95 57.2 221.8 57.2 220.75 56.6 219.9 56 219.05 54.9 218.45 53.8 217.85 52.3 217.5 50.8 217.2 49 217.2 47.15 217.2 45.65 217.5 44.15 217.85 43.05 218.45 41.95 219.05 41.35 219.9
M 46.9 219.7
Q 47.85 219.55 49 219.55 50.1 219.55 51.05 219.75 52 219.95 52.65 220.2 53.35 220.55 53.75 220.95 54.1 221.3 54.1 221.8 54.1 222.3 53.75 222.75 53.35 223.15 52.65 223.45 52 223.75 51.05 223.95 50.1 224.1 49 224.1 47.85 224.1 46.9 223.95 45.95 223.75 45.25 223.45 44.6 223.15 44.2 222.75 43.8 222.3 43.8 221.8 43.8 221.3 44.2 220.9 44.6 220.5 45.25 220.2 45.95 219.9 46.9 219.7
M 51.7 226.25
L 51.7 228.85 46.15 228.85 46.15 226.25
Q 46.85 226.35 47.5 226.4 48.2 226.45 49 226.45 49.7 226.45 50.35 226.4 51.05 226.35 51.7 226.25
M 82.8 217.15
Q 82.8 216.8 82.45 216.8
L 80.15 216.8
Q 79.8 216.8 79.8 217.15
L 79.8 225.65 75.9 225.65
Q 75.8 223.95 75.3 222.65 74.8 221.25 74 220.35 73.15 219.4 72.05 218.85 70.95 218.35 69.55 218.35 68.1 218.35 66.9 218.95 65.7 219.55 64.9 220.7 64.1 221.8 63.65 223.4 63.2 224.95 63.2 226.9 63.2 228.8 63.65 230.4 64.1 231.95 64.9 233.1 65.7 234.25 66.9 234.85 68.1 235.5 69.55 235.5 70.95 235.5 72.05 235 73.15 234.45 74 233.5 74.8 232.55 75.3 231.2 75.8 229.8 75.9 228.15
L 79.8 228.15 79.8 241.1
Q 79.8 241.45 80.15 241.45
L 82.45 241.45
Q 82.8 241.45 82.8 241.1
L 82.8 217.15
M 69.55 221
Q 70.4 221 71.05 221.5 71.7 221.95 72.15 222.75 72.55 223.55 72.8 224.65 73.05 225.7 73.05 226.9 73.05 228.1 72.8 229.15 72.55 230.25 72.15 231.05 71.7 231.85 71.05 232.35 70.4 232.85 69.55 232.85 68.75 232.85 68.1 232.35 67.5 231.85 67.05 231.05 66.6 230.25 66.35 229.15 66.15 228.1 66.15 226.9 66.15 225.7 66.35 224.65 66.6 223.55 67.05 222.75 67.5 221.95 68.1 221.5 68.75 221 69.55 221
M 102.8 222.1
Q 102.8 222 102.75 221.9 102.65 221.8 102.5 221.8
L 100.4 221.8
Q 100.25 221.8 100.15 221.9 100.05 222 100.05 222.1
L 100.05 227.55 94.55 227.55
Q 94.45 227.55 94.35 227.65 94.25 227.75 94.25 227.85
L 94.25 229.9
Q 94.25 230 94.35 230.1 94.45 230.2 94.55 230.2
L 100.05 230.2 100.05 235.7
Q 100.05 236 100.4 236
L 102.5 236
Q 102.8 236 102.8 235.7
L 102.8 230.2 108.3 230.2
Q 108.6 230.2 108.6 229.9
L 108.6 227.85
Q 108.6 227.55 108.3 227.55
L 102.8 227.55 102.8 222.1
M 135.4 233.95
Q 134.35 233.35 132.8 233.05 131.25 232.7 129.35 232.7 127.4 232.7 125.85 233.05 124.3 233.35 123.25 233.95 122.2 234.5 121.65 235.35 121.05 236.15 121.05 237.1 121.05 238.1 121.65 238.9 122.2 239.7 123.25 240.3 124.3 240.9 125.85 241.25 127.4 241.55 129.35 241.55 131.25 241.55 132.8 241.25 134.35 240.9 135.4 240.3 136.45 239.7 137.05 238.9 137.6 238.1 137.6 237.1 137.6 236.15 137.05 235.35 136.45 234.5 135.4 233.95
M 131.6 239.15
Q 130.6 239.35 129.35 239.35 128.05 239.35 127.05 239.15 126.05 238.95 125.4 238.65 124.75 238.35 124.4 237.95 124.05 237.55 124.05 237.15 124.05 236.75 124.4 236.35 124.75 235.95 125.4 235.65 126.05 235.3 127.05 235.15 128.05 234.95 129.35 234.95 130.6 234.95 131.6 235.15 132.6 235.3 133.25 235.65 133.9 235.95 134.3 236.35 134.6 236.75 134.6 237.15 134.6 237.55 134.3 237.95 133.9 238.35 133.25 238.65 132.6 238.95 131.6 239.15
M 123.45 218.45
Q 122.35 219.05 121.75 219.9 121.1 220.75 121.1 221.8 121.1 222.95 121.8 223.8 122.4 224.7 123.6 225.3
L 123.6 228.85 118 228.85
Q 117.85 228.85 117.75 228.95 117.65 229.05 117.65 229.2
L 117.65 230.85
Q 117.65 231 117.75 231.1 117.85 231.25 118 231.25
L 140.6 231.25
Q 140.75 231.25 140.9 231.1 141 231 141 230.85
L 141 229.2
Q 141 229.1 140.9 228.95 140.75 228.85 140.6 228.85
L 135 228.85 135 225.4
Q 136.25 224.75 136.95 223.85 137.6 222.95 137.6 221.8 137.6 220.75 137 219.9 136.4 219.05 135.3 218.45 134.2 217.85 132.7 217.5 131.2 217.2 129.4 217.2 127.55 217.2 126.05 217.5 124.55 217.85 123.45 218.45
M 129.4 219.55
Q 130.5 219.55 131.45 219.75 132.4 219.95 133.05 220.2 133.75 220.55 134.15 220.95 134.5 221.3 134.5 221.8 134.5 222.3 134.15 222.75 133.75 223.15 133.05 223.45 132.4 223.75 131.45 223.95 130.5 224.1 129.4 224.1 128.25 224.1 127.3 223.95 126.35 223.75 125.65 223.45 125 223.15 124.6 222.75 124.2 222.3 124.2 221.8 124.2 221.3 124.6 220.9 125 220.5 125.65 220.2 126.35 219.9 127.3 219.7 128.25 219.55 129.4 219.55
M 132.1 226.25
L 132.1 228.85 126.55 228.85 126.55 226.25
Q 127.25 226.35 127.9 226.4 128.6 226.45 129.4 226.45 130.1 226.45 130.75 226.4 131.45 226.35 132.1 226.25
M 152.45 218.85
Q 151.35 218.35 149.95 218.35 148.5 218.35 147.3 218.95 146.1 219.55 145.3 220.7 144.5 221.8 144.05 223.4 143.6 224.95 143.6 226.9 143.6 228.8 144.05 230.4 144.5 231.95 145.3 233.1 146.1 234.25 147.3 234.85 148.5 235.5 149.95 235.5 151.35 235.5 152.45 235 153.55 234.45 154.4 233.5 155.2 232.55 155.7 231.2 156.2 229.8 156.3 228.15
L 160.2 228.15 160.2 241.1
Q 160.2 241.45 160.55 241.45
L 162.85 241.45
Q 163.2 241.45 163.2 241.1
L 163.2 217.15
Q 163.2 216.8 162.85 216.8
L 160.55 216.8
Q 160.2 216.8 160.2 217.15
L 160.2 225.65 156.3 225.65
Q 156.2 223.95 155.7 222.65 155.2 221.25 154.4 220.35 153.55 219.4 152.45 218.85
M 149.95 221
Q 150.8 221 151.45 221.5 152.1 221.95 152.55 222.75 152.95 223.55 153.2 224.65 153.45 225.7 153.45 226.9 153.45 228.1 153.2 229.15 152.95 230.25 152.55 231.05 152.1 231.85 151.45 232.35 150.8 232.85 149.95 232.85 149.15 232.85 148.5 232.35 147.9 231.85 147.45 231.05 147 230.25 146.75 229.15 146.55 228.1 146.55 226.9 146.55 225.7 146.75 224.65 147 223.55 147.45 222.75 147.9 221.95 148.5 221.5 149.15 221 149.95 221
M 93.65 133.6
L 93.65 134.65
Q 93.65 134.75 93.7 134.85 93.8 134.9 93.9 134.9
L 100.05 134.9 100.05 139.35
Q 100.05 139.55 100.25 139.55
L 101.65 139.55
Q 101.9 139.55 101.9 139.35
L 101.9 134.9 107.95 134.9
Q 108.05 134.9 108.15 134.85 108.2 134.75 108.2 134.65
L 108.2 133.6
Q 108.2 133.55 108.15 133.45 108.05 133.35 107.95 133.35
L 93.9 133.35
Q 93.8 133.35 93.7 133.45 93.65 133.55 93.65 133.6
M 91.5 124.7
Q 91.5 124.5 91.25 124.5
L 89.85 124.5
Q 89.6 124.5 89.6 124.7
L 89.6 139.45
Q 89.6 139.7 89.85 139.7
L 91.25 139.7
Q 91.5 139.7 91.5 139.45
L 91.5 124.7
M 97.65 129.25
Q 97.65 129.15 97.7 129.1 97.7 129.05 97.85 129.05
L 104.9 129.05
Q 105.55 129.05 105.8 128.85 106 128.7 106 128.1
L 106 125.75
Q 106 125.2 105.8 125 105.55 124.8 104.9 124.8
L 96.05 124.8
Q 95.95 124.8 95.9 124.85 95.8 124.9 95.8 125
L 95.8 126.1
Q 95.8 126.2 95.9 126.25 95.95 126.3 96.05 126.3
L 104 126.3
Q 104.1 126.3 104.15 126.35 104.2 126.35 104.2 126.5
L 104.2 127.3
Q 104.2 127.45 104.15 127.5 104.1 127.6 104 127.6
L 96.9 127.6
Q 96.25 127.6 96.05 127.85 95.8 128.1 95.8 128.6
L 95.8 130.95
Q 95.8 131.45 96.05 131.7 96.3 131.9 96.9 131.9
L 106.15 131.9
Q 106.2 131.9 106.25 131.85 106.35 131.75 106.35 131.65
L 106.35 130.6
Q 106.35 130.5 106.25 130.45 106.2 130.4 106.1 130.4
L 97.7 130.4
Q 97.65 130.35 97.65 130.2
L 97.65 129.25
M 152.45 124.7
Q 152.45 124.5 152.2 124.5
L 150.8 124.5
Q 150.55 124.5 150.55 124.7
L 150.55 130.05 147.6 130.05
Q 147.5 130.05 147.45 130.1 147.35 130.15 147.35 130.25
L 147.35 131.4
Q 147.35 131.45 147.45 131.5 147.5 131.55 147.6 131.55
L 150.55 131.55 150.55 139.45
Q 150.55 139.7 150.8 139.7
L 152.2 139.7
Q 152.45 139.7 152.45 139.45
L 152.45 124.7
M 122 124.7
Q 122 124.5 121.8 124.5
L 120.35 124.5
Q 120.15 124.5 120.15 124.7
L 120.15 129.9 117.7 129.9
Q 117.65 128.9 117.35 128.05 117 127.25 116.5 126.65 116 126.05 115.3 125.75 114.6 125.45 113.75 125.45 112.85 125.45 112.1 125.8 111.35 126.2 110.85 126.85 110.35 127.55 110.05 128.55 109.8 129.5 109.8 130.7 109.8 131.9 110.05 132.85 110.35 133.85 110.85 134.55 111.35 135.25 112.1 135.6 112.85 136 113.75 136 114.6 136 115.3 135.7 116 135.35 116.5 134.8 117 134.2 117.35 133.35 117.65 132.5 117.7 131.45
L 120.15 131.45 120.15 139.45
Q 120.15 139.7 120.35 139.7
L 121.8 139.7
Q 122 139.7 122 139.45
L 122 124.7
M 113.75 127.05
Q 114.3 127.05 114.7 127.35 115.1 127.65 115.35 128.15 115.65 128.65 115.8 129.3 115.95 130 115.95 130.7 115.95 131.45 115.8 132.1 115.65 132.75 115.35 133.25 115.1 133.75 114.7 134.1 114.3 134.4 113.75 134.4 113.25 134.4 112.85 134.1 112.45 133.75 112.2 133.25 111.9 132.75 111.75 132.1 111.6 131.45 111.6 130.7 111.6 130 111.75 129.3 111.9 128.65 112.2 128.15 112.45 127.65 112.85 127.35 113.25 127.05 113.75 127.05
M 132.2 127.35
Q 132.25 127.2 132.3 126.95 132.3 126.75 132.3 126.55 132.3 126.15 131.95 125.9 131.6 125.7 131 125.7
L 125.7 125.7
Q 125.5 125.7 125.5 125.9
L 125.5 127
Q 125.5 127.1 125.55 127.15 125.6 127.2 125.7 127.2
L 129.85 127.2
Q 130.15 127.2 130.2 127.3 130.25 127.4 130.15 127.65 129.95 128.5 129.45 129.45 128.9 130.4 128.15 131.3 127.45 132.2 126.5 133 125.6 133.8 124.55 134.45 124.45 134.5 124.4 134.65 124.3 134.75 124.45 134.9
L 125.05 135.75
Q 125.15 135.85 125.3 135.9 125.45 135.9 125.55 135.8 126.8 135.05 127.8 134.15 128.85 133.2 129.65 132.2 129.95 132.6 130.4 133.1 130.8 133.55 131.2 133.95 131.6 134.4 132.05 134.75 132.4 135.05 132.7 135.25 133.05 135.45 133.25 135.25
L 133.95 134.45
Q 134.05 134.3 134 134.2 133.95 134.05 133.85 134 133.5 133.75 133.1 133.35 132.65 133 132.2 132.55 131.8 132.1 131.4 131.65 131 131.2 130.7 130.8 131.2 129.9 131.6 129.05 132 128.2 132.2 127.35
M 140.5 127
Q 140.5 127.2 140.75 127.2
L 145.2 127.2
Q 145.5 127.2 145.65 127.35 145.75 127.45 145.65 127.75 145.2 129.95 143.85 131.8 142.45 133.6 140.05 135.05 139.9 135.1 139.9 135.2 139.85 135.35 139.95 135.45
L 140.5 136.3
Q 140.6 136.45 140.75 136.45 140.9 136.5 141 136.4 143.9 134.75 145.6 132.4 147.3 130 147.55 126.9 147.6 126.25 147.35 126 147.15 125.7 146.4 125.7
L 140.75 125.7
Q 140.5 125.7 140.5 125.85
L 140.5 127
M 137.1 124.7
Q 137.1 124.5 136.85 124.5
L 135.45 124.5
Q 135.35 124.5 135.3 124.55 135.2 124.6 135.2 124.7
L 135.2 139.45
Q 135.2 139.55 135.3 139.6 135.35 139.7 135.45 139.7
L 136.85 139.7
Q 137.1 139.7 137.1 139.45
L 137.1 124.7
M 11.65 159.45
Q 10.9 159.15 10.2 158.7 9.5 158.2 8.9 157.65 8.35 157.05 8.1 156.45 8.15 156.3 8.15 156.15 8.15 156.05 8.15 155.9 8.2 155.8 8.15 155.7 8.1 155.6 7.9 155.6
L 6.6 155.55
Q 6.35 155.55 6.3 155.8 6.25 156.6 5.85 157.25 5.45 157.9 4.8 158.45 4.15 158.95 3.3 159.35 2.4 159.75 1.45 160 1.2 160.1 1.3 160.35
L 1.65 161.3
Q 1.7 161.5 2.05 161.45 2.85 161.35 3.6 161.05 4.4 160.75 5.05 160.3 5.75 159.9 6.3 159.4 6.85 158.85 7.25 158.25 7.65 158.8 8.2 159.35 8.75 159.85 9.45 160.25 10.15 160.7 10.9 161 11.7 161.3 12.5 161.4 12.8 161.45 12.9 161.25
L 13.3 160.25
Q 13.35 160.1 13.3 160.05 13.2 159.95 13.15 159.9 12.45 159.8 11.65 159.45
M 14.3 154.5
Q 14.4 154.5 14.45 154.4 14.55 154.35 14.55 154.25
L 14.55 153.2
Q 14.55 153.15 14.45 153.05 14.4 153 14.3 153
L 7.65 153 7.65 150.35
Q 7.65 150.15 7.45 150.15
L 6.05 150.15
Q 5.8 150.15 5.8 150.35
L 5.8 153 0.25 153
Q 0.15 153 0.05 153.05 0 153.1 0 153.2
L 0 154.25
Q 0 154.35 0.05 154.4 0.15 154.5 0.25 154.5
L 14.3 154.5
M 24.5 126.7
Q 24.6 126.7 24.7 126.65 24.75 126.6 24.75 126.5
L 24.75 125.45
Q 24.75 125.25 24.5 125.25
L 21.7 125.25
Q 21.1 125.25 20.85 125.5 20.65 125.7 20.65 126.25
L 20.65 132.05
Q 20.65 132.55 20.95 132.85 21.25 133.2 21.7 133.2 22.1 133.25 22.65 133.2 23.15 133.2 23.65 133.15 24.2 133.1 24.65 133.05 25.1 132.95 25.4 132.85 25.5 132.8 25.55 132.75 25.65 132.7 25.6 132.55
L 25.45 131.7
Q 25.4 131.45 25.15 131.5 24.9 131.55 24.6 131.6 24.25 131.65 23.9 131.7 23.55 131.75 23.25 131.75 22.95 131.75 22.75 131.75 22.5 131.75 22.45 131.7 22.4 131.65 22.4 131.45
L 22.4 127
Q 22.4 126.7 22.7 126.7
L 24.5 126.7
M 28.25 124.5
L 26.85 124.5
Q 26.65 124.5 26.65 124.7
L 26.65 128.4 24.05 128.4
Q 24 128.4 23.9 128.45 23.85 128.5 23.85 128.6
L 23.85 129.65
Q 23.85 129.7 23.9 129.75 24 129.85 24.05 129.85
L 26.65 129.85 26.65 135.05
Q 26.65 135.25 26.85 135.25
L 28.25 135.25
Q 28.45 135.25 28.45 135.05
L 28.45 124.7
Q 28.45 124.5 28.25 124.5
M 2.45 148.3
Q 2.5 148.35 2.6 148.35
L 10.1 148.35
Q 10.35 148.35 10.45 148.4 10.55 148.5 10.55 148.7 10.55 148.95 10.5 149.35 10.5 149.75 10.45 150.2 10.45 150.65 10.4 151.05 10.35 151.45 10.3 151.75 10.25 152.05 10.45 152.1
L 11.7 152.2
Q 11.85 152.2 11.95 152.1 12.05 152 12.05 151.9 12.1 151.65 12.2 151.1 12.25 150.55 12.3 149.95 12.35 149.35 12.4 148.8 12.4 148.25 12.4 147.9 12.4 147.35 12.1 147.1 11.75 146.85 11.35 146.85
L 2.6 146.85
Q 2.5 146.85 2.45 146.9 2.35 146.95 2.35 147.05
L 2.35 148.15
Q 2.35 148.25 2.45 148.3
M 18.9 134.55
Q 18.8 134.55 18.7 134.6 18.65 134.7 18.65 134.8
L 18.65 138.25
Q 18.65 138.9 18.9 139.15 19.15 139.4 19.9 139.4
L 28.65 139.4
Q 28.75 139.4 28.8 139.35 28.9 139.3 28.9 139.2
L 28.9 138.1
Q 28.9 138 28.8 137.95 28.75 137.85 28.65 137.85
L 20.8 137.85
Q 20.65 137.85 20.6 137.8 20.5 137.8 20.5 137.6
L 20.5 134.8
Q 20.5 134.7 20.45 134.6 20.35 134.55 20.25 134.55
L 18.9 134.55
M 12.95 124.5
L 11.5 124.5
Q 11.3 124.5 11.3 124.7
L 11.3 129.9 8.85 129.9
Q 8.8 128.9 8.5 128.05 8.15 127.25 7.65 126.65 7.15 126.05 6.45 125.75 5.75 125.45 4.9 125.45 4 125.45 3.25 125.8 2.5 126.2 2 126.85 1.5 127.55 1.2 128.55 0.95 129.5 0.95 130.7 0.95 131.9 1.2 132.85 1.5 133.85 2 134.55 2.5 135.25 3.25 135.6 4 136 4.9 136 5.75 136 6.45 135.7 7.15 135.35 7.65 134.8 8.15 134.2 8.5 133.35 8.8 132.5 8.85 131.45
L 11.3 131.45 11.3 139.45
Q 11.3 139.7 11.5 139.7
L 12.95 139.7
Q 13.15 139.7 13.15 139.45
L 13.15 124.7
Q 13.15 124.5 12.95 124.5
M 5.85 127.35
Q 6.25 127.65 6.5 128.15 6.8 128.65 6.95 129.3 7.1 130 7.1 130.7 7.1 131.45 6.95 132.1 6.8 132.75 6.5 133.25 6.25 133.75 5.85 134.1 5.45 134.4 4.9 134.4 4.4 134.4 4 134.1 3.6 133.75 3.35 133.25 3.05 132.75 2.9 132.1 2.75 131.45 2.75 130.7 2.75 130 2.9 129.3 3.05 128.65 3.35 128.15 3.6 127.65 4 127.35 4.4 127.05 4.9 127.05 5.45 127.05 5.85 127.35
M 20.15 125.45
Q 20.15 125.25 19.9 125.25
L 17.3 125.25
Q 16.7 125.25 16.45 125.5 16.2 125.7 16.2 126.25
L 16.2 132.2
Q 16.2 132.65 16.55 132.9 16.9 133.15 17.3 133.2 17.55 133.2 17.9 133.2 18.3 133.2 18.7 133.2 19.05 133.15 19.45 133.1 19.85 133.05 20.05 133 20.15 132.95 20.25 132.9 20.3 132.85 20.3 132.7
L 20.2 131.85
Q 20.15 131.75 20.1 131.7 20 131.65 19.9 131.7 19.7 131.7 19.5 131.75 19.25 131.75 19.05 131.8 18.8 131.8 18.6 131.8 18.35 131.8 18.25 131.8 18.05 131.75 18 131.7 17.95 131.6 17.95 131.45
L 17.95 127
Q 17.95 126.7 18.25 126.7
L 19.9 126.7
Q 20 126.7 20.1 126.65 20.15 126.6 20.15 126.5
L 20.15 125.45
M 67.25 124.5
L 65.85 124.5
Q 65.6 124.5 65.6 124.7
L 65.6 139.45
Q 65.6 139.7 65.85 139.7
L 67.25 139.7
Q 67.5 139.7 67.5 139.45
L 67.5 124.7
Q 67.5 124.5 67.25 124.5
M 80.55 126.85
Q 80.05 127.55 79.8 128.55 79.5 129.5 79.5 130.7 79.5 131.9 79.8 132.85 80.05 133.85 80.55 134.55 81.1 135.25 81.8 135.6 82.55 136 83.5 136 84.45 136 85.15 135.6 85.9 135.25 86.4 134.55 86.9 133.85 87.2 132.9 87.45 131.9 87.45 130.7 87.45 129.5 87.2 128.55 86.9 127.55 86.4 126.85 85.9 126.2 85.15 125.8 84.45 125.45 83.5 125.45 82.55 125.45 81.8 125.8 81.1 126.2 80.55 126.85
M 81.5 129.3
Q 81.65 128.65 81.9 128.15 82.2 127.65 82.55 127.35 82.95 127.1 83.5 127.1 84 127.1 84.4 127.35 84.8 127.65 85.1 128.15 85.35 128.65 85.5 129.3 85.65 130 85.65 130.7 85.65 131.45 85.5 132.1 85.35 132.75 85.1 133.25 84.8 133.75 84.4 134.05 84 134.35 83.5 134.35 82.95 134.35 82.55 134.05 82.2 133.75 81.9 133.25 81.65 132.75 81.5 132.1 81.35 131.45 81.35 130.7 81.35 130 81.5 129.3
M 46.9 125.85
Q 46.35 125.4 45.65 125.1 44.95 124.85 44.05 124.85 43.15 124.85 42.45 125.1 41.75 125.4 41.25 125.85 40.75 126.35 40.5 127 40.25 127.65 40.25 128.4 40.25 129.15 40.5 129.8 40.75 130.4 41.25 130.9 41.75 131.35 42.45 131.6 43.15 131.9 44.05 131.9 44.95 131.9 45.65 131.6 46.35 131.35 46.9 130.9 47.4 130.4 47.65 129.8 47.95 129.15 47.95 128.4 47.95 127.65 47.65 127 47.4 126.35 46.9 125.85
M 46.15 129.25
Q 45.95 129.6 45.7 129.9 45.4 130.15 45 130.3 44.55 130.45 44.05 130.45 43.05 130.45 42.45 129.9 41.9 129.3 41.9 128.4 41.9 127.5 42.45 126.9 43.05 126.3 44.05 126.3 45.1 126.3 45.7 126.9 46.3 127.5 46.3 128.4 46.3 128.85 46.15 129.25
M 51.9 133.4
Q 51.7 133.2 51.05 133.2
L 42.85 133.2
Q 42.8 133.2 42.7 133.25 42.6 133.35 42.6 133.4
L 42.6 134.45
Q 42.6 134.55 42.7 134.6 42.8 134.65 42.85 134.65
L 50.1 134.65
Q 50.25 134.65 50.3 134.7 50.3 134.75 50.3 134.9
L 50.3 135.5
Q 50.3 135.65 50.3 135.7 50.25 135.75 50.15 135.75
L 43.75 135.75
Q 43.1 135.75 42.9 135.95 42.65 136.2 42.65 136.7
L 42.65 138.65
Q 42.65 139.15 42.9 139.4 43.1 139.65 43.75 139.65
L 52.35 139.65
Q 52.4 139.65 52.45 139.55 52.55 139.5 52.55 139.45
L 52.55 138.4
Q 52.55 138.3 52.45 138.25 52.4 138.15 52.3 138.15
L 44.55 138.15
Q 44.5 138.15 44.5 138
L 44.5 137.3
Q 44.5 137.2 44.55 137.15 44.55 137.1 44.7 137.1
L 51.05 137.1
Q 51.7 137.1 51.9 136.9 52.15 136.7 52.15 136.15
L 52.15 134.2
Q 52.15 133.65 51.9 133.4
M 52.15 124.7
Q 52.15 124.5 51.95 124.5
L 50.5 124.5
Q 50.3 124.5 50.3 124.7
L 50.3 132.25
Q 50.3 132.45 50.5 132.45
L 51.95 132.45
Q 52.15 132.45 52.15 132.25
L 52.15 124.7
M 57.8 125.8
Q 57.1 126.2 56.55 126.85 56.05 127.55 55.8 128.55 55.5 129.5 55.5 130.7 55.5 131.9 55.8 132.85 56.05 133.85 56.55 134.55 57.1 135.25 57.8 135.6 58.55 136 59.5 136 60.45 136 61.15 135.6 61.9 135.25 62.4 134.55 62.9 133.85 63.2 132.9 63.45 131.9 63.45 130.7 63.45 129.5 63.2 128.55 62.9 127.55 62.4 126.85 61.9 126.2 61.15 125.8 60.45 125.45 59.5 125.45 58.55 125.45 57.8 125.8
M 57.5 129.3
Q 57.65 128.65 57.9 128.15 58.2 127.65 58.55 127.35 58.95 127.1 59.5 127.1 60 127.1 60.4 127.35 60.8 127.65 61.1 128.15 61.35 128.65 61.5 129.3 61.65 130 61.65 130.7 61.65 131.45 61.5 132.1 61.35 132.75 61.1 133.25 60.8 133.75 60.4 134.05 60 134.35 59.5 134.35 58.95 134.35 58.55 134.05 58.2 133.75 57.9 133.25 57.65 132.75 57.5 132.1 57.35 131.45 57.35 130.7 57.35 130 57.5 129.3
M 111.6 10.05
Q 111.95 10.25 112.1 9.95
L 113.05 8.45
Q 113.25 8.15 112.95 8 112.25 7.65 111.35 7.15 110.5 6.6 109.7 5.95 110.7 4.6 111.25 3.2 111.6 2.2 111.3 1.65 111.05 1.05 109.9 1.05
L 103.2 1.05
Q 102.85 1.05 102.85 1.45
L 102.85 2.9
Q 102.85 3.1 102.9 3.2 102.95 3.3 103.2 3.3
L 107.7 3.3
Q 108.05 3.3 108.05 3.45 108.05 3.6 107.9 3.9 107.6 4.5 107.05 5.2 106.5 5.85 105.75 6.55 104.95 7.2 104.05 7.8 103.1 8.45 102.1 8.9 101.65 9.1 101.85 9.45
L 102.6 10.8
Q 102.7 11 102.8 11.05 102.95 11.1 103.3 10.95 104.7 10.35 105.9 9.5 107.15 8.7 108.15 7.7 108.6 8.1 109.1 8.45 109.55 8.8 110.05 9.1 110.5 9.45 110.9 9.7 111.3 9.9 111.6 10.05
M 115 12.3
Q 114.15 11.8 113.05 11.5 111.95 11.2 110.75 11.2 109.45 11.2 108.35 11.5 107.3 11.8 106.5 12.3 105.7 12.85 105.2 13.5 104.75 14.2 104.75 15 104.75 15.85 105.2 16.55 105.7 17.25 106.5 17.8 107.3 18.3 108.35 18.6 109.45 18.9 110.75 18.9 111.95 18.9 113.05 18.6 114.15 18.3 115 17.8 115.8 17.25 116.3 16.55 116.8 15.85 116.8 15 116.8 14.2 116.3 13.5 115.8 12.8 115 12.3
M 108.4 13.85
Q 109.25 13.35 110.75 13.35 111.4 13.35 112 13.5 112.6 13.65 113.05 13.9 113.45 14.15 113.7 14.45 113.95 14.75 113.95 15.1 113.95 15.4 113.7 15.7 113.45 16 113.05 16.25 112.6 16.45 112 16.6 111.45 16.75 110.75 16.75 109.25 16.75 108.4 16.25 107.6 15.75 107.6 15.1 107.6 14.4 108.4 13.85
M 116.6 4.5
L 116.6 0.35
Q 116.6 0.15 116.5 0.05 116.45 0 116.25 0
L 114.25 0
Q 114 0 113.9 0.05 113.85 0.15 113.85 0.35
L 113.85 10.3
Q 113.85 10.7 114.25 10.7
L 116.25 10.7
Q 116.6 10.7 116.6 10.35
L 116.6 6.7 119.05 6.7
Q 119.45 6.7 119.45 6.3
L 119.45 4.85
Q 119.45 4.55 119.35 4.55 119.2 4.5 119.05 4.5
L 116.6 4.5
M 127.5 9.2
Q 127.4 9.25 127.4 9.5
L 127.4 13.3 120.3 13.3
Q 120.05 13.3 120 13.4 119.95 13.5 119.95 13.75
L 119.95 15.15
Q 119.95 15.3 120 15.45 120.05 15.55 120.3 15.55
L 137.3 15.55
Q 137.7 15.55 137.7 15.15
L 137.7 13.75
Q 137.7 13.3 137.3 13.3
L 130.15 13.3 130.15 9.5
Q 130.15 9.25 130.05 9.2 130 9.1 129.75 9.1
L 127.8 9.1
Q 127.55 9.1 127.5 9.2
M 136.5 7.85
Q 136.5 7.75 136.25 7.65 135.15 7.35 134.15 6.8 133.2 6.3 132.35 5.6 131.5 4.95 130.9 4.1 130.3 3.25 130.05 2.25 130.1 1.8 130.15 1.25 130.2 0.95 130.15 0.85 130.05 0.8 129.7 0.75
L 127.85 0.6
Q 127.55 0.6 127.45 0.7 127.4 0.8 127.35 1 127.2 2.35 126.75 3.4 126.3 4.45 125.55 5.3 124.8 6.15 123.7 6.85 122.6 7.55 121.15 8.05 120.8 8.2 121.05 8.65
L 121.85 10
Q 121.95 10.2 122.05 10.25 122.15 10.3 122.4 10.2 124.45 9.5 126.15 8.3 127.8 7.1 128.85 5.45 129.35 6.25 130.1 7 130.85 7.7 131.65 8.25 132.55 8.85 133.45 9.25 134.35 9.7 135.2 9.9 135.45 9.95 135.5 9.9 135.55 9.85 135.6 9.8 135.6 9.75 135.7 9.6
L 136.4 8.2
Q 136.5 7.95 136.5 7.85
M 189.75 124.5
Q 189.55 124.5 189.55 124.7
L 189.55 132.25
Q 189.55 132.45 189.75 132.45
L 191.2 132.45
Q 191.4 132.45 191.4 132.25
L 191.4 124.7
Q 191.4 124.5 191.2 124.5
L 189.75 124.5
M 164 133.05
Q 163.9 132.95 163.7 133 163.05 133.15 162.3 133.3 161.55 133.45 160.75 133.5 159.95 133.6 159.2 133.65 158.5 133.65 157.9 133.6 157.75 133.6 157.7 133.55 157.6 133.5 157.6 133.35
L 157.6 125.65
Q 157.6 125.55 157.55 125.5 157.45 125.4 157.35 125.4
L 156 125.4
Q 155.9 125.4 155.85 125.5 155.75 125.55 155.75 125.65
L 155.75 133.95
Q 155.75 134.5 156 134.8 156.3 135.1 156.95 135.2 157.6 135.25 158.6 135.2 159.55 135.15 160.55 135.05 161.55 134.95 162.45 134.8 163.4 134.65 164 134.45 164.15 134.45 164.2 134.35 164.3 134.25 164.25 134.15
L 164.1 133.25
Q 164.05 133.15 164 133.05
M 166.85 124.7
Q 166.85 124.5 166.65 124.5
L 165.2 124.5
Q 165 124.5 165 124.7
L 165 139.45
Q 165 139.7 165.2 139.7
L 166.65 139.7
Q 166.85 139.7 166.85 139.45
L 166.85 131.9 169.05 131.9
Q 169.15 131.9 169.2 131.8 169.3 131.75 169.3 131.65
L 169.3 130.55
Q 169.3 130.45 169.2 130.4 169.15 130.35 169.05 130.35
L 166.85 130.35 166.85 124.7
M 181.95 134.6
Q 182.05 134.65 182.1 134.65
L 189.35 134.65
Q 189.5 134.65 189.55 134.7 189.55 134.75 189.55 134.9
L 189.55 135.5
Q 189.55 135.65 189.55 135.7 189.5 135.75 189.4 135.75
L 183 135.75
Q 182.35 135.75 182.15 135.95 181.9 136.2 181.9 136.7
L 181.9 138.65
Q 181.9 139.15 182.15 139.4 182.35 139.65 183 139.65
L 191.6 139.65
Q 191.65 139.65 191.7 139.55 191.8 139.5 191.8 139.45
L 191.8 138.4
Q 191.8 138.3 191.7 138.25 191.65 138.15 191.55 138.15
L 183.8 138.15
Q 183.75 138.15 183.75 138
L 183.75 137.3
Q 183.75 137.2 183.8 137.15 183.8 137.1 183.95 137.1
L 190.3 137.1
Q 190.95 137.1 191.15 136.9 191.4 136.7 191.4 136.15
L 191.4 134.2
Q 191.4 133.65 191.15 133.4 190.95 133.2 190.3 133.2
L 182.1 133.2
Q 182.05 133.2 181.95 133.25 181.85 133.35 181.85 133.4
L 181.85 134.45
Q 181.85 134.55 181.95 134.6
M 181.7 125.1
Q 181 125.4 180.5 125.85 180 126.35 179.75 127 179.5 127.65 179.5 128.4 179.5 129.15 179.75 129.8 180 130.4 180.5 130.9 181 131.35 181.7 131.6 182.4 131.9 183.3 131.9 184.2 131.9 184.9 131.6 185.6 131.35 186.15 130.9 186.65 130.4 186.9 129.8 187.2 129.15 187.2 128.4 187.2 127.65 186.9 127 186.65 126.35 186.15 125.85 185.6 125.4 184.9 125.1 184.2 124.85 183.3 124.85 182.4 124.85 181.7 125.1
M 181.15 128.4
Q 181.15 127.5 181.7 126.9 182.3 126.3 183.3 126.3 184.35 126.3 184.95 126.9 185.55 127.5 185.55 128.4 185.55 128.85 185.4 129.25 185.2 129.6 184.95 129.9 184.65 130.15 184.25 130.3 183.8 130.45 183.3 130.45 182.3 130.45 181.7 129.9 181.15 129.3 181.15 128.4
M 226.7 134.45
Q 226.6 134.45 226.5 134.55 226.45 134.6 226.45 134.7
L 226.45 138.15
Q 226.45 138.8 226.7 139.05 226.95 139.3 227.7 139.3
L 236.6 139.3
Q 236.65 139.3 236.75 139.25 236.85 139.2 236.85 139.1
L 236.85 137.95
Q 236.85 137.9 236.75 137.85 236.65 137.8 236.6 137.8
L 228.6 137.8
Q 228.45 137.8 228.4 137.75 228.3 137.7 228.3 137.5
L 228.3 134.7
Q 228.3 134.6 228.25 134.55 228.15 134.45 228.05 134.45
L 226.7 134.45
M 238.65 133.1
L 238.65 132.05
Q 238.65 131.95 238.55 131.9 238.5 131.8 238.4 131.8
L 224.35 131.8
Q 224.1 131.8 224.1 132.05
L 224.1 133.1
Q 224.1 133.2 224.15 133.25 224.25 133.35 224.35 133.35
L 238.4 133.35
Q 238.5 133.35 238.55 133.25 238.65 133.2 238.65 133.1
M 236.65 128.8
Q 236.65 128.75 236.55 128.7 236.5 128.6 236.4 128.6
L 228.7 128.6
Q 228.5 128.6 228.45 128.6 228.4 128.55 228.4 128.35
L 228.4 125
Q 228.4 124.9 228.3 124.85 228.25 124.75 228.15 124.75
L 226.75 124.75
Q 226.65 124.75 226.55 124.85 226.5 124.9 226.5 125
L 226.5 129
Q 226.5 129.65 226.75 129.9 227 130.15 227.75 130.15
L 236.4 130.15
Q 236.5 130.15 236.55 130.1 236.65 130.05 236.65 129.95
L 236.65 128.8
M 205 129.9
L 202.55 129.9
Q 202.5 128.9 202.2 128.05 201.85 127.25 201.35 126.65 200.85 126.05 200.15 125.75 199.45 125.45 198.6 125.45 197.7 125.45 196.95 125.8 196.2 126.2 195.7 126.85 195.2 127.55 194.9 128.55 194.65 129.5 194.65 130.7 194.65 131.9 194.9 132.85 195.2 133.85 195.7 134.55 196.2 135.25 196.95 135.6 197.7 136 198.6 136 199.45 136 200.15 135.7 200.85 135.35 201.35 134.8 201.85 134.2 202.2 133.35 202.5 132.5 202.55 131.45
L 205 131.45 205 139.45
Q 205 139.7 205.2 139.7
L 206.65 139.7
Q 206.85 139.7 206.85 139.45
L 206.85 124.7
Q 206.85 124.5 206.65 124.5
L 205.2 124.5
Q 205 124.5 205 124.7
L 205 129.9
M 199.55 127.35
Q 199.95 127.65 200.2 128.15 200.5 128.65 200.65 129.3 200.8 130 200.8 130.7 200.8 131.45 200.65 132.1 200.5 132.75 200.2 133.25 199.95 133.75 199.55 134.1 199.15 134.4 198.6 134.4 198.1 134.4 197.7 134.1 197.3 133.75 197.05 133.25 196.75 132.75 196.6 132.1 196.45 131.45 196.45 130.7 196.45 130 196.6 129.3 196.75 128.65 197.05 128.15 197.3 127.65 197.7 127.35 198.1 127.05 198.6 127.05 199.15 127.05 199.55 127.35
M 213 135.2
Q 213.95 135.15 214.95 135.05 215.95 134.95 216.85 134.8 217.8 134.65 218.4 134.45 218.55 134.45 218.6 134.35 218.7 134.25 218.65 134.15
L 218.5 133.25
Q 218.45 133.15 218.4 133.05 218.3 132.95 218.1 133 217.45 133.15 216.7 133.3 215.95 133.45 215.15 133.5 214.35 133.6 213.6 133.65 212.9 133.65 212.3 133.6 212.15 133.6 212.1 133.55 212 133.5 212 133.35
L 212 125.65
Q 212 125.55 211.95 125.5 211.85 125.4 211.75 125.4
L 210.4 125.4
Q 210.3 125.4 210.25 125.5 210.15 125.55 210.15 125.65
L 210.15 133.95
Q 210.15 134.5 210.4 134.8 210.7 135.1 211.35 135.2 212 135.25 213 135.2
M 219.6 124.5
Q 219.4 124.5 219.4 124.7
L 219.4 139.45
Q 219.4 139.7 219.6 139.7
L 221.05 139.7
Q 221.25 139.7 221.25 139.45
L 221.25 131.9 223.45 131.9
Q 223.55 131.9 223.6 131.8 223.7 131.75 223.7 131.65
L 223.7 130.55
Q 223.7 130.45 223.6 130.4 223.55 130.35 223.45 130.35
L 221.25 130.35 221.25 124.7
Q 221.25 124.5 221.05 124.5
L 219.6 124.5 Z"/>
</g>

<path id="wabtawtybyyby_copy_0_Layer1_0_1_STROKES" stroke="#E0E0E0" stroke-width="4" stroke-linejoin="round" stroke-linecap="round" fill="none" d="
M 377.1412048339844 9.096627807617189
L 857.1326049804688 9.096627807617189
Q 877.1301635742188 9.096627807617189 877.1301635742188 29.09052429199219
L 877.1301635742188 319.10199279785155
Q 877.1301635742188 339.09588928222655 857.1326049804688 339.09588928222655
L 377.1412048339844 339.09588928222655
Q 357.1436462402344 339.09588928222655 357.1436462402344 319.10199279785155
L 357.1436462402344 29.09052429199219
Q 357.1436462402344 9.096627807617189 377.1412048339844 9.096627807617189 Z"/>

<path id="wabtawtybyyby_copy_0_Layer0_0_MEMBER_1_MEMBER_1_1_STROKES" stroke="#4978FD" stroke-width="8" stroke-linejoin="round" stroke-linecap="round" fill="none" d="
M 635.25 90.35
L 615.95 109.6 604.4 98.05"/>
</defs>

<g transform="matrix( 1, 0, 0, 1, 0,0) ">
<g transform="matrix( 0.9975433349609375, 0, 0, 0.9972991943359375, -205.8,-115.8) ">
<use xlink:href="#Symbol_4_0_Layer0_0_MEMBER_0_FILL"/>
</g>

<g transform="matrix( 0.206756591796875, 0, 0, 0.206756591796875, 14.4,51.65) ">
<g transform="matrix( 1.5633544921875, 0, 0, 1.5672454833984375, 0.2,-0.6) ">
<use xlink:href="#wabtawtybyyby_copy_0_Layer4_0_MEMBER_0_MEMBER_0_MEMBER_0_MEMBER_0_FILL"/>
</g>

<mask id="Mask_Mask_1">
<g transform="matrix( 0.9998779296875, 0, 0, 0.99969482421875, 305.75,-1.95) ">
<use xlink:href="#Mask_wabtawtybyyby_copy_0_3_MASK_0_FILL"/>
</g>
</mask>

<g mask="url(#Mask_Mask_1)"/>

<g transform="matrix( 0.9998779296875, 0, 0, 0.99969482421875, 305.1,-1.95) ">
<use xlink:href="#wabtawtybyyby_copy_0_Layer1_0_1_STROKES" transform="matrix( 1.0001220703125, 0, 0, 1.00030517578125, -305.1,1.95) "/>
</g>

<g transform="matrix( 1, 0, 0, 1, 0,0) ">
<use xlink:href="#wabtawtybyyby_copy_0_Layer0_0_MEMBER_0_FILL"/>
</g>

<g transform="matrix( 1, 0, 0, 1, -125.25,284.1) ">
<use xlink:href="#wabtawtybyyby_copy_0_Layer0_0_MEMBER_1_MEMBER_0_FILL"/>
</g>

<g transform="matrix( 1, 0, 0, 1, -2,74.1) ">
<use xlink:href="#wabtawtybyyby_copy_0_Layer0_0_MEMBER_1_MEMBER_1_1_STROKES"/>
</g>
</g>

<g transform="matrix( 0.9989013671875, 0, 0, 0.998687744140625, -206.15,-115.8) ">
<use xlink:href="#Symbol_4_0_Layer0_2_FILL"/>
</g>

<g transform="matrix( 1, 0, 0, 1, 25.15,16.65) ">
<g transform="matrix( 1, 0, 0, 1, 0,0) ">
<use xlink:href="#Symbol_3_0_Layer0_0_FILL"/>
</g>
</g>
</g>
</svg>
