
<svg xmlns="http://www.w3.org/2000/svg" version="1.1" xmlns:xlink="http://www.w3.org/1999/xlink" preserveAspectRatio="none" x="0px" y="0px" width="170px" height="40px" viewBox="0 0 170 40">
<defs>
<g id="Layer0_0_FILL">
<path fill="#000000" stroke="none" d="
M 154.55 8.95
Q 154.15 8.05 152.35 8.05
L 142.5 8.05
Q 141.9 8.05 141.9 8.7
L 141.9 10.9
Q 141.9 11.2 141.95 11.35 142.05 11.5 142.45 11.5
L 149.05 11.5
Q 149.55 11.5 149.55 11.7 149.6 11.95 149.35 12.45 148.9 13.35 148.05 14.45 147.2 15.55 146.05 16.65 144.9 17.75 143.5 18.8 142.15 19.8 140.65 20.6 139.95 21 140.25 21.45
L 141.5 23.55
Q 141.7 23.8 141.9 23.9 142.05 24 142.6 23.75 144.65 22.7 146.45 21.4 148.2 20.1 149.7 18.6 150.4 19.2 151.1 19.8 151.85 20.4 152.55 20.95 153.3 21.45 153.9 21.85 154.55 22.25 155 22.5 155.3 22.65 155.5 22.6 155.65 22.6 155.8 22.35
L 157.2 20.15
Q 157.45 19.65 157 19.4 155.95 18.8 154.6 17.9 153.2 17 152.05 15.85 153.6 13.65 154.45 11.35 154.95 9.8 154.55 8.95
M 163.15 32
Q 163.9 30.9 163.9 29.6 163.9 28.35 163.15 27.25 162.4 26.2 161.1 25.45 159.85 24.7 158.2 24.25 156.5 23.8 154.65 23.8 152.7 23.8 151.1 24.25 149.4 24.7 148.2 25.5 147 26.25 146.3 27.35 145.6 28.4 145.6 29.6 145.6 30.9 146.3 32 147 33.05 148.2 33.85 149.4 34.6 151.1 35.05 152.7 35.5 154.65 35.5 156.5 35.5 158.2 35.05 159.85 34.6 161.1 33.85 162.4 33.05 163.15 32
M 159.6 29.7
Q 159.6 30.2 159.2 30.65 158.85 31.1 158.2 31.45 157.5 31.8 156.65 32 155.7 32.2 154.65 32.2 152.4 32.2 151.15 31.45 149.85 30.7 149.85 29.7 149.85 28.65 151.15 27.85 152.4 27.1 154.65 27.1 155.7 27.1 156.65 27.3 157.5 27.5 158.2 27.85 158.85 28.25 159.2 28.7 159.6 29.2 159.6 29.7
M 163.1 23.15
Q 163.65 23.15 163.65 22.6
L 163.65 7.05
Q 163.65 6.8 163.6 6.65 163.55 6.45 163.15 6.45
L 160.15 6.45
Q 159.9 6.45 159.7 6.55 159.55 6.65 159.55 7.05
L 159.55 13.3 155.55 13.3
Q 155.3 13.3 155.15 13.35 154.95 13.45 154.95 13.85
L 154.95 16.05
Q 154.95 16.65 155.55 16.65
L 159.55 16.65 159.55 22.6
Q 159.55 23.15 160.1 23.15
L 163.1 23.15
M 135.4 24.7
Q 135.4 24.15 135.35 23.75 135.25 23.4 135 23.2 134.8 22.95 134.35 22.85 133.95 22.75 133.25 22.75
L 117.9 22.75
Q 117.3 22.75 117.3 23.35
L 117.3 25.4
Q 117.3 25.75 117.45 25.9 117.6 26 117.9 26
L 131 26
Q 131.35 26 131.35 26.35
L 131.35 27.15
Q 131.35 27.5 131.05 27.5
L 119.4 27.5
Q 118.75 27.5 118.35 27.6 118 27.7 117.75 27.9 117.55 28.1 117.45 28.5 117.4 28.85 117.4 29.45
L 117.4 33.45
Q 117.4 34 117.45 34.35 117.55 34.75 117.75 34.95 118 35.2 118.4 35.3 118.8 35.4 119.45 35.4
L 135.6 35.4
Q 136.15 35.4 136.15 34.8
L 136.15 32.7
Q 136.15 32.35 136.05 32.25 135.9 32.15 135.55 32.15
L 121.85 32.15
Q 121.5 32.15 121.5 31.8
L 121.5 30.9
Q 121.5 30.6 121.8 30.6
L 133.3 30.6
Q 134 30.6 134.4 30.5 134.8 30.45 135.05 30.25 135.25 30 135.35 29.65 135.4 29.25 135.4 28.65
L 135.4 24.7
M 122.25 11.85
Q 122.55 10.8 122.7 9.7 122.85 8.6 122.85 7.4 122.85 7.05 122.7 6.95 122.6 6.85 122.25 6.8
L 119.45 6.7
Q 119 6.7 118.9 6.8 118.75 6.9 118.75 7.4 118.75 11.1 117.2 13.75 115.6 16.45 112.5 18.45 112.05 18.75 112 18.9 111.95 19.1 112.3 19.55
L 113.65 21.4
Q 113.85 21.75 114.05 21.7 114.25 21.7 114.85 21.4 116.65 20.35 118.1 18.95 119.5 17.6 120.55 15.9 121.1 16.75 121.8 17.5 122.5 18.3 123.25 18.95 124.05 19.6 124.8 20.1 125.55 20.6 126.15 20.9 126.6 21.15 126.75 21.1 126.95 21.1 127.2 20.75
L 128.3 18.9
Q 128.55 18.55 128.55 18.35 128.55 18.1 128.15 17.85 127.45 17.45 126.6 16.85 125.75 16.2 124.95 15.45 124.15 14.7 123.45 13.75 122.7 12.85 122.25 11.85
M 135.45 7.05
Q 135.45 6.8 135.4 6.65 135.35 6.45 134.95 6.45
L 131.95 6.45
Q 131.7 6.45 131.5 6.55 131.35 6.65 131.35 7.05
L 131.35 11.1 126.65 11.1
Q 126.4 11.1 126.2 11.2 126.05 11.25 126.05 11.7
L 126.05 13.9
Q 126.05 14.25 126.2 14.35 126.35 14.5 126.65 14.5
L 131.35 14.5 131.35 20.75
Q 131.35 21.3 131.9 21.3
L 134.9 21.3
Q 135.45 21.3 135.45 20.75
L 135.45 7.05
M 90.5 9.3
Q 90 8.7 88.5 8.7
L 77.55 8.7
Q 77.25 8.7 77.1 8.8 77 8.9 77 9.25
L 77 11.5
Q 77 11.85 77.1 12 77.2 12.1 77.55 12.1
L 85.95 12.1
Q 86.5 12.1 86.4 12.75 85.85 16.65 83.25 20 80.65 23.35 76.1 25.9 75.85 26.05 75.75 26.3 75.7 26.55 75.9 26.85
L 77.3 28.95
Q 77.55 29.3 77.75 29.3 78 29.3 78.4 29.05 81.2 27.5 83.45 25.55 85.65 23.6 87.25 21.35 88.85 19.05 89.8 16.5 90.7 13.95 90.9 11.25 91 9.9 90.5 9.3
M 98.85 7.05
Q 98.85 6.7 98.75 6.6 98.6 6.45 98.25 6.45
L 95.25 6.45
Q 94.95 6.45 94.8 6.6 94.7 6.7 94.7 7.05
L 94.7 34.65
Q 94.7 35 94.8 35.15 94.95 35.25 95.25 35.25
L 98.25 35.25
Q 98.6 35.25 98.75 35.15 98.85 35 98.85 34.65
L 98.85 7.05
M 65.35 8.3
L 65.35 11.8 54.35 11.8 54.35 8.35
Q 54.35 7.75 53.7 7.75
L 50.7 7.75
Q 50.2 7.75 50.2 8.35
L 50.2 19.9
Q 50.2 20.55 50.25 20.95 50.35 21.4 50.6 21.6 50.85 21.85 51.3 21.95 51.8 22.05 52.5 22.05
L 57.75 22.05 57.75 26.95 46.95 26.95
Q 46.6 26.95 46.45 27.1 46.35 27.25 46.35 27.55
L 46.35 29.7
Q 46.35 30 46.45 30.15 46.6 30.35 46.95 30.35
L 72.75 30.35
Q 73.35 30.35 73.35 29.7
L 73.35 27.55
Q 73.35 26.95 72.75 26.95
L 61.95 26.95 61.95 22.05 67.2 22.05
Q 68.6 22.05 69.05 21.6 69.5 21.1 69.5 19.95
L 69.5 8.3
Q 69.5 7.7 68.95 7.7
L 65.95 7.7
Q 65.35 7.7 65.35 8.3
M 65.35 15.2
L 65.35 18.2
Q 65.35 18.6 64.9 18.6
L 54.75 18.6
Q 54.35 18.6 54.35 18.2
L 54.35 15.2 65.35 15.2 Z"/>
</g>

<g id="Layer0_1_MEMBER_0_FILL">
<path fill="#000000" stroke="none" d="
M 41.05 33.8
Q 41.25 32.95 40.5 32.15 39.9 31.55 39.75 31.3 39.5 30.8 39.5 29.8 39.5 28.8 39.75 28.35 39.85 28.2 40.5 27.55 41.25 26.75 41 25.8 40.9 25.35 40.1 23.95 39.4 22.7 38.95 22.35 38.35 21.85 37.3 22.05 36.6 22.3 36.25 22.3 35.65 22.35 34.75 21.75 33.8 21.15 33.55 20.8 33.4 20.6 33.2 19.8 32.85 18.5 30.05 18.5 27.25 18.5 26.9 19.8 26.8 20.25 26.65 20.75 26.45 21.1 25.35 21.75 24.25 22.4 23.75 22.35 23.25 22.2 22.8 22.05 21.8 21.8 21.1 22.4 20.6 22.8 19.9 24 19.15 25.3 19 25.85 18.8 26.75 19.55 27.55 20.25 28.25 20.3 28.35 20.55 28.8 20.55 29.8 20.55 30.85 20.3 31.3 20.2 31.5 19.55 32.2 18.8 32.95 19.05 33.8 19.15 34.15 20 35.55 20.8 36.95 21.15 37.25 21.85 37.9 22.8 37.65 23.75 37.45 23.9 37.45 24.45 37.45 25.35 38 26.3 38.6 26.55 38.95 26.7 39.15 26.9 39.9 27.2 41.05 30.05 41.05 32.9 41.05 33.2 39.9 33.4 39.15 33.55 38.95 33.75 38.65 34.75 38 35.65 37.4 36.25 37.4 36.6 37.45 37.3 37.65 38.3 37.9 39 37.3 39.4 36.9 40.15 35.55 40.95 34.15 41.05 33.8
M 34.35 25.4
Q 36.1 27.15 36.1 29.7 36.1 32.25 34.35 34 32.6 35.75 30.1 35.75 27.55 35.75 25.8 34 24.05 32.25 24.05 29.7 24.05 27.15 25.8 25.4 27.55 23.65 30.1 23.65 32.6 23.65 34.35 25.4 Z"/>
</g>

<g id="Layer0_1_MEMBER_1_FILL">
<path fill="#000000" stroke="none" d="
M 53.35 -0.8
Q 52 -2.15 50.05 -2.15 48.1 -2.15 46.75 -0.8 45.4 0.55 45.4 2.5 45.4 4.45 46.75 5.8 48.1 7.15 50.05 7.15 52 7.15 53.35 5.8 54.7 4.45 54.7 2.5 54.7 0.55 53.35 -0.8 Z"/>
</g>
</defs>

<g transform="matrix( 1, 0, 0, 1, 0,0) ">
<use xlink:href="#Layer0_0_FILL"/>
</g>

<g transform="matrix( 1.259979248046875, 0, 0, 1.259979248046875, -22.95,-17.5) ">
<use xlink:href="#Layer0_1_MEMBER_0_FILL"/>
</g>

<g transform="matrix( 0.86541748046875, 0, 0, 0.86541748046875, -28.45,17.65) ">
<use xlink:href="#Layer0_1_MEMBER_1_FILL"/>
</g>
</svg>
