
<svg xmlns="http://www.w3.org/2000/svg" version="1.1" xmlns:xlink="http://www.w3.org/1999/xlink" preserveAspectRatio="none" x="0px" y="0px" width="80px" height="80px" viewBox="0 0 80 80">
<defs>
<g id="icon_tool_02_4_Layer1_0_FILL">
<path fill="#333333" fill-opacity="0" stroke="none" d="
M 30 -30
L -30 -30 -30 30 30 30 30 -30 Z"/>
</g>

<g id="icon_tool_02_4_Layer0_0_FILL">
<path fill="#000000" stroke="none" d="
M 33.6 8.05
Q 33.5 7.2 32.75 6.95
L 15.1 1.1
Q 14.6 0.9 14.15 1.15 13.7 1.35 13.55 1.85
L 1.15 39.1
Q 0.8 40.2 1.3 41.3 1.8 42.35 2.9 42.75
L 3 42.8 8.3 44.55 8.25 44.55 17.45 47.6
Q 18.6 48 19.7 47.45 20.8 46.9 21.15 45.75
L 33.55 8.55 33.6 8.05 Z"/>
</g>

<g id="icon_tool_02_4_Layer0_1_MEMBER_0_MEMBER_0_MEMBER_0_MEMBER_0_FILL">
<path fill="#F59593" stroke="none" d="
M 33.55 8.55
Q 33.7 8.05 33.45 7.6 33.25 7.1 32.75 6.95
L 15.1 1.1
Q 14.6 0.9 14.15 1.15 13.7 1.35 13.55 1.85
L 1.15 39.1
Q 0.75 40.25 1.3 41.35 1.85 42.45 3 42.8
L 17.45 47.6
Q 18.6 48 19.7 47.45 20.8 46.9 21.15 45.75
L 33.55 8.55 Z"/>
</g>

<g id="icon_tool_02_4_Layer0_1_MEMBER_0_MEMBER_0_MEMBER_1_MEMBER_0_FILL">
<path fill="#FFA8A4" stroke="none" d="
M 3 42.8
L 8.15 44.5
Q 7.115625 44.1310546875 6.6 43.1 6.0775390625 42.0552734375 6.4 40.95 6.0466796875 42.0279296875 5.05 42.55 4 43.1 2.9 42.75
L 3 42.8 Z"/>
</g>

<g id="icon_tool_02_4_Layer0_1_MEMBER_0_MEMBER_0_MEMBER_2_FILL">
<path fill="#E88482" stroke="none" d="
M 33.55 8.55
Q 33.7 8.05 33.45 7.6 33.25 7.1 32.75 6.95
L 20.45 2.85
Q 19.95 2.7 19.5 2.95 19 3.15 18.85 3.65
L 6.45 40.85
Q 6.1 42 6.65 43.1 7.15 44.15 8.3 44.55
L 17.45 47.6
Q 18.6 48 19.7 47.45 20.8 46.9 21.15 45.75
L 33.55 8.55 Z"/>
</g>

<g id="icon_tool_02_4_Layer0_1_MEMBER_0_MEMBER_1_FILL">
<path fill="#1B6DD2" stroke="none" d="
M 22.5 41.75
L 33.45 8.85 13.4 2.2 2.45 35.1 22.5 41.75 Z"/>
</g>

<g id="icon_tool_02_4_Layer0_1_MEMBER_0_MEMBER_2_FILL">
<path fill="#0159B4" stroke="none" d="
M 33.45 8.85
L 18.75 3.95 7.8 36.85 22.5 41.75 33.45 8.85 Z"/>
</g>

<g id="icon_tool_02_4_Layer0_1_MEMBER_0_MEMBER_3_FILL">
<path fill="#D9DAE4" stroke="none" d="
M 28.7 7.25
L 23.5 5.55 12.55 38.45 17.75 40.2 28.7 7.25 Z"/>
</g>

<g id="icon_tool_02_4_Layer0_1_MEMBER_1_FILL">
<path fill="#47494E" stroke="none" d="
M 19.15 27.25
Q 20.05 27.5 20.3 26.7
L 26 9.6
Q 26.25 8.7 25.4 8.45 25.05 8.35 24.7 8.5 24.35 8.65 24.25 9
L 18.55 26.1
Q 18.3 27 19.15 27.25 Z"/>
</g>

<path id="icon_tool_02_4_Layer0_0_1_STROKES" stroke="#000000" stroke-width="2" stroke-linejoin="round" stroke-linecap="butt" fill="none" d="
M 32.75 6.95
L 15.1 1.1
Q 14.6 0.9 14.15 1.15 13.7 1.35 13.55 1.85
L 1.15 39.1
Q 0.8 40.2 1.3 41.3 1.8 42.35 2.9 42.75
L 3 42.8 8.3 44.55 8.25 44.55 17.45 47.6
Q 18.6 48 19.7 47.45 20.8 46.9 21.15 45.75
L 33.55 8.55 33.6 8.05
Q 33.5 7.2 32.75 6.95 Z"/>
</defs>

<g transform="matrix( 1, 0, 0, 1, 40,40) ">
<g transform="matrix( 1, 0, 0, 1, 0,0) ">
<use xlink:href="#icon_tool_02_4_Layer1_0_FILL"/>
</g>

<g transform="matrix( 1, 0, 0, 1, -17.3,-24.4) ">
<use xlink:href="#icon_tool_02_4_Layer0_0_FILL"/>

<use xlink:href="#icon_tool_02_4_Layer0_0_1_STROKES"/>
</g>

<g transform="matrix( 1, 0, 0, 1, -17.3,-24.4) ">
<use xlink:href="#icon_tool_02_4_Layer0_1_MEMBER_0_MEMBER_0_MEMBER_0_MEMBER_0_FILL"/>
</g>

<g transform="matrix( 1, 0, 0, 1, -17.3,-24.4) ">
<use xlink:href="#icon_tool_02_4_Layer0_1_MEMBER_0_MEMBER_0_MEMBER_1_MEMBER_0_FILL"/>
</g>

<g transform="matrix( 1, 0, 0, 1, -17.3,-24.4) ">
<use xlink:href="#icon_tool_02_4_Layer0_1_MEMBER_0_MEMBER_0_MEMBER_2_FILL"/>
</g>

<g transform="matrix( 1, 0, 0, 1, -17.3,-24.4) ">
<use xlink:href="#icon_tool_02_4_Layer0_1_MEMBER_0_MEMBER_1_FILL"/>
</g>

<g transform="matrix( 1, 0, 0, 1, -17.3,-24.4) ">
<use xlink:href="#icon_tool_02_4_Layer0_1_MEMBER_0_MEMBER_2_FILL"/>
</g>

<g transform="matrix( 1, 0, 0, 1, -17.3,-24.4) ">
<use xlink:href="#icon_tool_02_4_Layer0_1_MEMBER_0_MEMBER_3_FILL"/>
</g>

<g transform="matrix( 1, 0, 0, 1, -17.3,-24.4) ">
<use xlink:href="#icon_tool_02_4_Layer0_1_MEMBER_1_FILL"/>
</g>
</g>
</svg>
