
<svg xmlns="http://www.w3.org/2000/svg" version="1.1" xmlns:xlink="http://www.w3.org/1999/xlink" preserveAspectRatio="none" x="0px" y="0px" width="80px" height="80px" viewBox="0 0 80 80">
<defs>
<g id="icon_tool_02_9_Layer1_0_FILL">
<path fill="#333333" fill-opacity="0" stroke="none" d="
M 30 -30
L -30 -30 -30 30 30 30 30 -30 Z"/>
</g>

<g id="icon_tool_02_9_Layer0_0_MEMBER_0_FILL">
<path fill="#000000" stroke="none" d="
M 33.65 8.05
Q 33.55 7.2 32.8 6.95
L 15.15 1.1
Q 14.65 0.9 14.2 1.15 13.75 1.4 13.55 1.9
L 1.15 39.1
Q 0.8 40.2 1.3 41.3 1.8 42.35 2.95 42.75
L 2.9 42.75 3 42.8 8.35 44.6 8.3 44.55 17.5 47.6
Q 18.65 48 19.75 47.45 20.85 46.9 21.2 45.75
L 33.5 8.85 33.45 8.85 33.6 8.55 33.65 8.05 Z"/>
</g>

<g id="icon_tool_02_9_Layer0_0_MEMBER_1_MEMBER_0_MEMBER_0_MEMBER_0_MEMBER_0_FILL">
<path fill="#B1B1B1" stroke="none" d="
M 33.6 8.55
Q 33.75 8.05 33.5 7.6 33.3 7.1 32.8 6.95
L 15.15 1.1
Q 14.65 0.9 14.2 1.15 13.75 1.4 13.55 1.9
L 1.15 39.1
Q 0.8 40.25 1.35 41.35 1.85 42.4 3 42.8
L 17.5 47.6
Q 18.65 48 19.75 47.45 20.85 46.9 21.2 45.75
L 33.6 8.55 Z"/>
</g>

<g id="icon_tool_02_9_Layer0_0_MEMBER_1_MEMBER_0_MEMBER_0_MEMBER_1_MEMBER_0_FILL">
<path fill="#C2C2C2" stroke="none" d="
M 3 42.8
L 8.25 44.55
Q 7.1828125 44.165625 6.65 43.1 6.1578125 42.0171875 6.5 40.85 6.13359375 42.00859375 5.1 42.55 4.05 43.1 2.9 42.75
L 3 42.8 Z"/>
</g>

<g id="icon_tool_02_9_Layer0_0_MEMBER_1_MEMBER_0_MEMBER_0_MEMBER_2_FILL">
<path fill="#A1A1A1" stroke="none" d="
M 33.6 8.55
Q 33.75 8.05 33.5 7.6 33.3 7.1 32.8 6.95
L 20.45 2.85
Q 19.95 2.7 19.5 2.95 19.05 3.15 18.9 3.65
L 6.5 40.9
Q 6.1 42.05 6.65 43.1 7.2 44.2 8.35 44.55
L 17.5 47.6
Q 18.65 48 19.75 47.45 20.85 46.9 21.2 45.75
L 33.6 8.55 Z"/>
</g>

<g id="icon_tool_02_9_Layer0_0_MEMBER_1_MEMBER_0_MEMBER_1_FILL">
<path fill="#5E5E5E" stroke="none" d="
M 22.5 41.75
L 33.45 8.85 13.45 2.2 2.5 35.1 22.5 41.75 Z"/>
</g>

<g id="icon_tool_02_9_Layer0_0_MEMBER_1_MEMBER_0_MEMBER_2_FILL">
<path fill="#4A4A4A" stroke="none" d="
M 33.5 8.85
L 18.8 3.95 7.85 36.85 22.5 41.75 33.5 8.85 Z"/>
</g>

<g id="icon_tool_02_9_Layer0_0_MEMBER_1_MEMBER_0_MEMBER_3_FILL">
<path fill="#DBDBDB" stroke="none" d="
M 28.75 7.25
L 23.5 5.55 12.55 38.45 17.8 40.2 28.75 7.25 Z"/>
</g>

<g id="icon_tool_02_9_Layer0_0_MEMBER_1_MEMBER_1_FILL">
<path fill="#494949" stroke="none" d="
M 24.75 8.5
Q 24.4 8.7 24.3 9.05
L 18.6 26.1
Q 18.35 27 19.2 27.25 19.55 27.35 19.9 27.2 20.25 27.05 20.35 26.7
L 26 9.6
Q 26.15 9.25 25.95 8.9 25.8 8.55 25.45 8.45 25.05 8.35 24.75 8.5 Z"/>
</g>

<path id="icon_tool_02_9_Layer0_0_MEMBER_0_1_STROKES" stroke="#ABABAB" stroke-width="2" stroke-linejoin="round" stroke-linecap="butt" fill="none" d="
M 32.8 6.95
L 15.15 1.1
Q 14.65 0.9 14.2 1.15 13.75 1.4 13.55 1.9
L 1.15 39.1
Q 0.8 40.2 1.3 41.3 1.8 42.35 2.95 42.75
L 2.9 42.75 3 42.8 8.35 44.6 8.3 44.55 17.5 47.6
Q 18.65 48 19.75 47.45 20.85 46.9 21.2 45.75
L 33.5 8.85 33.45 8.85 33.6 8.55 33.65 8.05
Q 33.55 7.2 32.8 6.95 Z"/>
</defs>

<g transform="matrix( 1, 0, 0, 1, 40,40) ">
<g transform="matrix( 1, 0, 0, 1, 0,0) ">
<use xlink:href="#icon_tool_02_9_Layer1_0_FILL"/>
</g>

<g transform="matrix( 1, 0, 0, 1, -17.35,-24.4) ">
<use xlink:href="#icon_tool_02_9_Layer0_0_MEMBER_0_FILL"/>

<use xlink:href="#icon_tool_02_9_Layer0_0_MEMBER_0_1_STROKES"/>
</g>

<g transform="matrix( 1, 0, 0, 1, -17.35,-24.4) ">
<use xlink:href="#icon_tool_02_9_Layer0_0_MEMBER_1_MEMBER_0_MEMBER_0_MEMBER_0_MEMBER_0_FILL"/>
</g>

<g transform="matrix( 1, 0, 0, 1, -17.35,-24.4) ">
<use xlink:href="#icon_tool_02_9_Layer0_0_MEMBER_1_MEMBER_0_MEMBER_0_MEMBER_1_MEMBER_0_FILL"/>
</g>

<g transform="matrix( 1, 0, 0, 1, -17.35,-24.4) ">
<use xlink:href="#icon_tool_02_9_Layer0_0_MEMBER_1_MEMBER_0_MEMBER_0_MEMBER_2_FILL"/>
</g>

<g transform="matrix( 1, 0, 0, 1, -17.35,-24.4) ">
<use xlink:href="#icon_tool_02_9_Layer0_0_MEMBER_1_MEMBER_0_MEMBER_1_FILL"/>
</g>

<g transform="matrix( 1, 0, 0, 1, -17.35,-24.4) ">
<use xlink:href="#icon_tool_02_9_Layer0_0_MEMBER_1_MEMBER_0_MEMBER_2_FILL"/>
</g>

<g transform="matrix( 1, 0, 0, 1, -17.35,-24.4) ">
<use xlink:href="#icon_tool_02_9_Layer0_0_MEMBER_1_MEMBER_0_MEMBER_3_FILL"/>
</g>

<g transform="matrix( 1, 0, 0, 1, -17.35,-24.4) ">
<use xlink:href="#icon_tool_02_9_Layer0_0_MEMBER_1_MEMBER_1_FILL"/>
</g>
</g>
</svg>
