
<svg xmlns="http://www.w3.org/2000/svg" version="1.1" xmlns:xlink="http://www.w3.org/1999/xlink" preserveAspectRatio="none" x="0px" y="0px" width="80px" height="80px" viewBox="0 0 80 80">
<defs>
<g id="icon_tool_02_8_Layer1_0_FILL">
<path fill="#333333" fill-opacity="0" stroke="none" d="
M 30 -30
L -30 -30 -30 30 30 30 30 -30 Z"/>
</g>

<g id="icon_tool_02_8_Layer0_0_MEMBER_0_FILL">
<path fill="#000000" stroke="none" d="
M 23.7 7.25
L 23.75 6.85
Q 23.65 6.1 23.05 5.95
L 8.35 1.05
Q 8 0.9 7.6 1.1 7.2 1.3 7.05 1.7
L 1.15 19.5
Q 0.85 20.45 1.3 21.35 1.7 22.2 2.6 22.55
L 2.6 22.5 2.65 22.55 7.1 24.05 7.05 24 14.7 26.55
Q 15.65 26.9 16.55 26.45 17.45 26 17.75 25.05
L 23.7 7.25 Z"/>
</g>

<g id="icon_tool_02_8_Layer0_0_MEMBER_1_MEMBER_0_MEMBER_0_MEMBER_0_MEMBER_0_FILL">
<path fill="#B1B1B1" stroke="none" d="
M 23.7 7.25
Q 23.8 6.85 23.65 6.45 23.45 6.05 23.05 5.95
L 8.35 1.05
Q 8 0.9 7.6 1.1 7.2 1.3 7.05 1.7
L 1.15 19.5
Q 0.8 20.45 1.25 21.35 1.75 22.25 2.7 22.55
L 14.7 26.55
Q 15.65 26.9 16.55 26.45 17.45 26 17.75 25.05
L 23.7 7.25 Z"/>
</g>

<g id="icon_tool_02_8_Layer0_0_MEMBER_1_MEMBER_0_MEMBER_0_MEMBER_1_MEMBER_0_FILL">
<path fill="#C2C2C2" stroke="none" d="
M 7.1 24.05
Q 6.15 23.7 5.7 22.8 5.25703125 21.9140625 5.55 20.95 5.23671875 21.90703125 4.4 22.35 3.55 22.8 2.6 22.5
L 2.65 22.55 7.1 24.05 Z"/>
</g>

<g id="icon_tool_02_8_Layer0_0_MEMBER_1_MEMBER_0_MEMBER_0_MEMBER_2_FILL">
<path fill="#A1A1A1" stroke="none" d="
M 23.7 7.25
Q 23.8 6.85 23.65 6.45 23.45 6.05 23.05 5.95
L 12.8 2.55
Q 12.4 2.4 12 2.6 11.6 2.8 11.5 3.2
L 5.55 20.95
Q 5.25 21.9 5.7 22.8 6.15 23.7 7.1 24.05
L 14.7 26.55
Q 15.65 26.9 16.55 26.45 17.45 26 17.75 25.05
L 23.7 7.25 Z"/>
</g>

<g id="icon_tool_02_8_Layer0_0_MEMBER_1_MEMBER_0_MEMBER_1_FILL">
<path fill="#5E5E5E" stroke="none" d="
M 18.9 21.7
L 23.6 7.5 6.95 1.95 2.25 16.15 18.9 21.7 Z"/>
</g>

<g id="icon_tool_02_8_Layer0_0_MEMBER_1_MEMBER_0_MEMBER_2_FILL">
<path fill="#4A4A4A" stroke="none" d="
M 23.6 7.5
L 11.4 3.45 6.65 17.65 18.9 21.7 23.6 7.5 Z"/>
</g>

<g id="icon_tool_02_8_Layer0_0_MEMBER_1_MEMBER_0_MEMBER_3_FILL">
<path fill="#DBDBDB" stroke="none" d="
M 19.65 6.2
L 15.35 4.75 10.6 18.95 14.95 20.4 19.65 6.2 Z"/>
</g>

<g id="icon_tool_02_8_Layer0_0_MEMBER_1_MEMBER_1_FILL">
<path fill="#494949" stroke="none" d="
M 14.55 14.4
Q 15.2 14.65 15.5 13.95
L 17.4 8.15
Q 17.65 7.5 16.9 7.2 16.65 7.1 16.35 7.25 16.05 7.4 15.95 7.7
L 14.05 13.45
Q 13.8 14.1 14.55 14.4 Z"/>
</g>

<path id="icon_tool_02_8_Layer0_0_MEMBER_0_1_STROKES" stroke="#ABABAB" stroke-width="2" stroke-linejoin="round" stroke-linecap="butt" fill="none" d="
M 23.75 6.85
Q 23.65 6.1 23.05 5.95
L 8.35 1.05
Q 8 0.9 7.6 1.1 7.2 1.3 7.05 1.7
L 1.15 19.5
Q 0.85 20.45 1.3 21.35 1.7 22.2 2.6 22.55
L 2.6 22.5 2.65 22.55 7.1 24.05 7.05 24 14.7 26.55
Q 15.65 26.9 16.55 26.45 17.45 26 17.75 25.05
L 23.7 7.25 23.75 6.85 Z"/>
</defs>

<g transform="matrix( 1, 0, 0, 1, 40,40) ">
<g transform="matrix( 1, 0, 0, 1, 0,0) ">
<use xlink:href="#icon_tool_02_8_Layer1_0_FILL"/>
</g>

<g transform="matrix( 1, 0, 0, 1, -12.35,-13.85) ">
<use xlink:href="#icon_tool_02_8_Layer0_0_MEMBER_0_FILL"/>

<use xlink:href="#icon_tool_02_8_Layer0_0_MEMBER_0_1_STROKES"/>
</g>

<g transform="matrix( 1, 0, 0, 1, -12.35,-13.85) ">
<use xlink:href="#icon_tool_02_8_Layer0_0_MEMBER_1_MEMBER_0_MEMBER_0_MEMBER_0_MEMBER_0_FILL"/>
</g>

<g transform="matrix( 1, 0, 0, 1, -12.35,-13.85) ">
<use xlink:href="#icon_tool_02_8_Layer0_0_MEMBER_1_MEMBER_0_MEMBER_0_MEMBER_1_MEMBER_0_FILL"/>
</g>

<g transform="matrix( 1, 0, 0, 1, -12.35,-13.85) ">
<use xlink:href="#icon_tool_02_8_Layer0_0_MEMBER_1_MEMBER_0_MEMBER_0_MEMBER_2_FILL"/>
</g>

<g transform="matrix( 1, 0, 0, 1, -12.35,-13.85) ">
<use xlink:href="#icon_tool_02_8_Layer0_0_MEMBER_1_MEMBER_0_MEMBER_1_FILL"/>
</g>

<g transform="matrix( 1, 0, 0, 1, -12.35,-13.85) ">
<use xlink:href="#icon_tool_02_8_Layer0_0_MEMBER_1_MEMBER_0_MEMBER_2_FILL"/>
</g>

<g transform="matrix( 1, 0, 0, 1, -12.35,-13.85) ">
<use xlink:href="#icon_tool_02_8_Layer0_0_MEMBER_1_MEMBER_0_MEMBER_3_FILL"/>
</g>

<g transform="matrix( 1, 0, 0, 1, -12.35,-13.85) ">
<use xlink:href="#icon_tool_02_8_Layer0_0_MEMBER_1_MEMBER_1_FILL"/>
</g>
</g>
</svg>
