
<svg xmlns="http://www.w3.org/2000/svg" version="1.1" xmlns:xlink="http://www.w3.org/1999/xlink" preserveAspectRatio="none" x="0px" y="0px" width="80px" height="80px" viewBox="0 0 80 80">
<defs>
<g id="icon_tool_02_3_Layer1_0_FILL">
<path fill="#333333" fill-opacity="0" stroke="none" d="
M 30 -30
L -30 -30 -30 30 30 30 30 -30 Z"/>
</g>

<g id="icon_tool_02_3_Layer0_0_FILL">
<path fill="#000000" stroke="none" d="
M 23.65 7.25
L 23.7 6.85
Q 23.6 6.1 23 5.95
L 8.35 1.05
Q 7.95 0.9 7.55 1.1 7.15 1.3 7 1.7
L 1.1 19.5
Q 0.8 20.45 1.25 21.3 1.65 22.15 2.55 22.5
L 2.65 22.55 7.05 24.05 7.05 24 14.65 26.55
Q 15.6 26.9 16.5 26.45 17.4 26 17.75 25
L 23.65 7.25 Z"/>
</g>

<g id="icon_tool_02_3_Layer0_1_MEMBER_0_MEMBER_0_MEMBER_0_MEMBER_0_FILL">
<path fill="#F59593" stroke="none" d="
M 23.65 7.25
Q 23.8 6.85 23.6 6.45 23.4 6.05 23 5.95
L 8.35 1.05
Q 7.95 0.9 7.55 1.1 7.15 1.3 7 1.7
L 1.1 19.5
Q 0.8 20.45 1.25 21.35 1.7 22.25 2.65 22.55
L 14.65 26.55
Q 15.6 26.9 16.5 26.45 17.4 26 17.75 25
L 23.65 7.25 Z"/>
</g>

<g id="icon_tool_02_3_Layer0_1_MEMBER_0_MEMBER_0_MEMBER_1_MEMBER_0_FILL">
<path fill="#FFA8A4" stroke="none" d="
M 7.05 24.05
Q 6.1 23.7 5.65 22.8 5.20703125 21.9140625 5.55 20.95 5.18671875 21.90703125 4.35 22.35 3.5 22.8 2.55 22.5
L 2.65 22.55 7.05 24.05 Z"/>
</g>

<g id="icon_tool_02_3_Layer0_1_MEMBER_0_MEMBER_0_MEMBER_2_FILL">
<path fill="#E88482" stroke="none" d="
M 23.65 7.25
Q 23.8 6.85 23.6 6.45 23.4 6.05 23 5.95
L 12.75 2.5
Q 12.35 2.4 11.95 2.6 11.6 2.8 11.45 3.2
L 5.55 20.95
Q 5.2 21.9 5.65 22.8 6.1 23.7 7.05 24.05
L 14.65 26.55
Q 15.6 26.9 16.5 26.45 17.4 26 17.75 25
L 23.65 7.25 Z"/>
</g>

<g id="icon_tool_02_3_Layer0_1_MEMBER_0_MEMBER_1_FILL">
<path fill="#1B6DD2" stroke="none" d="
M 18.85 21.7
L 23.55 7.5 6.95 1.95 2.2 16.15 18.85 21.7 Z"/>
</g>

<g id="icon_tool_02_3_Layer0_1_MEMBER_0_MEMBER_2_FILL">
<path fill="#0159B4" stroke="none" d="
M 23.55 7.5
L 11.35 3.45 6.65 17.6 18.85 21.7 23.55 7.5 Z"/>
</g>

<g id="icon_tool_02_3_Layer0_1_MEMBER_0_MEMBER_3_FILL">
<path fill="#D9DAE4" stroke="none" d="
M 19.65 6.2
L 15.3 4.75 10.6 18.95 14.9 20.4 19.65 6.2 Z"/>
</g>

<g id="icon_tool_02_3_Layer0_1_MEMBER_1_FILL">
<path fill="#47494E" stroke="none" d="
M 14.5 14.4
Q 15.15 14.65 15.45 13.9
L 17.35 8.15
Q 17.6 7.45 16.9 7.2 16.6 7.1 16.3 7.25 16.05 7.4 15.95 7.7
L 14 13.45
Q 13.85 14.15 14.5 14.4 Z"/>
</g>

<path id="icon_tool_02_3_Layer0_0_1_STROKES" stroke="#000000" stroke-width="2" stroke-linejoin="round" stroke-linecap="butt" fill="none" d="
M 23.7 6.85
Q 23.6 6.1 23 5.95
L 8.35 1.05
Q 7.95 0.9 7.55 1.1 7.15 1.3 7 1.7
L 1.1 19.5
Q 0.8 20.45 1.25 21.3 1.65 22.15 2.55 22.5
L 2.65 22.55 7.05 24.05 7.05 24 14.65 26.55
Q 15.6 26.9 16.5 26.45 17.4 26 17.75 25
L 23.65 7.25 23.7 6.85 Z"/>
</defs>

<g transform="matrix( 1, 0, 0, 1, 40,40) ">
<g transform="matrix( 1, 0, 0, 1, 0,0) ">
<use xlink:href="#icon_tool_02_3_Layer1_0_FILL"/>
</g>

<g transform="matrix( 1, 0, 0, 1, -12.35,-13.85) ">
<use xlink:href="#icon_tool_02_3_Layer0_0_FILL"/>

<use xlink:href="#icon_tool_02_3_Layer0_0_1_STROKES"/>
</g>

<g transform="matrix( 1, 0, 0, 1, -12.35,-13.85) ">
<use xlink:href="#icon_tool_02_3_Layer0_1_MEMBER_0_MEMBER_0_MEMBER_0_MEMBER_0_FILL"/>
</g>

<g transform="matrix( 1, 0, 0, 1, -12.35,-13.85) ">
<use xlink:href="#icon_tool_02_3_Layer0_1_MEMBER_0_MEMBER_0_MEMBER_1_MEMBER_0_FILL"/>
</g>

<g transform="matrix( 1, 0, 0, 1, -12.35,-13.85) ">
<use xlink:href="#icon_tool_02_3_Layer0_1_MEMBER_0_MEMBER_0_MEMBER_2_FILL"/>
</g>

<g transform="matrix( 1, 0, 0, 1, -12.35,-13.85) ">
<use xlink:href="#icon_tool_02_3_Layer0_1_MEMBER_0_MEMBER_1_FILL"/>
</g>

<g transform="matrix( 1, 0, 0, 1, -12.35,-13.85) ">
<use xlink:href="#icon_tool_02_3_Layer0_1_MEMBER_0_MEMBER_2_FILL"/>
</g>

<g transform="matrix( 1, 0, 0, 1, -12.35,-13.85) ">
<use xlink:href="#icon_tool_02_3_Layer0_1_MEMBER_0_MEMBER_3_FILL"/>
</g>

<g transform="matrix( 1, 0, 0, 1, -12.35,-13.85) ">
<use xlink:href="#icon_tool_02_3_Layer0_1_MEMBER_1_FILL"/>
</g>
</g>
</svg>
