
<svg xmlns="http://www.w3.org/2000/svg" version="1.1" xmlns:xlink="http://www.w3.org/1999/xlink" preserveAspectRatio="none" x="0px" y="0px" width="80px" height="80px" viewBox="0 0 80 80">
<defs>
<g id="icon_tool_02_6_Layer1_0_FILL">
<path fill="#333333" fill-opacity="0" stroke="none" d="
M 30 -30
L -30 -30 -30 30 30 30 30 -30 Z"/>
</g>

<g id="icon_tool_02_6_Layer0_1_MEMBER_0_FILL">
<path fill="#000000" stroke="none" d="
M 29.25 6.35
Q 29 5.95 28.6 5.8
L 14.3 1.05
Q 13.85 0.9 13.45 1.1 13 1.3 12.85 1.75
L 12.15 3.9 12 3.85 11.55 3.8 11.15 3.9
Q 10.75 4.15 10.6 4.55
L 10.2 5.7 28.85 11.95 29.2 10.75
Q 29.35 10.35 29.15 9.95 28.95 9.55 28.55 9.4
L 29.3 7.2
Q 29.45 6.8 29.25 6.35 Z"/>
</g>

<g id="icon_tool_02_6_Layer0_1_MEMBER_1_FILL">
<path fill="#000000" stroke="none" d="
M 26.4 19.2
L 28.85 11.95 10.2 5.7 1.05 33.15
Q 0.95 33.5 1.1 33.85 1.3 34.2 1.65 34.3
L 1.85 34.35 1.5 35.4
Q 1.25 36.15 1.6 36.75
L 3.6 40.7
Q 4.15 41.75 3.75 42.85 3.55 43.55 4.2 43.75
L 4.25 43.8 3.3 46.65 3.3 46.75
Q 3.25 47 3.5 47.2
L 3.6 47.25 4.75 47.65 5 47.7 5.15 47.8 5.25 47.8 9.65 48.3
Q 10.05 48.4 10.15 48
L 10.8 45.95 11.2 46.05 11.25 46.05
Q 11.75 46.05 11.9 45.55
L 12.1 45.05 12.45 44.6
Q 12.9 44.15 13.3 43.95
L 17.3 41.95
Q 17.95 41.65 18.2 40.95
L 18.55 39.9
Q 18.9 40.05 19.25 39.9 19.6 39.75 19.7 39.35
L 26.35 19.4 26.4 19.2 Z"/>
</g>

<g id="icon_tool_02_6_Layer0_1_MEMBER_2_MEMBER_0_FILL">
<path fill="#757575" stroke="none" d="
M 4.95 41.75
L 3.3 46.65
Q 3.25 46.85 3.3 47.05 3.4 47.2 3.6 47.25
L 5.15 47.8 5.25 47.8 9.65 48.3
Q 10.05 48.4 10.15 48
L 11.5 43.9 4.95 41.75 Z"/>
</g>

<g id="icon_tool_02_6_Layer0_1_MEMBER_2_MEMBER_1_FILL">
<path fill="#7D7D7D" stroke="none" d="
M 5.6 47.85
Q 5.5 47.55 5.55 47.4
L 7.2 42.5 4.95 41.75 3.3 46.65
Q 3.15 47.05 3.6 47.25
L 5.15 47.8 5.25 47.8 5.6 47.85 Z"/>
</g>

<g id="icon_tool_02_6_Layer0_1_MEMBER_2_MEMBER_2_FILL">
<path fill="#909090" stroke="none" d="
M 5.35 47.35
L 6.8 43.05 4.75 42.35 3.3 46.65
Q 3.25 46.85 3.3 47.05 3.4 47.2 3.6 47.25
L 4.75 47.65
Q 4.95 47.75 5.15 47.65 5.3 47.55 5.35 47.35 Z"/>
</g>

<g id="icon_tool_02_6_Layer0_1_MEMBER_2_MEMBER_3_FILL">
<path fill="#F5F5F5" stroke="none" d="
M 2.85 31.3
L 1.5 35.4
Q 1.25 36.15 1.6 36.75
L 3.6 40.7
Q 4.15 41.75 3.75 42.85 3.55 43.55 4.2 43.75
L 11 46
Q 11.65 46.25 11.9 45.55 12.2 44.45 13.3 43.95
L 17.3 41.95
Q 17.95 41.65 18.2 40.95
L 19.55 36.85 2.85 31.3 Z"/>
</g>

<g id="icon_tool_02_6_Layer0_1_MEMBER_2_MEMBER_4_FILL">
<path fill="#E6E6E6" stroke="none" d="
M 6.5 32.5
L 5.15 36.6
Q 4.9 37.3 5.25 37.95
L 7.25 41.9
Q 7.75 42.95 7.45 44.1 7.2 44.75 7.9 45
L 11 46
Q 11.65 46.25 11.9 45.55 12.2 44.45 13.3 43.95
L 17.3 41.95
Q 17.95 41.65 18.2 40.95
L 19.55 36.85 6.5 32.5 Z"/>
</g>

<g id="icon_tool_02_6_Layer0_1_MEMBER_2_MEMBER_5_FILL">
<path fill="#CCCCCC" stroke="none" d="
M 6.8 32.6
L 5.4 36.7
Q 5.2 37.5 5.5 38.05
L 7.55 42
Q 8.1 43.05 7.7 44.2 7.5 44.85 8.15 45.1
L 11 46
Q 11.65 46.25 11.9 45.55 12.2 44.45 13.3 43.95
L 17.3 41.95
Q 17.95 41.65 18.2 40.95
L 19.55 36.85 6.8 32.6 Z"/>
</g>

<g id="icon_tool_02_6_Layer0_1_MEMBER_2_MEMBER_6_MEMBER_0_MEMBER_0_FILL">
<path fill="#3A3A3A" stroke="none" d="
M 24.7 4.85
Q 24.45 4.45 24.05 4.3
L 14.3 1.05
Q 13.85 0.9 13.45 1.1 13 1.3 12.85 1.75
L 11.85 4.8 23.7 8.75 24.75 5.7
Q 24.9 5.25 24.7 4.85 Z"/>
</g>

<g id="icon_tool_02_6_Layer0_1_MEMBER_2_MEMBER_6_MEMBER_0_MEMBER_1_FILL">
<path fill="#2E2E2E" stroke="none" d="
M 17.6 3.3
Q 17.7 2.9 17.5 2.45 17.3 2.05 16.85 1.9
L 14.3 1.05
Q 13.85 0.9 13.45 1.1 13 1.3 12.85 1.75
L 11.85 4.8 16.55 6.35 17.6 3.3 Z"/>
</g>

<g id="icon_tool_02_6_Layer0_1_MEMBER_2_MEMBER_6_MEMBER_0_MEMBER_2_FILL">
<path fill="#252525" stroke="none" d="
M 29.25 6.35
Q 29 5.95 28.6 5.8
L 19.25 2.7
Q 18.85 2.55 18.4 2.75 18 2.95 17.85 3.4
L 16.85 6.45 28.25 10.25 29.3 7.2
Q 29.45 6.8 29.25 6.35 Z"/>
</g>

<g id="icon_tool_02_6_Layer0_1_MEMBER_2_MEMBER_6_MEMBER_1_MEMBER_0_FILL">
<path fill="#F5F5F5" stroke="none" d="
M 6.7 36
L 16.15 7.7 10.2 5.7 1.05 33.15
Q 0.95 33.5 1.1 33.85 1.3 34.2 1.65 34.3
L 6.7 36 Z"/>
</g>

<g id="icon_tool_02_6_Layer0_1_MEMBER_2_MEMBER_6_MEMBER_1_MEMBER_1_FILL">
<path fill="#E6E6E6" stroke="none" d="
M 15.2 7.4
L 14.9 7.3 5.5 35.6 5.75 35.7 15.2 7.4 Z"/>
</g>

<g id="icon_tool_02_6_Layer0_1_MEMBER_2_MEMBER_6_MEMBER_1_MEMBER_2_FILL">
<path fill="#3A3A3A" stroke="none" d="
M 29.15 9.9
Q 28.95 9.5 28.5 9.35
L 12 3.85
Q 11.55 3.7 11.15 3.9 10.7 4.15 10.6 4.55
L 10.2 5.7 28.85 11.95 29.2 10.75
Q 29.35 10.35 29.15 9.9 Z"/>
</g>

<g id="icon_tool_02_6_Layer0_1_MEMBER_2_MEMBER_6_MEMBER_1_MEMBER_3_FILL">
<path fill="#2B2B2B" stroke="none" d="
M 29.15 9.9
Q 28.95 9.5 28.5 9.35
L 17 5.5
Q 16.55 5.35 16.15 5.6 15.7 5.8 15.55 6.25
L 15.2 7.4 28.85 11.95 29.2 10.75
Q 29.35 10.35 29.15 9.9 Z"/>
</g>

<g id="icon_tool_02_6_Layer0_1_MEMBER_2_MEMBER_6_MEMBER_2_FILL">
<path fill="#333333" stroke="none" d="
M 15.25 5.3
Q 15 4.85 14.6 4.7
L 12 3.85
Q 11.55 3.7 11.15 3.9 10.7 4.15 10.6 4.55
L 10.2 5.7 14.9 7.3 15.3 6.15
Q 15.45 5.7 15.25 5.3 Z"/>
</g>

<g id="icon_tool_02_6_Layer0_1_MEMBER_2_MEMBER_6_MEMBER_3_FILL">
<path fill="#CCCCCC" stroke="none" d="
M 18.55 39.9
Q 18.9 40.05 19.25 39.9 19.6 39.75 19.7 39.35
L 28.85 11.95 15.2 7.4 5.75 35.65 18.55 39.9 Z"/>
</g>

<g id="icon_tool_02_6_Layer0_1_MEMBER_2_MEMBER_6_MEMBER_4_FILL">
<path fill="#7D7D7D" stroke="none" d="
M 13.55 35.1
Q 14.7 35.5 15.7 34.95 16.75 34.4 17.1 33.3
L 24.7 10.55 19.3 8.75 11.75 31.5
Q 11.4 32.65 11.9 33.7 12.45 34.75 13.55 35.1 Z"/>
</g>

<g id="icon_tool_02_6_Layer0_1_MEMBER_2_MEMBER_6_MEMBER_5_FILL">
<path fill="#CDCDCD" stroke="none" d="
M 26.3 19.55
L 26.4 19.2 7.75 13 7.65 13.3 26.3 19.55 Z"/>
</g>

<g id="icon_tool_02_6_Layer0_1_MEMBER_2_MEMBER_6_MEMBER_6_FILL">
<path fill="#B4B4B4" stroke="none" d="
M 26.3 19.55
L 26.4 19.2 12.75 14.65 12.65 15 26.3 19.55 Z"/>
</g>

<g id="icon_tool_02_6_Layer0_1_MEMBER_2_MEMBER_6_MEMBER_7_FILL">
<path fill="#707070" stroke="none" d="
M 22.15 18.15
L 22.25 17.85 16.9 16.05 16.8 16.35 22.15 18.15 Z"/>
</g>

<g id="icon_tool_02_6_Layer0_1_MEMBER_2_MEMBER_7_FILL">
<path fill="#CBCBCB" stroke="none" d="
M 18.25 40.75
L 18.55 39.9 1.85 34.35 1.55 35.2 18.25 40.75 Z"/>
</g>

<g id="icon_tool_02_6_Layer0_1_MEMBER_2_MEMBER_8_FILL">
<path fill="#ADADAD" stroke="none" d="
M 18.25 40.75
L 18.55 39.9 5.75 35.65 5.5 36.5 18.25 40.75 Z"/>
</g>

<path id="icon_tool_02_6_Layer0_0_MEMBER_0_1_STROKES" stroke="#ABABAB" stroke-opacity="0.2980392156862745" stroke-width="8" stroke-linejoin="round" stroke-linecap="butt" fill="none" d="
M -5.6 20.65
L 29.3 20.65"/>

<path id="icon_tool_02_6_Layer0_1_MEMBER_0_1_STROKES" stroke="#ABABAB" stroke-width="2" stroke-linejoin="round" stroke-linecap="butt" fill="none" d="
M 28.6 5.8
L 14.3 1.05
Q 13.85 0.9 13.45 1.1 13 1.3 12.85 1.75
L 12.15 3.9 12 3.85 11.55 3.8 11.15 3.9
Q 10.75 4.15 10.6 4.55
L 10.2 5.7 28.85 11.95 29.2 10.75
Q 29.35 10.35 29.15 9.95 28.95 9.55 28.55 9.4
L 29.3 7.2
Q 29.45 6.8 29.25 6.35 29 5.95 28.6 5.8 Z"/>

<path id="icon_tool_02_6_Layer0_1_MEMBER_1_1_STROKES" stroke="#ABABAB" stroke-width="2" stroke-linejoin="round" stroke-linecap="butt" fill="none" d="
M 10.2 5.7
L 1.05 33.15
Q 0.95 33.5 1.1 33.85 1.3 34.2 1.65 34.3
L 1.85 34.35 1.5 35.4
Q 1.25 36.15 1.6 36.75
L 3.6 40.7
Q 4.15 41.75 3.75 42.85 3.55 43.55 4.2 43.75
L 4.25 43.8 3.3 46.65 3.3 46.75
Q 3.25 47 3.5 47.2
L 3.6 47.25 4.75 47.65 5 47.7 5.15 47.8 5.25 47.8 9.65 48.3
Q 10.05 48.4 10.15 48
L 10.8 45.95 11.2 46.05 11.25 46.05
Q 11.75 46.05 11.9 45.55
L 12.1 45.05 12.45 44.6
Q 12.9 44.15 13.3 43.95
L 17.3 41.95
Q 17.95 41.65 18.2 40.95
L 18.55 39.9
Q 18.9 40.05 19.25 39.9 19.6 39.75 19.7 39.35
L 26.35 19.4 26.4 19.2 28.85 11.95 10.2 5.7 Z"/>
</defs>

<g transform="matrix( 1, 0, 0, 1, 40,40) ">
<g transform="matrix( 1, 0, 0, 1, 0,0) ">
<use xlink:href="#icon_tool_02_6_Layer1_0_FILL"/>
</g>

<g transform="matrix( 1, 0, 0, 1, 0,0) ">
<use xlink:href="#icon_tool_02_6_Layer0_0_MEMBER_0_1_STROKES"/>
</g>

<g transform="matrix( 1, 0, 0, 1, -15.2,-24.65) ">
<use xlink:href="#icon_tool_02_6_Layer0_1_MEMBER_0_FILL"/>

<use xlink:href="#icon_tool_02_6_Layer0_1_MEMBER_0_1_STROKES"/>
</g>

<g transform="matrix( 1, 0, 0, 1, -15.2,-24.65) ">
<use xlink:href="#icon_tool_02_6_Layer0_1_MEMBER_1_FILL"/>

<use xlink:href="#icon_tool_02_6_Layer0_1_MEMBER_1_1_STROKES"/>
</g>

<g transform="matrix( 1, 0, 0, 1, -15.2,-24.65) ">
<use xlink:href="#icon_tool_02_6_Layer0_1_MEMBER_2_MEMBER_0_FILL"/>
</g>

<g transform="matrix( 1, 0, 0, 1, -15.2,-24.65) ">
<use xlink:href="#icon_tool_02_6_Layer0_1_MEMBER_2_MEMBER_1_FILL"/>
</g>

<g transform="matrix( 1, 0, 0, 1, -15.2,-24.65) ">
<use xlink:href="#icon_tool_02_6_Layer0_1_MEMBER_2_MEMBER_2_FILL"/>
</g>

<g transform="matrix( 1, 0, 0, 1, -15.2,-24.65) ">
<use xlink:href="#icon_tool_02_6_Layer0_1_MEMBER_2_MEMBER_3_FILL"/>
</g>

<g transform="matrix( 1, 0, 0, 1, -15.2,-24.65) ">
<use xlink:href="#icon_tool_02_6_Layer0_1_MEMBER_2_MEMBER_4_FILL"/>
</g>

<g transform="matrix( 1, 0, 0, 1, -15.2,-24.65) ">
<use xlink:href="#icon_tool_02_6_Layer0_1_MEMBER_2_MEMBER_5_FILL"/>
</g>

<g transform="matrix( 1, 0, 0, 1, -15.2,-24.65) ">
<use xlink:href="#icon_tool_02_6_Layer0_1_MEMBER_2_MEMBER_6_MEMBER_0_MEMBER_0_FILL"/>
</g>

<g transform="matrix( 1, 0, 0, 1, -15.2,-24.65) ">
<use xlink:href="#icon_tool_02_6_Layer0_1_MEMBER_2_MEMBER_6_MEMBER_0_MEMBER_1_FILL"/>
</g>

<g transform="matrix( 1, 0, 0, 1, -15.2,-24.65) ">
<use xlink:href="#icon_tool_02_6_Layer0_1_MEMBER_2_MEMBER_6_MEMBER_0_MEMBER_2_FILL"/>
</g>

<g transform="matrix( 1, 0, 0, 1, -15.2,-24.65) ">
<use xlink:href="#icon_tool_02_6_Layer0_1_MEMBER_2_MEMBER_6_MEMBER_1_MEMBER_0_FILL"/>
</g>

<g transform="matrix( 1, 0, 0, 1, -15.2,-24.65) ">
<use xlink:href="#icon_tool_02_6_Layer0_1_MEMBER_2_MEMBER_6_MEMBER_1_MEMBER_1_FILL"/>
</g>

<g transform="matrix( 1, 0, 0, 1, -15.2,-24.65) ">
<use xlink:href="#icon_tool_02_6_Layer0_1_MEMBER_2_MEMBER_6_MEMBER_1_MEMBER_2_FILL"/>
</g>

<g transform="matrix( 1, 0, 0, 1, -15.2,-24.65) ">
<use xlink:href="#icon_tool_02_6_Layer0_1_MEMBER_2_MEMBER_6_MEMBER_1_MEMBER_3_FILL"/>
</g>

<g transform="matrix( 1, 0, 0, 1, -15.2,-24.65) ">
<use xlink:href="#icon_tool_02_6_Layer0_1_MEMBER_2_MEMBER_6_MEMBER_2_FILL"/>
</g>

<g transform="matrix( 1, 0, 0, 1, -15.2,-24.65) ">
<use xlink:href="#icon_tool_02_6_Layer0_1_MEMBER_2_MEMBER_6_MEMBER_3_FILL"/>
</g>

<g transform="matrix( 1, 0, 0, 1, -15.2,-24.65) ">
<use xlink:href="#icon_tool_02_6_Layer0_1_MEMBER_2_MEMBER_6_MEMBER_4_FILL"/>
</g>

<g transform="matrix( 1, 0, 0, 1, -15.2,-24.65) ">
<use xlink:href="#icon_tool_02_6_Layer0_1_MEMBER_2_MEMBER_6_MEMBER_5_FILL"/>
</g>

<g transform="matrix( 1, 0, 0, 1, -15.2,-24.65) ">
<use xlink:href="#icon_tool_02_6_Layer0_1_MEMBER_2_MEMBER_6_MEMBER_6_FILL"/>
</g>

<g transform="matrix( 1, 0, 0, 1, -15.2,-24.65) ">
<use xlink:href="#icon_tool_02_6_Layer0_1_MEMBER_2_MEMBER_6_MEMBER_7_FILL"/>
</g>

<g transform="matrix( 1, 0, 0, 1, -15.2,-24.65) ">
<use xlink:href="#icon_tool_02_6_Layer0_1_MEMBER_2_MEMBER_7_FILL"/>
</g>

<g transform="matrix( 1, 0, 0, 1, -15.2,-24.65) ">
<use xlink:href="#icon_tool_02_6_Layer0_1_MEMBER_2_MEMBER_8_FILL"/>
</g>
</g>
</svg>
