
<svg xmlns="http://www.w3.org/2000/svg" version="1.1" xmlns:xlink="http://www.w3.org/1999/xlink" preserveAspectRatio="none" x="0px" y="0px" width="80px" height="80px" viewBox="0 0 80 80">
<defs>
<g id="icon_tool_02_1_Layer1_0_FILL">
<path fill="#333333" fill-opacity="0" stroke="none" d="
M 30 -30
L -30 -30 -30 30 30 30 30 -30 Z"/>
</g>

<g id="icon_tool_02_1_Layer0_1_MEMBER_0_FILL">
<path fill="#000000" stroke="none" d="
M 29.2 6.35
Q 29 5.95 28.55 5.8
L 14.25 1.05
Q 13.8 0.9 13.4 1.1 13 1.3 12.85 1.75
L 12.1 3.9 11.95 3.85 11.5 3.8 11.1 3.9
Q 10.7 4.15 10.55 4.55
L 10.15 5.7 28.8 11.9 29.2 10.75
Q 29.35 10.35 29.15 9.95 28.95 9.55 28.55 9.4
L 29.25 7.2
Q 29.4 6.75 29.2 6.35 Z"/>
</g>

<g id="icon_tool_02_1_Layer0_1_MEMBER_1_FILL">
<path fill="#000000" stroke="none" d="
M 26.35 19.2
L 28.8 11.9 10.15 5.7 1.05 33.15
Q 0.9 33.5 1.1 33.8 1.25 34.15 1.6 34.3
L 1.8 34.35 1.45 35.4
Q 1.25 36.05 1.55 36.7
L 3.55 40.7
Q 4.1 41.7 3.75 42.85 3.5 43.55 4.2 43.75
L 4.2 43.8 3.25 46.65 3.25 46.75
Q 3.25 47.1 3.5 47.2
L 3.55 47.25 4.7 47.65 5.15 47.75 5.2 47.8 9.6 48.3
Q 10.05 48.3 10.1 47.95
L 10.8 45.95 10.95 46 11.2 46.05
Q 11.7 46.05 11.85 45.55
L 12.1 45.05 12.4 44.6
Q 12.7 44.25 13.3 43.9
L 17.3 41.95
Q 17.9 41.65 18.15 40.95
L 18.5 39.9 18.55 39.9
Q 18.9 40 19.2 39.85 19.55 39.7 19.65 39.35
L 26.3 19.4 26.35 19.2 Z"/>
</g>

<g id="icon_tool_02_1_Layer0_1_MEMBER_2_MEMBER_0_FILL">
<path fill="#01B16D" stroke="none" d="
M 11.45 43.9
L 4.9 41.75 3.25 46.65
Q 3.15 47.1 3.55 47.25
L 5.15 47.75 5.2 47.8 9.6 48.3
Q 10.05 48.3 10.1 47.95
L 11.45 43.9 Z"/>
</g>

<g id="icon_tool_02_1_Layer0_1_MEMBER_2_MEMBER_1_FILL">
<path fill="#01BE78" stroke="none" d="
M 5.6 47.85
Q 5.45 47.6 5.5 47.4
L 7.15 42.5 4.9 41.75 3.25 46.65
Q 3.15 47.1 3.55 47.25
L 5.15 47.75 5.2 47.8 5.6 47.85 Z"/>
</g>

<g id="icon_tool_02_1_Layer0_1_MEMBER_2_MEMBER_2_FILL">
<path fill="#02DC8A" stroke="none" d="
M 5.3 47.35
L 6.75 43.05 4.7 42.35 3.25 46.65
Q 3.15 47.1 3.55 47.25
L 4.7 47.65
Q 5.2 47.75 5.3 47.35 Z"/>
</g>

<g id="icon_tool_02_1_Layer0_1_MEMBER_2_MEMBER_3_FILL">
<path fill="#F5F5F5" stroke="none" d="
M 2.8 31.3
L 1.45 35.4
Q 1.25 36.05 1.55 36.7
L 3.55 40.7
Q 4.1 41.7 3.75 42.85 3.5 43.55 4.2 43.75
L 10.95 46
Q 11.6 46.25 11.85 45.55 12.25 44.45 13.3 43.9
L 17.3 41.95
Q 17.9 41.65 18.15 40.95
L 19.5 36.85 2.8 31.3 Z"/>
</g>

<g id="icon_tool_02_1_Layer0_1_MEMBER_2_MEMBER_4_FILL">
<path fill="#E5E6E5" stroke="none" d="
M 6.5 32.5
L 5.1 36.6
Q 4.85 37.3 5.2 37.95
L 7.25 41.9
Q 7.8 42.95 7.4 44.1 7.15 44.7 7.85 45
L 10.95 46
Q 11.6 46.25 11.85 45.55 12.25 44.45 13.3 43.9
L 17.3 41.95
Q 17.9 41.65 18.15 40.95
L 19.5 36.85 6.5 32.5 Z"/>
</g>

<g id="icon_tool_02_1_Layer0_1_MEMBER_2_MEMBER_5_FILL">
<path fill="#CCCCCC" stroke="none" d="
M 6.75 32.6
L 5.4 36.7
Q 5.2 37.35 5.5 38.05
L 7.5 42
Q 8.05 43.05 7.65 44.15 7.5 44.85 8.15 45.1
L 10.95 46
Q 11.6 46.25 11.85 45.55 12.25 44.45 13.3 43.9
L 17.3 41.95
Q 17.9 41.65 18.15 40.95
L 19.5 36.85 6.75 32.6 Z"/>
</g>

<g id="icon_tool_02_1_Layer0_1_MEMBER_2_MEMBER_6_MEMBER_0_MEMBER_0_FILL">
<path fill="#2A3F4A" stroke="none" d="
M 24.65 4.85
Q 24.45 4.4 24 4.3
L 14.25 1.05
Q 13.8 0.9 13.4 1.1 13 1.3 12.85 1.75
L 11.8 4.8 23.7 8.75 24.7 5.7
Q 24.85 5.25 24.65 4.85 Z"/>
</g>

<g id="icon_tool_02_1_Layer0_1_MEMBER_2_MEMBER_6_MEMBER_0_MEMBER_1_FILL">
<path fill="#21323D" stroke="none" d="
M 17.55 3.3
Q 17.7 2.85 17.5 2.45 17.25 2.05 16.85 1.9
L 14.25 1.05
Q 13.8 0.9 13.4 1.1 13 1.3 12.85 1.75
L 11.8 4.8 16.5 6.35 17.55 3.3 Z"/>
</g>

<g id="icon_tool_02_1_Layer0_1_MEMBER_2_MEMBER_6_MEMBER_0_MEMBER_2_FILL">
<path fill="#1B282F" stroke="none" d="
M 29.2 6.35
Q 29 5.95 28.55 5.8
L 19.25 2.7
Q 18.8 2.55 18.4 2.75 17.95 2.95 17.8 3.4
L 16.8 6.45 28.25 10.25 29.25 7.2
Q 29.4 6.75 29.2 6.35 Z"/>
</g>

<g id="icon_tool_02_1_Layer0_1_MEMBER_2_MEMBER_6_MEMBER_1_MEMBER_0_FILL">
<path fill="#F5F5F5" stroke="none" d="
M 6.7 35.95
L 16.1 7.7 10.15 5.7 1.05 33.15
Q 0.9 33.5 1.1 33.8 1.25 34.15 1.6 34.3
L 6.7 35.95 Z"/>
</g>

<g id="icon_tool_02_1_Layer0_1_MEMBER_2_MEMBER_6_MEMBER_1_MEMBER_1_FILL">
<path fill="#E5E6E5" stroke="none" d="
M 15.15 7.4
L 14.85 7.3 5.45 35.6 5.75 35.65 15.15 7.4 Z"/>
</g>

<g id="icon_tool_02_1_Layer0_1_MEMBER_2_MEMBER_6_MEMBER_1_MEMBER_2_FILL">
<path fill="#2A3F4D" stroke="none" d="
M 29.15 9.9
Q 28.9 9.5 28.5 9.35
L 11.95 3.85
Q 11.5 3.7 11.1 3.9 10.7 4.1 10.55 4.55
L 10.15 5.7 28.8 11.9 29.2 10.75
Q 29.35 10.35 29.15 9.9 Z"/>
</g>

<g id="icon_tool_02_1_Layer0_1_MEMBER_2_MEMBER_6_MEMBER_1_MEMBER_3_FILL">
<path fill="#1F2E38" stroke="none" d="
M 29.15 9.9
Q 28.9 9.5 28.5 9.35
L 16.95 5.5
Q 16.5 5.35 16.1 5.55 15.7 5.8 15.55 6.2
L 15.15 7.4 28.8 11.9 29.2 10.75
Q 29.35 10.35 29.15 9.9 Z"/>
</g>

<g id="icon_tool_02_1_Layer0_1_MEMBER_2_MEMBER_6_MEMBER_2_FILL">
<path fill="#253745" stroke="none" d="
M 15.2 5.3
Q 15 4.85 14.55 4.7
L 11.95 3.85
Q 11.5 3.7 11.1 3.9 10.7 4.1 10.55 4.55
L 10.15 5.7 14.85 7.3 15.25 6.15
Q 15.4 5.7 15.2 5.3 Z"/>
</g>

<g id="icon_tool_02_1_Layer0_1_MEMBER_2_MEMBER_6_MEMBER_3_FILL">
<path fill="#CCCCCC" stroke="none" d="
M 18.55 39.9
Q 18.9 40 19.2 39.85 19.55 39.7 19.65 39.35
L 28.8 11.9 15.15 7.4 5.75 35.65 18.55 39.9 Z"/>
</g>

<g id="icon_tool_02_1_Layer0_1_MEMBER_2_MEMBER_6_MEMBER_4_FILL">
<path fill="#01BE78" stroke="none" d="
M 13.5 35.1
Q 14.65 35.5 15.7 34.95 16.75 34.45 17.1 33.3
L 24.65 10.55 19.3 8.75 11.7 31.5
Q 11.35 32.65 11.85 33.7 12.4 34.75 13.5 35.1 Z"/>
</g>

<g id="icon_tool_02_1_Layer0_1_MEMBER_2_MEMBER_6_MEMBER_5_FILL">
<path fill="#CDCDCD" stroke="none" d="
M 26.25 19.5
L 26.35 19.2 7.75 13 7.65 13.3 26.25 19.5 Z"/>
</g>

<g id="icon_tool_02_1_Layer0_1_MEMBER_2_MEMBER_6_MEMBER_6_FILL">
<path fill="#B4B4B4" stroke="none" d="
M 26.25 19.5
L 26.35 19.2 12.7 14.65 12.6 15 26.25 19.5 Z"/>
</g>

<g id="icon_tool_02_1_Layer0_1_MEMBER_2_MEMBER_6_MEMBER_7_FILL">
<path fill="#01A778" stroke="none" d="
M 22.15 18.15
L 22.25 17.85 16.85 16.05 16.75 16.35 22.15 18.15 Z"/>
</g>

<g id="icon_tool_02_1_Layer0_1_MEMBER_2_MEMBER_7_FILL">
<path fill="#CBCBCB" stroke="none" d="
M 18.25 40.75
L 18.5 39.9 1.8 34.35 1.5 35.15 18.25 40.75 Z"/>
</g>

<g id="icon_tool_02_1_Layer0_1_MEMBER_2_MEMBER_8_FILL">
<path fill="#ADADAD" stroke="none" d="
M 18.25 40.75
L 18.5 39.9 5.75 35.65 5.45 36.5 18.25 40.75 Z"/>
</g>

<path id="icon_tool_02_1_Layer0_0_MEMBER_0_1_STROKES" stroke="#01BE78" stroke-opacity="0.2980392156862745" stroke-width="8" stroke-linejoin="round" stroke-linecap="butt" fill="none" d="
M -5.6 20.65
L 29.3 20.65"/>

<path id="icon_tool_02_1_Layer0_1_MEMBER_0_1_STROKES" stroke="#000000" stroke-width="2" stroke-linejoin="round" stroke-linecap="butt" fill="none" d="
M 28.55 5.8
L 14.25 1.05
Q 13.8 0.9 13.4 1.1 13 1.3 12.85 1.75
L 12.1 3.9 11.95 3.85 11.5 3.8 11.1 3.9
Q 10.7 4.15 10.55 4.55
L 10.15 5.7 28.8 11.9 29.2 10.75
Q 29.35 10.35 29.15 9.95 28.95 9.55 28.55 9.4
L 29.25 7.2
Q 29.4 6.75 29.2 6.35 29 5.95 28.55 5.8 Z"/>

<path id="icon_tool_02_1_Layer0_1_MEMBER_1_1_STROKES" stroke="#000000" stroke-width="2" stroke-linejoin="round" stroke-linecap="butt" fill="none" d="
M 10.15 5.7
L 1.05 33.15
Q 0.9 33.5 1.1 33.8 1.25 34.15 1.6 34.3
L 1.8 34.35 1.45 35.4
Q 1.25 36.05 1.55 36.7
L 3.55 40.7
Q 4.1 41.7 3.75 42.85 3.5 43.55 4.2 43.75
L 4.2 43.8 3.25 46.65 3.25 46.75
Q 3.25 47.1 3.5 47.2
L 3.55 47.25 4.7 47.65 5.15 47.75 5.2 47.8 9.6 48.3
Q 10.05 48.3 10.1 47.95
L 10.8 45.95 10.95 46 11.2 46.05
Q 11.7 46.05 11.85 45.55
L 12.1 45.05 12.4 44.6
Q 12.7 44.25 13.3 43.9
L 17.3 41.95
Q 17.9 41.65 18.15 40.95
L 18.5 39.9 18.55 39.9
Q 18.9 40 19.2 39.85 19.55 39.7 19.65 39.35
L 26.3 19.4 26.35 19.2 28.8 11.9 10.15 5.7 Z"/>
</defs>

<g transform="matrix( 1, 0, 0, 1, 40,40) ">
<g transform="matrix( 1, 0, 0, 1, 0,0) ">
<use xlink:href="#icon_tool_02_1_Layer1_0_FILL"/>
</g>

<g transform="matrix( 1, 0, 0, 1, 0,0) ">
<use xlink:href="#icon_tool_02_1_Layer0_0_MEMBER_0_1_STROKES"/>
</g>

<g transform="matrix( 1, 0, 0, 1, -15.15,-24.65) ">
<use xlink:href="#icon_tool_02_1_Layer0_1_MEMBER_0_FILL"/>

<use xlink:href="#icon_tool_02_1_Layer0_1_MEMBER_0_1_STROKES"/>
</g>

<g transform="matrix( 1, 0, 0, 1, -15.15,-24.65) ">
<use xlink:href="#icon_tool_02_1_Layer0_1_MEMBER_1_FILL"/>

<use xlink:href="#icon_tool_02_1_Layer0_1_MEMBER_1_1_STROKES"/>
</g>

<g transform="matrix( 1, 0, 0, 1, -15.15,-24.65) ">
<use xlink:href="#icon_tool_02_1_Layer0_1_MEMBER_2_MEMBER_0_FILL"/>
</g>

<g transform="matrix( 1, 0, 0, 1, -15.15,-24.65) ">
<use xlink:href="#icon_tool_02_1_Layer0_1_MEMBER_2_MEMBER_1_FILL"/>
</g>

<g transform="matrix( 1, 0, 0, 1, -15.15,-24.65) ">
<use xlink:href="#icon_tool_02_1_Layer0_1_MEMBER_2_MEMBER_2_FILL"/>
</g>

<g transform="matrix( 1, 0, 0, 1, -15.15,-24.65) ">
<use xlink:href="#icon_tool_02_1_Layer0_1_MEMBER_2_MEMBER_3_FILL"/>
</g>

<g transform="matrix( 1, 0, 0, 1, -15.15,-24.65) ">
<use xlink:href="#icon_tool_02_1_Layer0_1_MEMBER_2_MEMBER_4_FILL"/>
</g>

<g transform="matrix( 1, 0, 0, 1, -15.15,-24.65) ">
<use xlink:href="#icon_tool_02_1_Layer0_1_MEMBER_2_MEMBER_5_FILL"/>
</g>

<g transform="matrix( 1, 0, 0, 1, -15.15,-24.65) ">
<use xlink:href="#icon_tool_02_1_Layer0_1_MEMBER_2_MEMBER_6_MEMBER_0_MEMBER_0_FILL"/>
</g>

<g transform="matrix( 1, 0, 0, 1, -15.15,-24.65) ">
<use xlink:href="#icon_tool_02_1_Layer0_1_MEMBER_2_MEMBER_6_MEMBER_0_MEMBER_1_FILL"/>
</g>

<g transform="matrix( 1, 0, 0, 1, -15.15,-24.65) ">
<use xlink:href="#icon_tool_02_1_Layer0_1_MEMBER_2_MEMBER_6_MEMBER_0_MEMBER_2_FILL"/>
</g>

<g transform="matrix( 1, 0, 0, 1, -15.15,-24.65) ">
<use xlink:href="#icon_tool_02_1_Layer0_1_MEMBER_2_MEMBER_6_MEMBER_1_MEMBER_0_FILL"/>
</g>

<g transform="matrix( 1, 0, 0, 1, -15.15,-24.65) ">
<use xlink:href="#icon_tool_02_1_Layer0_1_MEMBER_2_MEMBER_6_MEMBER_1_MEMBER_1_FILL"/>
</g>

<g transform="matrix( 1, 0, 0, 1, -15.15,-24.65) ">
<use xlink:href="#icon_tool_02_1_Layer0_1_MEMBER_2_MEMBER_6_MEMBER_1_MEMBER_2_FILL"/>
</g>

<g transform="matrix( 1, 0, 0, 1, -15.15,-24.65) ">
<use xlink:href="#icon_tool_02_1_Layer0_1_MEMBER_2_MEMBER_6_MEMBER_1_MEMBER_3_FILL"/>
</g>

<g transform="matrix( 1, 0, 0, 1, -15.15,-24.65) ">
<use xlink:href="#icon_tool_02_1_Layer0_1_MEMBER_2_MEMBER_6_MEMBER_2_FILL"/>
</g>

<g transform="matrix( 1, 0, 0, 1, -15.15,-24.65) ">
<use xlink:href="#icon_tool_02_1_Layer0_1_MEMBER_2_MEMBER_6_MEMBER_3_FILL"/>
</g>

<g transform="matrix( 1, 0, 0, 1, -15.15,-24.65) ">
<use xlink:href="#icon_tool_02_1_Layer0_1_MEMBER_2_MEMBER_6_MEMBER_4_FILL"/>
</g>

<g transform="matrix( 1, 0, 0, 1, -15.15,-24.65) ">
<use xlink:href="#icon_tool_02_1_Layer0_1_MEMBER_2_MEMBER_6_MEMBER_5_FILL"/>
</g>

<g transform="matrix( 1, 0, 0, 1, -15.15,-24.65) ">
<use xlink:href="#icon_tool_02_1_Layer0_1_MEMBER_2_MEMBER_6_MEMBER_6_FILL"/>
</g>

<g transform="matrix( 1, 0, 0, 1, -15.15,-24.65) ">
<use xlink:href="#icon_tool_02_1_Layer0_1_MEMBER_2_MEMBER_6_MEMBER_7_FILL"/>
</g>

<g transform="matrix( 1, 0, 0, 1, -15.15,-24.65) ">
<use xlink:href="#icon_tool_02_1_Layer0_1_MEMBER_2_MEMBER_7_FILL"/>
</g>

<g transform="matrix( 1, 0, 0, 1, -15.15,-24.65) ">
<use xlink:href="#icon_tool_02_1_Layer0_1_MEMBER_2_MEMBER_8_FILL"/>
</g>
</g>
</svg>
