
<svg xmlns="http://www.w3.org/2000/svg" version="1.1" xmlns:xlink="http://www.w3.org/1999/xlink" preserveAspectRatio="none" x="0px" y="0px" width="80px" height="80px" viewBox="0 0 80 80">
<defs>
<g id="icon_tool_02_7_Layer1_0_FILL">
<path fill="#333333" fill-opacity="0" stroke="none" d="
M 30 -30
L -30 -30 -30 30 30 30 30 -30 Z"/>
</g>

<g id="icon_tool_02_7_Layer0_1_MEMBER_0_FILL">
<path fill="#000000" stroke="none" d="
M 30.05 9.15
Q 30.25 8.6 30 8.05 29.75 7.5 29.2 7.25
L 29.35 6.95
Q 29.45 6.6 29.3 6.2 29.1 5.85 28.75 5.75
L 14.5 1.05
Q 13.65 0.7 13.3 1.65
L 13.2 1.95
Q 12.95 1.85 12.45 1.95 11.9 2.1 11.6 2.6
L 11.55 2.65 11.4 2.95 1.1 33.95
Q 0.9 34.55 1.2 35.15 1.5 35.7 2.1 35.9
L 2.65 36.1 4.25 41.45 4.3 41.55 4.45 42.1
Q 4.6 42.8 5.3 42.95
L 5.4 43 4.95 44.3
Q 4.55 45.45 5.1 46.5 5.65 47.6 6.8 47.95
L 7.35 48.1 7.95 48.1 8.1 48.05
Q 9.9 47.9 10.45 46.1
L 10.9 44.85 10.95 44.85
Q 11.4 44.95 11.6 44.9
L 11.9 44.8 12.2 44.65 17.25 40.95 17.8 41.1
Q 18.35 41.3 18.95 41.05
L 19.15 40.9 19.2 40.9 19.35 40.75 19.45 40.7 19.45 40.65
Q 19.75 40.25 19.75 40.15
L 20.1 39.1 2 33.1 20.1 39.1 30.05 9.15 Z"/>
</g>

<g id="icon_tool_02_7_Layer0_1_MEMBER_1_MEMBER_0_MEMBER_0_FILL">
<path fill="#383838" stroke="none" d="
M 30.05 9.15
Q 30.3 8.55 30 7.95 29.7 7.4 29.1 7.2
L 23.65 5.4
Q 24.2 5.6 24.5 6.15 24.8 6.7 24.6 7.3
L 24.25 8.3 29.75 10.1 30.05 9.15 Z"/>
</g>

<g id="icon_tool_02_7_Layer0_1_MEMBER_1_MEMBER_1_MEMBER_0_MEMBER_0_FILL">
<path fill="#292929" stroke="none" d="
M 13 2.55
L 29 7.9 29.35 6.95
Q 29.45 6.6 29.3 6.2 29.1 5.85 28.75 5.75
L 14.5 1.05
Q 13.65 0.7 13.3 1.65
L 13 2.55 Z"/>
</g>

<g id="icon_tool_02_7_Layer0_1_MEMBER_1_MEMBER_1_MEMBER_1_FILL">
<path fill="#393939" stroke="none" d="
M 6.8 47.95
Q 7.95 48.35 9 47.8 10.1 47.25 10.45 46.1
L 11.45 43.1 5.95 41.3 4.95 44.3
Q 4.55 45.45 5.1 46.5 5.65 47.6 6.8 47.95 Z"/>
</g>

<g id="icon_tool_02_7_Layer0_1_MEMBER_1_MEMBER_1_MEMBER_2_FILL">
<path fill="#303030" stroke="none" d="
M 11.45 43.1
L 9.3 42.4 8.3 45.4
Q 7.65 47.25 5.8 47.35 6.25 47.8 6.8 47.95 7.95 48.35 9 47.8 10.1 47.25 10.45 46.1
L 11.45 43.1 Z"/>
</g>

<g id="icon_tool_02_7_Layer0_1_MEMBER_1_MEMBER_1_MEMBER_3_MEMBER_0_MEMBER_0_FILL">
<path fill="#D0D0D0" stroke="none" d="
M 29.75 10.1
L 11.1 3.9 1.45 32.9 20.1 39.1 29.75 10.1 Z"/>
</g>

<g id="icon_tool_02_7_Layer0_1_MEMBER_1_MEMBER_1_MEMBER_3_MEMBER_1_MEMBER_0_FILL">
<path fill="#F5F5F5" stroke="none" d="
M 18.95 41.05
Q 19.5 40.75 19.75 40.15
L 20.1 39.1 1.45 32.9 1.1 33.95
Q 0.9 34.55 1.2 35.15 1.5 35.7 2.1 35.9
L 17.8 41.1
Q 18.4 41.3 18.95 41.05 Z"/>
</g>

<g id="icon_tool_02_7_Layer0_1_MEMBER_1_MEMBER_1_MEMBER_3_MEMBER_2_MEMBER_0_FILL">
<path fill="#424242" stroke="none" d="
M 11.1 3.9
L 29.75 10.1 30.05 9.15
Q 30.3 8.55 30 7.95 29.7 7.4 29.1 7.2
L 13.35 1.95
Q 12.75 1.75 12.2 2.05 11.65 2.35 11.4 2.95
L 11.1 3.9 Z"/>
</g>

<g id="icon_tool_02_7_Layer0_1_MEMBER_1_MEMBER_1_MEMBER_4_MEMBER_0_FILL">
<path fill="#F5F5F5" stroke="none" d="
M 17.25 40.95
L 11.65 36.7 2.65 36.1 4.45 42.1
Q 4.6 42.8 5.3 42.95
L 10.95 44.85
Q 11.6 45.05 12.2 44.65
L 17.25 40.95 Z"/>
</g>

<g id="icon_tool_02_7_Layer0_1_MEMBER_1_MEMBER_1_MEMBER_5_FILL">
<path fill="#303030" stroke="none" d="
M 10.65 45.6
L 10.9 44.85 5.4 43 5.15 43.75 10.65 45.6 Z"/>
</g>

<g id="icon_tool_02_7_Layer0_1_MEMBER_1_MEMBER_1_MEMBER_6_FILL">
<path fill="#F5F5F5" stroke="none" d="
M 12.7 44.3
L 4.25 41.45 4.45 42.1
Q 4.6 42.8 5.3 42.95
L 10.95 44.85
Q 11.6 45.05 12.2 44.65
L 12.7 44.3 Z"/>
</g>

<g id="icon_tool_02_7_Layer0_1_MEMBER_1_MEMBER_1_MEMBER_7_MEMBER_0_FILL">
<path fill="#C0C0C0" stroke="none" d="
M 29.75 10.1
L 24.25 8.3 14.6 37.3 20.1 39.1 29.75 10.1 Z"/>
</g>

<g id="icon_tool_02_7_Layer0_1_MEMBER_1_MEMBER_1_MEMBER_8_MEMBER_0_FILL">
<path fill="#E6E6E6" stroke="none" d="
M 20.1 39.1
L 14.6 37.3 14.3 38.3
Q 14.1 38.95 13.5 39.2 12.95 39.5 12.3 39.3
L 17.8 41.1
Q 18.4 41.3 18.95 41.05 19.5 40.75 19.75 40.15
L 20.1 39.1 Z"/>
</g>

<g id="icon_tool_02_7_Layer0_1_MEMBER_1_MEMBER_1_MEMBER_9_MEMBER_0_FILL">
<path fill="#E6E6E6" stroke="none" d="
M 17.25 40.95
L 14.15 39.9 9.1 43.65
Q 8.6 44 7.9 43.85
L 11 44.85
Q 11.6 45.1 12.2 44.65
L 17.25 40.95 Z"/>
</g>

<g id="icon_tool_02_7_Layer0_1_MEMBER_1_MEMBER_1_MEMBER_10_MEMBER_0_FILL">
<path fill="#4F4F4F" stroke="none" d="
M 12.75 2.25
Q 13.3361328125 1.95703125 13.9 2.15
L 13.35 1.95
Q 12.75 1.75 12.2 2.05 11.65 2.35 11.4 2.95
L 11.1 3.9 11.7 4.1 12 3.15
Q 12.2 2.55 12.75 2.25 Z"/>
</g>

<g id="icon_tool_02_7_Layer0_1_MEMBER_1_MEMBER_1_MEMBER_11_MEMBER_0_FILL">
<path fill="#DCDCDC" stroke="none" d="
M 11.65 4.1
L 11.1 3.9 1.45 32.9 2 33.1 11.65 4.1 Z"/>
</g>

<path id="icon_tool_02_7_Layer0_0_1_STROKES" stroke="#ABABAB" stroke-width="7" stroke-linejoin="round" stroke-linecap="round" fill="none" d="
M -6.95 21.05
L 24.55 21.05"/>

<path id="icon_tool_02_7_Layer0_1_MEMBER_0_1_STROKES" stroke="#ABABAB" stroke-width="2" stroke-linejoin="round" stroke-linecap="butt" fill="none" d="
M 20.1 39.1
L 30.05 9.15
Q 30.25 8.6 30 8.05 29.75 7.5 29.2 7.25
L 29.35 6.95
Q 29.45 6.6 29.3 6.2 29.1 5.85 28.75 5.75
L 14.5 1.05
Q 13.65 0.7 13.3 1.65
L 13.2 1.95
Q 12.95 1.85 12.45 1.95 11.9 2.1 11.6 2.6
L 11.55 2.65 11.4 2.95 1.1 33.95
Q 0.9 34.55 1.2 35.15 1.5 35.7 2.1 35.9
L 2.65 36.1 4.25 41.45 4.3 41.55 4.45 42.1
Q 4.6 42.8 5.3 42.95
L 5.4 43 4.95 44.3
Q 4.55 45.45 5.1 46.5 5.65 47.6 6.8 47.95
L 7.35 48.1 7.95 48.1 8.1 48.05
Q 9.9 47.9 10.45 46.1
L 10.9 44.85 10.95 44.85
Q 11.4 44.95 11.6 44.9
L 11.9 44.8 12.2 44.65 17.25 40.95 17.8 41.1
Q 18.35 41.3 18.95 41.05
L 19.15 40.9 19.2 40.9 19.35 40.75 19.45 40.7 19.45 40.65
Q 19.75 40.25 19.75 40.15
L 20.1 39.1 2 33.1"/>
</defs>

<g transform="matrix( 1, 0, 0, 1, 40,40) ">
<g transform="matrix( 1, 0, 0, 1, 0,0) ">
<use xlink:href="#icon_tool_02_7_Layer1_0_FILL"/>
</g>

<g transform="matrix( 1, 0, 0, 1, 0,0) ">
<use xlink:href="#icon_tool_02_7_Layer0_0_1_STROKES"/>
</g>

<g transform="matrix( 1, 0, 0, 1, -15.6,-24.55) ">
<use xlink:href="#icon_tool_02_7_Layer0_1_MEMBER_0_FILL"/>

<use xlink:href="#icon_tool_02_7_Layer0_1_MEMBER_0_1_STROKES"/>
</g>

<g transform="matrix( 1, 0, 0, 1, -15.6,-24.55) ">
<use xlink:href="#icon_tool_02_7_Layer0_1_MEMBER_1_MEMBER_0_MEMBER_0_FILL"/>
</g>

<g transform="matrix( 1, 0, 0, 1, -15.6,-24.55) ">
<use xlink:href="#icon_tool_02_7_Layer0_1_MEMBER_1_MEMBER_1_MEMBER_0_MEMBER_0_FILL"/>
</g>

<g transform="matrix( 1, 0, 0, 1, -15.6,-24.55) ">
<use xlink:href="#icon_tool_02_7_Layer0_1_MEMBER_1_MEMBER_1_MEMBER_1_FILL"/>
</g>

<g transform="matrix( 1, 0, 0, 1, -15.6,-24.55) ">
<use xlink:href="#icon_tool_02_7_Layer0_1_MEMBER_1_MEMBER_1_MEMBER_2_FILL"/>
</g>

<g transform="matrix( 1, 0, 0, 1, -15.6,-24.55) ">
<use xlink:href="#icon_tool_02_7_Layer0_1_MEMBER_1_MEMBER_1_MEMBER_3_MEMBER_0_MEMBER_0_FILL"/>
</g>

<g transform="matrix( 1, 0, 0, 1, -15.6,-24.55) ">
<use xlink:href="#icon_tool_02_7_Layer0_1_MEMBER_1_MEMBER_1_MEMBER_3_MEMBER_1_MEMBER_0_FILL"/>
</g>

<g transform="matrix( 1, 0, 0, 1, -15.6,-24.55) ">
<use xlink:href="#icon_tool_02_7_Layer0_1_MEMBER_1_MEMBER_1_MEMBER_3_MEMBER_2_MEMBER_0_FILL"/>
</g>

<g transform="matrix( 1, 0, 0, 1, -15.6,-24.55) ">
<use xlink:href="#icon_tool_02_7_Layer0_1_MEMBER_1_MEMBER_1_MEMBER_4_MEMBER_0_FILL"/>
</g>

<g transform="matrix( 1, 0, 0, 1, -15.6,-24.55) ">
<use xlink:href="#icon_tool_02_7_Layer0_1_MEMBER_1_MEMBER_1_MEMBER_5_FILL"/>
</g>

<g transform="matrix( 1, 0, 0, 1, -15.6,-24.55) ">
<use xlink:href="#icon_tool_02_7_Layer0_1_MEMBER_1_MEMBER_1_MEMBER_6_FILL"/>
</g>

<g transform="matrix( 1, 0, 0, 1, -15.6,-24.55) ">
<use xlink:href="#icon_tool_02_7_Layer0_1_MEMBER_1_MEMBER_1_MEMBER_7_MEMBER_0_FILL"/>
</g>

<g transform="matrix( 1, 0, 0, 1, -15.6,-24.55) ">
<use xlink:href="#icon_tool_02_7_Layer0_1_MEMBER_1_MEMBER_1_MEMBER_8_MEMBER_0_FILL"/>
</g>

<g transform="matrix( 1, 0, 0, 1, -15.6,-24.55) ">
<use xlink:href="#icon_tool_02_7_Layer0_1_MEMBER_1_MEMBER_1_MEMBER_9_MEMBER_0_FILL"/>
</g>

<g transform="matrix( 1, 0, 0, 1, -15.6,-24.55) ">
<use xlink:href="#icon_tool_02_7_Layer0_1_MEMBER_1_MEMBER_1_MEMBER_10_MEMBER_0_FILL"/>
</g>

<g transform="matrix( 1, 0, 0, 1, -15.6,-24.55) ">
<use xlink:href="#icon_tool_02_7_Layer0_1_MEMBER_1_MEMBER_1_MEMBER_11_MEMBER_0_FILL"/>
</g>
</g>
</svg>
