
<svg xmlns="http://www.w3.org/2000/svg" version="1.1" xmlns:xlink="http://www.w3.org/1999/xlink" preserveAspectRatio="none" x="0px" y="0px" width="80px" height="80px" viewBox="0 0 80 80">
<defs>
<g id="icon_tool_02_2_Layer1_0_FILL">
<path fill="#333333" fill-opacity="0" stroke="none" d="
M 30 -30
L -30 -30 -30 30 30 30 30 -30 Z"/>
</g>

<g id="icon_tool_02_2_Layer0_1_FILL">
<path fill="#000000" stroke="none" d="
M 30.05 9.2
Q 30.25 8.65 30 8.1 29.75 7.55 29.2 7.3
L 29.3 7
Q 29.4 6.6 29.25 6.25 29.05 5.9 28.7 5.8
L 14.5 1.05
Q 14.1 0.95 13.75 1.1 13.4 1.3 13.3 1.65
L 13.2 2
Q 12.75 1.85 12.4 2 11.85 2.15 11.55 2.65
L 11.5 2.7 1.05 34
Q 0.85 34.6 1.15 35.15 1.45 35.75 2.05 35.95
L 2.6 36.1 4.2 41.5 4.25 41.6 4.4 42.15
Q 4.65 42.75 5.25 43
L 5.35 43.05 4.9 44.35
Q 4.55 45.45 5.1 46.55 5.6 47.65 6.75 48
L 7.35 48.15 7.9 48.15 8.05 48.1
Q 8.85 48.05 9.5 47.5 10.15 46.95 10.4 46.15
L 10.85 44.85 10.95 44.9
Q 11.35 45 11.55 44.95
L 11.85 44.85 12.15 44.7 17.2 41 17.75 41.15
Q 18.35 41.35 18.95 41.1
L 19.1 40.95 19.2 40.9 19.4 40.7
Q 19.65 40.45 19.7 40.2
L 20.05 39.15 1.95 33.15 20.05 39.15 30.05 9.2 Z"/>
</g>

<g id="icon_tool_02_2_Layer0_2_MEMBER_0_FILL">
<path fill="#492288" stroke="none" d="
M 30.05 9.2
Q 30.25 8.6 29.95 8 29.65 7.45 29.05 7.25
L 23.65 5.45
Q 24.2140625 5.67578125 24.5 6.2 24.75 6.75 24.55 7.35
L 24.25 8.35 29.7 10.15 30.05 9.2 Z"/>
</g>

<g id="icon_tool_02_2_Layer0_3_FILL">
<path fill="#3B1E78" stroke="none" d="
M -6.3 17.85
L -6.55 18.5 -4.4 19.2 -4.15 18.55 -6.3 17.85 Z"/>

<path fill="#43268D" stroke="none" d="
M -9.65 16.75
L -9.9 17.4 -6.55 18.5 -6.3 17.85 -9.65 16.75 Z"/>

<path fill="#F564B5" stroke="none" d="
M -10.2 18.45
L -10.45 19.2 -7.15 20.3 -7.3 20.85
Q -7.95 22.65 -9.8 22.8 -9.3 23.2 -8.8 23.4 -7.65 23.8 -6.6 23.25 -5.5 22.7 -5.15 21.55
L -5 21 -4.95 21 -4.7 20.25 -9.4 18.7 -10.2 18.45 Z"/>

<path fill="#FF86CA" stroke="none" d="
M -10.65 19.75
Q -11 20.85 -10.45 21.95 -9.95 23.05 -8.8 23.4 -9.3 23.2 -9.8 22.8 -7.95 22.65 -7.3 20.85
L -7.15 20.3 -10.45 19.2 -10.2 18.45 -9.4 18.7 -10.25 18.4 -10.65 19.75 Z"/>

<path fill="#F5F5F5" stroke="none" d="
M -11.35 16.9
L -11.15 17.55
Q -10.9 18.15 -10.3 18.4
L -10.25 18.4 -9.4 18.7 -4.7 20.25 -4.6 20.3
Q -4 20.55 -3.4 20.1
L -2.9 19.7 -4.4 19.2 -6.55 18.5 -9.9 17.4 -11.35 16.9 Z"/>
</g>

<g id="icon_tool_02_2_Layer0_3_MEMBER_0_FILL">
<path fill="#F564B5" stroke="none" d="
M 13.7 -18.35
Q 13.5 -18.7 13.15 -18.8
L -1.05 -23.55
Q -1.45 -23.65 -1.8 -23.5 -2.15 -23.3 -2.25 -22.95
L -2.6 -22 13.45 -16.65 13.75 -17.6
Q 13.85 -18 13.7 -18.35 Z"/>
</g>

<g id="icon_tool_02_2_Layer0_3_MEMBER_1_MEMBER_0_FILL">
<path fill="#FFC6E6" stroke="none" d="
M 4.5 14.55
L 14.15 -14.45 -4.5 -20.65 -14.15 8.35 4.5 14.55 Z"/>
</g>

<g id="icon_tool_02_2_Layer0_3_MEMBER_2_MEMBER_0_FILL">
<path fill="#F5F5F5" stroke="none" d="
M 18.95 41.1
Q 19.5 40.8 19.7 40.2
L 20.05 39.15 1.4 32.95 1.05 34
Q 0.85 34.6 1.15 35.15 1.45 35.75 2.05 35.95
L 17.75 41.15
Q 18.35 41.4 18.95 41.1 Z"/>
</g>

<g id="icon_tool_02_2_Layer0_3_MEMBER_3_MEMBER_0_FILL">
<path fill="#FF86CA" stroke="none" d="
M 14.4 -16.6
Q 14.1 -17.15 13.5 -17.35
L -2.25 -22.6
Q -2.85 -22.8 -3.4 -22.5 -3.95 -22.2 -4.15 -21.6
L -4.5 -20.65 14.15 -14.45 14.5 -15.4
Q 14.7 -16 14.4 -16.6 Z"/>
</g>

<g id="icon_tool_02_2_Layer0_3_MEMBER_4_FILL">
<path fill="#F5F5F5" stroke="none" d="
M 17.2 41
L 11.6 36.75 2.6 36.1 4.4 42.15
Q 4.65 42.75 5.25 43
L 10.95 44.9
Q 11.55 45.15 12.15 44.7
L 17.2 41 Z"/>
</g>

<g id="icon_tool_02_2_Layer0_3_MEMBER_5_FILL">
<path fill="#F9B1D9" stroke="none" d="
M 14.15 -14.45
L 8.7 -16.25 -0.95 12.75 4.5 14.55 14.15 -14.45 Z"/>
</g>

<g id="icon_tool_02_2_Layer0_3_MEMBER_6_FILL">
<path fill="#E5E6E5" stroke="none" d="
M 20.05 39.15
L 14.6 37.35 14.25 38.35
Q 14.05 39 13.45 39.25 12.918359375 39.5400390625 12.35 39.35
L 17.75 41.15
Q 18.35 41.4 18.95 41.1 19.5 40.8 19.7 40.2
L 20.05 39.15 Z"/>
</g>

<g id="icon_tool_02_2_Layer0_3_MEMBER_7_FILL">
<path fill="#E5E6E5" stroke="none" d="
M 17.2 41
L 14.1 39.95 9.05 43.7
Q 8.5521484375 44.062109375 7.95 43.9
L 10.95 44.9
Q 11.55 45.15 12.15 44.7
L 17.2 41 Z"/>
</g>

<g id="icon_tool_02_2_Layer0_3_MEMBER_8_FILL">
<path fill="#FF9ED5" stroke="none" d="
M -2.8 -22.3
Q -2.262890625 -22.59296875 -1.7 -22.4
L -2.25 -22.6
Q -2.85 -22.8 -3.4 -22.5 -3.95 -22.25 -4.15 -21.6
L -4.5 -20.65 -3.9 -20.45 -3.6 -21.4
Q -3.4 -22.05 -2.8 -22.3 Z"/>
</g>

<g id="icon_tool_02_2_Layer0_3_MEMBER_9_FILL">
<path fill="#FFE3F3" stroke="none" d="
M -3.95 -20.45
L -4.5 -20.65 -14.15 8.35 -13.6 8.55 -3.95 -20.45 Z"/>
</g>

<path id="icon_tool_02_2_Layer0_0_1_STROKES" stroke="#FF86CA" stroke-width="7" stroke-linejoin="round" stroke-linecap="round" fill="none" d="
M -6.95 21.05
L 24.55 21.05"/>

<path id="icon_tool_02_2_Layer0_1_1_STROKES" stroke="#000000" stroke-width="2" stroke-linejoin="round" stroke-linecap="butt" fill="none" d="
M 20.05 39.15
L 30.05 9.2
Q 30.25 8.65 30 8.1 29.75 7.55 29.2 7.3
L 29.3 7
Q 29.4 6.6 29.25 6.25 29.05 5.9 28.7 5.8
L 14.5 1.05
Q 14.1 0.95 13.75 1.1 13.4 1.3 13.3 1.65
L 13.2 2
Q 12.75 1.85 12.4 2 11.85 2.15 11.55 2.65
L 11.5 2.7 1.05 34
Q 0.85 34.6 1.15 35.15 1.45 35.75 2.05 35.95
L 2.6 36.1 4.2 41.5 4.25 41.6 4.4 42.15
Q 4.65 42.75 5.25 43
L 5.35 43.05 4.9 44.35
Q 4.55 45.45 5.1 46.55 5.6 47.65 6.75 48
L 7.35 48.15 7.9 48.15 8.05 48.1
Q 8.85 48.05 9.5 47.5 10.15 46.95 10.4 46.15
L 10.85 44.85 10.95 44.9
Q 11.35 45 11.55 44.95
L 11.85 44.85 12.15 44.7 17.2 41 17.75 41.15
Q 18.35 41.35 18.95 41.1
L 19.1 40.95 19.2 40.9 19.4 40.7
Q 19.65 40.45 19.7 40.2
L 20.05 39.15 1.95 33.15"/>
</defs>

<g transform="matrix( 1, 0, 0, 1, 40,40) ">
<g transform="matrix( 1, 0, 0, 1, 0,0) ">
<use xlink:href="#icon_tool_02_2_Layer1_0_FILL"/>
</g>

<g transform="matrix( 1, 0, 0, 1, 0,0) ">
<use xlink:href="#icon_tool_02_2_Layer0_0_1_STROKES"/>
</g>

<g transform="matrix( 1, 0, 0, 1, -15.55,-24.6) ">
<use xlink:href="#icon_tool_02_2_Layer0_1_FILL"/>

<use xlink:href="#icon_tool_02_2_Layer0_1_1_STROKES"/>
</g>

<g transform="matrix( 1, 0, 0, 1, -15.55,-24.6) ">
<use xlink:href="#icon_tool_02_2_Layer0_2_MEMBER_0_FILL"/>
</g>

<g transform="matrix( 1, 0, 0, 1, 0,0) ">
<use xlink:href="#icon_tool_02_2_Layer0_3_FILL"/>
</g>

<g transform="matrix( 1, 0, 0, 1, 0,0) ">
<use xlink:href="#icon_tool_02_2_Layer0_3_MEMBER_0_FILL"/>
</g>

<g transform="matrix( 1, 0, 0, 1, 0,0) ">
<use xlink:href="#icon_tool_02_2_Layer0_3_MEMBER_1_MEMBER_0_FILL"/>
</g>

<g transform="matrix( 1, 0, 0, 1, -15.55,-24.6) ">
<use xlink:href="#icon_tool_02_2_Layer0_3_MEMBER_2_MEMBER_0_FILL"/>
</g>

<g transform="matrix( 1, 0, 0, 1, 0,0) ">
<use xlink:href="#icon_tool_02_2_Layer0_3_MEMBER_3_MEMBER_0_FILL"/>
</g>

<g transform="matrix( 1, 0, 0, 1, -15.55,-24.6) ">
<use xlink:href="#icon_tool_02_2_Layer0_3_MEMBER_4_FILL"/>
</g>

<g transform="matrix( 1, 0, 0, 1, 0,0) ">
<use xlink:href="#icon_tool_02_2_Layer0_3_MEMBER_5_FILL"/>
</g>

<g transform="matrix( 1, 0, 0, 1, -15.55,-24.6) ">
<use xlink:href="#icon_tool_02_2_Layer0_3_MEMBER_6_FILL"/>
</g>

<g transform="matrix( 1, 0, 0, 1, -15.55,-24.6) ">
<use xlink:href="#icon_tool_02_2_Layer0_3_MEMBER_7_FILL"/>
</g>

<g transform="matrix( 1, 0, 0, 1, 0,0) ">
<use xlink:href="#icon_tool_02_2_Layer0_3_MEMBER_8_FILL"/>
</g>

<g transform="matrix( 1, 0, 0, 1, 0,0) ">
<use xlink:href="#icon_tool_02_2_Layer0_3_MEMBER_9_FILL"/>
</g>
</g>
</svg>
