
<svg xmlns="http://www.w3.org/2000/svg" version="1.1" xmlns:xlink="http://www.w3.org/1999/xlink" preserveAspectRatio="none" x="0px" y="0px" width="80px" height="80px" viewBox="0 0 80 80">
<defs>
<g id="icon_tool_02_5_Layer1_0_FILL">
<path fill="#333333" fill-opacity="0" stroke="none" d="
M 30 -30
L -30 -30 -30 30 30 30 30 -30 Z"/>
</g>

<g id="icon_tool_02_5_Layer0_1_MEMBER_0_FILL">
<path fill="#000000" stroke="none" d="
M 29.35 7.3
Q 28.75 5.7 27.15 5.2
L 15.2 1.2
Q 14.05 0.85 13.15 1.15 11.35 1.65 10.75 3.4
L 9.8 6.25
Q 9.4 6.15 9.05 6.3 8.7 6.5 8.6 6.85 8.5 7.25 8.65 7.6 8.85 7.95 9.2 8.05
L 8.95 8.9 8.55 8.85 8.2 8.95
Q 7.8 9.15 7.75 9.5 7.4 10.35 8.35 10.7
L 1 32.75 4.95 47 5.15 47.45
Q 5.65 48.25 6.6 48.35 7.35 48.45 7.9 47.95
L 19.65 38.95 26.95 16.9
Q 27.35 17 27.7 16.85 28.05 16.65 28.15 16.3 28.25 16.05 28.2 15.9 28.2 15.25 27.55 15.1
L 27.85 14.25
Q 28.25 14.35 28.6 14.2 28.95 14 29.05 13.65
L 29.1 13.3
Q 29.05 12.7 28.45 12.45
L 29.4 9.65
Q 29.75 8.5 29.35 7.3 Z"/>
</g>

<g id="icon_tool_02_5_Layer0_1_MEMBER_1_MEMBER_0_MEMBER_0_FILL">
<path fill="#A9A9A9" stroke="none" d="
M 19.65 38.95
L 10.3 35.85 8.1 42.55 12.85 44.15 19.65 38.95 Z"/>
</g>

<g id="icon_tool_02_5_Layer0_1_MEMBER_1_MEMBER_0_MEMBER_1_MEMBER_0_MEMBER_0_MEMBER_0_MEMBER_0_MEMBER_0_MEMBER_0_MEMBER_0_FILL">
<path fill="#A5A5A5" stroke="none" d="
M 17.4 14.6
L 8.05 11.5 1 32.75 10.3 35.85 17.4 14.6 Z"/>
</g>

<g id="icon_tool_02_5_Layer0_1_MEMBER_1_MEMBER_0_MEMBER_1_MEMBER_0_MEMBER_0_MEMBER_0_MEMBER_0_MEMBER_0_MEMBER_0_MEMBER_1_FILL">
<path fill="#7D7D7D" stroke="none" d="
M 26.7 17.7
L 17.4 14.6 10.3 35.85 19.65 38.95 26.7 17.7 Z"/>
</g>

<g id="icon_tool_02_5_Layer0_1_MEMBER_1_MEMBER_0_MEMBER_1_MEMBER_0_MEMBER_0_MEMBER_0_MEMBER_0_MEMBER_0_MEMBER_1_MEMBER_0_FILL">
<path fill="#919191" stroke="none" d="
M 14.7 37.3
L 21.75 16.05 13 13.15 5.95 34.35 14.7 37.3 Z"/>
</g>

<g id="icon_tool_02_5_Layer0_1_MEMBER_1_MEMBER_0_MEMBER_1_MEMBER_0_MEMBER_0_MEMBER_0_MEMBER_0_MEMBER_1_FILL">
<path fill="#A7A7A7" stroke="none" d="
M 26.7 17.7
L 28.7 11.65 10.05 5.45 8.05 11.5 26.7 17.7 Z"/>
</g>

<g id="icon_tool_02_5_Layer0_1_MEMBER_1_MEMBER_0_MEMBER_1_MEMBER_0_MEMBER_0_MEMBER_0_MEMBER_0_MEMBER_2_FILL">
<path fill="#B1B1B1" stroke="none" d="
M 28.7 11.65
L 29.4 9.65
Q 29.85 8.25 29.2 6.95 28.55 5.65 27.15 5.2
L 15.2 1.2
Q 13.8 0.75 12.5 1.4 11.2 2.05 10.75 3.4
L 10.05 5.45 28.7 11.65 Z"/>
</g>

<g id="icon_tool_02_5_Layer0_1_MEMBER_1_MEMBER_0_MEMBER_1_MEMBER_0_MEMBER_0_MEMBER_0_MEMBER_0_MEMBER_3_FILL">
<path fill="#C2C2C2" stroke="none" d="
M 10.3 35.85
L 1 32.75 3.3 40.95 8.1 42.55 10.3 35.85 Z"/>
</g>

<g id="icon_tool_02_5_Layer0_1_MEMBER_1_MEMBER_0_MEMBER_1_MEMBER_0_MEMBER_0_MEMBER_0_MEMBER_0_MEMBER_4_FILL">
<path fill="#B7B7B7" stroke="none" d="
M 14.7 37.3
L 5.9 34.35 5.8 41.8 10.35 43.3 14.7 37.3 Z"/>
</g>

<g id="icon_tool_02_5_Layer0_1_MEMBER_1_MEMBER_0_MEMBER_1_MEMBER_0_MEMBER_0_MEMBER_0_MEMBER_0_MEMBER_5_FILL">
<path fill="#9D9D9D" stroke="none" d="
M 27.85 14.25
Q 28.25 14.35 28.6 14.2 28.95 14 29.05 13.65 29.15 13.25 29 12.9 28.8 12.55 28.45 12.45
L 9.8 6.25
Q 9.4 6.15 9.05 6.3 8.7 6.5 8.6 6.85 8.5 7.25 8.65 7.6 8.85 7.95 9.2 8.05
L 27.85 14.25 Z"/>
</g>

<g id="icon_tool_02_5_Layer0_1_MEMBER_1_MEMBER_0_MEMBER_1_MEMBER_0_MEMBER_0_MEMBER_0_MEMBER_0_MEMBER_6_FILL">
<path fill="#161616" stroke="none" d="
M 12.85 44.15
L 3.3 40.95 4.95 47
Q 5.2 47.95 6.15 48.25 7.1 48.6 7.9 47.95
L 12.85 44.15 Z"/>
</g>

<g id="icon_tool_02_5_Layer0_1_MEMBER_1_MEMBER_0_MEMBER_1_MEMBER_0_MEMBER_0_MEMBER_0_MEMBER_0_MEMBER_7_FILL">
<path fill="#A5A5A5" stroke="none" d="
M 3.8 32.6
L 1 32.75
Q 1.3 33.75 1.8 34.5 2.45 35.5 3.2 35.55 4.25 35.7 5.95 34.35
L 3.8 32.6 Z"/>
</g>

<g id="icon_tool_02_5_Layer0_1_MEMBER_1_MEMBER_0_MEMBER_1_MEMBER_0_MEMBER_0_MEMBER_0_MEMBER_0_MEMBER_8_FILL">
<path fill="#919191" stroke="none" d="
M 14.7 37.3
L 10.7 34.65 5.95 34.4
Q 6.25 35.5 7.25 36.5 8.3 37.5 9.6 37.95 10.9 38.4 12.4 38.15 13.75 37.95 14.7 37.3 Z"/>
</g>

<g id="icon_tool_02_5_Layer0_1_MEMBER_1_MEMBER_0_MEMBER_1_MEMBER_0_MEMBER_0_MEMBER_0_MEMBER_0_MEMBER_9_FILL">
<path fill="#7D7D7D" stroke="none" d="
M 19.65 38.95
L 17.5 37.15 14.7 37.3 15.1 38.4
Q 15.6 39.55 16.2 39.9 17.4 40.6 19.65 38.95 Z"/>
</g>

<g id="icon_tool_02_5_Layer0_1_MEMBER_1_MEMBER_0_MEMBER_1_MEMBER_0_MEMBER_0_MEMBER_0_MEMBER_1_FILL">
<path fill="#B0B0B0" stroke="none" d="
M 29 12.9
Q 28.8 12.55 28.45 12.45
L 9.8 6.25
Q 9.4 6.15 9.05 6.3 8.7 6.5 8.6 6.85
L 29.05 13.65
Q 29.15 13.25 29 12.9 Z"/>
</g>

<g id="icon_tool_02_5_Layer0_1_MEMBER_1_MEMBER_0_MEMBER_1_MEMBER_0_MEMBER_0_MEMBER_0_MEMBER_2_MEMBER_0_FILL">
<path fill="#9D9D9D" stroke="none" d="
M 28.1 15.55
Q 27.95 15.2 27.55 15.1
L 8.95 8.9
Q 8.55 8.8 8.2 8.95 7.85 9.15 7.75 9.5 7.4 10.35 8.35 10.7
L 26.95 16.9
Q 27.35 17 27.7 16.85 28.05 16.65 28.15 16.3 28.3 15.95 28.1 15.55 Z"/>
</g>

<g id="icon_tool_02_5_Layer0_1_MEMBER_1_MEMBER_0_MEMBER_1_MEMBER_0_MEMBER_0_MEMBER_0_MEMBER_2_MEMBER_1_FILL">
<path fill="#B0B0B0" stroke="none" d="
M 28.1 15.55
Q 27.95 15.2 27.55 15.1
L 8.95 8.9
Q 8.55 8.8 8.2 8.95 7.85 9.15 7.75 9.5
L 28.15 16.3
Q 28.3 15.95 28.1 15.55 Z"/>
</g>

<g id="icon_tool_02_5_Layer0_1_MEMBER_1_MEMBER_0_MEMBER_1_MEMBER_0_MEMBER_1_FILL">
<path fill="#272727" stroke="none" d="
M 5.55 47
L 5.7 42.4 4.45 42 5.55 47 Z"/>
</g>

<g id="icon_tool_02_5_Layer0_1_MEMBER_1_MEMBER_0_MEMBER_1_MEMBER_1_FILL">
<path fill="#B9B9B9" stroke="none" d="
M 13 13.15
L 9.85 12.1 12.45 13.4 7.45 29.85 13 13.15 Z"/>
</g>

<g id="icon_tool_02_5_Layer0_1_MEMBER_1_MEMBER_0_MEMBER_2_FILL">
<path fill="#000000" stroke="none" d="
M 12.85 44.15
L 10.35 43.3 7.15 47.55
Q 6.75 48.05 5.95 47.75 5.1 47.45 4.85 46.6
L 4.95 47
Q 5.2 47.95 6.15 48.25 7.1 48.6 7.9 47.95
L 12.85 44.15 Z"/>
</g>

<g id="icon_tool_02_5_Layer0_1_MEMBER_1_MEMBER_0_MEMBER_3_FILL">
<path fill="#A1A1A1" stroke="none" d="
M 29.4 9.65
Q 29.85 8.25 29.2 6.95 28.55 5.65 27.15 5.2
L 22.3 3.55
Q 23.6203125 4.040625 24.25 5.3 24.9 6.6 24.45 8
L 23.8 10 28.7 11.65 29.4 9.65 Z"/>
</g>

<g id="icon_tool_02_5_Layer0_1_MEMBER_1_MEMBER_1_FILL">
<path fill="#BFBFBF" stroke="none" d="
M 12.95 1.55
Q 14.2091796875 0.9203125 15.5 1.3
L 15.15 1.2
Q 13.8 0.75 12.5 1.4 11.2 2.05 10.75 3.4
L 10.05 5.45 10.5 5.6 11.2 3.55
Q 11.65 2.2 12.95 1.55 Z"/>
</g>

<path id="icon_tool_02_5_Layer0_0_1_STROKES" stroke="#ABABAB" stroke-width="2" stroke-linejoin="round" stroke-linecap="round" fill="none" d="
M -8.05 23.7
L 25.25 23.7"/>

<path id="icon_tool_02_5_Layer0_1_MEMBER_0_1_STROKES" stroke="#ABABAB" stroke-width="2" stroke-linejoin="round" stroke-linecap="butt" fill="none" d="
M 27.15 5.2
L 15.2 1.2
Q 14.05 0.85 13.15 1.15 11.35 1.65 10.75 3.4
L 9.8 6.25
Q 9.4 6.15 9.05 6.3 8.7 6.5 8.6 6.85 8.5 7.25 8.65 7.6 8.85 7.95 9.2 8.05
L 8.95 8.9 8.55 8.85 8.2 8.95
Q 7.8 9.15 7.75 9.5 7.4 10.35 8.35 10.7
L 1 32.75 4.95 47 5.15 47.45
Q 5.65 48.25 6.6 48.35 7.35 48.45 7.9 47.95
L 19.65 38.95 26.95 16.9
Q 27.35 17 27.7 16.85 28.05 16.65 28.15 16.3 28.25 16.05 28.2 15.9 28.2 15.25 27.55 15.1
L 27.85 14.25
Q 28.25 14.35 28.6 14.2 28.95 14 29.05 13.65
L 29.1 13.3
Q 29.05 12.7 28.45 12.45
L 29.4 9.65
Q 29.75 8.5 29.35 7.3 28.75 5.7 27.15 5.2 Z"/>
</defs>

<g transform="matrix( 1, 0, 0, 1, 40,40) ">
<g transform="matrix( 1, 0, 0, 1, 0,0) ">
<use xlink:href="#icon_tool_02_5_Layer1_0_FILL"/>
</g>

<g transform="matrix( 1, 0, 0, 1, 0,0) ">
<use xlink:href="#icon_tool_02_5_Layer0_0_1_STROKES"/>
</g>

<g transform="matrix( 1, 0, 0, 1, -15.3,-24.7) ">
<use xlink:href="#icon_tool_02_5_Layer0_1_MEMBER_0_FILL"/>

<use xlink:href="#icon_tool_02_5_Layer0_1_MEMBER_0_1_STROKES"/>
</g>

<g transform="matrix( 1, 0, 0, 1, -15.3,-24.7) ">
<use xlink:href="#icon_tool_02_5_Layer0_1_MEMBER_1_MEMBER_0_MEMBER_0_FILL"/>
</g>

<g transform="matrix( 1, 0, 0, 1, -15.3,-24.7) ">
<use xlink:href="#icon_tool_02_5_Layer0_1_MEMBER_1_MEMBER_0_MEMBER_1_MEMBER_0_MEMBER_0_MEMBER_0_MEMBER_0_MEMBER_0_MEMBER_0_MEMBER_0_FILL"/>
</g>

<g transform="matrix( 1, 0, 0, 1, -15.3,-24.7) ">
<use xlink:href="#icon_tool_02_5_Layer0_1_MEMBER_1_MEMBER_0_MEMBER_1_MEMBER_0_MEMBER_0_MEMBER_0_MEMBER_0_MEMBER_0_MEMBER_0_MEMBER_1_FILL"/>
</g>

<g transform="matrix( 1, 0, 0, 1, -15.3,-24.7) ">
<use xlink:href="#icon_tool_02_5_Layer0_1_MEMBER_1_MEMBER_0_MEMBER_1_MEMBER_0_MEMBER_0_MEMBER_0_MEMBER_0_MEMBER_0_MEMBER_1_MEMBER_0_FILL"/>
</g>

<g transform="matrix( 1, 0, 0, 1, -15.3,-24.7) ">
<use xlink:href="#icon_tool_02_5_Layer0_1_MEMBER_1_MEMBER_0_MEMBER_1_MEMBER_0_MEMBER_0_MEMBER_0_MEMBER_0_MEMBER_1_FILL"/>
</g>

<g transform="matrix( 1, 0, 0, 1, -15.3,-24.7) ">
<use xlink:href="#icon_tool_02_5_Layer0_1_MEMBER_1_MEMBER_0_MEMBER_1_MEMBER_0_MEMBER_0_MEMBER_0_MEMBER_0_MEMBER_2_FILL"/>
</g>

<g transform="matrix( 1, 0, 0, 1, -15.3,-24.7) ">
<use xlink:href="#icon_tool_02_5_Layer0_1_MEMBER_1_MEMBER_0_MEMBER_1_MEMBER_0_MEMBER_0_MEMBER_0_MEMBER_0_MEMBER_3_FILL"/>
</g>

<g transform="matrix( 1, 0, 0, 1, -15.3,-24.7) ">
<use xlink:href="#icon_tool_02_5_Layer0_1_MEMBER_1_MEMBER_0_MEMBER_1_MEMBER_0_MEMBER_0_MEMBER_0_MEMBER_0_MEMBER_4_FILL"/>
</g>

<g transform="matrix( 1, 0, 0, 1, -15.3,-24.7) ">
<use xlink:href="#icon_tool_02_5_Layer0_1_MEMBER_1_MEMBER_0_MEMBER_1_MEMBER_0_MEMBER_0_MEMBER_0_MEMBER_0_MEMBER_5_FILL"/>
</g>

<g transform="matrix( 1, 0, 0, 1, -15.3,-24.7) ">
<use xlink:href="#icon_tool_02_5_Layer0_1_MEMBER_1_MEMBER_0_MEMBER_1_MEMBER_0_MEMBER_0_MEMBER_0_MEMBER_0_MEMBER_6_FILL"/>
</g>

<g transform="matrix( 1, 0, 0, 1, -15.3,-24.7) ">
<use xlink:href="#icon_tool_02_5_Layer0_1_MEMBER_1_MEMBER_0_MEMBER_1_MEMBER_0_MEMBER_0_MEMBER_0_MEMBER_0_MEMBER_7_FILL"/>
</g>

<g transform="matrix( 1, 0, 0, 1, -15.3,-24.7) ">
<use xlink:href="#icon_tool_02_5_Layer0_1_MEMBER_1_MEMBER_0_MEMBER_1_MEMBER_0_MEMBER_0_MEMBER_0_MEMBER_0_MEMBER_8_FILL"/>
</g>

<g transform="matrix( 1, 0, 0, 1, -15.3,-24.7) ">
<use xlink:href="#icon_tool_02_5_Layer0_1_MEMBER_1_MEMBER_0_MEMBER_1_MEMBER_0_MEMBER_0_MEMBER_0_MEMBER_0_MEMBER_9_FILL"/>
</g>

<g transform="matrix( 1, 0, 0, 1, -15.3,-24.7) ">
<use xlink:href="#icon_tool_02_5_Layer0_1_MEMBER_1_MEMBER_0_MEMBER_1_MEMBER_0_MEMBER_0_MEMBER_0_MEMBER_1_FILL"/>
</g>

<g transform="matrix( 1, 0, 0, 1, -15.3,-24.7) ">
<use xlink:href="#icon_tool_02_5_Layer0_1_MEMBER_1_MEMBER_0_MEMBER_1_MEMBER_0_MEMBER_0_MEMBER_0_MEMBER_2_MEMBER_0_FILL"/>
</g>

<g transform="matrix( 1, 0, 0, 1, -15.3,-24.7) ">
<use xlink:href="#icon_tool_02_5_Layer0_1_MEMBER_1_MEMBER_0_MEMBER_1_MEMBER_0_MEMBER_0_MEMBER_0_MEMBER_2_MEMBER_1_FILL"/>
</g>

<g transform="matrix( 1, 0, 0, 1, -15.3,-24.7) ">
<use xlink:href="#icon_tool_02_5_Layer0_1_MEMBER_1_MEMBER_0_MEMBER_1_MEMBER_0_MEMBER_1_FILL"/>
</g>

<g transform="matrix( 1, 0, 0, 1, -15.3,-24.7) ">
<use xlink:href="#icon_tool_02_5_Layer0_1_MEMBER_1_MEMBER_0_MEMBER_1_MEMBER_1_FILL"/>
</g>

<g transform="matrix( 1, 0, 0, 1, -15.3,-24.7) ">
<use xlink:href="#icon_tool_02_5_Layer0_1_MEMBER_1_MEMBER_0_MEMBER_2_FILL"/>
</g>

<g transform="matrix( 1, 0, 0, 1, -15.3,-24.7) ">
<use xlink:href="#icon_tool_02_5_Layer0_1_MEMBER_1_MEMBER_0_MEMBER_3_FILL"/>
</g>

<g transform="matrix( 1, 0, 0, 1, -15.3,-24.7) ">
<use xlink:href="#icon_tool_02_5_Layer0_1_MEMBER_1_MEMBER_1_FILL"/>
</g>
</g>
</svg>
