
<svg xmlns="http://www.w3.org/2000/svg" version="1.1" xmlns:xlink="http://www.w3.org/1999/xlink" preserveAspectRatio="none" x="0px" y="0px" width="80px" height="80px" viewBox="0 0 80 80">
<defs>
<g id="icon_tool_02_0_Layer1_0_FILL">
<path fill="#333333" fill-opacity="0" stroke="none" d="
M 30 -30
L -30 -30 -30 30 30 30 30 -30 Z"/>
</g>

<g id="icon_tool_02_0_Layer0_0_FILL">
<path fill="#000000" stroke="none" d="
M 29.35 7.3
Q 28.75 5.7 27.2 5.2
L 15.2 1.2
Q 14.2 0.85 13.15 1.15 11.35 1.65 10.75 3.4
L 9.8 6.25
Q 8.95 6 8.6 6.85 8.5 7.2 8.7 7.6 8.85 7.95 9.2 8.05
L 8.95 8.9 8.55 8.85 8.2 8.95
Q 7.9 9.1 7.75 9.5 7.5 10.35 8.35 10.7
L 1 32.7 1 32.75 4.85 46.6 5 47
Q 5 47.1 5.15 47.4 5.7 48.25 6.65 48.35 7.3 48.45 7.95 47.95
L 19.65 38.95 27 16.9
Q 27.85 17.15 28.2 16.3
L 28.25 15.9
Q 28.15 15.25 27.6 15.1
L 27.85 14.25
Q 28.25 14.35 28.6 14.2 28.95 14 29.05 13.65
L 29.1 13.3
Q 29.1 12.7 28.45 12.45
L 29.4 9.6
Q 29.75 8.55 29.35 7.3 Z"/>
</g>

<g id="icon_tool_02_0_Layer0_2_MEMBER_0_MEMBER_0_FILL">
<path fill="#D79A84" stroke="none" d="
M 19.65 38.95
L 10.35 35.85 8.1 42.55 12.9 44.15 19.65 38.95 Z"/>
</g>

<g id="icon_tool_02_0_Layer0_2_MEMBER_0_MEMBER_1_MEMBER_0_MEMBER_0_MEMBER_0_MEMBER_0_MEMBER_0_MEMBER_0_MEMBER_0_FILL">
<path fill="#F09732" stroke="none" d="
M 17.4 14.6
L 8.1 11.5 1 32.7 10.35 35.85 17.4 14.6 Z"/>
</g>

<g id="icon_tool_02_0_Layer0_2_MEMBER_0_MEMBER_1_MEMBER_0_MEMBER_0_MEMBER_0_MEMBER_0_MEMBER_0_MEMBER_0_MEMBER_1_FILL">
<path fill="#CD6B0D" stroke="none" d="
M 26.7 17.7
L 17.4 14.6 10.35 35.85 19.65 38.95 26.7 17.7 Z"/>
</g>

<g id="icon_tool_02_0_Layer0_2_MEMBER_0_MEMBER_1_MEMBER_0_MEMBER_0_MEMBER_0_MEMBER_0_MEMBER_0_MEMBER_1_MEMBER_0_FILL">
<path fill="#EB7D16" stroke="none" d="
M 14.7 37.3
L 21.8 16.05 13 13.15 5.95 34.35 14.7 37.3 Z"/>
</g>

<g id="icon_tool_02_0_Layer0_2_MEMBER_0_MEMBER_1_MEMBER_0_MEMBER_0_MEMBER_0_MEMBER_0_MEMBER_1_FILL">
<path fill="#A3A8AB" stroke="none" d="
M 26.7 17.7
L 28.75 11.65 10.1 5.45 8.1 11.5 26.7 17.7 Z"/>
</g>

<g id="icon_tool_02_0_Layer0_2_MEMBER_0_MEMBER_1_MEMBER_0_MEMBER_0_MEMBER_0_MEMBER_0_MEMBER_2_FILL">
<path fill="#F59593" stroke="none" d="
M 28.75 11.65
L 29.4 9.6
Q 29.85 8.25 29.2 6.95 28.55 5.65 27.2 5.2
L 15.2 1.2
Q 13.8 0.75 12.5 1.4 11.2 2.05 10.75 3.4
L 10.1 5.45 28.75 11.65 Z"/>
</g>

<g id="icon_tool_02_0_Layer0_2_MEMBER_0_MEMBER_1_MEMBER_0_MEMBER_0_MEMBER_0_MEMBER_0_MEMBER_3_FILL">
<path fill="#E6B993" stroke="none" d="
M 10.35 35.85
L 1 32.75 3.3 40.95 8.1 42.55 10.35 35.85 Z"/>
</g>

<g id="icon_tool_02_0_Layer0_2_MEMBER_0_MEMBER_1_MEMBER_0_MEMBER_0_MEMBER_0_MEMBER_0_MEMBER_4_FILL">
<path fill="#DEAA90" stroke="none" d="
M 14.7 37.3
L 5.95 34.35 5.85 41.8 10.35 43.3 14.7 37.3 Z"/>
</g>

<g id="icon_tool_02_0_Layer0_2_MEMBER_0_MEMBER_1_MEMBER_0_MEMBER_0_MEMBER_0_MEMBER_0_MEMBER_5_FILL">
<path fill="#9B9E9F" stroke="none" d="
M 29 12.9
Q 28.85 12.55 28.45 12.45
L 9.8 6.25
Q 8.95 6 8.6 6.85 8.5 7.2 8.7 7.6 8.85 7.95 9.2 8.05
L 27.85 14.25
Q 28.25 14.35 28.6 14.2 28.95 14 29.05 13.65 29.2 13.3 29 12.9 Z"/>
</g>

<g id="icon_tool_02_0_Layer0_2_MEMBER_0_MEMBER_1_MEMBER_0_MEMBER_0_MEMBER_0_MEMBER_0_MEMBER_6_FILL">
<path fill="#181514" stroke="none" d="
M 12.9 44.15
L 3.3 40.95 5 47
Q 5.25 47.95 6.2 48.25 7.15 48.6 7.95 47.95
L 12.9 44.15 Z"/>
</g>

<g id="icon_tool_02_0_Layer0_2_MEMBER_0_MEMBER_1_MEMBER_0_MEMBER_0_MEMBER_0_MEMBER_0_MEMBER_7_FILL">
<path fill="#F09732" stroke="none" d="
M 3.8 32.6
L 1 32.7
Q 1.3 33.7 1.8 34.5 2.45 35.5 3.2 35.55 4.3 35.7 5.95 34.35
L 3.8 32.6 Z"/>
</g>

<g id="icon_tool_02_0_Layer0_2_MEMBER_0_MEMBER_1_MEMBER_0_MEMBER_0_MEMBER_0_MEMBER_0_MEMBER_8_FILL">
<path fill="#EB7D16" stroke="none" d="
M 14.7 37.3
L 10.7 34.65 5.95 34.35
Q 6.3 35.5 7.3 36.45 8.3 37.5 9.65 37.95 10.95 38.4 12.4 38.15 13.75 37.95 14.7 37.3 Z"/>
</g>

<g id="icon_tool_02_0_Layer0_2_MEMBER_0_MEMBER_1_MEMBER_0_MEMBER_0_MEMBER_0_MEMBER_0_MEMBER_9_FILL">
<path fill="#CD6B0D" stroke="none" d="
M 19.65 38.95
L 17.5 37.15 14.7 37.3 15.1 38.4
Q 15.6 39.55 16.2 39.9 17.4 40.6 19.65 38.95 Z"/>
</g>

<g id="icon_tool_02_0_Layer0_2_MEMBER_0_MEMBER_1_MEMBER_0_MEMBER_0_MEMBER_0_MEMBER_1_FILL">
<path fill="#ABB1B4" stroke="none" d="
M 29 12.9
Q 28.85 12.55 28.45 12.45
L 9.8 6.25
Q 8.95 6 8.6 6.85
L 29.05 13.65
Q 29.2 13.3 29 12.9 Z"/>
</g>

<g id="icon_tool_02_0_Layer0_2_MEMBER_0_MEMBER_1_MEMBER_0_MEMBER_0_MEMBER_0_MEMBER_2_MEMBER_0_FILL">
<path fill="#9B9E9F" stroke="none" d="
M 27 16.9
Q 27.85 17.15 28.2 16.3 28.3 15.9 28.15 15.55 27.95 15.2 27.6 15.1
L 8.95 8.9
Q 8.6 8.75 8.2 8.95 7.85 9.1 7.75 9.5 7.5 10.35 8.35 10.7
L 27 16.9 Z"/>
</g>

<g id="icon_tool_02_0_Layer0_2_MEMBER_0_MEMBER_1_MEMBER_0_MEMBER_0_MEMBER_0_MEMBER_2_MEMBER_1_FILL">
<path fill="#ABB1B4" stroke="none" d="
M 28.15 15.55
Q 27.95 15.2 27.6 15.1
L 8.95 8.9
Q 8.6 8.75 8.2 8.95 7.85 9.1 7.75 9.5
L 28.2 16.3
Q 28.3 15.9 28.15 15.55 Z"/>
</g>

<g id="icon_tool_02_0_Layer0_2_MEMBER_0_MEMBER_1_MEMBER_0_MEMBER_1_FILL">
<path fill="#2A2523" stroke="none" d="
M 5.6 47
L 5.7 42.4 4.45 42 5.6 47 Z"/>
</g>

<g id="icon_tool_02_0_Layer0_2_MEMBER_0_MEMBER_1_MEMBER_1_FILL">
<path fill="#F0AD6A" stroke="none" d="
M 13 13.15
L 9.85 12.1 12.45 13.4 7.45 29.85 13 13.15 Z"/>
</g>

<g id="icon_tool_02_0_Layer0_2_MEMBER_0_MEMBER_2_FILL">
<path fill="#000000" stroke="none" d="
M 12.9 44.15
L 10.35 43.3
Q 7.5 47.15 7.15 47.5 6.75 48 5.95 47.75 5.24375 47.50078125 4.95 46.85
L 5 47
Q 5.25 47.95 6.2 48.25 7.15 48.6 7.95 47.95
L 12.9 44.15 Z"/>
</g>

<g id="icon_tool_02_0_Layer0_2_MEMBER_0_MEMBER_3_FILL">
<path fill="#E88482" stroke="none" d="
M 29.4 9.6
Q 29.85 8.25 29.2 6.95 28.55 5.65 27.2 5.2
L 22.4 3.6
Q 23.6900390625 4.080078125 24.3 5.3 24.95 6.6 24.45 8
L 23.8 10 28.75 11.65 29.4 9.6 Z"/>
</g>

<g id="icon_tool_02_0_Layer0_2_MEMBER_1_FILL">
<path fill="#FFA69C" stroke="none" d="
M 15.6 1.35
L 15.2 1.2
Q 13.8 0.75 12.5 1.4 11.2 2.05 10.75 3.4
L 10.1 5.45 10.5 5.6 11.2 3.55
Q 11.65 2.15 12.95 1.55 14.25 0.9 15.6 1.35 Z"/>
</g>

<path id="icon_tool_02_0_Layer0_0_1_STROKES" stroke="#000000" stroke-width="2" stroke-linejoin="round" stroke-linecap="butt" fill="none" d="
M 27.2 5.2
L 15.2 1.2
Q 14.2 0.85 13.15 1.15 11.35 1.65 10.75 3.4
L 9.8 6.25
Q 8.95 6 8.6 6.85 8.5 7.2 8.7 7.6 8.85 7.95 9.2 8.05
L 8.95 8.9 8.55 8.85 8.2 8.95
Q 7.9 9.1 7.75 9.5 7.5 10.35 8.35 10.7
L 1 32.7 1 32.75 4.85 46.6 5 47
Q 5 47.1 5.15 47.4 5.7 48.25 6.65 48.35 7.3 48.45 7.95 47.95
L 19.65 38.95 27 16.9
Q 27.85 17.15 28.2 16.3
L 28.25 15.9
Q 28.15 15.25 27.6 15.1
L 27.85 14.25
Q 28.25 14.35 28.6 14.2 28.95 14 29.05 13.65
L 29.1 13.3
Q 29.1 12.7 28.45 12.45
L 29.4 9.6
Q 29.75 8.55 29.35 7.3 28.75 5.7 27.2 5.2 Z"/>

<path id="icon_tool_02_0_Layer0_1_MEMBER_0_1_STROKES" stroke="#000000" stroke-width="2" stroke-linejoin="round" stroke-linecap="round" fill="none" d="
M -7.95 23.15
L 25.35 23.15"/>
</defs>

<g transform="matrix( 1, 0, 0, 1, 40,40) ">
<g transform="matrix( 1, 0, 0, 1, 0,0) ">
<use xlink:href="#icon_tool_02_0_Layer1_0_FILL"/>
</g>

<g transform="matrix( 1, 0, 0, 1, -15.3,-24.7) ">
<use xlink:href="#icon_tool_02_0_Layer0_0_FILL"/>

<use xlink:href="#icon_tool_02_0_Layer0_0_1_STROKES"/>
</g>

<g transform="matrix( 1, 0, 0, 1, -0.1,0.55) ">
<use xlink:href="#icon_tool_02_0_Layer0_1_MEMBER_0_1_STROKES"/>
</g>

<g transform="matrix( 1, 0, 0, 1, -15.3,-24.7) ">
<use xlink:href="#icon_tool_02_0_Layer0_2_MEMBER_0_MEMBER_0_FILL"/>
</g>

<g transform="matrix( 1, 0, 0, 1, -15.3,-24.7) ">
<use xlink:href="#icon_tool_02_0_Layer0_2_MEMBER_0_MEMBER_1_MEMBER_0_MEMBER_0_MEMBER_0_MEMBER_0_MEMBER_0_MEMBER_0_MEMBER_0_FILL"/>
</g>

<g transform="matrix( 1, 0, 0, 1, -15.3,-24.7) ">
<use xlink:href="#icon_tool_02_0_Layer0_2_MEMBER_0_MEMBER_1_MEMBER_0_MEMBER_0_MEMBER_0_MEMBER_0_MEMBER_0_MEMBER_0_MEMBER_1_FILL"/>
</g>

<g transform="matrix( 1, 0, 0, 1, -15.3,-24.7) ">
<use xlink:href="#icon_tool_02_0_Layer0_2_MEMBER_0_MEMBER_1_MEMBER_0_MEMBER_0_MEMBER_0_MEMBER_0_MEMBER_0_MEMBER_1_MEMBER_0_FILL"/>
</g>

<g transform="matrix( 1, 0, 0, 1, -15.3,-24.7) ">
<use xlink:href="#icon_tool_02_0_Layer0_2_MEMBER_0_MEMBER_1_MEMBER_0_MEMBER_0_MEMBER_0_MEMBER_0_MEMBER_1_FILL"/>
</g>

<g transform="matrix( 1, 0, 0, 1, -15.3,-24.7) ">
<use xlink:href="#icon_tool_02_0_Layer0_2_MEMBER_0_MEMBER_1_MEMBER_0_MEMBER_0_MEMBER_0_MEMBER_0_MEMBER_2_FILL"/>
</g>

<g transform="matrix( 1, 0, 0, 1, -15.3,-24.7) ">
<use xlink:href="#icon_tool_02_0_Layer0_2_MEMBER_0_MEMBER_1_MEMBER_0_MEMBER_0_MEMBER_0_MEMBER_0_MEMBER_3_FILL"/>
</g>

<g transform="matrix( 1, 0, 0, 1, -15.3,-24.7) ">
<use xlink:href="#icon_tool_02_0_Layer0_2_MEMBER_0_MEMBER_1_MEMBER_0_MEMBER_0_MEMBER_0_MEMBER_0_MEMBER_4_FILL"/>
</g>

<g transform="matrix( 1, 0, 0, 1, -15.3,-24.7) ">
<use xlink:href="#icon_tool_02_0_Layer0_2_MEMBER_0_MEMBER_1_MEMBER_0_MEMBER_0_MEMBER_0_MEMBER_0_MEMBER_5_FILL"/>
</g>

<g transform="matrix( 1, 0, 0, 1, -15.3,-24.7) ">
<use xlink:href="#icon_tool_02_0_Layer0_2_MEMBER_0_MEMBER_1_MEMBER_0_MEMBER_0_MEMBER_0_MEMBER_0_MEMBER_6_FILL"/>
</g>

<g transform="matrix( 1, 0, 0, 1, -15.3,-24.7) ">
<use xlink:href="#icon_tool_02_0_Layer0_2_MEMBER_0_MEMBER_1_MEMBER_0_MEMBER_0_MEMBER_0_MEMBER_0_MEMBER_7_FILL"/>
</g>

<g transform="matrix( 1, 0, 0, 1, -15.3,-24.7) ">
<use xlink:href="#icon_tool_02_0_Layer0_2_MEMBER_0_MEMBER_1_MEMBER_0_MEMBER_0_MEMBER_0_MEMBER_0_MEMBER_8_FILL"/>
</g>

<g transform="matrix( 1, 0, 0, 1, -15.3,-24.7) ">
<use xlink:href="#icon_tool_02_0_Layer0_2_MEMBER_0_MEMBER_1_MEMBER_0_MEMBER_0_MEMBER_0_MEMBER_0_MEMBER_9_FILL"/>
</g>

<g transform="matrix( 1, 0, 0, 1, -15.3,-24.7) ">
<use xlink:href="#icon_tool_02_0_Layer0_2_MEMBER_0_MEMBER_1_MEMBER_0_MEMBER_0_MEMBER_0_MEMBER_1_FILL"/>
</g>

<g transform="matrix( 1, 0, 0, 1, -15.3,-24.7) ">
<use xlink:href="#icon_tool_02_0_Layer0_2_MEMBER_0_MEMBER_1_MEMBER_0_MEMBER_0_MEMBER_0_MEMBER_2_MEMBER_0_FILL"/>
</g>

<g transform="matrix( 1, 0, 0, 1, -15.3,-24.7) ">
<use xlink:href="#icon_tool_02_0_Layer0_2_MEMBER_0_MEMBER_1_MEMBER_0_MEMBER_0_MEMBER_0_MEMBER_2_MEMBER_1_FILL"/>
</g>

<g transform="matrix( 1, 0, 0, 1, -15.3,-24.7) ">
<use xlink:href="#icon_tool_02_0_Layer0_2_MEMBER_0_MEMBER_1_MEMBER_0_MEMBER_1_FILL"/>
</g>

<g transform="matrix( 1, 0, 0, 1, -15.3,-24.7) ">
<use xlink:href="#icon_tool_02_0_Layer0_2_MEMBER_0_MEMBER_1_MEMBER_1_FILL"/>
</g>

<g transform="matrix( 1, 0, 0, 1, -15.3,-24.7) ">
<use xlink:href="#icon_tool_02_0_Layer0_2_MEMBER_0_MEMBER_2_FILL"/>
</g>

<g transform="matrix( 1, 0, 0, 1, -15.3,-24.7) ">
<use xlink:href="#icon_tool_02_0_Layer0_2_MEMBER_0_MEMBER_3_FILL"/>
</g>

<g transform="matrix( 1, 0, 0, 1, -15.3,-24.7) ">
<use xlink:href="#icon_tool_02_0_Layer0_2_MEMBER_1_FILL"/>
</g>
</g>
</svg>
