
<svg xmlns="http://www.w3.org/2000/svg" version="1.1" xmlns:xlink="http://www.w3.org/1999/xlink" preserveAspectRatio="none" x="0px" y="0px" width="186px" height="45px" viewBox="0 0 186 45">
<defs>
<g id="Layer1_0_FILL">
<path fill="#FFFFFF" stroke="none" d="
M 240 52.5
L 240 12.5 60 12.5 60 52.5 240 52.5 Z"/>
</g>

<g id="Layer1_2_FILL">
<path fill="#2ABD71" stroke="none" d="
M 62.95 49.4
L 56.95 49.4 56.95 55.4 62.95 55.4 62.95 49.4
M 62.95 9.65
L 56.95 9.65 56.95 15.65 62.95 15.65 62.95 9.65
M 243.1 55.4
L 243.1 49.4 237.1 49.4 237.1 55.4 243.1 55.4
M 243.1 15.65
L 243.1 9.65 237.1 9.65 237.1 15.65 243.1 15.65 Z"/>
</g>

<g id="Layer0_0_FILL">
<path fill="#000000" stroke="none" d="
M 94.1 27.6
Q 93.85 27.6 93.85 27.95
L 93.85 29.25
Q 93.85 29.35 93.9 29.45 94 29.55 94.1 29.55
L 111.55 29.55
Q 111.65 29.55 111.75 29.45 111.85 29.35 111.85 29.25
L 111.85 27.95
Q 111.85 27.8 111.75 27.7 111.65 27.6 111.55 27.6
L 94.1 27.6
M 101.75 14.95
Q 101.7 15.1 101.65 15.25 101.55 16.65 101.1 17.75 100.65 18.85 99.85 19.65 99.05 20.5 97.9 21.15 96.8 21.8 95.3 22.35 95.15 22.4 95.1 22.55 95 22.65 95.1 22.85
L 95.8 24.05
Q 95.9 24.25 96.05 24.25 96.15 24.3 96.25 24.25 98.5 23.5 100.2 22.25 101.95 21.05 102.95 19.25 103.45 20.1 104.15 20.85 104.85 21.55 105.75 22.15 106.6 22.75 107.5 23.2 108.45 23.65 109.35 23.85 109.7 23.95 109.85 23.65
L 110.55 22.35
Q 110.55 22.25 110.55 22.15 110.5 22 110.35 21.95 109.25 21.65 108.15 21.1 107.1 20.55 106.25 19.8 105.35 19.05 104.75 18.2 104.15 17.3 103.95 16.35 104.05 15.9 104.05 15.35 104.05 14.95 103.75 14.95
L 102 14.85
Q 101.85 14.85 101.75 14.95
M 90.25 27.2
Q 90.25 26.45 90 26.1 89.7 25.8 88.95 25.8
L 78.55 25.8
Q 78.45 25.8 78.35 25.85 78.25 25.9 78.25 26.05
L 78.25 27.45
Q 78.25 27.55 78.35 27.65 78.45 27.7 78.55 27.7
L 87.6 27.7
Q 87.8 27.7 87.9 27.75 87.95 27.85 87.95 28.05
L 87.95 32.6
Q 87.95 32.7 88.05 32.8 88.15 32.85 88.25 32.85
L 90 32.85
Q 90.1 32.85 90.2 32.8 90.25 32.7 90.25 32.6
L 90.25 27.2
M 83.15 14.7
Q 83.05 14.8 83.05 14.9
L 83.05 17.65 78.8 17.65 78.8 14.9
Q 78.8 14.8 78.7 14.75 78.65 14.65 78.55 14.65
L 76.8 14.65
Q 76.7 14.65 76.6 14.75 76.55 14.8 76.55 14.9
L 76.55 22.35
Q 76.55 23.15 76.85 23.45 77.15 23.75 78.05 23.75
L 83.85 23.75
Q 84.7 23.75 85 23.4 85.35 23.05 85.35 22.4
L 85.35 14.9
Q 85.35 14.8 85.25 14.7 85.15 14.6 85.05 14.6
L 83.3 14.6
Q 83.2 14.6 83.15 14.7
M 83.05 21.5
Q 83.05 21.85 82.7 21.85
L 79.15 21.85
Q 78.8 21.85 78.8 21.5
L 78.8 19.5 83.05 19.5 83.05 21.5
M 90.3 18.55
L 90.3 14.2
Q 90.3 13.95 90.05 13.95
L 88.25 13.95
Q 88 13.95 88 14.2
L 88 24.5
Q 88 24.8 88.25 24.8
L 90.05 24.8
Q 90.3 24.8 90.3 24.55
L 90.3 20.45 93 20.45
Q 93.1 20.45 93.2 20.35 93.3 20.3 93.3 20.2
L 93.3 18.75
Q 93.3 18.65 93.2 18.6 93.1 18.55 93 18.55
L 90.3 18.55
M 50.7 29.45
Q 50.8 29.55 50.9 29.55
L 68.35 29.55
Q 68.45 29.55 68.55 29.45 68.65 29.35 68.65 29.25
L 68.65 27.95
Q 68.65 27.85 68.55 27.75 68.45 27.65 68.35 27.65
L 50.9 27.65
Q 50.65 27.65 50.65 27.95
L 50.65 29.25
Q 50.65 29.35 50.7 29.45
M 65.95 16.65
L 65.95 15.3
Q 65.95 15.05 65.65 15.05
L 54.7 15.05
Q 53.95 15.05 53.6 15.3 53.25 15.6 53.25 16.35
L 53.25 23.25
Q 53.25 23.95 53.55 24.35 53.9 24.7 54.7 24.7
L 65.85 24.7
Q 65.95 24.7 66 24.6 66.1 24.55 66.1 24.4
L 66.1 23.05
Q 66.1 22.9 66 22.85 65.95 22.85 65.75 22.85
L 55.9 22.85
Q 55.7 22.85 55.6 22.75 55.55 22.7 55.55 22.45
L 55.55 20.75 65.4 20.75
Q 65.5 20.75 65.6 20.7 65.7 20.6 65.7 20.5
L 65.7 19.2
Q 65.7 19.1 65.6 19 65.5 18.95 65.4 18.95
L 55.55 18.95 55.55 17.25
Q 55.55 16.95 55.9 16.95
L 65.65 16.95
Q 65.95 16.95 65.95 16.65
M 49.55 29.55
Q 49.65 29.55 49.75 29.45 49.85 29.35 49.85 29.25
L 49.85 27.95
Q 49.85 27.8 49.75 27.7 49.65 27.6 49.55 27.6
L 32.1 27.6
Q 31.85 27.6 31.85 27.95
L 31.85 29.25
Q 31.85 29.35 31.9 29.45 32 29.55 32.1 29.55
L 49.55 29.55
M 42.05 15.35
Q 42.05 14.95 41.75 14.95
L 40 14.85
Q 39.85 14.85 39.75 14.95 39.7 15.1 39.65 15.25 39.55 16.65 39.1 17.75 38.65 18.85 37.85 19.65 37.05 20.5 35.9 21.15 34.8 21.8 33.3 22.35 33.15 22.4 33.1 22.55 33 22.65 33.1 22.85
L 33.8 24.05
Q 33.9 24.25 34.05 24.25 34.15 24.3 34.25 24.25 36.5 23.5 38.2 22.25 39.95 21.05 40.95 19.25 41.45 20.1 42.15 20.85 42.85 21.55 43.75 22.15 44.6 22.75 45.5 23.2 46.45 23.65 47.35 23.85 47.7 23.95 47.85 23.65
L 48.55 22.35
Q 48.55 22.25 48.55 22.15 48.5 22 48.35 21.95 47.25 21.65 46.15 21.1 45.1 20.55 44.25 19.8 43.35 19.05 42.75 18.2 42.15 17.3 41.95 16.35 42.05 15.9 42.05 15.35
M 17.35 26.35
Q 17.25 26.35 17.15 26.4 17.05 26.45 17.05 26.6
L 17.05 28.05
Q 17.05 28.15 17.15 28.2 17.25 28.25 17.35 28.25
L 27.3 28.25
Q 27.5 28.25 27.6 28.35 27.7 28.4 27.7 28.6
L 27.7 32.6
Q 27.7 32.7 27.8 32.8 27.85 32.85 28 32.85
L 29.7 32.85
Q 29.8 32.85 29.9 32.8 30 32.7 30 32.6
L 30 27.75
Q 30 26.95 29.7 26.65 29.4 26.35 28.65 26.35
L 17.35 26.35
M 20.95 16.85
Q 21.05 16.85 21.15 16.75 21.25 16.65 21.25 16.55
L 21.25 15.25
Q 21.25 15 20.95 15
L 15.45 15
Q 14.7 15 14.4 15.3 14.1 15.55 14.1 16.25
L 14.1 23.15
Q 14.1 24.5 15.55 24.6 16.25 24.65 17.15 24.65 18.05 24.6 19 24.55 19.95 24.45 20.85 24.35 21.75 24.2 22.4 24.05 22.5 24 22.6 23.9 22.75 23.8 22.7 23.65
L 22.5 22.55
Q 22.45 22.35 22.35 22.35 22.25 22.3 22.1 22.35 21.65 22.45 20.95 22.55 20.25 22.65 19.5 22.7 18.75 22.75 18.1 22.75 17.4 22.75 17 22.75 16.65 22.7 16.5 22.6 16.4 22.5 16.4 22.2
L 16.4 20.7
Q 17.35 20.7 18.35 20.65 19.35 20.65 20.3 20.55 20.35 20.55 20.45 20.45 20.5 20.35 20.5 20.2
L 20.45 19
Q 20.45 18.9 20.4 18.85 20.3 18.8 20.25 18.8 19.35 18.9 18.35 18.9 17.4 18.9 16.4 18.9
L 16.4 17.2
Q 16.4 16.85 16.75 16.85
L 20.95 16.85
M 26.25 14.5
Q 26.25 14.25 25.95 14.25
L 24.35 14.25
Q 24.05 14.25 24.05 14.5
L 24.05 18.95 21.85 18.95
Q 21.75 18.95 21.65 19.05 21.55 19.1 21.55 19.2
L 21.55 20.55
Q 21.55 20.65 21.65 20.7 21.75 20.8 21.85 20.8
L 24.05 20.8 24.05 24.95
Q 24.05 25.25 24.35 25.25
L 25.95 25.25
Q 26.25 25.25 26.25 24.95
L 26.25 14.5
M 30 14.2
Q 30 13.95 29.75 13.95
L 28 13.95
Q 27.75 13.95 27.75 14.2
L 27.75 25.15
Q 27.75 25.4 28 25.4
L 29.75 25.4
Q 30 25.4 30 25.15
L 30 14.2 Z"/>
</g>

<path id="Layer1_0_1_STROKES" stroke="#2ABD71" stroke-width="1" stroke-linejoin="round" stroke-linecap="round" fill="none" d="
M 60 12.5
L 240 12.5 240 52.5 60 52.5 60 12.5 Z"/>

<path id="Layer1_1_MEMBER_0_1_STROKES" stroke="#CCCCCC" stroke-width="1" stroke-linejoin="round" stroke-linecap="round" fill="none" d="
M 97.25 507
L 97.25 535.6"/>
</defs>

<g transform="matrix( 1, 0, 0, 1, -56.95,-9.65) ">
<use xlink:href="#Layer1_0_FILL"/>

<use xlink:href="#Layer1_0_1_STROKES"/>
</g>

<g transform="matrix( 1, 0, 0, 1, -86.85,-498.45) ">
<use xlink:href="#Layer1_1_MEMBER_0_1_STROKES"/>
</g>

<g transform="matrix( 1, 0, 0, 1, -56.95,-9.65) ">
<use xlink:href="#Layer1_2_FILL"/>
</g>

<g transform="matrix( 1, 0, 0, 1, 0,0) ">
<use xlink:href="#Layer0_0_FILL"/>
</g>
</svg>
