
<svg xmlns="http://www.w3.org/2000/svg" version="1.1" xmlns:xlink="http://www.w3.org/1999/xlink" preserveAspectRatio="none" x="0px" y="0px" width="32px" height="32px" viewBox="0 0 32 32">
<defs>
<g id="Duplicate_Items_Folder_Symbol_41_copy_1_Layer0_0_FILL">
<path fill="#ECECEC" stroke="none" d="
M 63.1 -2.8
Q 63.1 -8.25 59.25 -12.1 55.4 -15.95 49.95 -15.95 44.5 -15.95 40.65 -12.1 36.8 -8.25 36.8 -2.8 36.8 2.65 40.65 6.5 44.5 10.35 49.95 10.35 55.4 10.35 59.25 6.5 63.1 2.65 63.1 -2.8 Z"/>
</g>

<g id="Duplicate_Items_Folder_Symbol_41_copy_1_Layer0_1_FILL">
<path fill="#CECECE" stroke="none" d="
M 11.4 11.8
Q 11.3599609375 10.7734375 10.6 10.05 9.8337890625 9.3646484375 8.8 9.4 7.7626953125 9.4412109375 7.05 10.2
L 1.35 16.4
Q 0.6951171875 17.121875 0.7 18.1 0.6951171875 19.0779296875 1.35 19.8
L 7.05 26
Q 7.7626953125 26.7587890625 8.8 26.8 9.8337890625 26.8353515625 10.6 26.1 11.3599609375 25.4265625 11.4 24.4 11.44609375 23.3673828125 10.75 22.6
L 6.6 18.1 10.75 13.6
Q 11.44609375 12.8326171875 11.4 11.8 Z"/>
</g>
</defs>

<g transform="matrix( -0.9999847412109375, 0, 0, 0.9999847412109375, 23.35,-2.1) ">
<g transform="matrix( 1.139984130859375, 0, 0, 1.139984130859375, -49.6,21.25) ">
<use xlink:href="#Duplicate_Items_Folder_Symbol_41_copy_1_Layer0_0_FILL"/>
</g>

<g transform="matrix( 0.7599945068359375, 0, 0, 0.7599945068359375, 1.75,4.35) ">
<use xlink:href="#Duplicate_Items_Folder_Symbol_41_copy_1_Layer0_1_FILL"/>
</g>
</g>
</svg>
