
<svg xmlns="http://www.w3.org/2000/svg" version="1.1" xmlns:xlink="http://www.w3.org/1999/xlink" preserveAspectRatio="none" x="0px" y="0px" width="40px" height="40px" viewBox="0 0 40 40">
<defs>
<g id="icon_pdf_0_Layer0_0_MEMBER_0_FILL">
<path fill="#FFFFFF" stroke="none" d="
M 25.65 30.3
L 25.65 1 4.05 1
Q 2.8 1 1.9 1.9 1 2.8 1 4.05
L 1 27.25
Q 1 28.5 1.9 29.4 2.8 30.3 4.05 30.3
L 25.65 30.3 Z"/>
</g>

<g id="icon_pdf_0_Layer0_0_MEMBER_1_FILL">
<path fill="#FFFFFF" stroke="none" d="
M 25.65 30.3
L 25.65 24.2 4.05 24.2
Q 2.8 24.2 1.9 25.1 1 26 1 27.25 1 28.5 1.9 29.4 2.8 30.3 4.05 30.3
L 25.65 30.3 Z"/>
</g>

<g id="icon_pdf_0_Layer0_0_MEMBER_2_MEMBER_0_FILL">
<path fill="#000000" stroke="none" d="
M 13.15 17.3
Q 12.35 17.3 11.85 17.8 11.3 18.3 11.3 19.1 11.3 19.9 11.85 20.4 12.35 20.95 13.15 20.95 13.9 20.95 14.45 20.4 14.95 19.9 14.95 19.1 14.95 18.35 14.45 17.85 13.9 17.3 13.15 17.3
M 17.15 11.8
Q 18.05 10.65 18.05 9.45 18.05 7.65 16.7 6.55 15.3 5.45 13.15 5.65 10.85 5.85 9.65 7 8.5 8.1 8.65 9.75 8.75 11.35 10.25 11.2 11.7 11.15 11.75 9.75 11.85 8.4 13.35 8.15 14.95 7.95 15.1 9.25 15.25 10.2 14.5 10.95 13.55 11.95 12.45 13.1 11.7 14.1 11.7 15.25 11.7 15.8 11.9 16.05 12.2 16.4 13.05 16.4 14.45 16.4 14.45 15.4 14.45 14.45 15.3 13.65 16.7 12.4 17.15 11.8 Z"/>
</g>

<path id="icon_pdf_0_Layer0_0_MEMBER_0_1_STROKES" stroke="#000000" stroke-width="2" stroke-linejoin="round" stroke-linecap="butt" fill="none" d="
M 25.65 30.3
L 4.05 30.3
Q 2.8 30.3 1.9 29.4 1 28.5 1 27.25
L 1 4.05
Q 1 2.8 1.9 1.9 2.8 1 4.05 1
L 25.65 1 25.65 30.3 Z"/>

<path id="icon_pdf_0_Layer0_0_MEMBER_1_1_STROKES" stroke="#000000" stroke-width="2" stroke-linejoin="round" stroke-linecap="butt" fill="none" d="
M 25.65 30.3
L 4.05 30.3
Q 2.8 30.3 1.9 29.4 1 28.5 1 27.25 1 26 1.9 25.1 2.8 24.2 4.05 24.2
L 25.65 24.2 25.65 30.3 Z"/>
</defs>

<g transform="matrix( 1, 0, 0, 1, -15,-15) ">
<g transform="matrix( 1, 0, 0, 1, 21.7,19.35) ">
<use xlink:href="#icon_pdf_0_Layer0_0_MEMBER_0_FILL"/>

<use xlink:href="#icon_pdf_0_Layer0_0_MEMBER_0_1_STROKES"/>
</g>

<g transform="matrix( 1, 0, 0, 1, 21.7,19.35) ">
<use xlink:href="#icon_pdf_0_Layer0_0_MEMBER_1_FILL"/>

<use xlink:href="#icon_pdf_0_Layer0_0_MEMBER_1_1_STROKES"/>
</g>

<g transform="matrix( 1, 0, 0, 1, 21.7,19.35) ">
<use xlink:href="#icon_pdf_0_Layer0_0_MEMBER_2_MEMBER_0_FILL"/>
</g>
</g>
</svg>
